%
M48
M72
T01C0.0130
T02C0.0190
T03C0.0197
T04C0.0236
T05C0.0315
T06C0.0320
T07C0.0433
T08C0.0460
T09C0.0512
%
T01
X4860Y11546
X5210Y12346
X5760Y12896
X9110Y15286
X9110Y15686
X9710Y16286
X9710Y16686
X9710Y17686
X10310Y17996
X9710Y18286
X10910Y18046
X12260Y18196
X12810Y17796
X12610Y17296
X12460Y16796
X12460Y16296
X12610Y15396
X12360Y15046
X14060Y15946
X14060Y16296
X13960Y16796
X14433Y17169
X15330Y17996
X16460Y16896
X17560Y16996
X17560Y15946
X17960Y15546
X18360Y15546
X18760Y15546
X19160Y15546
X18960Y15096
X18510Y14996
X18160Y14696
X18060Y13996
X18410Y13696
X19110Y13546
X19510Y13246
X17060Y12596
X16660Y12596
X16260Y13296
X15710Y13696
X15410Y13996
X15810Y14446
X15720Y14796
X14960Y15496
X14660Y15946
X14610Y16296
X16860Y13996
X14860Y13646
X17260Y18686
X17660Y18686
X16260Y20286
X15660Y20286
X15060Y20286
X14460Y20286
X13860Y20286
X13640Y18846
X11260Y20286
X10660Y20286
X10060Y20286
X9460Y20286
X8860Y20286
X20660Y20286
X21260Y20286
X21560Y19786
X21560Y19186
T02
X11260Y19746
T03
X9160Y13046
X9310Y12096
X15810Y10946
X18560Y10646
T04
X13460Y11746
X11460Y11196
X8860Y11746
X19160Y17696
T05
X16444Y5646
X14475Y5646
X14480Y3696
X16480Y3696
T06
X13260Y15296
X13260Y16296
X13260Y17296
T07
X14728Y19233
X20791Y19233
X18744Y7658
X16775Y7658
T08
X5860Y4496
X7860Y4496
X10510Y4496
X12510Y4496
X18610Y4546
X20610Y4546
T09
X13050Y13696
X10050Y13696
X8200Y13696
X5200Y13696
X5200Y9696
X8200Y7696
X10050Y6696
X10050Y9696
X5200Y6696
M30
