G75*
G70*
%OFA0B0*%
%FSLAX24Y24*%
%IPPOS*%
%LPD*%
%AMOC8*
5,1,8,0,0,1.08239X$1,22.5*
%
%ADD10C,0.0020*%
%ADD11C,0.0030*%
%ADD12C,0.0050*%
%ADD13C,0.0040*%
%ADD14C,0.0080*%
%ADD15C,0.0060*%
%ADD16C,0.0100*%
D10*
X007406Y008906D02*
X007553Y008906D01*
X007590Y008943D01*
X007590Y009016D01*
X007553Y009053D01*
X007479Y009053D01*
X007479Y008979D01*
X007406Y008906D02*
X007369Y008943D01*
X007369Y009016D01*
X007406Y009053D01*
X007369Y009127D02*
X007479Y009127D01*
X007443Y009200D01*
X007443Y009237D01*
X007479Y009274D01*
X007553Y009274D01*
X007590Y009237D01*
X007590Y009164D01*
X007553Y009127D01*
X007369Y009127D02*
X007369Y009274D01*
X007406Y009348D02*
X007369Y009385D01*
X007369Y009458D01*
X007406Y009495D01*
X007553Y009495D01*
X007590Y009458D01*
X007590Y009385D01*
X007553Y009348D01*
X007406Y009348D01*
X007516Y009421D02*
X007590Y009495D01*
X007479Y009569D02*
X007479Y009716D01*
X007443Y009790D02*
X007369Y009863D01*
X007590Y009863D01*
X007590Y009790D02*
X007590Y009937D01*
X007479Y010011D02*
X007479Y010158D01*
X007479Y010232D02*
X007479Y010305D01*
X007369Y010379D02*
X007369Y010232D01*
X007590Y010232D01*
X007590Y010379D01*
X007553Y010453D02*
X007590Y010489D01*
X007590Y010563D01*
X007553Y010600D01*
X007369Y010600D01*
X007479Y010674D02*
X007479Y010821D01*
X007479Y010895D02*
X007443Y010968D01*
X007443Y011005D01*
X007479Y011042D01*
X007553Y011042D01*
X007590Y011005D01*
X007590Y010931D01*
X007553Y010895D01*
X007479Y010895D02*
X007369Y010895D01*
X007369Y011042D01*
X007369Y011116D02*
X007516Y011116D01*
X007590Y011189D01*
X007516Y011263D01*
X007369Y011263D01*
X007369Y011337D02*
X007369Y011447D01*
X007406Y011483D01*
X007553Y011483D01*
X007590Y011447D01*
X007590Y011337D01*
X007369Y011337D01*
X007406Y011558D02*
X007553Y011558D01*
X007590Y011594D01*
X007590Y011668D01*
X007553Y011704D01*
X007406Y011704D02*
X007369Y011668D01*
X007369Y011594D01*
X007406Y011558D01*
X007369Y010453D02*
X007553Y010453D01*
X012419Y010474D02*
X012566Y010474D01*
X012640Y010547D01*
X012566Y010621D01*
X012419Y010621D01*
X012419Y010695D02*
X012419Y010805D01*
X012456Y010842D01*
X012603Y010842D01*
X012640Y010805D01*
X012640Y010695D01*
X012419Y010695D01*
X012456Y010916D02*
X012603Y010916D01*
X012640Y010952D01*
X012640Y011026D01*
X012603Y011063D01*
X012456Y011063D02*
X012419Y011026D01*
X012419Y010952D01*
X012456Y010916D01*
X012419Y010400D02*
X012419Y010253D01*
X012529Y010253D01*
X012493Y010326D01*
X012493Y010363D01*
X012529Y010400D01*
X012603Y010400D01*
X012640Y010363D01*
X012640Y010289D01*
X012603Y010253D01*
X012529Y010179D02*
X012529Y010032D01*
X012529Y009958D02*
X012529Y009811D01*
X012493Y009811D02*
X012419Y009884D01*
X012493Y009958D01*
X012640Y009958D01*
X012640Y009811D02*
X012493Y009811D01*
X012640Y009737D02*
X012640Y009590D01*
X012640Y009663D02*
X012419Y009663D01*
X012493Y009590D01*
X012529Y009516D02*
X012529Y009369D01*
X012456Y009295D02*
X012603Y009295D01*
X012640Y009258D01*
X012640Y009185D01*
X012603Y009148D01*
X012456Y009148D01*
X012419Y009185D01*
X012419Y009258D01*
X012456Y009295D01*
X012566Y009221D02*
X012640Y009295D01*
X012603Y009074D02*
X012640Y009037D01*
X012640Y008964D01*
X012603Y008927D01*
X012529Y008927D02*
X012493Y009000D01*
X012493Y009037D01*
X012529Y009074D01*
X012603Y009074D01*
X012529Y008927D02*
X012419Y008927D01*
X012419Y009074D01*
X012456Y008853D02*
X012419Y008816D01*
X012419Y008743D01*
X012456Y008706D01*
X012603Y008706D01*
X012640Y008743D01*
X012640Y008816D01*
X012603Y008853D01*
X012529Y008853D01*
X012529Y008779D01*
X007347Y015896D02*
X007347Y016006D01*
X007310Y016043D01*
X007274Y016006D01*
X007274Y015896D01*
X007200Y015896D02*
X007200Y016043D01*
X007237Y016043D01*
X007274Y016006D01*
X007126Y016006D02*
X007089Y016043D01*
X007016Y016043D01*
X006979Y016006D01*
X006979Y015933D01*
X007016Y015896D01*
X007089Y015896D01*
X007126Y015933D01*
X007126Y016006D01*
X006905Y016043D02*
X006795Y016043D01*
X006758Y016006D01*
X006758Y015933D01*
X006795Y015896D01*
X006905Y015896D01*
X006685Y015896D02*
X006685Y015933D01*
X006648Y015933D01*
X006648Y015896D01*
X006685Y015896D01*
X006574Y015896D02*
X006464Y015969D01*
X006574Y016043D01*
X006464Y016116D02*
X006464Y015896D01*
X006390Y015896D02*
X006279Y015896D01*
X006243Y015933D01*
X006279Y015969D01*
X006390Y015969D01*
X006390Y016006D02*
X006390Y015896D01*
X006390Y016006D02*
X006353Y016043D01*
X006279Y016043D01*
X006169Y016006D02*
X006169Y015969D01*
X006022Y015969D01*
X006022Y015933D02*
X006022Y016006D01*
X006058Y016043D01*
X006132Y016043D01*
X006169Y016006D01*
X006132Y015896D02*
X006058Y015896D01*
X006022Y015933D01*
X005948Y016006D02*
X005911Y015969D01*
X005801Y015969D01*
X005801Y015896D02*
X005801Y016116D01*
X005911Y016116D01*
X005948Y016079D01*
X005948Y016006D01*
X005727Y016006D02*
X005690Y016043D01*
X005617Y016043D01*
X005580Y016006D01*
X005580Y015933D01*
X005617Y015896D01*
X005690Y015896D01*
X005727Y015933D01*
X005727Y016006D01*
X005506Y016006D02*
X005506Y015896D01*
X005506Y016006D02*
X005469Y016043D01*
X005359Y016043D01*
X005359Y015896D01*
X005285Y015896D02*
X005211Y015896D01*
X005248Y015896D02*
X005248Y016043D01*
X005211Y016043D01*
X005137Y016043D02*
X005137Y015896D01*
X005027Y015896D01*
X004991Y015933D01*
X004991Y016043D01*
X004916Y016079D02*
X004880Y016116D01*
X004770Y016116D01*
X004770Y015896D01*
X004880Y015896D01*
X004916Y015933D01*
X004916Y016079D01*
X005248Y016116D02*
X005248Y016153D01*
X006537Y019422D02*
X006537Y019643D01*
X006648Y019643D01*
X006684Y019606D01*
X006684Y019533D01*
X006648Y019496D01*
X006537Y019496D01*
X006463Y019533D02*
X006463Y019606D01*
X006427Y019643D01*
X006353Y019643D01*
X006316Y019606D01*
X006316Y019533D01*
X006353Y019496D01*
X006427Y019496D01*
X006463Y019533D01*
X006242Y019496D02*
X006242Y019606D01*
X006206Y019643D01*
X006095Y019643D01*
X006095Y019496D01*
X006022Y019496D02*
X005948Y019496D01*
X005985Y019496D02*
X005985Y019643D01*
X005948Y019643D01*
X005874Y019643D02*
X005874Y019496D01*
X005764Y019496D01*
X005727Y019533D01*
X005727Y019643D01*
X005653Y019679D02*
X005653Y019533D01*
X005616Y019496D01*
X005506Y019496D01*
X005506Y019716D01*
X005616Y019716D01*
X005653Y019679D01*
X005653Y019856D02*
X005764Y019856D01*
X005800Y019893D01*
X005800Y020039D01*
X005764Y020076D01*
X005653Y020076D01*
X005653Y019856D01*
X005579Y019893D02*
X005543Y019856D01*
X005432Y019856D01*
X005432Y019782D02*
X005432Y020003D01*
X005543Y020003D01*
X005579Y019966D01*
X005579Y019893D01*
X005358Y019856D02*
X005358Y019966D01*
X005322Y020003D01*
X005285Y019966D01*
X005285Y019856D01*
X005211Y019856D02*
X005211Y020003D01*
X005248Y020003D01*
X005285Y019966D01*
X005137Y019966D02*
X005137Y019856D01*
X005027Y019856D01*
X004991Y019893D01*
X005027Y019929D01*
X005137Y019929D01*
X005137Y019966D02*
X005101Y020003D01*
X005027Y020003D01*
X004916Y019856D02*
X004770Y019856D01*
X004770Y020076D01*
X004843Y019716D02*
X004770Y019643D01*
X004770Y019569D01*
X004843Y019496D01*
X004917Y019533D02*
X004954Y019496D01*
X005064Y019496D01*
X005138Y019496D02*
X005211Y019569D01*
X005211Y019643D01*
X005138Y019716D01*
X005064Y019643D02*
X004954Y019643D01*
X004917Y019606D01*
X004917Y019533D01*
X005874Y019856D02*
X005948Y019856D01*
X005911Y019856D02*
X005911Y020003D01*
X005874Y020003D01*
X005911Y020076D02*
X005911Y020113D01*
X006022Y020003D02*
X006058Y020003D01*
X006095Y019966D01*
X006132Y020003D01*
X006169Y019966D01*
X006169Y019856D01*
X006243Y019856D02*
X006243Y020003D01*
X006279Y020003D01*
X006316Y019966D01*
X006353Y020003D01*
X006390Y019966D01*
X006390Y019856D01*
X006316Y019856D02*
X006316Y019966D01*
X006464Y019966D02*
X006500Y020003D01*
X006574Y020003D01*
X006611Y019966D01*
X006611Y019929D01*
X006464Y019929D01*
X006464Y019893D02*
X006464Y019966D01*
X006464Y019893D02*
X006500Y019856D01*
X006574Y019856D01*
X006685Y019856D02*
X006685Y020003D01*
X006758Y020003D02*
X006795Y020003D01*
X006758Y020003D02*
X006685Y019929D01*
X006869Y019856D02*
X006869Y020076D01*
X007016Y019856D01*
X007016Y020076D01*
X007090Y019966D02*
X007090Y019893D01*
X007127Y019856D01*
X007200Y019856D01*
X007237Y019893D01*
X007237Y019966D01*
X007200Y020003D01*
X007127Y020003D01*
X007090Y019966D01*
X007311Y019966D02*
X007348Y020003D01*
X007458Y020003D01*
X007458Y020076D02*
X007458Y019856D01*
X007348Y019856D01*
X007311Y019893D01*
X007311Y019966D01*
X007532Y019966D02*
X007532Y019893D01*
X007569Y019856D01*
X007642Y019856D01*
X007679Y019929D02*
X007532Y019929D01*
X007532Y019966D02*
X007569Y020003D01*
X007642Y020003D01*
X007679Y019966D01*
X007679Y019929D01*
X007716Y019716D02*
X007642Y019716D01*
X007606Y019679D01*
X007716Y019716D02*
X007752Y019679D01*
X007752Y019643D01*
X007606Y019496D01*
X007752Y019496D01*
X007827Y019533D02*
X007973Y019679D01*
X007973Y019533D01*
X007937Y019496D01*
X007863Y019496D01*
X007827Y019533D01*
X007827Y019679D01*
X007863Y019716D01*
X007937Y019716D01*
X007973Y019679D01*
X008048Y019643D02*
X008121Y019716D01*
X008121Y019496D01*
X008048Y019496D02*
X008194Y019496D01*
X008268Y019533D02*
X008305Y019496D01*
X008379Y019496D01*
X008415Y019533D01*
X008415Y019569D01*
X008379Y019606D01*
X008268Y019606D01*
X008268Y019533D01*
X008268Y019606D02*
X008342Y019679D01*
X008415Y019716D01*
X008416Y019856D02*
X008379Y019856D01*
X008379Y019893D01*
X008416Y019893D01*
X008416Y019856D01*
X008489Y019856D02*
X008636Y020003D01*
X008636Y020039D01*
X008600Y020076D01*
X008526Y020076D01*
X008489Y020039D01*
X008489Y019856D02*
X008636Y019856D01*
X008710Y019643D02*
X008710Y019496D01*
X008710Y019569D02*
X008784Y019643D01*
X008821Y019643D01*
X008895Y019606D02*
X008931Y019643D01*
X009005Y019643D01*
X009041Y019606D01*
X009041Y019569D01*
X008895Y019569D01*
X008895Y019533D02*
X008895Y019606D01*
X008895Y019533D02*
X008931Y019496D01*
X009005Y019496D01*
X009116Y019643D02*
X009189Y019496D01*
X009262Y019643D01*
X009558Y019643D02*
X009631Y019716D01*
X009631Y019496D01*
X009558Y019496D02*
X009704Y019496D01*
X009779Y019496D02*
X009815Y019496D01*
X009815Y019533D01*
X009779Y019533D01*
X009779Y019496D01*
X009889Y019496D02*
X010036Y019643D01*
X010036Y019679D01*
X009999Y019716D01*
X009926Y019716D01*
X009889Y019679D01*
X009889Y019496D02*
X010036Y019496D01*
X008305Y019856D02*
X008158Y019856D01*
X008231Y019856D02*
X008231Y020076D01*
X008158Y020003D01*
X008084Y020003D02*
X008047Y020003D01*
X007974Y019929D01*
X007974Y019856D02*
X007974Y020003D01*
X007310Y019643D02*
X007200Y019569D01*
X007310Y019496D01*
X007200Y019496D02*
X007200Y019716D01*
X007126Y019606D02*
X007126Y019496D01*
X007016Y019496D01*
X006979Y019533D01*
X007016Y019569D01*
X007126Y019569D01*
X007126Y019606D02*
X007089Y019643D01*
X007016Y019643D01*
X006905Y019606D02*
X006905Y019569D01*
X006758Y019569D01*
X006758Y019533D02*
X006758Y019606D01*
X006795Y019643D01*
X006868Y019643D01*
X006905Y019606D01*
X006868Y019496D02*
X006795Y019496D01*
X006758Y019533D01*
X006095Y019856D02*
X006095Y019966D01*
X006022Y020003D02*
X006022Y019856D01*
X005985Y019753D02*
X005985Y019716D01*
D11*
X001336Y000235D02*
X001373Y000198D01*
X001446Y000198D01*
X001483Y000235D01*
X001483Y000272D01*
X001446Y000308D01*
X001373Y000308D01*
X001336Y000345D01*
X001336Y000382D01*
X001373Y000419D01*
X001446Y000419D01*
X001483Y000382D01*
X001566Y000382D02*
X001566Y000235D01*
X001603Y000198D01*
X001676Y000198D01*
X001713Y000235D01*
X001796Y000198D02*
X001796Y000419D01*
X001906Y000419D01*
X001943Y000382D01*
X001943Y000308D01*
X001906Y000272D01*
X001796Y000272D01*
X001870Y000272D02*
X001943Y000198D01*
X002027Y000198D02*
X002173Y000198D01*
X002257Y000198D02*
X002330Y000272D01*
X002404Y000198D01*
X002404Y000419D01*
X002487Y000308D02*
X002634Y000308D01*
X002717Y000419D02*
X002864Y000419D01*
X002791Y000419D02*
X002791Y000198D01*
X002947Y000198D02*
X003094Y000198D01*
X003178Y000198D02*
X003178Y000419D01*
X003288Y000419D01*
X003324Y000382D01*
X003324Y000308D01*
X003288Y000272D01*
X003178Y000272D01*
X003251Y000272D02*
X003324Y000198D01*
X003408Y000198D02*
X003408Y000419D01*
X003481Y000345D01*
X003554Y000419D01*
X003554Y000198D01*
X003638Y000198D02*
X003711Y000198D01*
X003675Y000198D02*
X003675Y000419D01*
X003711Y000419D02*
X003638Y000419D01*
X003791Y000419D02*
X003938Y000198D01*
X003938Y000419D01*
X004022Y000345D02*
X004095Y000419D01*
X004168Y000345D01*
X004168Y000198D01*
X004252Y000198D02*
X004399Y000198D01*
X004482Y000308D02*
X004629Y000308D01*
X004712Y000382D02*
X004749Y000419D01*
X004822Y000419D01*
X004859Y000382D01*
X004859Y000345D01*
X004712Y000198D01*
X004859Y000198D01*
X004942Y000198D02*
X004942Y000419D01*
X005052Y000419D01*
X005089Y000382D01*
X005089Y000308D01*
X005052Y000272D01*
X004942Y000272D01*
X005173Y000308D02*
X005319Y000308D01*
X005403Y000235D02*
X005439Y000198D01*
X005513Y000198D01*
X005550Y000235D01*
X005550Y000272D01*
X005513Y000308D01*
X005476Y000308D01*
X005513Y000308D02*
X005550Y000345D01*
X005550Y000382D01*
X005513Y000419D01*
X005439Y000419D01*
X005403Y000382D01*
X005633Y000308D02*
X005780Y000308D01*
X005863Y000235D02*
X005863Y000198D01*
X005863Y000235D02*
X006010Y000382D01*
X006010Y000419D01*
X005863Y000419D01*
X005743Y000419D02*
X005743Y000198D01*
X005633Y000308D02*
X005743Y000419D01*
X006093Y000382D02*
X006130Y000419D01*
X006203Y000419D01*
X006240Y000382D01*
X006093Y000235D01*
X006130Y000198D01*
X006203Y000198D01*
X006240Y000235D01*
X006240Y000382D01*
X006324Y000345D02*
X006397Y000419D01*
X006397Y000198D01*
X006324Y000198D02*
X006470Y000198D01*
X006554Y000198D02*
X006700Y000198D01*
X006627Y000198D02*
X006627Y000419D01*
X006554Y000345D01*
X006784Y000382D02*
X006821Y000419D01*
X006894Y000419D01*
X006931Y000382D01*
X006784Y000235D01*
X006821Y000198D01*
X006894Y000198D01*
X006931Y000235D01*
X006931Y000382D01*
X007014Y000419D02*
X007124Y000419D01*
X007161Y000382D01*
X007161Y000308D01*
X007124Y000272D01*
X007014Y000272D01*
X007014Y000198D02*
X007014Y000419D01*
X006784Y000382D02*
X006784Y000235D01*
X007244Y000198D02*
X007391Y000198D01*
X007318Y000198D02*
X007318Y000419D01*
X007244Y000345D01*
X006093Y000382D02*
X006093Y000235D01*
X007410Y001711D02*
X007373Y001748D01*
X007410Y001711D02*
X007484Y001711D01*
X007520Y001748D01*
X007520Y001784D01*
X007484Y001821D01*
X007410Y001821D01*
X007373Y001858D01*
X007373Y001894D01*
X007410Y001931D01*
X007484Y001931D01*
X007520Y001894D01*
X007604Y001894D02*
X007604Y001748D01*
X007640Y001711D01*
X007714Y001711D01*
X007750Y001748D01*
X007834Y001784D02*
X007944Y001784D01*
X007981Y001821D01*
X007981Y001894D01*
X007944Y001931D01*
X007834Y001931D01*
X007834Y001711D01*
X007907Y001784D02*
X007981Y001711D01*
X008064Y001711D02*
X008211Y001711D01*
X008294Y001711D02*
X008368Y001784D01*
X008441Y001711D01*
X008441Y001931D01*
X008524Y001821D02*
X008671Y001821D01*
X008755Y001931D02*
X008901Y001931D01*
X008828Y001931D02*
X008828Y001711D01*
X008985Y001711D02*
X008985Y001931D01*
X009132Y001931D01*
X009215Y001931D02*
X009325Y001931D01*
X009362Y001894D01*
X009362Y001821D01*
X009325Y001784D01*
X009215Y001784D01*
X009215Y001711D02*
X009215Y001931D01*
X009288Y001784D02*
X009362Y001711D01*
X009445Y001711D02*
X009445Y001931D01*
X009519Y001858D01*
X009592Y001931D01*
X009592Y001711D01*
X009675Y001711D02*
X009749Y001711D01*
X009712Y001711D02*
X009712Y001931D01*
X009675Y001931D02*
X009749Y001931D01*
X009829Y001931D02*
X009976Y001711D01*
X009976Y001931D01*
X010059Y001858D02*
X010132Y001931D01*
X010206Y001858D01*
X010206Y001711D01*
X010289Y001711D02*
X010436Y001711D01*
X010519Y001821D02*
X010666Y001821D01*
X010750Y001894D02*
X010786Y001931D01*
X010860Y001931D01*
X010896Y001894D01*
X010896Y001858D01*
X010750Y001711D01*
X010896Y001711D01*
X010980Y001711D02*
X010980Y001931D01*
X011090Y001931D01*
X011127Y001894D01*
X011127Y001821D01*
X011090Y001784D01*
X010980Y001784D01*
X011210Y001821D02*
X011357Y001821D01*
X011440Y001894D02*
X011477Y001931D01*
X011550Y001931D01*
X011587Y001894D01*
X011587Y001858D01*
X011550Y001821D01*
X011587Y001784D01*
X011587Y001748D01*
X011550Y001711D01*
X011477Y001711D01*
X011440Y001748D01*
X011514Y001821D02*
X011550Y001821D01*
X011670Y001821D02*
X011781Y001931D01*
X011781Y001711D01*
X011817Y001821D02*
X011670Y001821D01*
X011901Y001748D02*
X012047Y001894D01*
X012047Y001931D01*
X011901Y001931D01*
X011901Y001748D02*
X011901Y001711D01*
X012131Y001748D02*
X012278Y001894D01*
X012278Y001748D01*
X012241Y001711D01*
X012168Y001711D01*
X012131Y001748D01*
X012131Y001894D01*
X012168Y001931D01*
X012241Y001931D01*
X012278Y001894D01*
X012361Y001858D02*
X012434Y001931D01*
X012434Y001711D01*
X012361Y001711D02*
X012508Y001711D01*
X012591Y001711D02*
X012738Y001711D01*
X012665Y001711D02*
X012665Y001931D01*
X012591Y001858D01*
X012821Y001894D02*
X012858Y001931D01*
X012931Y001931D01*
X012968Y001894D01*
X012821Y001748D01*
X012858Y001711D01*
X012931Y001711D01*
X012968Y001748D01*
X012968Y001894D01*
X013052Y001931D02*
X013162Y001931D01*
X013198Y001894D01*
X013198Y001821D01*
X013162Y001784D01*
X013052Y001784D01*
X013052Y001711D02*
X013052Y001931D01*
X012821Y001894D02*
X012821Y001748D01*
X013282Y001711D02*
X013429Y001711D01*
X013355Y001711D02*
X013355Y001931D01*
X013282Y001858D01*
X014290Y001911D02*
X014290Y001621D01*
X014290Y001766D02*
X014387Y001766D01*
X014290Y001911D02*
X014484Y001911D01*
X014585Y001911D02*
X014585Y001669D01*
X014633Y001621D01*
X014730Y001621D01*
X014778Y001669D01*
X014778Y001911D01*
X014879Y001863D02*
X014879Y001814D01*
X014928Y001766D01*
X015025Y001766D01*
X015073Y001718D01*
X015073Y001669D01*
X015025Y001621D01*
X014928Y001621D01*
X014879Y001669D01*
X014879Y001863D02*
X014928Y001911D01*
X015025Y001911D01*
X015073Y001863D01*
X015174Y001911D02*
X015174Y001621D01*
X015368Y001621D01*
X015469Y001572D02*
X015662Y001572D01*
X015763Y001621D02*
X015908Y001621D01*
X015957Y001669D01*
X015957Y001718D01*
X015908Y001766D01*
X015763Y001766D01*
X015763Y001621D02*
X015763Y001911D01*
X015908Y001911D01*
X015957Y001863D01*
X015957Y001814D01*
X015908Y001766D01*
X016058Y001766D02*
X016155Y001766D01*
X016251Y001911D02*
X016058Y001911D01*
X016058Y001621D01*
X016251Y001621D01*
X016353Y001621D02*
X016546Y001621D01*
X016647Y001572D02*
X016841Y001572D01*
X016942Y001621D02*
X016942Y001911D01*
X017087Y001911D01*
X017135Y001863D01*
X017135Y001766D01*
X017087Y001718D01*
X016942Y001718D01*
X017039Y001718D02*
X017135Y001621D01*
X017237Y001669D02*
X017285Y001621D01*
X017382Y001621D01*
X017430Y001669D01*
X017430Y001718D01*
X017382Y001766D01*
X017285Y001766D01*
X017237Y001814D01*
X017237Y001863D01*
X017285Y001911D01*
X017382Y001911D01*
X017430Y001863D01*
X017531Y001911D02*
X017725Y001911D01*
X017628Y001911D02*
X017628Y001621D01*
X017826Y001669D02*
X017874Y001621D01*
X017971Y001621D01*
X018019Y001669D01*
X018019Y001766D01*
X017971Y001814D01*
X017923Y001814D01*
X017826Y001766D01*
X017826Y001911D01*
X018019Y001911D01*
X018415Y001911D02*
X018415Y001766D01*
X018512Y001814D01*
X018560Y001814D01*
X018609Y001766D01*
X018609Y001669D01*
X018560Y001621D01*
X018464Y001621D01*
X018415Y001669D01*
X018314Y001572D02*
X018121Y001572D01*
X018415Y001911D02*
X018609Y001911D01*
X018710Y001814D02*
X018807Y001911D01*
X018903Y001814D01*
X018903Y001621D01*
X018903Y001766D02*
X018710Y001766D01*
X018710Y001814D02*
X018710Y001621D01*
X019349Y000669D02*
X019312Y000632D01*
X019312Y000595D01*
X019349Y000558D01*
X019422Y000558D01*
X019459Y000522D01*
X019459Y000485D01*
X019422Y000448D01*
X019349Y000448D01*
X019312Y000485D01*
X019349Y000669D02*
X019422Y000669D01*
X019459Y000632D01*
X019542Y000632D02*
X019542Y000485D01*
X019579Y000448D01*
X019652Y000448D01*
X019689Y000485D01*
X019772Y000448D02*
X019772Y000669D01*
X019882Y000669D01*
X019919Y000632D01*
X019919Y000558D01*
X019882Y000522D01*
X019772Y000522D01*
X019846Y000522D02*
X019919Y000448D01*
X020003Y000448D02*
X020003Y000669D01*
X020149Y000669D01*
X020233Y000669D02*
X020233Y000448D01*
X020306Y000522D01*
X020380Y000448D01*
X020380Y000669D01*
X020463Y000558D02*
X020610Y000558D01*
X020693Y000669D02*
X020840Y000669D01*
X020767Y000669D02*
X020767Y000448D01*
X020923Y000448D02*
X021070Y000448D01*
X021154Y000448D02*
X021154Y000669D01*
X021264Y000669D01*
X021300Y000632D01*
X021300Y000558D01*
X021264Y000522D01*
X021154Y000522D01*
X021227Y000522D02*
X021300Y000448D01*
X021384Y000448D02*
X021384Y000669D01*
X021457Y000595D01*
X021531Y000669D01*
X021531Y000448D01*
X021614Y000448D02*
X021687Y000448D01*
X021651Y000448D02*
X021651Y000669D01*
X021687Y000669D02*
X021614Y000669D01*
X021767Y000669D02*
X021914Y000448D01*
X021914Y000669D01*
X021998Y000595D02*
X021998Y000448D01*
X021998Y000558D02*
X022144Y000558D01*
X022144Y000595D02*
X022144Y000448D01*
X022228Y000448D02*
X022228Y000669D01*
X022144Y000595D02*
X022071Y000669D01*
X021998Y000595D01*
X021767Y000669D02*
X021767Y000448D01*
X022228Y000448D02*
X022375Y000448D01*
X022458Y000558D02*
X022605Y000558D01*
X022688Y000632D02*
X022725Y000669D01*
X022798Y000669D01*
X022835Y000632D01*
X022835Y000595D01*
X022688Y000448D01*
X022835Y000448D01*
X022918Y000448D02*
X022918Y000669D01*
X023029Y000669D01*
X023065Y000632D01*
X023065Y000558D01*
X023029Y000522D01*
X022918Y000522D01*
X023149Y000558D02*
X023295Y000558D01*
X023379Y000485D02*
X023416Y000448D01*
X023489Y000448D01*
X023526Y000485D01*
X023526Y000522D01*
X023489Y000558D01*
X023452Y000558D01*
X023489Y000558D02*
X023526Y000595D01*
X023526Y000632D01*
X023489Y000669D01*
X023416Y000669D01*
X023379Y000632D01*
X023609Y000558D02*
X023756Y000558D01*
X023839Y000485D02*
X023839Y000448D01*
X023839Y000485D02*
X023986Y000632D01*
X023986Y000669D01*
X023839Y000669D01*
X023719Y000669D02*
X023719Y000448D01*
X023609Y000558D02*
X023719Y000669D01*
X024069Y000632D02*
X024106Y000669D01*
X024179Y000669D01*
X024216Y000632D01*
X024069Y000485D01*
X024106Y000448D01*
X024179Y000448D01*
X024216Y000485D01*
X024216Y000632D01*
X024300Y000595D02*
X024373Y000669D01*
X024373Y000448D01*
X024300Y000448D02*
X024446Y000448D01*
X024530Y000448D02*
X024677Y000448D01*
X024603Y000448D02*
X024603Y000669D01*
X024530Y000595D01*
X024760Y000632D02*
X024797Y000669D01*
X024870Y000669D01*
X024907Y000632D01*
X024760Y000485D01*
X024797Y000448D01*
X024870Y000448D01*
X024907Y000485D01*
X024907Y000632D01*
X024990Y000669D02*
X025100Y000669D01*
X025137Y000632D01*
X025137Y000558D01*
X025100Y000522D01*
X024990Y000522D01*
X024990Y000448D02*
X024990Y000669D01*
X024760Y000632D02*
X024760Y000485D01*
X025220Y000448D02*
X025367Y000448D01*
X025294Y000448D02*
X025294Y000669D01*
X025220Y000595D01*
X024069Y000632D02*
X024069Y000485D01*
X021070Y000669D02*
X020923Y000669D01*
X020923Y000448D01*
X020923Y000558D02*
X020997Y000558D01*
X020149Y000448D02*
X020003Y000448D01*
X020003Y000558D02*
X020076Y000558D01*
X019689Y000632D02*
X019652Y000669D01*
X019579Y000669D01*
X019542Y000632D01*
X016353Y001621D02*
X016353Y001911D01*
X015368Y001911D02*
X015174Y001911D01*
X015174Y001766D02*
X015271Y001766D01*
X010289Y001711D02*
X010289Y001931D01*
X010206Y001821D02*
X010059Y001821D01*
X010059Y001858D02*
X010059Y001711D01*
X009829Y001711D02*
X009829Y001931D01*
X009132Y001711D02*
X008985Y001711D01*
X008985Y001821D02*
X009058Y001821D01*
X008294Y001931D02*
X008294Y001711D01*
X008137Y001821D02*
X008064Y001821D01*
X008064Y001931D02*
X008064Y001711D01*
X008064Y001931D02*
X008211Y001931D01*
X007750Y001894D02*
X007714Y001931D01*
X007640Y001931D01*
X007604Y001894D01*
X004252Y000419D02*
X004252Y000198D01*
X004168Y000308D02*
X004022Y000308D01*
X004022Y000345D02*
X004022Y000198D01*
X003791Y000198D02*
X003791Y000419D01*
X003094Y000419D02*
X002947Y000419D01*
X002947Y000198D01*
X002947Y000308D02*
X003021Y000308D01*
X002257Y000198D02*
X002257Y000419D01*
X002173Y000419D02*
X002027Y000419D01*
X002027Y000198D01*
X002027Y000308D02*
X002100Y000308D01*
X001713Y000382D02*
X001676Y000419D01*
X001603Y000419D01*
X001566Y000382D01*
X005542Y014491D02*
X005687Y014491D01*
X005735Y014539D01*
X005735Y014588D01*
X005687Y014636D01*
X005542Y014636D01*
X005687Y014636D02*
X005735Y014684D01*
X005735Y014733D01*
X005687Y014781D01*
X005542Y014781D01*
X005542Y014491D01*
X005836Y014539D02*
X005836Y014781D01*
X006030Y014781D02*
X006030Y014539D01*
X005981Y014491D01*
X005885Y014491D01*
X005836Y014539D01*
X006131Y014781D02*
X006324Y014781D01*
X006228Y014781D02*
X006228Y014491D01*
X006522Y014491D02*
X006522Y014781D01*
X006426Y014781D02*
X006619Y014781D01*
X006720Y014733D02*
X006769Y014781D01*
X006865Y014781D01*
X006914Y014733D01*
X006914Y014539D01*
X006865Y014491D01*
X006769Y014491D01*
X006720Y014539D01*
X006720Y014733D01*
X007015Y014781D02*
X007015Y014491D01*
X007208Y014491D02*
X007208Y014781D01*
X007309Y014733D02*
X007309Y014684D01*
X007358Y014636D01*
X007455Y014636D01*
X007503Y014588D01*
X007503Y014539D01*
X007455Y014491D01*
X007358Y014491D01*
X007309Y014539D01*
X007208Y014491D02*
X007015Y014781D01*
X007309Y014733D02*
X007358Y014781D01*
X007455Y014781D01*
X007503Y014733D01*
X007604Y014491D02*
X007798Y014781D01*
X007899Y014781D02*
X007996Y014781D01*
X007947Y014781D02*
X007947Y014491D01*
X007899Y014491D02*
X007996Y014491D01*
X008095Y014491D02*
X008289Y014684D01*
X008289Y014733D01*
X008240Y014781D01*
X008144Y014781D01*
X008095Y014733D01*
X008095Y014491D02*
X008289Y014491D01*
X008390Y014539D02*
X008438Y014491D01*
X008535Y014491D01*
X008583Y014539D01*
X008390Y014539D02*
X008390Y014733D01*
X008438Y014781D01*
X008535Y014781D01*
X008583Y014733D01*
X008435Y015861D02*
X008241Y015861D01*
X008144Y015958D01*
X008241Y016054D01*
X008435Y016054D01*
X008338Y016155D02*
X008144Y016155D01*
X008289Y016054D02*
X008289Y015861D01*
X008338Y016155D02*
X008435Y016252D01*
X008338Y016349D01*
X008144Y016349D01*
X008144Y016450D02*
X008144Y016595D01*
X008193Y016644D01*
X008289Y016644D01*
X008338Y016595D01*
X008338Y016450D01*
X008435Y016450D02*
X008144Y016450D01*
X008338Y016547D02*
X008435Y016644D01*
X008386Y016745D02*
X008435Y016793D01*
X008435Y016890D01*
X008386Y016938D01*
X008338Y016938D01*
X008289Y016890D01*
X008289Y016793D01*
X008241Y016745D01*
X008193Y016745D01*
X008144Y016793D01*
X008144Y016890D01*
X008193Y016938D01*
X008144Y017039D02*
X008144Y017185D01*
X008193Y017233D01*
X008289Y017233D01*
X008338Y017185D01*
X008338Y017039D01*
X008435Y017039D02*
X008144Y017039D01*
X008144Y017334D02*
X008144Y017431D01*
X008144Y017382D02*
X008435Y017382D01*
X008435Y017334D02*
X008435Y017431D01*
X008435Y018061D02*
X008144Y018061D01*
X008144Y018254D01*
X008144Y018355D02*
X008144Y018549D01*
X008144Y018452D02*
X008435Y018452D01*
X008435Y018650D02*
X008144Y018650D01*
X008144Y018795D01*
X008193Y018844D01*
X008386Y018844D01*
X008435Y018795D01*
X008435Y018650D01*
X008435Y018945D02*
X008435Y019042D01*
X008435Y018993D02*
X008144Y018993D01*
X008144Y018945D02*
X008144Y019042D01*
X008289Y018158D02*
X008289Y018061D01*
D12*
X011883Y019295D02*
X013536Y019295D01*
X013143Y019767D02*
X013143Y019925D01*
X013142Y019925D02*
X013140Y019953D01*
X013135Y019981D01*
X013127Y020009D01*
X013115Y020035D01*
X013100Y020059D01*
X013083Y020081D01*
X013062Y020102D01*
X013040Y020119D01*
X013016Y020134D01*
X012990Y020146D01*
X012962Y020154D01*
X012934Y020159D01*
X012906Y020161D01*
X012513Y020161D01*
X012485Y020159D01*
X012457Y020154D01*
X012429Y020146D01*
X012403Y020134D01*
X012379Y020119D01*
X012357Y020102D01*
X012336Y020081D01*
X012319Y020059D01*
X012304Y020035D01*
X012292Y020009D01*
X012284Y019981D01*
X012279Y019953D01*
X012277Y019925D01*
X012276Y019925D02*
X012276Y019767D01*
X012277Y019767D02*
X012279Y019739D01*
X012284Y019711D01*
X012292Y019683D01*
X012304Y019657D01*
X012319Y019633D01*
X012336Y019611D01*
X012357Y019590D01*
X012379Y019573D01*
X012403Y019558D01*
X012429Y019546D01*
X012457Y019538D01*
X012485Y019533D01*
X012513Y019531D01*
X012906Y019531D01*
X012934Y019533D01*
X012962Y019538D01*
X012990Y019546D01*
X013016Y019558D01*
X013040Y019573D01*
X013062Y019590D01*
X013083Y019611D01*
X013100Y019633D01*
X013115Y019657D01*
X013127Y019683D01*
X013135Y019711D01*
X013140Y019739D01*
X013142Y019767D01*
X013783Y020139D02*
X013783Y006753D01*
X021736Y006753D01*
X021736Y020139D01*
X013783Y020139D01*
X013536Y020397D02*
X011883Y020397D01*
X014372Y017623D02*
X014672Y017323D01*
X014747Y017398D01*
X014747Y017548D01*
X014672Y017623D01*
X014372Y017623D01*
X014297Y017548D01*
X014297Y017398D01*
X014372Y017323D01*
X014672Y017323D01*
X014747Y017163D02*
X014747Y016862D01*
X014447Y017163D01*
X014372Y017163D01*
X014297Y017088D01*
X014297Y016937D01*
X014372Y016862D01*
X014372Y016702D02*
X014447Y016702D01*
X014522Y016627D01*
X014522Y016477D01*
X014447Y016402D01*
X014372Y016402D01*
X014297Y016477D01*
X014297Y016627D01*
X014372Y016702D01*
X014522Y016627D02*
X014597Y016702D01*
X014672Y016702D01*
X014747Y016627D01*
X014747Y016477D01*
X014672Y016402D01*
X014597Y016402D01*
X014522Y016477D01*
X014747Y016242D02*
X014747Y015942D01*
X014747Y016092D02*
X014297Y016092D01*
X014447Y015942D01*
X014372Y015781D02*
X014297Y015706D01*
X014297Y015556D01*
X014372Y015481D01*
X014447Y015481D01*
X014522Y015556D01*
X014522Y015706D01*
X014597Y015781D01*
X014672Y015781D01*
X014747Y015706D01*
X014747Y015556D01*
X014672Y015481D01*
X014672Y015321D02*
X014372Y015321D01*
X014297Y015246D01*
X014297Y015021D01*
X014747Y015021D01*
X014747Y015246D01*
X014672Y015321D01*
X017260Y007946D02*
X018260Y007946D01*
X017231Y006473D02*
X013688Y006473D01*
X013680Y006466D02*
X013680Y004836D01*
X013688Y004819D02*
X017231Y004819D01*
X017240Y004826D02*
X017240Y006456D01*
X017560Y006146D02*
X021660Y006146D01*
X021660Y002946D01*
X017560Y002946D01*
X017560Y006146D01*
X017660Y005546D02*
X021560Y005546D01*
X021560Y003546D01*
X017660Y003546D01*
X017660Y005546D01*
X017130Y004486D02*
X017130Y002906D01*
X017125Y002908D02*
X013834Y002908D01*
X013830Y002906D02*
X013830Y004476D01*
X013834Y004483D02*
X017125Y004483D01*
X017709Y004546D02*
X017711Y004606D01*
X017717Y004665D01*
X017727Y004724D01*
X017740Y004782D01*
X017758Y004839D01*
X017779Y004894D01*
X017804Y004948D01*
X017832Y005001D01*
X017864Y005051D01*
X017899Y005099D01*
X017937Y005145D01*
X017978Y005188D01*
X018022Y005229D01*
X018068Y005266D01*
X018117Y005300D01*
X018168Y005331D01*
X018221Y005359D01*
X018276Y005383D01*
X018332Y005403D01*
X018389Y005419D01*
X018447Y005432D01*
X018506Y005441D01*
X018565Y005446D01*
X018625Y005447D01*
X018684Y005444D01*
X018744Y005437D01*
X018802Y005426D01*
X018860Y005412D01*
X018917Y005393D01*
X018972Y005371D01*
X019026Y005345D01*
X019078Y005316D01*
X019127Y005284D01*
X019175Y005248D01*
X019220Y005209D01*
X019263Y005167D01*
X019302Y005123D01*
X019339Y005076D01*
X019372Y005026D01*
X019402Y004975D01*
X019429Y004922D01*
X019452Y004867D01*
X019471Y004810D01*
X019487Y004753D01*
X019499Y004694D01*
X019507Y004635D01*
X019511Y004576D01*
X019511Y004516D01*
X019507Y004457D01*
X019499Y004398D01*
X019487Y004339D01*
X019471Y004282D01*
X019452Y004225D01*
X019429Y004170D01*
X019402Y004117D01*
X019372Y004066D01*
X019339Y004016D01*
X019302Y003969D01*
X019263Y003925D01*
X019220Y003883D01*
X019175Y003844D01*
X019127Y003808D01*
X019078Y003776D01*
X019026Y003747D01*
X018972Y003721D01*
X018917Y003699D01*
X018860Y003680D01*
X018802Y003666D01*
X018744Y003655D01*
X018684Y003648D01*
X018625Y003645D01*
X018565Y003646D01*
X018506Y003651D01*
X018447Y003660D01*
X018389Y003673D01*
X018332Y003689D01*
X018276Y003709D01*
X018221Y003733D01*
X018168Y003761D01*
X018117Y003792D01*
X018068Y003826D01*
X018022Y003863D01*
X017978Y003904D01*
X017937Y003947D01*
X017899Y003993D01*
X017864Y004041D01*
X017832Y004091D01*
X017804Y004144D01*
X017779Y004198D01*
X017758Y004253D01*
X017740Y004310D01*
X017727Y004368D01*
X017717Y004427D01*
X017711Y004486D01*
X017709Y004546D01*
X019709Y004546D02*
X019711Y004606D01*
X019717Y004665D01*
X019727Y004724D01*
X019740Y004782D01*
X019758Y004839D01*
X019779Y004894D01*
X019804Y004948D01*
X019832Y005001D01*
X019864Y005051D01*
X019899Y005099D01*
X019937Y005145D01*
X019978Y005188D01*
X020022Y005229D01*
X020068Y005266D01*
X020117Y005300D01*
X020168Y005331D01*
X020221Y005359D01*
X020276Y005383D01*
X020332Y005403D01*
X020389Y005419D01*
X020447Y005432D01*
X020506Y005441D01*
X020565Y005446D01*
X020625Y005447D01*
X020684Y005444D01*
X020744Y005437D01*
X020802Y005426D01*
X020860Y005412D01*
X020917Y005393D01*
X020972Y005371D01*
X021026Y005345D01*
X021078Y005316D01*
X021127Y005284D01*
X021175Y005248D01*
X021220Y005209D01*
X021263Y005167D01*
X021302Y005123D01*
X021339Y005076D01*
X021372Y005026D01*
X021402Y004975D01*
X021429Y004922D01*
X021452Y004867D01*
X021471Y004810D01*
X021487Y004753D01*
X021499Y004694D01*
X021507Y004635D01*
X021511Y004576D01*
X021511Y004516D01*
X021507Y004457D01*
X021499Y004398D01*
X021487Y004339D01*
X021471Y004282D01*
X021452Y004225D01*
X021429Y004170D01*
X021402Y004117D01*
X021372Y004066D01*
X021339Y004016D01*
X021302Y003969D01*
X021263Y003925D01*
X021220Y003883D01*
X021175Y003844D01*
X021127Y003808D01*
X021078Y003776D01*
X021026Y003747D01*
X020972Y003721D01*
X020917Y003699D01*
X020860Y003680D01*
X020802Y003666D01*
X020744Y003655D01*
X020684Y003648D01*
X020625Y003645D01*
X020565Y003646D01*
X020506Y003651D01*
X020447Y003660D01*
X020389Y003673D01*
X020332Y003689D01*
X020276Y003709D01*
X020221Y003733D01*
X020168Y003761D01*
X020117Y003792D01*
X020068Y003826D01*
X020022Y003863D01*
X019978Y003904D01*
X019937Y003947D01*
X019899Y003993D01*
X019864Y004041D01*
X019832Y004091D01*
X019804Y004144D01*
X019779Y004198D01*
X019758Y004253D01*
X019740Y004310D01*
X019727Y004368D01*
X019717Y004427D01*
X019711Y004486D01*
X019709Y004546D01*
X013460Y005496D02*
X013460Y003496D01*
X009560Y003496D01*
X009560Y005496D01*
X013460Y005496D01*
X013560Y006096D02*
X009460Y006096D01*
X009460Y002896D01*
X013560Y002896D01*
X013560Y006096D01*
X011609Y004496D02*
X011611Y004556D01*
X011617Y004615D01*
X011627Y004674D01*
X011640Y004732D01*
X011658Y004789D01*
X011679Y004844D01*
X011704Y004898D01*
X011732Y004951D01*
X011764Y005001D01*
X011799Y005049D01*
X011837Y005095D01*
X011878Y005138D01*
X011922Y005179D01*
X011968Y005216D01*
X012017Y005250D01*
X012068Y005281D01*
X012121Y005309D01*
X012176Y005333D01*
X012232Y005353D01*
X012289Y005369D01*
X012347Y005382D01*
X012406Y005391D01*
X012465Y005396D01*
X012525Y005397D01*
X012584Y005394D01*
X012644Y005387D01*
X012702Y005376D01*
X012760Y005362D01*
X012817Y005343D01*
X012872Y005321D01*
X012926Y005295D01*
X012978Y005266D01*
X013027Y005234D01*
X013075Y005198D01*
X013120Y005159D01*
X013163Y005117D01*
X013202Y005073D01*
X013239Y005026D01*
X013272Y004976D01*
X013302Y004925D01*
X013329Y004872D01*
X013352Y004817D01*
X013371Y004760D01*
X013387Y004703D01*
X013399Y004644D01*
X013407Y004585D01*
X013411Y004526D01*
X013411Y004466D01*
X013407Y004407D01*
X013399Y004348D01*
X013387Y004289D01*
X013371Y004232D01*
X013352Y004175D01*
X013329Y004120D01*
X013302Y004067D01*
X013272Y004016D01*
X013239Y003966D01*
X013202Y003919D01*
X013163Y003875D01*
X013120Y003833D01*
X013075Y003794D01*
X013027Y003758D01*
X012978Y003726D01*
X012926Y003697D01*
X012872Y003671D01*
X012817Y003649D01*
X012760Y003630D01*
X012702Y003616D01*
X012644Y003605D01*
X012584Y003598D01*
X012525Y003595D01*
X012465Y003596D01*
X012406Y003601D01*
X012347Y003610D01*
X012289Y003623D01*
X012232Y003639D01*
X012176Y003659D01*
X012121Y003683D01*
X012068Y003711D01*
X012017Y003742D01*
X011968Y003776D01*
X011922Y003813D01*
X011878Y003854D01*
X011837Y003897D01*
X011799Y003943D01*
X011764Y003991D01*
X011732Y004041D01*
X011704Y004094D01*
X011679Y004148D01*
X011658Y004203D01*
X011640Y004260D01*
X011627Y004318D01*
X011617Y004377D01*
X011611Y004436D01*
X011609Y004496D01*
X009609Y004496D02*
X009611Y004556D01*
X009617Y004615D01*
X009627Y004674D01*
X009640Y004732D01*
X009658Y004789D01*
X009679Y004844D01*
X009704Y004898D01*
X009732Y004951D01*
X009764Y005001D01*
X009799Y005049D01*
X009837Y005095D01*
X009878Y005138D01*
X009922Y005179D01*
X009968Y005216D01*
X010017Y005250D01*
X010068Y005281D01*
X010121Y005309D01*
X010176Y005333D01*
X010232Y005353D01*
X010289Y005369D01*
X010347Y005382D01*
X010406Y005391D01*
X010465Y005396D01*
X010525Y005397D01*
X010584Y005394D01*
X010644Y005387D01*
X010702Y005376D01*
X010760Y005362D01*
X010817Y005343D01*
X010872Y005321D01*
X010926Y005295D01*
X010978Y005266D01*
X011027Y005234D01*
X011075Y005198D01*
X011120Y005159D01*
X011163Y005117D01*
X011202Y005073D01*
X011239Y005026D01*
X011272Y004976D01*
X011302Y004925D01*
X011329Y004872D01*
X011352Y004817D01*
X011371Y004760D01*
X011387Y004703D01*
X011399Y004644D01*
X011407Y004585D01*
X011411Y004526D01*
X011411Y004466D01*
X011407Y004407D01*
X011399Y004348D01*
X011387Y004289D01*
X011371Y004232D01*
X011352Y004175D01*
X011329Y004120D01*
X011302Y004067D01*
X011272Y004016D01*
X011239Y003966D01*
X011202Y003919D01*
X011163Y003875D01*
X011120Y003833D01*
X011075Y003794D01*
X011027Y003758D01*
X010978Y003726D01*
X010926Y003697D01*
X010872Y003671D01*
X010817Y003649D01*
X010760Y003630D01*
X010702Y003616D01*
X010644Y003605D01*
X010584Y003598D01*
X010525Y003595D01*
X010465Y003596D01*
X010406Y003601D01*
X010347Y003610D01*
X010289Y003623D01*
X010232Y003639D01*
X010176Y003659D01*
X010121Y003683D01*
X010068Y003711D01*
X010017Y003742D01*
X009968Y003776D01*
X009922Y003813D01*
X009878Y003854D01*
X009837Y003897D01*
X009799Y003943D01*
X009764Y003991D01*
X009732Y004041D01*
X009704Y004094D01*
X009679Y004148D01*
X009658Y004203D01*
X009640Y004260D01*
X009627Y004318D01*
X009617Y004377D01*
X009611Y004436D01*
X009609Y004496D01*
X008810Y005496D02*
X004910Y005496D01*
X004910Y003496D01*
X008810Y003496D01*
X008810Y005496D01*
X008910Y006096D02*
X004810Y006096D01*
X004810Y002896D01*
X008910Y002896D01*
X008910Y006096D01*
X006959Y004496D02*
X006961Y004556D01*
X006967Y004615D01*
X006977Y004674D01*
X006990Y004732D01*
X007008Y004789D01*
X007029Y004844D01*
X007054Y004898D01*
X007082Y004951D01*
X007114Y005001D01*
X007149Y005049D01*
X007187Y005095D01*
X007228Y005138D01*
X007272Y005179D01*
X007318Y005216D01*
X007367Y005250D01*
X007418Y005281D01*
X007471Y005309D01*
X007526Y005333D01*
X007582Y005353D01*
X007639Y005369D01*
X007697Y005382D01*
X007756Y005391D01*
X007815Y005396D01*
X007875Y005397D01*
X007934Y005394D01*
X007994Y005387D01*
X008052Y005376D01*
X008110Y005362D01*
X008167Y005343D01*
X008222Y005321D01*
X008276Y005295D01*
X008328Y005266D01*
X008377Y005234D01*
X008425Y005198D01*
X008470Y005159D01*
X008513Y005117D01*
X008552Y005073D01*
X008589Y005026D01*
X008622Y004976D01*
X008652Y004925D01*
X008679Y004872D01*
X008702Y004817D01*
X008721Y004760D01*
X008737Y004703D01*
X008749Y004644D01*
X008757Y004585D01*
X008761Y004526D01*
X008761Y004466D01*
X008757Y004407D01*
X008749Y004348D01*
X008737Y004289D01*
X008721Y004232D01*
X008702Y004175D01*
X008679Y004120D01*
X008652Y004067D01*
X008622Y004016D01*
X008589Y003966D01*
X008552Y003919D01*
X008513Y003875D01*
X008470Y003833D01*
X008425Y003794D01*
X008377Y003758D01*
X008328Y003726D01*
X008276Y003697D01*
X008222Y003671D01*
X008167Y003649D01*
X008110Y003630D01*
X008052Y003616D01*
X007994Y003605D01*
X007934Y003598D01*
X007875Y003595D01*
X007815Y003596D01*
X007756Y003601D01*
X007697Y003610D01*
X007639Y003623D01*
X007582Y003639D01*
X007526Y003659D01*
X007471Y003683D01*
X007418Y003711D01*
X007367Y003742D01*
X007318Y003776D01*
X007272Y003813D01*
X007228Y003854D01*
X007187Y003897D01*
X007149Y003943D01*
X007114Y003991D01*
X007082Y004041D01*
X007054Y004094D01*
X007029Y004148D01*
X007008Y004203D01*
X006990Y004260D01*
X006977Y004318D01*
X006967Y004377D01*
X006961Y004436D01*
X006959Y004496D01*
X004959Y004496D02*
X004961Y004556D01*
X004967Y004615D01*
X004977Y004674D01*
X004990Y004732D01*
X005008Y004789D01*
X005029Y004844D01*
X005054Y004898D01*
X005082Y004951D01*
X005114Y005001D01*
X005149Y005049D01*
X005187Y005095D01*
X005228Y005138D01*
X005272Y005179D01*
X005318Y005216D01*
X005367Y005250D01*
X005418Y005281D01*
X005471Y005309D01*
X005526Y005333D01*
X005582Y005353D01*
X005639Y005369D01*
X005697Y005382D01*
X005756Y005391D01*
X005815Y005396D01*
X005875Y005397D01*
X005934Y005394D01*
X005994Y005387D01*
X006052Y005376D01*
X006110Y005362D01*
X006167Y005343D01*
X006222Y005321D01*
X006276Y005295D01*
X006328Y005266D01*
X006377Y005234D01*
X006425Y005198D01*
X006470Y005159D01*
X006513Y005117D01*
X006552Y005073D01*
X006589Y005026D01*
X006622Y004976D01*
X006652Y004925D01*
X006679Y004872D01*
X006702Y004817D01*
X006721Y004760D01*
X006737Y004703D01*
X006749Y004644D01*
X006757Y004585D01*
X006761Y004526D01*
X006761Y004466D01*
X006757Y004407D01*
X006749Y004348D01*
X006737Y004289D01*
X006721Y004232D01*
X006702Y004175D01*
X006679Y004120D01*
X006652Y004067D01*
X006622Y004016D01*
X006589Y003966D01*
X006552Y003919D01*
X006513Y003875D01*
X006470Y003833D01*
X006425Y003794D01*
X006377Y003758D01*
X006328Y003726D01*
X006276Y003697D01*
X006222Y003671D01*
X006167Y003649D01*
X006110Y003630D01*
X006052Y003616D01*
X005994Y003605D01*
X005934Y003598D01*
X005875Y003595D01*
X005815Y003596D01*
X005756Y003601D01*
X005697Y003610D01*
X005639Y003623D01*
X005582Y003639D01*
X005526Y003659D01*
X005471Y003683D01*
X005418Y003711D01*
X005367Y003742D01*
X005318Y003776D01*
X005272Y003813D01*
X005228Y003854D01*
X005187Y003897D01*
X005149Y003943D01*
X005114Y003991D01*
X005082Y004041D01*
X005054Y004094D01*
X005029Y004148D01*
X005008Y004203D01*
X004990Y004260D01*
X004977Y004318D01*
X004967Y004377D01*
X004961Y004436D01*
X004959Y004496D01*
D13*
X007654Y000876D02*
X007654Y000569D01*
X007807Y000416D01*
X007961Y000569D01*
X007961Y000876D01*
X008114Y000723D02*
X008268Y000876D01*
X008421Y000723D01*
X008421Y000416D01*
X008575Y000416D02*
X008575Y000876D01*
X008805Y000876D01*
X008882Y000799D01*
X008882Y000646D01*
X008805Y000569D01*
X008575Y000569D01*
X008728Y000569D02*
X008882Y000416D01*
X009035Y000416D02*
X009189Y000416D01*
X009112Y000416D02*
X009112Y000876D01*
X009035Y000876D02*
X009189Y000876D01*
X009342Y000799D02*
X009342Y000723D01*
X009419Y000646D01*
X009572Y000646D01*
X009649Y000569D01*
X009649Y000493D01*
X009572Y000416D01*
X009419Y000416D01*
X009342Y000493D01*
X009342Y000799D02*
X009419Y000876D01*
X009572Y000876D01*
X009649Y000799D01*
X009802Y000876D02*
X010109Y000876D01*
X009956Y000876D02*
X009956Y000416D01*
X010263Y000493D02*
X010340Y000416D01*
X010493Y000416D01*
X010570Y000493D01*
X010570Y000799D01*
X010493Y000876D01*
X010340Y000876D01*
X010263Y000799D01*
X010263Y000493D01*
X010723Y000569D02*
X010953Y000569D01*
X011030Y000646D01*
X011030Y000799D01*
X010953Y000876D01*
X010723Y000876D01*
X010723Y000416D01*
X010877Y000569D02*
X011030Y000416D01*
X011184Y000339D02*
X011491Y000339D01*
X011644Y000416D02*
X011874Y000416D01*
X011951Y000493D01*
X011951Y000569D01*
X011874Y000646D01*
X011644Y000646D01*
X011644Y000416D02*
X011644Y000876D01*
X011874Y000876D01*
X011951Y000799D01*
X011951Y000723D01*
X011874Y000646D01*
X012104Y000493D02*
X012104Y000416D01*
X012104Y000493D02*
X012411Y000799D01*
X012411Y000876D01*
X012104Y000876D01*
X012565Y000799D02*
X012642Y000876D01*
X012795Y000876D01*
X012872Y000799D01*
X012872Y000723D01*
X012565Y000416D01*
X012872Y000416D01*
X013025Y000416D02*
X013332Y000723D01*
X013332Y000799D01*
X013255Y000876D01*
X013102Y000876D01*
X013025Y000799D01*
X013025Y000416D02*
X013332Y000416D01*
X013486Y000493D02*
X013792Y000799D01*
X013792Y000493D01*
X013716Y000416D01*
X013562Y000416D01*
X013486Y000493D01*
X013486Y000799D01*
X013562Y000876D01*
X013716Y000876D01*
X013792Y000799D01*
X013946Y000876D02*
X014253Y000876D01*
X014253Y000799D01*
X013946Y000493D01*
X013946Y000416D01*
X014406Y000493D02*
X014483Y000416D01*
X014637Y000416D01*
X014713Y000493D01*
X014713Y000569D01*
X014637Y000646D01*
X014483Y000646D01*
X014406Y000723D01*
X014406Y000799D01*
X014483Y000876D01*
X014637Y000876D01*
X014713Y000799D01*
X014867Y000799D02*
X014943Y000876D01*
X015097Y000876D01*
X015174Y000799D01*
X015174Y000723D01*
X014867Y000416D01*
X015174Y000416D01*
X015327Y000493D02*
X015404Y000416D01*
X015557Y000416D01*
X015634Y000493D01*
X015634Y000646D01*
X015557Y000723D01*
X015481Y000723D01*
X015327Y000646D01*
X015327Y000876D01*
X015634Y000876D01*
X015788Y000723D02*
X015941Y000876D01*
X015941Y000416D01*
X015788Y000416D02*
X016094Y000416D01*
X016248Y000416D02*
X016248Y000876D01*
X016325Y000646D02*
X016555Y000416D01*
X016708Y000416D02*
X017015Y000416D01*
X016862Y000416D02*
X016862Y000876D01*
X016708Y000723D01*
X016555Y000876D02*
X016248Y000569D01*
X017169Y000493D02*
X017476Y000799D01*
X017476Y000493D01*
X017399Y000416D01*
X017245Y000416D01*
X017169Y000493D01*
X017169Y000799D01*
X017245Y000876D01*
X017399Y000876D01*
X017476Y000799D01*
X017629Y000723D02*
X017783Y000876D01*
X017783Y000416D01*
X017936Y000416D02*
X017629Y000416D01*
X008421Y000646D02*
X008114Y000646D01*
X008114Y000723D02*
X008114Y000416D01*
X017179Y009767D02*
X017640Y009767D01*
X017409Y009767D02*
X017409Y010074D01*
X017179Y010074D02*
X017640Y010074D01*
X017640Y010227D02*
X017640Y010381D01*
X017640Y010304D02*
X017179Y010304D01*
X017179Y010227D02*
X017179Y010381D01*
X017179Y010534D02*
X017640Y010534D01*
X017640Y010841D01*
X017640Y010995D02*
X017640Y011148D01*
X017640Y011071D02*
X017179Y011071D01*
X017179Y010995D02*
X017179Y011148D01*
X017179Y011302D02*
X017640Y011608D01*
X017179Y011608D01*
X017179Y011762D02*
X017640Y011762D01*
X017486Y011762D02*
X017179Y012069D01*
X017409Y011839D02*
X017640Y012069D01*
X017716Y012222D02*
X017716Y012529D01*
X017640Y012683D02*
X017179Y012683D01*
X017409Y012683D02*
X017409Y012990D01*
X017179Y012990D02*
X017640Y012990D01*
X017640Y013143D02*
X017179Y013143D01*
X017640Y013143D02*
X017640Y013450D01*
X017640Y013603D02*
X017179Y013603D01*
X017409Y013680D02*
X017640Y013910D01*
X017409Y014064D02*
X017409Y014371D01*
X017486Y014524D02*
X017486Y014754D01*
X017409Y014831D01*
X017256Y014831D01*
X017179Y014754D01*
X017179Y014524D01*
X017640Y014524D01*
X017640Y014985D02*
X017179Y014985D01*
X017333Y015138D01*
X017179Y015292D01*
X017640Y015292D01*
X017563Y015445D02*
X017256Y015752D01*
X017563Y015752D01*
X017640Y015675D01*
X017640Y015522D01*
X017563Y015445D01*
X017256Y015445D01*
X017179Y015522D01*
X017179Y015675D01*
X017256Y015752D01*
X017333Y015905D02*
X017179Y016059D01*
X017640Y016059D01*
X017640Y016212D02*
X017640Y015905D01*
X017179Y013910D02*
X017486Y013603D01*
X017640Y011302D02*
X017179Y011302D01*
D14*
X013550Y014196D02*
X013550Y006196D01*
X009550Y006196D01*
X009550Y014196D01*
X013550Y014196D01*
X008700Y014196D02*
X008700Y006196D01*
X004700Y006196D01*
X004700Y014196D01*
X008700Y014196D01*
D15*
X013310Y015743D02*
X013310Y015849D01*
X013706Y015346D02*
X013760Y015373D01*
X013811Y015403D01*
X013861Y015436D01*
X013909Y015471D01*
X013910Y015471D02*
X013910Y017121D01*
X013310Y016849D02*
X013310Y016743D01*
X013697Y017250D02*
X013753Y017223D01*
X013807Y017192D01*
X013859Y017158D01*
X013909Y017121D01*
X012813Y017246D02*
X012756Y017217D01*
X012700Y017184D01*
X012647Y017149D01*
X012596Y017109D01*
X012548Y017067D01*
X012502Y017022D01*
X012459Y016975D01*
X012419Y016925D01*
X012382Y016872D01*
X012349Y016817D01*
X012318Y016761D01*
X012292Y016702D01*
X012269Y016642D01*
X012249Y016581D01*
X012234Y016519D01*
X012222Y016456D01*
X012214Y016392D01*
X012210Y016328D01*
X012210Y016264D01*
X012214Y016200D01*
X012222Y016136D01*
X012234Y016073D01*
X012249Y016011D01*
X012269Y015950D01*
X012292Y015890D01*
X012318Y015831D01*
X012349Y015775D01*
X012382Y015720D01*
X012419Y015667D01*
X012459Y015617D01*
X012502Y015570D01*
X012548Y015525D01*
X012596Y015483D01*
X012647Y015443D01*
X012700Y015408D01*
X012756Y015375D01*
X012813Y015346D01*
D16*
X011878Y015196D02*
X011878Y015746D01*
X011478Y015746D01*
X011310Y016046D02*
X009310Y016046D01*
X009272Y015746D02*
X008872Y015746D01*
X008872Y015196D01*
X009572Y014346D02*
X011178Y014346D01*
X012010Y016896D02*
X012010Y017446D01*
X011610Y017446D01*
X011310Y017796D02*
X009310Y017796D01*
X009010Y017446D02*
X008610Y017446D01*
X008610Y016896D01*
X008610Y018646D02*
X008610Y019196D01*
X009010Y019196D01*
X011610Y019196D02*
X012010Y019196D01*
X012010Y018646D01*
M02*
