G75*
G70*
%OFA0B0*%
%FSLAX24Y24*%
%IPPOS*%
%LPD*%
%AMOC8*
5,1,8,0,0,1.08239X$1,22.5*
%
%ADD10R,0.0400X0.0450*%
%ADD11R,0.0220X0.0780*%
%ADD12C,0.0079*%
%ADD13R,0.0512X0.0355*%
%ADD14R,0.0355X0.0512*%
%ADD15C,0.0787*%
%ADD16C,0.0860*%
%ADD17R,0.0220X0.0500*%
%ADD18R,0.0669X0.0276*%
%ADD19R,0.0394X0.0551*%
%ADD20R,0.0210X0.0500*%
%ADD21R,0.0500X0.0210*%
%ADD22R,0.0551X0.0354*%
%ADD23C,0.0660*%
%ADD24C,0.0700*%
%ADD25R,0.0327X0.0248*%
%ADD26R,0.0276X0.0394*%
%ADD27C,0.0768*%
%ADD28C,0.0100*%
%ADD29OC8,0.0480*%
%ADD30R,0.0800X0.0800*%
%ADD31C,0.0800*%
%ADD32R,0.0236X0.0866*%
%ADD33R,0.1102X0.1102*%
D10*
X020530Y011956D03*
X021230Y011956D03*
X020880Y011156D03*
D11*
X008410Y011766D03*
X007910Y011766D03*
X007410Y011766D03*
X006910Y011766D03*
X006910Y009826D03*
X007410Y009826D03*
X007910Y009826D03*
X008410Y009826D03*
D12*
X010037Y011684D02*
X010037Y011920D01*
X010037Y011684D02*
X009603Y011684D01*
X009603Y011920D01*
X010037Y011920D01*
X010037Y011762D02*
X009603Y011762D01*
X009603Y011840D02*
X010037Y011840D01*
X010037Y011918D02*
X009603Y011918D01*
X010037Y012472D02*
X010037Y012708D01*
X010037Y012472D02*
X009603Y012472D01*
X009603Y012708D01*
X010037Y012708D01*
X010037Y012550D02*
X009603Y012550D01*
X009603Y012628D02*
X010037Y012628D01*
X010037Y012706D02*
X009603Y012706D01*
X008921Y012309D02*
X008685Y012309D01*
X008685Y012743D01*
X008921Y012743D01*
X008921Y012309D01*
X008921Y012387D02*
X008685Y012387D01*
X008685Y012465D02*
X008921Y012465D01*
X008921Y012543D02*
X008685Y012543D01*
X008685Y012621D02*
X008921Y012621D01*
X008921Y012699D02*
X008685Y012699D01*
X008134Y012309D02*
X007898Y012309D01*
X007898Y012743D01*
X008134Y012743D01*
X008134Y012309D01*
X008134Y012387D02*
X007898Y012387D01*
X007898Y012465D02*
X008134Y012465D01*
X008134Y012543D02*
X007898Y012543D01*
X007898Y012621D02*
X008134Y012621D01*
X008134Y012699D02*
X007898Y012699D01*
X012643Y012672D02*
X012643Y012908D01*
X013077Y012908D01*
X013077Y012672D01*
X012643Y012672D01*
X012643Y012750D02*
X013077Y012750D01*
X013077Y012828D02*
X012643Y012828D01*
X012643Y012906D02*
X013077Y012906D01*
X013648Y012479D02*
X013884Y012479D01*
X013648Y012479D02*
X013648Y012913D01*
X013884Y012913D01*
X013884Y012479D01*
X013884Y012557D02*
X013648Y012557D01*
X013648Y012635D02*
X013884Y012635D01*
X013884Y012713D02*
X013648Y012713D01*
X013648Y012791D02*
X013884Y012791D01*
X013884Y012869D02*
X013648Y012869D01*
X014435Y012479D02*
X014671Y012479D01*
X014435Y012479D02*
X014435Y012913D01*
X014671Y012913D01*
X014671Y012479D01*
X014671Y012557D02*
X014435Y012557D01*
X014435Y012635D02*
X014671Y012635D01*
X014671Y012713D02*
X014435Y012713D01*
X014435Y012791D02*
X014671Y012791D01*
X014671Y012869D02*
X014435Y012869D01*
X015427Y012058D02*
X015427Y011822D01*
X014993Y011822D01*
X014993Y012058D01*
X015427Y012058D01*
X015427Y011900D02*
X014993Y011900D01*
X014993Y011978D02*
X015427Y011978D01*
X015427Y012056D02*
X014993Y012056D01*
X014651Y012083D02*
X014415Y012083D01*
X014651Y012083D02*
X014651Y011649D01*
X014415Y011649D01*
X014415Y012083D01*
X014415Y011727D02*
X014651Y011727D01*
X014651Y011805D02*
X014415Y011805D01*
X014415Y011883D02*
X014651Y011883D01*
X014651Y011961D02*
X014415Y011961D01*
X014415Y012039D02*
X014651Y012039D01*
X013864Y012083D02*
X013628Y012083D01*
X013864Y012083D02*
X013864Y011649D01*
X013628Y011649D01*
X013628Y012083D01*
X013628Y011727D02*
X013864Y011727D01*
X013864Y011805D02*
X013628Y011805D01*
X013628Y011883D02*
X013864Y011883D01*
X013864Y011961D02*
X013628Y011961D01*
X013628Y012039D02*
X013864Y012039D01*
X013473Y011258D02*
X013473Y011022D01*
X013473Y011258D02*
X013907Y011258D01*
X013907Y011022D01*
X013473Y011022D01*
X013473Y011100D02*
X013907Y011100D01*
X013907Y011178D02*
X013473Y011178D01*
X013473Y011256D02*
X013907Y011256D01*
X013473Y010470D02*
X013473Y010234D01*
X013473Y010470D02*
X013907Y010470D01*
X013907Y010234D01*
X013473Y010234D01*
X013473Y010312D02*
X013907Y010312D01*
X013907Y010390D02*
X013473Y010390D01*
X013473Y010468D02*
X013907Y010468D01*
X015427Y011034D02*
X015427Y011270D01*
X015427Y011034D02*
X014993Y011034D01*
X014993Y011270D01*
X015427Y011270D01*
X015427Y011112D02*
X014993Y011112D01*
X014993Y011190D02*
X015427Y011190D01*
X015427Y011268D02*
X014993Y011268D01*
X012643Y011884D02*
X012643Y012120D01*
X013077Y012120D01*
X013077Y011884D01*
X012643Y011884D01*
X012643Y011962D02*
X013077Y011962D01*
X013077Y012040D02*
X012643Y012040D01*
X012643Y012118D02*
X013077Y012118D01*
X013948Y014263D02*
X014184Y014263D01*
X014184Y013829D01*
X013948Y013829D01*
X013948Y014263D01*
X013948Y013907D02*
X014184Y013907D01*
X014184Y013985D02*
X013948Y013985D01*
X013948Y014063D02*
X014184Y014063D01*
X014184Y014141D02*
X013948Y014141D01*
X013948Y014219D02*
X014184Y014219D01*
X014735Y014263D02*
X014971Y014263D01*
X014971Y013829D01*
X014735Y013829D01*
X014735Y014263D01*
X014735Y013907D02*
X014971Y013907D01*
X014971Y013985D02*
X014735Y013985D01*
X014735Y014063D02*
X014971Y014063D01*
X014971Y014141D02*
X014735Y014141D01*
X014735Y014219D02*
X014971Y014219D01*
X017093Y012278D02*
X017093Y012042D01*
X017093Y012278D02*
X017527Y012278D01*
X017527Y012042D01*
X017093Y012042D01*
X017093Y012120D02*
X017527Y012120D01*
X017527Y012198D02*
X017093Y012198D01*
X017093Y012276D02*
X017527Y012276D01*
X017093Y011490D02*
X017093Y011254D01*
X017093Y011490D02*
X017527Y011490D01*
X017527Y011254D01*
X017093Y011254D01*
X017093Y011332D02*
X017527Y011332D01*
X017527Y011410D02*
X017093Y011410D01*
X017093Y011488D02*
X017527Y011488D01*
X020348Y012429D02*
X020584Y012429D01*
X020348Y012429D02*
X020348Y012863D01*
X020584Y012863D01*
X020584Y012429D01*
X020584Y012507D02*
X020348Y012507D01*
X020348Y012585D02*
X020584Y012585D01*
X020584Y012663D02*
X020348Y012663D01*
X020348Y012741D02*
X020584Y012741D01*
X020584Y012819D02*
X020348Y012819D01*
X021135Y012429D02*
X021371Y012429D01*
X021135Y012429D02*
X021135Y012863D01*
X021371Y012863D01*
X021371Y012429D01*
X021371Y012507D02*
X021135Y012507D01*
X021135Y012585D02*
X021371Y012585D01*
X021371Y012663D02*
X021135Y012663D01*
X021135Y012741D02*
X021371Y012741D01*
X021371Y012819D02*
X021135Y012819D01*
X021397Y013984D02*
X021397Y014220D01*
X021397Y013984D02*
X020963Y013984D01*
X020963Y014220D01*
X021397Y014220D01*
X021397Y014062D02*
X020963Y014062D01*
X020963Y014140D02*
X021397Y014140D01*
X021397Y014218D02*
X020963Y014218D01*
X021397Y014772D02*
X021397Y015008D01*
X021397Y014772D02*
X020963Y014772D01*
X020963Y015008D01*
X021397Y015008D01*
X021397Y014850D02*
X020963Y014850D01*
X020963Y014928D02*
X021397Y014928D01*
X021397Y015006D02*
X020963Y015006D01*
X021125Y015349D02*
X021361Y015349D01*
X021125Y015349D02*
X021125Y015783D01*
X021361Y015783D01*
X021361Y015349D01*
X021361Y015427D02*
X021125Y015427D01*
X021125Y015505D02*
X021361Y015505D01*
X021361Y015583D02*
X021125Y015583D01*
X021125Y015661D02*
X021361Y015661D01*
X021361Y015739D02*
X021125Y015739D01*
X020574Y015349D02*
X020338Y015349D01*
X020338Y015783D01*
X020574Y015783D01*
X020574Y015349D01*
X020574Y015427D02*
X020338Y015427D01*
X020338Y015505D02*
X020574Y015505D01*
X020574Y015583D02*
X020338Y015583D01*
X020338Y015661D02*
X020574Y015661D01*
X020574Y015739D02*
X020338Y015739D01*
X017411Y017733D02*
X017175Y017733D01*
X017411Y017733D02*
X017411Y017299D01*
X017175Y017299D01*
X017175Y017733D01*
X017175Y017377D02*
X017411Y017377D01*
X017411Y017455D02*
X017175Y017455D01*
X017175Y017533D02*
X017411Y017533D01*
X017411Y017611D02*
X017175Y017611D01*
X017175Y017689D02*
X017411Y017689D01*
X016624Y017733D02*
X016388Y017733D01*
X016624Y017733D02*
X016624Y017299D01*
X016388Y017299D01*
X016388Y017733D01*
X016388Y017377D02*
X016624Y017377D01*
X016624Y017455D02*
X016388Y017455D01*
X016388Y017533D02*
X016624Y017533D01*
X016624Y017611D02*
X016388Y017611D01*
X016388Y017689D02*
X016624Y017689D01*
X015211Y017959D02*
X014975Y017959D01*
X014975Y018393D01*
X015211Y018393D01*
X015211Y017959D01*
X015211Y018037D02*
X014975Y018037D01*
X014975Y018115D02*
X015211Y018115D01*
X015211Y018193D02*
X014975Y018193D01*
X014975Y018271D02*
X015211Y018271D01*
X015211Y018349D02*
X014975Y018349D01*
X014424Y017959D02*
X014188Y017959D01*
X014188Y018393D01*
X014424Y018393D01*
X014424Y017959D01*
X014424Y018037D02*
X014188Y018037D01*
X014188Y018115D02*
X014424Y018115D01*
X014424Y018193D02*
X014188Y018193D01*
X014188Y018271D02*
X014424Y018271D01*
X014424Y018349D02*
X014188Y018349D01*
X013871Y017979D02*
X013635Y017979D01*
X013635Y018413D01*
X013871Y018413D01*
X013871Y017979D01*
X013871Y018057D02*
X013635Y018057D01*
X013635Y018135D02*
X013871Y018135D01*
X013871Y018213D02*
X013635Y018213D01*
X013635Y018291D02*
X013871Y018291D01*
X013871Y018369D02*
X013635Y018369D01*
X013084Y017979D02*
X012848Y017979D01*
X012848Y018413D01*
X013084Y018413D01*
X013084Y017979D01*
X013084Y018057D02*
X012848Y018057D01*
X012848Y018135D02*
X013084Y018135D01*
X013084Y018213D02*
X012848Y018213D01*
X012848Y018291D02*
X013084Y018291D01*
X013084Y018369D02*
X012848Y018369D01*
D13*
X013040Y019222D03*
X013040Y020010D03*
X015830Y018710D03*
X015830Y017922D03*
X017860Y017552D03*
X017860Y018340D03*
X018060Y019282D03*
X018060Y020070D03*
X019050Y020080D03*
X019050Y019292D03*
X020010Y019252D03*
X020010Y020040D03*
X019860Y018240D03*
X019860Y017452D03*
X018060Y012128D03*
X018060Y011341D03*
X018060Y010940D03*
X018060Y010152D03*
X016260Y010332D03*
X016260Y011120D03*
X014520Y011120D03*
X014520Y010332D03*
X010670Y011792D03*
X010670Y012580D03*
X007260Y012502D03*
X007260Y013290D03*
D14*
X009016Y011346D03*
X009803Y011346D03*
X016476Y018306D03*
X017263Y018306D03*
X016203Y019426D03*
X015416Y019426D03*
X020466Y013546D03*
X021253Y013546D03*
X021053Y010546D03*
X020266Y010546D03*
D15*
X020791Y019233D03*
X014728Y019233D03*
D16*
X016775Y007658D03*
X018744Y007658D03*
D17*
X012190Y011716D03*
X011430Y011716D03*
X011430Y012676D03*
X011810Y012676D03*
X012190Y012676D03*
D18*
X020851Y016535D03*
X020851Y017007D03*
X020851Y017479D03*
D19*
X017384Y019113D03*
X016635Y019113D03*
X017010Y019979D03*
D20*
X016922Y016471D03*
X017237Y016471D03*
X017552Y016471D03*
X017867Y016471D03*
X018182Y016471D03*
X018497Y016471D03*
X018812Y016471D03*
X019127Y016471D03*
X019127Y013091D03*
X018812Y013091D03*
X018497Y013091D03*
X018182Y013091D03*
X017867Y013091D03*
X017552Y013091D03*
X017237Y013091D03*
X016922Y013091D03*
D21*
X016334Y013679D03*
X016334Y013994D03*
X016334Y014309D03*
X016334Y014624D03*
X016334Y014939D03*
X016334Y015254D03*
X016334Y015569D03*
X016334Y015884D03*
X019714Y015884D03*
X019714Y015569D03*
X019714Y015254D03*
X019714Y014939D03*
X019714Y014624D03*
X019714Y014309D03*
X019714Y013994D03*
X019714Y013679D03*
D22*
X011799Y015796D03*
X011799Y016296D03*
X011799Y016796D03*
X011799Y017296D03*
X011799Y017796D03*
X011799Y018296D03*
X011799Y018796D03*
X011799Y019296D03*
D23*
X014475Y005646D03*
X016444Y005646D03*
D24*
X016480Y003696D03*
X014480Y003696D03*
D25*
X012860Y010693D03*
X012860Y011599D03*
D26*
X005604Y011843D03*
X005230Y011843D03*
X004855Y011843D03*
X004855Y012788D03*
X005230Y012788D03*
X005604Y012788D03*
D27*
X005200Y013696D03*
X008200Y013696D03*
X010050Y013696D03*
X013050Y013696D03*
X010050Y009696D03*
X008200Y007696D03*
X010050Y006696D03*
X005200Y006696D03*
X005200Y009696D03*
D28*
X018760Y010871D02*
X019060Y010871D01*
X019060Y010421D01*
X018760Y010421D01*
X018760Y010871D01*
X018760Y010520D02*
X019060Y010520D01*
X019060Y010619D02*
X018760Y010619D01*
X018760Y010718D02*
X019060Y010718D01*
X019060Y010817D02*
X018760Y010817D01*
X018753Y011227D02*
X019053Y011227D01*
X018753Y011227D02*
X018753Y011677D01*
X019053Y011677D01*
X019053Y011227D01*
X019053Y011326D02*
X018753Y011326D01*
X018753Y011425D02*
X019053Y011425D01*
X019053Y011524D02*
X018753Y011524D01*
X018753Y011623D02*
X019053Y011623D01*
X019453Y011227D02*
X019753Y011227D01*
X019453Y011227D02*
X019453Y011677D01*
X019753Y011677D01*
X019753Y011227D01*
X019753Y011326D02*
X019453Y011326D01*
X019453Y011425D02*
X019753Y011425D01*
X019753Y011524D02*
X019453Y011524D01*
X019453Y011623D02*
X019753Y011623D01*
X019760Y012471D02*
X019460Y012471D01*
X019760Y012471D02*
X019760Y012021D01*
X019460Y012021D01*
X019460Y012471D01*
X019460Y012120D02*
X019760Y012120D01*
X019760Y012219D02*
X019460Y012219D01*
X019460Y012318D02*
X019760Y012318D01*
X019760Y012417D02*
X019460Y012417D01*
X019060Y012471D02*
X018760Y012471D01*
X019060Y012471D02*
X019060Y012021D01*
X018760Y012021D01*
X018760Y012471D01*
X018760Y012120D02*
X019060Y012120D01*
X019060Y012219D02*
X018760Y012219D01*
X018760Y012318D02*
X019060Y012318D01*
X019060Y012417D02*
X018760Y012417D01*
X019460Y010871D02*
X019760Y010871D01*
X019760Y010421D01*
X019460Y010421D01*
X019460Y010871D01*
X019460Y010520D02*
X019760Y010520D01*
X019760Y010619D02*
X019460Y010619D01*
X019460Y010718D02*
X019760Y010718D01*
X019760Y010817D02*
X019460Y010817D01*
X018485Y017546D02*
X018485Y017846D01*
X018935Y017846D01*
X018935Y017546D01*
X018485Y017546D01*
X018485Y017645D02*
X018935Y017645D01*
X018935Y017744D02*
X018485Y017744D01*
X018485Y017843D02*
X018935Y017843D01*
X018485Y018246D02*
X018485Y018546D01*
X018935Y018546D01*
X018935Y018246D01*
X018485Y018246D01*
X018485Y018345D02*
X018935Y018345D01*
X018935Y018444D02*
X018485Y018444D01*
X018485Y018543D02*
X018935Y018543D01*
D29*
X013260Y017296D03*
X013260Y016296D03*
X013260Y015296D03*
D30*
X012510Y004496D03*
X007860Y004496D03*
X018610Y004546D03*
D31*
X005860Y004496D03*
X010510Y004496D03*
X020610Y004546D03*
D32*
X015410Y015122D03*
X014910Y015122D03*
X014410Y015122D03*
X013910Y015122D03*
X013910Y017169D03*
X014410Y017169D03*
X014910Y017169D03*
X015410Y017169D03*
D33*
X015701Y007596D03*
X013418Y007596D03*
M02*
