%
M48
M72
T01C0.0200
T02C0.0315
T03C0.0320
T04C0.0420
T05C0.0551
%
T01
X6150Y10650
X8150Y10650
T02
X17650Y10874
X17650Y11662
X17650Y12449
X17650Y13237
X17650Y10087
X17650Y9300
X17650Y8512
X17650Y7725
X17650Y6937
X17650Y6150
T03
X6150Y8150
X2850Y11650
X1450Y11650
X1650Y13650
X3950Y15650
X5350Y15650
X4650Y13650
X2150Y8150
T04
X7150Y8150
X7150Y9650
X8900Y650
X10400Y650
T05
X2363Y5050
X2588Y14713
X15563Y3225
X15900Y15550
M30
