G75*
G70*
%OFA0B0*%
%FSLAX24Y24*%
%IPPOS*%
%LPD*%
%AMOC8*
5,1,8,0,0,1.08239X$1,22.5*
%
%ADD10C,0.0100*%
%ADD11R,0.0433X0.0394*%
%ADD12OC8,0.0630*%
%ADD13C,0.0630*%
%ADD14R,0.0500X0.0579*%
%ADD15OC8,0.0660*%
%ADD16R,0.0800X0.0460*%
%ADD17R,0.0800X0.0600*%
%ADD18R,0.0394X0.0433*%
%ADD19R,0.0472X0.0315*%
%ADD20R,0.0579X0.0500*%
%ADD21R,0.0472X0.0984*%
%ADD22R,0.0709X0.1260*%
%ADD23R,0.0598X0.0701*%
%ADD24R,0.0315X0.0315*%
%ADD25R,0.0630X0.0787*%
%ADD26R,0.1063X0.0630*%
%ADD27R,0.1516X0.2165*%
%ADD28R,0.0472X0.0472*%
%ADD29C,0.0472*%
%ADD30R,0.2126X0.2441*%
%ADD31R,0.0394X0.0630*%
%ADD32C,0.1000*%
%ADD33C,0.0500*%
%ADD34C,0.0060*%
%ADD35C,0.0700*%
%ADD36C,0.0340*%
%ADD37C,0.0660*%
%ADD38C,0.0827*%
D10*
X000150Y009650D02*
X000153Y009883D01*
X000161Y010116D01*
X000176Y010349D01*
X000196Y010581D01*
X000221Y010813D01*
X000253Y011044D01*
X000290Y011274D01*
X000333Y011503D01*
X000381Y011731D01*
X000435Y011958D01*
X000494Y012184D01*
X000559Y012408D01*
X000629Y012630D01*
X000705Y012850D01*
X000787Y013069D01*
X000873Y013285D01*
X000965Y013500D01*
X001062Y013712D01*
X001164Y013921D01*
X001272Y014128D01*
X001384Y014333D01*
X001502Y014534D01*
X001624Y014732D01*
X001751Y014928D01*
X001883Y015120D01*
X002020Y015309D01*
X002161Y015495D01*
X002306Y015677D01*
X002457Y015855D01*
X002611Y016030D01*
X002770Y016201D01*
X002932Y016368D01*
X003099Y016530D01*
X003270Y016689D01*
X003445Y016843D01*
X003623Y016994D01*
X003805Y017139D01*
X003991Y017280D01*
X004180Y017417D01*
X004372Y017549D01*
X004568Y017676D01*
X004766Y017798D01*
X004967Y017916D01*
X005172Y018028D01*
X005379Y018136D01*
X005588Y018238D01*
X005800Y018335D01*
X006015Y018427D01*
X006231Y018513D01*
X006450Y018595D01*
X006670Y018671D01*
X006892Y018741D01*
X007116Y018806D01*
X007342Y018865D01*
X007569Y018919D01*
X007797Y018967D01*
X008026Y019010D01*
X008256Y019047D01*
X008487Y019079D01*
X008719Y019104D01*
X008951Y019124D01*
X009184Y019139D01*
X009417Y019147D01*
X009650Y019150D01*
X009883Y019147D01*
X010116Y019139D01*
X010349Y019124D01*
X010581Y019104D01*
X010813Y019079D01*
X011044Y019047D01*
X011274Y019010D01*
X011503Y018967D01*
X011731Y018919D01*
X011958Y018865D01*
X012184Y018806D01*
X012408Y018741D01*
X012630Y018671D01*
X012850Y018595D01*
X013069Y018513D01*
X013285Y018427D01*
X013500Y018335D01*
X013712Y018238D01*
X013921Y018136D01*
X014128Y018028D01*
X014333Y017916D01*
X014534Y017798D01*
X014732Y017676D01*
X014928Y017549D01*
X015120Y017417D01*
X015309Y017280D01*
X015495Y017139D01*
X015677Y016994D01*
X015855Y016843D01*
X016030Y016689D01*
X016201Y016530D01*
X016368Y016368D01*
X016530Y016201D01*
X016689Y016030D01*
X016843Y015855D01*
X016994Y015677D01*
X017139Y015495D01*
X017280Y015309D01*
X017417Y015120D01*
X017549Y014928D01*
X017676Y014732D01*
X017798Y014534D01*
X017916Y014333D01*
X018028Y014128D01*
X018136Y013921D01*
X018238Y013712D01*
X018335Y013500D01*
X018427Y013285D01*
X018513Y013069D01*
X018595Y012850D01*
X018671Y012630D01*
X018741Y012408D01*
X018806Y012184D01*
X018865Y011958D01*
X018919Y011731D01*
X018967Y011503D01*
X019010Y011274D01*
X019047Y011044D01*
X019079Y010813D01*
X019104Y010581D01*
X019124Y010349D01*
X019139Y010116D01*
X019147Y009883D01*
X019150Y009650D01*
X019147Y009417D01*
X019139Y009184D01*
X019124Y008951D01*
X019104Y008719D01*
X019079Y008487D01*
X019047Y008256D01*
X019010Y008026D01*
X018967Y007797D01*
X018919Y007569D01*
X018865Y007342D01*
X018806Y007116D01*
X018741Y006892D01*
X018671Y006670D01*
X018595Y006450D01*
X018513Y006231D01*
X018427Y006015D01*
X018335Y005800D01*
X018238Y005588D01*
X018136Y005379D01*
X018028Y005172D01*
X017916Y004967D01*
X017798Y004766D01*
X017676Y004568D01*
X017549Y004372D01*
X017417Y004180D01*
X017280Y003991D01*
X017139Y003805D01*
X016994Y003623D01*
X016843Y003445D01*
X016689Y003270D01*
X016530Y003099D01*
X016368Y002932D01*
X016201Y002770D01*
X016030Y002611D01*
X015855Y002457D01*
X015677Y002306D01*
X015495Y002161D01*
X015309Y002020D01*
X015120Y001883D01*
X014928Y001751D01*
X014732Y001624D01*
X014534Y001502D01*
X014333Y001384D01*
X014128Y001272D01*
X013921Y001164D01*
X013712Y001062D01*
X013500Y000965D01*
X013285Y000873D01*
X013069Y000787D01*
X012850Y000705D01*
X012630Y000629D01*
X012408Y000559D01*
X012184Y000494D01*
X011958Y000435D01*
X011731Y000381D01*
X011503Y000333D01*
X011274Y000290D01*
X011044Y000253D01*
X010813Y000221D01*
X010581Y000196D01*
X010349Y000176D01*
X010116Y000161D01*
X009883Y000153D01*
X009650Y000150D01*
X009417Y000153D01*
X009184Y000161D01*
X008951Y000176D01*
X008719Y000196D01*
X008487Y000221D01*
X008256Y000253D01*
X008026Y000290D01*
X007797Y000333D01*
X007569Y000381D01*
X007342Y000435D01*
X007116Y000494D01*
X006892Y000559D01*
X006670Y000629D01*
X006450Y000705D01*
X006231Y000787D01*
X006015Y000873D01*
X005800Y000965D01*
X005588Y001062D01*
X005379Y001164D01*
X005172Y001272D01*
X004967Y001384D01*
X004766Y001502D01*
X004568Y001624D01*
X004372Y001751D01*
X004180Y001883D01*
X003991Y002020D01*
X003805Y002161D01*
X003623Y002306D01*
X003445Y002457D01*
X003270Y002611D01*
X003099Y002770D01*
X002932Y002932D01*
X002770Y003099D01*
X002611Y003270D01*
X002457Y003445D01*
X002306Y003623D01*
X002161Y003805D01*
X002020Y003991D01*
X001883Y004180D01*
X001751Y004372D01*
X001624Y004568D01*
X001502Y004766D01*
X001384Y004967D01*
X001272Y005172D01*
X001164Y005379D01*
X001062Y005588D01*
X000965Y005800D01*
X000873Y006015D01*
X000787Y006231D01*
X000705Y006450D01*
X000629Y006670D01*
X000559Y006892D01*
X000494Y007116D01*
X000435Y007342D01*
X000381Y007569D01*
X000333Y007797D01*
X000290Y008026D01*
X000253Y008256D01*
X000221Y008487D01*
X000196Y008719D01*
X000176Y008951D01*
X000161Y009184D01*
X000153Y009417D01*
X000150Y009650D01*
X006150Y010650D02*
X006250Y010550D01*
X006815Y010550D01*
X007485Y010550D02*
X007485Y011315D01*
X007150Y011650D01*
X007300Y011650D01*
X007485Y011315D02*
X008150Y010650D01*
X006150Y010650D02*
X006150Y011650D01*
X006000Y011650D01*
X010350Y015182D02*
X012182Y015182D01*
X012250Y015250D01*
X012250Y015396D01*
X012650Y015796D01*
X011961Y016485D01*
X011650Y016485D01*
X011650Y017296D01*
X011650Y018004D02*
X010388Y018004D01*
X010350Y018042D01*
X010350Y017120D02*
X010520Y016950D01*
X010950Y016950D01*
X011150Y016750D01*
X011150Y016150D01*
X011485Y015815D01*
X011650Y015815D01*
X012650Y016504D02*
X012650Y017296D01*
X012851Y017496D01*
X013650Y017496D01*
X012650Y018004D02*
X011650Y018004D01*
X017649Y012449D02*
X013650Y008450D01*
X013650Y008004D01*
X012650Y008004D01*
X013150Y007650D02*
X014150Y007650D01*
X014150Y008350D01*
X014350Y008550D01*
X014538Y008550D01*
X017650Y011662D01*
X017650Y012449D02*
X017649Y012449D01*
X014650Y007945D02*
X014550Y007845D01*
X014550Y007750D01*
X014250Y007450D01*
X014250Y007350D01*
X014196Y007296D01*
X013650Y007296D01*
X013150Y006950D02*
X013150Y007650D01*
X012650Y007296D02*
X012650Y007250D01*
X012050Y006650D01*
X012050Y005450D01*
X011550Y004950D01*
X011550Y005079D01*
X011479Y005150D01*
X011050Y004550D02*
X012450Y004550D01*
X013550Y005650D01*
X013550Y005928D01*
X013650Y006028D01*
X017528Y006028D01*
X017650Y006150D01*
X014650Y007028D02*
X013650Y006028D01*
X013150Y006950D02*
X012650Y006450D01*
X012650Y006028D01*
X011479Y006150D02*
X011350Y006150D01*
X010750Y005550D01*
X010750Y004850D01*
X011050Y004550D01*
X014650Y007028D02*
X014650Y007355D01*
D11*
X007485Y010550D03*
X006815Y010550D03*
D12*
X002850Y011650D03*
X005350Y015650D03*
D13*
X003950Y015650D03*
X001450Y011650D03*
X007150Y009650D03*
X007150Y008150D03*
X008900Y000650D03*
X010400Y000650D03*
D14*
X002496Y009150D03*
X003804Y009650D03*
X005496Y009650D03*
X005804Y013150D03*
X007496Y013150D03*
X000804Y009150D03*
D15*
X002150Y008150D03*
X006150Y008150D03*
X004650Y013650D03*
X001650Y013650D03*
D16*
X006950Y015182D03*
X006950Y018042D03*
X010350Y018042D03*
X010350Y015182D03*
D17*
X010350Y016110D03*
X010350Y017120D03*
X006950Y016110D03*
D18*
X011650Y015815D03*
X011650Y016485D03*
D19*
X011650Y017296D03*
X011650Y018004D03*
X012650Y018004D03*
X012650Y017296D03*
X012650Y016504D03*
X012650Y015796D03*
X012650Y008004D03*
X012650Y007296D03*
X013650Y007296D03*
X013650Y008004D03*
D20*
X013650Y015804D03*
X013650Y017496D03*
D21*
X007300Y011650D03*
X006000Y011650D03*
D22*
X008548Y003650D03*
X008548Y002150D03*
X010752Y002150D03*
X010752Y003650D03*
D23*
X011479Y005150D03*
X011479Y006150D03*
X011479Y007150D03*
X007821Y007150D03*
X007821Y006150D03*
X007821Y005150D03*
D24*
X014650Y007355D03*
X014650Y007945D03*
D25*
X013650Y006028D03*
X012650Y006028D03*
X012650Y002272D03*
X013650Y002272D03*
D26*
X007150Y002599D03*
X007150Y003701D03*
D27*
X009191Y011650D03*
X013109Y011650D03*
D28*
X017650Y006150D03*
D29*
X017650Y006937D03*
X017650Y007725D03*
X017650Y008512D03*
X017650Y009300D03*
X017650Y010087D03*
X017650Y010874D03*
X017650Y011662D03*
X017650Y012449D03*
X017650Y013237D03*
D30*
X004650Y006134D03*
D31*
X003752Y003260D03*
X005548Y003260D03*
D32*
X003863Y003150D02*
X003752Y003260D01*
X004650Y006650D02*
X006150Y008150D01*
X007150Y008150D01*
X004000Y009650D02*
X006000Y011650D01*
X006000Y012953D01*
X007496Y013150D02*
X008370Y014024D01*
X009191Y014024D01*
X010350Y015182D01*
X009191Y014024D02*
X009191Y011650D01*
X013109Y011650D02*
X013950Y011650D01*
X015550Y013250D01*
X017637Y013250D01*
X013650Y012191D02*
X013650Y015804D01*
X006950Y018042D02*
X006058Y017150D01*
X005150Y017150D01*
X003950Y015950D01*
X003950Y015650D02*
X004150Y015450D01*
X004150Y014650D01*
X004650Y014150D01*
X004650Y013650D01*
X002850Y011650D02*
X002850Y010604D01*
X003804Y009650D01*
X002496Y009150D02*
X002150Y008804D01*
X002150Y008150D01*
X000804Y009150D02*
X000804Y011004D01*
X001450Y011650D01*
X001450Y013450D01*
X001650Y013650D01*
D33*
X003950Y015650D02*
X003950Y015950D01*
X004000Y009650D02*
X003804Y009650D01*
X005496Y009650D02*
X007150Y009650D01*
X007650Y009650D01*
X009650Y007650D01*
X009650Y002650D01*
X009150Y002150D01*
X010400Y000900D01*
X010400Y000650D01*
X008900Y000650D02*
X008150Y000650D01*
X007650Y001150D01*
X006650Y001150D01*
X006150Y001650D01*
X005650Y001650D01*
X004150Y003150D01*
X003863Y003150D01*
X005548Y003260D02*
X005548Y004048D01*
X006650Y005150D01*
X006650Y006650D01*
X007150Y007150D01*
X007821Y007150D01*
X008650Y007650D02*
X008150Y008150D01*
X007150Y008150D01*
X008650Y007650D02*
X008650Y004650D01*
X008548Y004548D01*
X008548Y003650D01*
X007496Y002599D01*
X007150Y002599D01*
X007150Y003701D02*
X007821Y004372D01*
X007821Y005150D01*
X008548Y002150D02*
X009150Y002150D01*
X013109Y011650D02*
X013650Y012191D01*
X017637Y013250D02*
X017650Y013237D01*
D34*
X004650Y006650D02*
X004750Y006350D01*
X004750Y006150D01*
X004650Y006134D01*
D35*
X006000Y012953D02*
X005804Y013150D01*
X005804Y015196D01*
X005350Y015650D01*
D36*
X006150Y010650D03*
X008150Y010650D03*
D37*
X010752Y003650D02*
X011150Y003650D01*
X012528Y002272D01*
X012650Y002272D01*
X013650Y002272D02*
X013650Y001650D01*
X013150Y001150D01*
X011650Y001150D01*
X011650Y001252D01*
X010752Y002150D01*
D38*
X015563Y003225D03*
X015900Y015550D03*
X002588Y014713D03*
X002363Y005050D03*
M02*
