G75*
G70*
%OFA0B0*%
%FSLAX24Y24*%
%IPPOS*%
%LPD*%
%AMOC8*
5,1,8,0,0,1.08239X$1,22.5*
%
%ADD10OC8,0.0630*%
%ADD11C,0.0630*%
%ADD12OC8,0.0660*%
%ADD13R,0.0472X0.0472*%
%ADD14C,0.0472*%
%ADD15C,0.0340*%
%ADD16C,0.0100*%
%ADD17C,0.0120*%
%ADD18C,0.0827*%
D10*
X002850Y011650D03*
X005350Y015650D03*
D11*
X003950Y015650D03*
X001450Y011650D03*
X007150Y009650D03*
X007150Y008150D03*
X008900Y000650D03*
X010400Y000650D03*
D12*
X006150Y008150D03*
X002150Y008150D03*
X001650Y013650D03*
X004650Y013650D03*
D13*
X017650Y006150D03*
D14*
X017650Y006937D03*
X017650Y007725D03*
X017650Y008512D03*
X017650Y009300D03*
X017650Y010087D03*
X017650Y010874D03*
X017650Y011662D03*
X017650Y012449D03*
X017650Y013237D03*
D15*
X008150Y010650D03*
X006150Y010650D03*
D16*
X006650Y010150D01*
X007850Y010150D01*
X009850Y008150D01*
X011650Y008150D01*
X013650Y006150D01*
X017650Y006150D01*
X016450Y008450D02*
X016650Y008650D01*
X016650Y012650D01*
X017150Y013150D01*
X017650Y013150D01*
X017650Y013237D01*
X016450Y008450D02*
X009950Y008450D01*
D17*
X008150Y010150D01*
X008150Y010650D01*
D18*
X002363Y005050D03*
X002588Y014713D03*
X015563Y003225D03*
X015900Y015550D03*
M02*
