G75*
G70*
%OFA0B0*%
%FSLAX24Y24*%
%IPPOS*%
%LPD*%
%AMOC8*
5,1,8,0,0,1.08239X$1,22.5*
%
%ADD10C,0.0030*%
%ADD11C,0.0060*%
%ADD12C,0.0040*%
%ADD13C,0.0050*%
D10*
X005950Y013328D02*
X005950Y013618D01*
X006095Y013618D01*
X006144Y013570D01*
X006144Y013473D01*
X006095Y013425D01*
X005950Y013425D01*
X006245Y013376D02*
X006245Y013570D01*
X006293Y013618D01*
X006390Y013618D01*
X006438Y013570D01*
X006540Y013570D02*
X006588Y013618D01*
X006685Y013618D01*
X006733Y013570D01*
X006733Y013521D01*
X006685Y013473D01*
X006733Y013425D01*
X006733Y013376D01*
X006685Y013328D01*
X006588Y013328D01*
X006540Y013376D01*
X006438Y013376D02*
X006390Y013328D01*
X006293Y013328D01*
X006245Y013376D01*
X006636Y013473D02*
X006685Y013473D01*
X006733Y014078D02*
X006540Y014078D01*
X006733Y014271D01*
X006733Y014320D01*
X006685Y014368D01*
X006588Y014368D01*
X006540Y014320D01*
X006438Y014320D02*
X006390Y014368D01*
X006293Y014368D01*
X006245Y014320D01*
X006245Y014126D01*
X006293Y014078D01*
X006390Y014078D01*
X006438Y014126D01*
X006144Y014223D02*
X006095Y014175D01*
X005950Y014175D01*
X005950Y014078D02*
X005950Y014368D01*
X006095Y014368D01*
X006144Y014320D01*
X006144Y014223D01*
X006293Y014928D02*
X006390Y014928D01*
X006438Y014976D01*
X006540Y014928D02*
X006733Y014928D01*
X006636Y014928D02*
X006636Y015218D01*
X006540Y015121D01*
X006438Y015170D02*
X006390Y015218D01*
X006293Y015218D01*
X006245Y015170D01*
X006245Y014976D01*
X006293Y014928D01*
X006144Y015073D02*
X006095Y015025D01*
X005950Y015025D01*
X005950Y014928D02*
X005950Y015218D01*
X006095Y015218D01*
X006144Y015170D01*
X006144Y015073D01*
X006047Y015678D02*
X006144Y015775D01*
X006144Y015968D01*
X006245Y015968D02*
X006245Y015678D01*
X006245Y015775D02*
X006390Y015775D01*
X006438Y015823D01*
X006438Y015920D01*
X006390Y015968D01*
X006245Y015968D01*
X006342Y015775D02*
X006438Y015678D01*
X006540Y015678D02*
X006733Y015678D01*
X006834Y015678D02*
X006834Y015968D01*
X007028Y015968D01*
X006931Y015823D02*
X006834Y015823D01*
X006733Y015968D02*
X006540Y015968D01*
X006540Y015678D01*
X006540Y015823D02*
X006636Y015823D01*
X006047Y015678D02*
X005950Y015775D01*
X005950Y015968D01*
X005950Y016578D02*
X005950Y016868D01*
X006095Y016868D01*
X006144Y016820D01*
X006144Y016723D01*
X006095Y016675D01*
X005950Y016675D01*
X006245Y016626D02*
X006293Y016578D01*
X006390Y016578D01*
X006438Y016626D01*
X006540Y016626D02*
X006733Y016820D01*
X006733Y016626D01*
X006685Y016578D01*
X006588Y016578D01*
X006540Y016626D01*
X006540Y016820D01*
X006588Y016868D01*
X006685Y016868D01*
X006733Y016820D01*
X006438Y016820D02*
X006390Y016868D01*
X006293Y016868D01*
X006245Y016820D01*
X006245Y016626D01*
X006245Y017328D02*
X006390Y017328D01*
X006438Y017376D01*
X006438Y017570D01*
X006390Y017618D01*
X006245Y017618D01*
X006245Y017328D01*
X006144Y017328D02*
X006144Y017521D01*
X006047Y017618D01*
X005950Y017521D01*
X005950Y017328D01*
X005950Y017473D02*
X006144Y017473D01*
X006540Y017376D02*
X006588Y017328D01*
X006685Y017328D01*
X006733Y017376D01*
X006834Y017376D02*
X006834Y017328D01*
X006834Y017376D02*
X007028Y017570D01*
X007028Y017618D01*
X006834Y017618D01*
X006733Y017570D02*
X006685Y017618D01*
X006588Y017618D01*
X006540Y017570D01*
X006540Y017376D01*
X006588Y018128D02*
X006540Y018176D01*
X006588Y018128D02*
X006685Y018128D01*
X006733Y018176D01*
X006733Y018273D01*
X006685Y018321D01*
X006636Y018321D01*
X006540Y018273D01*
X006540Y018418D01*
X006733Y018418D01*
X006438Y018370D02*
X006390Y018418D01*
X006245Y018418D01*
X006245Y018128D01*
X006390Y018128D01*
X006438Y018176D01*
X006438Y018370D01*
X006144Y018370D02*
X006144Y018273D01*
X006095Y018225D01*
X005950Y018225D01*
X005950Y018128D02*
X005950Y018418D01*
X006095Y018418D01*
X006144Y018370D01*
X006245Y018928D02*
X006390Y018928D01*
X006438Y018976D01*
X006438Y019170D01*
X006390Y019218D01*
X006245Y019218D01*
X006245Y018928D01*
X006144Y019073D02*
X006144Y019170D01*
X006095Y019218D01*
X005950Y019218D01*
X005950Y018928D01*
X005950Y019025D02*
X006095Y019025D01*
X006144Y019073D01*
X006540Y019073D02*
X006685Y019073D01*
X006733Y019025D01*
X006733Y018976D01*
X006685Y018928D01*
X006588Y018928D01*
X006540Y018976D01*
X006540Y019073D01*
X006636Y019170D01*
X006733Y019218D01*
X006685Y019678D02*
X006588Y019678D01*
X006540Y019726D01*
X006540Y019823D02*
X006636Y019871D01*
X006685Y019871D01*
X006733Y019823D01*
X006733Y019726D01*
X006685Y019678D01*
X006540Y019823D02*
X006540Y019968D01*
X006733Y019968D01*
X006438Y019920D02*
X006390Y019968D01*
X006293Y019968D01*
X006245Y019920D01*
X006245Y019726D01*
X006293Y019678D01*
X006390Y019678D01*
X006438Y019726D01*
X006144Y019823D02*
X006095Y019775D01*
X005950Y019775D01*
X005950Y019678D02*
X005950Y019968D01*
X006095Y019968D01*
X006144Y019920D01*
X006144Y019823D01*
X006293Y020428D02*
X006390Y020428D01*
X006438Y020476D01*
X006540Y020573D02*
X006733Y020573D01*
X006685Y020428D02*
X006685Y020718D01*
X006540Y020573D01*
X006438Y020670D02*
X006390Y020718D01*
X006293Y020718D01*
X006245Y020670D01*
X006245Y020476D01*
X006293Y020428D01*
X006144Y020573D02*
X006095Y020525D01*
X005950Y020525D01*
X005950Y020428D02*
X005950Y020718D01*
X006095Y020718D01*
X006144Y020670D01*
X006144Y020573D01*
X012135Y017563D02*
X013535Y017563D01*
X013522Y017468D02*
X013329Y017468D01*
X013426Y017468D02*
X013426Y017178D01*
X013228Y017178D02*
X013034Y017178D01*
X013034Y017468D01*
X013228Y017468D01*
X013131Y017323D02*
X013034Y017323D01*
X012933Y017275D02*
X012933Y017226D01*
X012885Y017178D01*
X012788Y017178D01*
X012740Y017226D01*
X012788Y017323D02*
X012885Y017323D01*
X012933Y017275D01*
X012933Y017420D02*
X012885Y017468D01*
X012788Y017468D01*
X012740Y017420D01*
X012740Y017371D01*
X012788Y017323D01*
X012638Y017178D02*
X012445Y017178D01*
X012445Y017468D01*
X012638Y017468D01*
X012542Y017323D02*
X012445Y017323D01*
X012344Y017323D02*
X012295Y017275D01*
X012150Y017275D01*
X012150Y017178D02*
X012150Y017468D01*
X012295Y017468D01*
X012344Y017420D01*
X012344Y017323D01*
X012247Y017275D02*
X012344Y017178D01*
X012700Y016868D02*
X012845Y016868D01*
X012894Y016820D01*
X012894Y016723D01*
X012845Y016675D01*
X012700Y016675D01*
X012700Y016578D02*
X012700Y016868D01*
X012995Y016868D02*
X013140Y016868D01*
X013188Y016820D01*
X013188Y016771D01*
X013140Y016723D01*
X012995Y016723D01*
X012995Y016578D02*
X013140Y016578D01*
X013188Y016626D01*
X013188Y016675D01*
X013140Y016723D01*
X013290Y016771D02*
X013386Y016868D01*
X013386Y016578D01*
X013290Y016578D02*
X013483Y016578D01*
X012995Y016578D02*
X012995Y016868D01*
X012995Y016068D02*
X013140Y016068D01*
X013188Y016020D01*
X013188Y015971D01*
X013140Y015923D01*
X012995Y015923D01*
X012894Y015923D02*
X012845Y015875D01*
X012700Y015875D01*
X012700Y015778D02*
X012700Y016068D01*
X012845Y016068D01*
X012894Y016020D01*
X012894Y015923D01*
X012995Y015778D02*
X012995Y016068D01*
X013140Y015923D02*
X013188Y015875D01*
X013188Y015826D01*
X013140Y015778D01*
X012995Y015778D01*
X013290Y015826D02*
X013290Y016020D01*
X013338Y016068D01*
X013435Y016068D01*
X013483Y016020D01*
X013290Y015826D01*
X013338Y015778D01*
X013435Y015778D01*
X013483Y015826D01*
X013483Y016020D01*
X013483Y015268D02*
X013290Y015268D01*
X013188Y015220D02*
X013140Y015268D01*
X012995Y015268D01*
X012995Y014978D01*
X013140Y014978D01*
X013188Y015026D01*
X013188Y015220D01*
X013290Y015026D02*
X013290Y014978D01*
X013290Y015026D02*
X013483Y015220D01*
X013483Y015268D01*
X012894Y015220D02*
X012894Y015123D01*
X012845Y015075D01*
X012700Y015075D01*
X012700Y014978D02*
X012700Y015268D01*
X012845Y015268D01*
X012894Y015220D01*
X012845Y014468D02*
X012700Y014468D01*
X012700Y014178D01*
X012845Y014178D01*
X012894Y014226D01*
X012894Y014420D01*
X012845Y014468D01*
X012995Y014468D02*
X013188Y014468D01*
X013092Y014468D02*
X013092Y014178D01*
X013290Y014178D02*
X013290Y014468D01*
X013435Y014468D01*
X013483Y014420D01*
X013483Y014323D01*
X013435Y014275D01*
X013290Y014275D01*
X013386Y014275D02*
X013483Y014178D01*
X013435Y013718D02*
X013290Y013718D01*
X013290Y013428D01*
X013435Y013428D01*
X013483Y013476D01*
X013483Y013670D01*
X013435Y013718D01*
X013188Y013718D02*
X013188Y013428D01*
X012995Y013718D01*
X012995Y013428D01*
X012894Y013476D02*
X012894Y013573D01*
X012797Y013573D01*
X012700Y013670D02*
X012700Y013476D01*
X012749Y013428D01*
X012845Y013428D01*
X012894Y013476D01*
X012894Y013670D02*
X012845Y013718D01*
X012749Y013718D01*
X012700Y013670D01*
X012700Y018078D02*
X012700Y018368D01*
X012845Y018368D01*
X012894Y018320D01*
X012894Y018223D01*
X012845Y018175D01*
X012700Y018175D01*
X012995Y018078D02*
X013140Y018078D01*
X013188Y018126D01*
X013188Y018320D01*
X013140Y018368D01*
X012995Y018368D01*
X012995Y018078D01*
X013290Y018223D02*
X013483Y018223D01*
X013435Y018078D02*
X013435Y018368D01*
X013290Y018223D01*
X013245Y018928D02*
X013438Y019218D01*
X013245Y019218D02*
X013438Y018928D01*
X013144Y018928D02*
X013047Y019025D01*
X013095Y019025D02*
X012950Y019025D01*
X012950Y018928D02*
X012950Y019218D01*
X013095Y019218D01*
X013144Y019170D01*
X013144Y019073D01*
X013095Y019025D01*
X013047Y019628D02*
X013047Y019918D01*
X012950Y019918D02*
X013144Y019918D01*
X013245Y019918D02*
X013438Y019628D01*
X013245Y019628D02*
X013438Y019918D01*
X013435Y020478D02*
X013338Y020478D01*
X013290Y020526D01*
X013188Y020575D02*
X013188Y020768D01*
X013290Y020720D02*
X013338Y020768D01*
X013435Y020768D01*
X013483Y020720D01*
X013483Y020671D01*
X013435Y020623D01*
X013483Y020575D01*
X013483Y020526D01*
X013435Y020478D01*
X013435Y020623D02*
X013386Y020623D01*
X013188Y020575D02*
X013092Y020478D01*
X012995Y020575D01*
X012995Y020768D01*
X012894Y020720D02*
X012894Y020671D01*
X012845Y020623D01*
X012894Y020575D01*
X012894Y020526D01*
X012845Y020478D01*
X012749Y020478D01*
X012700Y020526D01*
X012797Y020623D02*
X012845Y020623D01*
X012894Y020720D02*
X012845Y020768D01*
X012749Y020768D01*
X012700Y020720D01*
D11*
X008155Y012329D02*
X007885Y012329D01*
X007835Y012009D01*
X007820Y011986D02*
X008155Y011986D01*
X008155Y011979D02*
X008455Y011879D01*
X008705Y012029D01*
X008855Y011929D01*
X008705Y011629D01*
X008805Y011379D01*
X009105Y011329D01*
X009105Y011079D01*
X008805Y011079D01*
X008705Y010729D01*
X008855Y010529D01*
X008705Y010379D01*
X008505Y010529D01*
X008405Y010479D01*
X008205Y010879D01*
X008405Y011079D01*
X008405Y011329D01*
X008255Y011579D01*
X008005Y011629D01*
X007705Y011529D01*
X007755Y011529D01*
X007605Y011279D01*
X007705Y010979D01*
X007805Y010879D01*
X007655Y010479D01*
X007555Y010529D01*
X007355Y010379D01*
X007205Y010529D01*
X007355Y010779D01*
X007255Y011029D01*
X006955Y011129D01*
X006955Y011079D01*
X006955Y011329D01*
X007255Y011379D01*
X007355Y011679D01*
X007155Y011879D01*
X007305Y012029D01*
X007605Y011879D01*
X007905Y012029D01*
X007855Y012029D01*
X007905Y012279D01*
X008155Y012279D01*
X008155Y011979D01*
X008205Y012009D02*
X008155Y012329D01*
X008155Y012220D02*
X007893Y012220D01*
X007881Y012162D02*
X008155Y012162D01*
X008155Y012103D02*
X007870Y012103D01*
X007858Y012045D02*
X008155Y012045D01*
X008307Y011928D02*
X007703Y011928D01*
X007585Y011909D02*
X007325Y012089D01*
X007135Y011909D01*
X007315Y011649D01*
X007340Y011635D02*
X008708Y011635D01*
X008725Y011649D02*
X008905Y011909D01*
X008715Y012089D01*
X008455Y011909D01*
X008536Y011928D02*
X008854Y011928D01*
X008825Y011869D02*
X007164Y011869D01*
X007204Y011928D02*
X007507Y011928D01*
X007390Y011986D02*
X007262Y011986D01*
X007223Y011811D02*
X008796Y011811D01*
X008766Y011752D02*
X007281Y011752D01*
X007340Y011694D02*
X008737Y011694D01*
X008725Y011577D02*
X008256Y011577D01*
X008291Y011518D02*
X008749Y011518D01*
X008772Y011460D02*
X008326Y011460D01*
X008361Y011401D02*
X008796Y011401D01*
X008835Y011399D02*
X009135Y011339D01*
X009135Y011079D01*
X008835Y011029D01*
X008796Y011050D02*
X008376Y011050D01*
X008405Y011109D02*
X009105Y011109D01*
X009105Y011167D02*
X008405Y011167D01*
X008405Y011226D02*
X009105Y011226D01*
X009105Y011284D02*
X008405Y011284D01*
X008396Y011343D02*
X009020Y011343D01*
X008780Y010992D02*
X008318Y010992D01*
X008259Y010933D02*
X008763Y010933D01*
X008746Y010875D02*
X008207Y010875D01*
X008185Y010889D02*
X008375Y010439D01*
X008475Y010499D01*
X008715Y010329D01*
X008905Y010519D01*
X008735Y010759D01*
X008713Y010758D02*
X008265Y010758D01*
X008236Y010816D02*
X008730Y010816D01*
X008727Y010699D02*
X008294Y010699D01*
X008324Y010641D02*
X008771Y010641D01*
X008814Y010582D02*
X008353Y010582D01*
X008382Y010524D02*
X008495Y010524D01*
X008511Y010524D02*
X008850Y010524D01*
X008791Y010465D02*
X008589Y010465D01*
X008667Y010407D02*
X008733Y010407D01*
X008625Y009763D02*
X009052Y009763D01*
X009914Y009443D02*
X010341Y010084D01*
X010559Y010084D02*
X010879Y010084D01*
X010986Y009977D01*
X010986Y009870D01*
X010879Y009763D01*
X010559Y009763D01*
X010559Y009443D02*
X010559Y010084D01*
X010879Y009763D02*
X010986Y009657D01*
X010986Y009550D01*
X010879Y009443D01*
X010559Y009443D01*
X010341Y009443D02*
X009914Y010084D01*
X011203Y009763D02*
X011203Y009550D01*
X011310Y009443D01*
X011524Y009443D01*
X011630Y009657D02*
X011203Y009657D01*
X011203Y009763D02*
X011310Y009870D01*
X011524Y009870D01*
X011630Y009763D01*
X011630Y009657D01*
X011848Y009657D02*
X012275Y009657D01*
X012275Y009763D01*
X012168Y009870D01*
X011955Y009870D01*
X011848Y009763D01*
X011848Y009550D01*
X011955Y009443D01*
X012168Y009443D01*
X013137Y009550D02*
X013137Y009977D01*
X013244Y010084D01*
X013457Y010084D01*
X013564Y009977D01*
X013888Y009870D02*
X014102Y009870D01*
X014209Y009763D01*
X014209Y009443D01*
X013888Y009443D01*
X013782Y009550D01*
X013888Y009657D01*
X014209Y009657D01*
X014426Y009657D02*
X014640Y009870D01*
X014746Y009870D01*
X014963Y009870D02*
X014963Y009443D01*
X014963Y009657D02*
X015177Y009870D01*
X015284Y009870D01*
X015500Y009870D02*
X015607Y009870D01*
X015607Y009443D01*
X015500Y009443D02*
X015714Y009443D01*
X015930Y009550D02*
X015930Y009763D01*
X016037Y009870D01*
X016250Y009870D01*
X016357Y009763D01*
X016357Y009657D01*
X015930Y009657D01*
X015930Y009550D02*
X016037Y009443D01*
X016250Y009443D01*
X016575Y009443D02*
X016575Y009870D01*
X016575Y009657D02*
X016788Y009870D01*
X016895Y009870D01*
X015607Y010084D02*
X015607Y010190D01*
X014426Y009870D02*
X014426Y009443D01*
X013564Y009550D02*
X013457Y009443D01*
X013244Y009443D01*
X013137Y009550D01*
X008768Y011986D02*
X008634Y011986D01*
X007849Y011577D02*
X007321Y011577D01*
X007301Y011518D02*
X007748Y011518D01*
X007713Y011460D02*
X007282Y011460D01*
X007262Y011401D02*
X007678Y011401D01*
X007643Y011343D02*
X007039Y011343D01*
X006955Y011284D02*
X007608Y011284D01*
X007622Y011226D02*
X006955Y011226D01*
X006955Y011167D02*
X007642Y011167D01*
X007661Y011109D02*
X007014Y011109D01*
X006905Y011079D02*
X007205Y011029D01*
X007190Y011050D02*
X007681Y011050D01*
X007700Y010992D02*
X007269Y010992D01*
X007293Y010933D02*
X007750Y010933D01*
X007803Y010875D02*
X007316Y010875D01*
X007340Y010816D02*
X007781Y010816D01*
X007759Y010758D02*
X007342Y010758D01*
X007305Y010759D02*
X007145Y010519D01*
X007325Y010329D01*
X007565Y010499D01*
X007665Y010439D01*
X007865Y010889D01*
X007737Y010699D02*
X007307Y010699D01*
X007272Y010641D02*
X007715Y010641D01*
X007693Y010582D02*
X007237Y010582D01*
X007210Y010524D02*
X007548Y010524D01*
X007565Y010524D02*
X007672Y010524D01*
X007470Y010465D02*
X007268Y010465D01*
X007327Y010407D02*
X007392Y010407D01*
X007443Y009870D02*
X007656Y009870D01*
X007763Y009763D01*
X007763Y009657D01*
X007336Y009657D01*
X007336Y009763D02*
X007336Y009550D01*
X007443Y009443D01*
X007656Y009443D01*
X007336Y009763D02*
X007443Y009870D01*
X007119Y009870D02*
X006905Y009443D01*
X006692Y009870D01*
X006474Y009763D02*
X006367Y009870D01*
X006154Y009870D01*
X006047Y009763D01*
X006047Y009550D01*
X006154Y009443D01*
X006367Y009443D01*
X006474Y009550D01*
X006474Y009763D01*
X005830Y009870D02*
X005723Y009870D01*
X005510Y009657D01*
X005510Y009870D02*
X005510Y009443D01*
X005292Y009550D02*
X005292Y009763D01*
X005079Y009763D01*
X005292Y009550D02*
X005186Y009443D01*
X004972Y009443D01*
X004865Y009550D01*
X004865Y009977D01*
X004972Y010084D01*
X005186Y010084D01*
X005292Y009977D01*
X006905Y011079D02*
X006905Y011339D01*
X007205Y011399D01*
X007588Y011912D02*
X007633Y011937D01*
X007680Y011960D01*
X007728Y011979D01*
X007777Y011996D01*
X007827Y012009D01*
X007865Y010899D02*
X007832Y010917D01*
X007802Y010938D01*
X007773Y010962D01*
X007747Y010989D01*
X007725Y011018D01*
X007705Y011050D01*
X007688Y011083D01*
X007675Y011118D01*
X007666Y011154D01*
X007660Y011191D01*
X007658Y011228D01*
X007660Y011265D01*
X007665Y011302D01*
X007675Y011338D01*
X007687Y011373D01*
X007704Y011407D01*
X007723Y011438D01*
X007746Y011468D01*
X007772Y011495D01*
X007800Y011519D01*
X007831Y011540D01*
X007863Y011558D01*
X007897Y011573D01*
X007933Y011584D01*
X007969Y011592D01*
X008006Y011596D01*
X008044Y011596D01*
X008081Y011592D01*
X008117Y011584D01*
X008153Y011573D01*
X008187Y011558D01*
X008219Y011540D01*
X008250Y011519D01*
X008278Y011495D01*
X008304Y011468D01*
X008327Y011438D01*
X008346Y011407D01*
X008363Y011373D01*
X008375Y011338D01*
X008385Y011302D01*
X008390Y011265D01*
X008392Y011228D01*
X008390Y011191D01*
X008384Y011154D01*
X008375Y011118D01*
X008362Y011083D01*
X008345Y011050D01*
X008325Y011018D01*
X008303Y010989D01*
X008277Y010962D01*
X008248Y010938D01*
X008218Y010917D01*
X008185Y010899D01*
X008735Y010759D02*
X008758Y010800D01*
X008779Y010843D01*
X008797Y010888D01*
X008812Y010933D01*
X008825Y010979D01*
X008835Y011026D01*
X008833Y011399D02*
X008818Y011451D01*
X008799Y011502D01*
X008777Y011552D01*
X008752Y011600D01*
X008723Y011647D01*
X008459Y011910D02*
X008412Y011937D01*
X008363Y011960D01*
X008313Y011980D01*
X008262Y011997D01*
X008210Y012011D01*
X007315Y011644D02*
X007288Y011597D01*
X007264Y011550D01*
X007243Y011501D01*
X007225Y011450D01*
X007211Y011399D01*
X007205Y011028D02*
X007218Y010972D01*
X007235Y010917D01*
X007256Y010864D01*
X007280Y010812D01*
X007308Y010762D01*
D12*
X005009Y007710D02*
X004932Y007633D01*
X004855Y007710D01*
X004855Y007940D01*
X005009Y007710D02*
X005086Y007633D01*
X005162Y007710D01*
X005162Y007940D01*
X005316Y007940D02*
X005316Y007710D01*
X005392Y007633D01*
X005469Y007710D01*
X005546Y007633D01*
X005623Y007710D01*
X005623Y007940D01*
X005776Y007940D02*
X005776Y007710D01*
X005853Y007633D01*
X005930Y007710D01*
X006006Y007633D01*
X006083Y007710D01*
X006083Y007940D01*
X006237Y007710D02*
X006313Y007710D01*
X006313Y007633D01*
X006237Y007633D01*
X006237Y007710D01*
X006467Y007710D02*
X006543Y007633D01*
X006774Y007633D01*
X006774Y008093D01*
X006774Y007940D02*
X006543Y007940D01*
X006467Y007863D01*
X006467Y007710D01*
X006927Y007710D02*
X006927Y007940D01*
X006927Y007710D02*
X007004Y007633D01*
X007234Y007633D01*
X007234Y007940D01*
X007387Y007940D02*
X007464Y007940D01*
X007464Y007633D01*
X007387Y007633D02*
X007541Y007633D01*
X007694Y007633D02*
X007694Y007940D01*
X007925Y007940D01*
X008001Y007863D01*
X008001Y007633D01*
X008155Y007710D02*
X008232Y007633D01*
X008385Y007633D01*
X008462Y007710D01*
X008462Y007863D01*
X008385Y007940D01*
X008232Y007940D01*
X008155Y007863D01*
X008155Y007710D01*
X008615Y007863D02*
X008769Y007863D01*
X008922Y007940D02*
X008922Y007710D01*
X008999Y007633D01*
X009229Y007633D01*
X009229Y007940D01*
X009383Y007940D02*
X009613Y007940D01*
X009689Y007863D01*
X009689Y007633D01*
X009843Y007633D02*
X009920Y007633D01*
X009920Y007710D01*
X009843Y007710D01*
X009843Y007633D01*
X010073Y007710D02*
X010150Y007633D01*
X010380Y007633D01*
X010533Y007710D02*
X010610Y007633D01*
X010764Y007633D01*
X010840Y007710D01*
X010840Y007863D01*
X010764Y007940D01*
X010610Y007940D01*
X010533Y007863D01*
X010533Y007710D01*
X010380Y007940D02*
X010150Y007940D01*
X010073Y007863D01*
X010073Y007710D01*
X009383Y007633D02*
X009383Y007940D01*
X009557Y008533D02*
X009557Y008610D01*
X009864Y008917D01*
X009864Y008993D01*
X009557Y008993D01*
X009404Y008993D02*
X009097Y008533D01*
X008943Y008533D02*
X008637Y008533D01*
X008943Y008840D01*
X008943Y008917D01*
X008867Y008993D01*
X008713Y008993D01*
X008637Y008917D01*
X008330Y008993D02*
X008330Y008533D01*
X008483Y008533D02*
X008176Y008533D01*
X008023Y008610D02*
X008023Y008917D01*
X007716Y008610D01*
X007792Y008533D01*
X007946Y008533D01*
X008023Y008610D01*
X008176Y008840D02*
X008330Y008993D01*
X008023Y008917D02*
X007946Y008993D01*
X007792Y008993D01*
X007716Y008917D01*
X007716Y008610D01*
X007562Y008533D02*
X007255Y008533D01*
X007562Y008840D01*
X007562Y008917D01*
X007486Y008993D01*
X007332Y008993D01*
X007255Y008917D01*
X007464Y008170D02*
X007464Y008093D01*
X006313Y008610D02*
X006237Y008533D01*
X006083Y008533D01*
X006006Y008610D01*
X006313Y008917D01*
X006313Y008610D01*
X006313Y008917D02*
X006237Y008993D01*
X006083Y008993D01*
X006006Y008917D01*
X006006Y008610D01*
X005853Y008610D02*
X005853Y008533D01*
X005776Y008533D01*
X005776Y008610D01*
X005853Y008610D01*
X005623Y008533D02*
X005316Y008533D01*
X005469Y008533D02*
X005469Y008993D01*
X005316Y008840D01*
X005162Y008686D02*
X005162Y008993D01*
X005162Y008686D02*
X005009Y008533D01*
X004855Y008686D01*
X004855Y008993D01*
X008692Y008017D02*
X008692Y007633D01*
X008692Y008017D02*
X008769Y008093D01*
X010018Y008533D02*
X010325Y008993D01*
X010478Y008917D02*
X010555Y008993D01*
X010708Y008993D01*
X010785Y008917D01*
X010785Y008840D01*
X010478Y008533D01*
X010785Y008533D01*
X010938Y008533D02*
X011245Y008840D01*
X011245Y008917D01*
X011169Y008993D01*
X011015Y008993D01*
X010938Y008917D01*
X010938Y008533D02*
X011245Y008533D01*
X011224Y007940D02*
X011301Y007863D01*
X011301Y007633D01*
X011147Y007633D02*
X011147Y007863D01*
X011224Y007940D01*
X011147Y007863D02*
X011071Y007940D01*
X010994Y007940D01*
X010994Y007633D01*
D13*
X013652Y013111D02*
X013652Y020985D01*
X014440Y020985D01*
X014440Y013111D01*
X013652Y013111D01*
X005778Y013111D02*
X004991Y013111D01*
X004991Y020985D01*
X005778Y020985D01*
X005778Y013111D01*
M02*
