%
M48
M72
T01C0.0200
T02C0.0236
T03C0.0320
T04C0.0420
T05C0.0551
%
T01
X7063Y11088
X13100Y8875
X13725Y7238
T02
X12100Y10775
T03
X7063Y8588
X3763Y12088
X2363Y12088
X2563Y14088
X4863Y16088
X6263Y16088
X5563Y14088
X3063Y8588
T04
X8063Y8588
X8063Y10088
X9813Y1088
X11313Y1088
T05
X3275Y5488
X3500Y15150
X16475Y3663
X16813Y15988
M30
