G75*
G70*
%OFA0B0*%
%FSLAX24Y24*%
%IPPOS*%
%LPD*%
%AMOC8*
5,1,8,0,0,1.08239X$1,22.5*
%
%ADD10OC8,0.0710*%
%ADD11C,0.0710*%
%ADD12OC8,0.0740*%
%ADD13R,0.0415X0.0749*%
%ADD14C,0.0420*%
%ADD15C,0.0907*%
%ADD16C,0.0456*%
D10*
X003763Y012088D03*
X006263Y016088D03*
D11*
X004863Y016088D03*
X002363Y012088D03*
X008063Y010088D03*
X008063Y008588D03*
X009813Y001088D03*
X011313Y001088D03*
D12*
X007063Y008588D03*
X003063Y008588D03*
X002563Y014088D03*
X005563Y014088D03*
D13*
X009750Y014959D03*
X010537Y013778D03*
X011325Y014959D03*
X012112Y013778D03*
X012900Y014959D03*
X013687Y013778D03*
X014474Y014959D03*
X015262Y013778D03*
X016049Y014959D03*
X016837Y013778D03*
X016049Y006297D03*
X015262Y005116D03*
X014474Y006297D03*
X013687Y005116D03*
X012900Y006297D03*
X012112Y005116D03*
X011325Y006297D03*
X010537Y005116D03*
X009750Y006297D03*
X016837Y005116D03*
D14*
X013725Y007238D03*
X013100Y008875D03*
X007063Y011088D03*
D15*
X003275Y005488D03*
X003500Y015150D03*
X016475Y003663D03*
X016813Y015988D03*
D16*
X012100Y010775D03*
M02*
