G75*
G70*
%OFA0B0*%
%FSLAX24Y24*%
%IPPOS*%
%LPD*%
%AMOC8*
5,1,8,0,0,1.08239X$1,22.5*
%
%ADD10C,0.0100*%
%ADD11R,0.0433X0.0394*%
%ADD12OC8,0.0630*%
%ADD13C,0.0630*%
%ADD14R,0.0500X0.0579*%
%ADD15OC8,0.0660*%
%ADD16R,0.0800X0.0460*%
%ADD17R,0.0800X0.0600*%
%ADD18R,0.0394X0.0433*%
%ADD19R,0.0472X0.0315*%
%ADD20R,0.0579X0.0500*%
%ADD21R,0.0472X0.0984*%
%ADD22R,0.0709X0.1260*%
%ADD23R,0.0598X0.0701*%
%ADD24R,0.0315X0.0315*%
%ADD25R,0.0630X0.0787*%
%ADD26R,0.1063X0.0630*%
%ADD27R,0.1516X0.2165*%
%ADD28R,0.2126X0.2441*%
%ADD29R,0.0394X0.0630*%
%ADD30C,0.1000*%
%ADD31C,0.0500*%
%ADD32C,0.0060*%
%ADD33C,0.0700*%
%ADD34C,0.0340*%
%ADD35C,0.0827*%
%ADD36C,0.0160*%
%ADD37C,0.0376*%
%ADD38C,0.0660*%
D10*
X003820Y003755D02*
X004083Y003508D01*
X004055Y003576D01*
X004055Y003819D01*
X004148Y004043D01*
X004319Y004215D01*
X004544Y004308D01*
X004786Y004308D01*
X005010Y004215D01*
X005292Y003933D01*
X005339Y003820D01*
X005368Y003791D01*
X005368Y003791D01*
X006712Y002447D01*
X007134Y002447D01*
X007266Y002393D01*
X007712Y001947D01*
X008634Y001947D01*
X008766Y001893D01*
X008868Y001791D01*
X009212Y001447D01*
X009571Y001447D01*
X009572Y001448D01*
X009728Y001512D01*
X009897Y001512D01*
X010053Y001448D01*
X010173Y001328D01*
X010237Y001172D01*
X010237Y001003D01*
X010177Y000856D01*
X010948Y000856D01*
X010888Y001003D01*
X010888Y001172D01*
X010911Y001230D01*
X009924Y002216D01*
X009924Y001912D01*
X009860Y001848D01*
X009060Y001848D01*
X008996Y001912D01*
X008996Y003114D01*
X008704Y002822D01*
X008704Y002676D01*
X008640Y002611D01*
X007485Y002611D01*
X007421Y002676D01*
X007421Y003397D01*
X007485Y003461D01*
X008325Y003461D01*
X008577Y003714D01*
X007485Y003714D01*
X007421Y003778D01*
X007421Y004499D01*
X007485Y004564D01*
X007978Y004564D01*
X008374Y004959D01*
X008374Y005142D01*
X008325Y005192D01*
X008325Y005983D01*
X008389Y006048D01*
X009079Y006048D01*
X009143Y005983D01*
X009143Y005192D01*
X009094Y005142D01*
X009094Y004827D01*
X009100Y004827D01*
X009100Y005057D01*
X009155Y005189D01*
X009203Y005237D01*
X009203Y007938D01*
X008913Y008228D01*
X008565Y008228D01*
X008408Y008070D01*
X008184Y007978D01*
X007315Y007978D01*
X006735Y007398D01*
X006735Y005306D01*
X006671Y005241D01*
X004454Y005241D01*
X004390Y005306D01*
X004390Y007838D01*
X004454Y007902D01*
X005515Y007902D01*
X006717Y009105D01*
X006941Y009197D01*
X008184Y009197D01*
X008408Y009105D01*
X008565Y008947D01*
X009134Y008947D01*
X009235Y008906D01*
X008413Y009728D01*
X008304Y009728D01*
X008303Y009727D01*
X008147Y009663D01*
X007978Y009663D01*
X007822Y009727D01*
X007821Y009728D01*
X006744Y009728D01*
X006705Y009688D01*
X006113Y009688D01*
X006049Y009753D01*
X006049Y010422D01*
X006113Y010487D01*
X006705Y010487D01*
X006744Y010447D01*
X007821Y010447D01*
X007822Y010448D01*
X007978Y010512D01*
X008147Y010512D01*
X008303Y010448D01*
X008304Y010447D01*
X008634Y010447D01*
X008693Y010423D01*
X008435Y010681D01*
X008135Y010681D01*
X008084Y010732D01*
X008064Y010699D01*
X008036Y010671D01*
X008002Y010651D01*
X007964Y010641D01*
X007776Y010641D01*
X007776Y010939D01*
X007679Y010939D01*
X007361Y010939D01*
X007361Y010771D01*
X007372Y010733D01*
X007391Y010699D01*
X007419Y010671D01*
X007453Y010651D01*
X007492Y010641D01*
X007679Y010641D01*
X007679Y010939D01*
X007679Y011036D01*
X007361Y011036D01*
X007361Y011204D01*
X007372Y011242D01*
X007391Y011276D01*
X007419Y011304D01*
X007453Y011324D01*
X002462Y011324D01*
X002560Y011423D02*
X008237Y011423D01*
X008237Y011485D02*
X008237Y011294D01*
X008135Y011294D01*
X008084Y011243D01*
X008064Y011276D01*
X008036Y011304D01*
X008002Y011324D01*
X007964Y011334D01*
X007776Y011334D01*
X007776Y011036D01*
X007679Y011036D01*
X007679Y011334D01*
X007492Y011334D01*
X007453Y011324D01*
X007367Y011226D02*
X002363Y011226D01*
X002326Y011188D02*
X002708Y011570D01*
X002880Y011742D01*
X002972Y011966D01*
X002972Y013635D01*
X003080Y013742D01*
X003172Y013966D01*
X003172Y014209D01*
X003080Y014433D01*
X002908Y014605D01*
X002684Y014697D01*
X002554Y014697D01*
X003079Y015525D01*
X003820Y016420D01*
X004666Y017215D01*
X005254Y017642D01*
X004345Y016733D01*
X004253Y016509D01*
X004253Y016266D01*
X004264Y016237D01*
X004253Y016209D01*
X004253Y015966D01*
X004345Y015742D01*
X004453Y015635D01*
X004453Y014966D01*
X004545Y014742D01*
X004717Y014570D01*
X004953Y014335D01*
X004953Y013966D01*
X005045Y013742D01*
X005217Y013570D01*
X005441Y013478D01*
X005684Y013478D01*
X005908Y013570D01*
X006080Y013742D01*
X006172Y013966D01*
X006172Y014709D01*
X006080Y014933D01*
X005672Y015340D01*
X005672Y016009D01*
X005580Y016233D01*
X005575Y016237D01*
X006315Y016978D01*
X007091Y016978D01*
X007316Y017070D01*
X008380Y018134D01*
X008472Y018359D01*
X008472Y018601D01*
X008380Y018826D01*
X008208Y018997D01*
X008183Y019008D01*
X008829Y019174D01*
X009982Y019319D01*
X011143Y019319D01*
X012296Y019174D01*
X013421Y018885D01*
X014501Y018457D01*
X014798Y018294D01*
X014228Y018294D01*
X014163Y018230D01*
X014163Y018094D01*
X013697Y018094D01*
X013604Y018001D01*
X013281Y018001D01*
X013216Y017936D01*
X013216Y017530D01*
X013281Y017466D01*
X013403Y017466D01*
X013403Y017209D01*
X013281Y017209D01*
X013216Y017145D01*
X013216Y016806D01*
X012940Y017082D01*
X012869Y017082D01*
X012869Y017184D01*
X012805Y017249D01*
X012722Y017249D01*
X012722Y017466D01*
X012844Y017466D01*
X012909Y017530D01*
X012909Y017936D01*
X012844Y018001D01*
X012281Y018001D01*
X012216Y017936D01*
X012216Y017530D01*
X012281Y017466D01*
X012403Y017466D01*
X012403Y017249D01*
X012320Y017249D01*
X012256Y017184D01*
X012256Y016660D01*
X012320Y016596D01*
X012805Y016596D01*
X012869Y016660D01*
X012869Y016700D01*
X013216Y016353D01*
X013216Y016113D01*
X013003Y015899D01*
X013003Y015780D01*
X011856Y015780D01*
X011780Y015966D01*
X011608Y016137D01*
X011607Y016138D01*
X011708Y016138D01*
X011772Y016202D01*
X011772Y016893D01*
X011708Y016957D01*
X010817Y016957D01*
X010753Y016893D01*
X010753Y016202D01*
X010817Y016138D01*
X010918Y016138D01*
X010917Y016137D01*
X009851Y015071D01*
X009161Y015071D01*
X008937Y014978D01*
X008766Y014807D01*
X007892Y013933D01*
X007799Y013709D01*
X007799Y013466D01*
X007892Y013242D01*
X008063Y013070D01*
X008288Y012978D01*
X008530Y012978D01*
X008754Y013070D01*
X009494Y013810D01*
X009494Y013280D01*
X009300Y013280D01*
X009236Y013216D01*
X009236Y010959D01*
X009300Y010895D01*
X010907Y010895D01*
X010972Y010959D01*
X010972Y013216D01*
X010907Y013280D01*
X010714Y013280D01*
X010714Y014209D01*
X011780Y015274D01*
X011856Y015460D01*
X013161Y015460D01*
X013229Y015528D01*
X013322Y015621D01*
X013322Y015767D01*
X013521Y015966D01*
X013844Y015966D01*
X013909Y016030D01*
X013909Y016436D01*
X013844Y016501D01*
X013521Y016501D01*
X013348Y016674D01*
X013844Y016674D01*
X013909Y016739D01*
X013909Y017145D01*
X013844Y017209D01*
X013722Y017209D01*
X013722Y017466D01*
X013844Y017466D01*
X013909Y017530D01*
X013909Y017774D01*
X014163Y017774D01*
X014163Y017638D01*
X014228Y017574D01*
X014897Y017574D01*
X014962Y017638D01*
X014962Y018204D01*
X015519Y017898D01*
X016459Y017215D01*
X017305Y016420D01*
X018046Y015525D01*
X018668Y014544D01*
X018812Y014239D01*
X018670Y014297D01*
X016341Y014297D01*
X016117Y014205D01*
X015945Y014033D01*
X015172Y013260D01*
X015172Y016362D01*
X015080Y016587D01*
X014908Y016758D01*
X014684Y016851D01*
X014441Y016851D01*
X014217Y016758D01*
X014045Y016587D01*
X013953Y016362D01*
X013953Y013280D01*
X013218Y013280D01*
X013153Y013216D01*
X013153Y011937D01*
X012351Y011135D01*
X012028Y011135D01*
X011896Y011080D01*
X011795Y010979D01*
X011740Y010847D01*
X011740Y010703D01*
X011795Y010571D01*
X011896Y010470D01*
X012028Y010415D01*
X012572Y010415D01*
X012704Y010470D01*
X013173Y010939D01*
X013218Y010895D01*
X013498Y010895D01*
X013498Y009602D01*
X010051Y009602D01*
X008724Y010930D01*
X009265Y010930D01*
X009236Y011029D02*
X008724Y011029D01*
X008724Y011127D02*
X009236Y011127D01*
X009236Y011226D02*
X008724Y011226D01*
X008724Y011230D02*
X008659Y011294D01*
X008557Y011294D01*
X008557Y011549D01*
X008558Y011550D01*
X008558Y012625D01*
X008494Y012690D01*
X007930Y012690D01*
X007866Y012625D01*
X007866Y011550D01*
X007930Y011485D01*
X008237Y011485D01*
X008237Y011324D02*
X008002Y011324D01*
X007895Y011521D02*
X007279Y011521D01*
X007289Y011537D02*
X007299Y011576D01*
X007299Y012038D01*
X006963Y012038D01*
X006963Y012137D01*
X007299Y012137D01*
X007299Y012599D01*
X007289Y012638D01*
X007269Y012672D01*
X007241Y012700D01*
X007207Y012719D01*
X007169Y012730D01*
X006963Y012730D01*
X006963Y012138D01*
X006863Y012138D01*
X006863Y012730D01*
X006657Y012730D01*
X006619Y012719D01*
X006585Y012700D01*
X006557Y012672D01*
X006537Y012638D01*
X006527Y012599D01*
X006527Y012137D01*
X006863Y012137D01*
X006863Y012038D01*
X006527Y012038D01*
X006527Y011576D01*
X006537Y011537D01*
X006557Y011503D01*
X006585Y011475D01*
X006619Y011456D01*
X006657Y011445D01*
X006863Y011445D01*
X006863Y012037D01*
X006963Y012037D01*
X006963Y011445D01*
X007169Y011445D01*
X007207Y011456D01*
X007241Y011475D01*
X007269Y011503D01*
X007289Y011537D01*
X007299Y011620D02*
X007866Y011620D01*
X007866Y011718D02*
X007299Y011718D01*
X007299Y011817D02*
X007866Y011817D01*
X007866Y011915D02*
X007299Y011915D01*
X007299Y012014D02*
X007866Y012014D01*
X007866Y012112D02*
X006963Y012112D01*
X006913Y012088D02*
X007063Y012088D01*
X007063Y011088D01*
X007163Y010988D01*
X007728Y010988D01*
X007679Y011029D02*
X002326Y011029D01*
X002326Y011127D02*
X007361Y011127D01*
X007361Y010930D02*
X002326Y010930D01*
X002326Y010832D02*
X007361Y010832D01*
X007371Y010733D02*
X002326Y010733D01*
X002326Y010635D02*
X008481Y010635D01*
X008580Y010536D02*
X002326Y010536D01*
X002326Y010438D02*
X004328Y010438D01*
X004326Y010435D02*
X004316Y010397D01*
X004316Y010137D01*
X004666Y010137D01*
X004666Y010038D01*
X004316Y010038D01*
X004316Y009778D01*
X004326Y009740D01*
X004346Y009706D01*
X004374Y009678D01*
X004408Y009658D01*
X004446Y009648D01*
X004666Y009648D01*
X004666Y010037D01*
X004766Y010037D01*
X004766Y009648D01*
X004986Y009648D01*
X005024Y009658D01*
X005058Y009678D01*
X005086Y009706D01*
X005106Y009740D01*
X005116Y009778D01*
X005116Y010038D01*
X004766Y010038D01*
X004766Y010137D01*
X005116Y010137D01*
X005116Y010397D01*
X005106Y010435D01*
X005086Y010469D01*
X005058Y010497D01*
X005024Y010517D01*
X004986Y010527D01*
X004766Y010527D01*
X004766Y010138D01*
X004666Y010138D01*
X004666Y010527D01*
X004446Y010527D01*
X004408Y010517D01*
X004374Y010497D01*
X004346Y010469D01*
X004326Y010435D01*
X004316Y010339D02*
X002326Y010339D01*
X002326Y010241D02*
X004316Y010241D01*
X004316Y010142D02*
X003664Y010142D01*
X003754Y010105D02*
X003530Y010197D01*
X003288Y010197D01*
X003063Y010105D01*
X002545Y009587D01*
X002453Y009362D01*
X002453Y009120D01*
X002453Y008466D01*
X002545Y008242D01*
X002717Y008070D01*
X002941Y007978D01*
X003184Y007978D01*
X003408Y008070D01*
X003580Y008242D01*
X003672Y008466D01*
X003672Y008988D01*
X003926Y009242D01*
X004019Y009466D01*
X004019Y009709D01*
X003926Y009933D01*
X003754Y010105D01*
X003816Y010044D02*
X004666Y010044D01*
X004666Y010142D02*
X004766Y010142D01*
X004766Y010044D02*
X006049Y010044D01*
X006049Y010142D02*
X005116Y010142D01*
X005116Y010241D02*
X006049Y010241D01*
X006049Y010339D02*
X005116Y010339D01*
X005104Y010438D02*
X006064Y010438D01*
X006049Y009945D02*
X005116Y009945D01*
X005116Y009847D02*
X006049Y009847D01*
X006053Y009748D02*
X005108Y009748D01*
X004991Y009650D02*
X008491Y009650D01*
X008590Y009551D02*
X004019Y009551D01*
X004019Y009650D02*
X004441Y009650D01*
X004324Y009748D02*
X004003Y009748D01*
X003962Y009847D02*
X004316Y009847D01*
X004316Y009945D02*
X003914Y009945D01*
X004013Y009453D02*
X008688Y009453D01*
X008787Y009354D02*
X003973Y009354D01*
X003932Y009256D02*
X008885Y009256D01*
X008984Y009157D02*
X008282Y009157D01*
X008454Y009059D02*
X009082Y009059D01*
X009181Y008960D02*
X008553Y008960D01*
X008510Y008172D02*
X008969Y008172D01*
X009067Y008074D02*
X008411Y008074D01*
X008389Y008048D02*
X008325Y007983D01*
X008325Y007947D01*
X007991Y007947D01*
X007859Y007893D01*
X007757Y007791D01*
X007257Y007291D01*
X007203Y007159D01*
X007203Y005737D01*
X006155Y004689D01*
X006100Y004557D01*
X006100Y003626D01*
X006153Y003498D01*
X006153Y003337D01*
X006218Y003273D01*
X006703Y003273D01*
X006767Y003337D01*
X006767Y003498D01*
X006820Y003626D01*
X006820Y004336D01*
X007766Y005282D01*
X007868Y005384D01*
X007922Y005516D01*
X007922Y006938D01*
X008212Y007228D01*
X008325Y007228D01*
X008325Y007192D01*
X008389Y007127D01*
X009079Y007127D01*
X009143Y007192D01*
X009143Y007983D01*
X009079Y008048D01*
X008389Y008048D01*
X008325Y007975D02*
X007313Y007975D01*
X007214Y007877D02*
X007842Y007877D01*
X007744Y007778D02*
X007116Y007778D01*
X007017Y007680D02*
X007645Y007680D01*
X007547Y007581D02*
X006919Y007581D01*
X006820Y007483D02*
X007448Y007483D01*
X007350Y007384D02*
X006735Y007384D01*
X006735Y007286D02*
X007255Y007286D01*
X007214Y007187D02*
X006735Y007187D01*
X006735Y007089D02*
X007203Y007089D01*
X007203Y006990D02*
X006735Y006990D01*
X006735Y006892D02*
X007203Y006892D01*
X007203Y006793D02*
X006735Y006793D01*
X006735Y006695D02*
X007203Y006695D01*
X007203Y006596D02*
X006735Y006596D01*
X006735Y006498D02*
X007203Y006498D01*
X007203Y006399D02*
X006735Y006399D01*
X006735Y006301D02*
X007203Y006301D01*
X007203Y006202D02*
X006735Y006202D01*
X006735Y006104D02*
X007203Y006104D01*
X007203Y006005D02*
X006735Y006005D01*
X006735Y005907D02*
X007203Y005907D01*
X007203Y005808D02*
X006735Y005808D01*
X006735Y005710D02*
X007175Y005710D01*
X007077Y005611D02*
X006735Y005611D01*
X006735Y005513D02*
X006978Y005513D01*
X006880Y005414D02*
X006735Y005414D01*
X006735Y005316D02*
X006781Y005316D01*
X006683Y005217D02*
X002720Y005217D01*
X002782Y005119D02*
X006584Y005119D01*
X006486Y005020D02*
X002845Y005020D01*
X002907Y004922D02*
X006387Y004922D01*
X006289Y004823D02*
X002970Y004823D01*
X003032Y004725D02*
X006190Y004725D01*
X006129Y004626D02*
X003099Y004626D01*
X003079Y004650D02*
X002457Y005631D01*
X001962Y006682D01*
X001603Y007787D01*
X001385Y008928D01*
X001377Y009068D01*
X001595Y008978D01*
X001837Y008978D01*
X002062Y009070D01*
X002233Y009242D01*
X002326Y009466D01*
X002326Y011188D01*
X002659Y011521D02*
X006546Y011521D01*
X006527Y011620D02*
X002757Y011620D01*
X002708Y011570D02*
X002708Y011570D01*
X002856Y011718D02*
X003474Y011718D01*
X003570Y011623D02*
X003732Y011623D01*
X003732Y012057D01*
X003793Y012057D01*
X003793Y012118D01*
X004227Y012118D01*
X004227Y012280D01*
X003955Y012552D01*
X003793Y012552D01*
X003793Y012118D01*
X003732Y012118D01*
X003732Y012552D01*
X003570Y012552D01*
X003298Y012280D01*
X003298Y012118D01*
X003732Y012118D01*
X003732Y012057D01*
X003298Y012057D01*
X003298Y011895D01*
X003570Y011623D01*
X003732Y011718D02*
X003793Y011718D01*
X003793Y011623D02*
X003955Y011623D01*
X004227Y011895D01*
X004227Y012057D01*
X003793Y012057D01*
X003793Y011623D01*
X003793Y011817D02*
X003732Y011817D01*
X003732Y011915D02*
X003793Y011915D01*
X003793Y012014D02*
X003732Y012014D01*
X003732Y012112D02*
X002972Y012112D01*
X002972Y012014D02*
X003298Y012014D01*
X003298Y011915D02*
X002951Y011915D01*
X002911Y011817D02*
X003376Y011817D01*
X003793Y012112D02*
X006863Y012112D01*
X006863Y012014D02*
X006963Y012014D01*
X006963Y011915D02*
X006863Y011915D01*
X006863Y011817D02*
X006963Y011817D01*
X006963Y011718D02*
X006863Y011718D01*
X006863Y011620D02*
X006963Y011620D01*
X006963Y011521D02*
X006863Y011521D01*
X006527Y011718D02*
X004051Y011718D01*
X004149Y011817D02*
X006527Y011817D01*
X006527Y011915D02*
X004227Y011915D01*
X004227Y012014D02*
X006527Y012014D01*
X006527Y012211D02*
X004227Y012211D01*
X004199Y012309D02*
X006527Y012309D01*
X006527Y012408D02*
X004100Y012408D01*
X004002Y012506D02*
X006527Y012506D01*
X006528Y012605D02*
X002972Y012605D01*
X002972Y012703D02*
X006590Y012703D01*
X006863Y012703D02*
X006963Y012703D01*
X006963Y012605D02*
X006863Y012605D01*
X006863Y012506D02*
X006963Y012506D01*
X006963Y012408D02*
X006863Y012408D01*
X006863Y012309D02*
X006963Y012309D01*
X006963Y012211D02*
X006863Y012211D01*
X007299Y012211D02*
X007866Y012211D01*
X007866Y012309D02*
X007299Y012309D01*
X007299Y012408D02*
X007866Y012408D01*
X007866Y012506D02*
X007299Y012506D01*
X007298Y012605D02*
X007866Y012605D01*
X008037Y013097D02*
X002972Y013097D01*
X002972Y012999D02*
X008237Y012999D01*
X008581Y012999D02*
X009236Y012999D01*
X009236Y013097D02*
X008781Y013097D01*
X008880Y013196D02*
X009236Y013196D01*
X009077Y013393D02*
X009494Y013393D01*
X009494Y013491D02*
X009175Y013491D01*
X009274Y013590D02*
X009494Y013590D01*
X009494Y013688D02*
X009372Y013688D01*
X009471Y013787D02*
X009494Y013787D01*
X009494Y013294D02*
X008978Y013294D01*
X009236Y012900D02*
X002972Y012900D01*
X002972Y012802D02*
X009236Y012802D01*
X009236Y012703D02*
X007235Y012703D01*
X007024Y013158D02*
X007058Y013178D01*
X007086Y013206D01*
X007106Y013240D01*
X007116Y013278D01*
X007116Y013538D01*
X006766Y013538D01*
X006766Y013637D01*
X007116Y013637D01*
X007116Y013897D01*
X007106Y013935D01*
X007086Y013969D01*
X007058Y013997D01*
X007024Y014017D01*
X006986Y014027D01*
X006766Y014027D01*
X006766Y013638D01*
X006666Y013638D01*
X006666Y014027D01*
X006446Y014027D01*
X006408Y014017D01*
X006374Y013997D01*
X006346Y013969D01*
X006326Y013935D01*
X006316Y013897D01*
X006316Y013637D01*
X006666Y013637D01*
X006666Y013538D01*
X006316Y013538D01*
X006316Y013278D01*
X006326Y013240D01*
X006346Y013206D01*
X006374Y013178D01*
X006408Y013158D01*
X006446Y013148D01*
X006666Y013148D01*
X006666Y013537D01*
X006766Y013537D01*
X006766Y013148D01*
X006986Y013148D01*
X007024Y013158D01*
X007076Y013196D02*
X007938Y013196D01*
X007870Y013294D02*
X007116Y013294D01*
X007116Y013393D02*
X007829Y013393D01*
X007799Y013491D02*
X007116Y013491D01*
X007116Y013688D02*
X007799Y013688D01*
X007799Y013590D02*
X006766Y013590D01*
X006766Y013688D02*
X006666Y013688D01*
X006666Y013590D02*
X005927Y013590D01*
X006026Y013688D02*
X006316Y013688D01*
X006316Y013787D02*
X006098Y013787D01*
X006139Y013885D02*
X006316Y013885D01*
X006361Y013984D02*
X006172Y013984D01*
X006172Y014082D02*
X008041Y014082D01*
X008139Y014181D02*
X006172Y014181D01*
X006172Y014279D02*
X008238Y014279D01*
X008336Y014378D02*
X006172Y014378D01*
X006172Y014476D02*
X008435Y014476D01*
X008533Y014575D02*
X006172Y014575D01*
X006172Y014673D02*
X008632Y014673D01*
X008730Y014772D02*
X006147Y014772D01*
X006106Y014870D02*
X008829Y014870D01*
X008766Y014807D02*
X008766Y014807D01*
X008927Y014969D02*
X006044Y014969D01*
X005946Y015067D02*
X009151Y015067D01*
X009945Y015166D02*
X005847Y015166D01*
X005749Y015264D02*
X010044Y015264D01*
X010142Y015363D02*
X008372Y015363D01*
X008372Y015344D02*
X008372Y015896D01*
X008308Y015960D01*
X007417Y015960D01*
X007353Y015896D01*
X007353Y015344D01*
X007417Y015280D01*
X008308Y015280D01*
X008372Y015344D01*
X008372Y015461D02*
X010241Y015461D01*
X010339Y015560D02*
X008372Y015560D01*
X008372Y015658D02*
X010438Y015658D01*
X010536Y015757D02*
X008372Y015757D01*
X008372Y015855D02*
X010635Y015855D01*
X010733Y015954D02*
X008315Y015954D01*
X008308Y016138D02*
X008372Y016202D01*
X008372Y016893D01*
X008308Y016957D01*
X007417Y016957D01*
X007353Y016893D01*
X007353Y016202D01*
X007417Y016138D01*
X008308Y016138D01*
X008321Y016151D02*
X010804Y016151D01*
X010832Y016052D02*
X006727Y016052D01*
X006727Y016057D02*
X006293Y016057D01*
X006293Y016118D01*
X006727Y016118D01*
X006727Y016280D01*
X006455Y016552D01*
X006293Y016552D01*
X006293Y016118D01*
X006232Y016118D01*
X006232Y016552D01*
X006070Y016552D01*
X005798Y016280D01*
X005798Y016118D01*
X006232Y016118D01*
X006232Y016057D01*
X006293Y016057D01*
X006293Y015623D01*
X006455Y015623D01*
X006727Y015895D01*
X006727Y016057D01*
X006727Y016151D02*
X007404Y016151D01*
X007353Y016249D02*
X006727Y016249D01*
X006660Y016348D02*
X007353Y016348D01*
X007353Y016446D02*
X006562Y016446D01*
X006463Y016545D02*
X007353Y016545D01*
X007353Y016643D02*
X005981Y016643D01*
X006062Y016545D02*
X005882Y016545D01*
X005963Y016446D02*
X005784Y016446D01*
X005865Y016348D02*
X005685Y016348D01*
X005587Y016249D02*
X005798Y016249D01*
X005798Y016151D02*
X005614Y016151D01*
X005655Y016052D02*
X005798Y016052D01*
X005798Y016057D02*
X005798Y015895D01*
X006070Y015623D01*
X006232Y015623D01*
X006232Y016057D01*
X005798Y016057D01*
X005798Y015954D02*
X005672Y015954D01*
X005672Y015855D02*
X005837Y015855D01*
X005936Y015757D02*
X005672Y015757D01*
X005672Y015658D02*
X006034Y015658D01*
X006232Y015658D02*
X006293Y015658D01*
X006293Y015757D02*
X006232Y015757D01*
X006232Y015855D02*
X006293Y015855D01*
X006293Y015954D02*
X006232Y015954D01*
X006232Y016052D02*
X006293Y016052D01*
X006293Y016151D02*
X006232Y016151D01*
X006232Y016249D02*
X006293Y016249D01*
X006293Y016348D02*
X006232Y016348D01*
X006232Y016446D02*
X006293Y016446D01*
X006293Y016545D02*
X006232Y016545D01*
X006079Y016742D02*
X007353Y016742D01*
X007353Y016840D02*
X006178Y016840D01*
X006276Y016939D02*
X007398Y016939D01*
X007235Y017037D02*
X011903Y017037D01*
X011903Y017121D02*
X011796Y017228D01*
X011772Y017228D01*
X011772Y017212D01*
X011708Y017148D01*
X010817Y017148D01*
X010753Y017212D01*
X010753Y017903D01*
X010817Y017967D01*
X011708Y017967D01*
X011772Y017903D01*
X011772Y017547D01*
X011929Y017547D01*
X012022Y017454D01*
X012222Y017254D01*
X012222Y016654D01*
X012308Y016568D01*
X012320Y016579D01*
X012805Y016579D01*
X012869Y016515D01*
X012869Y015991D01*
X012805Y015926D01*
X012320Y015926D01*
X012256Y015991D01*
X012256Y016168D01*
X011996Y016428D01*
X011903Y016521D01*
X011903Y017121D01*
X011888Y017136D02*
X007381Y017136D01*
X007479Y017234D02*
X010753Y017234D01*
X010753Y017333D02*
X007578Y017333D01*
X007676Y017431D02*
X010753Y017431D01*
X010753Y017530D02*
X007775Y017530D01*
X007873Y017628D02*
X010753Y017628D01*
X010753Y017727D02*
X007972Y017727D01*
X008070Y017825D02*
X010753Y017825D01*
X010773Y017924D02*
X008169Y017924D01*
X008267Y018022D02*
X013625Y018022D01*
X013763Y017934D02*
X013563Y017733D01*
X013563Y016942D01*
X013722Y017234D02*
X016432Y017234D01*
X016543Y017136D02*
X013909Y017136D01*
X013909Y017037D02*
X016648Y017037D01*
X016753Y016939D02*
X013909Y016939D01*
X013909Y016840D02*
X014415Y016840D01*
X014200Y016742D02*
X013909Y016742D01*
X014102Y016643D02*
X013379Y016643D01*
X013477Y016545D02*
X014028Y016545D01*
X013987Y016446D02*
X013899Y016446D01*
X013909Y016348D02*
X013953Y016348D01*
X013953Y016249D02*
X013909Y016249D01*
X013909Y016151D02*
X013953Y016151D01*
X013953Y016052D02*
X013909Y016052D01*
X013953Y015954D02*
X013509Y015954D01*
X013411Y015855D02*
X013953Y015855D01*
X013953Y015757D02*
X013322Y015757D01*
X013322Y015658D02*
X013953Y015658D01*
X013953Y015560D02*
X013261Y015560D01*
X013162Y015461D02*
X013953Y015461D01*
X013953Y015363D02*
X011816Y015363D01*
X011769Y015264D02*
X013953Y015264D01*
X013953Y015166D02*
X011671Y015166D01*
X011572Y015067D02*
X013953Y015067D01*
X013953Y014969D02*
X011474Y014969D01*
X011375Y014870D02*
X013953Y014870D01*
X013953Y014772D02*
X011277Y014772D01*
X011178Y014673D02*
X013953Y014673D01*
X013953Y014575D02*
X011080Y014575D01*
X010981Y014476D02*
X013953Y014476D01*
X013953Y014378D02*
X010883Y014378D01*
X010784Y014279D02*
X013953Y014279D01*
X013953Y014181D02*
X010714Y014181D01*
X010714Y014082D02*
X013953Y014082D01*
X013953Y013984D02*
X010714Y013984D01*
X010714Y013885D02*
X013953Y013885D01*
X013953Y013787D02*
X010714Y013787D01*
X010714Y013688D02*
X013953Y013688D01*
X013953Y013590D02*
X010714Y013590D01*
X010714Y013491D02*
X013953Y013491D01*
X013953Y013393D02*
X010714Y013393D01*
X010714Y013294D02*
X013953Y013294D01*
X013153Y013196D02*
X010972Y013196D01*
X010972Y013097D02*
X013153Y013097D01*
X013153Y012999D02*
X010972Y012999D01*
X010972Y012900D02*
X013153Y012900D01*
X013153Y012802D02*
X010972Y012802D01*
X010972Y012703D02*
X013153Y012703D01*
X013153Y012605D02*
X010972Y012605D01*
X010972Y012506D02*
X013153Y012506D01*
X013153Y012408D02*
X010972Y012408D01*
X010972Y012309D02*
X013153Y012309D01*
X013153Y012211D02*
X010972Y012211D01*
X010972Y012112D02*
X013153Y012112D01*
X013153Y012014D02*
X010972Y012014D01*
X010972Y011915D02*
X013131Y011915D01*
X013032Y011817D02*
X010972Y011817D01*
X010972Y011718D02*
X012934Y011718D01*
X012835Y011620D02*
X010972Y011620D01*
X010972Y011521D02*
X012737Y011521D01*
X012638Y011423D02*
X010972Y011423D01*
X010972Y011324D02*
X012540Y011324D01*
X012441Y011226D02*
X010972Y011226D01*
X010972Y011127D02*
X012009Y011127D01*
X011844Y011029D02*
X010972Y011029D01*
X010942Y010930D02*
X011775Y010930D01*
X011740Y010832D02*
X008822Y010832D01*
X008724Y010930D02*
X008724Y011230D01*
X008557Y011324D02*
X009236Y011324D01*
X009236Y011423D02*
X008557Y011423D01*
X008557Y011521D02*
X009236Y011521D01*
X009236Y011620D02*
X008558Y011620D01*
X008558Y011718D02*
X009236Y011718D01*
X009236Y011817D02*
X008558Y011817D01*
X008558Y011915D02*
X009236Y011915D01*
X009236Y012014D02*
X008558Y012014D01*
X008558Y012112D02*
X009236Y012112D01*
X009236Y012211D02*
X008558Y012211D01*
X008558Y012309D02*
X009236Y012309D01*
X009236Y012408D02*
X008558Y012408D01*
X008558Y012506D02*
X009236Y012506D01*
X009236Y012605D02*
X008558Y012605D01*
X008212Y012088D02*
X008063Y012088D01*
X008397Y011753D01*
X008397Y010988D01*
X008920Y010733D02*
X011740Y010733D01*
X011769Y010635D02*
X009019Y010635D01*
X009117Y010536D02*
X011830Y010536D01*
X011974Y010438D02*
X009216Y010438D01*
X009314Y010339D02*
X013498Y010339D01*
X013498Y010241D02*
X009413Y010241D01*
X009511Y010142D02*
X013498Y010142D01*
X013498Y010044D02*
X009610Y010044D01*
X009708Y009945D02*
X013498Y009945D01*
X013498Y009847D02*
X009807Y009847D01*
X009905Y009748D02*
X013498Y009748D01*
X013498Y009650D02*
X010004Y009650D01*
X009937Y009223D02*
X013766Y009223D01*
X013877Y009334D01*
X013877Y010895D01*
X014825Y010895D01*
X014889Y010959D01*
X014889Y011478D01*
X014984Y011478D01*
X015208Y011570D01*
X016715Y013078D01*
X018670Y013078D01*
X018895Y013170D01*
X019066Y013342D01*
X019145Y013531D01*
X019163Y013493D01*
X019522Y012388D01*
X019740Y011247D01*
X019813Y010087D01*
X019740Y008928D01*
X019740Y008928D01*
X019522Y007787D01*
X019163Y006682D01*
X018668Y005631D01*
X018046Y004650D01*
X017305Y003755D01*
X016459Y002960D01*
X015519Y002277D01*
X014999Y001992D01*
X015002Y002000D01*
X015002Y002797D01*
X014987Y002833D01*
X014987Y003149D01*
X014923Y003213D01*
X014202Y003213D01*
X014138Y003149D01*
X014138Y002833D01*
X014123Y002797D01*
X014123Y002270D01*
X013880Y002027D01*
X012847Y002027D01*
X012129Y002745D01*
X012129Y003263D01*
X012065Y003327D01*
X011265Y003327D01*
X011201Y003263D01*
X011201Y001959D01*
X010572Y002588D01*
X010766Y002782D01*
X010868Y002884D01*
X010922Y003016D01*
X010922Y008159D01*
X010868Y008291D01*
X010766Y008393D01*
X009937Y009223D01*
X010002Y009157D02*
X014606Y009157D01*
X014704Y009256D02*
X013799Y009256D01*
X013877Y009354D02*
X014803Y009354D01*
X014901Y009453D02*
X013877Y009453D01*
X013877Y009551D02*
X015000Y009551D01*
X015098Y009650D02*
X013877Y009650D01*
X013877Y009748D02*
X015197Y009748D01*
X015295Y009847D02*
X013877Y009847D01*
X013877Y009945D02*
X015394Y009945D01*
X015492Y010044D02*
X013877Y010044D01*
X013877Y010142D02*
X015591Y010142D01*
X015689Y010241D02*
X013877Y010241D01*
X013877Y010339D02*
X015788Y010339D01*
X015886Y010438D02*
X013877Y010438D01*
X013877Y010536D02*
X015985Y010536D01*
X016083Y010635D02*
X013877Y010635D01*
X013877Y010733D02*
X016182Y010733D01*
X016280Y010832D02*
X013877Y010832D01*
X013498Y010832D02*
X013066Y010832D01*
X013164Y010930D02*
X013183Y010930D01*
X012967Y010733D02*
X013498Y010733D01*
X013498Y010635D02*
X012869Y010635D01*
X012770Y010536D02*
X013498Y010536D01*
X013498Y010438D02*
X012626Y010438D01*
X013044Y009155D02*
X012941Y009112D01*
X012863Y009034D01*
X012820Y008931D01*
X012820Y008819D01*
X012863Y008716D01*
X012941Y008638D01*
X013044Y008595D01*
X013141Y008595D01*
X013216Y008519D01*
X013216Y008239D01*
X013281Y008174D01*
X013844Y008174D01*
X013909Y008239D01*
X013909Y008282D01*
X014216Y008282D01*
X014216Y008239D01*
X014281Y008174D01*
X014844Y008174D01*
X014909Y008239D01*
X014909Y008645D01*
X014844Y008709D01*
X014722Y008709D01*
X014722Y008821D01*
X018722Y012820D01*
X018722Y012953D01*
X018628Y013047D01*
X018495Y013047D01*
X014496Y009047D01*
X014403Y008954D01*
X014403Y008709D01*
X014281Y008709D01*
X014216Y008645D01*
X014216Y008602D01*
X013909Y008602D01*
X013909Y008645D01*
X013844Y008709D01*
X013564Y008709D01*
X013380Y008893D01*
X013380Y008931D01*
X013337Y009034D01*
X013259Y009112D01*
X013156Y009155D01*
X013044Y009155D01*
X012888Y009059D02*
X010101Y009059D01*
X010199Y008960D02*
X012832Y008960D01*
X012820Y008862D02*
X010298Y008862D01*
X010396Y008763D02*
X012843Y008763D01*
X012914Y008665D02*
X010495Y008665D01*
X010593Y008566D02*
X013170Y008566D01*
X013216Y008468D02*
X010692Y008468D01*
X010766Y008393D02*
X010766Y008393D01*
X010790Y008369D02*
X013216Y008369D01*
X013216Y008271D02*
X010876Y008271D01*
X010917Y008172D02*
X015221Y008172D01*
X015295Y008246D02*
X015003Y007954D01*
X015003Y007893D01*
X014909Y007893D01*
X014909Y007936D01*
X014844Y008001D01*
X014281Y008001D01*
X014216Y007936D01*
X014216Y007530D01*
X014281Y007466D01*
X014844Y007466D01*
X014909Y007530D01*
X014909Y007573D01*
X015174Y007573D01*
X015229Y007628D01*
X015255Y007654D01*
X015255Y007615D01*
X015265Y007577D01*
X015285Y007543D01*
X015313Y007515D01*
X015347Y007495D01*
X015385Y007485D01*
X015534Y007485D01*
X015534Y007763D01*
X015591Y007763D01*
X015591Y007485D01*
X015740Y007485D01*
X015778Y007495D01*
X015812Y007515D01*
X015840Y007543D01*
X015860Y007577D01*
X015870Y007615D01*
X015870Y007763D01*
X015591Y007763D01*
X015591Y007821D01*
X015870Y007821D01*
X015870Y007969D01*
X015860Y008008D01*
X015840Y008042D01*
X015812Y008070D01*
X015778Y008089D01*
X015740Y008100D01*
X015601Y008100D01*
X015617Y008115D01*
X015766Y008115D01*
X015830Y008180D01*
X015830Y008586D01*
X015766Y008650D01*
X015359Y008650D01*
X015295Y008586D01*
X015295Y008246D01*
X015295Y008271D02*
X014909Y008271D01*
X014909Y008369D02*
X015295Y008369D01*
X015295Y008468D02*
X014909Y008468D01*
X014909Y008566D02*
X015295Y008566D01*
X015563Y008383D02*
X015463Y008283D01*
X015463Y008188D01*
X015163Y007888D01*
X015163Y007788D01*
X015108Y007733D01*
X014563Y007733D01*
X014861Y007483D02*
X019423Y007483D01*
X019455Y007581D02*
X015861Y007581D01*
X015870Y007680D02*
X019487Y007680D01*
X019519Y007778D02*
X015591Y007778D01*
X015563Y007792D02*
X015563Y007465D01*
X014563Y006465D01*
X014463Y006365D01*
X014463Y006088D01*
X013363Y004988D01*
X011963Y004988D01*
X011663Y005288D01*
X011663Y005988D01*
X012263Y006588D01*
X012391Y006588D01*
X012341Y006596D02*
X010922Y006596D01*
X010922Y006498D02*
X011942Y006498D01*
X011942Y006538D02*
X011942Y006217D01*
X011952Y006179D01*
X011972Y006145D01*
X012000Y006117D01*
X012034Y006097D01*
X012072Y006087D01*
X012341Y006087D01*
X012341Y006537D01*
X012441Y006537D01*
X012441Y006087D01*
X012710Y006087D01*
X012748Y006097D01*
X012783Y006117D01*
X012803Y006137D01*
X012803Y005954D01*
X012800Y005952D01*
X012800Y005983D01*
X012736Y006048D01*
X012046Y006048D01*
X011982Y005983D01*
X011982Y005192D01*
X012046Y005127D01*
X012736Y005127D01*
X012800Y005192D01*
X012800Y005499D01*
X013122Y005821D01*
X013122Y007021D01*
X013481Y007379D01*
X013445Y007293D01*
X013445Y007226D01*
X013373Y007154D01*
X013373Y006969D01*
X013202Y006969D01*
X013138Y006905D01*
X013138Y006026D01*
X013202Y005962D01*
X013923Y005962D01*
X013987Y006026D01*
X013987Y006905D01*
X013923Y006969D01*
X013809Y006969D01*
X013884Y007000D01*
X013962Y007079D01*
X014005Y007182D01*
X014005Y007293D01*
X013962Y007396D01*
X013884Y007475D01*
X013862Y007484D01*
X013909Y007530D01*
X013909Y007936D01*
X013844Y008001D01*
X013281Y008001D01*
X013216Y007936D01*
X013216Y007568D01*
X012896Y007247D01*
X012803Y007154D01*
X012803Y007038D01*
X012783Y007058D01*
X012748Y007078D01*
X012710Y007088D01*
X012441Y007088D01*
X012441Y006638D01*
X012341Y006638D01*
X012341Y007088D01*
X012072Y007088D01*
X012034Y007078D01*
X012000Y007058D01*
X011972Y007030D01*
X011952Y006996D01*
X011942Y006958D01*
X011942Y006637D01*
X012341Y006637D01*
X012341Y006538D01*
X011942Y006538D01*
X011942Y006399D02*
X010922Y006399D01*
X010922Y006301D02*
X011942Y006301D01*
X011946Y006202D02*
X010922Y006202D01*
X010922Y006104D02*
X012023Y006104D01*
X012004Y006005D02*
X010922Y006005D01*
X010922Y005907D02*
X011982Y005907D01*
X011982Y005808D02*
X010922Y005808D01*
X010922Y005710D02*
X011982Y005710D01*
X011982Y005611D02*
X010922Y005611D01*
X010922Y005513D02*
X011982Y005513D01*
X011982Y005414D02*
X010922Y005414D01*
X010922Y005316D02*
X011982Y005316D01*
X011982Y005217D02*
X010922Y005217D01*
X010922Y005119D02*
X018343Y005119D01*
X018405Y005217D02*
X012800Y005217D01*
X012800Y005316D02*
X018468Y005316D01*
X018530Y005414D02*
X012800Y005414D01*
X012814Y005513D02*
X018593Y005513D01*
X018655Y005611D02*
X012912Y005611D01*
X013011Y005710D02*
X018705Y005710D01*
X018752Y005808D02*
X013109Y005808D01*
X013122Y005907D02*
X018798Y005907D01*
X018844Y006005D02*
X015012Y006005D01*
X015017Y006014D02*
X015027Y006052D01*
X015027Y006415D01*
X014613Y006415D01*
X014613Y006515D01*
X015027Y006515D01*
X015027Y006879D01*
X015017Y006917D01*
X014997Y006951D01*
X014970Y006979D01*
X014935Y006999D01*
X014897Y007009D01*
X014612Y007009D01*
X014612Y006515D01*
X014513Y006515D01*
X014512Y006515D02*
X014512Y006415D01*
X014098Y006415D01*
X014098Y006052D01*
X014108Y006014D01*
X014128Y005980D01*
X014155Y005952D01*
X014190Y005932D01*
X014228Y005922D01*
X014513Y005922D01*
X014513Y006415D01*
X014612Y006415D01*
X014612Y005922D01*
X014897Y005922D01*
X014935Y005932D01*
X014970Y005952D01*
X014997Y005980D01*
X015017Y006014D01*
X015027Y006104D02*
X018891Y006104D01*
X018937Y006202D02*
X015027Y006202D01*
X015027Y006301D02*
X018983Y006301D01*
X019030Y006399D02*
X015027Y006399D01*
X015027Y006596D02*
X019122Y006596D01*
X019167Y006695D02*
X015027Y006695D01*
X015027Y006793D02*
X019199Y006793D01*
X019231Y006892D02*
X015024Y006892D01*
X014951Y006990D02*
X019263Y006990D01*
X019295Y007089D02*
X013966Y007089D01*
X014005Y007187D02*
X019327Y007187D01*
X019359Y007286D02*
X014005Y007286D01*
X013967Y007384D02*
X019391Y007384D01*
X019539Y007877D02*
X015870Y007877D01*
X015868Y007975D02*
X019558Y007975D01*
X019577Y008074D02*
X015806Y008074D01*
X015822Y008172D02*
X019595Y008172D01*
X019614Y008271D02*
X015830Y008271D01*
X015830Y008369D02*
X019633Y008369D01*
X019652Y008468D02*
X015830Y008468D01*
X015830Y008566D02*
X019670Y008566D01*
X019689Y008665D02*
X014889Y008665D01*
X014722Y008763D02*
X019708Y008763D01*
X019727Y008862D02*
X014763Y008862D01*
X014861Y008960D02*
X019742Y008960D01*
X019748Y009059D02*
X014960Y009059D01*
X015058Y009157D02*
X019754Y009157D01*
X019760Y009256D02*
X015157Y009256D01*
X015255Y009354D02*
X019766Y009354D01*
X019773Y009453D02*
X015354Y009453D01*
X015452Y009551D02*
X019779Y009551D01*
X019785Y009650D02*
X015551Y009650D01*
X015649Y009748D02*
X019791Y009748D01*
X019797Y009847D02*
X015748Y009847D01*
X015846Y009945D02*
X019804Y009945D01*
X019810Y010044D02*
X015945Y010044D01*
X016043Y010142D02*
X019809Y010142D01*
X019803Y010241D02*
X016142Y010241D01*
X016240Y010339D02*
X019797Y010339D01*
X019790Y010438D02*
X016339Y010438D01*
X016437Y010536D02*
X019784Y010536D01*
X019778Y010635D02*
X016536Y010635D01*
X016634Y010733D02*
X019772Y010733D01*
X019766Y010832D02*
X016733Y010832D01*
X016831Y010930D02*
X019759Y010930D01*
X019753Y011029D02*
X016930Y011029D01*
X017028Y011127D02*
X019747Y011127D01*
X019741Y011226D02*
X017127Y011226D01*
X017225Y011324D02*
X019725Y011324D01*
X019706Y011423D02*
X017324Y011423D01*
X017422Y011521D02*
X019687Y011521D01*
X019668Y011620D02*
X017521Y011620D01*
X017619Y011718D02*
X019650Y011718D01*
X019631Y011817D02*
X017718Y011817D01*
X017816Y011915D02*
X019612Y011915D01*
X019593Y012014D02*
X017915Y012014D01*
X018013Y012112D02*
X019575Y012112D01*
X019556Y012211D02*
X018112Y012211D01*
X018210Y012309D02*
X019537Y012309D01*
X019516Y012408D02*
X018309Y012408D01*
X018407Y012506D02*
X019484Y012506D01*
X019452Y012605D02*
X018506Y012605D01*
X018604Y012703D02*
X019419Y012703D01*
X019387Y012802D02*
X018703Y012802D01*
X018722Y012900D02*
X019355Y012900D01*
X019323Y012999D02*
X018676Y012999D01*
X018718Y013097D02*
X019291Y013097D01*
X019259Y013196D02*
X018920Y013196D01*
X019018Y013294D02*
X019227Y013294D01*
X019195Y013393D02*
X019087Y013393D01*
X019128Y013491D02*
X019163Y013491D01*
X018562Y012887D02*
X014563Y008888D01*
X014563Y008442D01*
X013563Y008442D01*
X013909Y008271D02*
X014216Y008271D01*
X014255Y007975D02*
X013870Y007975D01*
X013909Y007877D02*
X014216Y007877D01*
X014216Y007778D02*
X013909Y007778D01*
X013909Y007680D02*
X014216Y007680D01*
X014216Y007581D02*
X013909Y007581D01*
X013865Y007483D02*
X014264Y007483D01*
X014228Y007009D02*
X014190Y006999D01*
X014155Y006979D01*
X014128Y006951D01*
X014108Y006917D01*
X014098Y006879D01*
X014098Y006515D01*
X014512Y006515D01*
X014513Y006515D02*
X014513Y007009D01*
X014228Y007009D01*
X014174Y006990D02*
X013859Y006990D01*
X013987Y006892D02*
X014101Y006892D01*
X014098Y006793D02*
X013987Y006793D01*
X013987Y006695D02*
X014098Y006695D01*
X014098Y006596D02*
X013987Y006596D01*
X013987Y006498D02*
X014512Y006498D01*
X014513Y006596D02*
X014612Y006596D01*
X014613Y006498D02*
X019076Y006498D01*
X018280Y005020D02*
X010922Y005020D01*
X010922Y004922D02*
X018218Y004922D01*
X018155Y004823D02*
X012069Y004823D01*
X012065Y004827D02*
X011265Y004827D01*
X011201Y004763D01*
X011201Y003412D01*
X011265Y003348D01*
X012065Y003348D01*
X012122Y003405D01*
X013138Y002390D01*
X013138Y002270D01*
X013202Y002206D01*
X013923Y002206D01*
X013987Y002270D01*
X013987Y002586D01*
X014002Y002622D01*
X014002Y002797D01*
X013987Y002833D01*
X013987Y003149D01*
X013923Y003213D01*
X013559Y003213D01*
X012436Y004337D01*
X012312Y004461D01*
X012150Y004527D01*
X012129Y004527D01*
X012129Y004763D01*
X012065Y004827D01*
X012129Y004725D02*
X018093Y004725D01*
X018026Y004626D02*
X012129Y004626D01*
X012129Y004528D02*
X017944Y004528D01*
X017863Y004429D02*
X012343Y004429D01*
X012442Y004331D02*
X017781Y004331D01*
X017700Y004232D02*
X012540Y004232D01*
X012639Y004134D02*
X017618Y004134D01*
X017537Y004035D02*
X012737Y004035D01*
X012836Y003937D02*
X017455Y003937D01*
X017374Y003838D02*
X012934Y003838D01*
X013033Y003740D02*
X017288Y003740D01*
X017305Y003755D02*
X017305Y003755D01*
X017184Y003641D02*
X013131Y003641D01*
X013230Y003543D02*
X017079Y003543D01*
X016974Y003444D02*
X013328Y003444D01*
X013427Y003346D02*
X016869Y003346D01*
X016764Y003247D02*
X013525Y003247D01*
X013987Y003149D02*
X014138Y003149D01*
X014138Y003050D02*
X013987Y003050D01*
X013987Y002952D02*
X014138Y002952D01*
X014138Y002853D02*
X013987Y002853D01*
X014002Y002755D02*
X014123Y002755D01*
X014123Y002656D02*
X014002Y002656D01*
X013987Y002558D02*
X014123Y002558D01*
X014123Y002459D02*
X013987Y002459D01*
X013987Y002361D02*
X014123Y002361D01*
X014115Y002262D02*
X013979Y002262D01*
X014016Y002164D02*
X012711Y002164D01*
X012613Y002262D02*
X013146Y002262D01*
X013138Y002361D02*
X012514Y002361D01*
X012416Y002459D02*
X013069Y002459D01*
X012970Y002558D02*
X012317Y002558D01*
X012219Y002656D02*
X012872Y002656D01*
X012773Y002755D02*
X012129Y002755D01*
X012129Y002853D02*
X012675Y002853D01*
X012576Y002952D02*
X012129Y002952D01*
X012129Y003050D02*
X012478Y003050D01*
X012379Y003149D02*
X012129Y003149D01*
X012129Y003247D02*
X012281Y003247D01*
X012182Y003346D02*
X010922Y003346D01*
X010922Y003444D02*
X011201Y003444D01*
X011201Y003543D02*
X010922Y003543D01*
X010922Y003641D02*
X011201Y003641D01*
X011201Y003740D02*
X010922Y003740D01*
X010922Y003838D02*
X011201Y003838D01*
X011201Y003937D02*
X010922Y003937D01*
X010922Y004035D02*
X011201Y004035D01*
X011201Y004134D02*
X010922Y004134D01*
X010922Y004232D02*
X011201Y004232D01*
X011201Y004331D02*
X010922Y004331D01*
X010922Y004429D02*
X011201Y004429D01*
X011201Y004528D02*
X010922Y004528D01*
X010922Y004626D02*
X011201Y004626D01*
X011201Y004725D02*
X010922Y004725D01*
X010922Y004823D02*
X011261Y004823D01*
X012391Y005588D02*
X012463Y005516D01*
X012463Y005388D01*
X012963Y005888D01*
X012963Y007088D01*
X013563Y007688D01*
X013563Y007733D01*
X013216Y007778D02*
X012800Y007778D01*
X012800Y007680D02*
X013216Y007680D01*
X013216Y007581D02*
X012800Y007581D01*
X012800Y007483D02*
X013131Y007483D01*
X013033Y007384D02*
X012800Y007384D01*
X012800Y007286D02*
X012934Y007286D01*
X012836Y007187D02*
X012796Y007187D01*
X012800Y007192D02*
X012800Y007983D01*
X012736Y008048D01*
X012046Y008048D01*
X011982Y007983D01*
X011982Y007192D01*
X012046Y007127D01*
X012736Y007127D01*
X012800Y007192D01*
X012803Y007089D02*
X010922Y007089D01*
X010922Y007187D02*
X011987Y007187D01*
X011982Y007286D02*
X010922Y007286D01*
X010922Y007384D02*
X011982Y007384D01*
X011982Y007483D02*
X010922Y007483D01*
X010922Y007581D02*
X011982Y007581D01*
X011982Y007680D02*
X010922Y007680D01*
X010922Y007778D02*
X011982Y007778D01*
X011982Y007877D02*
X010922Y007877D01*
X010922Y007975D02*
X011982Y007975D01*
X012800Y007975D02*
X013255Y007975D01*
X013216Y007877D02*
X012800Y007877D01*
X013387Y007286D02*
X013445Y007286D01*
X013406Y007187D02*
X013288Y007187D01*
X013373Y007089D02*
X013190Y007089D01*
X013122Y006990D02*
X013373Y006990D01*
X013138Y006892D02*
X013122Y006892D01*
X013122Y006793D02*
X013138Y006793D01*
X013138Y006695D02*
X013122Y006695D01*
X013122Y006596D02*
X013138Y006596D01*
X013138Y006498D02*
X013122Y006498D01*
X013122Y006399D02*
X013138Y006399D01*
X013138Y006301D02*
X013122Y006301D01*
X013122Y006202D02*
X013138Y006202D01*
X013138Y006104D02*
X013122Y006104D01*
X013122Y006005D02*
X013159Y006005D01*
X012803Y006005D02*
X012779Y006005D01*
X012759Y006104D02*
X012803Y006104D01*
X012441Y006104D02*
X012341Y006104D01*
X012341Y006202D02*
X012441Y006202D01*
X012441Y006301D02*
X012341Y006301D01*
X012341Y006399D02*
X012441Y006399D01*
X012441Y006498D02*
X012341Y006498D01*
X012341Y006695D02*
X012441Y006695D01*
X012441Y006793D02*
X012341Y006793D01*
X012341Y006892D02*
X012441Y006892D01*
X012441Y006990D02*
X012341Y006990D01*
X011951Y006990D02*
X010922Y006990D01*
X010922Y006892D02*
X011942Y006892D01*
X011942Y006793D02*
X010922Y006793D01*
X010922Y006695D02*
X011942Y006695D01*
X010922Y008074D02*
X015122Y008074D01*
X015024Y007975D02*
X014870Y007975D01*
X015182Y007581D02*
X015264Y007581D01*
X015534Y007581D02*
X015591Y007581D01*
X015591Y007680D02*
X015534Y007680D01*
X014612Y006990D02*
X014513Y006990D01*
X014513Y006892D02*
X014612Y006892D01*
X014612Y006793D02*
X014513Y006793D01*
X014513Y006695D02*
X014612Y006695D01*
X014612Y006399D02*
X014513Y006399D01*
X014513Y006301D02*
X014612Y006301D01*
X014612Y006202D02*
X014513Y006202D01*
X014513Y006104D02*
X014612Y006104D01*
X014612Y006005D02*
X014513Y006005D01*
X014113Y006005D02*
X013966Y006005D01*
X013987Y006104D02*
X014098Y006104D01*
X014098Y006202D02*
X013987Y006202D01*
X013987Y006301D02*
X014098Y006301D01*
X014098Y006399D02*
X013987Y006399D01*
X013889Y008665D02*
X014236Y008665D01*
X014403Y008763D02*
X013510Y008763D01*
X013412Y008862D02*
X014403Y008862D01*
X014409Y008960D02*
X013368Y008960D01*
X013312Y009059D02*
X014507Y009059D01*
X014860Y010930D02*
X016379Y010930D01*
X016477Y011029D02*
X014889Y011029D01*
X014889Y011127D02*
X016576Y011127D01*
X016674Y011226D02*
X014889Y011226D01*
X014889Y011324D02*
X016773Y011324D01*
X016871Y011423D02*
X014889Y011423D01*
X015089Y011521D02*
X016970Y011521D01*
X017068Y011620D02*
X015257Y011620D01*
X015356Y011718D02*
X017167Y011718D01*
X017265Y011817D02*
X015454Y011817D01*
X015553Y011915D02*
X017364Y011915D01*
X017462Y012014D02*
X015651Y012014D01*
X015750Y012112D02*
X017561Y012112D01*
X017659Y012211D02*
X015848Y012211D01*
X015947Y012309D02*
X017758Y012309D01*
X017856Y012408D02*
X016045Y012408D01*
X016144Y012506D02*
X017955Y012506D01*
X018053Y012605D02*
X016242Y012605D01*
X016341Y012703D02*
X018152Y012703D01*
X018250Y012802D02*
X016439Y012802D01*
X016538Y012900D02*
X018349Y012900D01*
X018447Y012999D02*
X016636Y012999D01*
X015797Y013885D02*
X015172Y013885D01*
X015172Y013787D02*
X015699Y013787D01*
X015600Y013688D02*
X015172Y013688D01*
X015172Y013590D02*
X015502Y013590D01*
X015403Y013491D02*
X015172Y013491D01*
X015172Y013393D02*
X015305Y013393D01*
X015206Y013294D02*
X015172Y013294D01*
X015172Y013984D02*
X015896Y013984D01*
X015994Y014082D02*
X015172Y014082D01*
X015172Y014181D02*
X016093Y014181D01*
X016297Y014279D02*
X015172Y014279D01*
X015172Y014378D02*
X018747Y014378D01*
X018715Y014279D02*
X018793Y014279D01*
X018700Y014476D02*
X015172Y014476D01*
X015172Y014575D02*
X018649Y014575D01*
X018586Y014673D02*
X015172Y014673D01*
X015172Y014772D02*
X018524Y014772D01*
X018461Y014870D02*
X015172Y014870D01*
X015172Y014969D02*
X018399Y014969D01*
X018336Y015067D02*
X015172Y015067D01*
X015172Y015166D02*
X018274Y015166D01*
X018211Y015264D02*
X015172Y015264D01*
X015172Y015363D02*
X018149Y015363D01*
X018086Y015461D02*
X015172Y015461D01*
X015172Y015560D02*
X018017Y015560D01*
X017935Y015658D02*
X015172Y015658D01*
X015172Y015757D02*
X017854Y015757D01*
X017772Y015855D02*
X015172Y015855D01*
X015172Y015954D02*
X017691Y015954D01*
X017610Y016052D02*
X015172Y016052D01*
X015172Y016151D02*
X017528Y016151D01*
X017447Y016249D02*
X015172Y016249D01*
X015172Y016348D02*
X017365Y016348D01*
X017277Y016446D02*
X015138Y016446D01*
X015097Y016545D02*
X017172Y016545D01*
X017067Y016643D02*
X015023Y016643D01*
X014925Y016742D02*
X016963Y016742D01*
X016858Y016840D02*
X014710Y016840D01*
X014952Y017628D02*
X015890Y017628D01*
X016025Y017530D02*
X013908Y017530D01*
X013909Y017628D02*
X014173Y017628D01*
X014163Y017727D02*
X013909Y017727D01*
X013763Y017934D02*
X014563Y017934D01*
X014962Y017924D02*
X015472Y017924D01*
X015619Y017825D02*
X014962Y017825D01*
X014962Y017727D02*
X015754Y017727D01*
X016161Y017431D02*
X013722Y017431D01*
X013722Y017333D02*
X016297Y017333D01*
X015292Y018022D02*
X014962Y018022D01*
X014962Y018121D02*
X015113Y018121D01*
X014755Y018318D02*
X013909Y018318D01*
X013909Y018239D02*
X013909Y018645D01*
X013844Y018709D01*
X013281Y018709D01*
X013216Y018645D01*
X013216Y018602D01*
X012909Y018602D01*
X012909Y018645D01*
X012844Y018709D01*
X012281Y018709D01*
X012216Y018645D01*
X012216Y018602D01*
X011772Y018602D01*
X011772Y018756D01*
X011708Y018820D01*
X010817Y018820D01*
X010753Y018756D01*
X010753Y018204D01*
X010817Y018140D01*
X011708Y018140D01*
X011772Y018204D01*
X011772Y018282D01*
X012216Y018282D01*
X012216Y018239D01*
X012281Y018174D01*
X012844Y018174D01*
X012909Y018239D01*
X012909Y018282D01*
X013216Y018282D01*
X013216Y018239D01*
X013281Y018174D01*
X013844Y018174D01*
X013909Y018239D01*
X013889Y018219D02*
X014163Y018219D01*
X014163Y018121D02*
X008366Y018121D01*
X008415Y018219D02*
X010753Y018219D01*
X010753Y018318D02*
X008455Y018318D01*
X008472Y018416D02*
X010753Y018416D01*
X010753Y018515D02*
X008472Y018515D01*
X008468Y018613D02*
X010753Y018613D01*
X010753Y018712D02*
X008427Y018712D01*
X008386Y018810D02*
X010807Y018810D01*
X011263Y018480D02*
X011301Y018442D01*
X012563Y018442D01*
X013563Y018442D01*
X013909Y018416D02*
X014576Y018416D01*
X014356Y018515D02*
X013909Y018515D01*
X013909Y018613D02*
X014107Y018613D01*
X013858Y018712D02*
X011772Y018712D01*
X011772Y018613D02*
X012216Y018613D01*
X012236Y018219D02*
X011772Y018219D01*
X011752Y017924D02*
X012216Y017924D01*
X012216Y017825D02*
X011772Y017825D01*
X011772Y017727D02*
X012216Y017727D01*
X012216Y017628D02*
X011772Y017628D01*
X011947Y017530D02*
X012217Y017530D01*
X012045Y017431D02*
X012403Y017431D01*
X012403Y017333D02*
X012144Y017333D01*
X012222Y017234D02*
X012305Y017234D01*
X012256Y017136D02*
X012222Y017136D01*
X012222Y017037D02*
X012256Y017037D01*
X012256Y016939D02*
X012222Y016939D01*
X012222Y016840D02*
X012256Y016840D01*
X012256Y016742D02*
X012222Y016742D01*
X012233Y016643D02*
X012273Y016643D01*
X012063Y016588D02*
X012063Y017188D01*
X011863Y017388D01*
X011433Y017388D01*
X011263Y017558D01*
X011727Y016939D02*
X011903Y016939D01*
X011903Y016840D02*
X011772Y016840D01*
X011772Y016742D02*
X011903Y016742D01*
X011903Y016643D02*
X011772Y016643D01*
X011772Y016545D02*
X011903Y016545D01*
X011978Y016446D02*
X011772Y016446D01*
X011772Y016348D02*
X012076Y016348D01*
X012175Y016249D02*
X011772Y016249D01*
X011721Y016151D02*
X012256Y016151D01*
X012256Y016052D02*
X011693Y016052D01*
X011785Y015954D02*
X012293Y015954D01*
X012397Y016253D02*
X012063Y016588D01*
X012397Y016253D02*
X012563Y016253D01*
X012832Y015954D02*
X013057Y015954D01*
X013003Y015855D02*
X011825Y015855D01*
X011263Y015620D02*
X013095Y015620D01*
X013163Y015688D01*
X013163Y015833D01*
X013563Y016233D01*
X012874Y016922D01*
X012563Y016922D01*
X012563Y017733D01*
X012722Y017431D02*
X013403Y017431D01*
X013403Y017333D02*
X012722Y017333D01*
X012820Y017234D02*
X013403Y017234D01*
X013216Y017136D02*
X012869Y017136D01*
X012985Y017037D02*
X013216Y017037D01*
X013216Y016939D02*
X013083Y016939D01*
X013182Y016840D02*
X013216Y016840D01*
X012926Y016643D02*
X012852Y016643D01*
X012840Y016545D02*
X013025Y016545D01*
X013123Y016446D02*
X012869Y016446D01*
X012869Y016348D02*
X013216Y016348D01*
X013216Y016249D02*
X012869Y016249D01*
X012869Y016151D02*
X013216Y016151D01*
X013155Y016052D02*
X012869Y016052D01*
X012908Y017530D02*
X013217Y017530D01*
X013216Y017628D02*
X012909Y017628D01*
X012909Y017727D02*
X013216Y017727D01*
X013216Y017825D02*
X012909Y017825D01*
X012909Y017924D02*
X013216Y017924D01*
X013236Y018219D02*
X012889Y018219D01*
X012909Y018613D02*
X013216Y018613D01*
X013328Y018909D02*
X008297Y018909D01*
X008184Y019007D02*
X012945Y019007D01*
X012561Y019106D02*
X008564Y019106D01*
X009070Y019204D02*
X012055Y019204D01*
X011718Y018810D02*
X013610Y018810D01*
X011276Y019303D02*
X009849Y019303D01*
X010798Y016939D02*
X008327Y016939D01*
X008372Y016840D02*
X010753Y016840D01*
X010753Y016742D02*
X008372Y016742D01*
X008372Y016643D02*
X010753Y016643D01*
X010753Y016545D02*
X008372Y016545D01*
X008372Y016446D02*
X010753Y016446D01*
X010753Y016348D02*
X008372Y016348D01*
X008372Y016249D02*
X010753Y016249D01*
X007942Y013984D02*
X007072Y013984D01*
X007116Y013885D02*
X007872Y013885D01*
X007831Y013787D02*
X007116Y013787D01*
X006766Y013787D02*
X006666Y013787D01*
X006666Y013885D02*
X006766Y013885D01*
X006766Y013984D02*
X006666Y013984D01*
X006666Y013491D02*
X006766Y013491D01*
X006766Y013393D02*
X006666Y013393D01*
X006666Y013294D02*
X006766Y013294D01*
X006766Y013196D02*
X006666Y013196D01*
X006357Y013196D02*
X002972Y013196D01*
X002972Y013294D02*
X006316Y013294D01*
X006316Y013393D02*
X002972Y013393D01*
X002972Y013491D02*
X005408Y013491D01*
X005198Y013590D02*
X002972Y013590D01*
X003026Y013688D02*
X005099Y013688D01*
X005027Y013787D02*
X003098Y013787D01*
X003139Y013885D02*
X004986Y013885D01*
X004953Y013984D02*
X003172Y013984D01*
X003172Y014082D02*
X004953Y014082D01*
X004953Y014181D02*
X003172Y014181D01*
X003143Y014279D02*
X004953Y014279D01*
X004910Y014378D02*
X003103Y014378D01*
X003037Y014476D02*
X004811Y014476D01*
X004713Y014575D02*
X002938Y014575D01*
X002743Y014673D02*
X004614Y014673D01*
X004533Y014772D02*
X002601Y014772D01*
X002664Y014870D02*
X004492Y014870D01*
X004453Y014969D02*
X002726Y014969D01*
X002789Y015067D02*
X004453Y015067D01*
X004453Y015166D02*
X002851Y015166D01*
X002914Y015264D02*
X004453Y015264D01*
X004453Y015363D02*
X002976Y015363D01*
X003039Y015461D02*
X004453Y015461D01*
X004453Y015560D02*
X003108Y015560D01*
X003190Y015658D02*
X004429Y015658D01*
X004339Y015757D02*
X003271Y015757D01*
X003353Y015855D02*
X004299Y015855D01*
X004258Y015954D02*
X003434Y015954D01*
X003515Y016052D02*
X004253Y016052D01*
X004253Y016151D02*
X003597Y016151D01*
X003678Y016249D02*
X004260Y016249D01*
X004253Y016348D02*
X003760Y016348D01*
X003848Y016446D02*
X004253Y016446D01*
X004267Y016545D02*
X003953Y016545D01*
X004058Y016643D02*
X004308Y016643D01*
X004354Y016742D02*
X004162Y016742D01*
X004267Y016840D02*
X004452Y016840D01*
X004372Y016939D02*
X004551Y016939D01*
X004477Y017037D02*
X004649Y017037D01*
X004582Y017136D02*
X004748Y017136D01*
X004693Y017234D02*
X004846Y017234D01*
X004828Y017333D02*
X004945Y017333D01*
X004964Y017431D02*
X005043Y017431D01*
X005100Y017530D02*
X005142Y017530D01*
X005235Y017628D02*
X005240Y017628D01*
X006727Y015954D02*
X007410Y015954D01*
X007353Y015855D02*
X006688Y015855D01*
X006589Y015757D02*
X007353Y015757D01*
X007353Y015658D02*
X006491Y015658D01*
X005672Y015560D02*
X007353Y015560D01*
X007353Y015461D02*
X005672Y015461D01*
X005672Y015363D02*
X007353Y015363D01*
X006316Y013491D02*
X005717Y013491D01*
X003793Y012506D02*
X003732Y012506D01*
X003732Y012408D02*
X003793Y012408D01*
X003793Y012309D02*
X003732Y012309D01*
X003732Y012211D02*
X003793Y012211D01*
X003523Y012506D02*
X002972Y012506D01*
X002972Y012408D02*
X003425Y012408D01*
X003326Y012309D02*
X002972Y012309D01*
X002972Y012211D02*
X003298Y012211D01*
X004666Y010438D02*
X004766Y010438D01*
X004766Y010339D02*
X004666Y010339D01*
X004666Y010241D02*
X004766Y010241D01*
X004766Y009945D02*
X004666Y009945D01*
X004666Y009847D02*
X004766Y009847D01*
X004766Y009748D02*
X004666Y009748D01*
X004666Y009650D02*
X004766Y009650D01*
X003841Y009157D02*
X006843Y009157D01*
X006671Y009059D02*
X003743Y009059D01*
X003672Y008960D02*
X006572Y008960D01*
X006474Y008862D02*
X003672Y008862D01*
X003672Y008763D02*
X006375Y008763D01*
X006277Y008665D02*
X003672Y008665D01*
X003672Y008566D02*
X006178Y008566D01*
X006080Y008468D02*
X003672Y008468D01*
X003632Y008369D02*
X005981Y008369D01*
X005883Y008271D02*
X003591Y008271D01*
X003510Y008172D02*
X005784Y008172D01*
X005686Y008074D02*
X003411Y008074D01*
X002714Y008074D02*
X001548Y008074D01*
X001530Y008172D02*
X002615Y008172D01*
X002534Y008271D02*
X001511Y008271D01*
X001492Y008369D02*
X002493Y008369D01*
X002453Y008468D02*
X001473Y008468D01*
X001455Y008566D02*
X002453Y008566D01*
X002453Y008665D02*
X001436Y008665D01*
X001417Y008763D02*
X002453Y008763D01*
X002453Y008862D02*
X001398Y008862D01*
X001383Y008960D02*
X002453Y008960D01*
X002453Y009059D02*
X002033Y009059D01*
X002148Y009157D02*
X002453Y009157D01*
X002453Y009256D02*
X002239Y009256D01*
X002280Y009354D02*
X002453Y009354D01*
X002490Y009453D02*
X002320Y009453D01*
X002326Y009551D02*
X002531Y009551D01*
X002608Y009650D02*
X002326Y009650D01*
X002326Y009748D02*
X002707Y009748D01*
X002805Y009847D02*
X002326Y009847D01*
X002326Y009945D02*
X002904Y009945D01*
X003002Y010044D02*
X002326Y010044D01*
X002326Y010142D02*
X003154Y010142D01*
X001399Y009059D02*
X001377Y009059D01*
X001567Y007975D02*
X005587Y007975D01*
X004428Y007877D02*
X001586Y007877D01*
X001606Y007778D02*
X004390Y007778D01*
X004390Y007680D02*
X001638Y007680D01*
X001670Y007581D02*
X004390Y007581D01*
X004390Y007483D02*
X001702Y007483D01*
X001734Y007384D02*
X004390Y007384D01*
X004390Y007286D02*
X001766Y007286D01*
X001798Y007187D02*
X004390Y007187D01*
X004390Y007089D02*
X001830Y007089D01*
X001862Y006990D02*
X004390Y006990D01*
X004390Y006892D02*
X001894Y006892D01*
X001926Y006793D02*
X004390Y006793D01*
X004390Y006695D02*
X001958Y006695D01*
X002003Y006596D02*
X004390Y006596D01*
X004390Y006498D02*
X002049Y006498D01*
X002095Y006399D02*
X004390Y006399D01*
X004390Y006301D02*
X002142Y006301D01*
X002188Y006202D02*
X004390Y006202D01*
X004390Y006104D02*
X002234Y006104D01*
X002281Y006005D02*
X004390Y006005D01*
X004390Y005907D02*
X002327Y005907D01*
X002373Y005808D02*
X004390Y005808D01*
X004390Y005710D02*
X002420Y005710D01*
X002470Y005611D02*
X004390Y005611D01*
X004390Y005513D02*
X002532Y005513D01*
X002595Y005414D02*
X004390Y005414D01*
X004390Y005316D02*
X002657Y005316D01*
X003079Y004650D02*
X003820Y003755D01*
X003837Y003740D02*
X004055Y003740D01*
X004063Y003838D02*
X003751Y003838D01*
X003670Y003937D02*
X004104Y003937D01*
X004144Y004035D02*
X003588Y004035D01*
X003507Y004134D02*
X004238Y004134D01*
X004361Y004232D02*
X003425Y004232D01*
X003344Y004331D02*
X006100Y004331D01*
X006100Y004429D02*
X003262Y004429D01*
X003181Y004528D02*
X006100Y004528D01*
X006100Y004232D02*
X004969Y004232D01*
X005092Y004134D02*
X006100Y004134D01*
X006100Y004035D02*
X005190Y004035D01*
X005289Y003937D02*
X006100Y003937D01*
X006100Y003838D02*
X005332Y003838D01*
X005420Y003740D02*
X006100Y003740D01*
X006100Y003641D02*
X005518Y003641D01*
X005617Y003543D02*
X006135Y003543D01*
X006153Y003444D02*
X005715Y003444D01*
X005814Y003346D02*
X006153Y003346D01*
X006011Y003149D02*
X007421Y003149D01*
X007421Y003247D02*
X005912Y003247D01*
X006109Y003050D02*
X007421Y003050D01*
X007421Y002952D02*
X006208Y002952D01*
X006306Y002853D02*
X007421Y002853D01*
X007421Y002755D02*
X006405Y002755D01*
X006503Y002656D02*
X007441Y002656D01*
X007299Y002361D02*
X008996Y002361D01*
X008996Y002459D02*
X006700Y002459D01*
X006602Y002558D02*
X008996Y002558D01*
X008996Y002656D02*
X008684Y002656D01*
X008704Y002755D02*
X008996Y002755D01*
X008996Y002853D02*
X008735Y002853D01*
X008833Y002952D02*
X008996Y002952D01*
X008996Y003050D02*
X008932Y003050D01*
X008406Y003543D02*
X006785Y003543D01*
X006767Y003444D02*
X007468Y003444D01*
X007421Y003346D02*
X006767Y003346D01*
X006820Y003641D02*
X008505Y003641D01*
X007460Y003740D02*
X006820Y003740D01*
X006820Y003838D02*
X007421Y003838D01*
X007421Y003937D02*
X006820Y003937D01*
X006820Y004035D02*
X007421Y004035D01*
X007421Y004134D02*
X006820Y004134D01*
X006820Y004232D02*
X007421Y004232D01*
X007421Y004331D02*
X006820Y004331D01*
X006913Y004429D02*
X007421Y004429D01*
X007449Y004528D02*
X007012Y004528D01*
X007110Y004626D02*
X008041Y004626D01*
X008139Y004725D02*
X007209Y004725D01*
X007307Y004823D02*
X008238Y004823D01*
X008336Y004922D02*
X007406Y004922D01*
X007504Y005020D02*
X008374Y005020D01*
X008374Y005119D02*
X007603Y005119D01*
X007701Y005217D02*
X008325Y005217D01*
X008325Y005316D02*
X007800Y005316D01*
X007880Y005414D02*
X008325Y005414D01*
X008325Y005513D02*
X007921Y005513D01*
X007922Y005611D02*
X008325Y005611D01*
X008325Y005710D02*
X007922Y005710D01*
X007922Y005808D02*
X008325Y005808D01*
X008325Y005907D02*
X007922Y005907D01*
X007922Y006005D02*
X008346Y006005D01*
X008389Y006127D02*
X008325Y006192D01*
X008325Y006983D01*
X008389Y007048D01*
X009079Y007048D01*
X009143Y006983D01*
X009143Y006192D01*
X009079Y006127D01*
X008389Y006127D01*
X008325Y006202D02*
X007922Y006202D01*
X007922Y006104D02*
X009203Y006104D01*
X009203Y006202D02*
X009143Y006202D01*
X009143Y006301D02*
X009203Y006301D01*
X009203Y006399D02*
X009143Y006399D01*
X009143Y006498D02*
X009203Y006498D01*
X009203Y006596D02*
X009143Y006596D01*
X009143Y006695D02*
X009203Y006695D01*
X009203Y006793D02*
X009143Y006793D01*
X009143Y006892D02*
X009203Y006892D01*
X009203Y006990D02*
X009136Y006990D01*
X009203Y007089D02*
X008073Y007089D01*
X008171Y007187D02*
X008329Y007187D01*
X008331Y006990D02*
X007974Y006990D01*
X007922Y006892D02*
X008325Y006892D01*
X008325Y006793D02*
X007922Y006793D01*
X007922Y006695D02*
X008325Y006695D01*
X008325Y006596D02*
X007922Y006596D01*
X007922Y006498D02*
X008325Y006498D01*
X008325Y006399D02*
X007922Y006399D01*
X007922Y006301D02*
X008325Y006301D01*
X009121Y006005D02*
X009203Y006005D01*
X009203Y005907D02*
X009143Y005907D01*
X009143Y005808D02*
X009203Y005808D01*
X009203Y005710D02*
X009143Y005710D01*
X009143Y005611D02*
X009203Y005611D01*
X009203Y005513D02*
X009143Y005513D01*
X009143Y005414D02*
X009203Y005414D01*
X009203Y005316D02*
X009143Y005316D01*
X009143Y005217D02*
X009183Y005217D01*
X009126Y005119D02*
X009094Y005119D01*
X009094Y005020D02*
X009100Y005020D01*
X009094Y004922D02*
X009100Y004922D01*
X010922Y003247D02*
X011201Y003247D01*
X011201Y003149D02*
X010922Y003149D01*
X010922Y003050D02*
X011201Y003050D01*
X011201Y002952D02*
X010896Y002952D01*
X010837Y002853D02*
X011201Y002853D01*
X011201Y002755D02*
X010739Y002755D01*
X010640Y002656D02*
X011201Y002656D01*
X011201Y002558D02*
X010602Y002558D01*
X010700Y002459D02*
X011201Y002459D01*
X011201Y002361D02*
X010799Y002361D01*
X010897Y002262D02*
X011201Y002262D01*
X011201Y002164D02*
X010996Y002164D01*
X011094Y002065D02*
X011201Y002065D01*
X011193Y001967D02*
X011201Y001967D01*
X010667Y001474D02*
X009990Y001474D01*
X010126Y001376D02*
X010765Y001376D01*
X010864Y001277D02*
X010194Y001277D01*
X010235Y001179D02*
X010890Y001179D01*
X010888Y001080D02*
X010237Y001080D01*
X010229Y000982D02*
X010896Y000982D01*
X010937Y000883D02*
X010188Y000883D01*
X010568Y001573D02*
X009087Y001573D01*
X008988Y001671D02*
X010470Y001671D01*
X010371Y001770D02*
X008890Y001770D01*
X008791Y001868D02*
X009040Y001868D01*
X008996Y001967D02*
X007693Y001967D01*
X007594Y002065D02*
X008996Y002065D01*
X008996Y002164D02*
X007496Y002164D01*
X007397Y002262D02*
X008996Y002262D01*
X009185Y001474D02*
X009635Y001474D01*
X009880Y001868D02*
X010273Y001868D01*
X010174Y001967D02*
X009924Y001967D01*
X009924Y002065D02*
X010076Y002065D01*
X009977Y002164D02*
X009924Y002164D01*
X012810Y002065D02*
X013918Y002065D01*
X015002Y002065D02*
X015132Y002065D01*
X015002Y002164D02*
X015312Y002164D01*
X015491Y002262D02*
X015002Y002262D01*
X015002Y002361D02*
X015633Y002361D01*
X015769Y002459D02*
X015002Y002459D01*
X015002Y002558D02*
X015904Y002558D01*
X016040Y002656D02*
X015002Y002656D01*
X015002Y002755D02*
X016175Y002755D01*
X016311Y002853D02*
X014987Y002853D01*
X014987Y002952D02*
X016447Y002952D01*
X016554Y003050D02*
X014987Y003050D01*
X014987Y003149D02*
X016659Y003149D01*
X001063Y010088D02*
X001066Y010321D01*
X001074Y010554D01*
X001089Y010787D01*
X001109Y011019D01*
X001134Y011251D01*
X001166Y011482D01*
X001203Y011712D01*
X001246Y011941D01*
X001294Y012169D01*
X001348Y012396D01*
X001407Y012622D01*
X001472Y012846D01*
X001542Y013068D01*
X001618Y013288D01*
X001700Y013507D01*
X001786Y013723D01*
X001878Y013938D01*
X001975Y014150D01*
X002077Y014359D01*
X002185Y014566D01*
X002297Y014771D01*
X002415Y014972D01*
X002537Y015170D01*
X002664Y015366D01*
X002796Y015558D01*
X002933Y015747D01*
X003074Y015933D01*
X003219Y016115D01*
X003370Y016293D01*
X003524Y016468D01*
X003683Y016639D01*
X003845Y016806D01*
X004012Y016968D01*
X004183Y017127D01*
X004358Y017281D01*
X004536Y017432D01*
X004718Y017577D01*
X004904Y017718D01*
X005093Y017855D01*
X005285Y017987D01*
X005481Y018114D01*
X005679Y018236D01*
X005880Y018354D01*
X006085Y018466D01*
X006292Y018574D01*
X006501Y018676D01*
X006713Y018773D01*
X006928Y018865D01*
X007144Y018951D01*
X007363Y019033D01*
X007583Y019109D01*
X007805Y019179D01*
X008029Y019244D01*
X008255Y019303D01*
X008482Y019357D01*
X008710Y019405D01*
X008939Y019448D01*
X009169Y019485D01*
X009400Y019517D01*
X009632Y019542D01*
X009864Y019562D01*
X010097Y019577D01*
X010330Y019585D01*
X010563Y019588D01*
X010796Y019585D01*
X011029Y019577D01*
X011262Y019562D01*
X011494Y019542D01*
X011726Y019517D01*
X011957Y019485D01*
X012187Y019448D01*
X012416Y019405D01*
X012644Y019357D01*
X012871Y019303D01*
X013097Y019244D01*
X013321Y019179D01*
X013543Y019109D01*
X013763Y019033D01*
X013982Y018951D01*
X014198Y018865D01*
X014413Y018773D01*
X014625Y018676D01*
X014834Y018574D01*
X015041Y018466D01*
X015246Y018354D01*
X015447Y018236D01*
X015645Y018114D01*
X015841Y017987D01*
X016033Y017855D01*
X016222Y017718D01*
X016408Y017577D01*
X016590Y017432D01*
X016768Y017281D01*
X016943Y017127D01*
X017114Y016968D01*
X017281Y016806D01*
X017443Y016639D01*
X017602Y016468D01*
X017756Y016293D01*
X017907Y016115D01*
X018052Y015933D01*
X018193Y015747D01*
X018330Y015558D01*
X018462Y015366D01*
X018589Y015170D01*
X018711Y014972D01*
X018829Y014771D01*
X018941Y014566D01*
X019049Y014359D01*
X019151Y014150D01*
X019248Y013938D01*
X019340Y013723D01*
X019426Y013507D01*
X019508Y013288D01*
X019584Y013068D01*
X019654Y012846D01*
X019719Y012622D01*
X019778Y012396D01*
X019832Y012169D01*
X019880Y011941D01*
X019923Y011712D01*
X019960Y011482D01*
X019992Y011251D01*
X020017Y011019D01*
X020037Y010787D01*
X020052Y010554D01*
X020060Y010321D01*
X020063Y010088D01*
X020060Y009855D01*
X020052Y009622D01*
X020037Y009389D01*
X020017Y009157D01*
X019992Y008925D01*
X019960Y008694D01*
X019923Y008464D01*
X019880Y008235D01*
X019832Y008007D01*
X019778Y007780D01*
X019719Y007554D01*
X019654Y007330D01*
X019584Y007108D01*
X019508Y006888D01*
X019426Y006669D01*
X019340Y006453D01*
X019248Y006238D01*
X019151Y006026D01*
X019049Y005817D01*
X018941Y005610D01*
X018829Y005405D01*
X018711Y005204D01*
X018589Y005006D01*
X018462Y004810D01*
X018330Y004618D01*
X018193Y004429D01*
X018052Y004243D01*
X017907Y004061D01*
X017756Y003883D01*
X017602Y003708D01*
X017443Y003537D01*
X017281Y003370D01*
X017114Y003208D01*
X016943Y003049D01*
X016768Y002895D01*
X016590Y002744D01*
X016408Y002599D01*
X016222Y002458D01*
X016033Y002321D01*
X015841Y002189D01*
X015645Y002062D01*
X015447Y001940D01*
X015246Y001822D01*
X015041Y001710D01*
X014834Y001602D01*
X014625Y001500D01*
X014413Y001403D01*
X014198Y001311D01*
X013982Y001225D01*
X013763Y001143D01*
X013543Y001067D01*
X013321Y000997D01*
X013097Y000932D01*
X012871Y000873D01*
X012644Y000819D01*
X012416Y000771D01*
X012187Y000728D01*
X011957Y000691D01*
X011726Y000659D01*
X011494Y000634D01*
X011262Y000614D01*
X011029Y000599D01*
X010796Y000591D01*
X010563Y000588D01*
X010330Y000591D01*
X010097Y000599D01*
X009864Y000614D01*
X009632Y000634D01*
X009400Y000659D01*
X009169Y000691D01*
X008939Y000728D01*
X008710Y000771D01*
X008482Y000819D01*
X008255Y000873D01*
X008029Y000932D01*
X007805Y000997D01*
X007583Y001067D01*
X007363Y001143D01*
X007144Y001225D01*
X006928Y001311D01*
X006713Y001403D01*
X006501Y001500D01*
X006292Y001602D01*
X006085Y001710D01*
X005880Y001822D01*
X005679Y001940D01*
X005481Y002062D01*
X005285Y002189D01*
X005093Y002321D01*
X004904Y002458D01*
X004718Y002599D01*
X004536Y002744D01*
X004358Y002895D01*
X004183Y003049D01*
X004012Y003208D01*
X003845Y003370D01*
X003683Y003537D01*
X003524Y003708D01*
X003370Y003883D01*
X003219Y004061D01*
X003074Y004243D01*
X002933Y004429D01*
X002796Y004618D01*
X002664Y004810D01*
X002537Y005006D01*
X002415Y005204D01*
X002297Y005405D01*
X002185Y005610D01*
X002077Y005817D01*
X001975Y006026D01*
X001878Y006238D01*
X001786Y006453D01*
X001700Y006669D01*
X001618Y006888D01*
X001542Y007108D01*
X001472Y007330D01*
X001407Y007554D01*
X001348Y007780D01*
X001294Y008007D01*
X001246Y008235D01*
X001203Y008464D01*
X001166Y008694D01*
X001134Y008925D01*
X001109Y009157D01*
X001089Y009389D01*
X001074Y009622D01*
X001066Y009855D01*
X001063Y010088D01*
X007679Y010733D02*
X007776Y010733D01*
X007776Y010832D02*
X007679Y010832D01*
X007679Y010930D02*
X007776Y010930D01*
X007776Y011127D02*
X007679Y011127D01*
X007679Y011226D02*
X007776Y011226D01*
X007776Y011324D02*
X007679Y011324D01*
X008658Y010438D02*
X008678Y010438D01*
X009143Y007975D02*
X009166Y007975D01*
X009143Y007877D02*
X009203Y007877D01*
X009203Y007778D02*
X009143Y007778D01*
X009143Y007680D02*
X009203Y007680D01*
X009203Y007581D02*
X009143Y007581D01*
X009143Y007483D02*
X009203Y007483D01*
X009203Y007384D02*
X009143Y007384D01*
X009143Y007286D02*
X009203Y007286D01*
X009203Y007187D02*
X009138Y007187D01*
X004055Y003641D02*
X003941Y003641D01*
X004046Y003543D02*
X004069Y003543D01*
D11*
X007728Y010988D03*
X008397Y010988D03*
D12*
X003763Y012088D03*
X006263Y016088D03*
D13*
X004863Y016088D03*
X002363Y012088D03*
X008063Y010088D03*
X008063Y008588D03*
X009813Y001088D03*
X011313Y001088D03*
D14*
X003409Y009588D03*
X004716Y010088D03*
X006409Y010088D03*
X006716Y013588D03*
X008409Y013588D03*
X001716Y009588D03*
D15*
X003063Y008588D03*
X007063Y008588D03*
X005563Y014088D03*
X002563Y014088D03*
D16*
X007863Y015620D03*
X007863Y018480D03*
X011263Y018480D03*
X011263Y015620D03*
D17*
X011263Y016548D03*
X011263Y017558D03*
X007863Y016548D03*
D18*
X012563Y016253D03*
X012563Y016922D03*
D19*
X012563Y017733D03*
X012563Y018442D03*
X013563Y018442D03*
X013563Y017733D03*
X013563Y016942D03*
X013563Y016233D03*
X013563Y008442D03*
X013563Y007733D03*
X014563Y007733D03*
X014563Y008442D03*
D20*
X014563Y016241D03*
X014563Y017934D03*
D21*
X008212Y012088D03*
X006913Y012088D03*
D22*
X009460Y004088D03*
X009460Y002588D03*
X011665Y002588D03*
X011665Y004088D03*
D23*
X012391Y005588D03*
X012391Y006588D03*
X012391Y007588D03*
X008734Y007588D03*
X008734Y006588D03*
X008734Y005588D03*
D24*
X015563Y007792D03*
X015563Y008383D03*
D25*
X014563Y006465D03*
X013563Y006465D03*
X013563Y002710D03*
X014563Y002710D03*
D26*
X008063Y003036D03*
X008063Y004139D03*
D27*
X010104Y012088D03*
X014021Y012088D03*
D28*
X005563Y006572D03*
D29*
X006460Y003698D03*
X004665Y003698D03*
D30*
X004775Y003588D01*
X005563Y007088D02*
X007063Y008588D01*
X008063Y008588D01*
X004913Y010088D02*
X006913Y012088D01*
X006913Y013391D01*
X005563Y014088D02*
X005563Y014588D01*
X005063Y015088D01*
X005063Y015888D01*
X004863Y016088D01*
X004863Y016388D02*
X006063Y017588D01*
X006970Y017588D01*
X007863Y018480D01*
X011263Y015620D02*
X010104Y014461D01*
X009283Y014461D01*
X008409Y013588D01*
X010104Y014461D02*
X010104Y012088D01*
X014021Y012088D02*
X014863Y012088D01*
X016463Y013688D01*
X018549Y013688D01*
X014563Y012629D02*
X014563Y016241D01*
X004716Y010088D02*
X003763Y011041D01*
X003763Y012088D01*
X002363Y012088D02*
X002363Y013888D01*
X002563Y014088D01*
X002363Y012088D02*
X001716Y011441D01*
X001716Y009588D01*
X003063Y009241D02*
X003063Y008588D01*
X003063Y009241D02*
X003409Y009588D01*
D31*
X004716Y010088D02*
X004913Y010088D01*
X006409Y010088D02*
X008063Y010088D01*
X008563Y010088D01*
X010563Y008088D01*
X010563Y003088D01*
X010063Y002588D01*
X011313Y001338D01*
X011313Y001088D01*
X009813Y001088D02*
X009063Y001088D01*
X008563Y001588D01*
X007563Y001588D01*
X007063Y002088D01*
X006563Y002088D01*
X005063Y003588D01*
X004775Y003588D01*
X006460Y003698D02*
X006460Y004485D01*
X007563Y005588D01*
X007563Y007088D01*
X008063Y007588D01*
X008734Y007588D01*
X009563Y008088D02*
X009063Y008588D01*
X008063Y008588D01*
X009563Y008088D02*
X009563Y005088D01*
X009460Y004985D01*
X009460Y004088D01*
X008409Y003036D01*
X008063Y003036D01*
X008063Y004139D02*
X008734Y004810D01*
X008734Y005588D01*
X009460Y002588D02*
X010063Y002588D01*
X012100Y010775D02*
X012500Y010775D01*
X013813Y012088D01*
X014021Y012088D02*
X014563Y012629D01*
X004863Y016088D02*
X004863Y016388D01*
D32*
X005563Y007088D02*
X005663Y006788D01*
X005663Y006588D01*
X005563Y006572D01*
D33*
X006913Y013391D02*
X006716Y013588D01*
X006716Y015634D01*
X006263Y016088D01*
D34*
X007063Y011088D03*
X013100Y008875D03*
X013725Y007238D03*
D35*
X016475Y003663D03*
X016813Y015988D03*
X003500Y015150D03*
X003275Y005488D03*
D36*
X008397Y010988D02*
X009972Y009413D01*
X013688Y009413D01*
X013688Y012088D01*
X013813Y012088D01*
X014021Y012088D01*
X013129Y008875D02*
X013563Y008442D01*
X013129Y008875D02*
X013100Y008875D01*
X013725Y007238D02*
X013563Y007075D01*
X013563Y006465D01*
D37*
X012100Y010775D03*
D38*
X012063Y004088D02*
X011665Y004088D01*
X012063Y004088D02*
X013440Y002710D01*
X013563Y002710D01*
X014563Y002710D02*
X014563Y002088D01*
X014063Y001588D01*
X012563Y001588D01*
X012563Y001690D01*
X011665Y002588D01*
M02*
