G75*
G70*
%OFA0B0*%
%FSLAX24Y24*%
%IPPOS*%
%LPD*%
%AMOC8*
5,1,8,0,0,1.08239X$1,22.5*
%
%ADD10OC8,0.0630*%
%ADD11C,0.0630*%
%ADD12OC8,0.0660*%
%ADD13R,0.0335X0.0669*%
%ADD14C,0.0340*%
%ADD15C,0.0100*%
%ADD16C,0.0827*%
%ADD17C,0.0320*%
%ADD18C,0.0376*%
%ADD19C,0.0160*%
D10*
X003763Y012088D03*
X006263Y016088D03*
D11*
X004863Y016088D03*
X002363Y012088D03*
X008063Y010088D03*
X008063Y008588D03*
X009813Y001088D03*
X011313Y001088D03*
D12*
X007063Y008588D03*
X003063Y008588D03*
X002563Y014088D03*
X005563Y014088D03*
D13*
X009750Y014959D03*
X010537Y013778D03*
X011325Y014959D03*
X012112Y013778D03*
X012900Y014959D03*
X013687Y013778D03*
X014474Y014959D03*
X015262Y013778D03*
X016049Y014959D03*
X016837Y013778D03*
X016049Y006297D03*
X015262Y005116D03*
X014474Y006297D03*
X013687Y005116D03*
X012900Y006297D03*
X012112Y005116D03*
X011325Y006297D03*
X010537Y005116D03*
X009750Y006297D03*
X016837Y005116D03*
D14*
X013725Y007238D03*
X013100Y008875D03*
X007063Y011088D03*
D15*
X003079Y004650D02*
X003820Y003755D01*
X004666Y002960D01*
X005606Y002277D01*
X006624Y001718D01*
X007704Y001290D01*
X008829Y001001D01*
X009419Y000927D01*
X009388Y001003D01*
X009388Y001172D01*
X009452Y001328D01*
X009572Y001448D01*
X009728Y001512D01*
X009897Y001512D01*
X010053Y001448D01*
X010173Y001328D01*
X010237Y001172D01*
X010237Y001003D01*
X010177Y000856D01*
X010948Y000856D01*
X010888Y001003D01*
X010888Y001172D01*
X010952Y001328D01*
X011072Y001448D01*
X011228Y001512D01*
X011397Y001512D01*
X011553Y001448D01*
X011673Y001328D01*
X011737Y001172D01*
X011737Y001003D01*
X011706Y000927D01*
X012296Y001001D01*
X013421Y001290D01*
X014501Y001718D01*
X015519Y002277D01*
X016459Y002960D01*
X017305Y003755D01*
X017305Y003755D01*
X018046Y004650D01*
X018668Y005631D01*
X019163Y006682D01*
X019522Y007787D01*
X019740Y008928D01*
X019813Y010087D01*
X019740Y011247D01*
X019522Y012388D01*
X019163Y013493D01*
X018668Y014544D01*
X018046Y015525D01*
X017305Y016420D01*
X016459Y017215D01*
X015519Y017898D01*
X014501Y018457D01*
X013421Y018885D01*
X012296Y019174D01*
X011143Y019319D01*
X009982Y019319D01*
X008829Y019174D01*
X007704Y018885D01*
X006624Y018457D01*
X005606Y017898D01*
X004666Y017215D01*
X003820Y016420D01*
X003079Y015525D01*
X002457Y014544D01*
X002449Y014527D01*
X002745Y014527D01*
X003002Y014270D01*
X003002Y013905D01*
X002745Y013648D01*
X002380Y013648D01*
X002145Y013882D01*
X001962Y013493D01*
X001603Y012388D01*
X001385Y011247D01*
X001312Y010087D01*
X001385Y008928D01*
X001603Y007787D01*
X001962Y006682D01*
X002457Y005631D01*
X003079Y004650D01*
X003099Y004626D02*
X006793Y004626D01*
X006793Y004528D02*
X003181Y004528D01*
X003262Y004429D02*
X006793Y004429D01*
X006793Y004331D02*
X003344Y004331D01*
X003425Y004232D02*
X006793Y004232D01*
X006793Y004184D02*
X006834Y004085D01*
X006910Y004009D01*
X007322Y003596D01*
X007421Y003555D01*
X015599Y003555D01*
X015698Y003596D01*
X015774Y003672D01*
X016774Y004672D01*
X017049Y004672D01*
X017114Y004736D01*
X017114Y005496D01*
X017049Y005561D01*
X016624Y005561D01*
X016559Y005496D01*
X016559Y005221D01*
X015433Y004095D01*
X007587Y004095D01*
X007332Y004349D01*
X007332Y005626D01*
X012201Y010494D01*
X012269Y010522D01*
X012353Y010606D01*
X012398Y010716D01*
X012398Y010834D01*
X012353Y010944D01*
X012269Y011028D01*
X012159Y011073D01*
X012041Y011073D01*
X011931Y011028D01*
X011847Y010944D01*
X011819Y010876D01*
X006910Y005966D01*
X006834Y005890D01*
X006124Y005181D01*
X006083Y005082D01*
X006083Y004975D01*
X006124Y004875D01*
X006200Y004799D01*
X006300Y004758D01*
X006407Y004758D01*
X006506Y004799D01*
X006793Y005086D01*
X006793Y004184D01*
X006813Y004134D02*
X003507Y004134D01*
X003588Y004035D02*
X006883Y004035D01*
X006982Y003937D02*
X003670Y003937D01*
X003751Y003838D02*
X007080Y003838D01*
X007179Y003740D02*
X003837Y003740D01*
X003941Y003641D02*
X007277Y003641D01*
X007548Y004134D02*
X015472Y004134D01*
X015570Y004232D02*
X007450Y004232D01*
X007351Y004331D02*
X015669Y004331D01*
X015767Y004429D02*
X007332Y004429D01*
X007332Y004528D02*
X015866Y004528D01*
X015964Y004626D02*
X007332Y004626D01*
X007332Y004725D02*
X010271Y004725D01*
X010260Y004736D02*
X010324Y004672D01*
X010750Y004672D01*
X010815Y004736D01*
X010815Y005496D01*
X010750Y005561D01*
X010324Y005561D01*
X010260Y005496D01*
X010260Y004736D01*
X010260Y004823D02*
X007332Y004823D01*
X007332Y004922D02*
X010260Y004922D01*
X010260Y005020D02*
X007332Y005020D01*
X007332Y005119D02*
X010260Y005119D01*
X010260Y005217D02*
X007332Y005217D01*
X007332Y005316D02*
X010260Y005316D01*
X010260Y005414D02*
X007332Y005414D01*
X007332Y005513D02*
X010276Y005513D01*
X010009Y005843D02*
X010037Y005871D01*
X010057Y005905D01*
X010067Y005943D01*
X010067Y006264D01*
X009784Y006264D01*
X009784Y006331D01*
X010067Y006331D01*
X010067Y006652D01*
X010057Y006690D01*
X010037Y006724D01*
X010009Y006752D01*
X009975Y006772D01*
X009937Y006782D01*
X009784Y006782D01*
X009784Y006331D01*
X009716Y006331D01*
X009716Y006264D01*
X009433Y006264D01*
X009433Y005943D01*
X009443Y005905D01*
X009463Y005871D01*
X009490Y005843D01*
X009525Y005823D01*
X009563Y005813D01*
X009716Y005813D01*
X009716Y006264D01*
X009784Y006264D01*
X009784Y005813D01*
X009937Y005813D01*
X009975Y005823D01*
X010009Y005843D01*
X010057Y005907D02*
X011058Y005907D01*
X011047Y005917D02*
X011112Y005853D01*
X011538Y005853D01*
X011602Y005917D01*
X011602Y006678D01*
X011538Y006742D01*
X011112Y006742D01*
X011047Y006678D01*
X011047Y005917D01*
X011047Y006005D02*
X010067Y006005D01*
X010067Y006104D02*
X011047Y006104D01*
X011047Y006202D02*
X010067Y006202D01*
X010067Y006399D02*
X011047Y006399D01*
X011047Y006301D02*
X009784Y006301D01*
X009716Y006301D02*
X008007Y006301D01*
X008106Y006399D02*
X009433Y006399D01*
X009433Y006331D02*
X009716Y006331D01*
X009716Y006782D01*
X009563Y006782D01*
X009525Y006772D01*
X009490Y006752D01*
X009463Y006724D01*
X009443Y006690D01*
X009433Y006652D01*
X009433Y006331D01*
X009433Y006202D02*
X007909Y006202D01*
X007810Y006104D02*
X009433Y006104D01*
X009433Y006005D02*
X007712Y006005D01*
X007613Y005907D02*
X009442Y005907D01*
X009716Y005907D02*
X009784Y005907D01*
X009784Y006005D02*
X009716Y006005D01*
X009716Y006104D02*
X009784Y006104D01*
X009784Y006202D02*
X009716Y006202D01*
X009716Y006399D02*
X009784Y006399D01*
X009784Y006498D02*
X009716Y006498D01*
X009716Y006596D02*
X009784Y006596D01*
X009784Y006695D02*
X009716Y006695D01*
X010054Y006695D02*
X011064Y006695D01*
X011047Y006596D02*
X010067Y006596D01*
X010067Y006498D02*
X011047Y006498D01*
X011585Y006695D02*
X012639Y006695D01*
X012622Y006678D02*
X012622Y005917D01*
X012687Y005853D01*
X013112Y005853D01*
X013177Y005917D01*
X013177Y006678D01*
X013112Y006742D01*
X013090Y006742D01*
X013090Y008595D01*
X013156Y008595D01*
X013259Y008638D01*
X013337Y008716D01*
X013380Y008819D01*
X013380Y008931D01*
X013337Y009034D01*
X013259Y009112D01*
X013156Y009155D01*
X013044Y009155D01*
X012941Y009112D01*
X012863Y009034D01*
X012820Y008931D01*
X012820Y008864D01*
X012710Y008753D01*
X012710Y006742D01*
X012687Y006742D01*
X012622Y006678D01*
X012622Y006596D02*
X011602Y006596D01*
X011602Y006498D02*
X012622Y006498D01*
X012622Y006399D02*
X011602Y006399D01*
X011602Y006301D02*
X012622Y006301D01*
X012622Y006202D02*
X011602Y006202D01*
X011602Y006104D02*
X012622Y006104D01*
X012622Y006005D02*
X011602Y006005D01*
X011591Y005907D02*
X012633Y005907D01*
X012325Y005561D02*
X011899Y005561D01*
X011835Y005496D01*
X011835Y004736D01*
X011899Y004672D01*
X012325Y004672D01*
X012389Y004736D01*
X012389Y005496D01*
X012325Y005561D01*
X012373Y005513D02*
X013426Y005513D01*
X013410Y005496D02*
X013410Y004736D01*
X013474Y004672D01*
X013900Y004672D01*
X013964Y004736D01*
X013964Y005496D01*
X013900Y005561D01*
X013474Y005561D01*
X013410Y005496D01*
X013410Y005414D02*
X012389Y005414D01*
X012389Y005316D02*
X013410Y005316D01*
X013410Y005217D02*
X012389Y005217D01*
X012389Y005119D02*
X013410Y005119D01*
X013410Y005020D02*
X012389Y005020D01*
X012389Y004922D02*
X013410Y004922D01*
X013410Y004823D02*
X012389Y004823D01*
X012378Y004725D02*
X013421Y004725D01*
X013953Y004725D02*
X014996Y004725D01*
X014984Y004736D02*
X015049Y004672D01*
X015475Y004672D01*
X015539Y004736D01*
X015539Y005496D01*
X015475Y005561D01*
X015049Y005561D01*
X014984Y005496D01*
X014984Y004736D01*
X014984Y004823D02*
X013964Y004823D01*
X013964Y004922D02*
X014984Y004922D01*
X014984Y005020D02*
X013964Y005020D01*
X013964Y005119D02*
X014984Y005119D01*
X014984Y005217D02*
X013964Y005217D01*
X013964Y005316D02*
X014984Y005316D01*
X014984Y005414D02*
X013964Y005414D01*
X013948Y005513D02*
X015000Y005513D01*
X014687Y005853D02*
X014752Y005917D01*
X014752Y006678D01*
X014687Y006742D01*
X014298Y006742D01*
X013962Y007078D01*
X013962Y007079D01*
X014005Y007182D01*
X014005Y007293D01*
X013962Y007396D01*
X013884Y007475D01*
X013781Y007517D01*
X013669Y007517D01*
X013566Y007475D01*
X013488Y007396D01*
X013445Y007293D01*
X013445Y007182D01*
X013488Y007079D01*
X013535Y007032D01*
X013535Y006968D01*
X013646Y006857D01*
X014197Y006306D01*
X014197Y005917D01*
X014261Y005853D01*
X014687Y005853D01*
X014741Y005907D02*
X015782Y005907D01*
X015772Y005917D02*
X015836Y005853D01*
X016262Y005853D01*
X016326Y005917D01*
X016326Y006678D01*
X016262Y006742D01*
X015836Y006742D01*
X015772Y006678D01*
X015772Y005917D01*
X015772Y006005D02*
X014752Y006005D01*
X014752Y006104D02*
X015772Y006104D01*
X015772Y006202D02*
X014752Y006202D01*
X014752Y006301D02*
X015772Y006301D01*
X015772Y006399D02*
X014752Y006399D01*
X014752Y006498D02*
X015772Y006498D01*
X015772Y006596D02*
X014752Y006596D01*
X014735Y006695D02*
X015789Y006695D01*
X016309Y006695D02*
X019167Y006695D01*
X019199Y006793D02*
X014247Y006793D01*
X014149Y006892D02*
X019231Y006892D01*
X019263Y006990D02*
X014050Y006990D01*
X013966Y007089D02*
X019295Y007089D01*
X019327Y007187D02*
X014005Y007187D01*
X014005Y007286D02*
X019359Y007286D01*
X019391Y007384D02*
X013967Y007384D01*
X013865Y007483D02*
X019423Y007483D01*
X019455Y007581D02*
X013090Y007581D01*
X013090Y007483D02*
X013585Y007483D01*
X013483Y007384D02*
X013090Y007384D01*
X013090Y007286D02*
X013445Y007286D01*
X013445Y007187D02*
X013090Y007187D01*
X013090Y007089D02*
X013484Y007089D01*
X013535Y006990D02*
X013090Y006990D01*
X013090Y006892D02*
X013611Y006892D01*
X013646Y006857D02*
X013646Y006857D01*
X013710Y006793D02*
X013090Y006793D01*
X013160Y006695D02*
X013808Y006695D01*
X013907Y006596D02*
X013177Y006596D01*
X013177Y006498D02*
X014005Y006498D01*
X014104Y006399D02*
X013177Y006399D01*
X013177Y006301D02*
X014197Y006301D01*
X014197Y006202D02*
X013177Y006202D01*
X013177Y006104D02*
X014197Y006104D01*
X014197Y006005D02*
X013177Y006005D01*
X013166Y005907D02*
X014208Y005907D01*
X015523Y005513D02*
X016575Y005513D01*
X016559Y005414D02*
X015539Y005414D01*
X015539Y005316D02*
X016559Y005316D01*
X016555Y005217D02*
X015539Y005217D01*
X015539Y005119D02*
X016457Y005119D01*
X016358Y005020D02*
X015539Y005020D01*
X015539Y004922D02*
X016260Y004922D01*
X016161Y004823D02*
X015539Y004823D01*
X015528Y004725D02*
X016063Y004725D01*
X016433Y004331D02*
X017781Y004331D01*
X017863Y004429D02*
X016531Y004429D01*
X016630Y004528D02*
X017944Y004528D01*
X018026Y004626D02*
X016728Y004626D01*
X017102Y004725D02*
X018093Y004725D01*
X018155Y004823D02*
X017114Y004823D01*
X017114Y004922D02*
X018218Y004922D01*
X018280Y005020D02*
X017114Y005020D01*
X017114Y005119D02*
X018343Y005119D01*
X018405Y005217D02*
X017114Y005217D01*
X017114Y005316D02*
X018468Y005316D01*
X018530Y005414D02*
X017114Y005414D01*
X017098Y005513D02*
X018593Y005513D01*
X018655Y005611D02*
X007332Y005611D01*
X007416Y005710D02*
X018705Y005710D01*
X018752Y005808D02*
X007515Y005808D01*
X007145Y006202D02*
X002188Y006202D01*
X002142Y006301D02*
X007244Y006301D01*
X007342Y006399D02*
X002095Y006399D01*
X002049Y006498D02*
X007441Y006498D01*
X007539Y006596D02*
X002003Y006596D01*
X001958Y006695D02*
X007638Y006695D01*
X007736Y006793D02*
X001926Y006793D01*
X001894Y006892D02*
X007835Y006892D01*
X007933Y006990D02*
X001862Y006990D01*
X001830Y007089D02*
X008032Y007089D01*
X008130Y007187D02*
X001798Y007187D01*
X001766Y007286D02*
X008229Y007286D01*
X008327Y007384D02*
X001734Y007384D01*
X001702Y007483D02*
X008426Y007483D01*
X008524Y007581D02*
X001670Y007581D01*
X001638Y007680D02*
X008623Y007680D01*
X008721Y007778D02*
X001606Y007778D01*
X001586Y007877D02*
X008820Y007877D01*
X008918Y007975D02*
X001567Y007975D01*
X001548Y008074D02*
X009017Y008074D01*
X009115Y008172D02*
X008170Y008172D01*
X008147Y008163D02*
X008303Y008227D01*
X008423Y008347D01*
X008487Y008503D01*
X008487Y008672D01*
X008423Y008828D01*
X008303Y008948D01*
X008147Y009012D01*
X007978Y009012D01*
X007822Y008948D01*
X007702Y008828D01*
X007638Y008672D01*
X007638Y008503D01*
X007702Y008347D01*
X007822Y008227D01*
X007978Y008163D01*
X008147Y008163D01*
X007955Y008172D02*
X007269Y008172D01*
X007245Y008148D02*
X007502Y008405D01*
X007502Y008770D01*
X007245Y009027D01*
X006880Y009027D01*
X006623Y008770D01*
X006623Y008405D01*
X006880Y008148D01*
X007245Y008148D01*
X007368Y008271D02*
X007778Y008271D01*
X007693Y008369D02*
X007466Y008369D01*
X007502Y008468D02*
X007652Y008468D01*
X007638Y008566D02*
X007502Y008566D01*
X007502Y008665D02*
X007638Y008665D01*
X007675Y008763D02*
X007502Y008763D01*
X007411Y008862D02*
X007735Y008862D01*
X007851Y008960D02*
X007312Y008960D01*
X006813Y008960D02*
X003312Y008960D01*
X003245Y009027D02*
X002880Y009027D01*
X002623Y008770D01*
X002623Y008405D01*
X002880Y008148D01*
X003245Y008148D01*
X003502Y008405D01*
X003502Y008770D01*
X003245Y009027D01*
X003411Y008862D02*
X006714Y008862D01*
X006623Y008763D02*
X003502Y008763D01*
X003502Y008665D02*
X006623Y008665D01*
X006623Y008566D02*
X003502Y008566D01*
X003502Y008468D02*
X006623Y008468D01*
X006659Y008369D02*
X003466Y008369D01*
X003368Y008271D02*
X006757Y008271D01*
X006856Y008172D02*
X003269Y008172D01*
X002856Y008172D02*
X001530Y008172D01*
X001511Y008271D02*
X002757Y008271D01*
X002659Y008369D02*
X001492Y008369D01*
X001473Y008468D02*
X002623Y008468D01*
X002623Y008566D02*
X001455Y008566D01*
X001436Y008665D02*
X002623Y008665D01*
X002623Y008763D02*
X001417Y008763D01*
X001398Y008862D02*
X002714Y008862D01*
X002813Y008960D02*
X001383Y008960D01*
X001377Y009059D02*
X010002Y009059D01*
X010100Y009157D02*
X001371Y009157D01*
X001365Y009256D02*
X010199Y009256D01*
X010297Y009354D02*
X001359Y009354D01*
X001352Y009453D02*
X010396Y009453D01*
X010494Y009551D02*
X001346Y009551D01*
X001340Y009650D02*
X010593Y009650D01*
X010691Y009748D02*
X008324Y009748D01*
X008303Y009727D02*
X008423Y009847D01*
X008487Y010003D01*
X008487Y010172D01*
X008423Y010328D01*
X008303Y010448D01*
X008147Y010512D01*
X007978Y010512D01*
X007822Y010448D01*
X007702Y010328D01*
X007638Y010172D01*
X007638Y010003D01*
X007702Y009847D01*
X007822Y009727D01*
X007978Y009663D01*
X008147Y009663D01*
X008303Y009727D01*
X008423Y009847D02*
X010790Y009847D01*
X010888Y009945D02*
X008463Y009945D01*
X008487Y010044D02*
X010987Y010044D01*
X011085Y010142D02*
X008487Y010142D01*
X008459Y010241D02*
X011184Y010241D01*
X011282Y010339D02*
X008412Y010339D01*
X008314Y010438D02*
X011381Y010438D01*
X011479Y010536D02*
X001341Y010536D01*
X001335Y010438D02*
X007811Y010438D01*
X007713Y010339D02*
X001328Y010339D01*
X001322Y010241D02*
X007666Y010241D01*
X007638Y010142D02*
X001316Y010142D01*
X001315Y010044D02*
X007638Y010044D01*
X007661Y009945D02*
X001321Y009945D01*
X001328Y009847D02*
X007702Y009847D01*
X007801Y009748D02*
X001334Y009748D01*
X001347Y010635D02*
X011578Y010635D01*
X011676Y010733D02*
X001353Y010733D01*
X001359Y010832D02*
X011775Y010832D01*
X011842Y010930D02*
X001366Y010930D01*
X001372Y011029D02*
X011933Y011029D01*
X012267Y011029D02*
X019753Y011029D01*
X019747Y011127D02*
X001378Y011127D01*
X001384Y011226D02*
X019741Y011226D01*
X019725Y011324D02*
X001400Y011324D01*
X001419Y011423D02*
X019706Y011423D01*
X019687Y011521D02*
X001438Y011521D01*
X001457Y011620D02*
X019668Y011620D01*
X019650Y011718D02*
X004051Y011718D01*
X003955Y011623D02*
X004227Y011895D01*
X004227Y012057D01*
X003793Y012057D01*
X003793Y012118D01*
X004227Y012118D01*
X004227Y012280D01*
X003955Y012552D01*
X003793Y012552D01*
X003793Y012118D01*
X003732Y012118D01*
X003732Y012552D01*
X003570Y012552D01*
X003298Y012280D01*
X003298Y012118D01*
X003732Y012118D01*
X003732Y012057D01*
X003793Y012057D01*
X003793Y011623D01*
X003955Y011623D01*
X003793Y011718D02*
X003732Y011718D01*
X003732Y011623D02*
X003732Y012057D01*
X003298Y012057D01*
X003298Y011895D01*
X003570Y011623D01*
X003732Y011623D01*
X003732Y011817D02*
X003793Y011817D01*
X003793Y011915D02*
X003732Y011915D01*
X003732Y012014D02*
X003793Y012014D01*
X003793Y012112D02*
X019575Y012112D01*
X019593Y012014D02*
X004227Y012014D01*
X004227Y011915D02*
X019612Y011915D01*
X019631Y011817D02*
X004149Y011817D01*
X004227Y012211D02*
X019556Y012211D01*
X019537Y012309D02*
X004199Y012309D01*
X004100Y012408D02*
X019516Y012408D01*
X019484Y012506D02*
X004002Y012506D01*
X003793Y012506D02*
X003732Y012506D01*
X003732Y012408D02*
X003793Y012408D01*
X003793Y012309D02*
X003732Y012309D01*
X003732Y012211D02*
X003793Y012211D01*
X003732Y012112D02*
X002787Y012112D01*
X002787Y012172D02*
X002787Y012003D01*
X002723Y011847D01*
X002603Y011727D01*
X002447Y011663D01*
X002278Y011663D01*
X002122Y011727D01*
X002002Y011847D01*
X001938Y012003D01*
X001938Y012172D01*
X002002Y012328D01*
X002122Y012448D01*
X002278Y012512D01*
X002447Y012512D01*
X002603Y012448D01*
X002723Y012328D01*
X002787Y012172D01*
X002772Y012211D02*
X003298Y012211D01*
X003326Y012309D02*
X002731Y012309D01*
X002644Y012408D02*
X003425Y012408D01*
X003523Y012506D02*
X002463Y012506D01*
X002262Y012506D02*
X001641Y012506D01*
X001609Y012408D02*
X002081Y012408D01*
X001994Y012309D02*
X001588Y012309D01*
X001569Y012211D02*
X001953Y012211D01*
X001938Y012112D02*
X001550Y012112D01*
X001532Y012014D02*
X001938Y012014D01*
X001974Y011915D02*
X001513Y011915D01*
X001494Y011817D02*
X002032Y011817D01*
X002144Y011718D02*
X001475Y011718D01*
X001673Y012605D02*
X019452Y012605D01*
X019419Y012703D02*
X001706Y012703D01*
X001738Y012802D02*
X019387Y012802D01*
X019355Y012900D02*
X001770Y012900D01*
X001802Y012999D02*
X019323Y012999D01*
X019291Y013097D02*
X001834Y013097D01*
X001866Y013196D02*
X019259Y013196D01*
X019227Y013294D02*
X001898Y013294D01*
X001930Y013393D02*
X010265Y013393D01*
X010260Y013397D02*
X010324Y013333D01*
X010750Y013333D01*
X010815Y013397D01*
X010815Y014158D01*
X010750Y014222D01*
X010324Y014222D01*
X010260Y014158D01*
X010260Y013397D01*
X010260Y013491D02*
X001962Y013491D01*
X002008Y013590D02*
X010260Y013590D01*
X010260Y013688D02*
X005785Y013688D01*
X005745Y013648D02*
X006002Y013905D01*
X006002Y014270D01*
X005745Y014527D01*
X005380Y014527D01*
X005123Y014270D01*
X005123Y013905D01*
X005380Y013648D01*
X005745Y013648D01*
X005884Y013787D02*
X010260Y013787D01*
X010260Y013885D02*
X005982Y013885D01*
X006002Y013984D02*
X010260Y013984D01*
X010260Y014082D02*
X006002Y014082D01*
X006002Y014181D02*
X010283Y014181D01*
X010009Y014504D02*
X010037Y014532D01*
X010057Y014566D01*
X010067Y014604D01*
X010067Y014925D01*
X009784Y014925D01*
X009784Y014992D01*
X010067Y014992D01*
X010067Y015313D01*
X010057Y015351D01*
X010037Y015386D01*
X010009Y015413D01*
X009975Y015433D01*
X009937Y015443D01*
X009784Y015443D01*
X009784Y014992D01*
X009716Y014992D01*
X009716Y014925D01*
X009433Y014925D01*
X009433Y014604D01*
X009443Y014566D01*
X009463Y014532D01*
X009490Y014504D01*
X009525Y014484D01*
X009563Y014474D01*
X009716Y014474D01*
X009716Y014925D01*
X009784Y014925D01*
X009784Y014474D01*
X009937Y014474D01*
X009975Y014484D01*
X010009Y014504D01*
X009944Y014476D02*
X018700Y014476D01*
X018747Y014378D02*
X005895Y014378D01*
X005796Y014476D02*
X009556Y014476D01*
X009441Y014575D02*
X002476Y014575D01*
X002539Y014673D02*
X009433Y014673D01*
X009433Y014772D02*
X002601Y014772D01*
X002664Y014870D02*
X009433Y014870D01*
X009433Y014992D02*
X009716Y014992D01*
X009716Y015443D01*
X009563Y015443D01*
X009525Y015433D01*
X009490Y015413D01*
X009463Y015386D01*
X009443Y015351D01*
X009433Y015313D01*
X009433Y014992D01*
X009433Y015067D02*
X002789Y015067D01*
X002851Y015166D02*
X009433Y015166D01*
X009433Y015264D02*
X002914Y015264D01*
X002976Y015363D02*
X009449Y015363D01*
X009716Y015363D02*
X009784Y015363D01*
X009784Y015264D02*
X009716Y015264D01*
X009716Y015166D02*
X009784Y015166D01*
X009784Y015067D02*
X009716Y015067D01*
X009716Y014969D02*
X002726Y014969D01*
X002796Y014476D02*
X005329Y014476D01*
X005230Y014378D02*
X002895Y014378D01*
X002993Y014279D02*
X005132Y014279D01*
X005123Y014181D02*
X003002Y014181D01*
X003002Y014082D02*
X005123Y014082D01*
X005123Y013984D02*
X003002Y013984D01*
X002982Y013885D02*
X005143Y013885D01*
X005241Y013787D02*
X002884Y013787D01*
X002785Y013688D02*
X005340Y013688D01*
X005993Y014279D02*
X018793Y014279D01*
X018839Y014181D02*
X017091Y014181D01*
X017114Y014158D02*
X017049Y014222D01*
X016624Y014222D01*
X016559Y014158D01*
X016559Y013397D01*
X016624Y013333D01*
X017049Y013333D01*
X017114Y013397D01*
X017114Y014158D01*
X017114Y014082D02*
X018886Y014082D01*
X018932Y013984D02*
X017114Y013984D01*
X017114Y013885D02*
X018978Y013885D01*
X019025Y013787D02*
X017114Y013787D01*
X017114Y013688D02*
X019071Y013688D01*
X019117Y013590D02*
X017114Y013590D01*
X017114Y013491D02*
X019163Y013491D01*
X019195Y013393D02*
X017109Y013393D01*
X016564Y013393D02*
X015534Y013393D01*
X015539Y013397D02*
X015475Y013333D01*
X015049Y013333D01*
X014984Y013397D01*
X014984Y014158D01*
X015049Y014222D01*
X015475Y014222D01*
X015539Y014158D01*
X015539Y013397D01*
X015539Y013491D02*
X016559Y013491D01*
X016559Y013590D02*
X015539Y013590D01*
X015539Y013688D02*
X016559Y013688D01*
X016559Y013787D02*
X015539Y013787D01*
X015539Y013885D02*
X016559Y013885D01*
X016559Y013984D02*
X015539Y013984D01*
X015539Y014082D02*
X016559Y014082D01*
X016582Y014181D02*
X015516Y014181D01*
X015836Y014514D02*
X015772Y014579D01*
X015772Y015339D01*
X015836Y015403D01*
X016262Y015403D01*
X016326Y015339D01*
X016326Y014579D01*
X016262Y014514D01*
X015836Y014514D01*
X015776Y014575D02*
X014748Y014575D01*
X014752Y014579D02*
X014687Y014514D01*
X014261Y014514D01*
X014197Y014579D01*
X014197Y015339D01*
X014261Y015403D01*
X014687Y015403D01*
X014752Y015339D01*
X014752Y014579D01*
X014752Y014673D02*
X015772Y014673D01*
X015772Y014772D02*
X014752Y014772D01*
X014752Y014870D02*
X015772Y014870D01*
X015772Y014969D02*
X014752Y014969D01*
X014752Y015067D02*
X015772Y015067D01*
X015772Y015166D02*
X014752Y015166D01*
X014752Y015264D02*
X015772Y015264D01*
X015795Y015363D02*
X014728Y015363D01*
X014221Y015363D02*
X013153Y015363D01*
X013177Y015339D02*
X013112Y015403D01*
X012687Y015403D01*
X012622Y015339D01*
X012622Y014579D01*
X012687Y014514D01*
X013112Y014514D01*
X013177Y014579D01*
X013177Y015339D01*
X013177Y015264D02*
X014197Y015264D01*
X014197Y015166D02*
X013177Y015166D01*
X013177Y015067D02*
X014197Y015067D01*
X014197Y014969D02*
X013177Y014969D01*
X013177Y014870D02*
X014197Y014870D01*
X014197Y014772D02*
X013177Y014772D01*
X013177Y014673D02*
X014197Y014673D01*
X014201Y014575D02*
X013173Y014575D01*
X013474Y014222D02*
X013410Y014158D01*
X013410Y013397D01*
X013474Y013333D01*
X013900Y013333D01*
X013964Y013397D01*
X013964Y014158D01*
X013900Y014222D01*
X013474Y014222D01*
X013432Y014181D02*
X012367Y014181D01*
X012389Y014158D02*
X012325Y014222D01*
X011899Y014222D01*
X011835Y014158D01*
X011835Y013397D01*
X011899Y013333D01*
X012325Y013333D01*
X012389Y013397D01*
X012389Y014158D01*
X012389Y014082D02*
X013410Y014082D01*
X013410Y013984D02*
X012389Y013984D01*
X012389Y013885D02*
X013410Y013885D01*
X013410Y013787D02*
X012389Y013787D01*
X012389Y013688D02*
X013410Y013688D01*
X013410Y013590D02*
X012389Y013590D01*
X012389Y013491D02*
X013410Y013491D01*
X013415Y013393D02*
X012385Y013393D01*
X011840Y013393D02*
X010810Y013393D01*
X010815Y013491D02*
X011835Y013491D01*
X011835Y013590D02*
X010815Y013590D01*
X010815Y013688D02*
X011835Y013688D01*
X011835Y013787D02*
X010815Y013787D01*
X010815Y013885D02*
X011835Y013885D01*
X011835Y013984D02*
X010815Y013984D01*
X010815Y014082D02*
X011835Y014082D01*
X011857Y014181D02*
X010792Y014181D01*
X011112Y014514D02*
X011538Y014514D01*
X011602Y014579D01*
X011602Y015339D01*
X011538Y015403D01*
X011112Y015403D01*
X011047Y015339D01*
X011047Y014579D01*
X011112Y014514D01*
X011051Y014575D02*
X010059Y014575D01*
X010067Y014673D02*
X011047Y014673D01*
X011047Y014772D02*
X010067Y014772D01*
X010067Y014870D02*
X011047Y014870D01*
X011047Y014969D02*
X009784Y014969D01*
X009784Y014870D02*
X009716Y014870D01*
X009716Y014772D02*
X009784Y014772D01*
X009784Y014673D02*
X009716Y014673D01*
X009716Y014575D02*
X009784Y014575D01*
X009784Y014476D02*
X009716Y014476D01*
X010067Y015067D02*
X011047Y015067D01*
X011047Y015166D02*
X010067Y015166D01*
X010067Y015264D02*
X011047Y015264D01*
X011071Y015363D02*
X010051Y015363D01*
X011578Y015363D02*
X012646Y015363D01*
X012622Y015264D02*
X011602Y015264D01*
X011602Y015166D02*
X012622Y015166D01*
X012622Y015067D02*
X011602Y015067D01*
X011602Y014969D02*
X012622Y014969D01*
X012622Y014870D02*
X011602Y014870D01*
X011602Y014772D02*
X012622Y014772D01*
X012622Y014673D02*
X011602Y014673D01*
X011598Y014575D02*
X012626Y014575D01*
X013942Y014181D02*
X015007Y014181D01*
X014984Y014082D02*
X013964Y014082D01*
X013964Y013984D02*
X014984Y013984D01*
X014984Y013885D02*
X013964Y013885D01*
X013964Y013787D02*
X014984Y013787D01*
X014984Y013688D02*
X013964Y013688D01*
X013964Y013590D02*
X014984Y013590D01*
X014984Y013491D02*
X013964Y013491D01*
X013959Y013393D02*
X014989Y013393D01*
X016322Y014575D02*
X018649Y014575D01*
X018586Y014673D02*
X016326Y014673D01*
X016326Y014772D02*
X018524Y014772D01*
X018461Y014870D02*
X016326Y014870D01*
X016326Y014969D02*
X018399Y014969D01*
X018336Y015067D02*
X016326Y015067D01*
X016326Y015166D02*
X018274Y015166D01*
X018211Y015264D02*
X016326Y015264D01*
X016303Y015363D02*
X018149Y015363D01*
X018086Y015461D02*
X003039Y015461D01*
X003108Y015560D02*
X018017Y015560D01*
X017935Y015658D02*
X006491Y015658D01*
X006455Y015623D02*
X006727Y015895D01*
X006727Y016057D01*
X006293Y016057D01*
X006293Y016118D01*
X006727Y016118D01*
X006727Y016280D01*
X006455Y016552D01*
X006293Y016552D01*
X006293Y016118D01*
X006232Y016118D01*
X006232Y016552D01*
X006070Y016552D01*
X005798Y016280D01*
X005798Y016118D01*
X006232Y016118D01*
X006232Y016057D01*
X006293Y016057D01*
X006293Y015623D01*
X006455Y015623D01*
X006293Y015658D02*
X006232Y015658D01*
X006232Y015623D02*
X006232Y016057D01*
X005798Y016057D01*
X005798Y015895D01*
X006070Y015623D01*
X006232Y015623D01*
X006232Y015757D02*
X006293Y015757D01*
X006293Y015855D02*
X006232Y015855D01*
X006232Y015954D02*
X006293Y015954D01*
X006293Y016052D02*
X006232Y016052D01*
X006232Y016151D02*
X006293Y016151D01*
X006293Y016249D02*
X006232Y016249D01*
X006232Y016348D02*
X006293Y016348D01*
X006293Y016446D02*
X006232Y016446D01*
X006232Y016545D02*
X006293Y016545D01*
X006463Y016545D02*
X017172Y016545D01*
X017067Y016643D02*
X004058Y016643D01*
X004162Y016742D02*
X016963Y016742D01*
X016858Y016840D02*
X004267Y016840D01*
X004372Y016939D02*
X016753Y016939D01*
X016648Y017037D02*
X004477Y017037D01*
X004582Y017136D02*
X016543Y017136D01*
X016432Y017234D02*
X004693Y017234D01*
X004828Y017333D02*
X016297Y017333D01*
X016161Y017431D02*
X004964Y017431D01*
X005100Y017530D02*
X016025Y017530D01*
X015890Y017628D02*
X005235Y017628D01*
X005371Y017727D02*
X015754Y017727D01*
X015619Y017825D02*
X005506Y017825D01*
X005653Y017924D02*
X015472Y017924D01*
X015292Y018022D02*
X005833Y018022D01*
X006012Y018121D02*
X015113Y018121D01*
X014934Y018219D02*
X006191Y018219D01*
X006370Y018318D02*
X014755Y018318D01*
X014576Y018416D02*
X006549Y018416D01*
X006769Y018515D02*
X014356Y018515D01*
X014107Y018613D02*
X007018Y018613D01*
X007267Y018712D02*
X013858Y018712D01*
X013610Y018810D02*
X007515Y018810D01*
X007797Y018909D02*
X013328Y018909D01*
X012945Y019007D02*
X008180Y019007D01*
X008564Y019106D02*
X012561Y019106D01*
X012055Y019204D02*
X009070Y019204D01*
X009849Y019303D02*
X011276Y019303D01*
X006727Y016249D02*
X017447Y016249D01*
X017528Y016151D02*
X006727Y016151D01*
X006727Y016052D02*
X017610Y016052D01*
X017691Y015954D02*
X006727Y015954D01*
X006688Y015855D02*
X017772Y015855D01*
X017854Y015757D02*
X006589Y015757D01*
X006034Y015658D02*
X003190Y015658D01*
X003271Y015757D02*
X004592Y015757D01*
X004622Y015727D02*
X004778Y015663D01*
X004947Y015663D01*
X005103Y015727D01*
X005223Y015847D01*
X005287Y016003D01*
X005287Y016172D01*
X005223Y016328D01*
X005103Y016448D01*
X004947Y016512D01*
X004778Y016512D01*
X004622Y016448D01*
X004502Y016328D01*
X004438Y016172D01*
X004438Y016003D01*
X004502Y015847D01*
X004622Y015727D01*
X004499Y015855D02*
X003353Y015855D01*
X003434Y015954D02*
X004458Y015954D01*
X004438Y016052D02*
X003515Y016052D01*
X003597Y016151D02*
X004438Y016151D01*
X004469Y016249D02*
X003678Y016249D01*
X003760Y016348D02*
X004521Y016348D01*
X004620Y016446D02*
X003848Y016446D01*
X003953Y016545D02*
X006062Y016545D01*
X005963Y016446D02*
X005105Y016446D01*
X005203Y016348D02*
X005865Y016348D01*
X005798Y016249D02*
X005256Y016249D01*
X005287Y016151D02*
X005798Y016151D01*
X005798Y016052D02*
X005287Y016052D01*
X005267Y015954D02*
X005798Y015954D01*
X005837Y015855D02*
X005226Y015855D01*
X005133Y015757D02*
X005936Y015757D01*
X006562Y016446D02*
X017277Y016446D01*
X017365Y016348D02*
X006660Y016348D01*
X002340Y013688D02*
X002054Y013688D01*
X002100Y013787D02*
X002241Y013787D01*
X002787Y012014D02*
X003298Y012014D01*
X003298Y011915D02*
X002751Y011915D01*
X002693Y011817D02*
X003376Y011817D01*
X003474Y011718D02*
X002581Y011718D01*
X008204Y006498D02*
X009433Y006498D01*
X009433Y006596D02*
X008303Y006596D01*
X008401Y006695D02*
X009445Y006695D01*
X008894Y007187D02*
X012710Y007187D01*
X012710Y007089D02*
X008795Y007089D01*
X008697Y006990D02*
X012710Y006990D01*
X012710Y006892D02*
X008598Y006892D01*
X008500Y006793D02*
X012710Y006793D01*
X012710Y007286D02*
X008992Y007286D01*
X009091Y007384D02*
X012710Y007384D01*
X012710Y007483D02*
X009189Y007483D01*
X009288Y007581D02*
X012710Y007581D01*
X012710Y007680D02*
X009386Y007680D01*
X009485Y007778D02*
X012710Y007778D01*
X012710Y007877D02*
X009583Y007877D01*
X009682Y007975D02*
X012710Y007975D01*
X012710Y008074D02*
X009780Y008074D01*
X009879Y008172D02*
X012710Y008172D01*
X012710Y008271D02*
X009977Y008271D01*
X010076Y008369D02*
X012710Y008369D01*
X012710Y008468D02*
X010174Y008468D01*
X010273Y008566D02*
X012710Y008566D01*
X012710Y008665D02*
X010371Y008665D01*
X010470Y008763D02*
X012719Y008763D01*
X012818Y008862D02*
X010568Y008862D01*
X010667Y008960D02*
X012832Y008960D01*
X012888Y009059D02*
X010765Y009059D01*
X010864Y009157D02*
X019754Y009157D01*
X019748Y009059D02*
X013312Y009059D01*
X013368Y008960D02*
X019742Y008960D01*
X019740Y008928D02*
X019740Y008928D01*
X019727Y008862D02*
X013380Y008862D01*
X013357Y008763D02*
X019708Y008763D01*
X019689Y008665D02*
X013285Y008665D01*
X013090Y008566D02*
X019670Y008566D01*
X019652Y008468D02*
X013090Y008468D01*
X013090Y008369D02*
X019633Y008369D01*
X019614Y008271D02*
X013090Y008271D01*
X013090Y008172D02*
X019595Y008172D01*
X019577Y008074D02*
X013090Y008074D01*
X013090Y007975D02*
X019558Y007975D01*
X019539Y007877D02*
X013090Y007877D01*
X013090Y007778D02*
X019519Y007778D01*
X019487Y007680D02*
X013090Y007680D01*
X011258Y009551D02*
X019779Y009551D01*
X019773Y009453D02*
X011159Y009453D01*
X011061Y009354D02*
X019766Y009354D01*
X019760Y009256D02*
X010962Y009256D01*
X011356Y009650D02*
X019785Y009650D01*
X019791Y009748D02*
X011455Y009748D01*
X011553Y009847D02*
X019797Y009847D01*
X019804Y009945D02*
X011652Y009945D01*
X011750Y010044D02*
X019810Y010044D01*
X019809Y010142D02*
X011849Y010142D01*
X011947Y010241D02*
X019803Y010241D01*
X019797Y010339D02*
X012046Y010339D01*
X012144Y010438D02*
X019790Y010438D01*
X019784Y010536D02*
X012283Y010536D01*
X012364Y010635D02*
X019778Y010635D01*
X019772Y010733D02*
X012398Y010733D01*
X012398Y010832D02*
X019766Y010832D01*
X019759Y010930D02*
X012358Y010930D01*
X009903Y008960D02*
X008274Y008960D01*
X008390Y008862D02*
X009805Y008862D01*
X009706Y008763D02*
X008450Y008763D01*
X008487Y008665D02*
X009608Y008665D01*
X009509Y008566D02*
X008487Y008566D01*
X008473Y008468D02*
X009411Y008468D01*
X009312Y008369D02*
X008432Y008369D01*
X008347Y008271D02*
X009214Y008271D01*
X007047Y006104D02*
X002234Y006104D01*
X002281Y006005D02*
X006948Y006005D01*
X006850Y005907D02*
X002327Y005907D01*
X002373Y005808D02*
X006751Y005808D01*
X006653Y005710D02*
X002420Y005710D01*
X002470Y005611D02*
X006554Y005611D01*
X006456Y005513D02*
X002532Y005513D01*
X002595Y005414D02*
X006357Y005414D01*
X006259Y005316D02*
X002657Y005316D01*
X002720Y005217D02*
X006160Y005217D01*
X006098Y005119D02*
X002782Y005119D01*
X002845Y005020D02*
X006083Y005020D01*
X006105Y004922D02*
X002907Y004922D01*
X002970Y004823D02*
X006177Y004823D01*
X006530Y004823D02*
X006793Y004823D01*
X006793Y004725D02*
X003032Y004725D01*
X004046Y003543D02*
X017079Y003543D01*
X017184Y003641D02*
X015743Y003641D01*
X015842Y003740D02*
X017288Y003740D01*
X017374Y003838D02*
X015940Y003838D01*
X016039Y003937D02*
X017455Y003937D01*
X017537Y004035D02*
X016137Y004035D01*
X016236Y004134D02*
X017618Y004134D01*
X017700Y004232D02*
X016334Y004232D01*
X016974Y003444D02*
X004151Y003444D01*
X004256Y003346D02*
X016869Y003346D01*
X016764Y003247D02*
X004361Y003247D01*
X004466Y003149D02*
X016659Y003149D01*
X016554Y003050D02*
X004571Y003050D01*
X004678Y002952D02*
X016447Y002952D01*
X016311Y002853D02*
X004814Y002853D01*
X004950Y002755D02*
X016175Y002755D01*
X016040Y002656D02*
X005085Y002656D01*
X005221Y002558D02*
X015904Y002558D01*
X015769Y002459D02*
X005356Y002459D01*
X005492Y002361D02*
X015633Y002361D01*
X015491Y002262D02*
X005634Y002262D01*
X005813Y002164D02*
X015312Y002164D01*
X015132Y002065D02*
X005993Y002065D01*
X006172Y001967D02*
X014953Y001967D01*
X014774Y001868D02*
X006351Y001868D01*
X006530Y001770D02*
X014595Y001770D01*
X014383Y001671D02*
X006742Y001671D01*
X006991Y001573D02*
X014134Y001573D01*
X013885Y001474D02*
X011490Y001474D01*
X011626Y001376D02*
X013636Y001376D01*
X013369Y001277D02*
X011694Y001277D01*
X011735Y001179D02*
X012986Y001179D01*
X012602Y001080D02*
X011737Y001080D01*
X011729Y000982D02*
X012139Y000982D01*
X011135Y001474D02*
X009990Y001474D01*
X010126Y001376D02*
X010999Y001376D01*
X010931Y001277D02*
X010194Y001277D01*
X010235Y001179D02*
X010890Y001179D01*
X010888Y001080D02*
X010237Y001080D01*
X010229Y000982D02*
X010896Y000982D01*
X010937Y000883D02*
X010188Y000883D01*
X009635Y001474D02*
X007240Y001474D01*
X007489Y001376D02*
X009499Y001376D01*
X009431Y001277D02*
X007756Y001277D01*
X008139Y001179D02*
X009390Y001179D01*
X009388Y001080D02*
X008523Y001080D01*
X008986Y000982D02*
X009396Y000982D01*
X010803Y004725D02*
X011846Y004725D01*
X011835Y004823D02*
X010815Y004823D01*
X010815Y004922D02*
X011835Y004922D01*
X011835Y005020D02*
X010815Y005020D01*
X010815Y005119D02*
X011835Y005119D01*
X011835Y005217D02*
X010815Y005217D01*
X010815Y005316D02*
X011835Y005316D01*
X011835Y005414D02*
X010815Y005414D01*
X010799Y005513D02*
X011851Y005513D01*
X016316Y005907D02*
X018798Y005907D01*
X018844Y006005D02*
X016326Y006005D01*
X016326Y006104D02*
X018891Y006104D01*
X018937Y006202D02*
X016326Y006202D01*
X016326Y006301D02*
X018983Y006301D01*
X019030Y006399D02*
X016326Y006399D01*
X016326Y006498D02*
X019076Y006498D01*
X019122Y006596D02*
X016326Y006596D01*
X006793Y005020D02*
X006727Y005020D01*
X006793Y004922D02*
X006628Y004922D01*
D16*
X003275Y005488D03*
X003500Y015150D03*
X016475Y003663D03*
X016813Y015988D03*
D17*
X012100Y010775D02*
X007063Y005738D01*
X007063Y004238D01*
X007475Y003825D01*
X015545Y003825D01*
X016837Y005116D01*
X007063Y005738D02*
X006353Y005028D01*
D18*
X012100Y010775D03*
D19*
X013100Y008875D02*
X012900Y008675D01*
X012900Y006297D01*
X013725Y007047D02*
X013725Y007238D01*
X013725Y007047D02*
X014474Y006297D01*
M02*
