G75*
G70*
%OFA0B0*%
%FSLAX24Y24*%
%IPPOS*%
%LPD*%
%AMOC8*
5,1,8,0,0,1.08239X$1,22.5*
%
%ADD10C,0.0060*%
%ADD11R,0.0180X0.0300*%
%ADD12C,0.0030*%
%ADD13C,0.0080*%
%ADD14R,0.0340X0.0240*%
%ADD15C,0.0050*%
%ADD16C,0.0220*%
%ADD17R,0.0150X0.0200*%
%ADD18C,0.0217*%
%ADD19C,0.0040*%
%ADD20R,0.0340X0.0300*%
D10*
X002706Y006618D02*
X002819Y006844D01*
X002961Y006844D02*
X003074Y006958D01*
X003074Y006618D01*
X002961Y006618D02*
X003188Y006618D01*
X003329Y006618D02*
X003386Y006618D01*
X003386Y006674D01*
X003329Y006674D01*
X003329Y006618D01*
X003513Y006618D02*
X003740Y006844D01*
X003740Y006901D01*
X003683Y006958D01*
X003570Y006958D01*
X003513Y006901D01*
X003504Y007118D02*
X003731Y007118D01*
X003873Y007118D02*
X003986Y007118D01*
X003929Y007118D02*
X003929Y007344D01*
X003873Y007344D01*
X003929Y007458D02*
X003929Y007515D01*
X003916Y007618D02*
X003916Y007958D01*
X003802Y007844D01*
X003661Y007958D02*
X003434Y007618D01*
X003293Y007674D02*
X003236Y007618D01*
X003122Y007618D01*
X003066Y007674D01*
X003293Y007901D01*
X003293Y007674D01*
X003293Y007901D02*
X003236Y007958D01*
X003122Y007958D01*
X003066Y007901D01*
X003066Y007674D01*
X002924Y007674D02*
X002868Y007618D01*
X002754Y007618D01*
X002697Y007674D01*
X002811Y007788D02*
X002868Y007788D01*
X002924Y007731D01*
X002924Y007674D01*
X002868Y007788D02*
X002924Y007844D01*
X002924Y007901D01*
X002868Y007958D01*
X002754Y007958D01*
X002697Y007901D01*
X002556Y007958D02*
X002329Y007618D01*
X002188Y007618D02*
X001961Y007618D01*
X002074Y007618D02*
X002074Y007958D01*
X001961Y007844D01*
X001706Y007958D02*
X001706Y007618D01*
X001593Y007618D02*
X001819Y007618D01*
X002093Y007458D02*
X002263Y007458D01*
X002319Y007401D01*
X002319Y007288D01*
X002263Y007231D01*
X002093Y007231D01*
X002093Y007118D02*
X002093Y007458D01*
X002461Y007288D02*
X002461Y007174D01*
X002518Y007118D01*
X002631Y007118D01*
X002688Y007231D02*
X002461Y007231D01*
X002461Y007288D02*
X002518Y007344D01*
X002631Y007344D01*
X002688Y007288D01*
X002688Y007231D01*
X002829Y007174D02*
X002886Y007231D01*
X003056Y007231D01*
X003056Y007288D02*
X003056Y007118D01*
X002886Y007118D01*
X002829Y007174D01*
X002886Y007344D02*
X002999Y007344D01*
X003056Y007288D01*
X003197Y007231D02*
X003368Y007118D01*
X003504Y007118D02*
X003504Y007458D01*
X003368Y007344D02*
X003197Y007231D01*
X003197Y007118D02*
X003197Y007458D01*
X003802Y007618D02*
X004029Y007618D01*
X004171Y007674D02*
X004227Y007618D01*
X004341Y007618D01*
X004398Y007674D01*
X004398Y007731D01*
X004341Y007788D01*
X004171Y007788D01*
X004171Y007674D01*
X004171Y007788D02*
X004284Y007901D01*
X004398Y007958D01*
X004113Y008188D02*
X006013Y008188D01*
X006063Y008138D01*
X006213Y008138D01*
X006230Y008140D01*
X006247Y008144D01*
X006263Y008151D01*
X006277Y008161D01*
X006290Y008174D01*
X006300Y008188D01*
X006307Y008204D01*
X006311Y008221D01*
X006313Y008238D01*
X006313Y008938D01*
X006311Y008955D01*
X006307Y008972D01*
X006300Y008988D01*
X006290Y009002D01*
X006277Y009015D01*
X006263Y009025D01*
X006247Y009032D01*
X006230Y009036D01*
X006213Y009038D01*
X006063Y009038D01*
X006013Y008988D01*
X004113Y008988D01*
X004063Y009038D01*
X003913Y009038D01*
X003896Y009036D01*
X003879Y009032D01*
X003863Y009025D01*
X003849Y009015D01*
X003836Y009002D01*
X003826Y008988D01*
X003819Y008972D01*
X003815Y008955D01*
X003813Y008938D01*
X003813Y008238D01*
X003815Y008221D01*
X003819Y008204D01*
X003826Y008188D01*
X003836Y008174D01*
X003849Y008161D01*
X003863Y008151D01*
X003879Y008144D01*
X003896Y008140D01*
X003913Y008138D01*
X004063Y008138D01*
X004113Y008188D01*
X004487Y007458D02*
X004487Y007118D01*
X004345Y007118D02*
X004175Y007118D01*
X004118Y007174D01*
X004118Y007288D01*
X004175Y007344D01*
X004345Y007344D01*
X004345Y007061D01*
X004288Y007004D01*
X004232Y007004D01*
X004487Y007288D02*
X004543Y007344D01*
X004657Y007344D01*
X004713Y007288D01*
X004713Y007118D01*
X004912Y007174D02*
X004912Y007401D01*
X004968Y007344D02*
X004855Y007344D01*
X004912Y007174D02*
X004968Y007118D01*
X003740Y006618D02*
X003513Y006618D01*
X002706Y006618D02*
X002593Y006844D01*
X001593Y007844D02*
X001706Y007958D01*
X001463Y012088D02*
X001465Y012168D01*
X001471Y012247D01*
X001481Y012326D01*
X001495Y012405D01*
X001512Y012483D01*
X001534Y012560D01*
X001559Y012635D01*
X001589Y012709D01*
X001621Y012782D01*
X001658Y012853D01*
X001698Y012922D01*
X001741Y012989D01*
X001788Y013054D01*
X001837Y013116D01*
X001890Y013176D01*
X001946Y013233D01*
X002004Y013288D01*
X002065Y013339D01*
X002129Y013387D01*
X002195Y013432D01*
X002263Y013474D01*
X002333Y013512D01*
X002405Y013546D01*
X002478Y013577D01*
X002553Y013605D01*
X002630Y013628D01*
X002707Y013648D01*
X002785Y013664D01*
X002864Y013676D01*
X002943Y013684D01*
X003023Y013688D01*
X003103Y013688D01*
X003183Y013684D01*
X003262Y013676D01*
X003341Y013664D01*
X003419Y013648D01*
X003496Y013628D01*
X003573Y013605D01*
X003648Y013577D01*
X003721Y013546D01*
X003793Y013512D01*
X003863Y013474D01*
X003931Y013432D01*
X003997Y013387D01*
X004061Y013339D01*
X004122Y013288D01*
X004180Y013233D01*
X004236Y013176D01*
X004289Y013116D01*
X004338Y013054D01*
X004385Y012989D01*
X004428Y012922D01*
X004468Y012853D01*
X004505Y012782D01*
X004537Y012709D01*
X004567Y012635D01*
X004592Y012560D01*
X004614Y012483D01*
X004631Y012405D01*
X004645Y012326D01*
X004655Y012247D01*
X004661Y012168D01*
X004663Y012088D01*
X004661Y012008D01*
X004655Y011929D01*
X004645Y011850D01*
X004631Y011771D01*
X004614Y011693D01*
X004592Y011616D01*
X004567Y011541D01*
X004537Y011467D01*
X004505Y011394D01*
X004468Y011323D01*
X004428Y011254D01*
X004385Y011187D01*
X004338Y011122D01*
X004289Y011060D01*
X004236Y011000D01*
X004180Y010943D01*
X004122Y010888D01*
X004061Y010837D01*
X003997Y010789D01*
X003931Y010744D01*
X003863Y010702D01*
X003793Y010664D01*
X003721Y010630D01*
X003648Y010599D01*
X003573Y010571D01*
X003496Y010548D01*
X003419Y010528D01*
X003341Y010512D01*
X003262Y010500D01*
X003183Y010492D01*
X003103Y010488D01*
X003023Y010488D01*
X002943Y010492D01*
X002864Y010500D01*
X002785Y010512D01*
X002707Y010528D01*
X002630Y010548D01*
X002553Y010571D01*
X002478Y010599D01*
X002405Y010630D01*
X002333Y010664D01*
X002263Y010702D01*
X002195Y010744D01*
X002129Y010789D01*
X002065Y010837D01*
X002004Y010888D01*
X001946Y010943D01*
X001890Y011000D01*
X001837Y011060D01*
X001788Y011122D01*
X001741Y011187D01*
X001698Y011254D01*
X001658Y011323D01*
X001621Y011394D01*
X001589Y011467D01*
X001559Y011541D01*
X001534Y011616D01*
X001512Y011693D01*
X001495Y011771D01*
X001481Y011850D01*
X001471Y011929D01*
X001465Y012008D01*
X001463Y012088D01*
X001863Y012388D02*
X001863Y012688D01*
X001713Y012538D02*
X002013Y012538D01*
X003163Y013688D02*
X003313Y013688D01*
X003363Y013738D01*
X004763Y013738D01*
X004813Y013688D01*
X004963Y013688D01*
X004980Y013690D01*
X004997Y013694D01*
X005013Y013701D01*
X005027Y013711D01*
X005040Y013724D01*
X005050Y013738D01*
X005057Y013754D01*
X005061Y013771D01*
X005063Y013788D01*
X005063Y014388D01*
X005061Y014405D01*
X005057Y014422D01*
X005050Y014438D01*
X005040Y014452D01*
X005027Y014465D01*
X005013Y014475D01*
X004997Y014482D01*
X004980Y014486D01*
X004963Y014488D01*
X004813Y014488D01*
X004763Y014438D01*
X003363Y014438D01*
X003313Y014488D01*
X003163Y014488D01*
X003146Y014486D01*
X003129Y014482D01*
X003113Y014475D01*
X003099Y014465D01*
X003086Y014452D01*
X003076Y014438D01*
X003069Y014422D01*
X003065Y014405D01*
X003063Y014388D01*
X003063Y013788D01*
X003065Y013771D01*
X003069Y013754D01*
X003076Y013738D01*
X003086Y013724D01*
X003099Y013711D01*
X003113Y013701D01*
X003129Y013694D01*
X003146Y013690D01*
X003163Y013688D01*
X003963Y016088D02*
X003965Y016168D01*
X003971Y016247D01*
X003981Y016326D01*
X003995Y016405D01*
X004012Y016483D01*
X004034Y016560D01*
X004059Y016635D01*
X004089Y016709D01*
X004121Y016782D01*
X004158Y016853D01*
X004198Y016922D01*
X004241Y016989D01*
X004288Y017054D01*
X004337Y017116D01*
X004390Y017176D01*
X004446Y017233D01*
X004504Y017288D01*
X004565Y017339D01*
X004629Y017387D01*
X004695Y017432D01*
X004763Y017474D01*
X004833Y017512D01*
X004905Y017546D01*
X004978Y017577D01*
X005053Y017605D01*
X005130Y017628D01*
X005207Y017648D01*
X005285Y017664D01*
X005364Y017676D01*
X005443Y017684D01*
X005523Y017688D01*
X005603Y017688D01*
X005683Y017684D01*
X005762Y017676D01*
X005841Y017664D01*
X005919Y017648D01*
X005996Y017628D01*
X006073Y017605D01*
X006148Y017577D01*
X006221Y017546D01*
X006293Y017512D01*
X006363Y017474D01*
X006431Y017432D01*
X006497Y017387D01*
X006561Y017339D01*
X006622Y017288D01*
X006680Y017233D01*
X006736Y017176D01*
X006789Y017116D01*
X006838Y017054D01*
X006885Y016989D01*
X006928Y016922D01*
X006968Y016853D01*
X007005Y016782D01*
X007037Y016709D01*
X007067Y016635D01*
X007092Y016560D01*
X007114Y016483D01*
X007131Y016405D01*
X007145Y016326D01*
X007155Y016247D01*
X007161Y016168D01*
X007163Y016088D01*
X007161Y016008D01*
X007155Y015929D01*
X007145Y015850D01*
X007131Y015771D01*
X007114Y015693D01*
X007092Y015616D01*
X007067Y015541D01*
X007037Y015467D01*
X007005Y015394D01*
X006968Y015323D01*
X006928Y015254D01*
X006885Y015187D01*
X006838Y015122D01*
X006789Y015060D01*
X006736Y015000D01*
X006680Y014943D01*
X006622Y014888D01*
X006561Y014837D01*
X006497Y014789D01*
X006431Y014744D01*
X006363Y014702D01*
X006293Y014664D01*
X006221Y014630D01*
X006148Y014599D01*
X006073Y014571D01*
X005996Y014548D01*
X005919Y014528D01*
X005841Y014512D01*
X005762Y014500D01*
X005683Y014492D01*
X005603Y014488D01*
X005523Y014488D01*
X005443Y014492D01*
X005364Y014500D01*
X005285Y014512D01*
X005207Y014528D01*
X005130Y014548D01*
X005053Y014571D01*
X004978Y014599D01*
X004905Y014630D01*
X004833Y014664D01*
X004763Y014702D01*
X004695Y014744D01*
X004629Y014789D01*
X004565Y014837D01*
X004504Y014888D01*
X004446Y014943D01*
X004390Y015000D01*
X004337Y015060D01*
X004288Y015122D01*
X004241Y015187D01*
X004198Y015254D01*
X004158Y015323D01*
X004121Y015394D01*
X004089Y015467D01*
X004059Y015541D01*
X004034Y015616D01*
X004012Y015693D01*
X003995Y015771D01*
X003981Y015850D01*
X003971Y015929D01*
X003965Y016008D01*
X003963Y016088D01*
X004363Y016388D02*
X004363Y016688D01*
X004213Y016538D02*
X004513Y016538D01*
X012326Y017969D02*
X012326Y018206D01*
X012799Y018206D02*
X012799Y017969D01*
X013326Y017969D02*
X013326Y018206D01*
X013799Y018206D02*
X013799Y017969D01*
X013799Y016706D02*
X013799Y016469D01*
X013326Y016469D02*
X013326Y016706D01*
X011814Y008304D02*
X011611Y008304D01*
X011611Y004900D01*
X011814Y004861D02*
X009311Y004861D01*
X009311Y008304D01*
X011611Y008304D01*
X011814Y008304D02*
X011814Y004861D01*
X013151Y005839D02*
X013151Y003336D01*
X014974Y003336D01*
X014974Y003736D01*
X013151Y003736D01*
X014974Y003736D02*
X014974Y005839D01*
X013151Y005839D01*
X013326Y007969D02*
X013326Y008206D01*
X013799Y008206D02*
X013799Y007969D01*
X014326Y007969D02*
X014326Y008206D01*
X014799Y008206D02*
X014799Y007969D01*
D11*
X008063Y010988D03*
D12*
X008740Y010940D02*
X008933Y010940D01*
X008837Y010940D02*
X008837Y011230D01*
X008740Y011133D01*
X009035Y010988D02*
X009083Y010988D01*
X009083Y010940D01*
X009035Y010940D01*
X009035Y010988D01*
X009182Y010940D02*
X009375Y010940D01*
X009279Y010940D02*
X009279Y011230D01*
X009182Y011133D01*
X009477Y011037D02*
X009670Y011230D01*
X009477Y011230D02*
X009477Y010940D01*
X009525Y011085D02*
X009670Y010940D01*
X006784Y010923D02*
X006590Y010923D01*
X006590Y010971D02*
X006590Y010778D01*
X006489Y010778D02*
X006295Y010778D01*
X006392Y010778D02*
X006392Y011068D01*
X006295Y010971D01*
X006590Y010971D02*
X006687Y011068D01*
X006784Y010971D01*
X006784Y010778D01*
X006211Y011438D02*
X006211Y011632D01*
X006211Y011535D02*
X005920Y011535D01*
X006017Y011438D01*
X005969Y011733D02*
X005920Y011781D01*
X005920Y011878D01*
X005969Y011926D01*
X006162Y011733D01*
X006211Y011781D01*
X006211Y011878D01*
X006162Y011926D01*
X005969Y011926D01*
X005969Y012027D02*
X005920Y012076D01*
X005920Y012173D01*
X005969Y012221D01*
X006162Y012027D01*
X006211Y012076D01*
X006211Y012173D01*
X006162Y012221D01*
X005969Y012221D01*
X006017Y012322D02*
X006162Y012322D01*
X006211Y012370D01*
X006211Y012516D01*
X006017Y012516D01*
X006065Y012617D02*
X006065Y012713D01*
X005920Y012617D02*
X005920Y012810D01*
X005920Y012617D02*
X006211Y012617D01*
X006202Y013203D02*
X006202Y013299D01*
X006106Y013251D02*
X006057Y013299D01*
X006106Y013251D02*
X006348Y013251D01*
X006299Y013399D02*
X006251Y013447D01*
X006251Y013592D01*
X006202Y013592D02*
X006348Y013592D01*
X006348Y013447D01*
X006299Y013399D01*
X006154Y013447D02*
X006154Y013544D01*
X006202Y013592D01*
X006202Y013694D02*
X006154Y013742D01*
X006154Y013887D01*
X006154Y013988D02*
X006154Y014085D01*
X006106Y014037D02*
X006299Y014037D01*
X006348Y014085D01*
X006299Y013887D02*
X006251Y013839D01*
X006251Y013742D01*
X006202Y013694D01*
X006348Y013694D02*
X006348Y013839D01*
X006299Y013887D01*
X006350Y015203D02*
X006302Y015251D01*
X006495Y015444D01*
X006495Y015251D01*
X006447Y015203D01*
X006350Y015203D01*
X006302Y015251D02*
X006302Y015444D01*
X006350Y015493D01*
X006447Y015493D01*
X006495Y015444D01*
X006596Y015444D02*
X006596Y015251D01*
X006790Y015444D01*
X006790Y015251D01*
X006741Y015203D01*
X006645Y015203D01*
X006596Y015251D01*
X006596Y015444D02*
X006645Y015493D01*
X006741Y015493D01*
X006790Y015444D01*
X006891Y015493D02*
X006891Y015299D01*
X006988Y015203D01*
X007084Y015299D01*
X007084Y015493D01*
X006201Y015348D02*
X006007Y015348D01*
X006152Y015493D01*
X006152Y015203D01*
X005613Y015203D02*
X005564Y015203D01*
X005564Y015251D01*
X005613Y015251D01*
X005613Y015203D01*
X005516Y015106D01*
X005318Y015348D02*
X005221Y015348D01*
X005120Y015396D02*
X005120Y015203D01*
X004975Y015203D01*
X004927Y015251D01*
X004927Y015396D01*
X004825Y015396D02*
X004777Y015348D01*
X004825Y015299D01*
X004825Y015251D01*
X004777Y015203D01*
X004680Y015203D01*
X004632Y015251D01*
X004533Y015251D02*
X004533Y015203D01*
X004485Y015203D01*
X004485Y015251D01*
X004533Y015251D01*
X004383Y015251D02*
X004383Y015299D01*
X004335Y015348D01*
X004287Y015348D01*
X004335Y015348D02*
X004383Y015396D01*
X004383Y015444D01*
X004335Y015493D01*
X004238Y015493D01*
X004190Y015444D01*
X004190Y015251D02*
X004238Y015203D01*
X004335Y015203D01*
X004383Y015251D01*
X004632Y015444D02*
X004680Y015493D01*
X004777Y015493D01*
X004825Y015444D01*
X004825Y015396D01*
X004777Y015348D02*
X004729Y015348D01*
X005221Y015203D02*
X005221Y015493D01*
X005415Y015493D01*
X008922Y015484D02*
X009212Y015484D01*
X008922Y015290D01*
X009212Y015290D01*
X009212Y015189D02*
X009212Y014996D01*
X008922Y014996D01*
X008922Y015585D02*
X009212Y015585D01*
X009116Y015585D02*
X008922Y015778D01*
X008970Y015880D02*
X008922Y015928D01*
X008922Y016025D01*
X008970Y016073D01*
X009019Y016073D01*
X009067Y016025D01*
X009116Y016073D01*
X009164Y016073D01*
X009212Y016025D01*
X009212Y015928D01*
X009164Y015880D01*
X009212Y015778D02*
X009067Y015633D01*
X009067Y015976D02*
X009067Y016025D01*
X008970Y016174D02*
X008922Y016223D01*
X008922Y016319D01*
X008970Y016368D01*
X009164Y016174D01*
X009212Y016223D01*
X009212Y016319D01*
X009164Y016368D01*
X008970Y016368D01*
X008970Y016469D02*
X008922Y016517D01*
X008922Y016614D01*
X008970Y016662D01*
X009019Y016662D01*
X009212Y016469D01*
X009212Y016662D01*
X009212Y016763D02*
X008922Y016957D01*
X008970Y017058D02*
X008922Y017106D01*
X008922Y017203D01*
X008970Y017252D01*
X009019Y017252D01*
X009067Y017203D01*
X009116Y017252D01*
X009164Y017252D01*
X009212Y017203D01*
X009212Y017106D01*
X009164Y017058D01*
X009067Y017155D02*
X009067Y017203D01*
X008970Y017353D02*
X008922Y017401D01*
X008922Y017498D01*
X008970Y017546D01*
X009164Y017353D01*
X009212Y017401D01*
X009212Y017498D01*
X009164Y017546D01*
X008970Y017546D01*
X009067Y017647D02*
X008922Y017793D01*
X009212Y017793D01*
X009067Y017841D02*
X009067Y017647D01*
X009067Y017942D02*
X009067Y018136D01*
X008970Y018237D02*
X008922Y018285D01*
X008922Y018382D01*
X008970Y018430D01*
X009019Y018430D01*
X009067Y018382D01*
X009116Y018430D01*
X009164Y018430D01*
X009212Y018382D01*
X009212Y018285D01*
X009164Y018237D01*
X009067Y018333D02*
X009067Y018382D01*
X009164Y018531D02*
X008970Y018531D01*
X008922Y018580D01*
X008922Y018677D01*
X008970Y018725D01*
X009164Y018531D01*
X009212Y018580D01*
X009212Y018677D01*
X009164Y018725D01*
X008970Y018725D01*
X009067Y018826D02*
X008970Y018923D01*
X008922Y019020D01*
X009067Y018971D02*
X009067Y018826D01*
X009164Y018826D01*
X009212Y018874D01*
X009212Y018971D01*
X009164Y019020D01*
X009116Y019020D01*
X009067Y018971D01*
X009164Y017353D02*
X008970Y017353D01*
X008970Y016174D02*
X009164Y016174D01*
X011840Y016197D02*
X011888Y016245D01*
X012082Y016052D01*
X012130Y016100D01*
X012130Y016197D01*
X012082Y016245D01*
X011888Y016245D01*
X011840Y016197D02*
X011840Y016100D01*
X011888Y016052D01*
X012082Y016052D01*
X012082Y016346D02*
X012082Y016395D01*
X012130Y016395D01*
X012130Y016346D01*
X012082Y016346D01*
X012130Y016494D02*
X012130Y016687D01*
X012130Y016590D02*
X011840Y016590D01*
X011937Y016494D01*
X011937Y016788D02*
X012082Y016788D01*
X012130Y016837D01*
X012130Y016982D01*
X011937Y016982D01*
X011985Y017083D02*
X011985Y017180D01*
X011840Y017276D02*
X011840Y017083D01*
X012130Y017083D01*
X012110Y017853D02*
X011917Y018046D01*
X011868Y018046D01*
X011820Y017998D01*
X011820Y017901D01*
X011868Y017853D01*
X012110Y017853D02*
X012110Y018046D01*
X012110Y018147D02*
X011820Y018147D01*
X011965Y018196D02*
X012110Y018341D01*
X012013Y018147D02*
X011820Y018341D01*
X012870Y018309D02*
X012870Y018213D01*
X012918Y018164D01*
X012967Y018164D01*
X013015Y018213D01*
X013015Y018358D01*
X013112Y018358D02*
X012918Y018358D01*
X012870Y018309D01*
X012870Y018459D02*
X013160Y018459D01*
X013063Y018459D02*
X012870Y018652D01*
X013015Y018507D02*
X013160Y018652D01*
X013112Y018358D02*
X013160Y018309D01*
X013160Y018213D01*
X013112Y018164D01*
X013112Y018063D02*
X013063Y018063D01*
X013015Y018015D01*
X013015Y017918D01*
X012967Y017869D01*
X012918Y017869D01*
X012870Y017918D01*
X012870Y018015D01*
X012918Y018063D01*
X012967Y018063D01*
X013015Y018015D01*
X013015Y017918D02*
X013063Y017869D01*
X013112Y017869D01*
X013160Y017918D01*
X013160Y018015D01*
X013112Y018063D01*
X013112Y017771D02*
X013160Y017771D01*
X013160Y017722D01*
X013112Y017722D01*
X013112Y017771D01*
X013160Y017621D02*
X013160Y017428D01*
X013160Y017524D02*
X012870Y017524D01*
X012967Y017428D01*
X013357Y015880D02*
X013551Y015880D01*
X013648Y015783D01*
X013551Y015686D01*
X013357Y015686D01*
X013406Y015585D02*
X013599Y015392D01*
X013648Y015440D01*
X013648Y015537D01*
X013599Y015585D01*
X013406Y015585D01*
X013357Y015537D01*
X013357Y015440D01*
X013406Y015392D01*
X013599Y015392D01*
X013599Y015291D02*
X013648Y015242D01*
X013648Y015146D01*
X013599Y015097D01*
X013502Y015097D02*
X013454Y015194D01*
X013454Y015242D01*
X013502Y015291D01*
X013599Y015291D01*
X013502Y015097D02*
X013357Y015097D01*
X013357Y015291D01*
X013599Y014703D02*
X013599Y014654D01*
X013648Y014654D01*
X013648Y014703D01*
X013599Y014703D01*
X013648Y014703D02*
X013744Y014606D01*
X013648Y014311D02*
X013357Y014311D01*
X013357Y014505D01*
X013502Y014408D02*
X013502Y014311D01*
X013454Y014210D02*
X013648Y014210D01*
X013648Y014065D01*
X013599Y014017D01*
X013454Y014017D01*
X013406Y013916D02*
X013599Y013722D01*
X013648Y013771D01*
X013648Y013867D01*
X013599Y013916D01*
X013406Y013916D01*
X013357Y013867D01*
X013357Y013771D01*
X013406Y013722D01*
X013599Y013722D01*
X013648Y013621D02*
X013648Y013428D01*
X013648Y013524D02*
X013357Y013524D01*
X013454Y013428D01*
X015402Y015915D02*
X015306Y016012D01*
X015257Y016108D01*
X015306Y016210D02*
X015257Y016258D01*
X015257Y016355D01*
X015306Y016403D01*
X015499Y016210D01*
X015548Y016258D01*
X015548Y016355D01*
X015499Y016403D01*
X015306Y016403D01*
X015306Y016504D02*
X015257Y016553D01*
X015257Y016649D01*
X015306Y016698D01*
X015499Y016504D01*
X015548Y016553D01*
X015548Y016649D01*
X015499Y016698D01*
X015306Y016698D01*
X015257Y016799D02*
X015451Y016799D01*
X015548Y016896D01*
X015451Y016992D01*
X015257Y016992D01*
X015354Y017388D02*
X015257Y017485D01*
X015548Y017485D01*
X015548Y017388D02*
X015548Y017582D01*
X015548Y017683D02*
X015354Y017683D01*
X015257Y017780D01*
X015354Y017876D01*
X015548Y017876D01*
X015402Y017876D02*
X015402Y017683D01*
X015499Y016504D02*
X015306Y016504D01*
X015306Y016210D02*
X015499Y016210D01*
X015499Y016108D02*
X015451Y016108D01*
X015402Y016060D01*
X015402Y015915D01*
X015499Y015915D01*
X015548Y015963D01*
X015548Y016060D01*
X015499Y016108D01*
X015219Y008476D02*
X015026Y008476D01*
X014977Y008428D01*
X014977Y008283D01*
X015268Y008283D01*
X015268Y008428D01*
X015219Y008476D01*
X015268Y008182D02*
X015268Y007988D01*
X014977Y007988D01*
X014977Y008182D01*
X015122Y008085D02*
X015122Y007988D01*
X015122Y007887D02*
X015171Y007839D01*
X015171Y007694D01*
X015171Y007790D02*
X015268Y007887D01*
X015122Y007887D02*
X015026Y007887D01*
X014977Y007839D01*
X014977Y007694D01*
X015268Y007694D01*
X014248Y007738D02*
X014199Y007690D01*
X014248Y007738D02*
X014248Y007835D01*
X014199Y007883D01*
X014151Y007883D01*
X014102Y007835D01*
X014102Y007787D01*
X014102Y007835D02*
X014054Y007883D01*
X014006Y007883D01*
X013957Y007835D01*
X013957Y007738D01*
X014006Y007690D01*
X014006Y007985D02*
X013957Y008033D01*
X013957Y008130D01*
X014006Y008178D01*
X014054Y008178D01*
X014102Y008130D01*
X014151Y008178D01*
X014199Y008178D01*
X014248Y008130D01*
X014248Y008033D01*
X014199Y007985D01*
X014102Y008081D02*
X014102Y008130D01*
X014006Y008279D02*
X013957Y008328D01*
X013957Y008424D01*
X014006Y008473D01*
X014199Y008279D01*
X014248Y008328D01*
X014248Y008424D01*
X014199Y008473D01*
X014006Y008473D01*
X014006Y008279D02*
X014199Y008279D01*
X013110Y008328D02*
X013062Y008279D01*
X013110Y008328D02*
X013110Y008424D01*
X013062Y008473D01*
X012965Y008473D01*
X012917Y008424D01*
X012917Y008376D01*
X012965Y008279D01*
X012820Y008279D01*
X012820Y008473D01*
X012820Y008178D02*
X012868Y008081D01*
X012965Y007985D01*
X012965Y008130D01*
X013013Y008178D01*
X013062Y008178D01*
X013110Y008130D01*
X013110Y008033D01*
X013062Y007985D01*
X012965Y007985D01*
X013110Y007883D02*
X013110Y007690D01*
X013110Y007787D02*
X012820Y007787D01*
X012917Y007690D01*
X010560Y007598D02*
X010560Y007501D01*
X010512Y007453D01*
X010415Y007501D02*
X010415Y007598D01*
X010463Y007646D01*
X010512Y007646D01*
X010560Y007598D01*
X010415Y007501D02*
X010367Y007453D01*
X010318Y007453D01*
X010270Y007501D01*
X010270Y007598D01*
X010318Y007646D01*
X010560Y007351D02*
X010560Y007158D01*
X010560Y007255D02*
X010270Y007255D01*
X010367Y007158D01*
X010367Y007057D02*
X010415Y007008D01*
X010463Y007057D01*
X010512Y007057D01*
X010560Y007008D01*
X010560Y006912D01*
X010512Y006863D01*
X010512Y006762D02*
X010318Y006762D01*
X010512Y006569D01*
X010560Y006617D01*
X010560Y006714D01*
X010512Y006762D01*
X010512Y006569D02*
X010318Y006569D01*
X010270Y006617D01*
X010270Y006714D01*
X010318Y006762D01*
X010318Y006863D02*
X010270Y006912D01*
X010270Y007008D01*
X010318Y007057D01*
X010367Y007057D01*
X010415Y007008D02*
X010415Y006960D01*
X010463Y006467D02*
X010512Y006467D01*
X010560Y006419D01*
X010560Y006322D01*
X010512Y006274D01*
X010512Y006173D02*
X010560Y006124D01*
X010560Y006028D01*
X010512Y005979D01*
X010318Y005979D01*
X010270Y006028D01*
X010270Y006124D01*
X010318Y006173D01*
X010318Y006274D02*
X010270Y006322D01*
X010270Y006419D01*
X010318Y006467D01*
X010367Y006467D01*
X010415Y006419D01*
X010463Y006467D01*
X010415Y006419D02*
X010415Y006371D01*
X010512Y005878D02*
X010318Y005878D01*
X010270Y005830D01*
X010270Y005733D01*
X010318Y005685D01*
X010512Y005685D01*
X010560Y005733D01*
X010560Y005830D01*
X010512Y005878D01*
X010560Y005583D02*
X010270Y005583D01*
X010367Y005487D01*
X010270Y005390D01*
X010560Y005390D01*
X010862Y003605D02*
X010862Y003315D01*
X010765Y003315D02*
X010959Y003315D01*
X011060Y003315D02*
X011108Y003315D01*
X011108Y003363D01*
X011060Y003363D01*
X011060Y003315D01*
X011207Y003363D02*
X011255Y003315D01*
X011352Y003315D01*
X011401Y003363D01*
X011401Y003460D01*
X011352Y003508D01*
X011304Y003508D01*
X011207Y003460D01*
X011207Y003605D01*
X011401Y003605D01*
X011502Y003605D02*
X011502Y003315D01*
X011598Y003412D01*
X011695Y003315D01*
X011695Y003605D01*
X010862Y003605D02*
X010765Y003508D01*
X010371Y003363D02*
X010322Y003363D01*
X010322Y003315D01*
X010371Y003315D01*
X010371Y003363D01*
X010371Y003315D02*
X010274Y003218D01*
X010173Y003315D02*
X010028Y003460D01*
X009979Y003412D02*
X010173Y003605D01*
X009979Y003605D02*
X009979Y003315D01*
X009878Y003315D02*
X009685Y003315D01*
X009878Y003508D01*
X009878Y003557D01*
X009830Y003605D01*
X009733Y003605D01*
X009685Y003557D01*
X009583Y003557D02*
X009535Y003605D01*
X009438Y003605D01*
X009390Y003557D01*
X009583Y003557D02*
X009583Y003508D01*
X009390Y003315D01*
X009583Y003315D01*
X007307Y003074D02*
X007210Y003171D01*
X007210Y003122D01*
X007162Y003122D01*
X007162Y003171D01*
X007210Y003171D01*
X007162Y002973D02*
X007210Y002924D01*
X007210Y002828D01*
X007162Y002779D01*
X006968Y002973D01*
X007162Y002973D01*
X007162Y002779D02*
X006968Y002779D01*
X006920Y002828D01*
X006920Y002924D01*
X006968Y002973D01*
X006968Y002678D02*
X006920Y002630D01*
X006920Y002533D01*
X006968Y002485D01*
X006968Y002383D02*
X006920Y002335D01*
X006920Y002238D01*
X006968Y002190D01*
X007065Y002287D02*
X007065Y002335D01*
X007113Y002383D01*
X007162Y002383D01*
X007210Y002335D01*
X007210Y002238D01*
X007162Y002190D01*
X007065Y002335D02*
X007017Y002383D01*
X006968Y002383D01*
X007162Y002485D02*
X007210Y002533D01*
X007210Y002630D01*
X007162Y002678D01*
X007113Y002678D01*
X007065Y002630D01*
X007065Y002581D01*
X007065Y002630D02*
X007017Y002678D01*
X006968Y002678D01*
X007017Y003565D02*
X006920Y003662D01*
X007210Y003662D01*
X007210Y003565D02*
X007210Y003759D01*
X007210Y003860D02*
X006920Y004053D01*
X006968Y004154D02*
X006920Y004203D01*
X006920Y004299D01*
X006968Y004348D01*
X007017Y004348D01*
X007210Y004154D01*
X007210Y004348D01*
X007210Y004449D02*
X007113Y004546D01*
X007210Y004642D01*
X006920Y004642D01*
X006920Y004449D02*
X007210Y004449D01*
X006110Y004455D02*
X005820Y004455D01*
X005965Y004310D01*
X005965Y004503D01*
X006062Y004604D02*
X006110Y004653D01*
X006110Y004749D01*
X006062Y004798D01*
X006013Y004798D01*
X005965Y004749D01*
X005965Y004701D01*
X005965Y004749D02*
X005917Y004798D01*
X005868Y004798D01*
X005820Y004749D01*
X005820Y004653D01*
X005868Y004604D01*
X005820Y004899D02*
X005965Y004899D01*
X005917Y004996D01*
X005917Y005044D01*
X005965Y005092D01*
X006062Y005092D01*
X006110Y005044D01*
X006110Y004947D01*
X006062Y004899D01*
X005820Y004899D02*
X005820Y005092D01*
X005965Y005194D02*
X005965Y005387D01*
X005820Y005488D02*
X005820Y005682D01*
X005820Y005585D02*
X006110Y005585D01*
X006110Y005783D02*
X005820Y005783D01*
X005820Y005928D01*
X005868Y005976D01*
X005965Y005976D01*
X006013Y005928D01*
X006013Y005783D01*
X006013Y005880D02*
X006110Y005976D01*
X006110Y006078D02*
X006110Y006174D01*
X006110Y006126D02*
X005820Y006126D01*
X005820Y006078D02*
X005820Y006174D01*
X005917Y006274D02*
X005820Y006371D01*
X005917Y006467D01*
X006110Y006467D01*
X006062Y006569D02*
X006110Y006617D01*
X006110Y006714D01*
X006062Y006762D01*
X006110Y006863D02*
X005820Y006863D01*
X005820Y007008D01*
X005868Y007057D01*
X006062Y007057D01*
X006110Y007008D01*
X006110Y006863D01*
X005868Y006762D02*
X005820Y006714D01*
X005820Y006617D01*
X005868Y006569D01*
X006062Y006569D01*
X005965Y006467D02*
X005965Y006274D01*
X005917Y006274D02*
X006110Y006274D01*
X006110Y007158D02*
X005820Y007158D01*
X005820Y007303D01*
X005868Y007351D01*
X005965Y007351D01*
X006013Y007303D01*
X006013Y007158D01*
X005965Y007453D02*
X005965Y007646D01*
X005917Y007646D02*
X006110Y007646D01*
X006110Y007747D02*
X005820Y007747D01*
X005917Y007646D02*
X005820Y007549D01*
X005917Y007453D01*
X006110Y007453D01*
X006013Y007747D02*
X005820Y007941D01*
X005965Y007796D02*
X006110Y007941D01*
X003801Y010283D02*
X003801Y010476D01*
X003705Y010573D01*
X003608Y010476D01*
X003608Y010283D01*
X003507Y010283D02*
X003313Y010283D01*
X003410Y010283D02*
X003410Y010573D01*
X003313Y010476D01*
X003608Y010428D02*
X003801Y010428D01*
X004528Y010778D02*
X004721Y010778D01*
X004624Y010778D02*
X004624Y011068D01*
X004528Y010971D01*
X004822Y011019D02*
X004822Y010826D01*
X005016Y011019D01*
X005016Y010826D01*
X004967Y010778D01*
X004871Y010778D01*
X004822Y010826D01*
X004822Y011019D02*
X004871Y011068D01*
X004967Y011068D01*
X005016Y011019D01*
X005117Y011019D02*
X005117Y010826D01*
X005310Y011019D01*
X005310Y010826D01*
X005262Y010778D01*
X005165Y010778D01*
X005117Y010826D01*
X005117Y011019D02*
X005165Y011068D01*
X005262Y011068D01*
X005310Y011019D01*
X005411Y011019D02*
X005460Y011068D01*
X005557Y011068D01*
X005605Y011019D01*
X005411Y010826D01*
X005460Y010778D01*
X005557Y010778D01*
X005605Y010826D01*
X005605Y011019D01*
X005706Y011068D02*
X005706Y010874D01*
X005803Y010778D01*
X005900Y010874D01*
X005900Y011068D01*
X005411Y011019D02*
X005411Y010826D01*
X005969Y011733D02*
X006162Y011733D01*
X006162Y012027D02*
X005969Y012027D01*
X004547Y011718D02*
X004547Y011524D01*
X004450Y011428D01*
X004353Y011524D01*
X004353Y011718D01*
X004252Y011669D02*
X004059Y011476D01*
X004107Y011428D01*
X004204Y011428D01*
X004252Y011476D01*
X004252Y011669D01*
X004204Y011718D01*
X004107Y011718D01*
X004059Y011669D01*
X004059Y011476D01*
X003958Y011476D02*
X003958Y011669D01*
X003764Y011476D01*
X003813Y011428D01*
X003909Y011428D01*
X003958Y011476D01*
X003958Y011669D02*
X003909Y011718D01*
X003813Y011718D01*
X003764Y011669D01*
X003764Y011476D01*
X003663Y011573D02*
X003470Y011573D01*
X003615Y011718D01*
X003615Y011428D01*
X003075Y011428D02*
X002978Y011331D01*
X003027Y011428D02*
X003075Y011428D01*
X003075Y011476D01*
X003027Y011476D01*
X003027Y011428D01*
X002781Y011573D02*
X002684Y011573D01*
X002583Y011621D02*
X002583Y011428D01*
X002438Y011428D01*
X002389Y011476D01*
X002389Y011621D01*
X002288Y011621D02*
X002240Y011573D01*
X002288Y011524D01*
X002288Y011476D01*
X002240Y011428D01*
X002143Y011428D01*
X002094Y011476D01*
X001996Y011476D02*
X001996Y011428D01*
X001947Y011428D01*
X001947Y011476D01*
X001996Y011476D01*
X001846Y011476D02*
X001798Y011428D01*
X001701Y011428D01*
X001653Y011476D01*
X001749Y011573D02*
X001798Y011573D01*
X001846Y011524D01*
X001846Y011476D01*
X001798Y011573D02*
X001846Y011621D01*
X001846Y011669D01*
X001798Y011718D01*
X001701Y011718D01*
X001653Y011669D01*
X002094Y011669D02*
X002143Y011718D01*
X002240Y011718D01*
X002288Y011669D01*
X002288Y011621D01*
X002240Y011573D02*
X002191Y011573D01*
X002684Y011428D02*
X002684Y011718D01*
X002877Y011718D01*
X002721Y010573D02*
X002721Y010379D01*
X002624Y010283D01*
X002527Y010379D01*
X002527Y010573D01*
X002426Y010524D02*
X002233Y010331D01*
X002281Y010283D01*
X002378Y010283D01*
X002426Y010331D01*
X002426Y010524D01*
X002378Y010573D01*
X002281Y010573D01*
X002233Y010524D01*
X002233Y010331D01*
X002132Y010331D02*
X002083Y010283D01*
X001987Y010283D01*
X001938Y010331D01*
X002132Y010524D01*
X002132Y010331D01*
X002132Y010524D02*
X002083Y010573D01*
X001987Y010573D01*
X001938Y010524D01*
X001938Y010331D01*
X001837Y010331D02*
X001789Y010283D01*
X001692Y010283D01*
X001644Y010331D01*
X001837Y010524D01*
X001837Y010331D01*
X001837Y010524D02*
X001789Y010573D01*
X001692Y010573D01*
X001644Y010524D01*
X001644Y010331D01*
X001542Y010283D02*
X001349Y010283D01*
X001446Y010283D02*
X001446Y010573D01*
X001349Y010476D01*
X002822Y010186D02*
X002919Y010283D01*
X002870Y010283D01*
X002870Y010331D01*
X002919Y010331D01*
X002919Y010283D01*
X005820Y004208D02*
X005820Y004015D01*
X005820Y004112D02*
X006110Y004112D01*
X012190Y002657D02*
X012238Y002705D01*
X012335Y002705D01*
X012383Y002657D01*
X012383Y002608D01*
X012190Y002415D01*
X012383Y002415D01*
X012485Y002415D02*
X012678Y002608D01*
X012678Y002657D01*
X012630Y002705D01*
X012533Y002705D01*
X012485Y002657D01*
X012485Y002415D02*
X012678Y002415D01*
X012779Y002415D02*
X012779Y002705D01*
X012828Y002560D02*
X012973Y002415D01*
X013074Y002318D02*
X013171Y002415D01*
X013122Y002415D01*
X013122Y002463D01*
X013171Y002463D01*
X013171Y002415D01*
X012973Y002705D02*
X012779Y002512D01*
X013565Y002608D02*
X013662Y002705D01*
X013662Y002415D01*
X013565Y002415D02*
X013759Y002415D01*
X013860Y002415D02*
X013908Y002415D01*
X013908Y002463D01*
X013860Y002463D01*
X013860Y002415D01*
X014007Y002463D02*
X014055Y002415D01*
X014152Y002415D01*
X014201Y002463D01*
X014201Y002560D01*
X014152Y002608D01*
X014104Y002608D01*
X014007Y002560D01*
X014007Y002705D01*
X014201Y002705D01*
X014302Y002705D02*
X014302Y002415D01*
X014398Y002512D01*
X014495Y002415D01*
X014495Y002705D01*
X015257Y003401D02*
X015306Y003353D01*
X015354Y003353D01*
X015402Y003401D01*
X015402Y003498D01*
X015451Y003546D01*
X015499Y003546D01*
X015548Y003498D01*
X015548Y003401D01*
X015499Y003353D01*
X015257Y003401D02*
X015257Y003498D01*
X015306Y003546D01*
X015257Y003647D02*
X015257Y003841D01*
X015257Y003942D02*
X015548Y003942D01*
X015402Y003942D02*
X015402Y004135D01*
X015402Y004236D02*
X015402Y004382D01*
X015451Y004430D01*
X015499Y004430D01*
X015548Y004382D01*
X015548Y004285D01*
X015499Y004236D01*
X015402Y004236D01*
X015306Y004333D01*
X015257Y004430D01*
X015306Y004531D02*
X015257Y004579D01*
X015257Y004676D01*
X015306Y004725D01*
X015354Y004725D01*
X015548Y004531D01*
X015548Y004725D01*
X015499Y004826D02*
X015306Y004826D01*
X015257Y004874D01*
X015257Y004971D01*
X015306Y005019D01*
X015499Y004826D01*
X015548Y004874D01*
X015548Y004971D01*
X015499Y005019D01*
X015306Y005019D01*
X015402Y005120D02*
X015306Y005217D01*
X015257Y005314D01*
X015402Y005266D02*
X015402Y005120D01*
X015499Y005120D01*
X015548Y005169D01*
X015548Y005266D01*
X015499Y005314D01*
X015451Y005314D01*
X015402Y005266D01*
X015257Y004135D02*
X015548Y004135D01*
X015402Y003744D02*
X015402Y003647D01*
X015257Y003647D02*
X015548Y003647D01*
D13*
X004272Y004738D02*
X004273Y007098D01*
X003468Y009017D02*
X001657Y009017D01*
X001657Y009194D01*
X002169Y009194D02*
X002169Y009981D01*
X001657Y009981D02*
X001657Y010158D01*
X003468Y010158D01*
X003468Y009981D01*
X003468Y009194D02*
X003468Y009017D01*
X004657Y009517D02*
X004657Y009694D01*
X004657Y009517D02*
X006468Y009517D01*
X006468Y009694D01*
X005956Y009694D02*
X005956Y010481D01*
X006468Y010481D02*
X006468Y010658D01*
X004657Y010658D01*
X004657Y010481D01*
X006539Y011458D02*
X006539Y012698D01*
X007208Y012698D01*
X007802Y012604D02*
X007802Y011581D01*
X007956Y011477D02*
X008429Y011477D01*
X008586Y011615D01*
X008586Y012580D01*
X008429Y012698D01*
X007956Y012698D01*
X008429Y012698D01*
X008468Y013017D02*
X006657Y013017D01*
X006657Y013194D01*
X006657Y013981D02*
X006657Y014158D01*
X008468Y014158D01*
X008468Y013981D01*
X007956Y013981D02*
X007956Y013194D01*
X008468Y013194D02*
X008468Y013017D01*
X009503Y014647D02*
X009503Y009528D01*
X014631Y009528D01*
X014631Y014647D01*
X009503Y014647D01*
X010114Y013357D02*
X010166Y013433D01*
X010221Y013507D01*
X010279Y013579D01*
X010339Y013649D01*
X010403Y013716D01*
X010469Y013781D01*
X010538Y013842D01*
X010608Y013901D01*
X010682Y013958D01*
X010757Y014011D01*
X010835Y014061D01*
X010914Y014108D01*
X010995Y014152D01*
X011078Y014193D01*
X011163Y014230D01*
X011249Y014264D01*
X011336Y014295D01*
X011424Y014322D01*
X011514Y014345D01*
X011604Y014365D01*
X011695Y014381D01*
X011786Y014394D01*
X011878Y014403D01*
X011970Y014408D01*
X012063Y014410D01*
X013992Y016182D02*
X013992Y017993D01*
X014169Y017993D01*
X014169Y017481D02*
X014956Y017481D01*
X014956Y017993D02*
X015133Y017993D01*
X015133Y016182D01*
X014956Y016182D01*
X014169Y016182D02*
X013992Y016182D01*
X014011Y010818D02*
X013959Y010742D01*
X013904Y010668D01*
X013846Y010596D01*
X013786Y010526D01*
X013722Y010459D01*
X013656Y010394D01*
X013587Y010333D01*
X013517Y010274D01*
X013443Y010217D01*
X013368Y010164D01*
X013290Y010114D01*
X013211Y010067D01*
X013130Y010023D01*
X013047Y009982D01*
X012962Y009945D01*
X012876Y009911D01*
X012789Y009880D01*
X012701Y009853D01*
X012611Y009830D01*
X012521Y009810D01*
X012430Y009794D01*
X012339Y009781D01*
X012247Y009772D01*
X012155Y009767D01*
X012062Y009765D01*
X012062Y009764D02*
X011967Y009766D01*
X011872Y009772D01*
X011778Y009782D01*
X011684Y009795D01*
X011591Y009813D01*
X011498Y009834D01*
X011406Y009859D01*
X011316Y009888D01*
X011227Y009921D01*
X011139Y009957D01*
X011053Y009996D01*
X010968Y010039D01*
X010885Y010086D01*
X010804Y010136D01*
X010726Y010189D01*
X010649Y010245D01*
X010575Y010305D01*
X010504Y010367D01*
X010435Y010432D01*
X010368Y010500D01*
X010305Y010571D01*
X010244Y010644D01*
X010187Y010720D01*
X010133Y010798D01*
X012063Y014411D02*
X012158Y014409D01*
X012253Y014403D01*
X012347Y014393D01*
X012441Y014380D01*
X012534Y014362D01*
X012627Y014341D01*
X012719Y014316D01*
X012809Y014287D01*
X012898Y014254D01*
X012986Y014218D01*
X013072Y014179D01*
X013157Y014136D01*
X013240Y014089D01*
X013321Y014039D01*
X013399Y013986D01*
X013476Y013930D01*
X013550Y013870D01*
X013621Y013808D01*
X013690Y013743D01*
X013757Y013675D01*
X013820Y013604D01*
X013881Y013531D01*
X013938Y013455D01*
X013992Y013377D01*
X015470Y008143D02*
X015563Y008021D01*
X015744Y008021D01*
X015648Y008143D02*
X015573Y008027D01*
X015563Y008021D02*
X015381Y008021D01*
X007208Y011458D02*
X006539Y011458D01*
X006853Y007098D02*
X006853Y004738D01*
X004272Y004738D01*
D14*
X003643Y008588D03*
X006483Y008588D03*
D15*
X006576Y008663D02*
X006726Y008813D01*
X006726Y008363D01*
X006576Y008363D02*
X006876Y008363D01*
X007037Y008363D02*
X007187Y008513D01*
X007337Y008363D01*
X007337Y008813D01*
X007037Y008813D02*
X007037Y008363D01*
X007563Y008088D02*
X007563Y010588D01*
X008563Y010588D01*
X008563Y008088D01*
X007563Y008088D01*
X005959Y008363D02*
X005884Y008363D01*
X005884Y008438D01*
X005959Y008438D01*
X005959Y008363D01*
X005809Y008212D01*
X005649Y008363D02*
X005499Y008513D01*
X005574Y008513D02*
X005348Y008513D01*
X005348Y008363D02*
X005348Y008813D01*
X005574Y008813D01*
X005649Y008738D01*
X005649Y008588D01*
X005574Y008513D01*
X005188Y008663D02*
X005188Y008738D01*
X005113Y008813D01*
X004963Y008813D01*
X004888Y008738D01*
X005188Y008663D02*
X004888Y008363D01*
X005188Y008363D01*
X004733Y008363D02*
X004658Y008363D01*
X004658Y008438D01*
X004733Y008438D01*
X004733Y008363D01*
X004498Y008438D02*
X004498Y008513D01*
X004423Y008588D01*
X004273Y008588D01*
X004198Y008663D01*
X004198Y008738D01*
X004273Y008813D01*
X004423Y008813D01*
X004498Y008738D01*
X004498Y008663D01*
X004423Y008588D01*
X004273Y008588D02*
X004198Y008513D01*
X004198Y008438D01*
X004273Y008363D01*
X004423Y008363D01*
X004498Y008438D01*
X004336Y013923D02*
X004222Y013923D01*
X004166Y013979D01*
X004393Y014206D01*
X004393Y013979D01*
X004336Y013923D01*
X004166Y013979D02*
X004166Y014206D01*
X004222Y014263D01*
X004336Y014263D01*
X004393Y014206D01*
X004033Y014206D02*
X004033Y013979D01*
X003977Y013923D01*
X003863Y013923D01*
X003807Y013979D01*
X004033Y014206D01*
X003977Y014263D01*
X003863Y014263D01*
X003807Y014206D01*
X003807Y013979D01*
X003674Y013923D02*
X003448Y013923D01*
X003561Y013923D02*
X003561Y014263D01*
X003448Y014149D01*
X008363Y015249D02*
X010763Y015253D01*
X010763Y018923D01*
X008363Y018923D01*
X008363Y015253D01*
X009363Y015253D02*
X009376Y015278D01*
X009391Y015302D01*
X009410Y015324D01*
X009431Y015343D01*
X009454Y015359D01*
X009480Y015371D01*
X009507Y015381D01*
X009535Y015386D01*
X009563Y015388D01*
X009591Y015386D01*
X009619Y015381D01*
X009646Y015371D01*
X009672Y015359D01*
X009695Y015343D01*
X009716Y015324D01*
X009735Y015302D01*
X009750Y015278D01*
X009763Y015253D01*
X010276Y015620D02*
X010278Y015645D01*
X010284Y015669D01*
X010293Y015693D01*
X010306Y015714D01*
X010322Y015734D01*
X010341Y015750D01*
X010362Y015764D01*
X010385Y015774D01*
X010409Y015781D01*
X010434Y015784D01*
X010459Y015783D01*
X010483Y015778D01*
X010507Y015770D01*
X010529Y015758D01*
X010549Y015742D01*
X010567Y015724D01*
X010581Y015704D01*
X010592Y015681D01*
X010600Y015657D01*
X010604Y015633D01*
X010604Y015607D01*
X010600Y015583D01*
X010592Y015559D01*
X010581Y015536D01*
X010567Y015516D01*
X010549Y015498D01*
X010529Y015482D01*
X010507Y015470D01*
X010483Y015462D01*
X010459Y015457D01*
X010434Y015456D01*
X010409Y015459D01*
X010385Y015466D01*
X010362Y015476D01*
X010341Y015490D01*
X010322Y015506D01*
X010306Y015526D01*
X010293Y015547D01*
X010284Y015571D01*
X010278Y015595D01*
X010276Y015620D01*
X009313Y001588D02*
X009313Y000588D01*
X011813Y000588D01*
X011813Y001588D01*
X009313Y001588D01*
D16*
X012550Y016588D02*
X012575Y016588D01*
D17*
X005138Y014088D03*
X002988Y014088D03*
D18*
X011350Y005210D03*
D19*
X010154Y010726D02*
X010367Y010428D01*
X010366Y010428D02*
X010365Y010419D01*
X010367Y010409D01*
X010371Y010400D01*
X010378Y010393D01*
X010387Y010389D01*
X010397Y010388D01*
X010407Y010390D01*
X010714Y010192D01*
X010690Y010162D01*
X010664Y010134D01*
X010635Y010109D01*
X010603Y010088D01*
X010570Y010069D01*
X010535Y010054D01*
X010499Y010042D01*
X010461Y010033D01*
X010423Y010029D01*
X010385Y010028D01*
X010347Y010031D01*
X010309Y010038D01*
X010273Y010048D01*
X010237Y010062D01*
X010203Y010079D01*
X010170Y010100D01*
X010140Y010123D01*
X010113Y010150D01*
X010088Y010179D01*
X010066Y010210D01*
X010047Y010243D01*
X010031Y010278D01*
X010019Y010314D01*
X010011Y010352D01*
X010006Y010390D01*
X010005Y010428D01*
X010008Y010466D01*
X010014Y010504D01*
X010024Y010541D01*
X010038Y010576D01*
X010055Y010610D01*
X010075Y010643D01*
X010099Y010673D01*
X010125Y010701D01*
X010154Y010726D01*
X010175Y010696D01*
X010148Y010672D01*
X010123Y010645D01*
X010101Y010615D01*
X010083Y010584D01*
X010067Y010550D01*
X010055Y010516D01*
X010047Y010480D01*
X010043Y010444D01*
X010042Y010407D01*
X010045Y010371D01*
X010052Y010335D01*
X010063Y010300D01*
X010077Y010266D01*
X010094Y010234D01*
X010115Y010204D01*
X010139Y010176D01*
X010165Y010151D01*
X010194Y010128D01*
X010225Y010109D01*
X010258Y010093D01*
X010293Y010080D01*
X010328Y010072D01*
X010364Y010066D01*
X010401Y010065D01*
X010438Y010067D01*
X010474Y010074D01*
X010509Y010083D01*
X010543Y010097D01*
X010575Y010114D01*
X010606Y010134D01*
X010634Y010157D01*
X010660Y010183D01*
X010683Y010212D01*
X010652Y010232D01*
X010630Y010205D01*
X010605Y010181D01*
X010577Y010159D01*
X010548Y010141D01*
X010517Y010126D01*
X010484Y010114D01*
X010450Y010107D01*
X010415Y010103D01*
X010381Y010102D01*
X010346Y010106D01*
X010312Y010113D01*
X010279Y010124D01*
X010248Y010139D01*
X010218Y010157D01*
X010190Y010178D01*
X010165Y010202D01*
X010143Y010229D01*
X010123Y010257D01*
X010107Y010288D01*
X010095Y010321D01*
X010086Y010354D01*
X010080Y010389D01*
X010079Y010423D01*
X010081Y010458D01*
X010088Y010492D01*
X010097Y010525D01*
X010111Y010558D01*
X010128Y010588D01*
X010148Y010616D01*
X010171Y010642D01*
X010197Y010666D01*
X010218Y010635D01*
X010194Y010613D01*
X010173Y010588D01*
X010155Y010561D01*
X010140Y010532D01*
X010128Y010502D01*
X010121Y010470D01*
X010117Y010437D01*
X010116Y010405D01*
X010120Y010372D01*
X010127Y010341D01*
X010138Y010310D01*
X010153Y010280D01*
X010170Y010253D01*
X010191Y010228D01*
X010215Y010205D01*
X010241Y010186D01*
X010269Y010169D01*
X010299Y010156D01*
X010330Y010147D01*
X010363Y010141D01*
X010395Y010139D01*
X010428Y010141D01*
X010460Y010146D01*
X010491Y010156D01*
X010521Y010169D01*
X010550Y010185D01*
X010576Y010204D01*
X010599Y010227D01*
X010621Y010252D01*
X010589Y010272D01*
X010569Y010249D01*
X010547Y010229D01*
X010522Y010211D01*
X010495Y010197D01*
X010467Y010187D01*
X010438Y010180D01*
X010408Y010176D01*
X010377Y010177D01*
X010347Y010181D01*
X010318Y010189D01*
X010290Y010200D01*
X010264Y010215D01*
X010240Y010233D01*
X010218Y010254D01*
X010199Y010277D01*
X010182Y010303D01*
X010170Y010330D01*
X010160Y010359D01*
X010155Y010389D01*
X010153Y010419D01*
X010155Y010449D01*
X010161Y010479D01*
X010170Y010508D01*
X010183Y010535D01*
X010199Y010561D01*
X010218Y010584D01*
X010240Y010605D01*
X010261Y010575D01*
X010242Y010555D01*
X010225Y010534D01*
X010211Y010510D01*
X010201Y010485D01*
X010194Y010458D01*
X010190Y010431D01*
X010191Y010403D01*
X010194Y010376D01*
X010202Y010350D01*
X010213Y010325D01*
X010227Y010301D01*
X010244Y010280D01*
X010264Y010261D01*
X010286Y010245D01*
X010310Y010232D01*
X010336Y010222D01*
X010363Y010216D01*
X010390Y010213D01*
X010418Y010214D01*
X010445Y010219D01*
X010471Y010227D01*
X010496Y010239D01*
X010519Y010254D01*
X010540Y010271D01*
X010558Y010292D01*
X010527Y010312D01*
X010509Y010293D01*
X010489Y010278D01*
X010467Y010266D01*
X010444Y010257D01*
X010419Y010252D01*
X010394Y010250D01*
X010369Y010252D01*
X010344Y010258D01*
X010321Y010268D01*
X010299Y010281D01*
X010279Y010297D01*
X010262Y010315D01*
X010249Y010336D01*
X010238Y010359D01*
X010231Y010384D01*
X010227Y010409D01*
X010228Y010434D01*
X010232Y010459D01*
X010240Y010483D01*
X010251Y010505D01*
X010265Y010526D01*
X010283Y010544D01*
X010304Y010514D01*
X010290Y010497D01*
X010278Y010478D01*
X010270Y010457D01*
X010265Y010435D01*
X010264Y010413D01*
X010267Y010391D01*
X010274Y010369D01*
X010284Y010349D01*
X010297Y010332D01*
X010313Y010316D01*
X010332Y010304D01*
X010352Y010294D01*
X010374Y010289D01*
X010396Y010287D01*
X010419Y010289D01*
X010440Y010295D01*
X010461Y010304D01*
X010479Y010316D01*
X010495Y010332D01*
X010464Y010352D01*
X010449Y010340D01*
X010433Y010332D01*
X010416Y010326D01*
X010397Y010324D01*
X010379Y010326D01*
X010361Y010331D01*
X010345Y010339D01*
X010330Y010350D01*
X010318Y010364D01*
X010309Y010380D01*
X010303Y010398D01*
X010301Y010416D01*
X010302Y010434D01*
X010307Y010452D01*
X010315Y010469D01*
X010326Y010483D01*
X010348Y010452D01*
X010342Y010440D01*
X010339Y010427D01*
X010338Y010413D01*
X010341Y010400D01*
X010347Y010388D01*
X010356Y010377D01*
X010367Y010369D01*
X010379Y010363D01*
X010393Y010361D01*
X010407Y010362D01*
X010420Y010366D01*
X010431Y010373D01*
X010989Y012073D02*
X011219Y012073D01*
X011296Y012150D01*
X011296Y012457D01*
X011219Y012534D01*
X010989Y012534D01*
X010989Y012073D01*
X011449Y012073D02*
X011449Y012534D01*
X011679Y012534D01*
X011756Y012457D01*
X011756Y012304D01*
X011679Y012227D01*
X011449Y012227D01*
X011603Y012227D02*
X011756Y012073D01*
X011910Y012073D02*
X012217Y012073D01*
X012370Y012073D02*
X012677Y012380D01*
X012677Y012457D01*
X012600Y012534D01*
X012447Y012534D01*
X012370Y012457D01*
X012063Y012534D02*
X012063Y012073D01*
X012370Y012073D02*
X012677Y012073D01*
X012830Y012150D02*
X012907Y012073D01*
X013061Y012073D01*
X013137Y012150D01*
X013137Y012304D01*
X013061Y012380D01*
X012984Y012380D01*
X012830Y012304D01*
X012830Y012534D01*
X013137Y012534D01*
X012063Y012534D02*
X011910Y012380D01*
X010701Y013996D02*
X010403Y013783D01*
X010403Y013784D02*
X010394Y013785D01*
X010384Y013783D01*
X010375Y013779D01*
X010368Y013772D01*
X010364Y013763D01*
X010363Y013753D01*
X010365Y013743D01*
X010167Y013436D01*
X010137Y013460D01*
X010109Y013486D01*
X010084Y013515D01*
X010063Y013547D01*
X010044Y013580D01*
X010029Y013615D01*
X010017Y013651D01*
X010008Y013689D01*
X010004Y013727D01*
X010003Y013765D01*
X010006Y013803D01*
X010013Y013841D01*
X010023Y013877D01*
X010037Y013913D01*
X010054Y013947D01*
X010075Y013980D01*
X010098Y014010D01*
X010125Y014037D01*
X010154Y014062D01*
X010185Y014084D01*
X010218Y014103D01*
X010253Y014119D01*
X010289Y014131D01*
X010327Y014139D01*
X010365Y014144D01*
X010403Y014145D01*
X010441Y014142D01*
X010479Y014136D01*
X010516Y014126D01*
X010551Y014112D01*
X010585Y014095D01*
X010618Y014075D01*
X010648Y014051D01*
X010676Y014025D01*
X010701Y013996D01*
X010671Y013975D01*
X010647Y014002D01*
X010620Y014027D01*
X010590Y014049D01*
X010559Y014067D01*
X010525Y014083D01*
X010491Y014095D01*
X010455Y014103D01*
X010419Y014107D01*
X010382Y014108D01*
X010346Y014105D01*
X010310Y014098D01*
X010275Y014087D01*
X010241Y014073D01*
X010209Y014056D01*
X010179Y014035D01*
X010151Y014011D01*
X010126Y013985D01*
X010103Y013956D01*
X010084Y013925D01*
X010068Y013892D01*
X010055Y013857D01*
X010047Y013822D01*
X010041Y013786D01*
X010040Y013749D01*
X010042Y013712D01*
X010049Y013676D01*
X010058Y013641D01*
X010072Y013607D01*
X010089Y013575D01*
X010109Y013544D01*
X010132Y013516D01*
X010158Y013490D01*
X010187Y013467D01*
X010207Y013498D01*
X010180Y013520D01*
X010156Y013545D01*
X010134Y013573D01*
X010116Y013602D01*
X010101Y013633D01*
X010089Y013666D01*
X010082Y013700D01*
X010078Y013735D01*
X010077Y013769D01*
X010081Y013804D01*
X010088Y013838D01*
X010099Y013871D01*
X010114Y013902D01*
X010132Y013932D01*
X010153Y013960D01*
X010177Y013985D01*
X010204Y014007D01*
X010232Y014027D01*
X010263Y014043D01*
X010296Y014055D01*
X010329Y014064D01*
X010364Y014070D01*
X010398Y014071D01*
X010433Y014069D01*
X010467Y014062D01*
X010500Y014053D01*
X010533Y014039D01*
X010563Y014022D01*
X010591Y014002D01*
X010617Y013979D01*
X010641Y013953D01*
X010610Y013932D01*
X010588Y013956D01*
X010563Y013977D01*
X010536Y013995D01*
X010507Y014010D01*
X010477Y014022D01*
X010445Y014029D01*
X010412Y014033D01*
X010380Y014034D01*
X010347Y014030D01*
X010316Y014023D01*
X010285Y014012D01*
X010255Y013997D01*
X010228Y013980D01*
X010203Y013959D01*
X010180Y013935D01*
X010161Y013909D01*
X010144Y013881D01*
X010131Y013851D01*
X010122Y013820D01*
X010116Y013787D01*
X010114Y013755D01*
X010116Y013722D01*
X010121Y013690D01*
X010131Y013659D01*
X010144Y013629D01*
X010160Y013600D01*
X010179Y013574D01*
X010202Y013551D01*
X010227Y013529D01*
X010247Y013561D01*
X010224Y013581D01*
X010204Y013603D01*
X010186Y013628D01*
X010172Y013655D01*
X010162Y013683D01*
X010155Y013712D01*
X010151Y013742D01*
X010152Y013773D01*
X010156Y013803D01*
X010164Y013832D01*
X010175Y013860D01*
X010190Y013886D01*
X010208Y013910D01*
X010229Y013932D01*
X010252Y013951D01*
X010278Y013968D01*
X010305Y013980D01*
X010334Y013990D01*
X010364Y013995D01*
X010394Y013997D01*
X010424Y013995D01*
X010454Y013989D01*
X010483Y013980D01*
X010510Y013967D01*
X010536Y013951D01*
X010559Y013932D01*
X010580Y013910D01*
X010550Y013889D01*
X010530Y013908D01*
X010509Y013925D01*
X010485Y013939D01*
X010460Y013949D01*
X010433Y013956D01*
X010406Y013960D01*
X010378Y013959D01*
X010351Y013956D01*
X010325Y013948D01*
X010300Y013937D01*
X010276Y013923D01*
X010255Y013906D01*
X010236Y013886D01*
X010220Y013864D01*
X010207Y013840D01*
X010197Y013814D01*
X010191Y013787D01*
X010188Y013760D01*
X010189Y013732D01*
X010194Y013705D01*
X010202Y013679D01*
X010214Y013654D01*
X010229Y013631D01*
X010246Y013610D01*
X010267Y013592D01*
X010287Y013623D01*
X010268Y013641D01*
X010253Y013661D01*
X010241Y013683D01*
X010232Y013706D01*
X010227Y013731D01*
X010225Y013756D01*
X010227Y013781D01*
X010233Y013806D01*
X010243Y013829D01*
X010256Y013851D01*
X010272Y013871D01*
X010290Y013888D01*
X010311Y013901D01*
X010334Y013912D01*
X010359Y013919D01*
X010384Y013923D01*
X010409Y013922D01*
X010434Y013918D01*
X010458Y013910D01*
X010480Y013899D01*
X010501Y013885D01*
X010519Y013867D01*
X010489Y013846D01*
X010472Y013860D01*
X010453Y013872D01*
X010432Y013880D01*
X010410Y013885D01*
X010388Y013886D01*
X010366Y013883D01*
X010344Y013876D01*
X010324Y013866D01*
X010307Y013853D01*
X010291Y013837D01*
X010279Y013818D01*
X010269Y013798D01*
X010264Y013776D01*
X010262Y013754D01*
X010264Y013731D01*
X010270Y013710D01*
X010279Y013689D01*
X010291Y013671D01*
X010307Y013655D01*
X010327Y013686D01*
X010315Y013701D01*
X010307Y013717D01*
X010301Y013734D01*
X010299Y013753D01*
X010301Y013771D01*
X010306Y013789D01*
X010314Y013805D01*
X010325Y013820D01*
X010339Y013832D01*
X010355Y013841D01*
X010373Y013847D01*
X010391Y013849D01*
X010409Y013848D01*
X010427Y013843D01*
X010444Y013835D01*
X010458Y013824D01*
X010427Y013802D01*
X010415Y013808D01*
X010402Y013811D01*
X010388Y013812D01*
X010375Y013809D01*
X010363Y013803D01*
X010352Y013794D01*
X010344Y013783D01*
X010338Y013771D01*
X010336Y013757D01*
X010337Y013743D01*
X010341Y013730D01*
X010348Y013719D01*
X013971Y013449D02*
X013758Y013747D01*
X013759Y013747D02*
X013760Y013756D01*
X013758Y013766D01*
X013754Y013775D01*
X013747Y013782D01*
X013738Y013786D01*
X013728Y013787D01*
X013718Y013785D01*
X013411Y013983D01*
X013435Y014013D01*
X013461Y014041D01*
X013490Y014066D01*
X013522Y014087D01*
X013555Y014106D01*
X013590Y014121D01*
X013626Y014133D01*
X013664Y014142D01*
X013702Y014146D01*
X013740Y014147D01*
X013778Y014144D01*
X013816Y014137D01*
X013852Y014127D01*
X013888Y014113D01*
X013922Y014096D01*
X013955Y014075D01*
X013985Y014052D01*
X014012Y014025D01*
X014037Y013996D01*
X014059Y013965D01*
X014078Y013932D01*
X014094Y013897D01*
X014106Y013861D01*
X014114Y013823D01*
X014119Y013785D01*
X014120Y013747D01*
X014117Y013709D01*
X014111Y013671D01*
X014101Y013634D01*
X014087Y013599D01*
X014070Y013565D01*
X014050Y013532D01*
X014026Y013502D01*
X014000Y013474D01*
X013971Y013449D01*
X013950Y013479D01*
X013977Y013503D01*
X014002Y013530D01*
X014024Y013560D01*
X014042Y013591D01*
X014058Y013625D01*
X014070Y013659D01*
X014078Y013695D01*
X014082Y013731D01*
X014083Y013768D01*
X014080Y013804D01*
X014073Y013840D01*
X014062Y013875D01*
X014048Y013909D01*
X014031Y013941D01*
X014010Y013971D01*
X013986Y013999D01*
X013960Y014024D01*
X013931Y014047D01*
X013900Y014066D01*
X013867Y014082D01*
X013832Y014095D01*
X013797Y014103D01*
X013761Y014109D01*
X013724Y014110D01*
X013687Y014108D01*
X013651Y014101D01*
X013616Y014092D01*
X013582Y014078D01*
X013550Y014061D01*
X013519Y014041D01*
X013491Y014018D01*
X013465Y013992D01*
X013442Y013963D01*
X013473Y013943D01*
X013495Y013970D01*
X013520Y013994D01*
X013548Y014016D01*
X013577Y014034D01*
X013608Y014049D01*
X013641Y014061D01*
X013675Y014068D01*
X013710Y014072D01*
X013744Y014073D01*
X013779Y014069D01*
X013813Y014062D01*
X013846Y014051D01*
X013877Y014036D01*
X013907Y014018D01*
X013935Y013997D01*
X013960Y013973D01*
X013982Y013946D01*
X014002Y013918D01*
X014018Y013887D01*
X014030Y013854D01*
X014039Y013821D01*
X014045Y013786D01*
X014046Y013752D01*
X014044Y013717D01*
X014037Y013683D01*
X014028Y013650D01*
X014014Y013617D01*
X013997Y013587D01*
X013977Y013559D01*
X013954Y013533D01*
X013928Y013509D01*
X013907Y013540D01*
X013931Y013562D01*
X013952Y013587D01*
X013970Y013614D01*
X013985Y013643D01*
X013997Y013673D01*
X014004Y013705D01*
X014008Y013738D01*
X014009Y013770D01*
X014005Y013803D01*
X013998Y013834D01*
X013987Y013865D01*
X013972Y013895D01*
X013955Y013922D01*
X013934Y013947D01*
X013910Y013970D01*
X013884Y013989D01*
X013856Y014006D01*
X013826Y014019D01*
X013795Y014028D01*
X013762Y014034D01*
X013730Y014036D01*
X013697Y014034D01*
X013665Y014029D01*
X013634Y014019D01*
X013604Y014006D01*
X013575Y013990D01*
X013549Y013971D01*
X013526Y013948D01*
X013504Y013923D01*
X013536Y013903D01*
X013556Y013926D01*
X013578Y013946D01*
X013603Y013964D01*
X013630Y013978D01*
X013658Y013988D01*
X013687Y013995D01*
X013717Y013999D01*
X013748Y013998D01*
X013778Y013994D01*
X013807Y013986D01*
X013835Y013975D01*
X013861Y013960D01*
X013885Y013942D01*
X013907Y013921D01*
X013926Y013898D01*
X013943Y013872D01*
X013955Y013845D01*
X013965Y013816D01*
X013970Y013786D01*
X013972Y013756D01*
X013970Y013726D01*
X013964Y013696D01*
X013955Y013667D01*
X013942Y013640D01*
X013926Y013614D01*
X013907Y013591D01*
X013885Y013570D01*
X013864Y013600D01*
X013883Y013620D01*
X013900Y013641D01*
X013914Y013665D01*
X013924Y013690D01*
X013931Y013717D01*
X013935Y013744D01*
X013934Y013772D01*
X013931Y013799D01*
X013923Y013825D01*
X013912Y013850D01*
X013898Y013874D01*
X013881Y013895D01*
X013861Y013914D01*
X013839Y013930D01*
X013815Y013943D01*
X013789Y013953D01*
X013762Y013959D01*
X013735Y013962D01*
X013707Y013961D01*
X013680Y013956D01*
X013654Y013948D01*
X013629Y013936D01*
X013606Y013921D01*
X013585Y013904D01*
X013567Y013883D01*
X013598Y013863D01*
X013616Y013882D01*
X013636Y013897D01*
X013658Y013909D01*
X013681Y013918D01*
X013706Y013923D01*
X013731Y013925D01*
X013756Y013923D01*
X013781Y013917D01*
X013804Y013907D01*
X013826Y013894D01*
X013846Y013878D01*
X013863Y013860D01*
X013876Y013839D01*
X013887Y013816D01*
X013894Y013791D01*
X013898Y013766D01*
X013897Y013741D01*
X013893Y013716D01*
X013885Y013692D01*
X013874Y013670D01*
X013860Y013649D01*
X013842Y013631D01*
X013821Y013661D01*
X013835Y013678D01*
X013847Y013697D01*
X013855Y013718D01*
X013860Y013740D01*
X013861Y013762D01*
X013858Y013784D01*
X013851Y013806D01*
X013841Y013826D01*
X013828Y013843D01*
X013812Y013859D01*
X013793Y013871D01*
X013773Y013881D01*
X013751Y013886D01*
X013729Y013888D01*
X013706Y013886D01*
X013685Y013880D01*
X013664Y013871D01*
X013646Y013859D01*
X013630Y013843D01*
X013661Y013823D01*
X013676Y013835D01*
X013692Y013843D01*
X013709Y013849D01*
X013728Y013851D01*
X013746Y013849D01*
X013764Y013844D01*
X013780Y013836D01*
X013795Y013825D01*
X013807Y013811D01*
X013816Y013795D01*
X013822Y013777D01*
X013824Y013759D01*
X013823Y013741D01*
X013818Y013723D01*
X013810Y013706D01*
X013799Y013692D01*
X013777Y013723D01*
X013783Y013735D01*
X013786Y013748D01*
X013787Y013762D01*
X013784Y013775D01*
X013778Y013787D01*
X013769Y013798D01*
X013758Y013806D01*
X013746Y013812D01*
X013732Y013814D01*
X013718Y013813D01*
X013705Y013809D01*
X013694Y013802D01*
X013424Y010179D02*
X013722Y010392D01*
X013722Y010391D02*
X013731Y010390D01*
X013741Y010392D01*
X013750Y010396D01*
X013757Y010403D01*
X013761Y010412D01*
X013762Y010422D01*
X013760Y010432D01*
X013958Y010739D01*
X013988Y010715D01*
X014016Y010689D01*
X014041Y010660D01*
X014062Y010628D01*
X014081Y010595D01*
X014096Y010560D01*
X014108Y010524D01*
X014117Y010486D01*
X014121Y010448D01*
X014122Y010410D01*
X014119Y010372D01*
X014112Y010334D01*
X014102Y010298D01*
X014088Y010262D01*
X014071Y010228D01*
X014050Y010195D01*
X014027Y010165D01*
X014000Y010138D01*
X013971Y010113D01*
X013940Y010091D01*
X013907Y010072D01*
X013872Y010056D01*
X013836Y010044D01*
X013798Y010036D01*
X013760Y010031D01*
X013722Y010030D01*
X013684Y010033D01*
X013646Y010039D01*
X013609Y010049D01*
X013574Y010063D01*
X013540Y010080D01*
X013507Y010100D01*
X013477Y010124D01*
X013449Y010150D01*
X013424Y010179D01*
X013454Y010200D01*
X013478Y010173D01*
X013505Y010148D01*
X013535Y010126D01*
X013566Y010108D01*
X013600Y010092D01*
X013634Y010080D01*
X013670Y010072D01*
X013706Y010068D01*
X013743Y010067D01*
X013779Y010070D01*
X013815Y010077D01*
X013850Y010088D01*
X013884Y010102D01*
X013916Y010119D01*
X013946Y010140D01*
X013974Y010164D01*
X013999Y010190D01*
X014022Y010219D01*
X014041Y010250D01*
X014057Y010283D01*
X014070Y010318D01*
X014078Y010353D01*
X014084Y010389D01*
X014085Y010426D01*
X014083Y010463D01*
X014076Y010499D01*
X014067Y010534D01*
X014053Y010568D01*
X014036Y010600D01*
X014016Y010631D01*
X013993Y010659D01*
X013967Y010685D01*
X013938Y010708D01*
X013918Y010677D01*
X013945Y010655D01*
X013969Y010630D01*
X013991Y010602D01*
X014009Y010573D01*
X014024Y010542D01*
X014036Y010509D01*
X014043Y010475D01*
X014047Y010440D01*
X014048Y010406D01*
X014044Y010371D01*
X014037Y010337D01*
X014026Y010304D01*
X014011Y010273D01*
X013993Y010243D01*
X013972Y010215D01*
X013948Y010190D01*
X013921Y010168D01*
X013893Y010148D01*
X013862Y010132D01*
X013829Y010120D01*
X013796Y010111D01*
X013761Y010105D01*
X013727Y010104D01*
X013692Y010106D01*
X013658Y010113D01*
X013625Y010122D01*
X013592Y010136D01*
X013562Y010153D01*
X013534Y010173D01*
X013508Y010196D01*
X013484Y010222D01*
X013515Y010243D01*
X013537Y010219D01*
X013562Y010198D01*
X013589Y010180D01*
X013618Y010165D01*
X013648Y010153D01*
X013680Y010146D01*
X013713Y010142D01*
X013745Y010141D01*
X013778Y010145D01*
X013809Y010152D01*
X013840Y010163D01*
X013870Y010178D01*
X013897Y010195D01*
X013922Y010216D01*
X013945Y010240D01*
X013964Y010266D01*
X013981Y010294D01*
X013994Y010324D01*
X014003Y010355D01*
X014009Y010388D01*
X014011Y010420D01*
X014009Y010453D01*
X014004Y010485D01*
X013994Y010516D01*
X013981Y010546D01*
X013965Y010575D01*
X013946Y010601D01*
X013923Y010624D01*
X013898Y010646D01*
X013878Y010614D01*
X013901Y010594D01*
X013921Y010572D01*
X013939Y010547D01*
X013953Y010520D01*
X013963Y010492D01*
X013970Y010463D01*
X013974Y010433D01*
X013973Y010402D01*
X013969Y010372D01*
X013961Y010343D01*
X013950Y010315D01*
X013935Y010289D01*
X013917Y010265D01*
X013896Y010243D01*
X013873Y010224D01*
X013847Y010207D01*
X013820Y010195D01*
X013791Y010185D01*
X013761Y010180D01*
X013731Y010178D01*
X013701Y010180D01*
X013671Y010186D01*
X013642Y010195D01*
X013615Y010208D01*
X013589Y010224D01*
X013566Y010243D01*
X013545Y010265D01*
X013575Y010286D01*
X013595Y010267D01*
X013616Y010250D01*
X013640Y010236D01*
X013665Y010226D01*
X013692Y010219D01*
X013719Y010215D01*
X013747Y010216D01*
X013774Y010219D01*
X013800Y010227D01*
X013825Y010238D01*
X013849Y010252D01*
X013870Y010269D01*
X013889Y010289D01*
X013905Y010311D01*
X013918Y010335D01*
X013928Y010361D01*
X013934Y010388D01*
X013937Y010415D01*
X013936Y010443D01*
X013931Y010470D01*
X013923Y010496D01*
X013911Y010521D01*
X013896Y010544D01*
X013879Y010565D01*
X013858Y010583D01*
X013838Y010552D01*
X013857Y010534D01*
X013872Y010514D01*
X013884Y010492D01*
X013893Y010469D01*
X013898Y010444D01*
X013900Y010419D01*
X013898Y010394D01*
X013892Y010369D01*
X013882Y010346D01*
X013869Y010324D01*
X013853Y010304D01*
X013835Y010287D01*
X013814Y010274D01*
X013791Y010263D01*
X013766Y010256D01*
X013741Y010252D01*
X013716Y010253D01*
X013691Y010257D01*
X013667Y010265D01*
X013645Y010276D01*
X013624Y010290D01*
X013606Y010308D01*
X013636Y010329D01*
X013653Y010315D01*
X013672Y010303D01*
X013693Y010295D01*
X013715Y010290D01*
X013737Y010289D01*
X013759Y010292D01*
X013781Y010299D01*
X013801Y010309D01*
X013818Y010322D01*
X013834Y010338D01*
X013846Y010357D01*
X013856Y010377D01*
X013861Y010399D01*
X013863Y010421D01*
X013861Y010444D01*
X013855Y010465D01*
X013846Y010486D01*
X013834Y010504D01*
X013818Y010520D01*
X013798Y010489D01*
X013810Y010474D01*
X013818Y010458D01*
X013824Y010441D01*
X013826Y010422D01*
X013824Y010404D01*
X013819Y010386D01*
X013811Y010370D01*
X013800Y010355D01*
X013786Y010343D01*
X013770Y010334D01*
X013752Y010328D01*
X013734Y010326D01*
X013716Y010327D01*
X013698Y010332D01*
X013681Y010340D01*
X013667Y010351D01*
X013698Y010373D01*
X013710Y010367D01*
X013723Y010364D01*
X013737Y010363D01*
X013750Y010366D01*
X013762Y010372D01*
X013773Y010381D01*
X013781Y010392D01*
X013787Y010404D01*
X013789Y010418D01*
X013788Y010432D01*
X013784Y010445D01*
X013777Y010456D01*
D20*
X005563Y004548D03*
M02*
