%FSLAX44Y44*%
%MOMM*%
G71*
G01*
G75*
G04 Layer_Color=8388736*
%ADD10C,1.1000*%
%ADD11C,0.4000*%
%ADD12C,0.1500*%
%ADD13C,0.2000*%
%ADD14C,0.3000*%
%ADD15R,1.0000X1.0000*%
%ADD16R,1.0000X1.0000*%
G04:AMPARAMS|DCode=17|XSize=1.2mm|YSize=0.8mm|CornerRadius=0.2mm|HoleSize=0mm|Usage=FLASHONLY|Rotation=180.000|XOffset=0mm|YOffset=0mm|HoleType=Round|Shape=RoundedRectangle|*
%AMROUNDEDRECTD17*
21,1,1.2000,0.4000,0,0,180.0*
21,1,0.8000,0.8000,0,0,180.0*
1,1,0.4000,-0.4000,0.2000*
1,1,0.4000,0.4000,0.2000*
1,1,0.4000,0.4000,-0.2000*
1,1,0.4000,-0.4000,-0.2000*
%
%ADD17ROUNDEDRECTD17*%
%ADD18R,1.8000X1.5000*%
G04:AMPARAMS|DCode=19|XSize=1.5mm|YSize=0.4mm|CornerRadius=0.1mm|HoleSize=0mm|Usage=FLASHONLY|Rotation=90.000|XOffset=0mm|YOffset=0mm|HoleType=Round|Shape=RoundedRectangle|*
%AMROUNDEDRECTD19*
21,1,1.5000,0.2000,0,0,90.0*
21,1,1.3000,0.4000,0,0,90.0*
1,1,0.2000,0.1000,0.6500*
1,1,0.2000,0.1000,-0.6500*
1,1,0.2000,-0.1000,-0.6500*
1,1,0.2000,-0.1000,0.6500*
%
%ADD19ROUNDEDRECTD19*%
G04:AMPARAMS|DCode=20|XSize=1.5mm|YSize=0.38mm|CornerRadius=0.095mm|HoleSize=0mm|Usage=FLASHONLY|Rotation=90.000|XOffset=0mm|YOffset=0mm|HoleType=Round|Shape=RoundedRectangle|*
%AMROUNDEDRECTD20*
21,1,1.5000,0.1900,0,0,90.0*
21,1,1.3100,0.3800,0,0,90.0*
1,1,0.1900,0.0950,0.6550*
1,1,0.1900,0.0950,-0.6550*
1,1,0.1900,-0.0950,-0.6550*
1,1,0.1900,-0.0950,0.6550*
%
%ADD20ROUNDEDRECTD20*%
%ADD21R,1.0000X2.2500*%
%ADD22O,0.6000X1.6000*%
G04:AMPARAMS|DCode=23|XSize=2.8mm|YSize=1.2mm|CornerRadius=0.3mm|HoleSize=0mm|Usage=FLASHONLY|Rotation=270.000|XOffset=0mm|YOffset=0mm|HoleType=Round|Shape=RoundedRectangle|*
%AMROUNDEDRECTD23*
21,1,2.8000,0.6000,0,0,270.0*
21,1,2.2000,1.2000,0,0,270.0*
1,1,0.6000,-0.3000,-1.1000*
1,1,0.6000,-0.3000,1.1000*
1,1,0.6000,0.3000,1.1000*
1,1,0.6000,0.3000,-1.1000*
%
%ADD23ROUNDEDRECTD23*%
G04:AMPARAMS|DCode=24|XSize=1mm|YSize=1.2mm|CornerRadius=0.125mm|HoleSize=0mm|Usage=FLASHONLY|Rotation=180.000|XOffset=0mm|YOffset=0mm|HoleType=Round|Shape=RoundedRectangle|*
%AMROUNDEDRECTD24*
21,1,1.0000,0.9500,0,0,180.0*
21,1,0.7500,1.2000,0,0,180.0*
1,1,0.2500,-0.3750,0.4750*
1,1,0.2500,0.3750,0.4750*
1,1,0.2500,0.3750,-0.4750*
1,1,0.2500,-0.3750,-0.4750*
%
%ADD24ROUNDEDRECTD24*%
%ADD25R,1.3000X1.6000*%
G04:AMPARAMS|DCode=26|XSize=2.5mm|YSize=2.5mm|CornerRadius=0.625mm|HoleSize=0mm|Usage=FLASHONLY|Rotation=180.000|XOffset=0mm|YOffset=0mm|HoleType=Round|Shape=RoundedRectangle|*
%AMROUNDEDRECTD26*
21,1,2.5000,1.2500,0,0,180.0*
21,1,1.2500,2.5000,0,0,180.0*
1,1,1.2500,-0.6250,0.6250*
1,1,1.2500,0.6250,0.6250*
1,1,1.2500,0.6250,-0.6250*
1,1,1.2500,-0.6250,-0.6250*
%
%ADD26ROUNDEDRECTD26*%
G04:AMPARAMS|DCode=27|XSize=0.25mm|YSize=0.85mm|CornerRadius=0.0625mm|HoleSize=0mm|Usage=FLASHONLY|Rotation=180.000|XOffset=0mm|YOffset=0mm|HoleType=Round|Shape=RoundedRectangle|*
%AMROUNDEDRECTD27*
21,1,0.2500,0.7250,0,0,180.0*
21,1,0.1250,0.8500,0,0,180.0*
1,1,0.1250,-0.0625,0.3625*
1,1,0.1250,0.0625,0.3625*
1,1,0.1250,0.0625,-0.3625*
1,1,0.1250,-0.0625,-0.3625*
%
%ADD27ROUNDEDRECTD27*%
G04:AMPARAMS|DCode=28|XSize=0.25mm|YSize=0.85mm|CornerRadius=0.0625mm|HoleSize=0mm|Usage=FLASHONLY|Rotation=270.000|XOffset=0mm|YOffset=0mm|HoleType=Round|Shape=RoundedRectangle|*
%AMROUNDEDRECTD28*
21,1,0.2500,0.7250,0,0,270.0*
21,1,0.1250,0.8500,0,0,270.0*
1,1,0.1250,-0.3625,-0.0625*
1,1,0.1250,-0.3625,0.0625*
1,1,0.1250,0.3625,0.0625*
1,1,0.1250,0.3625,-0.0625*
%
%ADD28ROUNDEDRECTD28*%
%ADD29R,1.6000X1.3000*%
%ADD30O,1.3000X0.4500*%
%ADD31O,1.3000X0.3000*%
%ADD32O,0.3000X1.3000*%
%ADD33R,0.9000X1.2000*%
%ADD34R,1.0000X1.4000*%
%ADD35C,1.0000*%
%ADD36O,1.9500X0.5500*%
%ADD37O,0.5500X1.9500*%
G04:AMPARAMS|DCode=38|XSize=3mm|YSize=1.5mm|CornerRadius=0.375mm|HoleSize=0mm|Usage=FLASHONLY|Rotation=270.000|XOffset=0mm|YOffset=0mm|HoleType=Round|Shape=RoundedRectangle|*
%AMROUNDEDRECTD38*
21,1,3.0000,0.7500,0,0,270.0*
21,1,2.2500,1.5000,0,0,270.0*
1,1,0.7500,-0.3750,-1.1250*
1,1,0.7500,-0.3750,1.1250*
1,1,0.7500,0.3750,1.1250*
1,1,0.7500,0.3750,-1.1250*
%
%ADD38ROUNDEDRECTD38*%
%ADD39O,0.7000X1.7000*%
G04:AMPARAMS|DCode=40|XSize=2mm|YSize=1mm|CornerRadius=0.25mm|HoleSize=0mm|Usage=FLASHONLY|Rotation=270.000|XOffset=0mm|YOffset=0mm|HoleType=Round|Shape=RoundedRectangle|*
%AMROUNDEDRECTD40*
21,1,2.0000,0.5000,0,0,270.0*
21,1,1.5000,1.0000,0,0,270.0*
1,1,0.5000,-0.2500,-0.7500*
1,1,0.5000,-0.2500,0.7500*
1,1,0.5000,0.2500,0.7500*
1,1,0.5000,0.2500,-0.7500*
%
%ADD40ROUNDEDRECTD40*%
G04:AMPARAMS|DCode=41|XSize=2mm|YSize=1mm|CornerRadius=0.25mm|HoleSize=0mm|Usage=FLASHONLY|Rotation=180.000|XOffset=0mm|YOffset=0mm|HoleType=Round|Shape=RoundedRectangle|*
%AMROUNDEDRECTD41*
21,1,2.0000,0.5000,0,0,180.0*
21,1,1.5000,1.0000,0,0,180.0*
1,1,0.5000,-0.7500,0.2500*
1,1,0.5000,0.7500,0.2500*
1,1,0.5000,0.7500,-0.2500*
1,1,0.5000,-0.7500,-0.2500*
%
%ADD41ROUNDEDRECTD41*%
G04:AMPARAMS|DCode=42|XSize=1mm|YSize=0.55mm|CornerRadius=0.1375mm|HoleSize=0mm|Usage=FLASHONLY|Rotation=0.000|XOffset=0mm|YOffset=0mm|HoleType=Round|Shape=RoundedRectangle|*
%AMROUNDEDRECTD42*
21,1,1.0000,0.2750,0,0,0.0*
21,1,0.7250,0.5500,0,0,0.0*
1,1,0.2750,0.3625,-0.1375*
1,1,0.2750,-0.3625,-0.1375*
1,1,0.2750,-0.3625,0.1375*
1,1,0.2750,0.3625,0.1375*
%
%ADD42ROUNDEDRECTD42*%
%ADD43C,0.2500*%
%ADD44C,0.1800*%
%ADD45C,0.5000*%
%ADD46C,0.8000*%
%ADD47C,1.2000*%
%ADD48C,1.6000*%
%ADD49R,1.6000X1.6000*%
%ADD50C,1.4000*%
%ADD51C,3.2000*%
G04:AMPARAMS|DCode=52|XSize=1.5mm|YSize=2mm|CornerRadius=0.375mm|HoleSize=0mm|Usage=FLASHONLY|Rotation=270.000|XOffset=0mm|YOffset=0mm|HoleType=Round|Shape=RoundedRectangle|*
%AMROUNDEDRECTD52*
21,1,1.5000,1.2500,0,0,270.0*
21,1,0.7500,2.0000,0,0,270.0*
1,1,0.7500,-0.6250,-0.3750*
1,1,0.7500,-0.6250,0.3750*
1,1,0.7500,0.6250,0.3750*
1,1,0.7500,0.6250,-0.3750*
%
%ADD52ROUNDEDRECTD52*%
%ADD53C,1.5000*%
%ADD54C,1.3000*%
%ADD55C,3.2500*%
%ADD56C,2.4000*%
%ADD57C,2.5000*%
%ADD58C,2.2000*%
G04:AMPARAMS|DCode=59|XSize=1.6mm|YSize=1.6mm|CornerRadius=0.4mm|HoleSize=0mm|Usage=FLASHONLY|Rotation=180.000|XOffset=0mm|YOffset=0mm|HoleType=Round|Shape=RoundedRectangle|*
%AMROUNDEDRECTD59*
21,1,1.6000,0.8000,0,0,180.0*
21,1,0.8000,1.6000,0,0,180.0*
1,1,0.8000,-0.4000,0.4000*
1,1,0.8000,0.4000,0.4000*
1,1,0.8000,0.4000,-0.4000*
1,1,0.8000,-0.4000,-0.4000*
%
%ADD59ROUNDEDRECTD59*%
%ADD60C,0.6000*%
G04:AMPARAMS|DCode=61|XSize=1mm|YSize=1.2mm|CornerRadius=0.125mm|HoleSize=0mm|Usage=FLASHONLY|Rotation=90.000|XOffset=0mm|YOffset=0mm|HoleType=Round|Shape=RoundedRectangle|*
%AMROUNDEDRECTD61*
21,1,1.0000,0.9500,0,0,90.0*
21,1,0.7500,1.2000,0,0,90.0*
1,1,0.2500,0.4750,0.3750*
1,1,0.2500,0.4750,-0.3750*
1,1,0.2500,-0.4750,-0.3750*
1,1,0.2500,-0.4750,0.3750*
%
%ADD61ROUNDEDRECTD61*%
G04:AMPARAMS|DCode=62|XSize=1.8mm|YSize=1.8mm|CornerRadius=0.45mm|HoleSize=0mm|Usage=FLASHONLY|Rotation=180.000|XOffset=0mm|YOffset=0mm|HoleType=Round|Shape=RoundedRectangle|*
%AMROUNDEDRECTD62*
21,1,1.8000,0.9000,0,0,180.0*
21,1,0.9000,1.8000,0,0,180.0*
1,1,0.9000,-0.4500,0.4500*
1,1,0.9000,0.4500,0.4500*
1,1,0.9000,0.4500,-0.4500*
1,1,0.9000,-0.4500,-0.4500*
%
%ADD62ROUNDEDRECTD62*%
%ADD63C,0.6000*%
%ADD64C,0.8000*%
%ADD65C,0.2540*%
%ADD66C,0.1000*%
%ADD67C,0.7000*%
%ADD68O,2.0500X0.6500*%
%ADD69R,1.2032X1.2032*%
%ADD70R,1.2032X1.2032*%
G04:AMPARAMS|DCode=71|XSize=1.4032mm|YSize=1.0032mm|CornerRadius=0.3016mm|HoleSize=0mm|Usage=FLASHONLY|Rotation=180.000|XOffset=0mm|YOffset=0mm|HoleType=Round|Shape=RoundedRectangle|*
%AMROUNDEDRECTD71*
21,1,1.4032,0.4000,0,0,180.0*
21,1,0.8000,1.0032,0,0,180.0*
1,1,0.6032,-0.4000,0.2000*
1,1,0.6032,0.4000,0.2000*
1,1,0.6032,0.4000,-0.2000*
1,1,0.6032,-0.4000,-0.2000*
%
%ADD71ROUNDEDRECTD71*%
%ADD72R,2.0032X1.7032*%
G04:AMPARAMS|DCode=73|XSize=1.7032mm|YSize=0.6032mm|CornerRadius=0.2016mm|HoleSize=0mm|Usage=FLASHONLY|Rotation=90.000|XOffset=0mm|YOffset=0mm|HoleType=Round|Shape=RoundedRectangle|*
%AMROUNDEDRECTD73*
21,1,1.7032,0.2000,0,0,90.0*
21,1,1.3000,0.6032,0,0,90.0*
1,1,0.4032,0.1000,0.6500*
1,1,0.4032,0.1000,-0.6500*
1,1,0.4032,-0.1000,-0.6500*
1,1,0.4032,-0.1000,0.6500*
%
%ADD73ROUNDEDRECTD73*%
G04:AMPARAMS|DCode=74|XSize=1.7032mm|YSize=0.5832mm|CornerRadius=0.1966mm|HoleSize=0mm|Usage=FLASHONLY|Rotation=90.000|XOffset=0mm|YOffset=0mm|HoleType=Round|Shape=RoundedRectangle|*
%AMROUNDEDRECTD74*
21,1,1.7032,0.1900,0,0,90.0*
21,1,1.3100,0.5832,0,0,90.0*
1,1,0.3932,0.0950,0.6550*
1,1,0.3932,0.0950,-0.6550*
1,1,0.3932,-0.0950,-0.6550*
1,1,0.3932,-0.0950,0.6550*
%
%ADD74ROUNDEDRECTD74*%
%ADD75R,1.2032X2.4532*%
%ADD76O,0.8032X1.8032*%
G04:AMPARAMS|DCode=77|XSize=3.0032mm|YSize=1.4032mm|CornerRadius=0.4016mm|HoleSize=0mm|Usage=FLASHONLY|Rotation=270.000|XOffset=0mm|YOffset=0mm|HoleType=Round|Shape=RoundedRectangle|*
%AMROUNDEDRECTD77*
21,1,3.0032,0.6000,0,0,270.0*
21,1,2.2000,1.4032,0,0,270.0*
1,1,0.8032,-0.3000,-1.1000*
1,1,0.8032,-0.3000,1.1000*
1,1,0.8032,0.3000,1.1000*
1,1,0.8032,0.3000,-1.1000*
%
%ADD77ROUNDEDRECTD77*%
G04:AMPARAMS|DCode=78|XSize=1.2032mm|YSize=1.4032mm|CornerRadius=0.2266mm|HoleSize=0mm|Usage=FLASHONLY|Rotation=180.000|XOffset=0mm|YOffset=0mm|HoleType=Round|Shape=RoundedRectangle|*
%AMROUNDEDRECTD78*
21,1,1.2032,0.9500,0,0,180.0*
21,1,0.7500,1.4032,0,0,180.0*
1,1,0.4532,-0.3750,0.4750*
1,1,0.4532,0.3750,0.4750*
1,1,0.4532,0.3750,-0.4750*
1,1,0.4532,-0.3750,-0.4750*
%
%ADD78ROUNDEDRECTD78*%
%ADD79R,1.5032X1.8032*%
G04:AMPARAMS|DCode=80|XSize=2.7032mm|YSize=2.7032mm|CornerRadius=0.7266mm|HoleSize=0mm|Usage=FLASHONLY|Rotation=180.000|XOffset=0mm|YOffset=0mm|HoleType=Round|Shape=RoundedRectangle|*
%AMROUNDEDRECTD80*
21,1,2.7032,1.2500,0,0,180.0*
21,1,1.2500,2.7032,0,0,180.0*
1,1,1.4532,-0.6250,0.6250*
1,1,1.4532,0.6250,0.6250*
1,1,1.4532,0.6250,-0.6250*
1,1,1.4532,-0.6250,-0.6250*
%
%ADD80ROUNDEDRECTD80*%
G04:AMPARAMS|DCode=81|XSize=0.4532mm|YSize=1.0532mm|CornerRadius=0.1641mm|HoleSize=0mm|Usage=FLASHONLY|Rotation=180.000|XOffset=0mm|YOffset=0mm|HoleType=Round|Shape=RoundedRectangle|*
%AMROUNDEDRECTD81*
21,1,0.4532,0.7250,0,0,180.0*
21,1,0.1250,1.0532,0,0,180.0*
1,1,0.3282,-0.0625,0.3625*
1,1,0.3282,0.0625,0.3625*
1,1,0.3282,0.0625,-0.3625*
1,1,0.3282,-0.0625,-0.3625*
%
%ADD81ROUNDEDRECTD81*%
G04:AMPARAMS|DCode=82|XSize=0.4532mm|YSize=1.0532mm|CornerRadius=0.1641mm|HoleSize=0mm|Usage=FLASHONLY|Rotation=270.000|XOffset=0mm|YOffset=0mm|HoleType=Round|Shape=RoundedRectangle|*
%AMROUNDEDRECTD82*
21,1,0.4532,0.7250,0,0,270.0*
21,1,0.1250,1.0532,0,0,270.0*
1,1,0.3282,-0.3625,-0.0625*
1,1,0.3282,-0.3625,0.0625*
1,1,0.3282,0.3625,0.0625*
1,1,0.3282,0.3625,-0.0625*
%
%ADD82ROUNDEDRECTD82*%
%ADD83R,1.8032X1.5032*%
%ADD84O,1.5032X0.6532*%
%ADD85O,1.5032X0.5032*%
%ADD86O,0.5032X1.5032*%
%ADD87R,1.1032X1.4032*%
%ADD88R,1.2032X1.6032*%
%ADD89O,0.6500X2.0500*%
G04:AMPARAMS|DCode=90|XSize=3.2032mm|YSize=1.7032mm|CornerRadius=0.4766mm|HoleSize=0mm|Usage=FLASHONLY|Rotation=270.000|XOffset=0mm|YOffset=0mm|HoleType=Round|Shape=RoundedRectangle|*
%AMROUNDEDRECTD90*
21,1,3.2032,0.7500,0,0,270.0*
21,1,2.2500,1.7032,0,0,270.0*
1,1,0.9532,-0.3750,-1.1250*
1,1,0.9532,-0.3750,1.1250*
1,1,0.9532,0.3750,1.1250*
1,1,0.9532,0.3750,-1.1250*
%
%ADD90ROUNDEDRECTD90*%
%ADD91O,0.9032X1.9032*%
G04:AMPARAMS|DCode=92|XSize=2.2032mm|YSize=1.2032mm|CornerRadius=0.3516mm|HoleSize=0mm|Usage=FLASHONLY|Rotation=270.000|XOffset=0mm|YOffset=0mm|HoleType=Round|Shape=RoundedRectangle|*
%AMROUNDEDRECTD92*
21,1,2.2032,0.5000,0,0,270.0*
21,1,1.5000,1.2032,0,0,270.0*
1,1,0.7032,-0.2500,-0.7500*
1,1,0.7032,-0.2500,0.7500*
1,1,0.7032,0.2500,0.7500*
1,1,0.7032,0.2500,-0.7500*
%
%ADD92ROUNDEDRECTD92*%
G04:AMPARAMS|DCode=93|XSize=2.2032mm|YSize=1.2032mm|CornerRadius=0.3516mm|HoleSize=0mm|Usage=FLASHONLY|Rotation=180.000|XOffset=0mm|YOffset=0mm|HoleType=Round|Shape=RoundedRectangle|*
%AMROUNDEDRECTD93*
21,1,2.2032,0.5000,0,0,180.0*
21,1,1.5000,1.2032,0,0,180.0*
1,1,0.7032,-0.7500,0.2500*
1,1,0.7032,0.7500,0.2500*
1,1,0.7032,0.7500,-0.2500*
1,1,0.7032,-0.7500,-0.2500*
%
%ADD93ROUNDEDRECTD93*%
G04:AMPARAMS|DCode=94|XSize=1.2032mm|YSize=0.7532mm|CornerRadius=0.2391mm|HoleSize=0mm|Usage=FLASHONLY|Rotation=0.000|XOffset=0mm|YOffset=0mm|HoleType=Round|Shape=RoundedRectangle|*
%AMROUNDEDRECTD94*
21,1,1.2032,0.2750,0,0,0.0*
21,1,0.7250,0.7532,0,0,0.0*
1,1,0.4782,0.3625,-0.1375*
1,1,0.4782,-0.3625,-0.1375*
1,1,0.4782,-0.3625,0.1375*
1,1,0.4782,0.3625,0.1375*
%
%ADD94ROUNDEDRECTD94*%
%ADD95C,1.0032*%
%ADD96C,1.4032*%
%ADD97C,1.8032*%
%ADD98R,1.8032X1.8032*%
%ADD99C,1.6032*%
%ADD100C,3.4032*%
G04:AMPARAMS|DCode=101|XSize=1.7032mm|YSize=2.2032mm|CornerRadius=0.4766mm|HoleSize=0mm|Usage=FLASHONLY|Rotation=270.000|XOffset=0mm|YOffset=0mm|HoleType=Round|Shape=RoundedRectangle|*
%AMROUNDEDRECTD101*
21,1,1.7032,1.2500,0,0,270.0*
21,1,0.7500,2.2032,0,0,270.0*
1,1,0.9532,-0.6250,-0.3750*
1,1,0.9532,-0.6250,0.3750*
1,1,0.9532,0.6250,0.3750*
1,1,0.9532,0.6250,-0.3750*
%
%ADD101ROUNDEDRECTD101*%
%ADD102C,1.7032*%
%ADD103C,1.5032*%
%ADD104C,3.4532*%
%ADD105C,2.6032*%
%ADD106C,2.7032*%
%ADD107C,2.4032*%
G04:AMPARAMS|DCode=108|XSize=1.8032mm|YSize=1.8032mm|CornerRadius=0.5016mm|HoleSize=0mm|Usage=FLASHONLY|Rotation=180.000|XOffset=0mm|YOffset=0mm|HoleType=Round|Shape=RoundedRectangle|*
%AMROUNDEDRECTD108*
21,1,1.8032,0.8000,0,0,180.0*
21,1,0.8000,1.8032,0,0,180.0*
1,1,1.0032,-0.4000,0.4000*
1,1,1.0032,0.4000,0.4000*
1,1,1.0032,0.4000,-0.4000*
1,1,1.0032,-0.4000,-0.4000*
%
%ADD108ROUNDEDRECTD108*%
D35*
X47272Y55746D02*
D03*
X881288Y489254D02*
D03*
X859056Y61080D02*
D03*
X47526Y489508D02*
D03*
D68*
X308810Y350700D02*
D03*
Y342700D02*
D03*
Y334700D02*
D03*
Y326700D02*
D03*
Y318700D02*
D03*
Y310700D02*
D03*
Y302700D02*
D03*
Y294700D02*
D03*
X393810D02*
D03*
Y302700D02*
D03*
Y310700D02*
D03*
Y318700D02*
D03*
Y326700D02*
D03*
Y334700D02*
D03*
Y342700D02*
D03*
Y350700D02*
D03*
D69*
X601500Y141464D02*
D03*
Y156464D02*
D03*
X200434Y101092D02*
D03*
Y86092D02*
D03*
X162095Y101092D02*
D03*
Y86092D02*
D03*
X181384Y101092D02*
D03*
Y86092D02*
D03*
X61780Y317486D02*
D03*
Y332486D02*
D03*
Y440168D02*
D03*
Y455168D02*
D03*
X393823Y426466D02*
D03*
X393823Y411466D02*
D03*
X79530Y104381D02*
D03*
X79530Y119381D02*
D03*
X79530Y136384D02*
D03*
Y151384D02*
D03*
D70*
X859938Y376294D02*
D03*
X874938D02*
D03*
X265496Y486175D02*
D03*
X250496D02*
D03*
X315870Y423030D02*
D03*
X330870D02*
D03*
X315870Y407790D02*
D03*
X330870D02*
D03*
X827123Y307843D02*
D03*
X812123D02*
D03*
X620670Y204336D02*
D03*
X635670D02*
D03*
X315780Y439000D02*
D03*
X330780D02*
D03*
X707552Y149472D02*
D03*
X692552D02*
D03*
X330880Y392500D02*
D03*
X315880D02*
D03*
D71*
X852848Y343729D02*
D03*
Y359729D02*
D03*
X879848D02*
D03*
Y343729D02*
D03*
D72*
X386484Y531850D02*
D03*
X306484D02*
D03*
D73*
X346484Y506850D02*
D03*
X352984D02*
D03*
X339984D02*
D03*
D74*
X333484D02*
D03*
X359484D02*
D03*
D75*
X520286Y123000D02*
D03*
Y68000D02*
D03*
X560286D02*
D03*
Y123000D02*
D03*
X452214D02*
D03*
Y68000D02*
D03*
X492214D02*
D03*
Y123000D02*
D03*
D76*
X659412Y184044D02*
D03*
X646712Y184044D02*
D03*
X634012Y184044D02*
D03*
X621312D02*
D03*
X659412Y124044D02*
D03*
X646712Y124044D02*
D03*
X634012D02*
D03*
X621312Y124044D02*
D03*
D77*
X578028Y433496D02*
D03*
X558028D02*
D03*
X538028D02*
D03*
X518028D02*
D03*
X498028D02*
D03*
X478028D02*
D03*
X458028D02*
D03*
X438028D02*
D03*
X578028Y249496D02*
D03*
X558028D02*
D03*
X538028D02*
D03*
X518028D02*
D03*
X498028D02*
D03*
X478028D02*
D03*
X458028D02*
D03*
X438028D02*
D03*
D78*
X357820Y409760D02*
D03*
X367820Y433760D02*
D03*
X377820Y409760D02*
D03*
D79*
X250904Y463315D02*
D03*
X286904D02*
D03*
D80*
X268506Y411346D02*
D03*
D81*
X283260Y387850D02*
D03*
X278260D02*
D03*
X273260Y387850D02*
D03*
X268260D02*
D03*
X263260Y387850D02*
D03*
X258260D02*
D03*
X253260D02*
D03*
X253332Y436238D02*
D03*
X258332Y436238D02*
D03*
X263332D02*
D03*
X268332D02*
D03*
X273332D02*
D03*
X278332D02*
D03*
X283332D02*
D03*
D82*
X244636Y397870D02*
D03*
Y402870D02*
D03*
Y407870D02*
D03*
X244636Y412870D02*
D03*
X244636Y417870D02*
D03*
Y422870D02*
D03*
Y427870D02*
D03*
X292636Y427870D02*
D03*
Y422870D02*
D03*
Y407870D02*
D03*
Y402870D02*
D03*
Y397870D02*
D03*
Y417870D02*
D03*
Y412870D02*
D03*
D83*
X437430Y185781D02*
D03*
Y221781D02*
D03*
D84*
X337486Y472000D02*
D03*
Y462500D02*
D03*
Y453000D02*
D03*
X362086Y472000D02*
D03*
Y462500D02*
D03*
Y453000D02*
D03*
D85*
X677120Y285270D02*
D03*
X677120Y280270D02*
D03*
Y275270D02*
D03*
Y270270D02*
D03*
X677120Y265270D02*
D03*
Y260270D02*
D03*
Y255270D02*
D03*
Y250270D02*
D03*
Y245270D02*
D03*
Y240270D02*
D03*
Y235270D02*
D03*
Y230270D02*
D03*
Y225270D02*
D03*
X677120Y220270D02*
D03*
Y215270D02*
D03*
Y210270D02*
D03*
X795120D02*
D03*
Y215270D02*
D03*
X795120Y220270D02*
D03*
Y225270D02*
D03*
Y230270D02*
D03*
X795120Y235270D02*
D03*
X795120Y240270D02*
D03*
Y245270D02*
D03*
X795120Y250270D02*
D03*
Y255270D02*
D03*
Y260270D02*
D03*
Y265270D02*
D03*
Y270270D02*
D03*
Y285270D02*
D03*
Y280270D02*
D03*
X795120Y275270D02*
D03*
D86*
X698620Y188770D02*
D03*
X703620D02*
D03*
X708620D02*
D03*
X713620D02*
D03*
X718620D02*
D03*
X723620D02*
D03*
X728620D02*
D03*
X733620D02*
D03*
X738620D02*
D03*
X743620D02*
D03*
X748620D02*
D03*
X753620D02*
D03*
X758620D02*
D03*
X763620D02*
D03*
X768620Y188770D02*
D03*
X773620D02*
D03*
Y306770D02*
D03*
X768620D02*
D03*
X763620Y306770D02*
D03*
X758620D02*
D03*
X753620D02*
D03*
X748620D02*
D03*
X743620D02*
D03*
X738620D02*
D03*
X733620Y306770D02*
D03*
X728620D02*
D03*
X723620Y306770D02*
D03*
X718620D02*
D03*
X713620D02*
D03*
X708620Y306770D02*
D03*
X703620D02*
D03*
X698620D02*
D03*
D87*
X762296Y150488D02*
D03*
D88*
X732296D02*
D03*
D89*
X323310Y280200D02*
D03*
X331310D02*
D03*
X339310D02*
D03*
X347310D02*
D03*
X355310D02*
D03*
X363310D02*
D03*
X371310D02*
D03*
X379310D02*
D03*
Y365200D02*
D03*
X371310D02*
D03*
X363310D02*
D03*
X355310D02*
D03*
X347310D02*
D03*
X339310D02*
D03*
X331310D02*
D03*
X323310D02*
D03*
D90*
X436138Y470658D02*
D03*
Y518658D02*
D03*
X488209Y206775D02*
D03*
Y158776D02*
D03*
D91*
X879884Y78706D02*
D03*
X892584D02*
D03*
X905284D02*
D03*
X917984D02*
D03*
X879884Y154706D02*
D03*
X892584D02*
D03*
X905284D02*
D03*
X917984D02*
D03*
D92*
X378800Y241980D02*
D03*
X358800D02*
D03*
X339100D02*
D03*
X318700D02*
D03*
X298600D02*
D03*
X278700D02*
D03*
D93*
X408460Y204300D02*
D03*
Y184400D02*
D03*
Y164300D02*
D03*
Y143900D02*
D03*
Y124200D02*
D03*
Y104200D02*
D03*
Y84500D02*
D03*
X248460Y84200D02*
D03*
Y104000D02*
D03*
Y124200D02*
D03*
Y144000D02*
D03*
Y164600D02*
D03*
Y184800D02*
D03*
Y204400D02*
D03*
Y224800D02*
D03*
X408460Y224400D02*
D03*
D94*
X411000Y334700D02*
D03*
Y350700D02*
D03*
Y310700D02*
D03*
D95*
X327484Y513454D02*
D03*
X365484D02*
D03*
D96*
X367058Y387724D02*
D03*
X351818D02*
D03*
X641886Y274948D02*
D03*
Y259454D02*
D03*
Y291086D02*
D03*
D97*
X12728Y449954D02*
D03*
X38128Y449954D02*
D03*
X12728Y373754D02*
D03*
X38128D02*
D03*
X12728Y348354D02*
D03*
X38128Y348354D02*
D03*
X12728Y322954D02*
D03*
X38128Y399154D02*
D03*
X12728D02*
D03*
X12728Y424554D02*
D03*
X38128Y424554D02*
D03*
X153410Y180200D02*
D03*
Y154800D02*
D03*
X128010Y180200D02*
D03*
X178810Y154800D02*
D03*
Y180200D02*
D03*
X204210Y154800D02*
D03*
Y180200D02*
D03*
X652300Y62350D02*
D03*
X626900D02*
D03*
X601500D02*
D03*
X626900Y36950D02*
D03*
X652300D02*
D03*
D98*
X38128Y322954D02*
D03*
D99*
X267490Y332860D02*
D03*
Y281860D02*
D03*
X834398Y268090D02*
D03*
Y217090D02*
D03*
D100*
X904280Y32500D02*
D03*
Y512500D02*
D03*
X24280D02*
D03*
Y32500D02*
D03*
D101*
X895124Y287648D02*
D03*
X895124Y262248D02*
D03*
Y186048D02*
D03*
X895124Y211448D02*
D03*
X895124Y236848D02*
D03*
D102*
X616276Y519462D02*
D03*
X748776D02*
D03*
X723376D02*
D03*
X641676D02*
D03*
X904268Y374008D02*
D03*
X828068Y348608D02*
D03*
Y374008D02*
D03*
X904268Y348608D02*
D03*
D103*
X726976Y406962D02*
D03*
X701576D02*
D03*
X714276Y381562D02*
D03*
X638076D02*
D03*
X663476D02*
D03*
X650776Y406962D02*
D03*
X676176D02*
D03*
X688876Y381562D02*
D03*
D104*
X739676Y470462D02*
D03*
X625376D02*
D03*
D105*
X761276Y439962D02*
D03*
X603776D02*
D03*
D106*
X485909Y479510D02*
D03*
X536709D02*
D03*
Y530310D02*
D03*
X485909D02*
D03*
D107*
X511309Y504910D02*
D03*
D108*
X128010Y154800D02*
D03*
X601500Y36950D02*
D03*
M02*
