%FSLAX44Y44*%
%MOMM*%
G71*
G01*
G75*
G04 Layer_Physical_Order=1*
G04 Layer_Color=255*
%ADD10C,1.1000*%
%ADD11C,0.4000*%
%ADD12C,0.1500*%
%ADD13C,0.2000*%
%ADD14C,0.3000*%
%ADD15R,1.0000X1.0000*%
%ADD16R,1.0000X1.0000*%
G04:AMPARAMS|DCode=17|XSize=1.2mm|YSize=0.8mm|CornerRadius=0.2mm|HoleSize=0mm|Usage=FLASHONLY|Rotation=180.000|XOffset=0mm|YOffset=0mm|HoleType=Round|Shape=RoundedRectangle|*
%AMROUNDEDRECTD17*
21,1,1.2000,0.4000,0,0,180.0*
21,1,0.8000,0.8000,0,0,180.0*
1,1,0.4000,-0.4000,0.2000*
1,1,0.4000,0.4000,0.2000*
1,1,0.4000,0.4000,-0.2000*
1,1,0.4000,-0.4000,-0.2000*
%
%ADD17ROUNDEDRECTD17*%
%ADD18R,1.8000X1.5000*%
G04:AMPARAMS|DCode=19|XSize=1.5mm|YSize=0.4mm|CornerRadius=0.1mm|HoleSize=0mm|Usage=FLASHONLY|Rotation=90.000|XOffset=0mm|YOffset=0mm|HoleType=Round|Shape=RoundedRectangle|*
%AMROUNDEDRECTD19*
21,1,1.5000,0.2000,0,0,90.0*
21,1,1.3000,0.4000,0,0,90.0*
1,1,0.2000,0.1000,0.6500*
1,1,0.2000,0.1000,-0.6500*
1,1,0.2000,-0.1000,-0.6500*
1,1,0.2000,-0.1000,0.6500*
%
%ADD19ROUNDEDRECTD19*%
G04:AMPARAMS|DCode=20|XSize=1.5mm|YSize=0.38mm|CornerRadius=0.095mm|HoleSize=0mm|Usage=FLASHONLY|Rotation=90.000|XOffset=0mm|YOffset=0mm|HoleType=Round|Shape=RoundedRectangle|*
%AMROUNDEDRECTD20*
21,1,1.5000,0.1900,0,0,90.0*
21,1,1.3100,0.3800,0,0,90.0*
1,1,0.1900,0.0950,0.6550*
1,1,0.1900,0.0950,-0.6550*
1,1,0.1900,-0.0950,-0.6550*
1,1,0.1900,-0.0950,0.6550*
%
%ADD20ROUNDEDRECTD20*%
%ADD21R,1.0000X2.2500*%
%ADD22O,0.6000X1.6000*%
G04:AMPARAMS|DCode=23|XSize=2.8mm|YSize=1.2mm|CornerRadius=0.3mm|HoleSize=0mm|Usage=FLASHONLY|Rotation=270.000|XOffset=0mm|YOffset=0mm|HoleType=Round|Shape=RoundedRectangle|*
%AMROUNDEDRECTD23*
21,1,2.8000,0.6000,0,0,270.0*
21,1,2.2000,1.2000,0,0,270.0*
1,1,0.6000,-0.3000,-1.1000*
1,1,0.6000,-0.3000,1.1000*
1,1,0.6000,0.3000,1.1000*
1,1,0.6000,0.3000,-1.1000*
%
%ADD23ROUNDEDRECTD23*%
G04:AMPARAMS|DCode=24|XSize=1mm|YSize=1.2mm|CornerRadius=0.125mm|HoleSize=0mm|Usage=FLASHONLY|Rotation=180.000|XOffset=0mm|YOffset=0mm|HoleType=Round|Shape=RoundedRectangle|*
%AMROUNDEDRECTD24*
21,1,1.0000,0.9500,0,0,180.0*
21,1,0.7500,1.2000,0,0,180.0*
1,1,0.2500,-0.3750,0.4750*
1,1,0.2500,0.3750,0.4750*
1,1,0.2500,0.3750,-0.4750*
1,1,0.2500,-0.3750,-0.4750*
%
%ADD24ROUNDEDRECTD24*%
%ADD25R,1.3000X1.6000*%
G04:AMPARAMS|DCode=26|XSize=2.5mm|YSize=2.5mm|CornerRadius=0.625mm|HoleSize=0mm|Usage=FLASHONLY|Rotation=180.000|XOffset=0mm|YOffset=0mm|HoleType=Round|Shape=RoundedRectangle|*
%AMROUNDEDRECTD26*
21,1,2.5000,1.2500,0,0,180.0*
21,1,1.2500,2.5000,0,0,180.0*
1,1,1.2500,-0.6250,0.6250*
1,1,1.2500,0.6250,0.6250*
1,1,1.2500,0.6250,-0.6250*
1,1,1.2500,-0.6250,-0.6250*
%
%ADD26ROUNDEDRECTD26*%
G04:AMPARAMS|DCode=27|XSize=0.25mm|YSize=0.85mm|CornerRadius=0.0625mm|HoleSize=0mm|Usage=FLASHONLY|Rotation=180.000|XOffset=0mm|YOffset=0mm|HoleType=Round|Shape=RoundedRectangle|*
%AMROUNDEDRECTD27*
21,1,0.2500,0.7250,0,0,180.0*
21,1,0.1250,0.8500,0,0,180.0*
1,1,0.1250,-0.0625,0.3625*
1,1,0.1250,0.0625,0.3625*
1,1,0.1250,0.0625,-0.3625*
1,1,0.1250,-0.0625,-0.3625*
%
%ADD27ROUNDEDRECTD27*%
G04:AMPARAMS|DCode=28|XSize=0.25mm|YSize=0.85mm|CornerRadius=0.0625mm|HoleSize=0mm|Usage=FLASHONLY|Rotation=270.000|XOffset=0mm|YOffset=0mm|HoleType=Round|Shape=RoundedRectangle|*
%AMROUNDEDRECTD28*
21,1,0.2500,0.7250,0,0,270.0*
21,1,0.1250,0.8500,0,0,270.0*
1,1,0.1250,-0.3625,-0.0625*
1,1,0.1250,-0.3625,0.0625*
1,1,0.1250,0.3625,0.0625*
1,1,0.1250,0.3625,-0.0625*
%
%ADD28ROUNDEDRECTD28*%
%ADD29R,1.6000X1.3000*%
%ADD30O,1.3000X0.4500*%
%ADD31O,1.3000X0.3000*%
%ADD32O,0.3000X1.3000*%
%ADD33R,0.9000X1.2000*%
%ADD34R,1.0000X1.4000*%
%ADD35C,1.0000*%
%ADD36O,1.9500X0.5500*%
%ADD37O,0.5500X1.9500*%
G04:AMPARAMS|DCode=38|XSize=3mm|YSize=1.5mm|CornerRadius=0.375mm|HoleSize=0mm|Usage=FLASHONLY|Rotation=270.000|XOffset=0mm|YOffset=0mm|HoleType=Round|Shape=RoundedRectangle|*
%AMROUNDEDRECTD38*
21,1,3.0000,0.7500,0,0,270.0*
21,1,2.2500,1.5000,0,0,270.0*
1,1,0.7500,-0.3750,-1.1250*
1,1,0.7500,-0.3750,1.1250*
1,1,0.7500,0.3750,1.1250*
1,1,0.7500,0.3750,-1.1250*
%
%ADD38ROUNDEDRECTD38*%
%ADD39O,0.7000X1.7000*%
G04:AMPARAMS|DCode=40|XSize=2mm|YSize=1mm|CornerRadius=0.25mm|HoleSize=0mm|Usage=FLASHONLY|Rotation=270.000|XOffset=0mm|YOffset=0mm|HoleType=Round|Shape=RoundedRectangle|*
%AMROUNDEDRECTD40*
21,1,2.0000,0.5000,0,0,270.0*
21,1,1.5000,1.0000,0,0,270.0*
1,1,0.5000,-0.2500,-0.7500*
1,1,0.5000,-0.2500,0.7500*
1,1,0.5000,0.2500,0.7500*
1,1,0.5000,0.2500,-0.7500*
%
%ADD40ROUNDEDRECTD40*%
G04:AMPARAMS|DCode=41|XSize=2mm|YSize=1mm|CornerRadius=0.25mm|HoleSize=0mm|Usage=FLASHONLY|Rotation=180.000|XOffset=0mm|YOffset=0mm|HoleType=Round|Shape=RoundedRectangle|*
%AMROUNDEDRECTD41*
21,1,2.0000,0.5000,0,0,180.0*
21,1,1.5000,1.0000,0,0,180.0*
1,1,0.5000,-0.7500,0.2500*
1,1,0.5000,0.7500,0.2500*
1,1,0.5000,0.7500,-0.2500*
1,1,0.5000,-0.7500,-0.2500*
%
%ADD41ROUNDEDRECTD41*%
G04:AMPARAMS|DCode=42|XSize=1mm|YSize=0.55mm|CornerRadius=0.1375mm|HoleSize=0mm|Usage=FLASHONLY|Rotation=0.000|XOffset=0mm|YOffset=0mm|HoleType=Round|Shape=RoundedRectangle|*
%AMROUNDEDRECTD42*
21,1,1.0000,0.2750,0,0,0.0*
21,1,0.7250,0.5500,0,0,0.0*
1,1,0.2750,0.3625,-0.1375*
1,1,0.2750,-0.3625,-0.1375*
1,1,0.2750,-0.3625,0.1375*
1,1,0.2750,0.3625,0.1375*
%
%ADD42ROUNDEDRECTD42*%
%ADD43C,0.2500*%
%ADD44C,0.1800*%
%ADD45C,0.5000*%
%ADD46C,0.8000*%
%ADD47C,1.2000*%
%ADD48C,1.6000*%
%ADD49R,1.6000X1.6000*%
%ADD50C,1.4000*%
%ADD51C,3.2000*%
G04:AMPARAMS|DCode=52|XSize=1.5mm|YSize=2mm|CornerRadius=0.375mm|HoleSize=0mm|Usage=FLASHONLY|Rotation=270.000|XOffset=0mm|YOffset=0mm|HoleType=Round|Shape=RoundedRectangle|*
%AMROUNDEDRECTD52*
21,1,1.5000,1.2500,0,0,270.0*
21,1,0.7500,2.0000,0,0,270.0*
1,1,0.7500,-0.6250,-0.3750*
1,1,0.7500,-0.6250,0.3750*
1,1,0.7500,0.6250,0.3750*
1,1,0.7500,0.6250,-0.3750*
%
%ADD52ROUNDEDRECTD52*%
%ADD53C,1.5000*%
%ADD54C,1.3000*%
%ADD55C,3.2500*%
%ADD56C,2.4000*%
%ADD57C,2.5000*%
%ADD58C,2.2000*%
G04:AMPARAMS|DCode=59|XSize=1.6mm|YSize=1.6mm|CornerRadius=0.4mm|HoleSize=0mm|Usage=FLASHONLY|Rotation=180.000|XOffset=0mm|YOffset=0mm|HoleType=Round|Shape=RoundedRectangle|*
%AMROUNDEDRECTD59*
21,1,1.6000,0.8000,0,0,180.0*
21,1,0.8000,1.6000,0,0,180.0*
1,1,0.8000,-0.4000,0.4000*
1,1,0.8000,0.4000,0.4000*
1,1,0.8000,0.4000,-0.4000*
1,1,0.8000,-0.4000,-0.4000*
%
%ADD59ROUNDEDRECTD59*%
%ADD60C,0.6000*%
G36*
X446746Y385610D02*
X416571Y355435D01*
X416137Y355725D01*
X414625Y356026D01*
X407375D01*
X405863Y355725D01*
X404581Y354869D01*
X404408Y354610D01*
X402859Y355645D01*
X400810Y356053D01*
X386810D01*
X386253Y355942D01*
X384552Y357643D01*
X384663Y358200D01*
Y372200D01*
X384255Y374249D01*
X383711Y375063D01*
X383723Y375123D01*
X384939Y376942D01*
X385366Y379088D01*
X384939Y381234D01*
X383723Y383053D01*
X383284Y383347D01*
X383030Y385922D01*
X384566Y387457D01*
X445981D01*
X446746Y385610D01*
D02*
G37*
G36*
X616503Y106817D02*
X617660Y106043D01*
X619026Y105771D01*
X630443D01*
Y88212D01*
X611782Y69550D01*
X610288Y69381D01*
X609259Y69553D01*
X609017Y69867D01*
X606815Y71557D01*
X604252Y72619D01*
X602770Y72814D01*
Y62350D01*
X600230D01*
Y72814D01*
X598749Y72619D01*
X596185Y71557D01*
X593983Y69867D01*
X593607Y69377D01*
X591607Y70056D01*
Y128884D01*
X593607Y129713D01*
X616503Y106817D01*
D02*
G37*
G36*
X647982Y113435D02*
X649747Y112187D01*
Y84402D01*
X646031Y80686D01*
X644214Y81638D01*
X644185Y81668D01*
Y111859D01*
X645442Y112891D01*
Y124044D01*
X647982D01*
Y113435D01*
D02*
G37*
G36*
X638414Y213684D02*
X637648Y211836D01*
X628210D01*
Y211876D01*
X621940D01*
Y204336D01*
Y196796D01*
X628210D01*
Y196836D01*
X637902D01*
X638667Y194988D01*
X638093Y194413D01*
X637431Y193423D01*
X636174Y194263D01*
X635282Y194440D01*
Y184044D01*
Y173435D01*
X637047Y172187D01*
Y135853D01*
X635047Y134446D01*
X634012Y134652D01*
X631866Y134225D01*
X630047Y133009D01*
X628831Y131190D01*
X628682Y130438D01*
X626642D01*
X626493Y131190D01*
X625277Y133009D01*
X624880Y133274D01*
Y141598D01*
Y167760D01*
X624609Y169126D01*
X623835Y170283D01*
X622522Y171597D01*
X623180Y173767D01*
X623474Y173825D01*
X625306Y175050D01*
X626530Y176882D01*
X626642Y177445D01*
X628682D01*
X628793Y176882D01*
X630018Y175050D01*
X631850Y173825D01*
X632742Y173648D01*
Y184044D01*
Y194440D01*
X631850Y194263D01*
X630018Y193038D01*
X628793Y191206D01*
X628682Y190643D01*
X626642D01*
X626530Y191206D01*
X625306Y193038D01*
X623474Y194263D01*
X622582Y194440D01*
Y184044D01*
X621312D01*
Y182774D01*
X615663D01*
Y181284D01*
X613663Y180455D01*
X596941Y197178D01*
Y252544D01*
X598788Y253309D01*
X638414Y213684D01*
D02*
G37*
G36*
X258115Y283430D02*
X257908Y281860D01*
X258235Y279380D01*
X259192Y277069D01*
X260714Y275084D01*
X262699Y273562D01*
X265010Y272605D01*
X267490Y272278D01*
X267744Y271031D01*
Y270884D01*
X268222Y269761D01*
X269432Y267642D01*
X270954Y265734D01*
X272751Y264084D01*
X274781Y262731D01*
X276996Y261706D01*
X279342Y261035D01*
X281763Y260734D01*
X282984Y260724D01*
X283757Y260563D01*
X285223Y259979D01*
X286566Y259149D01*
X287744Y258099D01*
X288723Y256860D01*
X289472Y255470D01*
X289968Y253972D01*
X290198Y252410D01*
X290175Y251621D01*
X290172Y251114D01*
X290230Y250103D01*
X290375Y249100D01*
X290606Y248114D01*
X290754Y247629D01*
X291002Y246752D01*
Y234480D01*
X291390Y232529D01*
X292495Y230875D01*
X293675Y230087D01*
X293672Y229913D01*
X293083Y226403D01*
X291975Y223022D01*
X290375Y219843D01*
X288318Y216940D01*
X285850Y214376D01*
X283027Y212210D01*
X279912Y210490D01*
X278244Y209872D01*
X273826Y208699D01*
X267417Y206806D01*
X266375Y208365D01*
X264556Y209581D01*
X262410Y210008D01*
X260264Y209581D01*
X260207Y209543D01*
X259565Y210505D01*
X257911Y211610D01*
X255960Y211998D01*
X240960D01*
X239009Y211610D01*
X237355Y210505D01*
X236250Y208851D01*
X235862Y206900D01*
Y201900D01*
X236250Y199949D01*
X237355Y198295D01*
X238413Y197589D01*
X238296Y196139D01*
X238028Y196017D01*
X234769Y193671D01*
X232031Y190733D01*
X229919Y187318D01*
X228513Y183556D01*
X227868Y179592D01*
X228009Y175579D01*
X228374Y173602D01*
X228374Y173602D01*
X228374Y173602D01*
Y137039D01*
X225326D01*
X223960Y136767D01*
X222803Y135993D01*
X220546Y133737D01*
X110726D01*
X98593Y145870D01*
Y191444D01*
X100181Y193032D01*
X102510Y194589D01*
X105099Y195661D01*
X107847Y196208D01*
X174018D01*
X176508Y196330D01*
X181391Y197302D01*
X185991Y199207D01*
X190132Y201973D01*
X193652Y205494D01*
X196419Y209634D01*
X198324Y214235D01*
X199296Y219118D01*
X199418Y221608D01*
Y229102D01*
X200591Y229588D01*
X205373Y224806D01*
X205366Y224771D01*
X205793Y222625D01*
X207009Y220806D01*
X208828Y219590D01*
X210974Y219163D01*
X213120Y219590D01*
X214939Y220806D01*
X216155Y222625D01*
X216582Y224771D01*
X216155Y226917D01*
X214939Y228736D01*
X213120Y229952D01*
X210974Y230379D01*
X210073Y230199D01*
X200701Y239572D01*
Y272691D01*
X201442Y274480D01*
X203387Y277392D01*
X205864Y279869D01*
X208776Y281814D01*
X212012Y283155D01*
X215447Y283838D01*
X256066D01*
X258115Y283430D01*
D02*
G37*
G36*
X564403Y231914D02*
Y211194D01*
X564675Y209828D01*
X565449Y208671D01*
X608115Y166004D01*
X607287Y164004D01*
X602770D01*
Y156464D01*
X601500D01*
Y155194D01*
X593960D01*
Y148924D01*
X594000D01*
Y142026D01*
X592152Y141260D01*
X551729Y181684D01*
Y231863D01*
X553729Y233147D01*
X555028Y232888D01*
X561028D01*
X562403Y233162D01*
X564403Y231914D01*
D02*
G37*
G36*
X185399Y358686D02*
X183433Y356719D01*
X182659Y355562D01*
X182387Y354196D01*
Y328200D01*
X181991Y327935D01*
X180775Y326116D01*
X180348Y323970D01*
X180775Y321824D01*
X181991Y320005D01*
X183810Y318789D01*
X185956Y318362D01*
X188102Y318789D01*
X189921Y320005D01*
X191137Y321824D01*
X191564Y323970D01*
X191137Y326116D01*
X189921Y327935D01*
X189525Y328200D01*
Y352718D01*
X192514Y355707D01*
X291158D01*
X296530Y350336D01*
X296565Y350160D01*
X294864Y348459D01*
X294670Y348498D01*
X292524Y348071D01*
X290705Y346855D01*
X289489Y345036D01*
X289062Y342890D01*
X289227Y342061D01*
X289474Y340071D01*
X287655Y338855D01*
X286439Y337036D01*
X286012Y334890D01*
X286439Y332744D01*
X287655Y330925D01*
X289474Y329709D01*
X291620Y329282D01*
X293766Y329709D01*
X296017Y329253D01*
X296697Y328112D01*
X296669Y327970D01*
X308810D01*
X320951D01*
X320793Y328764D01*
X319624Y330514D01*
X320530Y332314D01*
X320755Y332652D01*
X321163Y334700D01*
X320755Y336749D01*
X320508Y337119D01*
X319704Y338700D01*
X320508Y340281D01*
X320755Y340652D01*
X321163Y342700D01*
X320755Y344748D01*
X319595Y346485D01*
Y346915D01*
X320755Y348652D01*
X321163Y350700D01*
X321072Y351159D01*
X322915Y352145D01*
X325927Y349133D01*
X327084Y348359D01*
X328450Y348087D01*
X362532D01*
X373481Y337138D01*
X373388Y336670D01*
X373815Y334524D01*
X375031Y332705D01*
X376850Y331489D01*
X378996Y331062D01*
X381142Y331489D01*
X381741Y331889D01*
X383025Y330485D01*
X381865Y328748D01*
X381457Y326700D01*
X381865Y324652D01*
X382090Y324314D01*
X382996Y322514D01*
X381827Y320764D01*
X381669Y319970D01*
X393810D01*
Y317430D01*
X381669D01*
X381827Y316636D01*
X382996Y314886D01*
X382090Y313086D01*
X381865Y312748D01*
X381457Y310700D01*
X381865Y308652D01*
X382090Y308314D01*
X382996Y306514D01*
X381827Y304764D01*
X381669Y303970D01*
X393810D01*
Y301430D01*
X381669D01*
X381827Y300636D01*
X382996Y298886D01*
X382090Y297086D01*
X381865Y296748D01*
X381457Y294700D01*
X381568Y294143D01*
X379867Y292442D01*
X379310Y292553D01*
X377262Y292145D01*
X375525Y290985D01*
X375095D01*
X373358Y292145D01*
X371310Y292553D01*
X369262Y292145D01*
X367525Y290985D01*
X367095D01*
X365358Y292145D01*
X363310Y292553D01*
X361262Y292145D01*
X360891Y291898D01*
X359310Y291094D01*
X357729Y291898D01*
X357358Y292145D01*
X355310Y292553D01*
X353262Y292145D01*
X352891Y291898D01*
X351310Y291094D01*
X349729Y291898D01*
X349358Y292145D01*
X347310Y292553D01*
X345262Y292145D01*
X344891Y291898D01*
X343310Y291094D01*
X341729Y291898D01*
X341358Y292145D01*
X339310Y292553D01*
X337262Y292145D01*
X336891Y291898D01*
X335310Y291094D01*
X333729Y291898D01*
X333358Y292145D01*
X331310Y292553D01*
X329262Y292145D01*
X328891Y291898D01*
X327310Y291094D01*
X325729Y291898D01*
X325358Y292145D01*
X323310Y292553D01*
X322753Y292442D01*
X321052Y294143D01*
X321163Y294700D01*
X320755Y296748D01*
X319595Y298485D01*
Y298915D01*
X320755Y300652D01*
X321163Y302700D01*
X320755Y304748D01*
X320530Y305086D01*
X319624Y306886D01*
X320793Y308636D01*
X320951Y309430D01*
X308810D01*
X296669D01*
X296736Y309092D01*
X296730Y309066D01*
X295858Y307924D01*
X295214Y307450D01*
X292357Y308317D01*
X288744Y310248D01*
X287086Y311609D01*
X285614Y312884D01*
X284227Y314270D01*
X275762Y322736D01*
X275571Y322863D01*
X273531Y325521D01*
X274265Y326085D01*
X275788Y328069D01*
X276745Y330380D01*
X277072Y332860D01*
X276745Y335340D01*
X275788Y337651D01*
X274265Y339635D01*
X272281Y341158D01*
X269970Y342115D01*
X267490Y342442D01*
X265010Y342115D01*
X262699Y341158D01*
X260714Y339635D01*
X259192Y337651D01*
X258235Y335340D01*
X257908Y332860D01*
X258235Y330380D01*
X259192Y328069D01*
X260714Y326085D01*
X262699Y324562D01*
X265010Y323605D01*
X265471Y323544D01*
X267174Y320357D01*
X269973Y316947D01*
X269994Y316968D01*
X278432Y308530D01*
X279838Y307108D01*
X279838Y307108D01*
X283300Y304152D01*
X287182Y301773D01*
X289747Y300710D01*
X289426Y298679D01*
X286238Y298428D01*
X281738Y297348D01*
X277462Y295577D01*
X273517Y293159D01*
X270747Y290793D01*
X269970Y291115D01*
X267490Y291442D01*
X265010Y291115D01*
X262699Y290158D01*
X260714Y288635D01*
X259192Y286651D01*
X258852Y285831D01*
X258612Y285930D01*
X256563Y286338D01*
X256312D01*
X256066Y286387D01*
X215447D01*
X215201Y286338D01*
X214949D01*
X211514Y285655D01*
X211283Y285559D01*
X211036Y285510D01*
X207801Y284169D01*
X207592Y284030D01*
X207360Y283934D01*
X204448Y281988D01*
X204270Y281810D01*
X204062Y281671D01*
X202698Y280307D01*
X202228Y280305D01*
X200561Y280999D01*
X200429Y281666D01*
X199655Y282823D01*
X191725Y290754D01*
X191818Y291222D01*
X191391Y293368D01*
X190175Y295187D01*
X188356Y296403D01*
X186210Y296830D01*
X184064Y296403D01*
X182245Y295187D01*
X181029Y293368D01*
X180602Y291222D01*
X181029Y289076D01*
X182245Y287257D01*
X184064Y286041D01*
X186210Y285614D01*
X186678Y285707D01*
X193563Y278822D01*
Y238094D01*
X193835Y236728D01*
X194609Y235570D01*
X197168Y233011D01*
X197466Y232038D01*
X197616Y230905D01*
X197616Y230904D01*
X197063Y230077D01*
X196869Y229102D01*
Y221670D01*
X196759Y219431D01*
X195873Y214978D01*
X194160Y210842D01*
X191672Y207119D01*
X188507Y203953D01*
X184784Y201466D01*
X180648Y199753D01*
X176195Y198867D01*
X173955Y198757D01*
X107847D01*
X107601Y198708D01*
X107350D01*
X104602Y198161D01*
X104370Y198065D01*
X104124Y198016D01*
X101535Y196944D01*
X101326Y196805D01*
X101094Y196709D01*
X100593Y196373D01*
X98593Y197442D01*
Y294252D01*
X98321Y295618D01*
X97547Y296775D01*
X84537Y309786D01*
X84630Y310254D01*
X84203Y312400D01*
X82987Y314219D01*
X81168Y315435D01*
X79022Y315862D01*
X76876Y315435D01*
X75057Y314219D01*
X73841Y312400D01*
X73414Y310254D01*
X73841Y308108D01*
X75057Y306289D01*
X76876Y305073D01*
X79022Y304646D01*
X79490Y304739D01*
X91455Y292774D01*
Y269628D01*
X89455Y268799D01*
X66529Y291726D01*
X66783Y294300D01*
X67239Y294605D01*
X68455Y296424D01*
X68882Y298570D01*
X68455Y300716D01*
X67239Y302535D01*
X66458Y303057D01*
X65529Y304137D01*
X65949Y305620D01*
X66423Y306330D01*
X66850Y308476D01*
X68089Y309986D01*
X69280D01*
Y324986D01*
X69280D01*
Y324986D01*
X69280D01*
Y335025D01*
X94788Y360533D01*
X184634D01*
X185399Y358686D01*
D02*
G37*
G36*
X928426Y542099D02*
X928788Y541972D01*
X929739Y541836D01*
X931417Y540997D01*
X931479Y540956D01*
X932532Y539902D01*
X933098Y539056D01*
X933143Y538965D01*
X933693Y537143D01*
D01*
X933721Y535271D01*
Y10137D01*
X933693Y8265D01*
D01*
X933154Y6437D01*
X932110Y4874D01*
X930547Y3830D01*
X928719Y3291D01*
D01*
X926847Y3263D01*
X488310D01*
X487971Y3676D01*
X487777Y4651D01*
X487224Y5478D01*
X482759Y9944D01*
X483525Y11791D01*
X666134D01*
X667500Y12063D01*
X668657Y12837D01*
X783093Y127273D01*
X783867Y128430D01*
X784139Y129796D01*
Y133304D01*
X784535Y133569D01*
X785751Y135388D01*
X786178Y137534D01*
X785751Y139680D01*
X784535Y141499D01*
X782716Y142715D01*
X780570Y143142D01*
X778424Y142715D01*
X777319Y141976D01*
X777182Y142033D01*
X775966Y143852D01*
X774147Y145068D01*
X772201Y145455D01*
X769296Y148360D01*
Y158988D01*
X755296D01*
Y141988D01*
X758016D01*
X759085Y139988D01*
X758879Y139680D01*
X758452Y137534D01*
X758879Y135388D01*
X760095Y133569D01*
X760491Y133304D01*
Y121835D01*
X661903Y23247D01*
X614506D01*
X613741Y25094D01*
X617231Y28585D01*
X617386Y28816D01*
X618194Y29073D01*
X619723Y29177D01*
X619827Y29143D01*
X621605Y27778D01*
X624159Y26720D01*
X626900Y26359D01*
X629641Y26720D01*
X632195Y27778D01*
X634389Y29461D01*
X636072Y31655D01*
X637130Y34209D01*
X637491Y36950D01*
X637130Y39691D01*
X636072Y42245D01*
X635146Y43451D01*
X642123Y50429D01*
X642897Y51586D01*
X643169Y52952D01*
Y54011D01*
X645169Y54587D01*
X647005Y53178D01*
X649559Y52120D01*
X652300Y51759D01*
X655041Y52120D01*
X657595Y53178D01*
X659789Y54861D01*
X660193Y55389D01*
X662193Y54710D01*
Y51890D01*
X656768Y46465D01*
X655041Y47180D01*
X652300Y47541D01*
X649559Y47180D01*
X647005Y46122D01*
X644811Y44439D01*
X643128Y42245D01*
X642070Y39691D01*
X641709Y36950D01*
X642070Y34209D01*
X643128Y31655D01*
X644811Y29461D01*
X647005Y27778D01*
X649559Y26720D01*
X652300Y26359D01*
X655041Y26720D01*
X657595Y27778D01*
X659789Y29461D01*
X661472Y31655D01*
X662530Y34209D01*
X662891Y36950D01*
X662530Y39691D01*
X661814Y41418D01*
X668285Y47889D01*
X669059Y49046D01*
X669331Y50412D01*
Y191382D01*
X669946Y192131D01*
X687929D01*
X688983Y191266D01*
Y156972D01*
X685052D01*
Y141972D01*
X698052D01*
X700052Y141972D01*
X702052Y141972D01*
X715052D01*
Y144884D01*
X724796D01*
Y140988D01*
X739796D01*
Y159988D01*
X736920D01*
X735762Y161842D01*
X735782Y161988D01*
X737305Y163005D01*
X747010Y172710D01*
X747156Y172739D01*
X748975Y173955D01*
X750191Y175774D01*
X750618Y177920D01*
X750471Y178658D01*
X751436Y179474D01*
X752250Y179964D01*
X753620Y179692D01*
X755181Y180002D01*
X756120Y180630D01*
X757059Y180002D01*
X758620Y179692D01*
X760050Y179976D01*
X760672Y179543D01*
X761683Y178601D01*
X761396Y177158D01*
X761823Y175012D01*
X763039Y173193D01*
X764858Y171977D01*
X767004Y171550D01*
X769150Y171977D01*
X769515Y172221D01*
X771120Y173109D01*
X772725Y172221D01*
X773090Y171977D01*
X775236Y171550D01*
X777382Y171977D01*
X779201Y173193D01*
X780417Y175012D01*
X780844Y177158D01*
X780417Y179304D01*
X779201Y181123D01*
X777410Y182320D01*
X777698Y183770D01*
Y193770D01*
X777388Y195331D01*
X776504Y196654D01*
X775181Y197538D01*
X773620Y197848D01*
X772059Y197538D01*
X771120Y196910D01*
X770181Y197538D01*
X768620Y197848D01*
X767059Y197538D01*
X766120Y196910D01*
X765181Y197538D01*
X763620Y197848D01*
X762059Y197538D01*
X761120Y196910D01*
X760181Y197538D01*
X758620Y197848D01*
X757059Y197538D01*
X756120Y196910D01*
X755181Y197538D01*
X753620Y197848D01*
X752059Y197538D01*
X751120Y196910D01*
X750181Y197538D01*
X748620Y197848D01*
X747189Y199023D01*
Y205424D01*
X746917Y206790D01*
X746143Y207948D01*
X733296Y220795D01*
X732138Y221569D01*
X730772Y221840D01*
X698748D01*
X697382Y221569D01*
X696225Y220795D01*
X688870Y213441D01*
X686445Y213844D01*
X686064Y214596D01*
X686198Y215270D01*
X685888Y216831D01*
X685260Y217770D01*
X685888Y218709D01*
X686198Y220270D01*
X685888Y221831D01*
X685260Y222770D01*
X685888Y223709D01*
X686198Y225270D01*
X685888Y226831D01*
X685260Y227770D01*
X685888Y228709D01*
X686198Y230270D01*
X685888Y231831D01*
X685260Y232770D01*
X685888Y233709D01*
X686198Y235270D01*
X685888Y236831D01*
X685871Y236857D01*
X686633Y239075D01*
X688148Y239818D01*
X689130Y239622D01*
X691276Y240049D01*
X693095Y241265D01*
X694311Y243084D01*
X694738Y245230D01*
X694311Y247376D01*
X693095Y249195D01*
X692338Y249701D01*
X692944Y251701D01*
X731621D01*
X784246Y199077D01*
X785403Y198303D01*
X786769Y198032D01*
X797946D01*
X819817Y176161D01*
X820975Y175387D01*
X822340Y175115D01*
X851469D01*
X851843Y173234D01*
X853059Y171415D01*
X854878Y170199D01*
X857024Y169772D01*
X858631Y170092D01*
X860631Y168953D01*
Y148138D01*
X860903Y146772D01*
X861677Y145615D01*
X868695Y138596D01*
Y70732D01*
X868967Y69366D01*
X869741Y68209D01*
X873267Y64683D01*
X874424Y63909D01*
X875790Y63637D01*
X885502D01*
X886868Y63909D01*
X888025Y64683D01*
X891205Y67863D01*
X892584Y67589D01*
X894925Y68054D01*
X896910Y69380D01*
X897823Y70747D01*
X897986Y70802D01*
X899882D01*
X900045Y70747D01*
X900958Y69380D01*
X902943Y68054D01*
X905284Y67589D01*
X907625Y68054D01*
X909610Y69380D01*
X910523Y70747D01*
X910686Y70802D01*
X912582D01*
X912745Y70747D01*
X913658Y69380D01*
X915643Y68054D01*
X917984Y67589D01*
X920325Y68054D01*
X922310Y69380D01*
X923636Y71365D01*
X924101Y73706D01*
Y83706D01*
X923636Y86047D01*
X922572Y87639D01*
Y89797D01*
X923165Y90684D01*
X923592Y92830D01*
X923165Y94976D01*
X921949Y96795D01*
X920130Y98011D01*
X917984Y98438D01*
X915838Y98011D01*
X914019Y96795D01*
X912803Y94976D01*
X912376Y92830D01*
X912803Y90684D01*
X913396Y89797D01*
Y87639D01*
X913163Y87291D01*
X910954Y87130D01*
X909872Y88272D01*
Y126866D01*
X909523Y128622D01*
X908528Y130110D01*
X897172Y141467D01*
Y145773D01*
X897823Y146747D01*
X897986Y146802D01*
X899882D01*
X900045Y146747D01*
X900958Y145380D01*
X902943Y144054D01*
X905284Y143588D01*
X907625Y144054D01*
X909610Y145380D01*
X910523Y146747D01*
X910686Y146802D01*
X912582D01*
X912745Y146747D01*
X913658Y145380D01*
X915643Y144054D01*
X917984Y143588D01*
X920325Y144054D01*
X922310Y145380D01*
X923636Y147365D01*
X924101Y149706D01*
Y159706D01*
X923636Y162047D01*
X922310Y164032D01*
X920325Y165358D01*
X917984Y165823D01*
X917029Y165634D01*
X906717Y175946D01*
X905880Y177792D01*
X906568Y178822D01*
X907261Y179859D01*
X907746Y182298D01*
Y189798D01*
X907261Y192237D01*
X906377Y193561D01*
X906196Y194867D01*
X906862Y196053D01*
X907227Y196297D01*
X913069Y202139D01*
X913821Y203263D01*
X914085Y204590D01*
Y246754D01*
X913821Y248081D01*
X913069Y249205D01*
X906842Y255432D01*
X907261Y256059D01*
X907746Y258498D01*
Y265998D01*
X907261Y268437D01*
X905880Y270504D01*
X903813Y271885D01*
X901374Y272370D01*
X888874D01*
X886435Y271885D01*
X884368Y270504D01*
X882987Y268437D01*
X882502Y265998D01*
Y258498D01*
X882987Y256059D01*
X884368Y253992D01*
X886435Y252611D01*
X888874Y252126D01*
X900344D01*
X903978Y248492D01*
X902993Y246649D01*
X901374Y246970D01*
X888874D01*
X886435Y246485D01*
X884368Y245104D01*
X882987Y243037D01*
X882502Y240598D01*
Y233098D01*
X882987Y230659D01*
X884368Y228592D01*
X886435Y227211D01*
X888874Y226726D01*
X901374D01*
X903813Y227211D01*
X905151Y228105D01*
X907151Y227169D01*
Y221127D01*
X905151Y220191D01*
X903813Y221085D01*
X901374Y221570D01*
X888874D01*
X886435Y221085D01*
X884368Y219704D01*
X882987Y217637D01*
X882502Y215198D01*
Y209938D01*
X843406D01*
X842420Y211938D01*
X842697Y212299D01*
X843654Y214610D01*
X843980Y217090D01*
X843654Y219570D01*
X842697Y221881D01*
X841174Y223865D01*
X839190Y225388D01*
X836879Y226345D01*
X836240Y226430D01*
X836028Y227128D01*
X833604Y231663D01*
X830342Y235639D01*
X830301Y235598D01*
X826781Y239117D01*
X826788Y239124D01*
X824344Y241129D01*
X823396Y241636D01*
Y243904D01*
X824344Y244410D01*
X826788Y246416D01*
X826781Y246423D01*
X830301Y249942D01*
X830342Y249901D01*
X833604Y253876D01*
X836028Y258412D01*
X836126Y258736D01*
X836879Y258834D01*
X839190Y259792D01*
X841174Y261315D01*
X842697Y263299D01*
X843654Y265610D01*
X843980Y268090D01*
X843654Y270570D01*
X842697Y272881D01*
X841174Y274865D01*
X839190Y276388D01*
X836879Y277345D01*
X834398Y277672D01*
X831919Y277345D01*
X831092Y277003D01*
X829959Y278699D01*
X835340Y284079D01*
X882502D01*
Y283898D01*
X882987Y281459D01*
X884368Y279392D01*
X886435Y278011D01*
X888874Y277526D01*
X901374D01*
X903813Y278011D01*
X905880Y279392D01*
X907261Y281459D01*
X907746Y283898D01*
Y291398D01*
X907261Y293837D01*
X905880Y295904D01*
X903813Y297285D01*
X901374Y297771D01*
X888874D01*
X886435Y297285D01*
X884368Y295904D01*
X882987Y293837D01*
X882502Y291398D01*
Y291217D01*
X833862D01*
X832496Y290945D01*
X831339Y290171D01*
X813089Y271921D01*
X811017Y272401D01*
X810872Y272533D01*
X809735Y274235D01*
X807916Y275451D01*
X805770Y275878D01*
X805477Y275819D01*
X803894Y277012D01*
X803894Y278528D01*
X805477Y279720D01*
X805770Y279662D01*
X807916Y280089D01*
X809735Y281305D01*
X810951Y283124D01*
X811378Y285270D01*
X810951Y287416D01*
X809735Y289235D01*
X807916Y290451D01*
X805770Y290878D01*
X803624Y290451D01*
X801805Y289235D01*
X801674Y289039D01*
X800120Y289348D01*
X790120D01*
X788559Y289038D01*
X787236Y288154D01*
X786352Y286831D01*
X786042Y285270D01*
X786153Y284711D01*
X784762Y282895D01*
X784642Y282834D01*
X715292D01*
X715284Y282832D01*
X713292Y283094D01*
X711429Y283866D01*
X709835Y285089D01*
X709830Y285096D01*
X699316Y295610D01*
X699788Y297503D01*
X701646Y298278D01*
X702059Y298002D01*
X703620Y297692D01*
X705181Y298002D01*
X706120Y298630D01*
X707059Y298002D01*
X708620Y297692D01*
X710181Y298002D01*
X711120Y298630D01*
X712059Y298002D01*
X713620Y297692D01*
X715181Y298002D01*
X716120Y298630D01*
X717059Y298002D01*
X718620Y297692D01*
X720181Y298002D01*
X721120Y298630D01*
X722059Y298002D01*
X723620Y297692D01*
X725181Y298002D01*
X726120Y298630D01*
X727059Y298002D01*
X728620Y297692D01*
X730181Y298002D01*
X731120Y298630D01*
X732059Y298002D01*
X733620Y297692D01*
X733957Y297759D01*
X735051Y296860D01*
X735323Y295494D01*
X735513Y295210D01*
X735372Y294500D01*
X735799Y292354D01*
X737015Y290535D01*
X738834Y289319D01*
X740980Y288892D01*
X743126Y289319D01*
X744945Y290535D01*
X746161Y292354D01*
X746588Y294500D01*
X746666Y294526D01*
X748666Y293072D01*
Y292118D01*
X748919Y290850D01*
X749637Y289775D01*
X753005Y286407D01*
X754080Y285689D01*
X755348Y285436D01*
X774560D01*
X775828Y285689D01*
X776903Y286407D01*
X795025Y304529D01*
X804623D01*
Y300343D01*
X817623D01*
X819622Y300343D01*
X821623Y300343D01*
X834622D01*
Y301255D01*
X835816Y302235D01*
X837962Y302662D01*
X839782Y303877D01*
X840997Y305697D01*
X841424Y307843D01*
X840997Y309988D01*
X839782Y311808D01*
X837962Y313023D01*
X835816Y313450D01*
X834622Y314430D01*
Y315343D01*
X821623D01*
X819623Y315343D01*
X817623Y315343D01*
X804623D01*
Y311156D01*
X793652D01*
X792384Y310904D01*
X791309Y310186D01*
X787161Y306038D01*
X785318Y307023D01*
X785405Y307460D01*
X784978Y309606D01*
X783763Y311425D01*
X781944Y312641D01*
X779798Y313068D01*
X779492Y313007D01*
X777388Y313331D01*
X776504Y314654D01*
X775181Y315538D01*
X773620Y315848D01*
X773061Y315737D01*
X771245Y317128D01*
X771184Y317248D01*
Y401216D01*
X771240D01*
X770762Y404845D01*
X769362Y408226D01*
X767133Y411130D01*
X767094Y411090D01*
X767094Y411090D01*
X751577Y426607D01*
X752898Y428114D01*
X753963Y427297D01*
X757491Y425836D01*
X761276Y425337D01*
X765061Y425836D01*
X768589Y427297D01*
X771618Y429621D01*
X773942Y432650D01*
X775403Y436177D01*
X775901Y439962D01*
X775403Y443748D01*
X773942Y447275D01*
X771618Y450304D01*
X768589Y452628D01*
X765061Y454089D01*
X761276Y454588D01*
X757491Y454089D01*
X753963Y452628D01*
X750935Y450304D01*
X748610Y447275D01*
X747149Y443748D01*
X746651Y439962D01*
X747149Y436177D01*
X748610Y432650D01*
X749329Y431714D01*
X747924Y430295D01*
X745123Y432595D01*
X741926Y434304D01*
X738457Y435356D01*
X734850Y435711D01*
Y435686D01*
X724621D01*
Y435748D01*
X720821Y435247D01*
X717281Y433781D01*
X714240Y431448D01*
X714276Y431412D01*
X712349Y429063D01*
X710917Y426384D01*
X710035Y423477D01*
X709737Y420454D01*
X709748D01*
Y414381D01*
X708730Y413801D01*
X707748Y413570D01*
X706115Y414824D01*
X703925Y415731D01*
X701576Y416040D01*
X699227Y415731D01*
X697037Y414824D01*
X695157Y413381D01*
X693715Y411501D01*
X692808Y409312D01*
X692762Y408961D01*
X692483Y408894D01*
X688316Y407169D01*
X687007Y406366D01*
X685171Y407587D01*
X684944Y409312D01*
X684037Y411501D01*
X682595Y413381D01*
X680715Y414824D01*
X678525Y415731D01*
X676176Y416040D01*
X673827Y415731D01*
X671637Y414824D01*
X669757Y413381D01*
X668315Y411501D01*
X667408Y409312D01*
X667098Y406962D01*
X667408Y404613D01*
X668315Y402424D01*
X669362Y401058D01*
X669393Y400906D01*
X669096Y399306D01*
X668802Y398755D01*
X667785Y398334D01*
X666098Y397040D01*
X664804Y395353D01*
X663990Y393388D01*
X663886Y392603D01*
X663598Y391223D01*
X662055Y390453D01*
X661126Y390331D01*
X658937Y389424D01*
X657057Y387981D01*
X655614Y386101D01*
X654708Y383912D01*
X654398Y381562D01*
X654708Y379213D01*
X655614Y377024D01*
X657057Y375144D01*
X658937Y373701D01*
X661126Y372794D01*
X663476Y372485D01*
X665826Y372794D01*
X668015Y373701D01*
X669895Y375144D01*
X670410Y375815D01*
X672410Y375136D01*
Y312812D01*
X672378D01*
X672759Y309918D01*
X673876Y307221D01*
X675653Y304905D01*
X675676Y304928D01*
X701255Y279349D01*
X702653Y277919D01*
X702653Y277919D01*
X705362Y275696D01*
X708452Y274044D01*
X711805Y273027D01*
X715292Y272684D01*
Y272706D01*
X784642D01*
X784762Y272645D01*
X786153Y270829D01*
X786042Y270270D01*
X786352Y268709D01*
X786980Y267770D01*
X786352Y266831D01*
X786042Y265270D01*
X786352Y263709D01*
X786980Y262770D01*
X786352Y261831D01*
X786042Y260270D01*
X786352Y258709D01*
X786980Y257770D01*
X786352Y256831D01*
X784821Y255808D01*
X784470Y255878D01*
X782324Y255451D01*
X780505Y254235D01*
X779289Y252416D01*
X778862Y250270D01*
X779289Y248124D01*
X780505Y246305D01*
X782324Y245089D01*
X784470Y244662D01*
X784821Y244732D01*
X786352Y243709D01*
X786980Y242770D01*
X786352Y241831D01*
X786042Y240270D01*
X786352Y238709D01*
X786980Y237770D01*
X786352Y236831D01*
X786042Y235270D01*
X786352Y233709D01*
X786980Y232770D01*
X786352Y231831D01*
X786042Y230270D01*
X786352Y228709D01*
X786980Y227770D01*
X786352Y226831D01*
X786042Y225270D01*
X786346Y223738D01*
X785486Y223567D01*
X784329Y222793D01*
X782619Y221083D01*
X781845Y219926D01*
X781573Y218560D01*
Y214456D01*
X779726Y213690D01*
X735622Y257793D01*
X734465Y258567D01*
X733099Y258839D01*
X687373D01*
X686198Y260270D01*
X685888Y261831D01*
X685260Y262770D01*
X685888Y263709D01*
X686198Y265270D01*
X685888Y266831D01*
X685260Y267770D01*
X685888Y268709D01*
X686198Y270270D01*
X685888Y271831D01*
X685260Y272770D01*
X685888Y273709D01*
X686198Y275270D01*
X685888Y276831D01*
X685260Y277770D01*
X685888Y278709D01*
X686198Y280270D01*
X685888Y281831D01*
X685260Y282770D01*
X685888Y283709D01*
X686198Y285270D01*
X685888Y286831D01*
X685004Y288154D01*
X683681Y289038D01*
X682120Y289348D01*
X672120D01*
X670559Y289038D01*
X669236Y288154D01*
X668352Y286831D01*
X668042Y285270D01*
X666867Y283839D01*
X654688D01*
X650018Y288508D01*
X650167Y288867D01*
X650459Y291086D01*
X650167Y293305D01*
X649311Y295373D01*
X647948Y297148D01*
X646173Y298511D01*
X644105Y299367D01*
X641886Y299659D01*
X639667Y299367D01*
X637599Y298511D01*
X635824Y297148D01*
X634461Y295373D01*
X633605Y293305D01*
X633313Y291086D01*
X633605Y288867D01*
X634461Y286799D01*
X635824Y285024D01*
X636858Y284230D01*
X636996Y283883D01*
Y282151D01*
X636858Y281804D01*
X635824Y281010D01*
X634461Y279235D01*
X633605Y277167D01*
X633313Y274948D01*
X633605Y272729D01*
X634461Y270661D01*
X635824Y268886D01*
X636377Y268461D01*
Y265940D01*
X635824Y265516D01*
X634461Y263741D01*
X633605Y261673D01*
X633313Y259454D01*
X633605Y257235D01*
X634461Y255167D01*
X635824Y253392D01*
X637599Y252029D01*
X639667Y251173D01*
X641886Y250881D01*
X644105Y251173D01*
X646173Y252029D01*
X647948Y253392D01*
X649311Y255167D01*
X650167Y257235D01*
X650459Y259454D01*
X650167Y261673D01*
X650018Y262032D01*
X654688Y266701D01*
X666867D01*
X668042Y265270D01*
X668352Y263709D01*
X668980Y262770D01*
X668352Y261831D01*
X666821Y260808D01*
X666470Y260878D01*
X664324Y260451D01*
X664112Y260309D01*
X663992Y260240D01*
X662361Y259355D01*
X660542Y260571D01*
X658396Y260998D01*
X656250Y260571D01*
X654431Y259355D01*
X653215Y257536D01*
X652788Y255390D01*
X653215Y253244D01*
X654431Y251425D01*
X654827Y251160D01*
Y221914D01*
X652980Y221149D01*
X614721Y259408D01*
Y391834D01*
X725406Y502519D01*
X735402D01*
X736767Y502791D01*
X737925Y503565D01*
X744691Y510331D01*
X746165Y509720D01*
X748776Y509376D01*
X751386Y509720D01*
X753819Y510728D01*
X755908Y512330D01*
X757511Y514419D01*
X758519Y516852D01*
X758862Y519462D01*
X758519Y522073D01*
X757511Y524506D01*
X755908Y526595D01*
X753819Y528197D01*
X751386Y529205D01*
X748776Y529549D01*
X746165Y529205D01*
X743733Y528197D01*
X741644Y526595D01*
X740041Y524506D01*
X739033Y522073D01*
X738690Y519462D01*
X739033Y516852D01*
X739644Y515377D01*
X733923Y509657D01*
X730309D01*
X729630Y511657D01*
X730508Y512330D01*
X732111Y514419D01*
X733119Y516852D01*
X733462Y519462D01*
X733119Y522073D01*
X732111Y524506D01*
X730508Y526595D01*
X728419Y528197D01*
X725986Y529205D01*
X723376Y529549D01*
X720766Y529205D01*
X718333Y528197D01*
X716244Y526595D01*
X714641Y524506D01*
X713633Y522073D01*
X713290Y519462D01*
X713633Y516852D01*
X714641Y514419D01*
X716244Y512330D01*
X718333Y510728D01*
X720009Y510033D01*
X720578Y508159D01*
X720527Y507734D01*
X612308Y399515D01*
X610138Y400173D01*
X610133Y400200D01*
X654315Y444383D01*
X655089Y445540D01*
X655361Y446906D01*
Y483946D01*
X655089Y485312D01*
X654315Y486470D01*
X625408Y515377D01*
X626019Y516852D01*
X626362Y519462D01*
X626019Y522073D01*
X625011Y524506D01*
X623408Y526595D01*
X621319Y528197D01*
X618886Y529205D01*
X616276Y529549D01*
X613666Y529205D01*
X611233Y528197D01*
X609144Y526595D01*
X607541Y524506D01*
X606533Y522073D01*
X606190Y519462D01*
X606533Y516852D01*
X607541Y514419D01*
X609144Y512330D01*
X611233Y510728D01*
X613666Y509720D01*
X616276Y509376D01*
X618886Y509720D01*
X620361Y510331D01*
X648223Y482468D01*
Y448384D01*
X602533Y402693D01*
X601759Y401536D01*
X601487Y400170D01*
Y313862D01*
X599640Y313097D01*
X515123Y397613D01*
X513966Y398387D01*
X512600Y398659D01*
X376362D01*
X376036Y399146D01*
X376550Y400107D01*
Y409760D01*
Y418374D01*
X374070D01*
X372591Y418080D01*
X371338Y417242D01*
X370599Y416138D01*
X369522Y414587D01*
X368295Y414726D01*
X367312Y414922D01*
X366775Y414815D01*
X365112Y415926D01*
X365102Y415973D01*
X364274Y417214D01*
X363033Y418042D01*
X361570Y418333D01*
X359216D01*
X358254Y420333D01*
X358961Y421392D01*
X359388Y423538D01*
X358961Y425684D01*
X357745Y427503D01*
X355926Y428719D01*
X354798Y428943D01*
Y447095D01*
X356798Y448363D01*
X357836Y448157D01*
X366336D01*
X366820Y448253D01*
X368820Y446725D01*
Y442333D01*
X364070D01*
X362607Y442042D01*
X361366Y441214D01*
X360538Y439973D01*
X360247Y438510D01*
Y429010D01*
X360538Y427547D01*
X361366Y426306D01*
X362607Y425478D01*
X364070Y425187D01*
X371570D01*
X373033Y425478D01*
X374274Y426306D01*
X375102Y427547D01*
X375393Y429010D01*
Y434845D01*
X376652Y436104D01*
X377647Y437592D01*
X377996Y439348D01*
Y460822D01*
X377647Y462578D01*
X377185Y463270D01*
X376911Y464646D01*
X375695Y466465D01*
X373876Y467681D01*
X371730Y468108D01*
X370670Y469936D01*
X370810Y470147D01*
X371179Y472000D01*
X370810Y473853D01*
X369761Y475424D01*
X368189Y476474D01*
X366336Y476843D01*
X357836D01*
X356798Y476637D01*
X354798Y477905D01*
Y488908D01*
X356798Y489977D01*
X357546Y489477D01*
X359692Y489050D01*
X361838Y489477D01*
X363657Y490693D01*
X364873Y492512D01*
X365300Y494658D01*
X365215Y495082D01*
X366042Y495908D01*
X368188Y496335D01*
X370007Y497551D01*
X371223Y499370D01*
X371650Y501516D01*
X371223Y503662D01*
X370007Y505481D01*
X368188Y506697D01*
X367007Y506932D01*
X365970Y508958D01*
X365967Y509022D01*
X366132Y509403D01*
X367084Y509592D01*
X368440Y510498D01*
X369346Y511854D01*
X369664Y513454D01*
X369346Y515054D01*
X368440Y516410D01*
X367084Y517316D01*
X365484Y517634D01*
X363884Y517316D01*
X362528Y516410D01*
X362408Y516230D01*
X361780Y516650D01*
X360434Y516918D01*
X358534D01*
X357188Y516650D01*
X356267Y516034D01*
X355350Y516647D01*
X353984Y516918D01*
X351984D01*
X350618Y516647D01*
X349734Y516056D01*
X348850Y516647D01*
X347484Y516918D01*
X345484D01*
X344118Y516647D01*
X343234Y516056D01*
X342350Y516647D01*
X340984Y516918D01*
X338984D01*
X337618Y516647D01*
X336701Y516034D01*
X335780Y516650D01*
X334434Y516918D01*
X332534D01*
X331188Y516650D01*
X330560Y516230D01*
X330440Y516410D01*
X329084Y517316D01*
X327484Y517634D01*
X325884Y517316D01*
X324528Y516410D01*
X323622Y515054D01*
X323304Y513454D01*
X323622Y511854D01*
X324528Y510498D01*
X325110Y510109D01*
X324688Y507986D01*
X324593Y507967D01*
X322773Y506751D01*
X321558Y504932D01*
X321131Y502786D01*
X321558Y500640D01*
X322773Y498821D01*
X324593Y497605D01*
X326739Y497178D01*
X326896Y497210D01*
X328896Y495568D01*
Y495433D01*
X328303Y494546D01*
X327876Y492400D01*
X328303Y490254D01*
X329519Y488435D01*
X330221Y487966D01*
X330571Y485488D01*
X320380Y475296D01*
X319385Y473808D01*
X319036Y472052D01*
Y467088D01*
X295904D01*
Y473815D01*
X284345D01*
X277621Y480539D01*
X277387Y481717D01*
X276171Y483537D01*
X274352Y484752D01*
X273173Y484987D01*
X272996Y485164D01*
Y493675D01*
X259996D01*
X257996Y493675D01*
X255996Y493675D01*
X242996D01*
Y478675D01*
X245908D01*
Y473815D01*
X241904D01*
Y469903D01*
X240710Y468923D01*
X238564Y468496D01*
X236745Y467281D01*
X235529Y465461D01*
X235102Y463315D01*
X235529Y461169D01*
X236745Y459350D01*
X238564Y458134D01*
X240710Y457708D01*
X241904Y456728D01*
Y452815D01*
X259904D01*
Y473815D01*
X255084D01*
Y477261D01*
X256498Y478675D01*
X257996Y478675D01*
X259996Y478675D01*
X266507D01*
X266843Y478339D01*
X267025Y477425D01*
X268241Y475606D01*
X270060Y474390D01*
X270974Y474209D01*
X277904Y467279D01*
Y452815D01*
X279508D01*
Y443502D01*
X278957Y443049D01*
X277707D01*
X276488Y442807D01*
X275832Y442369D01*
X275176Y442807D01*
X273957Y443049D01*
X272707D01*
X271488Y442807D01*
X270832Y442369D01*
X270176Y442807D01*
X268957Y443049D01*
X267707D01*
X266488Y442807D01*
X265832Y442369D01*
X265176Y442807D01*
X263957Y443049D01*
X262707D01*
X261488Y442807D01*
X260832Y442369D01*
X260176Y442807D01*
X258957Y443049D01*
X257707D01*
X256488Y442807D01*
X255832Y442369D01*
X255176Y442807D01*
X253957Y443049D01*
X252707D01*
X251488Y442807D01*
X250454Y442116D01*
X249763Y441082D01*
X249521Y439863D01*
Y433470D01*
X248587Y432143D01*
X247667Y431681D01*
X241011D01*
X239792Y431439D01*
X238758Y430748D01*
X238067Y429714D01*
X237825Y428495D01*
Y427245D01*
X238067Y426026D01*
X238505Y425370D01*
X238067Y424714D01*
X237825Y423495D01*
Y422245D01*
X238067Y421026D01*
X238505Y420370D01*
X238067Y419714D01*
X237825Y418495D01*
Y417245D01*
X238067Y416026D01*
X238505Y415370D01*
X238067Y414714D01*
X237825Y413495D01*
Y412245D01*
X238067Y411026D01*
X238505Y410370D01*
X238067Y409714D01*
X237825Y408495D01*
Y407245D01*
X238067Y406026D01*
X238505Y405370D01*
X238067Y404714D01*
X237825Y403495D01*
Y402245D01*
X238067Y401026D01*
X238505Y400370D01*
X238067Y399714D01*
X237825Y398495D01*
Y397245D01*
X238067Y396026D01*
X238758Y394992D01*
X239792Y394301D01*
X241011Y394059D01*
X248198D01*
X248770Y393536D01*
X249611Y392288D01*
X249449Y391475D01*
Y384225D01*
X249691Y383006D01*
X249946Y382625D01*
X249083Y380648D01*
X249060Y380625D01*
X98534D01*
X92453Y386706D01*
X92504Y386962D01*
X92077Y389108D01*
X90861Y390927D01*
X89042Y392143D01*
X86896Y392570D01*
X84750Y392143D01*
X83385Y391231D01*
X81812Y391788D01*
X81385Y392116D01*
Y453885D01*
X81113Y455251D01*
X80339Y456409D01*
X69538Y467209D01*
X68381Y467983D01*
X67015Y468255D01*
X33048D01*
X31682Y467983D01*
X30525Y467209D01*
X22651Y459335D01*
X22015Y458384D01*
X21484Y458106D01*
X19761Y457792D01*
X18023Y459126D01*
X15469Y460184D01*
X12728Y460545D01*
X9987Y460184D01*
X7433Y459126D01*
X5239Y457443D01*
X3556Y455249D01*
X2498Y452695D01*
X2137Y449954D01*
X2498Y447213D01*
X3556Y444659D01*
X5239Y442465D01*
X7433Y440782D01*
X9159Y440067D01*
X9159Y434441D01*
X7433Y433726D01*
X5239Y432043D01*
X3556Y429849D01*
X2498Y427295D01*
X2137Y424554D01*
X2498Y421813D01*
X3556Y419259D01*
X5239Y417065D01*
X7433Y415382D01*
X9159Y414667D01*
X9159Y409041D01*
X7433Y408326D01*
X5239Y406643D01*
X3556Y404449D01*
X2498Y401895D01*
X2137Y399154D01*
X2498Y396413D01*
X3556Y393859D01*
X5239Y391665D01*
X7433Y389982D01*
X9987Y388924D01*
X12728Y388563D01*
X15469Y388924D01*
X18023Y389982D01*
X20217Y391665D01*
X21900Y393859D01*
X22958Y396413D01*
X23319Y399154D01*
X22958Y401895D01*
X21900Y404449D01*
X20217Y406643D01*
X18023Y408326D01*
X16297Y409041D01*
X16297Y414667D01*
X18023Y415382D01*
X19605Y416596D01*
X21605Y415775D01*
Y412108D01*
X21877Y410742D01*
X22651Y409585D01*
X28614Y403622D01*
X27898Y401895D01*
X27537Y399154D01*
X27898Y396413D01*
X28956Y393859D01*
X30639Y391665D01*
X32833Y389982D01*
X35387Y388924D01*
X38128Y388563D01*
X40869Y388924D01*
X43423Y389982D01*
X45005Y391196D01*
X47005Y390375D01*
Y382533D01*
X45005Y381712D01*
X43423Y382926D01*
X40869Y383984D01*
X38128Y384345D01*
X35387Y383984D01*
X32833Y382926D01*
X30639Y381243D01*
X28956Y379049D01*
X27898Y376495D01*
X27537Y373754D01*
X27898Y371013D01*
X28956Y368459D01*
X30639Y366265D01*
X32833Y364582D01*
X35387Y363524D01*
X38128Y363163D01*
X40869Y363524D01*
X42474Y364189D01*
X45735Y360928D01*
Y358273D01*
X43735Y357286D01*
X43423Y357526D01*
X40869Y358584D01*
X38128Y358945D01*
X35387Y358584D01*
X32833Y357526D01*
X30639Y355843D01*
X28956Y353649D01*
X27898Y351095D01*
X27537Y348354D01*
X27898Y345613D01*
X28614Y343886D01*
X24429Y339701D01*
X23655Y338544D01*
X23383Y337178D01*
Y329601D01*
X21383Y328922D01*
X20217Y330443D01*
X18023Y332126D01*
X16297Y332841D01*
X16297Y338467D01*
X18023Y339182D01*
X20217Y340865D01*
X21900Y343059D01*
X22958Y345613D01*
X23319Y348354D01*
X22958Y351095D01*
X21900Y353649D01*
X20217Y355843D01*
X18023Y357526D01*
X16297Y358241D01*
X16297Y363867D01*
X18023Y364582D01*
X20217Y366265D01*
X21900Y368459D01*
X22958Y371013D01*
X23319Y373754D01*
X22958Y376495D01*
X21900Y379049D01*
X20217Y381243D01*
X18023Y382926D01*
X15469Y383984D01*
X12728Y384345D01*
X9987Y383984D01*
X7433Y382926D01*
X5239Y381243D01*
X3556Y379049D01*
X2498Y376495D01*
X2137Y373754D01*
X2498Y371013D01*
X3556Y368459D01*
X5239Y366265D01*
X7433Y364582D01*
X9159Y363867D01*
X9159Y358241D01*
X7433Y357526D01*
X5239Y355843D01*
X3556Y353649D01*
X2498Y351095D01*
X2137Y348354D01*
X2498Y345613D01*
X3556Y343059D01*
X5239Y340865D01*
X7433Y339182D01*
X9159Y338467D01*
X9159Y332841D01*
X7433Y332126D01*
X5239Y330443D01*
X3556Y328249D01*
X2498Y325695D01*
X2137Y322954D01*
X2498Y320213D01*
X3556Y317659D01*
X5239Y315465D01*
X7433Y313782D01*
X9987Y312724D01*
X12728Y312363D01*
X15469Y312724D01*
X18023Y313782D01*
X20217Y315465D01*
X21383Y316986D01*
X23383Y316307D01*
Y313887D01*
X23655Y312522D01*
X24429Y311364D01*
X45224Y290568D01*
X44952Y288012D01*
X44450Y287676D01*
X43234Y285857D01*
X42807Y283711D01*
X43234Y281565D01*
X44450Y279746D01*
X46269Y278530D01*
X48415Y278103D01*
X49518Y278323D01*
X64785Y263056D01*
Y130557D01*
X65057Y129192D01*
X65831Y128034D01*
X72030Y121835D01*
Y111881D01*
X72030D01*
Y96881D01*
X87030D01*
Y106835D01*
X93587Y113391D01*
X208354D01*
X235862Y85883D01*
Y81700D01*
X236250Y79749D01*
X237355Y78095D01*
X239009Y76990D01*
X240960Y76602D01*
X255960D01*
X257911Y76990D01*
X259565Y78095D01*
X260670Y79749D01*
X261058Y81700D01*
Y86700D01*
X260670Y88651D01*
X259565Y90305D01*
X257911Y91410D01*
X255960Y91798D01*
X240960D01*
X240193Y91645D01*
X233407Y98431D01*
X234149Y100222D01*
X236084Y100387D01*
X236250Y99549D01*
X237355Y97895D01*
X239009Y96790D01*
X240960Y96402D01*
X255960D01*
X257911Y96790D01*
X259565Y97895D01*
X260670Y99549D01*
X261058Y101500D01*
Y105103D01*
X263058Y105931D01*
X294470Y74519D01*
X293642Y72519D01*
X238280D01*
X237305Y72325D01*
X236478Y71772D01*
X170184Y5478D01*
X169631Y4651D01*
X169437Y3676D01*
X169098Y3263D01*
X2253D01*
X381Y3291D01*
D01*
X-1447Y3830D01*
X-3010Y4874D01*
X-4304Y6810D01*
X-4561Y8106D01*
Y537163D01*
X-4491Y537658D01*
X-4434Y537944D01*
X-3597Y539618D01*
X-2238Y540977D01*
X-523Y541834D01*
X452Y541971D01*
X818Y542099D01*
X1053Y542145D01*
X293106D01*
X294984Y541850D01*
X294984Y537602D01*
X292984Y536809D01*
X292652Y537031D01*
X290506Y537458D01*
X288360Y537031D01*
X286541Y535815D01*
X285325Y533996D01*
X284898Y531850D01*
X285325Y529704D01*
X286541Y527885D01*
X288360Y526669D01*
X290506Y526242D01*
X292652Y526669D01*
X292984Y526891D01*
X294984Y526099D01*
Y521850D01*
X317984D01*
Y526099D01*
X319984Y526891D01*
X320316Y526669D01*
X322462Y526242D01*
X324608Y526669D01*
X326427Y527885D01*
X327643Y529704D01*
X328070Y531850D01*
X327643Y533996D01*
X326427Y535815D01*
X324608Y537031D01*
X322462Y537458D01*
X320316Y537031D01*
X319984Y536809D01*
X317984Y537602D01*
X317984Y541850D01*
X319862Y542145D01*
X373106D01*
X374984Y541850D01*
X374984Y537602D01*
X372984Y536809D01*
X372652Y537031D01*
X370506Y537458D01*
X368360Y537031D01*
X366541Y535815D01*
X365325Y533996D01*
X364898Y531850D01*
X365325Y529704D01*
X366541Y527885D01*
X368360Y526669D01*
X370506Y526242D01*
X372652Y526669D01*
X372984Y526891D01*
X374984Y526099D01*
Y521850D01*
X397984D01*
Y526099D01*
X399984Y526891D01*
X400316Y526669D01*
X402462Y526242D01*
X404608Y526669D01*
X406427Y527885D01*
X407643Y529704D01*
X408070Y531850D01*
X407643Y533996D01*
X406427Y535815D01*
X404608Y537031D01*
X402462Y537458D01*
X400316Y537031D01*
X399984Y536809D01*
X397984Y537602D01*
X397984Y541850D01*
X399862Y542145D01*
X473630D01*
X474576Y540145D01*
X473377Y538684D01*
X471984Y536078D01*
X471126Y533251D01*
X470836Y530310D01*
X471126Y527369D01*
X471984Y524542D01*
X473377Y521936D01*
X475251Y519652D01*
X477535Y517778D01*
X480141Y516385D01*
X482969Y515527D01*
X485909Y515237D01*
X488850Y515527D01*
X491677Y516385D01*
X494283Y517778D01*
X495569Y518833D01*
X496990Y517412D01*
X495435Y515517D01*
X493670Y512216D01*
X492584Y508635D01*
X492217Y504910D01*
X492584Y501185D01*
X493670Y497604D01*
X495435Y494303D01*
X496990Y492408D01*
X495569Y490987D01*
X494283Y492042D01*
X491677Y493435D01*
X488850Y494293D01*
X485909Y494583D01*
X482969Y494293D01*
X480141Y493435D01*
X477535Y492042D01*
X475251Y490168D01*
X473377Y487884D01*
X471984Y485278D01*
X471126Y482450D01*
X470836Y479510D01*
X471126Y476570D01*
X471984Y473742D01*
X473377Y471136D01*
X475251Y468852D01*
X477535Y466978D01*
X480141Y465585D01*
X482969Y464727D01*
X485909Y464437D01*
X488850Y464727D01*
X491677Y465585D01*
X494283Y466978D01*
X496567Y468852D01*
X498441Y471136D01*
X499834Y473742D01*
X500692Y476570D01*
X500982Y479510D01*
X500692Y482450D01*
X499834Y485278D01*
X498441Y487884D01*
X497386Y489170D01*
X498807Y490591D01*
X500702Y489036D01*
X504003Y487271D01*
X507584Y486185D01*
X511309Y485818D01*
X515034Y486185D01*
X518615Y487271D01*
X521916Y489036D01*
X523811Y490591D01*
X525232Y489170D01*
X524177Y487884D01*
X522784Y485278D01*
X521926Y482450D01*
X521637Y479510D01*
X521926Y476570D01*
X522784Y473742D01*
X524177Y471136D01*
X526051Y468852D01*
X528335Y466978D01*
X530941Y465585D01*
X533769Y464727D01*
X536709Y464437D01*
X539650Y464727D01*
X542477Y465585D01*
X545083Y466978D01*
X547367Y468852D01*
X549241Y471136D01*
X550634Y473742D01*
X551492Y476570D01*
X551782Y479510D01*
X551492Y482450D01*
X551145Y483595D01*
X552805Y485011D01*
X553365Y484739D01*
X554296Y482491D01*
X554655Y479764D01*
X554609Y479418D01*
Y471170D01*
X554655Y470827D01*
X554232Y468704D01*
X553030Y466905D01*
X552756Y466694D01*
X552422Y466260D01*
X549876Y463278D01*
X547542Y459470D01*
X545833Y455344D01*
X545323Y453219D01*
X543276Y453259D01*
X543209Y453596D01*
X541993Y455415D01*
X540174Y456631D01*
X538028Y457058D01*
X535882Y456631D01*
X534063Y455415D01*
X532847Y453596D01*
X532420Y451450D01*
X532786Y449613D01*
X531063Y448461D01*
X529847Y446642D01*
X529420Y444496D01*
Y422496D01*
X529847Y420350D01*
X531063Y418531D01*
X532742Y417409D01*
X532392Y415650D01*
X532819Y413504D01*
X534035Y411685D01*
X535854Y410469D01*
X538000Y410042D01*
X540146Y410469D01*
X541965Y411685D01*
X543181Y413504D01*
X543608Y415650D01*
X543544Y415969D01*
X543699Y416056D01*
X545420Y416949D01*
X547183Y414651D01*
X549481Y412887D01*
X549908Y412711D01*
X551220Y411704D01*
X554504Y410344D01*
X558028Y409879D01*
X561552Y410344D01*
X564836Y411704D01*
X566148Y412711D01*
X566575Y412887D01*
X568873Y414651D01*
X569510Y415480D01*
X572218Y415724D01*
X572533Y415439D01*
X572524Y415396D01*
X572951Y413250D01*
X574167Y411431D01*
X575986Y410215D01*
X578132Y409788D01*
X580278Y410215D01*
X582097Y411431D01*
X583313Y413250D01*
X583740Y415396D01*
X583336Y417424D01*
X584993Y418531D01*
X586209Y420350D01*
X586636Y422496D01*
Y444496D01*
X586209Y446642D01*
X584993Y448461D01*
X583431Y449505D01*
X583768Y451196D01*
X583341Y453342D01*
X582125Y455161D01*
X580306Y456377D01*
X580049Y456428D01*
X579106Y458192D01*
X580187Y460802D01*
X581416Y465922D01*
X581810Y470923D01*
X581842Y471170D01*
Y479418D01*
X581846D01*
X581366Y485522D01*
X579936Y491476D01*
X577593Y497133D01*
X574394Y502354D01*
X570418Y507010D01*
X565762Y510986D01*
X560541Y514185D01*
X554884Y516529D01*
X548930Y517958D01*
X548222Y518014D01*
X547702Y520061D01*
X549241Y521936D01*
X550634Y524542D01*
X551492Y527369D01*
X551782Y530310D01*
X551492Y533251D01*
X550634Y536078D01*
X549241Y538684D01*
X548042Y540145D01*
X548988Y542145D01*
X928195D01*
X928426Y542099D01*
D02*
G37*
%LPC*%
G36*
X620042Y194440D02*
X619150Y194263D01*
X617318Y193038D01*
X616093Y191206D01*
X615663Y189044D01*
Y185314D01*
X620042D01*
Y194440D01*
D02*
G37*
G36*
X619400Y203066D02*
X613130D01*
Y196796D01*
X619400D01*
Y203066D01*
D02*
G37*
G36*
X204210Y190791D02*
X201469Y190430D01*
X198915Y189372D01*
X196721Y187689D01*
X195038Y185495D01*
X193980Y182941D01*
X193619Y180200D01*
X193980Y177459D01*
X195038Y174905D01*
X196721Y172711D01*
X198915Y171028D01*
X201469Y169970D01*
X204210Y169609D01*
X206951Y169970D01*
X209505Y171028D01*
X211699Y172711D01*
X213382Y174905D01*
X214440Y177459D01*
X214801Y180200D01*
X214440Y182941D01*
X213382Y185495D01*
X211699Y187689D01*
X209505Y189372D01*
X206951Y190430D01*
X204210Y190791D01*
D02*
G37*
G36*
X128010D02*
X125269Y190430D01*
X122715Y189372D01*
X120521Y187689D01*
X118838Y185495D01*
X117780Y182941D01*
X117419Y180200D01*
X117780Y177459D01*
X118838Y174905D01*
X120521Y172711D01*
X122715Y171028D01*
X125269Y169970D01*
X128010Y169609D01*
X130751Y169970D01*
X133305Y171028D01*
X135499Y172711D01*
X137182Y174905D01*
X138240Y177459D01*
X138601Y180200D01*
X138240Y182941D01*
X137182Y185495D01*
X135499Y187689D01*
X133305Y189372D01*
X130751Y190430D01*
X128010Y190791D01*
D02*
G37*
G36*
X153410D02*
X150669Y190430D01*
X148115Y189372D01*
X145921Y187689D01*
X144238Y185495D01*
X143180Y182941D01*
X142819Y180200D01*
X143180Y177459D01*
X144238Y174905D01*
X145921Y172711D01*
X148115Y171028D01*
X150669Y169970D01*
X153410Y169609D01*
X156151Y169970D01*
X158705Y171028D01*
X160899Y172711D01*
X162582Y174905D01*
X163640Y177459D01*
X164001Y180200D01*
X163640Y182941D01*
X162582Y185495D01*
X160899Y187689D01*
X158705Y189372D01*
X156151Y190430D01*
X153410Y190791D01*
D02*
G37*
G36*
X178810D02*
X176069Y190430D01*
X173515Y189372D01*
X171321Y187689D01*
X169638Y185495D01*
X168580Y182941D01*
X168219Y180200D01*
X168580Y177459D01*
X169638Y174905D01*
X171321Y172711D01*
X173515Y171028D01*
X176069Y169970D01*
X178810Y169609D01*
X181551Y169970D01*
X184105Y171028D01*
X186299Y172711D01*
X187982Y174905D01*
X189040Y177459D01*
X189401Y180200D01*
X189040Y182941D01*
X187982Y185495D01*
X186299Y187689D01*
X184105Y189372D01*
X181551Y190430D01*
X178810Y190791D01*
D02*
G37*
G36*
X247190Y232439D02*
X240960D01*
X238993Y232048D01*
X237326Y230934D01*
X236212Y229266D01*
X235821Y227300D01*
Y226070D01*
X247190D01*
Y232439D01*
D02*
G37*
G36*
X281200Y254578D02*
X276200D01*
X274249Y254190D01*
X272595Y253085D01*
X271490Y251431D01*
X271102Y249480D01*
Y234480D01*
X271490Y232529D01*
X272595Y230875D01*
X274249Y229770D01*
X276200Y229382D01*
X281200D01*
X283151Y229770D01*
X284805Y230875D01*
X285910Y232529D01*
X286298Y234480D01*
Y249480D01*
X285910Y251431D01*
X284805Y253085D01*
X283151Y254190D01*
X281200Y254578D01*
D02*
G37*
G36*
X255960Y232439D02*
X249730D01*
Y226070D01*
X261099D01*
Y227300D01*
X260708Y229266D01*
X259594Y230934D01*
X257927Y232048D01*
X255960Y232439D01*
D02*
G37*
G36*
X619400Y211876D02*
X613130D01*
Y205606D01*
X619400D01*
Y211876D01*
D02*
G37*
G36*
X247190Y223530D02*
X235821D01*
Y222300D01*
X236212Y220333D01*
X237326Y218666D01*
X238993Y217552D01*
X240960Y217161D01*
X247190D01*
Y223530D01*
D02*
G37*
G36*
X261099D02*
X249730D01*
Y217161D01*
X255960D01*
X257927Y217552D01*
X259594Y218666D01*
X260708Y220333D01*
X261099Y222300D01*
Y223530D01*
D02*
G37*
G36*
X207974Y84822D02*
X201704D01*
Y78552D01*
X207974D01*
Y84822D01*
D02*
G37*
G36*
X199164D02*
X192894D01*
Y78552D01*
X199164D01*
Y84822D01*
D02*
G37*
G36*
X169635Y108632D02*
X163365D01*
Y102362D01*
X169635D01*
Y108632D01*
D02*
G37*
G36*
X160825D02*
X154555D01*
Y102362D01*
X160825D01*
Y108632D01*
D02*
G37*
G36*
X904280Y51090D02*
X900653Y50732D01*
X897166Y49674D01*
X893952Y47957D01*
X891135Y45645D01*
X888823Y42828D01*
X887105Y39614D01*
X886048Y36127D01*
X885691Y32500D01*
X886048Y28873D01*
X887105Y25386D01*
X888823Y22172D01*
X891135Y19355D01*
X893952Y17043D01*
X897166Y15325D01*
X900653Y14268D01*
X904280Y13910D01*
X907907Y14268D01*
X911394Y15325D01*
X914608Y17043D01*
X917425Y19355D01*
X919737Y22172D01*
X921454Y25386D01*
X922512Y28873D01*
X922869Y32500D01*
X922512Y36127D01*
X921454Y39614D01*
X919737Y42828D01*
X917425Y45645D01*
X914608Y47957D01*
X911394Y49674D01*
X907907Y50732D01*
X904280Y51090D01*
D02*
G37*
G36*
X24280D02*
X20653Y50732D01*
X17166Y49674D01*
X13952Y47957D01*
X11135Y45645D01*
X8823Y42828D01*
X7106Y39614D01*
X6048Y36127D01*
X5691Y32500D01*
X6048Y28873D01*
X7106Y25386D01*
X8823Y22172D01*
X11135Y19355D01*
X13952Y17043D01*
X17166Y15325D01*
X20653Y14268D01*
X24280Y13910D01*
X27907Y14268D01*
X31394Y15325D01*
X34608Y17043D01*
X37425Y19355D01*
X39737Y22172D01*
X41455Y25386D01*
X42512Y28873D01*
X42870Y32500D01*
X42512Y36127D01*
X41455Y39614D01*
X39737Y42828D01*
X37425Y45645D01*
X34608Y47957D01*
X31394Y49674D01*
X27907Y50732D01*
X24280Y51090D01*
D02*
G37*
G36*
X859056Y68645D02*
X857098Y68387D01*
X855274Y67631D01*
X853707Y66429D01*
X852505Y64862D01*
X851749Y63038D01*
X851491Y61080D01*
X851749Y59122D01*
X852505Y57298D01*
X853707Y55731D01*
X855274Y54529D01*
X857098Y53773D01*
X859056Y53515D01*
X861014Y53773D01*
X862838Y54529D01*
X864405Y55731D01*
X865607Y57298D01*
X866363Y59122D01*
X866621Y61080D01*
X866363Y63038D01*
X865607Y64862D01*
X864405Y66429D01*
X862838Y67631D01*
X861014Y68387D01*
X859056Y68645D01*
D02*
G37*
G36*
X47272Y63311D02*
X45314Y63053D01*
X43490Y62297D01*
X41923Y61095D01*
X40721Y59528D01*
X39965Y57704D01*
X39707Y55746D01*
X39965Y53788D01*
X40721Y51964D01*
X41923Y50397D01*
X43490Y49195D01*
X45314Y48439D01*
X47272Y48181D01*
X49230Y48439D01*
X51054Y49195D01*
X52621Y50397D01*
X53823Y51964D01*
X54579Y53788D01*
X54837Y55746D01*
X54579Y57704D01*
X53823Y59528D01*
X52621Y61095D01*
X51054Y62297D01*
X49230Y63053D01*
X47272Y63311D01*
D02*
G37*
G36*
X207934Y108592D02*
X192934D01*
Y107837D01*
X191388Y106568D01*
X190906Y106664D01*
X190430Y106569D01*
X188884Y107838D01*
Y108592D01*
X173884D01*
Y95592D01*
X173884Y93592D01*
X173884Y92094D01*
X172470Y90680D01*
X169595D01*
Y93552D01*
X169635D01*
Y99822D01*
X162095D01*
X154555D01*
Y93552D01*
X154595D01*
Y78592D01*
X155665D01*
X156488Y77590D01*
X156915Y75444D01*
X158130Y73625D01*
X159949Y72409D01*
X162095Y71982D01*
X164241Y72409D01*
X166061Y73625D01*
X167276Y75444D01*
X167703Y77590D01*
X168526Y78592D01*
X169595D01*
Y81504D01*
X173884D01*
Y78592D01*
X174954D01*
X175776Y77590D01*
X176203Y75444D01*
X177419Y73625D01*
X179238Y72409D01*
X181384Y71982D01*
X183530Y72409D01*
X185349Y73625D01*
X186565Y75444D01*
X186992Y77590D01*
X187814Y78592D01*
X188884D01*
Y91592D01*
X188884Y94274D01*
X189942Y95143D01*
X192111Y94768D01*
X192894Y93632D01*
Y87362D01*
X200434D01*
X207974D01*
Y93632D01*
X208733Y95318D01*
X208936Y95484D01*
X211082Y95911D01*
X212901Y97127D01*
X214117Y98946D01*
X214544Y101092D01*
X214117Y103238D01*
X212901Y105057D01*
X211082Y106273D01*
X208936Y106700D01*
X207934Y107522D01*
Y108592D01*
D02*
G37*
G36*
X126740Y165396D02*
X124010D01*
X122303Y165172D01*
X120712Y164513D01*
X119346Y163464D01*
X118297Y162098D01*
X117638Y160507D01*
X117414Y158800D01*
Y156070D01*
X126740D01*
Y165396D01*
D02*
G37*
G36*
X204210Y165391D02*
X201469Y165030D01*
X198915Y163972D01*
X196721Y162289D01*
X195038Y160095D01*
X193980Y157541D01*
X193619Y154800D01*
X193980Y152059D01*
X195038Y149505D01*
X196721Y147311D01*
X198915Y145628D01*
X201469Y144570D01*
X204210Y144209D01*
X206951Y144570D01*
X209505Y145628D01*
X211699Y147311D01*
X213382Y149505D01*
X214440Y152059D01*
X214801Y154800D01*
X214440Y157541D01*
X213382Y160095D01*
X211699Y162289D01*
X209505Y163972D01*
X206951Y165030D01*
X204210Y165391D01*
D02*
G37*
G36*
X600230Y164004D02*
X593960D01*
Y157734D01*
X600230D01*
Y164004D01*
D02*
G37*
G36*
X132010Y165396D02*
X129280D01*
Y156070D01*
X138606D01*
Y158800D01*
X138382Y160507D01*
X137723Y162098D01*
X136674Y163464D01*
X135308Y164513D01*
X133717Y165172D01*
X132010Y165396D01*
D02*
G37*
G36*
X138606Y153530D02*
X129280D01*
Y144204D01*
X132010D01*
X133717Y144428D01*
X135308Y145087D01*
X136674Y146136D01*
X137723Y147502D01*
X138382Y149093D01*
X138606Y150800D01*
Y153530D01*
D02*
G37*
G36*
X126740D02*
X117414D01*
Y150800D01*
X117638Y149093D01*
X118297Y147502D01*
X119346Y146136D01*
X120712Y145087D01*
X122303Y144428D01*
X124010Y144204D01*
X126740D01*
Y153530D01*
D02*
G37*
G36*
X178810Y165391D02*
X176069Y165030D01*
X173515Y163972D01*
X171321Y162289D01*
X169638Y160095D01*
X168580Y157541D01*
X168219Y154800D01*
X168580Y152059D01*
X169638Y149505D01*
X171321Y147311D01*
X173515Y145628D01*
X176069Y144570D01*
X178810Y144209D01*
X181551Y144570D01*
X184105Y145628D01*
X186299Y147311D01*
X187982Y149505D01*
X189040Y152059D01*
X189401Y154800D01*
X189040Y157541D01*
X187982Y160095D01*
X186299Y162289D01*
X184105Y163972D01*
X181551Y165030D01*
X178810Y165391D01*
D02*
G37*
G36*
X153410D02*
X150669Y165030D01*
X148115Y163972D01*
X145921Y162289D01*
X144238Y160095D01*
X143180Y157541D01*
X142819Y154800D01*
X143180Y152059D01*
X144238Y149505D01*
X145921Y147311D01*
X148115Y145628D01*
X150669Y144570D01*
X153410Y144209D01*
X156151Y144570D01*
X158705Y145628D01*
X160899Y147311D01*
X162582Y149505D01*
X163640Y152059D01*
X164001Y154800D01*
X163640Y157541D01*
X162582Y160095D01*
X160899Y162289D01*
X158705Y163972D01*
X156151Y165030D01*
X153410Y165391D01*
D02*
G37*
G36*
X441028Y450104D02*
X435028D01*
X432882Y449677D01*
X431063Y448461D01*
X429847Y446642D01*
X429420Y444496D01*
Y422496D01*
X429847Y420350D01*
X431063Y418531D01*
X432882Y417315D01*
X435028Y416888D01*
X441028D01*
X443174Y417315D01*
X444993Y418531D01*
X446209Y420350D01*
X446636Y422496D01*
Y444496D01*
X446209Y446642D01*
X444993Y448461D01*
X443174Y449677D01*
X441028Y450104D01*
D02*
G37*
G36*
X521028D02*
X515028D01*
X512882Y449677D01*
X511063Y448461D01*
X509847Y446642D01*
X509420Y444496D01*
Y422496D01*
X509847Y420350D01*
X511063Y418531D01*
X511640Y418145D01*
X512847Y416774D01*
X512751Y415302D01*
X512580Y414446D01*
X513007Y412300D01*
X514223Y410481D01*
X516042Y409265D01*
X518188Y408838D01*
X520334Y409265D01*
X522153Y410481D01*
X523369Y412300D01*
X523796Y414446D01*
X523369Y416592D01*
X524582Y418256D01*
X524993Y418531D01*
X526209Y420350D01*
X526636Y422496D01*
Y444496D01*
X526209Y446642D01*
X524993Y448461D01*
X523174Y449677D01*
X521028Y450104D01*
D02*
G37*
G36*
X603776Y454588D02*
X599991Y454089D01*
X596463Y452628D01*
X593434Y450304D01*
X591110Y447275D01*
X589649Y443748D01*
X589151Y439962D01*
X589649Y436177D01*
X591110Y432650D01*
X593434Y429621D01*
X596463Y427297D01*
X599991Y425836D01*
X603776Y425337D01*
X607561Y425836D01*
X611088Y427297D01*
X614118Y429621D01*
X616442Y432650D01*
X617903Y436177D01*
X618401Y439962D01*
X617903Y443748D01*
X616442Y447275D01*
X614118Y450304D01*
X611088Y452628D01*
X607561Y454089D01*
X603776Y454588D01*
D02*
G37*
G36*
X401323Y433966D02*
X386323D01*
Y419006D01*
X386283D01*
Y417879D01*
X384302Y417242D01*
X383049Y418080D01*
X381570Y418374D01*
X379090D01*
Y409760D01*
Y401146D01*
X381570D01*
X383049Y401440D01*
X384302Y402278D01*
X384712Y402890D01*
X385923Y403689D01*
X387098Y403926D01*
X392552D01*
Y411466D01*
X393823D01*
Y412736D01*
X401362D01*
Y418376D01*
X402028Y419599D01*
X402823Y420308D01*
X404510Y420643D01*
X406329Y421859D01*
X407545Y423678D01*
X407972Y425824D01*
X407545Y427970D01*
X406329Y429789D01*
X404510Y431005D01*
X402364Y431432D01*
X401323Y432286D01*
Y433966D01*
D02*
G37*
G36*
X461028Y450104D02*
X455028D01*
X452882Y449677D01*
X451063Y448461D01*
X449847Y446642D01*
X449420Y444496D01*
Y422496D01*
X449847Y420350D01*
X451063Y418531D01*
X451854Y418002D01*
X452909Y416986D01*
X453049Y415243D01*
X452890Y414446D01*
X453317Y412300D01*
X454533Y410481D01*
X456352Y409265D01*
X458498Y408838D01*
X460644Y409265D01*
X462463Y410481D01*
X463679Y412300D01*
X464106Y414446D01*
X463679Y416592D01*
X463189Y417325D01*
X464993Y418531D01*
X466209Y420350D01*
X466636Y422496D01*
Y444496D01*
X466209Y446642D01*
X464993Y448461D01*
X463174Y449677D01*
X461028Y450104D01*
D02*
G37*
G36*
X401362Y410196D02*
X395093D01*
Y403926D01*
X401362D01*
Y410196D01*
D02*
G37*
G36*
X501028Y450104D02*
X495028D01*
X492882Y449677D01*
X491063Y448461D01*
X489847Y446642D01*
X489420Y444496D01*
Y422496D01*
X489847Y420350D01*
X491063Y418531D01*
X492882Y417315D01*
X492992Y417049D01*
X492687Y416592D01*
X492260Y414446D01*
X492687Y412300D01*
X493903Y410481D01*
X495722Y409265D01*
X497868Y408838D01*
X500014Y409265D01*
X501833Y410481D01*
X503049Y412300D01*
X503476Y414446D01*
X503305Y415302D01*
X503209Y416774D01*
X504416Y418145D01*
X504993Y418531D01*
X506209Y420350D01*
X506636Y422496D01*
Y444496D01*
X506209Y446642D01*
X504993Y448461D01*
X503174Y449677D01*
X501028Y450104D01*
D02*
G37*
G36*
X481028D02*
X475028D01*
X472882Y449677D01*
X471063Y448461D01*
X469847Y446642D01*
X469420Y444496D01*
Y422496D01*
X469847Y420350D01*
X471063Y418531D01*
X472860Y417330D01*
X472367Y416592D01*
X471940Y414446D01*
X472367Y412300D01*
X473583Y410481D01*
X475402Y409265D01*
X477548Y408838D01*
X479694Y409265D01*
X481513Y410481D01*
X482729Y412300D01*
X483156Y414446D01*
X482998Y415241D01*
X483174Y417315D01*
X484993Y418531D01*
X486209Y420350D01*
X486636Y422496D01*
Y444496D01*
X486209Y446642D01*
X484993Y448461D01*
X483174Y449677D01*
X481028Y450104D01*
D02*
G37*
G36*
X625376Y489303D02*
X621700Y488941D01*
X618166Y487869D01*
X614909Y486128D01*
X612054Y483785D01*
X609711Y480930D01*
X607969Y477673D01*
X606897Y474138D01*
X606535Y470462D01*
X606897Y466787D01*
X607969Y463252D01*
X609711Y459995D01*
X612054Y457140D01*
X614909Y454797D01*
X618166Y453056D01*
X621700Y451984D01*
X625376Y451622D01*
X629052Y451984D01*
X632586Y453056D01*
X635843Y454797D01*
X638698Y457140D01*
X641041Y459995D01*
X642783Y463252D01*
X643855Y466787D01*
X644217Y470462D01*
X643855Y474138D01*
X642783Y477673D01*
X641041Y480930D01*
X638698Y483785D01*
X635843Y486128D01*
X632586Y487869D01*
X629052Y488941D01*
X625376Y489303D01*
D02*
G37*
G36*
X904280Y531090D02*
X900653Y530732D01*
X897166Y529674D01*
X893952Y527957D01*
X891135Y525645D01*
X888823Y522828D01*
X887105Y519614D01*
X886048Y516127D01*
X885691Y512500D01*
X886048Y508873D01*
X887105Y505386D01*
X888823Y502172D01*
X891135Y499355D01*
X893952Y497043D01*
X897166Y495326D01*
X900653Y494268D01*
X904280Y493910D01*
X907907Y494268D01*
X911394Y495326D01*
X914608Y497043D01*
X917425Y499355D01*
X919737Y502172D01*
X921454Y505386D01*
X922512Y508873D01*
X922869Y512500D01*
X922512Y516127D01*
X921454Y519614D01*
X919737Y522828D01*
X917425Y525645D01*
X914608Y527957D01*
X911394Y529674D01*
X907907Y530732D01*
X904280Y531090D01*
D02*
G37*
G36*
X24280D02*
X20653Y530732D01*
X17166Y529674D01*
X13952Y527957D01*
X11135Y525645D01*
X8823Y522828D01*
X7106Y519614D01*
X6048Y516127D01*
X5691Y512500D01*
X6048Y508873D01*
X7106Y505386D01*
X8823Y502172D01*
X11135Y499355D01*
X13952Y497043D01*
X17166Y495326D01*
X20653Y494268D01*
X24280Y493910D01*
X27907Y494268D01*
X31394Y495326D01*
X34608Y497043D01*
X37425Y499355D01*
X39737Y502172D01*
X41455Y505386D01*
X42512Y508873D01*
X42870Y512500D01*
X42512Y516127D01*
X41455Y519614D01*
X39737Y522828D01*
X37425Y525645D01*
X34608Y527957D01*
X31394Y529674D01*
X27907Y530732D01*
X24280Y531090D01*
D02*
G37*
G36*
X641676Y529549D02*
X639066Y529205D01*
X636633Y528197D01*
X634544Y526595D01*
X632941Y524506D01*
X631933Y522073D01*
X631590Y519462D01*
X631933Y516852D01*
X632941Y514419D01*
X634544Y512330D01*
X636633Y510728D01*
X639066Y509720D01*
X641676Y509376D01*
X644286Y509720D01*
X646719Y510728D01*
X648808Y512330D01*
X650411Y514419D01*
X651419Y516852D01*
X651762Y519462D01*
X651419Y522073D01*
X650411Y524506D01*
X648808Y526595D01*
X646719Y528197D01*
X644286Y529205D01*
X641676Y529549D01*
D02*
G37*
G36*
X439888Y536280D02*
X432388D01*
X429950Y535795D01*
X427882Y534414D01*
X426501Y532347D01*
X426016Y529908D01*
Y525452D01*
X424564Y524260D01*
X422418Y523833D01*
X420599Y522618D01*
X419383Y520798D01*
X418956Y518652D01*
X419383Y516507D01*
X420599Y514687D01*
X422418Y513472D01*
X424564Y513045D01*
X426016Y511853D01*
Y507408D01*
X426501Y504969D01*
X427882Y502902D01*
X429950Y501521D01*
X432388Y501035D01*
X439888D01*
X442327Y501521D01*
X444394Y502902D01*
X445776Y504969D01*
X446261Y507408D01*
Y511864D01*
X447713Y513056D01*
X449859Y513483D01*
X451678Y514698D01*
X452894Y516517D01*
X453321Y518663D01*
X452894Y520810D01*
X451678Y522629D01*
X449859Y523844D01*
X447713Y524271D01*
X446261Y525463D01*
Y529908D01*
X445776Y532347D01*
X444394Y534414D01*
X442327Y535795D01*
X439888Y536280D01*
D02*
G37*
G36*
Y488280D02*
X432388D01*
X429950Y487795D01*
X427882Y486414D01*
X426501Y484347D01*
X426016Y481908D01*
Y477452D01*
X424564Y476260D01*
X422418Y475833D01*
X420599Y474618D01*
X419383Y472799D01*
X418956Y470653D01*
X419383Y468507D01*
X420599Y466687D01*
X422418Y465472D01*
X424564Y465045D01*
X426016Y463853D01*
Y459408D01*
X426501Y456969D01*
X427882Y454902D01*
X429950Y453521D01*
X432388Y453036D01*
X439888D01*
X442327Y453521D01*
X444394Y454902D01*
X445776Y456969D01*
X446261Y459408D01*
Y463864D01*
X447713Y465056D01*
X449859Y465483D01*
X451678Y466698D01*
X452894Y468517D01*
X453321Y470663D01*
X452894Y472809D01*
X451678Y474629D01*
X449859Y475844D01*
X447713Y476271D01*
X446261Y477463D01*
Y481908D01*
X445776Y484347D01*
X444394Y486414D01*
X442327Y487795D01*
X439888Y488280D01*
D02*
G37*
G36*
X739676Y489303D02*
X736000Y488941D01*
X732466Y487869D01*
X729209Y486128D01*
X726354Y483785D01*
X724010Y480930D01*
X722269Y477673D01*
X721197Y474138D01*
X720835Y470462D01*
X721197Y466787D01*
X722269Y463252D01*
X724010Y459995D01*
X726354Y457140D01*
X729209Y454797D01*
X732466Y453056D01*
X736000Y451984D01*
X739676Y451622D01*
X743352Y451984D01*
X746886Y453056D01*
X750143Y454797D01*
X752998Y457140D01*
X755341Y459995D01*
X757083Y463252D01*
X758155Y466787D01*
X758517Y470462D01*
X758155Y474138D01*
X757083Y477673D01*
X755341Y480930D01*
X752998Y483785D01*
X750143Y486128D01*
X746886Y487869D01*
X743352Y488941D01*
X739676Y489303D01*
D02*
G37*
G36*
X47526Y497073D02*
X45568Y496815D01*
X43744Y496059D01*
X42177Y494857D01*
X40975Y493290D01*
X40219Y491466D01*
X39961Y489508D01*
X40219Y487550D01*
X40975Y485726D01*
X42177Y484159D01*
X43744Y482957D01*
X45568Y482201D01*
X47526Y481943D01*
X49484Y482201D01*
X51308Y482957D01*
X52875Y484159D01*
X54077Y485726D01*
X54833Y487550D01*
X55091Y489508D01*
X54833Y491466D01*
X54077Y493290D01*
X52875Y494857D01*
X51308Y496059D01*
X49484Y496815D01*
X47526Y497073D01*
D02*
G37*
G36*
X881288Y496819D02*
X879330Y496561D01*
X877506Y495805D01*
X875939Y494603D01*
X874737Y493036D01*
X873981Y491212D01*
X873723Y489254D01*
X873981Y487296D01*
X874737Y485472D01*
X875939Y483905D01*
X877506Y482703D01*
X879330Y481947D01*
X881288Y481689D01*
X883246Y481947D01*
X885070Y482703D01*
X886637Y483905D01*
X887839Y485472D01*
X888595Y487296D01*
X888853Y489254D01*
X888595Y491212D01*
X887839Y493036D01*
X886637Y494603D01*
X885070Y495805D01*
X883246Y496561D01*
X881288Y496819D01*
D02*
G37*
G36*
X650776Y416040D02*
X648427Y415731D01*
X646237Y414824D01*
X644357Y413381D01*
X642915Y411501D01*
X642008Y409312D01*
X641698Y406962D01*
X642008Y404613D01*
X642915Y402424D01*
X644357Y400544D01*
X646237Y399101D01*
X648427Y398194D01*
X650776Y397885D01*
X653126Y398194D01*
X655315Y399101D01*
X657195Y400544D01*
X658637Y402424D01*
X659544Y404613D01*
X659854Y406962D01*
X659544Y409312D01*
X658637Y411501D01*
X657195Y413381D01*
X655315Y414824D01*
X653126Y415731D01*
X650776Y416040D01*
D02*
G37*
G36*
X856848Y366317D02*
X848848D01*
X847092Y365968D01*
X845604Y364973D01*
X844609Y363485D01*
X844572Y363298D01*
X839189D01*
X837823Y363026D01*
X836666Y362252D01*
X832153Y357740D01*
X830678Y358351D01*
X828068Y358694D01*
X825458Y358351D01*
X823025Y357343D01*
X820936Y355740D01*
X819333Y353651D01*
X818325Y351218D01*
X817982Y348608D01*
X818325Y345998D01*
X819333Y343565D01*
X820936Y341476D01*
X823025Y339873D01*
X825458Y338865D01*
X828068Y338522D01*
X830678Y338865D01*
X833111Y339873D01*
X835200Y341476D01*
X836803Y343565D01*
X837811Y345998D01*
X838154Y348608D01*
X837811Y351218D01*
X837200Y352693D01*
X840667Y356160D01*
X844572D01*
X844609Y355973D01*
X845604Y354485D01*
X847092Y353490D01*
X848848Y353141D01*
X856848D01*
X858604Y353490D01*
X860092Y354485D01*
X861087Y355973D01*
X861436Y357729D01*
Y361729D01*
X861087Y363485D01*
X860092Y364973D01*
X858604Y365968D01*
X856848Y366317D01*
D02*
G37*
G36*
X867478Y383834D02*
X861208D01*
Y376294D01*
Y368754D01*
X867478D01*
Y368794D01*
X874537D01*
Y366056D01*
X874092Y365968D01*
X872604Y364973D01*
X871609Y363485D01*
X871260Y361729D01*
Y357729D01*
X871609Y355973D01*
X872604Y354485D01*
X874092Y353490D01*
X875848Y353141D01*
X883848D01*
X885604Y353490D01*
X887093Y354485D01*
X888087Y355973D01*
X888436Y357729D01*
Y361729D01*
X888087Y363485D01*
X887093Y364973D01*
X885604Y365968D01*
X883848Y366317D01*
X881675D01*
Y368794D01*
X882438D01*
Y383794D01*
X867478D01*
Y383834D01*
D02*
G37*
G36*
X838027Y372738D02*
X829338D01*
Y364049D01*
X830689Y364226D01*
X833131Y365238D01*
X835229Y366847D01*
X836838Y368945D01*
X837850Y371387D01*
X838027Y372738D01*
D02*
G37*
G36*
X826798D02*
X818109D01*
X818286Y371387D01*
X819298Y368945D01*
X820907Y366847D01*
X823005Y365238D01*
X825447Y364226D01*
X826798Y364049D01*
Y372738D01*
D02*
G37*
G36*
X856848Y350317D02*
X848848D01*
X847092Y349968D01*
X845604Y348973D01*
X844609Y347485D01*
X844260Y345729D01*
Y341729D01*
X844609Y339973D01*
X845604Y338485D01*
X847092Y337490D01*
X848848Y337141D01*
X856848D01*
X858604Y337490D01*
X860092Y338485D01*
X861087Y339973D01*
X861436Y341729D01*
Y345729D01*
X861087Y347485D01*
X860092Y348973D01*
X858604Y349968D01*
X856848Y350317D01*
D02*
G37*
G36*
X320951Y325430D02*
X308810D01*
X296669D01*
X296697Y325288D01*
X296285Y324597D01*
X293766Y324071D01*
X291620Y324498D01*
X289474Y324071D01*
X287655Y322855D01*
X286439Y321036D01*
X286012Y318890D01*
X286439Y316744D01*
X287655Y314925D01*
X289474Y313709D01*
X291620Y313282D01*
X293766Y313709D01*
X296017Y313253D01*
X296697Y312112D01*
X296669Y311970D01*
X308810D01*
X320951D01*
X320793Y312764D01*
X319624Y314514D01*
X320530Y316314D01*
X320755Y316652D01*
X321163Y318700D01*
X320755Y320748D01*
X320530Y321086D01*
X319624Y322886D01*
X320793Y324636D01*
X320951Y325430D01*
D02*
G37*
G36*
X904268Y358694D02*
X901657Y358351D01*
X899225Y357343D01*
X897136Y355740D01*
X895533Y353651D01*
X894525Y351218D01*
X894182Y348608D01*
X894525Y345998D01*
X895533Y343565D01*
X897136Y341476D01*
X899225Y339873D01*
X901657Y338865D01*
X904268Y338522D01*
X906879Y338865D01*
X909311Y339873D01*
X911400Y341476D01*
X913003Y343565D01*
X914011Y345998D01*
X914354Y348608D01*
X914011Y351218D01*
X913003Y353651D01*
X911400Y355740D01*
X909311Y357343D01*
X906879Y358351D01*
X904268Y358694D01*
D02*
G37*
G36*
X883848Y350317D02*
X875848D01*
X874092Y349968D01*
X872604Y348973D01*
X871609Y347485D01*
X871260Y345729D01*
Y341729D01*
X871609Y339973D01*
X872604Y338485D01*
X874092Y337490D01*
X875848Y337141D01*
X883848D01*
X885604Y337490D01*
X887093Y338485D01*
X888087Y339973D01*
X888436Y341729D01*
Y345729D01*
X888087Y347485D01*
X887093Y348973D01*
X885604Y349968D01*
X883848Y350317D01*
D02*
G37*
G36*
X902998Y372738D02*
X894309D01*
X894486Y371387D01*
X895498Y368945D01*
X897107Y366847D01*
X899205Y365238D01*
X901647Y364226D01*
X902998Y364049D01*
Y372738D01*
D02*
G37*
G36*
Y383967D02*
X901647Y383790D01*
X899205Y382778D01*
X897107Y381169D01*
X895498Y379071D01*
X894486Y376629D01*
X894309Y375278D01*
X902998D01*
Y383967D01*
D02*
G37*
G36*
X829338D02*
Y375278D01*
X838027D01*
X837850Y376629D01*
X836838Y379071D01*
X835229Y381169D01*
X833131Y382778D01*
X830689Y383790D01*
X829338Y383967D01*
D02*
G37*
G36*
X858668Y383834D02*
X852398D01*
Y377564D01*
X858668D01*
Y383834D01*
D02*
G37*
G36*
X905538Y383967D02*
Y375278D01*
X914227D01*
X914050Y376629D01*
X913038Y379071D01*
X911429Y381169D01*
X909331Y382778D01*
X906889Y383790D01*
X905538Y383967D01*
D02*
G37*
G36*
X858668Y375024D02*
X852398D01*
Y368754D01*
X858668D01*
Y375024D01*
D02*
G37*
G36*
X914227Y372738D02*
X905538D01*
Y364049D01*
X906889Y364226D01*
X909331Y365238D01*
X911429Y366847D01*
X913038Y368945D01*
X914050Y371387D01*
X914227Y372738D01*
D02*
G37*
G36*
X826798Y383967D02*
X825447Y383790D01*
X823005Y382778D01*
X820907Y381169D01*
X819298Y379071D01*
X818286Y376629D01*
X818109Y375278D01*
X826798D01*
Y383967D01*
D02*
G37*
G36*
X638076Y390640D02*
X635727Y390331D01*
X633537Y389424D01*
X631657Y387981D01*
X630215Y386101D01*
X629308Y383912D01*
X628998Y381562D01*
X629308Y379213D01*
X630215Y377024D01*
X631657Y375144D01*
X633537Y373701D01*
X635727Y372794D01*
X638076Y372485D01*
X640425Y372794D01*
X642615Y373701D01*
X644495Y375144D01*
X645937Y377024D01*
X646844Y379213D01*
X647154Y381562D01*
X646844Y383912D01*
X645937Y386101D01*
X644495Y387981D01*
X642615Y389424D01*
X640425Y390331D01*
X638076Y390640D01*
D02*
G37*
%LPD*%
D10*
X568226Y479418D02*
G03*
X542826Y504818I-25400J0D01*
G01*
X562384Y457066D02*
G03*
X558028Y446550I10516J-10516D01*
G01*
X562384Y457066D02*
G03*
X568226Y471170I-14104J14104D01*
G01*
X511309Y504818D02*
X542826D01*
X568226Y471170D02*
Y479418D01*
X511309Y504818D02*
Y504910D01*
X558028Y423496D02*
Y446550D01*
D11*
X359484Y502850D02*
G03*
X360818Y501516I1334J0D01*
G01*
X433843Y224400D02*
X437430Y220812D01*
X433840Y224398D02*
X433843Y224400D01*
X421922Y224398D02*
X433840D01*
X395000Y224400D02*
X408460D01*
X394998Y224402D02*
X395000Y224400D01*
X408460D02*
Y232530D01*
Y224400D02*
X421920D01*
X421922Y224398D01*
X333484Y492372D02*
Y506850D01*
X335562Y483990D02*
X341658D01*
X323624Y472052D02*
X335562Y483990D01*
X180622Y101056D02*
X201704D01*
X200434Y101092D02*
X208936D01*
X164381Y86092D02*
X181384D01*
X162095Y77590D02*
Y86092D01*
X181384Y77590D02*
Y86092D01*
X393823Y425824D02*
X402364D01*
X393823D02*
Y426466D01*
X326739Y502786D02*
X333276D01*
X360818Y501516D02*
X366042D01*
X424559Y470658D02*
X424564Y470653D01*
X425061D01*
X424559Y470658D02*
X436138D01*
X447719D01*
X447216Y470663D02*
X447713D01*
X447719Y470658D01*
X424559Y518658D02*
X424564Y518652D01*
X425061D01*
X424559Y518658D02*
X436138D01*
X447719D01*
X447216Y518663D02*
X447713D01*
X447719Y518658D01*
X371730Y462500D02*
X373408Y460822D01*
Y439348D02*
Y460822D01*
X367820Y433760D02*
X373408Y439348D01*
X437416Y174618D02*
X437430Y174632D01*
Y185781D01*
X438178Y253866D02*
Y267276D01*
X248460Y224800D02*
X262542D01*
X234378D02*
X248460D01*
X308810Y310700D02*
X324068D01*
X635670Y204336D02*
X644172D01*
X917984Y81372D02*
Y92830D01*
X627662Y184044D02*
X634012D01*
X621312D02*
X627662D01*
X646712Y112134D02*
Y124044D01*
X294670Y326700D02*
X308810D01*
X323370D01*
X378552Y318700D02*
X393810D01*
X378676Y302700D02*
X393810D01*
X729128Y149472D02*
X730772Y151116D01*
X707552Y149472D02*
X729128D01*
X620670Y204336D02*
X621312Y203694D01*
Y184044D02*
Y203694D01*
X250496Y463723D02*
X250904Y463315D01*
X250496Y463723D02*
Y486175D01*
X286904Y463315D02*
Y464767D01*
X265496Y486175D02*
X286904Y464767D01*
X291620Y334700D02*
X308810D01*
X291620Y318700D02*
X308810D01*
X578028Y231006D02*
Y267986D01*
X61242Y308476D02*
Y317486D01*
Y440168D02*
X67613Y433797D01*
X905284Y81372D02*
Y126866D01*
X488209Y206775D02*
Y213995D01*
X484152Y218052D02*
X488209Y213995D01*
X476278Y218052D02*
X484152D01*
X492266D02*
X500140D01*
X488209Y213995D02*
X492266Y218052D01*
X362086Y462500D02*
X371730D01*
X286904Y463315D02*
X289544Y465955D01*
X323624Y462500D02*
Y472052D01*
X285590Y462500D02*
X323624D01*
X337486D01*
X359438Y507358D02*
X359473Y494657D01*
X306484Y531850D02*
X322462D01*
X290506D02*
X306484D01*
X370506D02*
X386484D01*
X402462D01*
X240710Y463315D02*
X250904D01*
X538028Y423496D02*
Y451450D01*
X538000Y415650D02*
Y443604D01*
X578132Y415396D02*
Y443350D01*
X578160Y423242D02*
Y451196D01*
X492266Y147499D02*
X500140D01*
X488209Y151556D02*
Y158776D01*
X476278Y147499D02*
X484152D01*
X488209Y151556D01*
X492266Y147499D01*
X892584Y139566D02*
X905284Y126866D01*
X882678Y163188D02*
X886234D01*
X879884Y160394D02*
X882678Y163188D01*
X879884Y154706D02*
Y160394D01*
X886234Y163188D02*
X890298D01*
X892584Y160902D01*
Y154706D02*
Y160902D01*
Y139566D02*
Y154706D01*
D12*
X701364Y406962D02*
G03*
X683403Y399523I0J-25400D01*
G01*
X663476Y381562D02*
G03*
X667032Y385118I0J3556D01*
G01*
X743089Y425460D02*
G03*
X734850Y428872I-8238J-8238D01*
G01*
X732564Y400696D02*
G03*
X732084Y401854I-1638J0D01*
G01*
X724621Y428872D02*
G03*
X719102Y426586I0J-7805D01*
G01*
D02*
G03*
X716562Y420454I6132J-6132D01*
G01*
Y403192D02*
G03*
X718340Y398900I6071J0D01*
G01*
X725775Y395344D02*
G03*
X731294Y397630I0J7805D01*
G01*
X719741Y397499D02*
G03*
X724944Y395344I5203J5203D01*
G01*
X764370Y397529D02*
G03*
X759669Y408880I-16052J0D01*
G01*
X767870Y401216D02*
G03*
X764751Y408747I-10651J0D01*
G01*
X745563Y427934D02*
G03*
X734850Y432372I-10713J-10713D01*
G01*
X724621D02*
G03*
X716627Y429061I0J-11305D01*
G01*
X719864Y390010D02*
G03*
X718155Y394135I-5833J0D01*
G01*
X716627Y429061D02*
G03*
X713062Y420454I8607J-8607D01*
G01*
Y403192D02*
G03*
X715865Y396425I9570J0D01*
G01*
X731294Y397630D02*
G03*
X732564Y400696I-3066J3066D01*
G01*
X674652Y395344D02*
G03*
X672812Y396106I-1840J-1840D01*
G01*
X675724Y392756D02*
G03*
X674652Y395344I-3660J0D01*
G01*
X671858Y396106D02*
G03*
X667032Y391280I0J-4826D01*
G01*
X680240Y396360D02*
G03*
X679224Y393907I2453J-2453D01*
G01*
X707487Y282753D02*
G03*
X715292Y279520I7805J7805D01*
G01*
X679224Y312812D02*
G03*
X680494Y309746I4336J0D01*
G01*
X675724Y312812D02*
G03*
X678019Y307271I7836J0D01*
G01*
X705012Y280278D02*
G03*
X715292Y276020I10280J10280D01*
G01*
X717842Y385128D02*
G03*
X719864Y390010I-4882J4882D01*
G01*
X345976Y407790D02*
X347984Y409798D01*
X338864Y407790D02*
X345976D01*
X337486Y453000D02*
X347669D01*
X330870Y407790D02*
X338864D01*
X351564Y453000D02*
X362086D01*
X351484Y425834D02*
Y496600D01*
Y425834D02*
X353780Y423538D01*
X346484Y498100D02*
Y506850D01*
Y498100D02*
X347984Y496600D01*
Y409798D02*
Y496600D01*
X352984Y498100D02*
Y506850D01*
X351484Y496600D02*
X352984Y498100D01*
X309731Y430780D02*
X322560D01*
X301821Y422870D02*
X309731Y430780D01*
X322560D02*
X330780Y439000D01*
X292636Y422870D02*
X301821D01*
X701364Y406962D02*
X701576D01*
X663476Y381562D02*
X667032Y385118D01*
X743089Y425460D02*
X759669Y408880D01*
X726976Y406962D02*
X732084Y401854D01*
X724621Y428872D02*
X734850D01*
X716562Y403192D02*
Y420454D01*
X718340Y398900D02*
X719741Y397499D01*
X724944Y395344D02*
X725775D01*
X767870Y314770D02*
Y401216D01*
X724621Y432372D02*
X734850D01*
X715865Y396425D02*
X718155Y394135D01*
X713062Y403192D02*
Y420454D01*
X764370Y314770D02*
Y397529D01*
X763620Y314020D02*
X764370Y314770D01*
X763620Y306770D02*
Y314020D01*
X768620Y306770D02*
Y314020D01*
X767870Y314770D02*
X768620Y314020D01*
X671858Y396106D02*
X672812D01*
X667032Y385118D02*
Y391280D01*
X675724Y312812D02*
Y392756D01*
X680240Y396360D02*
X683403Y399523D01*
X679224Y312812D02*
Y393907D01*
X715292Y279520D02*
X787120D01*
X680494Y309746D02*
X707487Y282753D01*
X678019Y307271D02*
X705012Y280278D01*
X715292Y276020D02*
X787120D01*
X787870Y280270D02*
X795120D01*
X787120Y279520D02*
X787870Y280270D01*
X787870Y275270D02*
X795120D01*
X787120Y276020D02*
X787870Y275270D01*
X292636Y412870D02*
X297636D01*
X298386Y413620D01*
X292636Y417870D02*
X297636D01*
X298386Y417120D01*
X309960D01*
X315870Y423030D01*
X298386Y413620D02*
X310040D01*
X315870Y407790D01*
X753620Y298522D02*
Y306770D01*
X751980Y296882D02*
X753620Y298522D01*
X751980Y292118D02*
Y296882D01*
Y292118D02*
X755348Y288750D01*
X774560D01*
X793652Y307843D01*
X892584Y81372D02*
Y83940D01*
X745563Y427934D02*
X764751Y408747D01*
X714276Y381562D02*
X717842Y385128D01*
X793652Y307843D02*
X812123D01*
D13*
X815383Y245270D02*
G03*
X824258Y248946I0J12551D01*
G01*
X827778Y252466D02*
G03*
X834398Y268450I-15984J15984D01*
G01*
Y217090D02*
G03*
X827778Y233074I-22605J0D01*
G01*
X824258Y236594D02*
G03*
X815383Y240270I-8875J-8875D01*
G01*
X832948Y269668D02*
G03*
X834398Y273170I-3502J3502D01*
G01*
X621312Y141598D02*
Y167760D01*
Y124044D02*
Y141598D01*
X621178Y141464D02*
X621312Y141598D01*
X601500Y141464D02*
X621178D01*
X828068Y348608D02*
X839189Y359729D01*
X852848D01*
X878106Y361471D02*
X879848Y359729D01*
X878106Y361471D02*
Y373126D01*
X874938Y376294D02*
X878106Y373126D01*
X425732Y262502D02*
Y281044D01*
X439461Y294773D01*
Y319906D01*
X294670Y342700D02*
X308810Y342700D01*
X349024Y398138D02*
X370360D01*
X342166Y391280D02*
X349024Y398138D01*
X342166Y379850D02*
Y391280D01*
X347310Y365200D02*
Y374706D01*
X342166Y379850D02*
X347310Y374706D01*
X383088Y391026D02*
X508084D01*
X371310Y379248D02*
X383088Y391026D01*
X371310Y365200D02*
Y379248D01*
X379370Y379088D02*
X379758D01*
X379310Y379148D02*
X379370Y379088D01*
X363310Y386770D02*
X365280Y388740D01*
X363310Y365200D02*
Y386770D01*
X350040Y388740D02*
X355310Y383470D01*
Y365200D02*
Y383470D01*
X370360Y398138D02*
X373408Y395090D01*
X329038Y383072D02*
X339310Y372800D01*
X298439Y383072D02*
X329038D01*
X326164Y378072D02*
X331310Y372926D01*
X300510Y378072D02*
X326164D01*
X373408Y395090D02*
X512600D01*
X358266Y409314D02*
X367312D01*
X357820Y409760D02*
X358266Y409314D01*
X56670Y369182D02*
Y422268D01*
X38128Y440810D02*
X56670Y422268D01*
X50574Y366793D02*
Y412108D01*
X38128Y424554D02*
X50574Y412108D01*
Y366793D02*
X53304Y364063D01*
X95024Y144392D02*
X109248Y130168D01*
X95024Y144392D02*
Y294252D01*
X88420Y143884D02*
X106708Y125596D01*
X88420Y143884D02*
Y264788D01*
X26952Y313887D02*
X79530Y261309D01*
Y151384D02*
Y261309D01*
X68354Y130557D02*
X79530Y119381D01*
X48415Y284473D02*
X68354Y264534D01*
Y130557D02*
Y264534D01*
X92109Y116960D02*
X209832D01*
X79530Y104381D02*
X92109Y116960D01*
X79530Y136384D02*
X94636Y121278D01*
X209832Y116960D02*
X242585Y84207D01*
X294414Y436492D02*
X311940D01*
X312956Y435476D01*
X315780Y438300D01*
X197132Y238094D02*
X210455Y224771D01*
X197132Y238094D02*
Y280300D01*
X210455Y224771D02*
X210974D01*
X379310Y365200D02*
Y379148D01*
X436400Y255644D02*
X438178Y253866D01*
X352834Y255644D02*
X436400Y255644D01*
X419025Y298673D02*
Y352842D01*
X427025Y295360D02*
Y349528D01*
X423025Y297016D02*
Y351185D01*
X398046Y260724D02*
X431025Y293703D01*
X398739Y267074D02*
X427025Y295360D01*
X406208Y280200D02*
X423025Y297016D01*
X518188Y372516D02*
X567972Y322732D01*
Y211194D02*
Y322732D01*
Y211194D02*
X614962Y164204D01*
X723928Y506088D02*
X735402D01*
X458028Y259496D02*
Y357714D01*
X308638Y250310D02*
X323310Y264982D01*
X79022Y310254D02*
X95024Y294252D01*
X242585Y84207D02*
X248460D01*
X248460Y164600D02*
X262410D01*
X368836Y260724D02*
X398046D01*
X363500Y266060D02*
X368836Y260724D01*
X347310Y261168D02*
X352834Y255644D01*
X374170Y267074D02*
X398739D01*
X371310Y269934D02*
X374170Y267074D01*
X371310Y269934D02*
Y280200D01*
X248460Y204400D02*
X262410D01*
X248460Y184800D02*
X262410D01*
X394510Y124200D02*
X408460D01*
X394510Y84500D02*
X408460D01*
X339310Y260024D02*
Y280200D01*
X301192Y407870D02*
X302542Y406520D01*
X292636Y407870D02*
X301192D01*
X737620Y202939D02*
X738620Y201939D01*
Y188770D02*
Y201939D01*
X738120Y189270D02*
X738620Y188770D01*
X677160Y245230D02*
X689130D01*
X677120Y245270D02*
X677160Y245230D01*
X785142Y218560D02*
X786852Y220270D01*
X795158Y240308D02*
X815383D01*
X795120Y240270D02*
X795158Y240308D01*
X824258Y248946D02*
X827778Y252466D01*
X795120Y245270D02*
X815383D01*
X831730Y217090D02*
X834398D01*
X824258Y236594D02*
X827778Y233074D01*
X833862Y287648D02*
X895124D01*
X801984Y255770D02*
X833862Y287648D01*
X795620Y255770D02*
X801984D01*
X795120Y255270D02*
X795620Y255770D01*
X713620Y188770D02*
Y196610D01*
X709958Y200272D02*
X713620Y196610D01*
X706656Y200272D02*
X709958D01*
X733620Y188770D02*
Y198454D01*
X717802Y214272D02*
X733620Y198454D01*
X700844Y214272D02*
X717802D01*
X728620Y188770D02*
Y197612D01*
X715960Y210272D02*
X728620Y197612D01*
X702501Y210272D02*
X715960D01*
X723620Y188770D02*
Y196955D01*
X714303Y206272D02*
X723620Y196955D01*
X704171Y206272D02*
X714303D01*
X685066Y204590D02*
X698748Y218272D01*
X686590Y200018D02*
X700844Y214272D01*
X687929Y195700D02*
X702501Y210272D01*
X692552Y194653D02*
X704171Y206272D01*
X692552Y149472D02*
Y194653D01*
X667725Y195700D02*
X687929D01*
X669064Y200018D02*
X686590D01*
X723120Y189270D02*
X723620Y188770D01*
X768620Y178774D02*
Y188770D01*
X767004Y177158D02*
X768620Y178774D01*
X773620D02*
X775236Y177158D01*
X773620Y178774D02*
Y188770D01*
X784470Y250270D02*
X795120D01*
X608866Y25266D02*
X614708Y31108D01*
X613946Y66668D02*
X634012Y86734D01*
X347310Y280200D02*
X347310Y261168D01*
X323310Y356796D02*
Y365200D01*
X363310Y266060D02*
X363310Y280200D01*
X457990Y357752D02*
X458028Y357714D01*
X339310Y365200D02*
Y372800D01*
X331310Y365200D02*
Y372926D01*
X393810Y342700D02*
X411000D01*
X646712Y164204D02*
Y184044D01*
Y138296D02*
Y164204D01*
X593372Y195700D02*
X621312Y167760D01*
X323310Y264982D02*
Y280200D01*
X331310Y259774D02*
Y280200D01*
X328958Y257422D02*
X331310Y259774D01*
X379310Y280200D02*
X406208D01*
X355310Y263010D02*
Y280200D01*
X363310Y272854D02*
Y280200D01*
X414861Y294510D02*
X419025Y298673D01*
X393810Y294700D02*
X411000D01*
X411000Y294510D02*
X414861D01*
X654480Y195044D02*
X659412Y190112D01*
X640616Y191890D02*
X643770Y195044D01*
X654480D01*
X640616Y81654D02*
Y191890D01*
X653316Y82924D02*
Y131692D01*
X646712Y138296D02*
X653316Y131692D01*
X626900Y67938D02*
X640616Y81654D01*
X626900Y62350D02*
Y67938D01*
X639600Y69208D02*
X653316Y82924D01*
X634012Y86734D02*
Y124044D01*
X659412Y184044D02*
Y190112D01*
X12728Y322954D02*
X12728Y348354D01*
X12728Y373754D02*
X12728Y348354D01*
X12728Y399154D02*
X12728Y424554D01*
X12728Y449954D02*
X12728Y424554D01*
X278332Y429968D02*
Y436238D01*
Y429968D02*
X282222Y426078D01*
X271982Y407870D02*
X292636D01*
X393810Y326700D02*
X411000D01*
X458498Y414446D02*
Y432936D01*
X477548Y414446D02*
Y432936D01*
X497868Y414446D02*
Y432936D01*
X518188Y414446D02*
Y432936D01*
X748620Y306770D02*
Y317420D01*
X733620Y306770D02*
Y317420D01*
X738620Y296860D02*
Y306770D01*
X743620Y297140D02*
Y306770D01*
X740980Y294500D02*
X743620Y297140D01*
X738620Y296860D02*
X740980Y294500D01*
X774310Y307460D02*
X779798D01*
X773620Y306770D02*
X774310Y307460D01*
X755980Y294500D02*
X758620Y297140D01*
Y306770D01*
X666470Y255270D02*
X677120D01*
X666470Y240270D02*
X677120D01*
X795120Y270270D02*
X805770D01*
X795120Y285270D02*
X805770D01*
X708620Y188770D02*
X709120Y188270D01*
X743620Y179310D02*
Y188770D01*
Y179310D02*
X745010Y177920D01*
X703620Y178120D02*
Y188770D01*
X708620Y181605D02*
Y188770D01*
Y181605D02*
X715023Y175203D01*
Y174110D02*
Y175203D01*
X795120Y245270D02*
X798029D01*
X831370Y268090D02*
X834398D01*
X786852Y220270D02*
X795120D01*
X38128Y440810D02*
Y449954D01*
X268545Y372818D02*
X273260Y377533D01*
X323310Y356796D02*
X328450Y351656D01*
X743620Y188770D02*
X743620Y188770D01*
X730772Y218272D02*
X743620Y205424D01*
Y188770D02*
Y205424D01*
X698748Y218272D02*
X730772D01*
X339310Y260024D02*
X349024Y250310D01*
Y198494D02*
Y250310D01*
X328958Y204082D02*
Y257422D01*
X308638Y209924D02*
Y250310D01*
X785142Y208884D02*
X788256Y205770D01*
X785142Y208884D02*
Y218560D01*
X795120Y215270D02*
X802725D01*
X795120Y210270D02*
X802068D01*
X802725Y215270D02*
X827311Y190684D01*
X802068Y210270D02*
X825654Y186684D01*
X788256Y205770D02*
X800911D01*
X823997Y182684D01*
X677120Y255270D02*
X733099D01*
X786769Y201600D01*
X799424D01*
X822340Y178684D01*
X853720D01*
X186210Y291222D02*
X197132Y280300D01*
X764060Y120357D02*
Y137534D01*
X780570Y129796D02*
Y137534D01*
X626900Y36950D02*
Y40252D01*
X639600Y52952D01*
Y69208D01*
X614708Y31108D02*
Y43808D01*
X626900Y56000D01*
Y62350D01*
X665762Y50412D02*
Y191382D01*
X292636Y359276D02*
X301212Y350700D01*
X308810D01*
X185956Y323970D02*
Y354196D01*
X191036Y359276D01*
X292636D01*
X61242Y332486D02*
X61694D01*
X49304Y303904D02*
X88420Y264788D01*
X38128Y373582D02*
Y373754D01*
X49304Y303904D02*
Y362406D01*
X38128Y373582D02*
X49304Y362406D01*
X63020Y298316D02*
X63274Y298570D01*
X53304Y308032D02*
Y364063D01*
Y308032D02*
X55242Y306094D01*
Y305991D02*
Y306094D01*
Y305991D02*
X58757Y302476D01*
X58860D01*
X63020Y298316D01*
X48415Y283711D02*
Y284473D01*
X26952Y313887D02*
Y337178D01*
X38128Y348354D01*
X67015Y464686D02*
X77816Y453885D01*
X63461Y457387D02*
X73816Y447032D01*
X61694Y332486D02*
X93310Y364102D01*
X286540D01*
X300510Y378072D01*
X284041Y368674D02*
X298439Y383072D01*
X265712Y377056D02*
X268260Y379604D01*
X595150Y25266D02*
X608866D01*
X328450Y351656D02*
X364010D01*
X378996Y336670D01*
X287286Y457347D02*
X290714Y460775D01*
X827123Y307843D02*
X835816D01*
X651792Y446906D02*
Y483946D01*
X616276Y519462D02*
X651792Y483946D01*
X735402Y506088D02*
X748776Y519462D01*
X349024Y198494D02*
X374170Y173348D01*
X425986D01*
X441226Y158108D01*
X308638Y209924D02*
X384584Y133978D01*
X441226D01*
X328958Y204082D02*
X379504Y153536D01*
X433733D01*
X441226Y146043D01*
X611152Y257930D02*
X669064Y200018D01*
X611152Y257930D02*
Y393312D01*
X723928Y506088D01*
X599214Y257930D02*
X665762Y191382D01*
X605056Y258369D02*
X667725Y195700D01*
X605056Y258369D02*
Y400170D01*
X651792Y446906D01*
X472024Y378516D02*
X528094Y322446D01*
X512600Y395090D02*
X599214Y308476D01*
Y257930D02*
Y308476D01*
X431025Y293703D02*
Y344249D01*
X458895Y372119D01*
X427025Y349528D02*
X456013Y378516D01*
X472024D01*
X423025Y351185D02*
X454499Y382659D01*
X419025Y352842D02*
X453145Y386962D01*
X503742D01*
X518188Y372516D01*
X487962Y382644D02*
X548160Y322446D01*
X487708Y382644D02*
X487962D01*
X487692Y382659D02*
X487708Y382644D01*
X454499Y382659D02*
X487692D01*
X593372Y195700D02*
Y305817D01*
X508148Y390962D02*
X508227D01*
X593372Y305817D01*
X508084Y391026D02*
X508148Y390962D01*
X853720Y178684D02*
X857024Y175380D01*
X823997Y182684D02*
X858356D01*
X825654Y186684D02*
X860198D01*
X828968Y194684D02*
X863628D01*
X883536Y174776D01*
X827311Y190684D02*
X861971D01*
X882609Y170046D01*
X795120Y225270D02*
X801484D01*
X804700Y218952D02*
X828968Y194684D01*
X801484Y225270D02*
X804620Y222134D01*
X804700Y218952D02*
Y219268D01*
X804620Y219348D02*
Y222134D01*
Y219348D02*
X804700Y219268D01*
X641954Y275270D02*
X677120D01*
X641886Y275202D02*
X641954Y275270D01*
X653210Y270270D02*
X677120D01*
X642394Y259454D02*
X653210Y270270D01*
X642394Y291086D02*
X653210Y280270D01*
X677120D01*
X670334Y204590D02*
X685066D01*
X658396Y216528D02*
X670334Y204590D01*
X658396Y216528D02*
Y255390D01*
X268260Y379604D02*
Y387850D01*
X273260Y377533D02*
Y387850D01*
X25174Y456812D02*
X33048Y464686D01*
X67015D01*
X25174Y412108D02*
Y456812D01*
Y412108D02*
X38128Y399154D01*
X97056Y377056D02*
X265712D01*
X87150Y386962D02*
X97056Y377056D01*
X86896Y386962D02*
X87150D01*
X73816Y385900D02*
X91042Y368674D01*
X77816Y387557D02*
X92555Y372818D01*
X77816Y387557D02*
Y453885D01*
X92555Y372818D02*
X268545D01*
X73816Y385900D02*
Y447032D01*
X91042Y368674D02*
X284041D01*
X652300Y36950D02*
X665762Y50412D01*
X393360Y334887D02*
X407500Y334887D01*
X332100Y391280D02*
X342166D01*
X330880Y392500D02*
X332100Y391280D01*
X283260Y387850D02*
X296064D01*
X300714Y392500D01*
X315880D01*
X528094Y189858D02*
Y322446D01*
X437162Y334892D02*
X448338Y323716D01*
Y232276D02*
Y323716D01*
Y232276D02*
X453164Y227450D01*
X506250D01*
X519966Y213734D01*
X601500Y36950D02*
X613946Y49396D01*
Y66668D01*
X548160Y180206D02*
Y322446D01*
Y180206D02*
X619026Y109340D01*
X634012D01*
X588038Y32378D02*
X595150Y25266D01*
X588038Y32378D02*
Y129914D01*
X528094Y189858D02*
X588038Y129914D01*
X663381Y19678D02*
X764060Y120357D01*
X666134Y15360D02*
X780570Y129796D01*
X519966Y120838D02*
Y213734D01*
X94636Y121278D02*
X214912D01*
X232190Y104000D01*
X248460D01*
X106708Y125596D02*
X221770D01*
X233708Y113658D01*
X260378D01*
X109248Y130168D02*
X222024D01*
X225326Y133470D01*
X259108D01*
X260378Y113658D02*
X298701Y75335D01*
X259108Y133470D02*
X298224Y94354D01*
X312590Y114420D02*
X451894D01*
X262410Y164600D02*
X312590Y114420D01*
X298224Y94354D02*
X418366D01*
X479580Y19678D02*
X663381D01*
X477981Y15360D02*
X666134D01*
X418006Y75335D02*
X477981Y15360D01*
X298701Y75335D02*
X418006D01*
X423954Y75304D02*
X479580Y19678D01*
X452214Y65838D02*
Y120838D01*
X423954Y75304D02*
Y88766D01*
X418366Y94354D02*
X423954Y88766D01*
X492214Y129340D02*
X500140Y137266D01*
Y147499D01*
X520286Y65838D02*
Y120518D01*
X519966Y120838D02*
X520286Y120518D01*
X560286Y59744D02*
Y123000D01*
X549684Y49142D02*
X560286Y59744D01*
X492214Y61654D02*
Y129340D01*
Y61654D02*
X504726Y49142D01*
X549684D01*
X860198Y186684D02*
X868200Y178682D01*
X858356Y182684D02*
X864200Y176840D01*
X882609Y170046D02*
X896394D01*
X905792Y160648D01*
Y152520D02*
Y160648D01*
X883536Y174776D02*
X902840D01*
X917984Y159632D01*
Y154706D02*
Y159632D01*
X872264Y70732D02*
X875790Y67206D01*
X864200Y148138D02*
Y176840D01*
Y148138D02*
X872264Y140074D01*
Y70732D02*
Y140074D01*
X868200Y149795D02*
Y178682D01*
Y149795D02*
X879884Y138111D01*
Y78706D02*
Y138111D01*
X875790Y67206D02*
X885502D01*
X892584Y74288D01*
Y81372D01*
X393360Y350886D02*
X407500Y350886D01*
X393360Y310886D02*
X407500Y310886D01*
D14*
X267490Y332860D02*
G03*
X272878Y319852I18396J0D01*
G01*
X282730Y310000D02*
G03*
X300354Y302700I17624J17624D01*
G01*
X290851Y294700D02*
G03*
X272890Y287260I0J-25400D01*
G01*
X267490Y328878D02*
Y332860D01*
X272878Y319852D02*
X282730Y310000D01*
X300354Y302700D02*
X308810D01*
X267490Y281860D02*
X272890Y287260D01*
X290851Y294700D02*
X308810D01*
X760772Y151116D02*
X772001Y139887D01*
X889536Y205860D02*
X895124Y211448D01*
X829846Y205860D02*
X889536D01*
X659412Y124044D02*
Y135502D01*
X812920Y222786D02*
X829846Y205860D01*
X811558Y231768D02*
Y234054D01*
Y231768D02*
X812920Y230406D01*
Y222786D02*
Y230406D01*
D15*
X601500Y141464D02*
D03*
Y156464D02*
D03*
X200434Y101092D02*
D03*
Y86092D02*
D03*
X162095Y101092D02*
D03*
Y86092D02*
D03*
X181384Y101092D02*
D03*
Y86092D02*
D03*
X61780Y317486D02*
D03*
Y332486D02*
D03*
Y440168D02*
D03*
Y455168D02*
D03*
X393823Y426466D02*
D03*
X393823Y411466D02*
D03*
X79530Y104381D02*
D03*
X79530Y119381D02*
D03*
X79530Y136384D02*
D03*
Y151384D02*
D03*
D16*
X859938Y376294D02*
D03*
X874938D02*
D03*
X265496Y486175D02*
D03*
X250496D02*
D03*
X315870Y423030D02*
D03*
X330870D02*
D03*
X315870Y407790D02*
D03*
X330870D02*
D03*
X827123Y307843D02*
D03*
X812123D02*
D03*
X620670Y204336D02*
D03*
X635670D02*
D03*
X315780Y439000D02*
D03*
X330780D02*
D03*
X707552Y149472D02*
D03*
X692552D02*
D03*
X330880Y392500D02*
D03*
X315880D02*
D03*
D17*
X852848Y343729D02*
D03*
Y359729D02*
D03*
X879848D02*
D03*
Y343729D02*
D03*
D18*
X386484Y531850D02*
D03*
X306484D02*
D03*
D19*
X346484Y506850D02*
D03*
X352984D02*
D03*
X339984D02*
D03*
D20*
X333484D02*
D03*
X359484D02*
D03*
D21*
X520286Y123000D02*
D03*
Y68000D02*
D03*
X560286D02*
D03*
Y123000D02*
D03*
X452214D02*
D03*
Y68000D02*
D03*
X492214D02*
D03*
Y123000D02*
D03*
D22*
X659412Y184044D02*
D03*
X646712Y184044D02*
D03*
X634012Y184044D02*
D03*
X621312D02*
D03*
X659412Y124044D02*
D03*
X646712Y124044D02*
D03*
X634012D02*
D03*
X621312Y124044D02*
D03*
D23*
X578028Y433496D02*
D03*
X558028D02*
D03*
X538028D02*
D03*
X518028D02*
D03*
X498028D02*
D03*
X478028D02*
D03*
X458028D02*
D03*
X438028D02*
D03*
X578028Y249496D02*
D03*
X558028D02*
D03*
X538028D02*
D03*
X518028D02*
D03*
X498028D02*
D03*
X478028D02*
D03*
X458028D02*
D03*
X438028D02*
D03*
D24*
X357820Y409760D02*
D03*
X367820Y433760D02*
D03*
X377820Y409760D02*
D03*
D25*
X250904Y463315D02*
D03*
X286904D02*
D03*
D26*
X268506Y411346D02*
D03*
D27*
X283260Y387850D02*
D03*
X278260D02*
D03*
X273260Y387850D02*
D03*
X268260D02*
D03*
X263260Y387850D02*
D03*
X258260D02*
D03*
X253260D02*
D03*
X253332Y436238D02*
D03*
X258332Y436238D02*
D03*
X263332D02*
D03*
X268332D02*
D03*
X273332D02*
D03*
X278332D02*
D03*
X283332D02*
D03*
D28*
X244636Y397870D02*
D03*
Y402870D02*
D03*
Y407870D02*
D03*
X244636Y412870D02*
D03*
X244636Y417870D02*
D03*
Y422870D02*
D03*
Y427870D02*
D03*
X292636Y427870D02*
D03*
Y422870D02*
D03*
Y407870D02*
D03*
Y402870D02*
D03*
Y397870D02*
D03*
Y417870D02*
D03*
Y412870D02*
D03*
D29*
X437430Y185781D02*
D03*
Y221781D02*
D03*
D30*
X337486Y472000D02*
D03*
Y462500D02*
D03*
Y453000D02*
D03*
X362086Y472000D02*
D03*
Y462500D02*
D03*
Y453000D02*
D03*
D31*
X677120Y285270D02*
D03*
X677120Y280270D02*
D03*
Y275270D02*
D03*
Y270270D02*
D03*
X677120Y265270D02*
D03*
Y260270D02*
D03*
Y255270D02*
D03*
Y250270D02*
D03*
Y245270D02*
D03*
Y240270D02*
D03*
Y235270D02*
D03*
Y230270D02*
D03*
Y225270D02*
D03*
X677120Y220270D02*
D03*
Y215270D02*
D03*
Y210270D02*
D03*
X795120D02*
D03*
Y215270D02*
D03*
X795120Y220270D02*
D03*
Y225270D02*
D03*
Y230270D02*
D03*
X795120Y235270D02*
D03*
X795120Y240270D02*
D03*
Y245270D02*
D03*
X795120Y250270D02*
D03*
Y255270D02*
D03*
Y260270D02*
D03*
Y265270D02*
D03*
Y270270D02*
D03*
Y285270D02*
D03*
Y280270D02*
D03*
X795120Y275270D02*
D03*
D32*
X698620Y188770D02*
D03*
X703620D02*
D03*
X708620D02*
D03*
X713620D02*
D03*
X718620D02*
D03*
X723620D02*
D03*
X728620D02*
D03*
X733620D02*
D03*
X738620D02*
D03*
X743620D02*
D03*
X748620D02*
D03*
X753620D02*
D03*
X758620D02*
D03*
X763620D02*
D03*
X768620Y188770D02*
D03*
X773620D02*
D03*
Y306770D02*
D03*
X768620D02*
D03*
X763620Y306770D02*
D03*
X758620D02*
D03*
X753620D02*
D03*
X748620D02*
D03*
X743620D02*
D03*
X738620D02*
D03*
X733620Y306770D02*
D03*
X728620D02*
D03*
X723620Y306770D02*
D03*
X718620D02*
D03*
X713620D02*
D03*
X708620Y306770D02*
D03*
X703620D02*
D03*
X698620D02*
D03*
D33*
X762296Y150488D02*
D03*
D34*
X732296D02*
D03*
D35*
X47272Y55746D02*
D03*
X881288Y489254D02*
D03*
X859056Y61080D02*
D03*
X47526Y489508D02*
D03*
D36*
X308810Y350700D02*
D03*
Y342700D02*
D03*
Y334700D02*
D03*
Y326700D02*
D03*
Y318700D02*
D03*
Y310700D02*
D03*
Y302700D02*
D03*
Y294700D02*
D03*
X393810D02*
D03*
Y302700D02*
D03*
Y310700D02*
D03*
Y318700D02*
D03*
Y326700D02*
D03*
Y334700D02*
D03*
Y342700D02*
D03*
Y350700D02*
D03*
D37*
X323310Y280200D02*
D03*
X331310D02*
D03*
X339310D02*
D03*
X347310D02*
D03*
X355310D02*
D03*
X363310D02*
D03*
X371310D02*
D03*
X379310D02*
D03*
Y365200D02*
D03*
X371310D02*
D03*
X363310D02*
D03*
X355310D02*
D03*
X347310D02*
D03*
X339310D02*
D03*
X331310D02*
D03*
X323310D02*
D03*
D38*
X436138Y470658D02*
D03*
Y518658D02*
D03*
X488209Y206775D02*
D03*
Y158776D02*
D03*
D39*
X879884Y78706D02*
D03*
X892584D02*
D03*
X905284D02*
D03*
X917984D02*
D03*
X879884Y154706D02*
D03*
X892584D02*
D03*
X905284D02*
D03*
X917984D02*
D03*
D40*
X378800Y241980D02*
D03*
X358800D02*
D03*
X339100D02*
D03*
X318700D02*
D03*
X298600D02*
D03*
X278700D02*
D03*
D41*
X408460Y204300D02*
D03*
Y184400D02*
D03*
Y164300D02*
D03*
Y143900D02*
D03*
Y124200D02*
D03*
Y104200D02*
D03*
Y84500D02*
D03*
X248460Y84200D02*
D03*
Y104000D02*
D03*
Y124200D02*
D03*
Y144000D02*
D03*
Y164600D02*
D03*
Y184800D02*
D03*
Y204400D02*
D03*
Y224800D02*
D03*
X408460Y224400D02*
D03*
D42*
X411000Y334700D02*
D03*
Y350700D02*
D03*
Y310700D02*
D03*
D43*
X283332Y436238D02*
X291700Y427870D01*
X292636D01*
X283332Y459743D02*
X286904Y463315D01*
X795120Y235270D02*
X811558D01*
X283332Y436238D02*
Y459743D01*
D44*
X895124Y262248D02*
X910618Y246754D01*
Y204590D02*
Y246754D01*
X904776Y198748D02*
X910618Y204590D01*
X830419Y198748D02*
X904776D01*
X795120Y230270D02*
X801999D01*
X808764Y220403D02*
X830419Y198748D01*
X801999Y230270D02*
X808520Y223749D01*
X808764Y220403D02*
Y220720D01*
X808520Y220963D02*
Y223749D01*
Y220963D02*
X808764Y220720D01*
D45*
X733700Y166610D02*
X745010Y177920D01*
X706635Y171891D02*
X711916Y166610D01*
X733700D01*
X706635Y171891D02*
Y175105D01*
X703620Y178120D02*
Y178120D01*
Y178120D02*
X706635Y175105D01*
D46*
X327484Y513454D02*
D03*
X365484D02*
D03*
D47*
X367058Y387724D02*
D03*
X351818D02*
D03*
X641886Y274948D02*
D03*
Y259454D02*
D03*
Y291086D02*
D03*
D48*
X12728Y449954D02*
D03*
X38128Y449954D02*
D03*
X12728Y373754D02*
D03*
X38128D02*
D03*
X12728Y348354D02*
D03*
X38128Y348354D02*
D03*
X12728Y322954D02*
D03*
X38128Y399154D02*
D03*
X12728D02*
D03*
X12728Y424554D02*
D03*
X38128Y424554D02*
D03*
X153410Y180200D02*
D03*
Y154800D02*
D03*
X128010Y180200D02*
D03*
X178810Y154800D02*
D03*
Y180200D02*
D03*
X204210Y154800D02*
D03*
Y180200D02*
D03*
X652300Y62350D02*
D03*
X626900D02*
D03*
X601500D02*
D03*
X626900Y36950D02*
D03*
X652300D02*
D03*
D49*
X38128Y322954D02*
D03*
D50*
X267490Y332860D02*
D03*
Y281860D02*
D03*
X834398Y268090D02*
D03*
Y217090D02*
D03*
D51*
X904280Y32500D02*
D03*
Y512500D02*
D03*
X24280D02*
D03*
Y32500D02*
D03*
D52*
X895124Y287648D02*
D03*
X895124Y262248D02*
D03*
Y186048D02*
D03*
X895124Y211448D02*
D03*
X895124Y236848D02*
D03*
D53*
X616276Y519462D02*
D03*
X748776D02*
D03*
X723376D02*
D03*
X641676D02*
D03*
X904268Y374008D02*
D03*
X828068Y348608D02*
D03*
Y374008D02*
D03*
X904268Y348608D02*
D03*
D54*
X726976Y406962D02*
D03*
X701576D02*
D03*
X714276Y381562D02*
D03*
X638076D02*
D03*
X663476D02*
D03*
X650776Y406962D02*
D03*
X676176D02*
D03*
X688876Y381562D02*
D03*
D55*
X739676Y470462D02*
D03*
X625376D02*
D03*
D56*
X761276Y439962D02*
D03*
X603776D02*
D03*
D57*
X485909Y479510D02*
D03*
X536709D02*
D03*
Y530310D02*
D03*
X485909D02*
D03*
D58*
X511309Y504910D02*
D03*
D59*
X128010Y154800D02*
D03*
X601500Y36950D02*
D03*
D60*
X587022Y154044D02*
D03*
X425732Y262502D02*
D03*
X439461Y319906D02*
D03*
X408460Y232530D02*
D03*
X421922Y224398D02*
D03*
X394998Y224402D02*
D03*
X359692Y494658D02*
D03*
X333484Y492400D02*
D03*
X338864Y407790D02*
D03*
X353780Y423538D02*
D03*
X338864Y423030D02*
D03*
X379758Y379088D02*
D03*
X342166Y379850D02*
D03*
X367312Y409314D02*
D03*
X208936Y101092D02*
D03*
X162095Y77590D02*
D03*
X181384D02*
D03*
X294414Y436492D02*
D03*
X402364Y425824D02*
D03*
X326739Y502786D02*
D03*
X423840Y492456D02*
D03*
X410604Y479644D02*
D03*
X397792Y492880D02*
D03*
X366042Y501516D02*
D03*
X272206Y479571D02*
D03*
X424564Y470653D02*
D03*
X447713Y470663D02*
D03*
X424564Y518652D02*
D03*
X447713Y518663D02*
D03*
X210974Y224771D02*
D03*
X437416Y174618D02*
D03*
X437162Y334892D02*
D03*
X186210Y291222D02*
D03*
X185956Y323970D02*
D03*
X285270Y224800D02*
D03*
X273906D02*
D03*
X223294Y270630D02*
D03*
X232946D02*
D03*
X242598D02*
D03*
X252250D02*
D03*
X262542Y224800D02*
D03*
X234378D02*
D03*
X190906Y101056D02*
D03*
X106518Y215766D02*
D03*
Y225418D02*
D03*
Y235070D02*
D03*
Y244722D02*
D03*
X60480Y215766D02*
D03*
Y244722D02*
D03*
Y235070D02*
D03*
Y225418D02*
D03*
X262410Y164600D02*
D03*
X374170Y267074D02*
D03*
X262410Y204400D02*
D03*
Y184800D02*
D03*
X394510Y124200D02*
D03*
X394510Y84500D02*
D03*
X301192Y407870D02*
D03*
X683796Y112134D02*
D03*
X811558Y234054D02*
D03*
X737620Y202939D02*
D03*
X689130Y245230D02*
D03*
X644172Y204336D02*
D03*
X917984Y92830D02*
D03*
X355120Y263010D02*
D03*
X780570Y137534D02*
D03*
X764060Y137534D02*
D03*
X706656Y200272D02*
D03*
X767004Y177158D02*
D03*
X775236D02*
D03*
X784470Y250270D02*
D03*
X646712Y112134D02*
D03*
X627662Y184044D02*
D03*
X457990Y357752D02*
D03*
X411000Y342510D02*
D03*
X646712Y164204D02*
D03*
X614962D02*
D03*
X363500Y266060D02*
D03*
X477548Y372516D02*
D03*
X518188D02*
D03*
X411000Y294510D02*
D03*
X497868Y372516D02*
D03*
X394998Y280028D02*
D03*
X294670Y342890D02*
D03*
X411000Y326510D02*
D03*
X294670Y326890D02*
D03*
X291620Y334890D02*
D03*
Y318890D02*
D03*
X458498Y414446D02*
D03*
X477548D02*
D03*
X497868D02*
D03*
X518188D02*
D03*
X438178Y267276D02*
D03*
X578028Y231006D02*
D03*
Y267986D02*
D03*
X748620Y317420D02*
D03*
X733620Y317420D02*
D03*
X740980Y294500D02*
D03*
X779798Y307460D02*
D03*
X757730Y294500D02*
D03*
X666470Y255270D02*
D03*
Y240270D02*
D03*
X805770Y270270D02*
D03*
Y285270D02*
D03*
X715023Y174110D02*
D03*
X745010Y177920D02*
D03*
X703620Y178120D02*
D03*
X61242Y308476D02*
D03*
X67613Y433797D02*
D03*
X79022Y310254D02*
D03*
X282412Y426078D02*
D03*
X772001Y139887D02*
D03*
X743486Y144392D02*
D03*
X751614D02*
D03*
X659412Y135502D02*
D03*
X56670Y369182D02*
D03*
X63274Y298570D02*
D03*
X48415Y283711D02*
D03*
X129822Y385946D02*
D03*
X158778D02*
D03*
X149126D02*
D03*
X139474D02*
D03*
X129822Y355974D02*
D03*
X139474D02*
D03*
X149126D02*
D03*
X158778D02*
D03*
X476278Y218052D02*
D03*
X500140D02*
D03*
X388140Y362311D02*
D03*
X378996Y336670D02*
D03*
X369852Y334892D02*
D03*
X371730Y462500D02*
D03*
X322462Y531850D02*
D03*
X290506D02*
D03*
X370506D02*
D03*
X402462D02*
D03*
X341658Y483990D02*
D03*
X240710Y463315D02*
D03*
X538028Y451450D02*
D03*
X538000Y415650D02*
D03*
X578132Y415396D02*
D03*
X578160Y451196D02*
D03*
X458498Y372516D02*
D03*
X835816Y307843D02*
D03*
X441226Y158108D02*
D03*
Y146043D02*
D03*
Y133978D02*
D03*
X597690Y335654D02*
D03*
X618518Y335146D02*
D03*
Y343020D02*
D03*
X597690Y343528D02*
D03*
X759996Y238880D02*
D03*
X749582Y228466D02*
D03*
X857024Y175380D02*
D03*
X658396Y255390D02*
D03*
X86896Y386962D02*
D03*
X476278Y147499D02*
D03*
X500140D02*
D03*
X886234Y163188D02*
D03*
M02*
