%FSLAX44Y44*%
%MOMM*%
G71*
G01*
G75*
G04 Layer_Color=16711935*
%ADD10C,1.1000*%
%ADD11C,0.4000*%
%ADD12C,0.1500*%
%ADD13C,0.2000*%
%ADD14C,0.3000*%
%ADD15R,1.0000X1.0000*%
%ADD16R,1.0000X1.0000*%
G04:AMPARAMS|DCode=17|XSize=1.2mm|YSize=0.8mm|CornerRadius=0.2mm|HoleSize=0mm|Usage=FLASHONLY|Rotation=180.000|XOffset=0mm|YOffset=0mm|HoleType=Round|Shape=RoundedRectangle|*
%AMROUNDEDRECTD17*
21,1,1.2000,0.4000,0,0,180.0*
21,1,0.8000,0.8000,0,0,180.0*
1,1,0.4000,-0.4000,0.2000*
1,1,0.4000,0.4000,0.2000*
1,1,0.4000,0.4000,-0.2000*
1,1,0.4000,-0.4000,-0.2000*
%
%ADD17ROUNDEDRECTD17*%
%ADD18R,1.8000X1.5000*%
G04:AMPARAMS|DCode=19|XSize=1.5mm|YSize=0.4mm|CornerRadius=0.1mm|HoleSize=0mm|Usage=FLASHONLY|Rotation=90.000|XOffset=0mm|YOffset=0mm|HoleType=Round|Shape=RoundedRectangle|*
%AMROUNDEDRECTD19*
21,1,1.5000,0.2000,0,0,90.0*
21,1,1.3000,0.4000,0,0,90.0*
1,1,0.2000,0.1000,0.6500*
1,1,0.2000,0.1000,-0.6500*
1,1,0.2000,-0.1000,-0.6500*
1,1,0.2000,-0.1000,0.6500*
%
%ADD19ROUNDEDRECTD19*%
G04:AMPARAMS|DCode=20|XSize=1.5mm|YSize=0.38mm|CornerRadius=0.095mm|HoleSize=0mm|Usage=FLASHONLY|Rotation=90.000|XOffset=0mm|YOffset=0mm|HoleType=Round|Shape=RoundedRectangle|*
%AMROUNDEDRECTD20*
21,1,1.5000,0.1900,0,0,90.0*
21,1,1.3100,0.3800,0,0,90.0*
1,1,0.1900,0.0950,0.6550*
1,1,0.1900,0.0950,-0.6550*
1,1,0.1900,-0.0950,-0.6550*
1,1,0.1900,-0.0950,0.6550*
%
%ADD20ROUNDEDRECTD20*%
%ADD21R,1.0000X2.2500*%
%ADD22O,0.6000X1.6000*%
G04:AMPARAMS|DCode=23|XSize=2.8mm|YSize=1.2mm|CornerRadius=0.3mm|HoleSize=0mm|Usage=FLASHONLY|Rotation=270.000|XOffset=0mm|YOffset=0mm|HoleType=Round|Shape=RoundedRectangle|*
%AMROUNDEDRECTD23*
21,1,2.8000,0.6000,0,0,270.0*
21,1,2.2000,1.2000,0,0,270.0*
1,1,0.6000,-0.3000,-1.1000*
1,1,0.6000,-0.3000,1.1000*
1,1,0.6000,0.3000,1.1000*
1,1,0.6000,0.3000,-1.1000*
%
%ADD23ROUNDEDRECTD23*%
G04:AMPARAMS|DCode=24|XSize=1mm|YSize=1.2mm|CornerRadius=0.125mm|HoleSize=0mm|Usage=FLASHONLY|Rotation=180.000|XOffset=0mm|YOffset=0mm|HoleType=Round|Shape=RoundedRectangle|*
%AMROUNDEDRECTD24*
21,1,1.0000,0.9500,0,0,180.0*
21,1,0.7500,1.2000,0,0,180.0*
1,1,0.2500,-0.3750,0.4750*
1,1,0.2500,0.3750,0.4750*
1,1,0.2500,0.3750,-0.4750*
1,1,0.2500,-0.3750,-0.4750*
%
%ADD24ROUNDEDRECTD24*%
%ADD25R,1.3000X1.6000*%
G04:AMPARAMS|DCode=26|XSize=2.5mm|YSize=2.5mm|CornerRadius=0.625mm|HoleSize=0mm|Usage=FLASHONLY|Rotation=180.000|XOffset=0mm|YOffset=0mm|HoleType=Round|Shape=RoundedRectangle|*
%AMROUNDEDRECTD26*
21,1,2.5000,1.2500,0,0,180.0*
21,1,1.2500,2.5000,0,0,180.0*
1,1,1.2500,-0.6250,0.6250*
1,1,1.2500,0.6250,0.6250*
1,1,1.2500,0.6250,-0.6250*
1,1,1.2500,-0.6250,-0.6250*
%
%ADD26ROUNDEDRECTD26*%
G04:AMPARAMS|DCode=27|XSize=0.25mm|YSize=0.85mm|CornerRadius=0.0625mm|HoleSize=0mm|Usage=FLASHONLY|Rotation=180.000|XOffset=0mm|YOffset=0mm|HoleType=Round|Shape=RoundedRectangle|*
%AMROUNDEDRECTD27*
21,1,0.2500,0.7250,0,0,180.0*
21,1,0.1250,0.8500,0,0,180.0*
1,1,0.1250,-0.0625,0.3625*
1,1,0.1250,0.0625,0.3625*
1,1,0.1250,0.0625,-0.3625*
1,1,0.1250,-0.0625,-0.3625*
%
%ADD27ROUNDEDRECTD27*%
G04:AMPARAMS|DCode=28|XSize=0.25mm|YSize=0.85mm|CornerRadius=0.0625mm|HoleSize=0mm|Usage=FLASHONLY|Rotation=270.000|XOffset=0mm|YOffset=0mm|HoleType=Round|Shape=RoundedRectangle|*
%AMROUNDEDRECTD28*
21,1,0.2500,0.7250,0,0,270.0*
21,1,0.1250,0.8500,0,0,270.0*
1,1,0.1250,-0.3625,-0.0625*
1,1,0.1250,-0.3625,0.0625*
1,1,0.1250,0.3625,0.0625*
1,1,0.1250,0.3625,-0.0625*
%
%ADD28ROUNDEDRECTD28*%
%ADD29R,1.6000X1.3000*%
%ADD30O,1.3000X0.4500*%
%ADD31O,1.3000X0.3000*%
%ADD32O,0.3000X1.3000*%
%ADD33R,0.9000X1.2000*%
%ADD34R,1.0000X1.4000*%
%ADD35C,1.0000*%
%ADD36O,1.9500X0.5500*%
%ADD37O,0.5500X1.9500*%
G04:AMPARAMS|DCode=38|XSize=3mm|YSize=1.5mm|CornerRadius=0.375mm|HoleSize=0mm|Usage=FLASHONLY|Rotation=270.000|XOffset=0mm|YOffset=0mm|HoleType=Round|Shape=RoundedRectangle|*
%AMROUNDEDRECTD38*
21,1,3.0000,0.7500,0,0,270.0*
21,1,2.2500,1.5000,0,0,270.0*
1,1,0.7500,-0.3750,-1.1250*
1,1,0.7500,-0.3750,1.1250*
1,1,0.7500,0.3750,1.1250*
1,1,0.7500,0.3750,-1.1250*
%
%ADD38ROUNDEDRECTD38*%
%ADD39O,0.7000X1.7000*%
G04:AMPARAMS|DCode=40|XSize=2mm|YSize=1mm|CornerRadius=0.25mm|HoleSize=0mm|Usage=FLASHONLY|Rotation=270.000|XOffset=0mm|YOffset=0mm|HoleType=Round|Shape=RoundedRectangle|*
%AMROUNDEDRECTD40*
21,1,2.0000,0.5000,0,0,270.0*
21,1,1.5000,1.0000,0,0,270.0*
1,1,0.5000,-0.2500,-0.7500*
1,1,0.5000,-0.2500,0.7500*
1,1,0.5000,0.2500,0.7500*
1,1,0.5000,0.2500,-0.7500*
%
%ADD40ROUNDEDRECTD40*%
G04:AMPARAMS|DCode=41|XSize=2mm|YSize=1mm|CornerRadius=0.25mm|HoleSize=0mm|Usage=FLASHONLY|Rotation=180.000|XOffset=0mm|YOffset=0mm|HoleType=Round|Shape=RoundedRectangle|*
%AMROUNDEDRECTD41*
21,1,2.0000,0.5000,0,0,180.0*
21,1,1.5000,1.0000,0,0,180.0*
1,1,0.5000,-0.7500,0.2500*
1,1,0.5000,0.7500,0.2500*
1,1,0.5000,0.7500,-0.2500*
1,1,0.5000,-0.7500,-0.2500*
%
%ADD41ROUNDEDRECTD41*%
G04:AMPARAMS|DCode=42|XSize=1mm|YSize=0.55mm|CornerRadius=0.1375mm|HoleSize=0mm|Usage=FLASHONLY|Rotation=0.000|XOffset=0mm|YOffset=0mm|HoleType=Round|Shape=RoundedRectangle|*
%AMROUNDEDRECTD42*
21,1,1.0000,0.2750,0,0,0.0*
21,1,0.7250,0.5500,0,0,0.0*
1,1,0.2750,0.3625,-0.1375*
1,1,0.2750,-0.3625,-0.1375*
1,1,0.2750,-0.3625,0.1375*
1,1,0.2750,0.3625,0.1375*
%
%ADD42ROUNDEDRECTD42*%
%ADD43C,0.2500*%
%ADD44C,0.1800*%
%ADD45C,0.5000*%
%ADD46C,0.8000*%
%ADD47C,1.2000*%
%ADD48C,1.6000*%
%ADD49R,1.6000X1.6000*%
%ADD50C,1.4000*%
%ADD51C,3.2000*%
G04:AMPARAMS|DCode=52|XSize=1.5mm|YSize=2mm|CornerRadius=0.375mm|HoleSize=0mm|Usage=FLASHONLY|Rotation=270.000|XOffset=0mm|YOffset=0mm|HoleType=Round|Shape=RoundedRectangle|*
%AMROUNDEDRECTD52*
21,1,1.5000,1.2500,0,0,270.0*
21,1,0.7500,2.0000,0,0,270.0*
1,1,0.7500,-0.6250,-0.3750*
1,1,0.7500,-0.6250,0.3750*
1,1,0.7500,0.6250,0.3750*
1,1,0.7500,0.6250,-0.3750*
%
%ADD52ROUNDEDRECTD52*%
%ADD53C,1.5000*%
%ADD54C,1.3000*%
%ADD55C,3.2500*%
%ADD56C,2.4000*%
%ADD57C,2.5000*%
%ADD58C,2.2000*%
G04:AMPARAMS|DCode=59|XSize=1.6mm|YSize=1.6mm|CornerRadius=0.4mm|HoleSize=0mm|Usage=FLASHONLY|Rotation=180.000|XOffset=0mm|YOffset=0mm|HoleType=Round|Shape=RoundedRectangle|*
%AMROUNDEDRECTD59*
21,1,1.6000,0.8000,0,0,180.0*
21,1,0.8000,1.6000,0,0,180.0*
1,1,0.8000,-0.4000,0.4000*
1,1,0.8000,0.4000,0.4000*
1,1,0.8000,0.4000,-0.4000*
1,1,0.8000,-0.4000,-0.4000*
%
%ADD59ROUNDEDRECTD59*%
%ADD60C,0.6000*%
G04:AMPARAMS|DCode=61|XSize=1mm|YSize=1.2mm|CornerRadius=0.125mm|HoleSize=0mm|Usage=FLASHONLY|Rotation=90.000|XOffset=0mm|YOffset=0mm|HoleType=Round|Shape=RoundedRectangle|*
%AMROUNDEDRECTD61*
21,1,1.0000,0.9500,0,0,90.0*
21,1,0.7500,1.2000,0,0,90.0*
1,1,0.2500,0.4750,0.3750*
1,1,0.2500,0.4750,-0.3750*
1,1,0.2500,-0.4750,-0.3750*
1,1,0.2500,-0.4750,0.3750*
%
%ADD61ROUNDEDRECTD61*%
G04:AMPARAMS|DCode=62|XSize=1.8mm|YSize=1.8mm|CornerRadius=0.45mm|HoleSize=0mm|Usage=FLASHONLY|Rotation=180.000|XOffset=0mm|YOffset=0mm|HoleType=Round|Shape=RoundedRectangle|*
%AMROUNDEDRECTD62*
21,1,1.8000,0.9000,0,0,180.0*
21,1,0.9000,1.8000,0,0,180.0*
1,1,0.9000,-0.4500,0.4500*
1,1,0.9000,0.4500,0.4500*
1,1,0.9000,0.4500,-0.4500*
1,1,0.9000,-0.4500,-0.4500*
%
%ADD62ROUNDEDRECTD62*%
%ADD63C,0.6000*%
%ADD64C,0.8000*%
%ADD65C,0.2540*%
%ADD66C,0.1000*%
%ADD67C,0.7000*%
%ADD68O,2.0500X0.6500*%
%ADD69R,1.2032X1.2032*%
%ADD70R,1.2032X1.2032*%
G04:AMPARAMS|DCode=71|XSize=1.4032mm|YSize=1.0032mm|CornerRadius=0.3016mm|HoleSize=0mm|Usage=FLASHONLY|Rotation=180.000|XOffset=0mm|YOffset=0mm|HoleType=Round|Shape=RoundedRectangle|*
%AMROUNDEDRECTD71*
21,1,1.4032,0.4000,0,0,180.0*
21,1,0.8000,1.0032,0,0,180.0*
1,1,0.6032,-0.4000,0.2000*
1,1,0.6032,0.4000,0.2000*
1,1,0.6032,0.4000,-0.2000*
1,1,0.6032,-0.4000,-0.2000*
%
%ADD71ROUNDEDRECTD71*%
%ADD72R,2.0032X1.7032*%
G04:AMPARAMS|DCode=73|XSize=1.7032mm|YSize=0.6032mm|CornerRadius=0.2016mm|HoleSize=0mm|Usage=FLASHONLY|Rotation=90.000|XOffset=0mm|YOffset=0mm|HoleType=Round|Shape=RoundedRectangle|*
%AMROUNDEDRECTD73*
21,1,1.7032,0.2000,0,0,90.0*
21,1,1.3000,0.6032,0,0,90.0*
1,1,0.4032,0.1000,0.6500*
1,1,0.4032,0.1000,-0.6500*
1,1,0.4032,-0.1000,-0.6500*
1,1,0.4032,-0.1000,0.6500*
%
%ADD73ROUNDEDRECTD73*%
G04:AMPARAMS|DCode=74|XSize=1.7032mm|YSize=0.5832mm|CornerRadius=0.1966mm|HoleSize=0mm|Usage=FLASHONLY|Rotation=90.000|XOffset=0mm|YOffset=0mm|HoleType=Round|Shape=RoundedRectangle|*
%AMROUNDEDRECTD74*
21,1,1.7032,0.1900,0,0,90.0*
21,1,1.3100,0.5832,0,0,90.0*
1,1,0.3932,0.0950,0.6550*
1,1,0.3932,0.0950,-0.6550*
1,1,0.3932,-0.0950,-0.6550*
1,1,0.3932,-0.0950,0.6550*
%
%ADD74ROUNDEDRECTD74*%
%ADD75R,1.2032X2.4532*%
%ADD76O,0.8032X1.8032*%
G04:AMPARAMS|DCode=77|XSize=3.0032mm|YSize=1.4032mm|CornerRadius=0.4016mm|HoleSize=0mm|Usage=FLASHONLY|Rotation=270.000|XOffset=0mm|YOffset=0mm|HoleType=Round|Shape=RoundedRectangle|*
%AMROUNDEDRECTD77*
21,1,3.0032,0.6000,0,0,270.0*
21,1,2.2000,1.4032,0,0,270.0*
1,1,0.8032,-0.3000,-1.1000*
1,1,0.8032,-0.3000,1.1000*
1,1,0.8032,0.3000,1.1000*
1,1,0.8032,0.3000,-1.1000*
%
%ADD77ROUNDEDRECTD77*%
G04:AMPARAMS|DCode=78|XSize=1.2032mm|YSize=1.4032mm|CornerRadius=0.2266mm|HoleSize=0mm|Usage=FLASHONLY|Rotation=180.000|XOffset=0mm|YOffset=0mm|HoleType=Round|Shape=RoundedRectangle|*
%AMROUNDEDRECTD78*
21,1,1.2032,0.9500,0,0,180.0*
21,1,0.7500,1.4032,0,0,180.0*
1,1,0.4532,-0.3750,0.4750*
1,1,0.4532,0.3750,0.4750*
1,1,0.4532,0.3750,-0.4750*
1,1,0.4532,-0.3750,-0.4750*
%
%ADD78ROUNDEDRECTD78*%
%ADD79R,1.5032X1.8032*%
G04:AMPARAMS|DCode=80|XSize=2.7032mm|YSize=2.7032mm|CornerRadius=0.7266mm|HoleSize=0mm|Usage=FLASHONLY|Rotation=180.000|XOffset=0mm|YOffset=0mm|HoleType=Round|Shape=RoundedRectangle|*
%AMROUNDEDRECTD80*
21,1,2.7032,1.2500,0,0,180.0*
21,1,1.2500,2.7032,0,0,180.0*
1,1,1.4532,-0.6250,0.6250*
1,1,1.4532,0.6250,0.6250*
1,1,1.4532,0.6250,-0.6250*
1,1,1.4532,-0.6250,-0.6250*
%
%ADD80ROUNDEDRECTD80*%
G04:AMPARAMS|DCode=81|XSize=0.4532mm|YSize=1.0532mm|CornerRadius=0.1641mm|HoleSize=0mm|Usage=FLASHONLY|Rotation=180.000|XOffset=0mm|YOffset=0mm|HoleType=Round|Shape=RoundedRectangle|*
%AMROUNDEDRECTD81*
21,1,0.4532,0.7250,0,0,180.0*
21,1,0.1250,1.0532,0,0,180.0*
1,1,0.3282,-0.0625,0.3625*
1,1,0.3282,0.0625,0.3625*
1,1,0.3282,0.0625,-0.3625*
1,1,0.3282,-0.0625,-0.3625*
%
%ADD81ROUNDEDRECTD81*%
G04:AMPARAMS|DCode=82|XSize=0.4532mm|YSize=1.0532mm|CornerRadius=0.1641mm|HoleSize=0mm|Usage=FLASHONLY|Rotation=270.000|XOffset=0mm|YOffset=0mm|HoleType=Round|Shape=RoundedRectangle|*
%AMROUNDEDRECTD82*
21,1,0.4532,0.7250,0,0,270.0*
21,1,0.1250,1.0532,0,0,270.0*
1,1,0.3282,-0.3625,-0.0625*
1,1,0.3282,-0.3625,0.0625*
1,1,0.3282,0.3625,0.0625*
1,1,0.3282,0.3625,-0.0625*
%
%ADD82ROUNDEDRECTD82*%
%ADD83R,1.8032X1.5032*%
%ADD84O,1.5032X0.6532*%
%ADD85O,1.5032X0.5032*%
%ADD86O,0.5032X1.5032*%
%ADD87R,1.1032X1.4032*%
%ADD88R,1.2032X1.6032*%
%ADD89O,0.6500X2.0500*%
G04:AMPARAMS|DCode=90|XSize=3.2032mm|YSize=1.7032mm|CornerRadius=0.4766mm|HoleSize=0mm|Usage=FLASHONLY|Rotation=270.000|XOffset=0mm|YOffset=0mm|HoleType=Round|Shape=RoundedRectangle|*
%AMROUNDEDRECTD90*
21,1,3.2032,0.7500,0,0,270.0*
21,1,2.2500,1.7032,0,0,270.0*
1,1,0.9532,-0.3750,-1.1250*
1,1,0.9532,-0.3750,1.1250*
1,1,0.9532,0.3750,1.1250*
1,1,0.9532,0.3750,-1.1250*
%
%ADD90ROUNDEDRECTD90*%
%ADD91O,0.9032X1.9032*%
G04:AMPARAMS|DCode=92|XSize=2.2032mm|YSize=1.2032mm|CornerRadius=0.3516mm|HoleSize=0mm|Usage=FLASHONLY|Rotation=270.000|XOffset=0mm|YOffset=0mm|HoleType=Round|Shape=RoundedRectangle|*
%AMROUNDEDRECTD92*
21,1,2.2032,0.5000,0,0,270.0*
21,1,1.5000,1.2032,0,0,270.0*
1,1,0.7032,-0.2500,-0.7500*
1,1,0.7032,-0.2500,0.7500*
1,1,0.7032,0.2500,0.7500*
1,1,0.7032,0.2500,-0.7500*
%
%ADD92ROUNDEDRECTD92*%
G04:AMPARAMS|DCode=93|XSize=2.2032mm|YSize=1.2032mm|CornerRadius=0.3516mm|HoleSize=0mm|Usage=FLASHONLY|Rotation=180.000|XOffset=0mm|YOffset=0mm|HoleType=Round|Shape=RoundedRectangle|*
%AMROUNDEDRECTD93*
21,1,2.2032,0.5000,0,0,180.0*
21,1,1.5000,1.2032,0,0,180.0*
1,1,0.7032,-0.7500,0.2500*
1,1,0.7032,0.7500,0.2500*
1,1,0.7032,0.7500,-0.2500*
1,1,0.7032,-0.7500,-0.2500*
%
%ADD93ROUNDEDRECTD93*%
G04:AMPARAMS|DCode=94|XSize=1.2032mm|YSize=0.7532mm|CornerRadius=0.2391mm|HoleSize=0mm|Usage=FLASHONLY|Rotation=0.000|XOffset=0mm|YOffset=0mm|HoleType=Round|Shape=RoundedRectangle|*
%AMROUNDEDRECTD94*
21,1,1.2032,0.2750,0,0,0.0*
21,1,0.7250,0.7532,0,0,0.0*
1,1,0.4782,0.3625,-0.1375*
1,1,0.4782,-0.3625,-0.1375*
1,1,0.4782,-0.3625,0.1375*
1,1,0.4782,0.3625,0.1375*
%
%ADD94ROUNDEDRECTD94*%
%ADD95C,1.0032*%
%ADD96C,1.4032*%
%ADD97C,1.8032*%
%ADD98R,1.8032X1.8032*%
%ADD99C,1.6032*%
%ADD100C,3.4032*%
G04:AMPARAMS|DCode=101|XSize=1.7032mm|YSize=2.2032mm|CornerRadius=0.4766mm|HoleSize=0mm|Usage=FLASHONLY|Rotation=270.000|XOffset=0mm|YOffset=0mm|HoleType=Round|Shape=RoundedRectangle|*
%AMROUNDEDRECTD101*
21,1,1.7032,1.2500,0,0,270.0*
21,1,0.7500,2.2032,0,0,270.0*
1,1,0.9532,-0.6250,-0.3750*
1,1,0.9532,-0.6250,0.3750*
1,1,0.9532,0.6250,0.3750*
1,1,0.9532,0.6250,-0.3750*
%
%ADD101ROUNDEDRECTD101*%
%ADD102C,1.7032*%
%ADD103C,1.5032*%
%ADD104C,3.4532*%
%ADD105C,2.6032*%
%ADD106C,2.7032*%
%ADD107C,2.4032*%
G04:AMPARAMS|DCode=108|XSize=1.8032mm|YSize=1.8032mm|CornerRadius=0.5016mm|HoleSize=0mm|Usage=FLASHONLY|Rotation=180.000|XOffset=0mm|YOffset=0mm|HoleType=Round|Shape=RoundedRectangle|*
%AMROUNDEDRECTD108*
21,1,1.8032,0.8000,0,0,180.0*
21,1,0.8000,1.8032,0,0,180.0*
1,1,1.0032,-0.4000,0.4000*
1,1,1.0032,0.4000,0.4000*
1,1,1.0032,0.4000,-0.4000*
1,1,1.0032,-0.4000,-0.4000*
%
%ADD108ROUNDEDRECTD108*%
G04:AMPARAMS|DCode=109|XSize=1.2032mm|YSize=1.4032mm|CornerRadius=0.2266mm|HoleSize=0mm|Usage=FLASHONLY|Rotation=90.000|XOffset=0mm|YOffset=0mm|HoleType=Round|Shape=RoundedRectangle|*
%AMROUNDEDRECTD109*
21,1,1.2032,0.9500,0,0,90.0*
21,1,0.7500,1.4032,0,0,90.0*
1,1,0.4532,0.4750,0.3750*
1,1,0.4532,0.4750,-0.3750*
1,1,0.4532,-0.4750,-0.3750*
1,1,0.4532,-0.4750,0.3750*
%
%ADD109ROUNDEDRECTD109*%
G04:AMPARAMS|DCode=110|XSize=2.0032mm|YSize=2.0032mm|CornerRadius=0.5516mm|HoleSize=0mm|Usage=FLASHONLY|Rotation=180.000|XOffset=0mm|YOffset=0mm|HoleType=Round|Shape=RoundedRectangle|*
%AMROUNDEDRECTD110*
21,1,2.0032,0.9000,0,0,180.0*
21,1,0.9000,2.0032,0,0,180.0*
1,1,1.1032,-0.4500,0.4500*
1,1,1.1032,0.4500,0.4500*
1,1,1.1032,0.4500,-0.4500*
1,1,1.1032,-0.4500,-0.4500*
%
%ADD110ROUNDEDRECTD110*%
D35*
X47526Y55492D02*
D03*
X47272Y489254D02*
D03*
X881034Y489508D02*
D03*
X859056Y61080D02*
D03*
D69*
X459768Y251968D02*
D03*
Y236968D02*
D03*
X780570Y168100D02*
D03*
X780570Y153100D02*
D03*
X764060Y168100D02*
D03*
Y153100D02*
D03*
X377202Y352030D02*
D03*
Y367030D02*
D03*
X360200Y367030D02*
D03*
Y352030D02*
D03*
X93500Y175006D02*
D03*
Y160006D02*
D03*
X108740Y175006D02*
D03*
Y160006D02*
D03*
X745010Y203200D02*
D03*
X745010Y188200D02*
D03*
X749313Y292340D02*
D03*
Y307340D02*
D03*
X766315Y292340D02*
D03*
X766315Y307340D02*
D03*
X698020Y203200D02*
D03*
Y188200D02*
D03*
X715023Y203200D02*
D03*
X715023Y188200D02*
D03*
X732250Y153100D02*
D03*
Y168100D02*
D03*
X747550D02*
D03*
X747550Y153100D02*
D03*
X696496Y365760D02*
D03*
Y350760D02*
D03*
X645696Y439674D02*
D03*
Y424674D02*
D03*
X701576Y439674D02*
D03*
Y424674D02*
D03*
X732310Y292340D02*
D03*
Y307340D02*
D03*
X567718Y276846D02*
D03*
Y291846D02*
D03*
X588038Y276846D02*
D03*
Y291846D02*
D03*
X438178Y291846D02*
D03*
Y276846D02*
D03*
X362740Y275830D02*
D03*
Y290830D02*
D03*
X518188Y388606D02*
D03*
Y403606D02*
D03*
X497868Y388606D02*
D03*
Y403606D02*
D03*
X477548Y388606D02*
D03*
Y403606D02*
D03*
X458498Y388606D02*
D03*
Y403606D02*
D03*
X153444Y197344D02*
D03*
X153444Y212344D02*
D03*
X178844Y197344D02*
D03*
Y212344D02*
D03*
X202974Y197344D02*
D03*
Y212344D02*
D03*
X227104Y197344D02*
D03*
Y212344D02*
D03*
D70*
X394205Y373506D02*
D03*
X409205D02*
D03*
X385226Y124072D02*
D03*
X370226D02*
D03*
X287436Y164458D02*
D03*
X272436D02*
D03*
X287436Y185286D02*
D03*
X272436D02*
D03*
X287436Y204590D02*
D03*
X272436D02*
D03*
X384838Y227463D02*
D03*
X369838Y227463D02*
D03*
X384838Y212718D02*
D03*
X369838Y212718D02*
D03*
X385226Y83940D02*
D03*
X370226D02*
D03*
X385226Y99180D02*
D03*
X370226D02*
D03*
X780690Y235070D02*
D03*
X795690D02*
D03*
X801024Y313302D02*
D03*
X786024Y313302D02*
D03*
X237130Y290696D02*
D03*
X252130D02*
D03*
X237130Y323970D02*
D03*
X252130D02*
D03*
X660294Y518280D02*
D03*
X675294D02*
D03*
X705774D02*
D03*
X690774D02*
D03*
X745787Y357781D02*
D03*
X730787D02*
D03*
X745787Y374784D02*
D03*
X730787D02*
D03*
X745787Y391786D02*
D03*
X730787D02*
D03*
X850540Y217290D02*
D03*
X865540Y217290D02*
D03*
X865540Y268090D02*
D03*
X850540Y268090D02*
D03*
X675802Y266073D02*
D03*
X660802D02*
D03*
X323250Y327817D02*
D03*
X308250D02*
D03*
X660802Y283076D02*
D03*
X675802D02*
D03*
X323250Y310815D02*
D03*
X308250D02*
D03*
X647340Y362070D02*
D03*
X662340Y362070D02*
D03*
X571902Y141598D02*
D03*
X586902D02*
D03*
X571902Y111356D02*
D03*
X586902Y111356D02*
D03*
X571133Y64382D02*
D03*
X586133D02*
D03*
X862224Y163442D02*
D03*
X877224D02*
D03*
D71*
X524754Y158742D02*
D03*
Y142742D02*
D03*
X551754D02*
D03*
Y158742D02*
D03*
X524754Y115562D02*
D03*
Y99562D02*
D03*
X551754D02*
D03*
Y115562D02*
D03*
X524754Y72382D02*
D03*
Y56382D02*
D03*
X551754D02*
D03*
Y72382D02*
D03*
D79*
X52318Y176396D02*
D03*
X16318D02*
D03*
X678750Y160664D02*
D03*
X714750D02*
D03*
X713480Y240150D02*
D03*
X677480D02*
D03*
D83*
X804296Y153316D02*
D03*
Y189316D02*
D03*
D95*
X327484Y513454D02*
D03*
X365484D02*
D03*
D96*
X367058Y387724D02*
D03*
X351818D02*
D03*
X641886Y274948D02*
D03*
Y259454D02*
D03*
Y291086D02*
D03*
D97*
X12728Y449954D02*
D03*
X38128Y449954D02*
D03*
X12728Y373754D02*
D03*
X38128D02*
D03*
X12728Y348354D02*
D03*
X38128Y348354D02*
D03*
X12728Y322954D02*
D03*
X38128Y399154D02*
D03*
X12728D02*
D03*
X12728Y424554D02*
D03*
X38128Y424554D02*
D03*
X153410Y180200D02*
D03*
Y154800D02*
D03*
X128010Y180200D02*
D03*
X178810Y154800D02*
D03*
Y180200D02*
D03*
X204210Y154800D02*
D03*
Y180200D02*
D03*
X652300Y62350D02*
D03*
X626900D02*
D03*
X601500D02*
D03*
X626900Y36950D02*
D03*
X652300D02*
D03*
D98*
X38128Y322954D02*
D03*
D99*
X267490Y332860D02*
D03*
Y281860D02*
D03*
X834398Y268090D02*
D03*
Y217090D02*
D03*
D100*
X904280Y32500D02*
D03*
Y512500D02*
D03*
X24280D02*
D03*
Y32500D02*
D03*
D101*
X895124Y287648D02*
D03*
X895124Y262248D02*
D03*
Y186048D02*
D03*
X895124Y211448D02*
D03*
X895124Y236848D02*
D03*
D102*
X616276Y519462D02*
D03*
X748776D02*
D03*
X723376D02*
D03*
X641676D02*
D03*
X904268Y374008D02*
D03*
X828068Y348608D02*
D03*
Y374008D02*
D03*
X904268Y348608D02*
D03*
D103*
X726976Y406962D02*
D03*
X701576D02*
D03*
X714276Y381562D02*
D03*
X638076D02*
D03*
X663476D02*
D03*
X650776Y406962D02*
D03*
X676176D02*
D03*
X688876Y381562D02*
D03*
D104*
X739676Y470462D02*
D03*
X625376D02*
D03*
D105*
X761276Y439962D02*
D03*
X603776D02*
D03*
D106*
X485909Y479510D02*
D03*
X536709D02*
D03*
Y530310D02*
D03*
X485909D02*
D03*
D107*
X511309Y504910D02*
D03*
D108*
X128010Y154800D02*
D03*
X601500Y36950D02*
D03*
D109*
X437478Y231928D02*
D03*
X413478Y241928D02*
D03*
X437478Y251928D02*
D03*
D110*
X410816Y492668D02*
D03*
Y402668D02*
D03*
X260816D02*
D03*
Y492668D02*
D03*
M02*
