M48
;Layer_Color=9474304
;FILE_FORMAT=4:4
METRIC,TZ
;TYPE=PLATED
T1F00S00C0.3000
T2F00S00C0.8000
T3F00S00C0.9000
T4F00S00C1.0000
T5F00S00C1.1000
T6F00S00C1.5000
T7F00S00C1.7000
T8F00S00C3.2500
%
T01
X646712Y112134
X659412Y135502
X646712Y164204
X644172Y204336
X666470Y240270
Y255270
X658396Y255390
X689130Y245230
X706656Y200272
X703620Y178120
X715023Y174110
X745010Y177920
X767004Y177158
X775236
X772001Y139887
X764060Y137534
X780570Y137534
X751614Y144392
X743486
X737620Y202939
X749582Y228466
X759996Y238880
X784470Y250270
X805770Y270270
Y285270
X779798Y307460
X757730Y294500
X740980Y294500
X733620Y317420
X748620Y317420
X835816Y307843
X811558Y234054
X857024Y175380
X886234Y163188
X917984Y92830
X683796Y112134
X614962Y164204
X627662Y184044
X587022Y154044
X578028Y231006
Y267986
X597690Y335654
Y343528
X618518Y343020
Y335146
X578132Y415396
X578160Y451196
X538028Y451450
X538000Y415650
X518188Y414446
X497868
X477548
X458498
Y372516
X457990Y357752
X477548Y372516
X497868
X518188
X437162Y334892
X439461Y319906
X411000Y326510
X411000Y342510
X378996Y336670
X369852Y334892
X388140Y362311
X379758Y379088
X342166Y379850
X338864Y407790
Y423030
X353780Y423538
X367312Y409314
X402364Y425824
X294414Y436492
X282412Y426078
X301192Y407870
X294670Y342890
X291620Y334890
X294670Y326890
X291620Y318890
X252250Y270630
X242598
X262542Y224800
X273906
X285270
X262410Y204400
Y184800
Y164600
X394510Y124200
X394510Y84500
X441226Y133978
Y146043
Y158108
X437416Y174618
X421922Y224398
X408460Y232530
X394998Y224402
Y280028
X411000Y294510
X425732Y262502
X438178Y267276
X374170Y267074
X363500Y266060
X355120Y263010
X476278Y218052
X500140
Y147499
X476278
X208936Y101092
X190906Y101056
X181384Y77590
X162095
X106518Y215766
Y225418
Y235070
Y244722
X60480
Y235070
Y225418
Y215766
X48415Y283711
X63274Y298570
X61242Y308476
X79022Y310254
X56670Y369182
X86896Y386962
X129822Y385946
X139474
X149126
X158778
Y355974
X149126
X139474
X129822
X185956Y323970
X186210Y291222
X223294Y270630
X232946
X234378Y224800
X210974Y224771
X67613Y433797
X240710Y463315
X272206Y479571
X290506Y531850
X322462
X326739Y502786
X333484Y492400
X341658Y483990
X359692Y494658
X366042Y501516
X370506Y531850
X402462
X424564Y518652
X447713Y518663
Y470663
X424564Y470653
X423840Y492456
X410604Y479644
X397792Y492880
X371730Y462500
T02
X641886Y259454
Y274948
Y291086
X834398Y268090
Y217090
X267490Y281860
Y332860
X351818Y387724
X367058
T03
X638076Y381562
X663476
X688876
X714276
X726976Y406962
X701576
X676176
X650776
T04
X601500Y36950
X626900
X652300
Y62350
X895124Y186048
X895124Y211448
X895124Y236848
Y262248
X895124Y287648
X904268Y348608
Y374008
X828068
Y348608
X626900Y62350
X601500
X204210Y154800
Y180200
X178810
Y154800
X153410
Y180200
X128010
X128010Y154800
X38128Y322954
Y348354
Y373754
X12728
Y399154
X38128
Y424554
Y449954
X12728Y449954
X12728Y424554
Y348354
X12728Y322954
T05
X616276Y519462
X641676
X723376
X748776
T06
X511309Y504910
T07
X761276Y439962
X603776
X536709Y479510
X485909
Y530310
X536709
T08
X625376Y470462
X739676
M30
