G75*
G70*
%OFA0B0*%
%FSLAX24Y24*%
%IPPOS*%
%LPD*%
%AMOC8*
5,1,8,0,0,1.08239X$1,22.5*
%
%ADD10C,0.0000*%
%ADD11C,0.0050*%
%ADD12C,0.0070*%
%ADD13C,0.0100*%
%ADD14C,0.0040*%
%ADD15R,0.0500X0.0500*%
%ADD16R,0.0300X0.0300*%
%ADD17R,0.1000X0.1000*%
%ADD18C,0.0240*%
%ADD19R,0.0400X0.0400*%
%ADD20R,0.0700X0.0700*%
%ADD21C,0.0080*%
%ADD22C,0.0059*%
D10*
X004305Y003896D02*
X004307Y003943D01*
X004313Y003989D01*
X004323Y004035D01*
X004336Y004080D01*
X004354Y004123D01*
X004375Y004165D01*
X004399Y004205D01*
X004427Y004242D01*
X004458Y004277D01*
X004492Y004310D01*
X004528Y004339D01*
X004567Y004365D01*
X004608Y004388D01*
X004651Y004407D01*
X004695Y004423D01*
X004740Y004435D01*
X004786Y004443D01*
X004833Y004447D01*
X004879Y004447D01*
X004926Y004443D01*
X004972Y004435D01*
X005017Y004423D01*
X005061Y004407D01*
X005104Y004388D01*
X005145Y004365D01*
X005184Y004339D01*
X005220Y004310D01*
X005254Y004277D01*
X005285Y004242D01*
X005313Y004205D01*
X005337Y004165D01*
X005358Y004123D01*
X005376Y004080D01*
X005389Y004035D01*
X005399Y003989D01*
X005405Y003943D01*
X005407Y003896D01*
X005405Y003849D01*
X005399Y003803D01*
X005389Y003757D01*
X005376Y003712D01*
X005358Y003669D01*
X005337Y003627D01*
X005313Y003587D01*
X005285Y003550D01*
X005254Y003515D01*
X005220Y003482D01*
X005184Y003453D01*
X005145Y003427D01*
X005104Y003404D01*
X005061Y003385D01*
X005017Y003369D01*
X004972Y003357D01*
X004926Y003349D01*
X004879Y003345D01*
X004833Y003345D01*
X004786Y003349D01*
X004740Y003357D01*
X004695Y003369D01*
X004651Y003385D01*
X004608Y003404D01*
X004567Y003427D01*
X004528Y003453D01*
X004492Y003482D01*
X004458Y003515D01*
X004427Y003550D01*
X004399Y003587D01*
X004375Y003627D01*
X004354Y003669D01*
X004336Y003712D01*
X004323Y003757D01*
X004313Y003803D01*
X004307Y003849D01*
X004305Y003896D01*
X005919Y005811D02*
X005921Y005838D01*
X005927Y005865D01*
X005936Y005891D01*
X005949Y005915D01*
X005965Y005938D01*
X005984Y005957D01*
X006006Y005974D01*
X006030Y005988D01*
X006055Y005998D01*
X006082Y006005D01*
X006109Y006008D01*
X006137Y006007D01*
X006164Y006002D01*
X006190Y005994D01*
X006214Y005982D01*
X006237Y005966D01*
X006258Y005948D01*
X006275Y005927D01*
X006290Y005903D01*
X006301Y005878D01*
X006309Y005852D01*
X006313Y005825D01*
X006313Y005797D01*
X006309Y005770D01*
X006301Y005744D01*
X006290Y005719D01*
X006275Y005695D01*
X006258Y005674D01*
X006237Y005656D01*
X006215Y005640D01*
X006190Y005628D01*
X006164Y005620D01*
X006137Y005615D01*
X006109Y005614D01*
X006082Y005617D01*
X006055Y005624D01*
X006030Y005634D01*
X006006Y005648D01*
X005984Y005665D01*
X005965Y005684D01*
X005949Y005707D01*
X005936Y005731D01*
X005927Y005757D01*
X005921Y005784D01*
X005919Y005811D01*
X005919Y007780D02*
X005921Y007807D01*
X005927Y007834D01*
X005936Y007860D01*
X005949Y007884D01*
X005965Y007907D01*
X005984Y007926D01*
X006006Y007943D01*
X006030Y007957D01*
X006055Y007967D01*
X006082Y007974D01*
X006109Y007977D01*
X006137Y007976D01*
X006164Y007971D01*
X006190Y007963D01*
X006214Y007951D01*
X006237Y007935D01*
X006258Y007917D01*
X006275Y007896D01*
X006290Y007872D01*
X006301Y007847D01*
X006309Y007821D01*
X006313Y007794D01*
X006313Y007766D01*
X006309Y007739D01*
X006301Y007713D01*
X006290Y007688D01*
X006275Y007664D01*
X006258Y007643D01*
X006237Y007625D01*
X006215Y007609D01*
X006190Y007597D01*
X006164Y007589D01*
X006137Y007584D01*
X006109Y007583D01*
X006082Y007586D01*
X006055Y007593D01*
X006030Y007603D01*
X006006Y007617D01*
X005984Y007634D01*
X005965Y007653D01*
X005949Y007676D01*
X005936Y007700D01*
X005927Y007726D01*
X005921Y007753D01*
X005919Y007780D01*
X005919Y010501D02*
X005921Y010528D01*
X005927Y010555D01*
X005936Y010581D01*
X005949Y010605D01*
X005965Y010628D01*
X005984Y010647D01*
X006006Y010664D01*
X006030Y010678D01*
X006055Y010688D01*
X006082Y010695D01*
X006109Y010698D01*
X006137Y010697D01*
X006164Y010692D01*
X006190Y010684D01*
X006214Y010672D01*
X006237Y010656D01*
X006258Y010638D01*
X006275Y010617D01*
X006290Y010593D01*
X006301Y010568D01*
X006309Y010542D01*
X006313Y010515D01*
X006313Y010487D01*
X006309Y010460D01*
X006301Y010434D01*
X006290Y010409D01*
X006275Y010385D01*
X006258Y010364D01*
X006237Y010346D01*
X006215Y010330D01*
X006190Y010318D01*
X006164Y010310D01*
X006137Y010305D01*
X006109Y010304D01*
X006082Y010307D01*
X006055Y010314D01*
X006030Y010324D01*
X006006Y010338D01*
X005984Y010355D01*
X005965Y010374D01*
X005949Y010397D01*
X005936Y010421D01*
X005927Y010447D01*
X005921Y010474D01*
X005919Y010501D01*
X005919Y012469D02*
X005921Y012496D01*
X005927Y012523D01*
X005936Y012549D01*
X005949Y012573D01*
X005965Y012596D01*
X005984Y012615D01*
X006006Y012632D01*
X006030Y012646D01*
X006055Y012656D01*
X006082Y012663D01*
X006109Y012666D01*
X006137Y012665D01*
X006164Y012660D01*
X006190Y012652D01*
X006214Y012640D01*
X006237Y012624D01*
X006258Y012606D01*
X006275Y012585D01*
X006290Y012561D01*
X006301Y012536D01*
X006309Y012510D01*
X006313Y012483D01*
X006313Y012455D01*
X006309Y012428D01*
X006301Y012402D01*
X006290Y012377D01*
X006275Y012353D01*
X006258Y012332D01*
X006237Y012314D01*
X006215Y012298D01*
X006190Y012286D01*
X006164Y012278D01*
X006137Y012273D01*
X006109Y012272D01*
X006082Y012275D01*
X006055Y012282D01*
X006030Y012292D01*
X006006Y012306D01*
X005984Y012323D01*
X005965Y012342D01*
X005949Y012365D01*
X005936Y012389D01*
X005927Y012415D01*
X005921Y012442D01*
X005919Y012469D01*
X005919Y015128D02*
X005921Y015155D01*
X005927Y015182D01*
X005936Y015208D01*
X005949Y015232D01*
X005965Y015255D01*
X005984Y015274D01*
X006006Y015291D01*
X006030Y015305D01*
X006055Y015315D01*
X006082Y015322D01*
X006109Y015325D01*
X006137Y015324D01*
X006164Y015319D01*
X006190Y015311D01*
X006214Y015299D01*
X006237Y015283D01*
X006258Y015265D01*
X006275Y015244D01*
X006290Y015220D01*
X006301Y015195D01*
X006309Y015169D01*
X006313Y015142D01*
X006313Y015114D01*
X006309Y015087D01*
X006301Y015061D01*
X006290Y015036D01*
X006275Y015012D01*
X006258Y014991D01*
X006237Y014973D01*
X006215Y014957D01*
X006190Y014945D01*
X006164Y014937D01*
X006137Y014932D01*
X006109Y014931D01*
X006082Y014934D01*
X006055Y014941D01*
X006030Y014951D01*
X006006Y014965D01*
X005984Y014982D01*
X005965Y015001D01*
X005949Y015024D01*
X005936Y015048D01*
X005927Y015074D01*
X005921Y015101D01*
X005919Y015128D01*
X005919Y017096D02*
X005921Y017123D01*
X005927Y017150D01*
X005936Y017176D01*
X005949Y017200D01*
X005965Y017223D01*
X005984Y017242D01*
X006006Y017259D01*
X006030Y017273D01*
X006055Y017283D01*
X006082Y017290D01*
X006109Y017293D01*
X006137Y017292D01*
X006164Y017287D01*
X006190Y017279D01*
X006214Y017267D01*
X006237Y017251D01*
X006258Y017233D01*
X006275Y017212D01*
X006290Y017188D01*
X006301Y017163D01*
X006309Y017137D01*
X006313Y017110D01*
X006313Y017082D01*
X006309Y017055D01*
X006301Y017029D01*
X006290Y017004D01*
X006275Y016980D01*
X006258Y016959D01*
X006237Y016941D01*
X006215Y016925D01*
X006190Y016913D01*
X006164Y016905D01*
X006137Y016900D01*
X006109Y016899D01*
X006082Y016902D01*
X006055Y016909D01*
X006030Y016919D01*
X006006Y016933D01*
X005984Y016950D01*
X005965Y016969D01*
X005949Y016992D01*
X005936Y017016D01*
X005927Y017042D01*
X005921Y017069D01*
X005919Y017096D01*
X004305Y019629D02*
X004307Y019676D01*
X004313Y019722D01*
X004323Y019768D01*
X004336Y019813D01*
X004354Y019856D01*
X004375Y019898D01*
X004399Y019938D01*
X004427Y019975D01*
X004458Y020010D01*
X004492Y020043D01*
X004528Y020072D01*
X004567Y020098D01*
X004608Y020121D01*
X004651Y020140D01*
X004695Y020156D01*
X004740Y020168D01*
X004786Y020176D01*
X004833Y020180D01*
X004879Y020180D01*
X004926Y020176D01*
X004972Y020168D01*
X005017Y020156D01*
X005061Y020140D01*
X005104Y020121D01*
X005145Y020098D01*
X005184Y020072D01*
X005220Y020043D01*
X005254Y020010D01*
X005285Y019975D01*
X005313Y019938D01*
X005337Y019898D01*
X005358Y019856D01*
X005376Y019813D01*
X005389Y019768D01*
X005399Y019722D01*
X005405Y019676D01*
X005407Y019629D01*
X005405Y019582D01*
X005399Y019536D01*
X005389Y019490D01*
X005376Y019445D01*
X005358Y019402D01*
X005337Y019360D01*
X005313Y019320D01*
X005285Y019283D01*
X005254Y019248D01*
X005220Y019215D01*
X005184Y019186D01*
X005145Y019160D01*
X005104Y019137D01*
X005061Y019118D01*
X005017Y019102D01*
X004972Y019090D01*
X004926Y019082D01*
X004879Y019078D01*
X004833Y019078D01*
X004786Y019082D01*
X004740Y019090D01*
X004695Y019102D01*
X004651Y019118D01*
X004608Y019137D01*
X004567Y019160D01*
X004528Y019186D01*
X004492Y019215D01*
X004458Y019248D01*
X004427Y019283D01*
X004399Y019320D01*
X004375Y019360D01*
X004354Y019402D01*
X004336Y019445D01*
X004323Y019490D01*
X004313Y019536D01*
X004307Y019582D01*
X004305Y019629D01*
X008730Y021360D02*
X008732Y021410D01*
X008738Y021460D01*
X008748Y021509D01*
X008762Y021557D01*
X008779Y021604D01*
X008800Y021649D01*
X008825Y021693D01*
X008853Y021734D01*
X008885Y021773D01*
X008919Y021810D01*
X008956Y021844D01*
X008996Y021874D01*
X009038Y021901D01*
X009082Y021925D01*
X009128Y021946D01*
X009175Y021962D01*
X009223Y021975D01*
X009273Y021984D01*
X009322Y021989D01*
X009373Y021990D01*
X009423Y021987D01*
X009472Y021980D01*
X009521Y021969D01*
X009569Y021954D01*
X009615Y021936D01*
X009660Y021914D01*
X009703Y021888D01*
X009744Y021859D01*
X009783Y021827D01*
X009819Y021792D01*
X009851Y021754D01*
X009881Y021714D01*
X009908Y021671D01*
X009931Y021627D01*
X009950Y021581D01*
X009966Y021533D01*
X009978Y021484D01*
X009986Y021435D01*
X009990Y021385D01*
X009990Y021335D01*
X009986Y021285D01*
X009978Y021236D01*
X009966Y021187D01*
X009950Y021139D01*
X009931Y021093D01*
X009908Y021049D01*
X009881Y021006D01*
X009851Y020966D01*
X009819Y020928D01*
X009783Y020893D01*
X009744Y020861D01*
X009703Y020832D01*
X009660Y020806D01*
X009615Y020784D01*
X009569Y020766D01*
X009521Y020751D01*
X009472Y020740D01*
X009423Y020733D01*
X009373Y020730D01*
X009322Y020731D01*
X009273Y020736D01*
X009223Y020745D01*
X009175Y020758D01*
X009128Y020774D01*
X009082Y020795D01*
X009038Y020819D01*
X008996Y020846D01*
X008956Y020876D01*
X008919Y020910D01*
X008885Y020947D01*
X008853Y020986D01*
X008825Y021027D01*
X008800Y021071D01*
X008779Y021116D01*
X008762Y021163D01*
X008748Y021211D01*
X008738Y021260D01*
X008732Y021310D01*
X008730Y021360D01*
X018104Y019629D02*
X018106Y019676D01*
X018112Y019722D01*
X018122Y019768D01*
X018135Y019813D01*
X018153Y019856D01*
X018174Y019898D01*
X018198Y019938D01*
X018226Y019975D01*
X018257Y020010D01*
X018291Y020043D01*
X018327Y020072D01*
X018366Y020098D01*
X018407Y020121D01*
X018450Y020140D01*
X018494Y020156D01*
X018539Y020168D01*
X018585Y020176D01*
X018632Y020180D01*
X018678Y020180D01*
X018725Y020176D01*
X018771Y020168D01*
X018816Y020156D01*
X018860Y020140D01*
X018903Y020121D01*
X018944Y020098D01*
X018983Y020072D01*
X019019Y020043D01*
X019053Y020010D01*
X019084Y019975D01*
X019112Y019938D01*
X019136Y019898D01*
X019157Y019856D01*
X019175Y019813D01*
X019188Y019768D01*
X019198Y019722D01*
X019204Y019676D01*
X019206Y019629D01*
X019204Y019582D01*
X019198Y019536D01*
X019188Y019490D01*
X019175Y019445D01*
X019157Y019402D01*
X019136Y019360D01*
X019112Y019320D01*
X019084Y019283D01*
X019053Y019248D01*
X019019Y019215D01*
X018983Y019186D01*
X018944Y019160D01*
X018903Y019137D01*
X018860Y019118D01*
X018816Y019102D01*
X018771Y019090D01*
X018725Y019082D01*
X018678Y019078D01*
X018632Y019078D01*
X018585Y019082D01*
X018539Y019090D01*
X018494Y019102D01*
X018450Y019118D01*
X018407Y019137D01*
X018366Y019160D01*
X018327Y019186D01*
X018291Y019215D01*
X018257Y019248D01*
X018226Y019283D01*
X018198Y019320D01*
X018174Y019360D01*
X018153Y019402D01*
X018135Y019445D01*
X018122Y019490D01*
X018112Y019536D01*
X018106Y019582D01*
X018104Y019629D01*
X028730Y015360D02*
X028732Y015410D01*
X028738Y015460D01*
X028748Y015509D01*
X028762Y015557D01*
X028779Y015604D01*
X028800Y015649D01*
X028825Y015693D01*
X028853Y015734D01*
X028885Y015773D01*
X028919Y015810D01*
X028956Y015844D01*
X028996Y015874D01*
X029038Y015901D01*
X029082Y015925D01*
X029128Y015946D01*
X029175Y015962D01*
X029223Y015975D01*
X029273Y015984D01*
X029322Y015989D01*
X029373Y015990D01*
X029423Y015987D01*
X029472Y015980D01*
X029521Y015969D01*
X029569Y015954D01*
X029615Y015936D01*
X029660Y015914D01*
X029703Y015888D01*
X029744Y015859D01*
X029783Y015827D01*
X029819Y015792D01*
X029851Y015754D01*
X029881Y015714D01*
X029908Y015671D01*
X029931Y015627D01*
X029950Y015581D01*
X029966Y015533D01*
X029978Y015484D01*
X029986Y015435D01*
X029990Y015385D01*
X029990Y015335D01*
X029986Y015285D01*
X029978Y015236D01*
X029966Y015187D01*
X029950Y015139D01*
X029931Y015093D01*
X029908Y015049D01*
X029881Y015006D01*
X029851Y014966D01*
X029819Y014928D01*
X029783Y014893D01*
X029744Y014861D01*
X029703Y014832D01*
X029660Y014806D01*
X029615Y014784D01*
X029569Y014766D01*
X029521Y014751D01*
X029472Y014740D01*
X029423Y014733D01*
X029373Y014730D01*
X029322Y014731D01*
X029273Y014736D01*
X029223Y014745D01*
X029175Y014758D01*
X029128Y014774D01*
X029082Y014795D01*
X029038Y014819D01*
X028996Y014846D01*
X028956Y014876D01*
X028919Y014910D01*
X028885Y014947D01*
X028853Y014986D01*
X028825Y015027D01*
X028800Y015071D01*
X028779Y015116D01*
X028762Y015163D01*
X028748Y015211D01*
X028738Y015260D01*
X028732Y015310D01*
X028730Y015360D01*
X028730Y004360D02*
X028732Y004410D01*
X028738Y004460D01*
X028748Y004509D01*
X028762Y004557D01*
X028779Y004604D01*
X028800Y004649D01*
X028825Y004693D01*
X028853Y004734D01*
X028885Y004773D01*
X028919Y004810D01*
X028956Y004844D01*
X028996Y004874D01*
X029038Y004901D01*
X029082Y004925D01*
X029128Y004946D01*
X029175Y004962D01*
X029223Y004975D01*
X029273Y004984D01*
X029322Y004989D01*
X029373Y004990D01*
X029423Y004987D01*
X029472Y004980D01*
X029521Y004969D01*
X029569Y004954D01*
X029615Y004936D01*
X029660Y004914D01*
X029703Y004888D01*
X029744Y004859D01*
X029783Y004827D01*
X029819Y004792D01*
X029851Y004754D01*
X029881Y004714D01*
X029908Y004671D01*
X029931Y004627D01*
X029950Y004581D01*
X029966Y004533D01*
X029978Y004484D01*
X029986Y004435D01*
X029990Y004385D01*
X029990Y004335D01*
X029986Y004285D01*
X029978Y004236D01*
X029966Y004187D01*
X029950Y004139D01*
X029931Y004093D01*
X029908Y004049D01*
X029881Y004006D01*
X029851Y003966D01*
X029819Y003928D01*
X029783Y003893D01*
X029744Y003861D01*
X029703Y003832D01*
X029660Y003806D01*
X029615Y003784D01*
X029569Y003766D01*
X029521Y003751D01*
X029472Y003740D01*
X029423Y003733D01*
X029373Y003730D01*
X029322Y003731D01*
X029273Y003736D01*
X029223Y003745D01*
X029175Y003758D01*
X029128Y003774D01*
X029082Y003795D01*
X029038Y003819D01*
X028996Y003846D01*
X028956Y003876D01*
X028919Y003910D01*
X028885Y003947D01*
X028853Y003986D01*
X028825Y004027D01*
X028800Y004071D01*
X028779Y004116D01*
X028762Y004163D01*
X028748Y004211D01*
X028738Y004260D01*
X028732Y004310D01*
X028730Y004360D01*
X018104Y003896D02*
X018106Y003943D01*
X018112Y003989D01*
X018122Y004035D01*
X018135Y004080D01*
X018153Y004123D01*
X018174Y004165D01*
X018198Y004205D01*
X018226Y004242D01*
X018257Y004277D01*
X018291Y004310D01*
X018327Y004339D01*
X018366Y004365D01*
X018407Y004388D01*
X018450Y004407D01*
X018494Y004423D01*
X018539Y004435D01*
X018585Y004443D01*
X018632Y004447D01*
X018678Y004447D01*
X018725Y004443D01*
X018771Y004435D01*
X018816Y004423D01*
X018860Y004407D01*
X018903Y004388D01*
X018944Y004365D01*
X018983Y004339D01*
X019019Y004310D01*
X019053Y004277D01*
X019084Y004242D01*
X019112Y004205D01*
X019136Y004165D01*
X019157Y004123D01*
X019175Y004080D01*
X019188Y004035D01*
X019198Y003989D01*
X019204Y003943D01*
X019206Y003896D01*
X019204Y003849D01*
X019198Y003803D01*
X019188Y003757D01*
X019175Y003712D01*
X019157Y003669D01*
X019136Y003627D01*
X019112Y003587D01*
X019084Y003550D01*
X019053Y003515D01*
X019019Y003482D01*
X018983Y003453D01*
X018944Y003427D01*
X018903Y003404D01*
X018860Y003385D01*
X018816Y003369D01*
X018771Y003357D01*
X018725Y003349D01*
X018678Y003345D01*
X018632Y003345D01*
X018585Y003349D01*
X018539Y003357D01*
X018494Y003369D01*
X018450Y003385D01*
X018407Y003404D01*
X018366Y003427D01*
X018327Y003453D01*
X018291Y003482D01*
X018257Y003515D01*
X018226Y003550D01*
X018198Y003587D01*
X018174Y003627D01*
X018153Y003669D01*
X018135Y003712D01*
X018122Y003757D01*
X018112Y003803D01*
X018106Y003849D01*
X018104Y003896D01*
D11*
X029360Y001360D02*
X003360Y001360D01*
X003360Y022360D01*
X028760Y022360D01*
X029360Y021760D01*
X029360Y017260D01*
X030360Y016260D01*
X030360Y014360D01*
X027860Y014360D01*
X027860Y009660D01*
X030360Y009660D01*
X030360Y003360D01*
X029360Y002360D01*
X029360Y001360D01*
D12*
X020880Y005473D02*
X020749Y005341D01*
X020353Y005341D01*
X020353Y006132D01*
X020353Y005869D02*
X020749Y005869D01*
X020880Y005737D01*
X020880Y005473D01*
X020089Y005473D02*
X020089Y005737D01*
X019957Y005869D01*
X019693Y005869D01*
X019561Y005737D01*
X019561Y005605D01*
X020089Y005605D01*
X020089Y005473D02*
X019957Y005341D01*
X019693Y005341D01*
X019297Y005869D02*
X019033Y005341D01*
X018770Y005869D01*
X018505Y005869D02*
X018373Y005869D01*
X018373Y005341D01*
X018505Y005341D02*
X018241Y005341D01*
X017977Y005473D02*
X017845Y005341D01*
X017450Y005341D01*
X017977Y005473D02*
X017977Y005737D01*
X017845Y005869D01*
X017450Y005869D01*
X017185Y005869D02*
X016921Y005869D01*
X017053Y006000D02*
X017053Y005473D01*
X016921Y005341D01*
X016657Y005473D02*
X016657Y005737D01*
X016525Y005869D01*
X016262Y005869D01*
X016130Y005737D01*
X016130Y005605D01*
X016657Y005605D01*
X016657Y005473D02*
X016525Y005341D01*
X016262Y005341D01*
X015865Y005341D02*
X015865Y005869D01*
X015602Y005869D02*
X015865Y005605D01*
X015602Y005869D02*
X015470Y005869D01*
X015205Y005473D02*
X015074Y005473D01*
X015074Y005341D01*
X015205Y005341D01*
X015205Y005473D01*
X014809Y005341D02*
X014809Y005869D01*
X014546Y005869D02*
X014414Y005869D01*
X014546Y005869D02*
X014809Y005605D01*
X014150Y005473D02*
X014018Y005341D01*
X013622Y005341D01*
X013622Y005869D01*
X014150Y005869D02*
X014150Y005473D01*
X018373Y006132D02*
X018373Y006264D01*
D13*
X018295Y007685D02*
X018662Y007685D01*
X018478Y007685D02*
X018478Y008419D01*
X018662Y008419D01*
X019033Y008235D02*
X019033Y007685D01*
X019033Y008235D02*
X019216Y008419D01*
X019583Y008419D01*
X019767Y008235D01*
X020138Y008052D02*
X020138Y007868D01*
X020321Y007685D01*
X020688Y007685D01*
X020872Y007868D01*
X020688Y008235D02*
X020321Y008235D01*
X020138Y008052D01*
X020688Y008235D02*
X020872Y008419D01*
X020872Y008602D01*
X020688Y008786D01*
X020321Y008786D01*
X020138Y008602D01*
X019767Y008786D02*
X019767Y007685D01*
X018478Y008786D02*
X018478Y008969D01*
X018455Y009525D02*
X018088Y009525D01*
X017904Y009892D02*
X018638Y009892D01*
X018638Y010075D02*
X018638Y009708D01*
X018455Y009525D01*
X019009Y009525D02*
X019009Y010075D01*
X019193Y010259D01*
X019743Y010259D01*
X019743Y009525D01*
X020114Y009525D02*
X020848Y009525D01*
X020848Y010626D01*
X020114Y010626D01*
X020481Y010075D02*
X020848Y010075D01*
X018638Y010075D02*
X018455Y010259D01*
X018088Y010259D01*
X017904Y010075D01*
X017904Y009892D01*
X017533Y009892D02*
X017166Y010259D01*
X016983Y010259D01*
X016613Y010075D02*
X016613Y009708D01*
X016429Y009525D01*
X015879Y009525D01*
X015879Y009341D02*
X015879Y010259D01*
X016429Y010259D01*
X016613Y010075D01*
X017533Y010259D02*
X017533Y009525D01*
X016820Y008786D02*
X016637Y008786D01*
X016637Y007685D01*
X016820Y007685D02*
X016453Y007685D01*
X016084Y007868D02*
X016084Y008235D01*
X015900Y008419D01*
X015350Y008419D01*
X015350Y008786D02*
X015350Y007685D01*
X015900Y007685D01*
X016084Y007868D01*
X017191Y008052D02*
X017925Y008052D01*
X017925Y008235D02*
X017742Y008419D01*
X017375Y008419D01*
X017191Y008235D01*
X017191Y008052D01*
X017375Y007685D02*
X017742Y007685D01*
X017925Y007868D01*
X017925Y008235D01*
X016246Y009158D02*
X016062Y009158D01*
X015879Y009341D01*
X015508Y009708D02*
X015324Y009525D01*
X014774Y009525D01*
X014774Y009341D02*
X014957Y009158D01*
X015141Y009158D01*
X014774Y009341D02*
X014774Y010259D01*
X015508Y010259D02*
X015508Y009708D01*
X013874Y008786D02*
X013323Y008786D01*
X013140Y008602D01*
X013140Y008235D01*
X013323Y008052D01*
X013874Y008052D01*
X013874Y007685D02*
X013874Y008786D01*
X013298Y009525D02*
X013298Y010626D01*
X012931Y010259D01*
X012564Y010626D01*
X012564Y009525D01*
X012193Y009708D02*
X012009Y009525D01*
X011642Y009525D01*
X011459Y009708D01*
X011459Y010075D01*
X011642Y010259D01*
X012009Y010259D01*
X012193Y010075D01*
X012193Y009708D01*
X012218Y008786D02*
X012035Y008602D01*
X012035Y008419D01*
X012218Y008235D01*
X012035Y008052D01*
X012035Y007868D01*
X012218Y007685D01*
X012585Y007685D01*
X012769Y007868D01*
X012402Y008235D02*
X012218Y008235D01*
X012769Y008602D02*
X012585Y008786D01*
X012218Y008786D01*
X011088Y009525D02*
X011088Y010259D01*
X010537Y010259D01*
X010354Y010075D01*
X010354Y009525D01*
X009983Y009525D02*
X009616Y009525D01*
X009799Y009525D02*
X009799Y010259D01*
X009983Y010259D01*
X009799Y010626D02*
X009799Y010809D01*
X009246Y010259D02*
X008879Y010259D01*
X009063Y010442D02*
X009063Y009708D01*
X008879Y009525D01*
X008510Y009708D02*
X008326Y009525D01*
X007959Y009525D01*
X007776Y009708D01*
X007776Y010075D01*
X007959Y010259D01*
X008326Y010259D01*
X008510Y010075D01*
X008510Y009708D01*
X007405Y009525D02*
X007405Y010259D01*
X007405Y009892D02*
X007038Y010259D01*
X006854Y010259D01*
D14*
X005496Y011133D02*
X005149Y011653D01*
X004981Y011566D02*
X004894Y011653D01*
X004720Y011653D01*
X004634Y011566D01*
X004634Y011479D01*
X004981Y011133D01*
X004634Y011133D01*
X005149Y011133D02*
X005496Y011653D01*
X010083Y008833D02*
X010083Y008313D01*
X009910Y008313D02*
X010257Y008313D01*
X010428Y008313D02*
X010515Y008313D01*
X010515Y008400D01*
X010428Y008400D01*
X010428Y008313D01*
X010683Y008313D02*
X011030Y008313D01*
X010857Y008313D02*
X010857Y008833D01*
X011030Y008660D01*
X011199Y008660D02*
X011372Y008313D01*
X011546Y008660D01*
X010257Y008660D02*
X010083Y008833D01*
X010208Y007241D02*
X010121Y007154D01*
X010121Y006894D01*
X010381Y006894D01*
X010468Y006981D01*
X010381Y007068D01*
X010121Y007068D01*
X009952Y007068D02*
X009779Y007241D01*
X009692Y007241D01*
X009523Y007154D02*
X009436Y007241D01*
X009262Y007241D01*
X009176Y007154D01*
X009176Y007068D01*
X009523Y007068D01*
X009523Y007154D02*
X009523Y006981D01*
X009436Y006894D01*
X009262Y006894D01*
X009952Y006894D02*
X009952Y007241D01*
X010208Y007241D02*
X010381Y007241D01*
X010637Y007241D02*
X010637Y006981D01*
X010723Y006894D01*
X010810Y006981D01*
X010897Y006894D01*
X010984Y006981D01*
X010984Y007241D01*
X011152Y007154D02*
X011152Y006894D01*
X011326Y006894D02*
X011326Y007154D01*
X011239Y007241D01*
X011152Y007154D01*
X011326Y007154D02*
X011412Y007241D01*
X011499Y007241D01*
X011499Y006894D01*
X011669Y007241D02*
X011755Y007241D01*
X011929Y007068D01*
X011929Y007241D02*
X011929Y006894D01*
X012099Y006894D02*
X012273Y006894D01*
X012186Y006894D02*
X012186Y007241D01*
X012273Y007241D01*
X012443Y007154D02*
X012616Y007154D01*
X012530Y007328D02*
X012443Y007415D01*
X012530Y007328D02*
X012530Y006894D01*
X012186Y007415D02*
X012186Y007501D01*
X013301Y007241D02*
X013301Y006894D01*
X013301Y007154D02*
X013648Y007154D01*
X013648Y007241D02*
X013474Y007415D01*
X013301Y007241D01*
X013648Y007241D02*
X013648Y006894D01*
X013990Y006894D02*
X013990Y007415D01*
X014163Y007415D02*
X013816Y007415D01*
X014332Y007328D02*
X014332Y006981D01*
X014419Y006894D01*
X014592Y006894D01*
X014679Y006981D01*
X014679Y007328D01*
X014592Y007415D01*
X014419Y007415D01*
X014332Y007328D01*
X015365Y007241D02*
X015538Y007241D01*
X015452Y007328D02*
X015452Y006981D01*
X015365Y006894D01*
X015708Y007241D02*
X015795Y007241D01*
X015968Y007068D01*
X015968Y007241D02*
X015968Y006894D01*
X016137Y006981D02*
X016137Y007154D01*
X016223Y007241D01*
X016397Y007241D01*
X016484Y007154D01*
X016484Y006981D01*
X016397Y006894D01*
X016223Y006894D01*
X016137Y006981D01*
X016652Y006981D02*
X016739Y006894D01*
X016999Y006894D01*
X016999Y006721D02*
X016999Y007241D01*
X016739Y007241D01*
X016652Y007154D01*
X016652Y006981D01*
X017168Y006981D02*
X017255Y006894D01*
X017515Y006894D01*
X017684Y006894D02*
X017684Y007241D01*
X017515Y007241D02*
X017255Y007241D01*
X017168Y007154D01*
X017168Y006981D01*
X017515Y006721D02*
X017515Y007241D01*
X018031Y007241D02*
X018031Y006981D01*
X017944Y006894D01*
X017684Y006894D01*
X018199Y006981D02*
X018286Y006894D01*
X018546Y006894D01*
X018460Y007068D02*
X018286Y007068D01*
X018199Y006981D01*
X018199Y007241D02*
X018460Y007241D01*
X018546Y007154D01*
X018460Y007068D01*
X019231Y007154D02*
X019231Y006894D01*
X019231Y007154D02*
X019317Y007241D01*
X019491Y007241D01*
X019578Y007154D01*
X019748Y007241D02*
X019921Y007241D01*
X019835Y007328D02*
X019835Y006981D01*
X019748Y006894D01*
X019578Y006894D02*
X019578Y007415D01*
X020178Y007415D02*
X020178Y007501D01*
X020178Y007241D02*
X020178Y006894D01*
X020092Y006894D02*
X020265Y006894D01*
X020434Y006981D02*
X020434Y007241D01*
X020265Y007241D02*
X020178Y007241D01*
X020434Y006981D02*
X020520Y006894D01*
X020607Y006981D01*
X020694Y006894D01*
X020781Y006981D01*
X020781Y007241D01*
X018453Y004851D02*
X018280Y005025D01*
X018280Y004504D01*
X018453Y004504D02*
X018106Y004504D01*
X017938Y004591D02*
X017938Y004678D01*
X017851Y004764D01*
X017677Y004764D01*
X017591Y004678D01*
X017591Y004591D01*
X017677Y004504D01*
X017851Y004504D01*
X017938Y004591D01*
X017851Y004764D02*
X017938Y004851D01*
X017938Y004938D01*
X017851Y005025D01*
X017677Y005025D01*
X017591Y004938D01*
X017591Y004851D01*
X017677Y004764D01*
X017422Y004504D02*
X017075Y005025D01*
X016906Y004851D02*
X016733Y005025D01*
X016733Y004504D01*
X016906Y004504D02*
X016559Y004504D01*
X016391Y004504D02*
X016044Y004504D01*
X015875Y004504D02*
X015528Y005025D01*
X015359Y004938D02*
X015273Y005025D01*
X015099Y005025D01*
X015012Y004938D01*
X015012Y004851D01*
X015359Y004504D01*
X015012Y004504D01*
X014844Y004591D02*
X014497Y004938D01*
X014497Y004591D01*
X014584Y004504D01*
X014757Y004504D01*
X014844Y004591D01*
X014844Y004938D01*
X014757Y005025D01*
X014584Y005025D01*
X014497Y004938D01*
X014328Y004851D02*
X014155Y005025D01*
X014155Y004504D01*
X014328Y004504D02*
X013981Y004504D01*
X013813Y004591D02*
X013726Y004504D01*
X013552Y004504D01*
X013466Y004591D01*
X013466Y004764D01*
X013552Y004851D01*
X013639Y004851D01*
X013813Y004764D01*
X013813Y005025D01*
X013466Y005025D01*
X016217Y005025D02*
X016217Y004504D01*
X016391Y004851D02*
X016217Y005025D01*
X015002Y002515D02*
X015002Y001994D01*
X014742Y001994D01*
X014656Y002081D01*
X014656Y002254D01*
X014742Y002341D01*
X015002Y002341D01*
X014487Y002341D02*
X014487Y002081D01*
X014400Y001994D01*
X014140Y001994D01*
X014140Y001907D02*
X014227Y001821D01*
X014313Y001821D01*
X014140Y001907D02*
X014140Y002341D01*
X013456Y002341D02*
X013456Y002081D01*
X013369Y001994D01*
X013109Y001994D01*
X013109Y002341D01*
X012940Y002254D02*
X012853Y002341D01*
X012593Y002341D01*
X012424Y002341D02*
X012251Y002341D01*
X012338Y002428D02*
X012338Y002081D01*
X012251Y001994D01*
X012081Y002081D02*
X011994Y002168D01*
X011734Y002168D01*
X011734Y002254D02*
X011734Y001994D01*
X011994Y001994D01*
X012081Y002081D01*
X011994Y002341D02*
X011820Y002341D01*
X011734Y002254D01*
X011565Y002254D02*
X011478Y002341D01*
X011218Y002341D01*
X011049Y002428D02*
X011049Y002081D01*
X010963Y001994D01*
X010789Y001994D01*
X010702Y002081D01*
X010789Y002168D02*
X010789Y002341D01*
X010963Y002341D01*
X010963Y002168D01*
X010789Y002168D01*
X010702Y002254D01*
X010702Y002428D01*
X010789Y002515D01*
X010963Y002515D01*
X011049Y002428D01*
X011305Y002168D02*
X011478Y002168D01*
X011565Y002254D01*
X011565Y001994D02*
X011305Y001994D01*
X011218Y002081D01*
X011305Y002168D01*
X010534Y001994D02*
X010534Y002341D01*
X010447Y002341D01*
X010360Y002254D01*
X010273Y002341D01*
X010187Y002254D01*
X010187Y001994D01*
X010360Y001994D02*
X010360Y002254D01*
X010018Y002254D02*
X010018Y002081D01*
X009931Y001994D01*
X009671Y001994D01*
X009502Y002081D02*
X009502Y002341D01*
X009671Y002341D02*
X009931Y002341D01*
X010018Y002254D01*
X009502Y002081D02*
X009416Y001994D01*
X009155Y001994D01*
X009155Y002341D01*
X008987Y002254D02*
X008987Y002081D01*
X008900Y001994D01*
X008640Y001994D01*
X008640Y001907D02*
X008640Y002341D01*
X008900Y002341D01*
X008987Y002254D01*
X008813Y001821D02*
X008726Y001821D01*
X008640Y001907D01*
X008471Y002081D02*
X008384Y001994D01*
X008124Y001994D01*
X008124Y002341D01*
X007955Y002341D02*
X007955Y001994D01*
X007955Y002168D02*
X007782Y002341D01*
X007695Y002341D01*
X007526Y002341D02*
X007526Y002081D01*
X007439Y001994D01*
X007179Y001994D01*
X007179Y002341D01*
X007010Y002081D02*
X006923Y002081D01*
X006923Y001994D01*
X007010Y001994D01*
X007010Y002081D01*
X006752Y002168D02*
X006579Y002341D01*
X006492Y002341D01*
X006323Y002341D02*
X006323Y002081D01*
X006236Y001994D01*
X005976Y001994D01*
X005976Y002341D01*
X006752Y002341D02*
X006752Y001994D01*
X008471Y002081D02*
X008471Y002341D01*
X012593Y002081D02*
X012680Y002168D01*
X012853Y002168D01*
X012940Y002254D01*
X012940Y001994D02*
X012680Y001994D01*
X012593Y002081D01*
X005434Y006381D02*
X005087Y006901D01*
X004918Y006727D02*
X004745Y006901D01*
X004745Y006381D01*
X004918Y006381D02*
X004571Y006381D01*
X005087Y006381D02*
X005434Y006901D01*
X005434Y015759D02*
X005087Y016280D01*
X004918Y016193D02*
X004831Y016280D01*
X004658Y016280D01*
X004571Y016193D01*
X004571Y016106D01*
X004658Y016020D01*
X004571Y015933D01*
X004571Y015846D01*
X004658Y015759D01*
X004831Y015759D01*
X004918Y015846D01*
X005087Y015759D02*
X005434Y016280D01*
X004745Y016020D02*
X004658Y016020D01*
D15*
X023210Y009010D03*
X023410Y007610D03*
D16*
X023010Y007010D03*
X022010Y007210D03*
D17*
X022260Y008060D03*
D18*
X021960Y008360D02*
X021560Y008860D01*
X022660Y008460D02*
X023060Y008860D01*
D19*
X021560Y008860D03*
D20*
X023110Y008910D03*
D21*
X028760Y008160D02*
X028760Y006585D01*
X029154Y005935D02*
X030335Y005935D01*
X030335Y008810D01*
X029154Y008810D01*
D22*
X008564Y008065D02*
X008564Y007922D01*
X008374Y007902D01*
X008353Y007838D01*
X008322Y007778D01*
X008443Y007630D01*
X008342Y007528D01*
X008193Y007649D01*
X008133Y007618D01*
X008049Y007823D01*
X008086Y007844D01*
X008118Y007874D01*
X008142Y007910D01*
X008157Y007950D01*
X008163Y007994D01*
X008157Y008037D01*
X008142Y008079D01*
X008117Y008115D01*
X008084Y008145D01*
X008045Y008165D01*
X008002Y008176D01*
X007958Y008177D01*
X007915Y008167D01*
X007875Y008147D01*
X007842Y008118D01*
X007816Y008082D01*
X007800Y008041D01*
X007793Y007998D01*
X007798Y007954D01*
X007812Y007912D01*
X007837Y007875D01*
X007869Y007845D01*
X007907Y007823D01*
X007823Y007618D01*
X007763Y007649D01*
X007614Y007528D01*
X007513Y007630D01*
X007634Y007778D01*
X007603Y007838D01*
X007582Y007902D01*
X007392Y007922D01*
X007392Y008065D01*
X007582Y008085D01*
X007603Y008149D01*
X007634Y008209D01*
X007513Y008357D01*
X007614Y008459D01*
X007763Y008338D01*
X007823Y008369D01*
X007887Y008389D01*
X007906Y008580D01*
X008050Y008580D01*
X008069Y008389D01*
X008133Y008369D01*
X008193Y008338D01*
X008342Y008459D01*
X008443Y008357D01*
X008322Y008209D01*
X008353Y008149D01*
X008374Y008085D01*
X008564Y008065D01*
X008564Y008029D02*
X008158Y008029D01*
X008160Y007972D02*
X008564Y007972D01*
X008492Y007914D02*
X008144Y007914D01*
X008100Y007857D02*
X008359Y007857D01*
X008333Y007799D02*
X008058Y007799D01*
X008082Y007742D02*
X008352Y007742D01*
X008399Y007684D02*
X008106Y007684D01*
X008130Y007626D02*
X008149Y007626D01*
X008221Y007626D02*
X008440Y007626D01*
X008382Y007569D02*
X008292Y007569D01*
X007874Y007742D02*
X007604Y007742D01*
X007623Y007799D02*
X007897Y007799D01*
X007856Y007857D02*
X007597Y007857D01*
X007464Y007914D02*
X007812Y007914D01*
X007796Y007972D02*
X007392Y007972D01*
X007392Y008029D02*
X007798Y008029D01*
X007819Y008087D02*
X007583Y008087D01*
X007601Y008144D02*
X007873Y008144D01*
X008084Y008144D02*
X008354Y008144D01*
X008373Y008087D02*
X008136Y008087D01*
X008326Y008202D02*
X007630Y008202D01*
X007592Y008260D02*
X008364Y008260D01*
X008411Y008317D02*
X007545Y008317D01*
X007530Y008375D02*
X007718Y008375D01*
X007647Y008432D02*
X007588Y008432D01*
X007841Y008375D02*
X008115Y008375D01*
X008065Y008432D02*
X007891Y008432D01*
X007897Y008490D02*
X008059Y008490D01*
X008053Y008547D02*
X007903Y008547D01*
X008238Y008375D02*
X008426Y008375D01*
X008368Y008432D02*
X008309Y008432D01*
X007850Y007684D02*
X007557Y007684D01*
X007516Y007626D02*
X007735Y007626D01*
X007807Y007626D02*
X007826Y007626D01*
X007664Y007569D02*
X007574Y007569D01*
M02*
