G75*
G70*
%OFA0B0*%
%FSLAX24Y24*%
%IPPOS*%
%LPD*%
%AMOC8*
5,1,8,0,0,1.08239X$1,22.5*
%
%ADD10C,0.0000*%
%ADD11C,0.1300*%
%ADD12C,0.0050*%
%ADD13R,0.0740X0.0740*%
%ADD14C,0.0740*%
%ADD15C,0.0350*%
%ADD16C,0.0500*%
%ADD17C,0.0434*%
%ADD18R,0.0555X0.0555*%
%ADD19C,0.0555*%
%ADD20C,0.1142*%
%ADD21C,0.0437*%
D10*
X004305Y003896D02*
X004307Y003943D01*
X004313Y003989D01*
X004323Y004035D01*
X004336Y004080D01*
X004354Y004123D01*
X004375Y004165D01*
X004399Y004205D01*
X004427Y004242D01*
X004458Y004277D01*
X004492Y004310D01*
X004528Y004339D01*
X004567Y004365D01*
X004608Y004388D01*
X004651Y004407D01*
X004695Y004423D01*
X004740Y004435D01*
X004786Y004443D01*
X004833Y004447D01*
X004879Y004447D01*
X004926Y004443D01*
X004972Y004435D01*
X005017Y004423D01*
X005061Y004407D01*
X005104Y004388D01*
X005145Y004365D01*
X005184Y004339D01*
X005220Y004310D01*
X005254Y004277D01*
X005285Y004242D01*
X005313Y004205D01*
X005337Y004165D01*
X005358Y004123D01*
X005376Y004080D01*
X005389Y004035D01*
X005399Y003989D01*
X005405Y003943D01*
X005407Y003896D01*
X005405Y003849D01*
X005399Y003803D01*
X005389Y003757D01*
X005376Y003712D01*
X005358Y003669D01*
X005337Y003627D01*
X005313Y003587D01*
X005285Y003550D01*
X005254Y003515D01*
X005220Y003482D01*
X005184Y003453D01*
X005145Y003427D01*
X005104Y003404D01*
X005061Y003385D01*
X005017Y003369D01*
X004972Y003357D01*
X004926Y003349D01*
X004879Y003345D01*
X004833Y003345D01*
X004786Y003349D01*
X004740Y003357D01*
X004695Y003369D01*
X004651Y003385D01*
X004608Y003404D01*
X004567Y003427D01*
X004528Y003453D01*
X004492Y003482D01*
X004458Y003515D01*
X004427Y003550D01*
X004399Y003587D01*
X004375Y003627D01*
X004354Y003669D01*
X004336Y003712D01*
X004323Y003757D01*
X004313Y003803D01*
X004307Y003849D01*
X004305Y003896D01*
X005919Y005811D02*
X005921Y005838D01*
X005927Y005865D01*
X005936Y005891D01*
X005949Y005915D01*
X005965Y005938D01*
X005984Y005957D01*
X006006Y005974D01*
X006030Y005988D01*
X006055Y005998D01*
X006082Y006005D01*
X006109Y006008D01*
X006137Y006007D01*
X006164Y006002D01*
X006190Y005994D01*
X006214Y005982D01*
X006237Y005966D01*
X006258Y005948D01*
X006275Y005927D01*
X006290Y005903D01*
X006301Y005878D01*
X006309Y005852D01*
X006313Y005825D01*
X006313Y005797D01*
X006309Y005770D01*
X006301Y005744D01*
X006290Y005719D01*
X006275Y005695D01*
X006258Y005674D01*
X006237Y005656D01*
X006215Y005640D01*
X006190Y005628D01*
X006164Y005620D01*
X006137Y005615D01*
X006109Y005614D01*
X006082Y005617D01*
X006055Y005624D01*
X006030Y005634D01*
X006006Y005648D01*
X005984Y005665D01*
X005965Y005684D01*
X005949Y005707D01*
X005936Y005731D01*
X005927Y005757D01*
X005921Y005784D01*
X005919Y005811D01*
X005919Y007780D02*
X005921Y007807D01*
X005927Y007834D01*
X005936Y007860D01*
X005949Y007884D01*
X005965Y007907D01*
X005984Y007926D01*
X006006Y007943D01*
X006030Y007957D01*
X006055Y007967D01*
X006082Y007974D01*
X006109Y007977D01*
X006137Y007976D01*
X006164Y007971D01*
X006190Y007963D01*
X006214Y007951D01*
X006237Y007935D01*
X006258Y007917D01*
X006275Y007896D01*
X006290Y007872D01*
X006301Y007847D01*
X006309Y007821D01*
X006313Y007794D01*
X006313Y007766D01*
X006309Y007739D01*
X006301Y007713D01*
X006290Y007688D01*
X006275Y007664D01*
X006258Y007643D01*
X006237Y007625D01*
X006215Y007609D01*
X006190Y007597D01*
X006164Y007589D01*
X006137Y007584D01*
X006109Y007583D01*
X006082Y007586D01*
X006055Y007593D01*
X006030Y007603D01*
X006006Y007617D01*
X005984Y007634D01*
X005965Y007653D01*
X005949Y007676D01*
X005936Y007700D01*
X005927Y007726D01*
X005921Y007753D01*
X005919Y007780D01*
X005919Y010501D02*
X005921Y010528D01*
X005927Y010555D01*
X005936Y010581D01*
X005949Y010605D01*
X005965Y010628D01*
X005984Y010647D01*
X006006Y010664D01*
X006030Y010678D01*
X006055Y010688D01*
X006082Y010695D01*
X006109Y010698D01*
X006137Y010697D01*
X006164Y010692D01*
X006190Y010684D01*
X006214Y010672D01*
X006237Y010656D01*
X006258Y010638D01*
X006275Y010617D01*
X006290Y010593D01*
X006301Y010568D01*
X006309Y010542D01*
X006313Y010515D01*
X006313Y010487D01*
X006309Y010460D01*
X006301Y010434D01*
X006290Y010409D01*
X006275Y010385D01*
X006258Y010364D01*
X006237Y010346D01*
X006215Y010330D01*
X006190Y010318D01*
X006164Y010310D01*
X006137Y010305D01*
X006109Y010304D01*
X006082Y010307D01*
X006055Y010314D01*
X006030Y010324D01*
X006006Y010338D01*
X005984Y010355D01*
X005965Y010374D01*
X005949Y010397D01*
X005936Y010421D01*
X005927Y010447D01*
X005921Y010474D01*
X005919Y010501D01*
X005919Y012469D02*
X005921Y012496D01*
X005927Y012523D01*
X005936Y012549D01*
X005949Y012573D01*
X005965Y012596D01*
X005984Y012615D01*
X006006Y012632D01*
X006030Y012646D01*
X006055Y012656D01*
X006082Y012663D01*
X006109Y012666D01*
X006137Y012665D01*
X006164Y012660D01*
X006190Y012652D01*
X006214Y012640D01*
X006237Y012624D01*
X006258Y012606D01*
X006275Y012585D01*
X006290Y012561D01*
X006301Y012536D01*
X006309Y012510D01*
X006313Y012483D01*
X006313Y012455D01*
X006309Y012428D01*
X006301Y012402D01*
X006290Y012377D01*
X006275Y012353D01*
X006258Y012332D01*
X006237Y012314D01*
X006215Y012298D01*
X006190Y012286D01*
X006164Y012278D01*
X006137Y012273D01*
X006109Y012272D01*
X006082Y012275D01*
X006055Y012282D01*
X006030Y012292D01*
X006006Y012306D01*
X005984Y012323D01*
X005965Y012342D01*
X005949Y012365D01*
X005936Y012389D01*
X005927Y012415D01*
X005921Y012442D01*
X005919Y012469D01*
X005919Y015128D02*
X005921Y015155D01*
X005927Y015182D01*
X005936Y015208D01*
X005949Y015232D01*
X005965Y015255D01*
X005984Y015274D01*
X006006Y015291D01*
X006030Y015305D01*
X006055Y015315D01*
X006082Y015322D01*
X006109Y015325D01*
X006137Y015324D01*
X006164Y015319D01*
X006190Y015311D01*
X006214Y015299D01*
X006237Y015283D01*
X006258Y015265D01*
X006275Y015244D01*
X006290Y015220D01*
X006301Y015195D01*
X006309Y015169D01*
X006313Y015142D01*
X006313Y015114D01*
X006309Y015087D01*
X006301Y015061D01*
X006290Y015036D01*
X006275Y015012D01*
X006258Y014991D01*
X006237Y014973D01*
X006215Y014957D01*
X006190Y014945D01*
X006164Y014937D01*
X006137Y014932D01*
X006109Y014931D01*
X006082Y014934D01*
X006055Y014941D01*
X006030Y014951D01*
X006006Y014965D01*
X005984Y014982D01*
X005965Y015001D01*
X005949Y015024D01*
X005936Y015048D01*
X005927Y015074D01*
X005921Y015101D01*
X005919Y015128D01*
X005919Y017096D02*
X005921Y017123D01*
X005927Y017150D01*
X005936Y017176D01*
X005949Y017200D01*
X005965Y017223D01*
X005984Y017242D01*
X006006Y017259D01*
X006030Y017273D01*
X006055Y017283D01*
X006082Y017290D01*
X006109Y017293D01*
X006137Y017292D01*
X006164Y017287D01*
X006190Y017279D01*
X006214Y017267D01*
X006237Y017251D01*
X006258Y017233D01*
X006275Y017212D01*
X006290Y017188D01*
X006301Y017163D01*
X006309Y017137D01*
X006313Y017110D01*
X006313Y017082D01*
X006309Y017055D01*
X006301Y017029D01*
X006290Y017004D01*
X006275Y016980D01*
X006258Y016959D01*
X006237Y016941D01*
X006215Y016925D01*
X006190Y016913D01*
X006164Y016905D01*
X006137Y016900D01*
X006109Y016899D01*
X006082Y016902D01*
X006055Y016909D01*
X006030Y016919D01*
X006006Y016933D01*
X005984Y016950D01*
X005965Y016969D01*
X005949Y016992D01*
X005936Y017016D01*
X005927Y017042D01*
X005921Y017069D01*
X005919Y017096D01*
X004305Y019629D02*
X004307Y019676D01*
X004313Y019722D01*
X004323Y019768D01*
X004336Y019813D01*
X004354Y019856D01*
X004375Y019898D01*
X004399Y019938D01*
X004427Y019975D01*
X004458Y020010D01*
X004492Y020043D01*
X004528Y020072D01*
X004567Y020098D01*
X004608Y020121D01*
X004651Y020140D01*
X004695Y020156D01*
X004740Y020168D01*
X004786Y020176D01*
X004833Y020180D01*
X004879Y020180D01*
X004926Y020176D01*
X004972Y020168D01*
X005017Y020156D01*
X005061Y020140D01*
X005104Y020121D01*
X005145Y020098D01*
X005184Y020072D01*
X005220Y020043D01*
X005254Y020010D01*
X005285Y019975D01*
X005313Y019938D01*
X005337Y019898D01*
X005358Y019856D01*
X005376Y019813D01*
X005389Y019768D01*
X005399Y019722D01*
X005405Y019676D01*
X005407Y019629D01*
X005405Y019582D01*
X005399Y019536D01*
X005389Y019490D01*
X005376Y019445D01*
X005358Y019402D01*
X005337Y019360D01*
X005313Y019320D01*
X005285Y019283D01*
X005254Y019248D01*
X005220Y019215D01*
X005184Y019186D01*
X005145Y019160D01*
X005104Y019137D01*
X005061Y019118D01*
X005017Y019102D01*
X004972Y019090D01*
X004926Y019082D01*
X004879Y019078D01*
X004833Y019078D01*
X004786Y019082D01*
X004740Y019090D01*
X004695Y019102D01*
X004651Y019118D01*
X004608Y019137D01*
X004567Y019160D01*
X004528Y019186D01*
X004492Y019215D01*
X004458Y019248D01*
X004427Y019283D01*
X004399Y019320D01*
X004375Y019360D01*
X004354Y019402D01*
X004336Y019445D01*
X004323Y019490D01*
X004313Y019536D01*
X004307Y019582D01*
X004305Y019629D01*
X008730Y021360D02*
X008732Y021410D01*
X008738Y021460D01*
X008748Y021509D01*
X008762Y021557D01*
X008779Y021604D01*
X008800Y021649D01*
X008825Y021693D01*
X008853Y021734D01*
X008885Y021773D01*
X008919Y021810D01*
X008956Y021844D01*
X008996Y021874D01*
X009038Y021901D01*
X009082Y021925D01*
X009128Y021946D01*
X009175Y021962D01*
X009223Y021975D01*
X009273Y021984D01*
X009322Y021989D01*
X009373Y021990D01*
X009423Y021987D01*
X009472Y021980D01*
X009521Y021969D01*
X009569Y021954D01*
X009615Y021936D01*
X009660Y021914D01*
X009703Y021888D01*
X009744Y021859D01*
X009783Y021827D01*
X009819Y021792D01*
X009851Y021754D01*
X009881Y021714D01*
X009908Y021671D01*
X009931Y021627D01*
X009950Y021581D01*
X009966Y021533D01*
X009978Y021484D01*
X009986Y021435D01*
X009990Y021385D01*
X009990Y021335D01*
X009986Y021285D01*
X009978Y021236D01*
X009966Y021187D01*
X009950Y021139D01*
X009931Y021093D01*
X009908Y021049D01*
X009881Y021006D01*
X009851Y020966D01*
X009819Y020928D01*
X009783Y020893D01*
X009744Y020861D01*
X009703Y020832D01*
X009660Y020806D01*
X009615Y020784D01*
X009569Y020766D01*
X009521Y020751D01*
X009472Y020740D01*
X009423Y020733D01*
X009373Y020730D01*
X009322Y020731D01*
X009273Y020736D01*
X009223Y020745D01*
X009175Y020758D01*
X009128Y020774D01*
X009082Y020795D01*
X009038Y020819D01*
X008996Y020846D01*
X008956Y020876D01*
X008919Y020910D01*
X008885Y020947D01*
X008853Y020986D01*
X008825Y021027D01*
X008800Y021071D01*
X008779Y021116D01*
X008762Y021163D01*
X008748Y021211D01*
X008738Y021260D01*
X008732Y021310D01*
X008730Y021360D01*
X018104Y019629D02*
X018106Y019676D01*
X018112Y019722D01*
X018122Y019768D01*
X018135Y019813D01*
X018153Y019856D01*
X018174Y019898D01*
X018198Y019938D01*
X018226Y019975D01*
X018257Y020010D01*
X018291Y020043D01*
X018327Y020072D01*
X018366Y020098D01*
X018407Y020121D01*
X018450Y020140D01*
X018494Y020156D01*
X018539Y020168D01*
X018585Y020176D01*
X018632Y020180D01*
X018678Y020180D01*
X018725Y020176D01*
X018771Y020168D01*
X018816Y020156D01*
X018860Y020140D01*
X018903Y020121D01*
X018944Y020098D01*
X018983Y020072D01*
X019019Y020043D01*
X019053Y020010D01*
X019084Y019975D01*
X019112Y019938D01*
X019136Y019898D01*
X019157Y019856D01*
X019175Y019813D01*
X019188Y019768D01*
X019198Y019722D01*
X019204Y019676D01*
X019206Y019629D01*
X019204Y019582D01*
X019198Y019536D01*
X019188Y019490D01*
X019175Y019445D01*
X019157Y019402D01*
X019136Y019360D01*
X019112Y019320D01*
X019084Y019283D01*
X019053Y019248D01*
X019019Y019215D01*
X018983Y019186D01*
X018944Y019160D01*
X018903Y019137D01*
X018860Y019118D01*
X018816Y019102D01*
X018771Y019090D01*
X018725Y019082D01*
X018678Y019078D01*
X018632Y019078D01*
X018585Y019082D01*
X018539Y019090D01*
X018494Y019102D01*
X018450Y019118D01*
X018407Y019137D01*
X018366Y019160D01*
X018327Y019186D01*
X018291Y019215D01*
X018257Y019248D01*
X018226Y019283D01*
X018198Y019320D01*
X018174Y019360D01*
X018153Y019402D01*
X018135Y019445D01*
X018122Y019490D01*
X018112Y019536D01*
X018106Y019582D01*
X018104Y019629D01*
X028730Y015360D02*
X028732Y015410D01*
X028738Y015460D01*
X028748Y015509D01*
X028762Y015557D01*
X028779Y015604D01*
X028800Y015649D01*
X028825Y015693D01*
X028853Y015734D01*
X028885Y015773D01*
X028919Y015810D01*
X028956Y015844D01*
X028996Y015874D01*
X029038Y015901D01*
X029082Y015925D01*
X029128Y015946D01*
X029175Y015962D01*
X029223Y015975D01*
X029273Y015984D01*
X029322Y015989D01*
X029373Y015990D01*
X029423Y015987D01*
X029472Y015980D01*
X029521Y015969D01*
X029569Y015954D01*
X029615Y015936D01*
X029660Y015914D01*
X029703Y015888D01*
X029744Y015859D01*
X029783Y015827D01*
X029819Y015792D01*
X029851Y015754D01*
X029881Y015714D01*
X029908Y015671D01*
X029931Y015627D01*
X029950Y015581D01*
X029966Y015533D01*
X029978Y015484D01*
X029986Y015435D01*
X029990Y015385D01*
X029990Y015335D01*
X029986Y015285D01*
X029978Y015236D01*
X029966Y015187D01*
X029950Y015139D01*
X029931Y015093D01*
X029908Y015049D01*
X029881Y015006D01*
X029851Y014966D01*
X029819Y014928D01*
X029783Y014893D01*
X029744Y014861D01*
X029703Y014832D01*
X029660Y014806D01*
X029615Y014784D01*
X029569Y014766D01*
X029521Y014751D01*
X029472Y014740D01*
X029423Y014733D01*
X029373Y014730D01*
X029322Y014731D01*
X029273Y014736D01*
X029223Y014745D01*
X029175Y014758D01*
X029128Y014774D01*
X029082Y014795D01*
X029038Y014819D01*
X028996Y014846D01*
X028956Y014876D01*
X028919Y014910D01*
X028885Y014947D01*
X028853Y014986D01*
X028825Y015027D01*
X028800Y015071D01*
X028779Y015116D01*
X028762Y015163D01*
X028748Y015211D01*
X028738Y015260D01*
X028732Y015310D01*
X028730Y015360D01*
X028730Y004360D02*
X028732Y004410D01*
X028738Y004460D01*
X028748Y004509D01*
X028762Y004557D01*
X028779Y004604D01*
X028800Y004649D01*
X028825Y004693D01*
X028853Y004734D01*
X028885Y004773D01*
X028919Y004810D01*
X028956Y004844D01*
X028996Y004874D01*
X029038Y004901D01*
X029082Y004925D01*
X029128Y004946D01*
X029175Y004962D01*
X029223Y004975D01*
X029273Y004984D01*
X029322Y004989D01*
X029373Y004990D01*
X029423Y004987D01*
X029472Y004980D01*
X029521Y004969D01*
X029569Y004954D01*
X029615Y004936D01*
X029660Y004914D01*
X029703Y004888D01*
X029744Y004859D01*
X029783Y004827D01*
X029819Y004792D01*
X029851Y004754D01*
X029881Y004714D01*
X029908Y004671D01*
X029931Y004627D01*
X029950Y004581D01*
X029966Y004533D01*
X029978Y004484D01*
X029986Y004435D01*
X029990Y004385D01*
X029990Y004335D01*
X029986Y004285D01*
X029978Y004236D01*
X029966Y004187D01*
X029950Y004139D01*
X029931Y004093D01*
X029908Y004049D01*
X029881Y004006D01*
X029851Y003966D01*
X029819Y003928D01*
X029783Y003893D01*
X029744Y003861D01*
X029703Y003832D01*
X029660Y003806D01*
X029615Y003784D01*
X029569Y003766D01*
X029521Y003751D01*
X029472Y003740D01*
X029423Y003733D01*
X029373Y003730D01*
X029322Y003731D01*
X029273Y003736D01*
X029223Y003745D01*
X029175Y003758D01*
X029128Y003774D01*
X029082Y003795D01*
X029038Y003819D01*
X028996Y003846D01*
X028956Y003876D01*
X028919Y003910D01*
X028885Y003947D01*
X028853Y003986D01*
X028825Y004027D01*
X028800Y004071D01*
X028779Y004116D01*
X028762Y004163D01*
X028748Y004211D01*
X028738Y004260D01*
X028732Y004310D01*
X028730Y004360D01*
X018104Y003896D02*
X018106Y003943D01*
X018112Y003989D01*
X018122Y004035D01*
X018135Y004080D01*
X018153Y004123D01*
X018174Y004165D01*
X018198Y004205D01*
X018226Y004242D01*
X018257Y004277D01*
X018291Y004310D01*
X018327Y004339D01*
X018366Y004365D01*
X018407Y004388D01*
X018450Y004407D01*
X018494Y004423D01*
X018539Y004435D01*
X018585Y004443D01*
X018632Y004447D01*
X018678Y004447D01*
X018725Y004443D01*
X018771Y004435D01*
X018816Y004423D01*
X018860Y004407D01*
X018903Y004388D01*
X018944Y004365D01*
X018983Y004339D01*
X019019Y004310D01*
X019053Y004277D01*
X019084Y004242D01*
X019112Y004205D01*
X019136Y004165D01*
X019157Y004123D01*
X019175Y004080D01*
X019188Y004035D01*
X019198Y003989D01*
X019204Y003943D01*
X019206Y003896D01*
X019204Y003849D01*
X019198Y003803D01*
X019188Y003757D01*
X019175Y003712D01*
X019157Y003669D01*
X019136Y003627D01*
X019112Y003587D01*
X019084Y003550D01*
X019053Y003515D01*
X019019Y003482D01*
X018983Y003453D01*
X018944Y003427D01*
X018903Y003404D01*
X018860Y003385D01*
X018816Y003369D01*
X018771Y003357D01*
X018725Y003349D01*
X018678Y003345D01*
X018632Y003345D01*
X018585Y003349D01*
X018539Y003357D01*
X018494Y003369D01*
X018450Y003385D01*
X018407Y003404D01*
X018366Y003427D01*
X018327Y003453D01*
X018291Y003482D01*
X018257Y003515D01*
X018226Y003550D01*
X018198Y003587D01*
X018174Y003627D01*
X018153Y003669D01*
X018135Y003712D01*
X018122Y003757D01*
X018112Y003803D01*
X018106Y003849D01*
X018104Y003896D01*
D11*
X029360Y004360D03*
X029360Y015360D03*
X009360Y021360D03*
D12*
X003360Y001360D02*
X029360Y001360D01*
X029360Y002360D01*
X030360Y003360D01*
X030360Y009660D01*
X027860Y009660D01*
X027860Y014360D01*
X030360Y014360D01*
X030360Y016260D01*
X029360Y017260D01*
X029360Y021760D01*
X028760Y022360D01*
X003360Y022360D01*
X003360Y001360D01*
D13*
X007843Y003873D03*
X016360Y002360D03*
X023360Y002360D03*
X019760Y021360D03*
X028360Y021360D03*
D14*
X027360Y021360D03*
X026360Y021360D03*
X025360Y021360D03*
X024360Y021360D03*
X023360Y021360D03*
X022360Y021360D03*
X021360Y021360D03*
X018760Y021360D03*
X017760Y021360D03*
X016760Y021360D03*
X015760Y021360D03*
X014760Y021360D03*
X013760Y021360D03*
X012760Y021360D03*
X012843Y003873D03*
X013843Y003873D03*
X014843Y003873D03*
X017360Y002360D03*
X018360Y002360D03*
X019360Y002360D03*
X020360Y002360D03*
X021360Y002360D03*
X024360Y002360D03*
X025360Y002360D03*
X026360Y002360D03*
X027360Y002360D03*
X028360Y002360D03*
X011843Y003873D03*
X010843Y003873D03*
X009843Y003873D03*
X008843Y003873D03*
D15*
X029548Y006388D03*
X029548Y008357D03*
D16*
X028563Y008750D03*
X028563Y005995D03*
D17*
X006116Y005811D03*
X006116Y007780D03*
X006116Y010501D03*
X006116Y012469D03*
X006116Y015128D03*
X006116Y017096D03*
D18*
X026173Y020048D03*
D19*
X026173Y019260D03*
X026173Y018473D03*
X026173Y017685D03*
D20*
X018655Y019629D03*
X004856Y019629D03*
X004856Y003896D03*
X018655Y003896D03*
D21*
X023363Y010260D02*
X023760Y010260D01*
X023760Y010760D02*
X023363Y010760D01*
X023363Y011260D02*
X023760Y011260D01*
X023760Y011760D02*
X023363Y011760D01*
X023363Y012260D02*
X023760Y012260D01*
X023760Y012760D02*
X023363Y012760D01*
X023363Y013260D02*
X023760Y013260D01*
X023760Y013760D02*
X023363Y013760D01*
M02*
