G75*
G70*
%OFA0B0*%
%FSLAX24Y24*%
%IPPOS*%
%LPD*%
%AMOC8*
5,1,8,0,0,1.08239X$1,22.5*
%
%ADD10C,0.0000*%
%ADD11C,0.0050*%
%ADD12C,0.0030*%
%ADD13C,0.0060*%
%ADD14C,0.0040*%
%ADD15C,0.0080*%
%ADD16C,0.0020*%
%ADD17R,0.0079X0.0079*%
%ADD18C,0.0039*%
D10*
X004305Y003896D02*
X004307Y003943D01*
X004313Y003989D01*
X004323Y004035D01*
X004336Y004080D01*
X004354Y004123D01*
X004375Y004165D01*
X004399Y004205D01*
X004427Y004242D01*
X004458Y004277D01*
X004492Y004310D01*
X004528Y004339D01*
X004567Y004365D01*
X004608Y004388D01*
X004651Y004407D01*
X004695Y004423D01*
X004740Y004435D01*
X004786Y004443D01*
X004833Y004447D01*
X004879Y004447D01*
X004926Y004443D01*
X004972Y004435D01*
X005017Y004423D01*
X005061Y004407D01*
X005104Y004388D01*
X005145Y004365D01*
X005184Y004339D01*
X005220Y004310D01*
X005254Y004277D01*
X005285Y004242D01*
X005313Y004205D01*
X005337Y004165D01*
X005358Y004123D01*
X005376Y004080D01*
X005389Y004035D01*
X005399Y003989D01*
X005405Y003943D01*
X005407Y003896D01*
X005405Y003849D01*
X005399Y003803D01*
X005389Y003757D01*
X005376Y003712D01*
X005358Y003669D01*
X005337Y003627D01*
X005313Y003587D01*
X005285Y003550D01*
X005254Y003515D01*
X005220Y003482D01*
X005184Y003453D01*
X005145Y003427D01*
X005104Y003404D01*
X005061Y003385D01*
X005017Y003369D01*
X004972Y003357D01*
X004926Y003349D01*
X004879Y003345D01*
X004833Y003345D01*
X004786Y003349D01*
X004740Y003357D01*
X004695Y003369D01*
X004651Y003385D01*
X004608Y003404D01*
X004567Y003427D01*
X004528Y003453D01*
X004492Y003482D01*
X004458Y003515D01*
X004427Y003550D01*
X004399Y003587D01*
X004375Y003627D01*
X004354Y003669D01*
X004336Y003712D01*
X004323Y003757D01*
X004313Y003803D01*
X004307Y003849D01*
X004305Y003896D01*
X005919Y005811D02*
X005921Y005838D01*
X005927Y005865D01*
X005936Y005891D01*
X005949Y005915D01*
X005965Y005938D01*
X005984Y005957D01*
X006006Y005974D01*
X006030Y005988D01*
X006055Y005998D01*
X006082Y006005D01*
X006109Y006008D01*
X006137Y006007D01*
X006164Y006002D01*
X006190Y005994D01*
X006214Y005982D01*
X006237Y005966D01*
X006258Y005948D01*
X006275Y005927D01*
X006290Y005903D01*
X006301Y005878D01*
X006309Y005852D01*
X006313Y005825D01*
X006313Y005797D01*
X006309Y005770D01*
X006301Y005744D01*
X006290Y005719D01*
X006275Y005695D01*
X006258Y005674D01*
X006237Y005656D01*
X006215Y005640D01*
X006190Y005628D01*
X006164Y005620D01*
X006137Y005615D01*
X006109Y005614D01*
X006082Y005617D01*
X006055Y005624D01*
X006030Y005634D01*
X006006Y005648D01*
X005984Y005665D01*
X005965Y005684D01*
X005949Y005707D01*
X005936Y005731D01*
X005927Y005757D01*
X005921Y005784D01*
X005919Y005811D01*
X005919Y007780D02*
X005921Y007807D01*
X005927Y007834D01*
X005936Y007860D01*
X005949Y007884D01*
X005965Y007907D01*
X005984Y007926D01*
X006006Y007943D01*
X006030Y007957D01*
X006055Y007967D01*
X006082Y007974D01*
X006109Y007977D01*
X006137Y007976D01*
X006164Y007971D01*
X006190Y007963D01*
X006214Y007951D01*
X006237Y007935D01*
X006258Y007917D01*
X006275Y007896D01*
X006290Y007872D01*
X006301Y007847D01*
X006309Y007821D01*
X006313Y007794D01*
X006313Y007766D01*
X006309Y007739D01*
X006301Y007713D01*
X006290Y007688D01*
X006275Y007664D01*
X006258Y007643D01*
X006237Y007625D01*
X006215Y007609D01*
X006190Y007597D01*
X006164Y007589D01*
X006137Y007584D01*
X006109Y007583D01*
X006082Y007586D01*
X006055Y007593D01*
X006030Y007603D01*
X006006Y007617D01*
X005984Y007634D01*
X005965Y007653D01*
X005949Y007676D01*
X005936Y007700D01*
X005927Y007726D01*
X005921Y007753D01*
X005919Y007780D01*
X005919Y010501D02*
X005921Y010528D01*
X005927Y010555D01*
X005936Y010581D01*
X005949Y010605D01*
X005965Y010628D01*
X005984Y010647D01*
X006006Y010664D01*
X006030Y010678D01*
X006055Y010688D01*
X006082Y010695D01*
X006109Y010698D01*
X006137Y010697D01*
X006164Y010692D01*
X006190Y010684D01*
X006214Y010672D01*
X006237Y010656D01*
X006258Y010638D01*
X006275Y010617D01*
X006290Y010593D01*
X006301Y010568D01*
X006309Y010542D01*
X006313Y010515D01*
X006313Y010487D01*
X006309Y010460D01*
X006301Y010434D01*
X006290Y010409D01*
X006275Y010385D01*
X006258Y010364D01*
X006237Y010346D01*
X006215Y010330D01*
X006190Y010318D01*
X006164Y010310D01*
X006137Y010305D01*
X006109Y010304D01*
X006082Y010307D01*
X006055Y010314D01*
X006030Y010324D01*
X006006Y010338D01*
X005984Y010355D01*
X005965Y010374D01*
X005949Y010397D01*
X005936Y010421D01*
X005927Y010447D01*
X005921Y010474D01*
X005919Y010501D01*
X005919Y012469D02*
X005921Y012496D01*
X005927Y012523D01*
X005936Y012549D01*
X005949Y012573D01*
X005965Y012596D01*
X005984Y012615D01*
X006006Y012632D01*
X006030Y012646D01*
X006055Y012656D01*
X006082Y012663D01*
X006109Y012666D01*
X006137Y012665D01*
X006164Y012660D01*
X006190Y012652D01*
X006214Y012640D01*
X006237Y012624D01*
X006258Y012606D01*
X006275Y012585D01*
X006290Y012561D01*
X006301Y012536D01*
X006309Y012510D01*
X006313Y012483D01*
X006313Y012455D01*
X006309Y012428D01*
X006301Y012402D01*
X006290Y012377D01*
X006275Y012353D01*
X006258Y012332D01*
X006237Y012314D01*
X006215Y012298D01*
X006190Y012286D01*
X006164Y012278D01*
X006137Y012273D01*
X006109Y012272D01*
X006082Y012275D01*
X006055Y012282D01*
X006030Y012292D01*
X006006Y012306D01*
X005984Y012323D01*
X005965Y012342D01*
X005949Y012365D01*
X005936Y012389D01*
X005927Y012415D01*
X005921Y012442D01*
X005919Y012469D01*
X005919Y015128D02*
X005921Y015155D01*
X005927Y015182D01*
X005936Y015208D01*
X005949Y015232D01*
X005965Y015255D01*
X005984Y015274D01*
X006006Y015291D01*
X006030Y015305D01*
X006055Y015315D01*
X006082Y015322D01*
X006109Y015325D01*
X006137Y015324D01*
X006164Y015319D01*
X006190Y015311D01*
X006214Y015299D01*
X006237Y015283D01*
X006258Y015265D01*
X006275Y015244D01*
X006290Y015220D01*
X006301Y015195D01*
X006309Y015169D01*
X006313Y015142D01*
X006313Y015114D01*
X006309Y015087D01*
X006301Y015061D01*
X006290Y015036D01*
X006275Y015012D01*
X006258Y014991D01*
X006237Y014973D01*
X006215Y014957D01*
X006190Y014945D01*
X006164Y014937D01*
X006137Y014932D01*
X006109Y014931D01*
X006082Y014934D01*
X006055Y014941D01*
X006030Y014951D01*
X006006Y014965D01*
X005984Y014982D01*
X005965Y015001D01*
X005949Y015024D01*
X005936Y015048D01*
X005927Y015074D01*
X005921Y015101D01*
X005919Y015128D01*
X005919Y017096D02*
X005921Y017123D01*
X005927Y017150D01*
X005936Y017176D01*
X005949Y017200D01*
X005965Y017223D01*
X005984Y017242D01*
X006006Y017259D01*
X006030Y017273D01*
X006055Y017283D01*
X006082Y017290D01*
X006109Y017293D01*
X006137Y017292D01*
X006164Y017287D01*
X006190Y017279D01*
X006214Y017267D01*
X006237Y017251D01*
X006258Y017233D01*
X006275Y017212D01*
X006290Y017188D01*
X006301Y017163D01*
X006309Y017137D01*
X006313Y017110D01*
X006313Y017082D01*
X006309Y017055D01*
X006301Y017029D01*
X006290Y017004D01*
X006275Y016980D01*
X006258Y016959D01*
X006237Y016941D01*
X006215Y016925D01*
X006190Y016913D01*
X006164Y016905D01*
X006137Y016900D01*
X006109Y016899D01*
X006082Y016902D01*
X006055Y016909D01*
X006030Y016919D01*
X006006Y016933D01*
X005984Y016950D01*
X005965Y016969D01*
X005949Y016992D01*
X005936Y017016D01*
X005927Y017042D01*
X005921Y017069D01*
X005919Y017096D01*
X004305Y019629D02*
X004307Y019676D01*
X004313Y019722D01*
X004323Y019768D01*
X004336Y019813D01*
X004354Y019856D01*
X004375Y019898D01*
X004399Y019938D01*
X004427Y019975D01*
X004458Y020010D01*
X004492Y020043D01*
X004528Y020072D01*
X004567Y020098D01*
X004608Y020121D01*
X004651Y020140D01*
X004695Y020156D01*
X004740Y020168D01*
X004786Y020176D01*
X004833Y020180D01*
X004879Y020180D01*
X004926Y020176D01*
X004972Y020168D01*
X005017Y020156D01*
X005061Y020140D01*
X005104Y020121D01*
X005145Y020098D01*
X005184Y020072D01*
X005220Y020043D01*
X005254Y020010D01*
X005285Y019975D01*
X005313Y019938D01*
X005337Y019898D01*
X005358Y019856D01*
X005376Y019813D01*
X005389Y019768D01*
X005399Y019722D01*
X005405Y019676D01*
X005407Y019629D01*
X005405Y019582D01*
X005399Y019536D01*
X005389Y019490D01*
X005376Y019445D01*
X005358Y019402D01*
X005337Y019360D01*
X005313Y019320D01*
X005285Y019283D01*
X005254Y019248D01*
X005220Y019215D01*
X005184Y019186D01*
X005145Y019160D01*
X005104Y019137D01*
X005061Y019118D01*
X005017Y019102D01*
X004972Y019090D01*
X004926Y019082D01*
X004879Y019078D01*
X004833Y019078D01*
X004786Y019082D01*
X004740Y019090D01*
X004695Y019102D01*
X004651Y019118D01*
X004608Y019137D01*
X004567Y019160D01*
X004528Y019186D01*
X004492Y019215D01*
X004458Y019248D01*
X004427Y019283D01*
X004399Y019320D01*
X004375Y019360D01*
X004354Y019402D01*
X004336Y019445D01*
X004323Y019490D01*
X004313Y019536D01*
X004307Y019582D01*
X004305Y019629D01*
X008730Y021360D02*
X008732Y021410D01*
X008738Y021460D01*
X008748Y021509D01*
X008762Y021557D01*
X008779Y021604D01*
X008800Y021649D01*
X008825Y021693D01*
X008853Y021734D01*
X008885Y021773D01*
X008919Y021810D01*
X008956Y021844D01*
X008996Y021874D01*
X009038Y021901D01*
X009082Y021925D01*
X009128Y021946D01*
X009175Y021962D01*
X009223Y021975D01*
X009273Y021984D01*
X009322Y021989D01*
X009373Y021990D01*
X009423Y021987D01*
X009472Y021980D01*
X009521Y021969D01*
X009569Y021954D01*
X009615Y021936D01*
X009660Y021914D01*
X009703Y021888D01*
X009744Y021859D01*
X009783Y021827D01*
X009819Y021792D01*
X009851Y021754D01*
X009881Y021714D01*
X009908Y021671D01*
X009931Y021627D01*
X009950Y021581D01*
X009966Y021533D01*
X009978Y021484D01*
X009986Y021435D01*
X009990Y021385D01*
X009990Y021335D01*
X009986Y021285D01*
X009978Y021236D01*
X009966Y021187D01*
X009950Y021139D01*
X009931Y021093D01*
X009908Y021049D01*
X009881Y021006D01*
X009851Y020966D01*
X009819Y020928D01*
X009783Y020893D01*
X009744Y020861D01*
X009703Y020832D01*
X009660Y020806D01*
X009615Y020784D01*
X009569Y020766D01*
X009521Y020751D01*
X009472Y020740D01*
X009423Y020733D01*
X009373Y020730D01*
X009322Y020731D01*
X009273Y020736D01*
X009223Y020745D01*
X009175Y020758D01*
X009128Y020774D01*
X009082Y020795D01*
X009038Y020819D01*
X008996Y020846D01*
X008956Y020876D01*
X008919Y020910D01*
X008885Y020947D01*
X008853Y020986D01*
X008825Y021027D01*
X008800Y021071D01*
X008779Y021116D01*
X008762Y021163D01*
X008748Y021211D01*
X008738Y021260D01*
X008732Y021310D01*
X008730Y021360D01*
X018104Y019629D02*
X018106Y019676D01*
X018112Y019722D01*
X018122Y019768D01*
X018135Y019813D01*
X018153Y019856D01*
X018174Y019898D01*
X018198Y019938D01*
X018226Y019975D01*
X018257Y020010D01*
X018291Y020043D01*
X018327Y020072D01*
X018366Y020098D01*
X018407Y020121D01*
X018450Y020140D01*
X018494Y020156D01*
X018539Y020168D01*
X018585Y020176D01*
X018632Y020180D01*
X018678Y020180D01*
X018725Y020176D01*
X018771Y020168D01*
X018816Y020156D01*
X018860Y020140D01*
X018903Y020121D01*
X018944Y020098D01*
X018983Y020072D01*
X019019Y020043D01*
X019053Y020010D01*
X019084Y019975D01*
X019112Y019938D01*
X019136Y019898D01*
X019157Y019856D01*
X019175Y019813D01*
X019188Y019768D01*
X019198Y019722D01*
X019204Y019676D01*
X019206Y019629D01*
X019204Y019582D01*
X019198Y019536D01*
X019188Y019490D01*
X019175Y019445D01*
X019157Y019402D01*
X019136Y019360D01*
X019112Y019320D01*
X019084Y019283D01*
X019053Y019248D01*
X019019Y019215D01*
X018983Y019186D01*
X018944Y019160D01*
X018903Y019137D01*
X018860Y019118D01*
X018816Y019102D01*
X018771Y019090D01*
X018725Y019082D01*
X018678Y019078D01*
X018632Y019078D01*
X018585Y019082D01*
X018539Y019090D01*
X018494Y019102D01*
X018450Y019118D01*
X018407Y019137D01*
X018366Y019160D01*
X018327Y019186D01*
X018291Y019215D01*
X018257Y019248D01*
X018226Y019283D01*
X018198Y019320D01*
X018174Y019360D01*
X018153Y019402D01*
X018135Y019445D01*
X018122Y019490D01*
X018112Y019536D01*
X018106Y019582D01*
X018104Y019629D01*
X028730Y015360D02*
X028732Y015410D01*
X028738Y015460D01*
X028748Y015509D01*
X028762Y015557D01*
X028779Y015604D01*
X028800Y015649D01*
X028825Y015693D01*
X028853Y015734D01*
X028885Y015773D01*
X028919Y015810D01*
X028956Y015844D01*
X028996Y015874D01*
X029038Y015901D01*
X029082Y015925D01*
X029128Y015946D01*
X029175Y015962D01*
X029223Y015975D01*
X029273Y015984D01*
X029322Y015989D01*
X029373Y015990D01*
X029423Y015987D01*
X029472Y015980D01*
X029521Y015969D01*
X029569Y015954D01*
X029615Y015936D01*
X029660Y015914D01*
X029703Y015888D01*
X029744Y015859D01*
X029783Y015827D01*
X029819Y015792D01*
X029851Y015754D01*
X029881Y015714D01*
X029908Y015671D01*
X029931Y015627D01*
X029950Y015581D01*
X029966Y015533D01*
X029978Y015484D01*
X029986Y015435D01*
X029990Y015385D01*
X029990Y015335D01*
X029986Y015285D01*
X029978Y015236D01*
X029966Y015187D01*
X029950Y015139D01*
X029931Y015093D01*
X029908Y015049D01*
X029881Y015006D01*
X029851Y014966D01*
X029819Y014928D01*
X029783Y014893D01*
X029744Y014861D01*
X029703Y014832D01*
X029660Y014806D01*
X029615Y014784D01*
X029569Y014766D01*
X029521Y014751D01*
X029472Y014740D01*
X029423Y014733D01*
X029373Y014730D01*
X029322Y014731D01*
X029273Y014736D01*
X029223Y014745D01*
X029175Y014758D01*
X029128Y014774D01*
X029082Y014795D01*
X029038Y014819D01*
X028996Y014846D01*
X028956Y014876D01*
X028919Y014910D01*
X028885Y014947D01*
X028853Y014986D01*
X028825Y015027D01*
X028800Y015071D01*
X028779Y015116D01*
X028762Y015163D01*
X028748Y015211D01*
X028738Y015260D01*
X028732Y015310D01*
X028730Y015360D01*
X028730Y004360D02*
X028732Y004410D01*
X028738Y004460D01*
X028748Y004509D01*
X028762Y004557D01*
X028779Y004604D01*
X028800Y004649D01*
X028825Y004693D01*
X028853Y004734D01*
X028885Y004773D01*
X028919Y004810D01*
X028956Y004844D01*
X028996Y004874D01*
X029038Y004901D01*
X029082Y004925D01*
X029128Y004946D01*
X029175Y004962D01*
X029223Y004975D01*
X029273Y004984D01*
X029322Y004989D01*
X029373Y004990D01*
X029423Y004987D01*
X029472Y004980D01*
X029521Y004969D01*
X029569Y004954D01*
X029615Y004936D01*
X029660Y004914D01*
X029703Y004888D01*
X029744Y004859D01*
X029783Y004827D01*
X029819Y004792D01*
X029851Y004754D01*
X029881Y004714D01*
X029908Y004671D01*
X029931Y004627D01*
X029950Y004581D01*
X029966Y004533D01*
X029978Y004484D01*
X029986Y004435D01*
X029990Y004385D01*
X029990Y004335D01*
X029986Y004285D01*
X029978Y004236D01*
X029966Y004187D01*
X029950Y004139D01*
X029931Y004093D01*
X029908Y004049D01*
X029881Y004006D01*
X029851Y003966D01*
X029819Y003928D01*
X029783Y003893D01*
X029744Y003861D01*
X029703Y003832D01*
X029660Y003806D01*
X029615Y003784D01*
X029569Y003766D01*
X029521Y003751D01*
X029472Y003740D01*
X029423Y003733D01*
X029373Y003730D01*
X029322Y003731D01*
X029273Y003736D01*
X029223Y003745D01*
X029175Y003758D01*
X029128Y003774D01*
X029082Y003795D01*
X029038Y003819D01*
X028996Y003846D01*
X028956Y003876D01*
X028919Y003910D01*
X028885Y003947D01*
X028853Y003986D01*
X028825Y004027D01*
X028800Y004071D01*
X028779Y004116D01*
X028762Y004163D01*
X028748Y004211D01*
X028738Y004260D01*
X028732Y004310D01*
X028730Y004360D01*
X018104Y003896D02*
X018106Y003943D01*
X018112Y003989D01*
X018122Y004035D01*
X018135Y004080D01*
X018153Y004123D01*
X018174Y004165D01*
X018198Y004205D01*
X018226Y004242D01*
X018257Y004277D01*
X018291Y004310D01*
X018327Y004339D01*
X018366Y004365D01*
X018407Y004388D01*
X018450Y004407D01*
X018494Y004423D01*
X018539Y004435D01*
X018585Y004443D01*
X018632Y004447D01*
X018678Y004447D01*
X018725Y004443D01*
X018771Y004435D01*
X018816Y004423D01*
X018860Y004407D01*
X018903Y004388D01*
X018944Y004365D01*
X018983Y004339D01*
X019019Y004310D01*
X019053Y004277D01*
X019084Y004242D01*
X019112Y004205D01*
X019136Y004165D01*
X019157Y004123D01*
X019175Y004080D01*
X019188Y004035D01*
X019198Y003989D01*
X019204Y003943D01*
X019206Y003896D01*
X019204Y003849D01*
X019198Y003803D01*
X019188Y003757D01*
X019175Y003712D01*
X019157Y003669D01*
X019136Y003627D01*
X019112Y003587D01*
X019084Y003550D01*
X019053Y003515D01*
X019019Y003482D01*
X018983Y003453D01*
X018944Y003427D01*
X018903Y003404D01*
X018860Y003385D01*
X018816Y003369D01*
X018771Y003357D01*
X018725Y003349D01*
X018678Y003345D01*
X018632Y003345D01*
X018585Y003349D01*
X018539Y003357D01*
X018494Y003369D01*
X018450Y003385D01*
X018407Y003404D01*
X018366Y003427D01*
X018327Y003453D01*
X018291Y003482D01*
X018257Y003515D01*
X018226Y003550D01*
X018198Y003587D01*
X018174Y003627D01*
X018153Y003669D01*
X018135Y003712D01*
X018122Y003757D01*
X018112Y003803D01*
X018106Y003849D01*
X018104Y003896D01*
D11*
X029360Y001360D02*
X003360Y001360D01*
X003360Y022360D01*
X028760Y022360D01*
X029360Y021760D01*
X029360Y017260D01*
X030360Y016260D01*
X030360Y014360D01*
X027860Y014360D01*
X027860Y009660D01*
X030360Y009660D01*
X030360Y003360D01*
X029360Y002360D01*
X029360Y001360D01*
X027609Y007048D02*
X027684Y007123D01*
X027684Y007273D01*
X027609Y007348D01*
X027534Y007348D01*
X027459Y007273D01*
X027459Y007123D01*
X027384Y007048D01*
X027309Y007048D01*
X027234Y007123D01*
X027234Y007273D01*
X027309Y007348D01*
X027384Y007508D02*
X027234Y007658D01*
X027684Y007658D01*
X027684Y007508D02*
X027684Y007808D01*
X027188Y009070D02*
X027188Y009370D01*
X027038Y009220D02*
X027338Y009220D01*
X027788Y009666D02*
X027788Y010125D01*
X027788Y010519D02*
X027788Y010978D01*
X027788Y011372D02*
X027788Y011831D01*
X027788Y012225D02*
X027788Y012684D01*
X027788Y013078D02*
X027788Y013537D01*
X027788Y013931D02*
X027788Y014390D01*
X030347Y014390D01*
X030347Y009666D01*
X027788Y009666D01*
X023260Y009666D01*
X023260Y014390D01*
X027788Y014390D01*
X027095Y015194D02*
X026645Y015194D01*
X026645Y015419D01*
X026720Y015494D01*
X026870Y015494D01*
X026945Y015419D01*
X026945Y015194D01*
X026945Y015344D02*
X027095Y015494D01*
X027095Y015654D02*
X027095Y015954D01*
X027095Y015804D02*
X026645Y015804D01*
X026795Y015654D01*
X026720Y016115D02*
X026645Y016190D01*
X026645Y016340D01*
X026720Y016415D01*
X026795Y016415D01*
X026870Y016340D01*
X026945Y016415D01*
X027020Y016415D01*
X027095Y016340D01*
X027095Y016190D01*
X027020Y016115D01*
X026870Y016265D02*
X026870Y016340D01*
X026566Y016898D02*
X025779Y016898D01*
X025779Y020835D01*
X026566Y020835D01*
X026566Y016898D01*
X029322Y016898D01*
X029322Y017882D01*
X027944Y017882D01*
X027944Y019851D01*
X029322Y019851D01*
X029322Y017882D01*
X029322Y019851D02*
X029322Y020835D01*
X026566Y020835D01*
X025434Y020466D02*
X025434Y020316D01*
X025359Y020241D01*
X025059Y020241D01*
X024983Y020316D01*
X024983Y020466D01*
X025059Y020541D01*
X025359Y020541D02*
X025434Y020466D01*
X025434Y020081D02*
X025434Y019781D01*
X025134Y020081D01*
X025059Y020081D01*
X024983Y020006D01*
X024983Y019856D01*
X025059Y019781D01*
X024983Y019624D02*
X024983Y019474D01*
X024983Y019549D02*
X025434Y019549D01*
X025434Y019474D02*
X025434Y019624D01*
X025244Y017252D02*
X025019Y017252D01*
X025019Y016802D01*
X025244Y016802D01*
X025319Y016877D01*
X025319Y017177D01*
X025244Y017252D01*
X024859Y017252D02*
X024558Y017252D01*
X024558Y016802D01*
X024859Y016802D01*
X024709Y017027D02*
X024558Y017027D01*
X024398Y016802D02*
X024098Y016802D01*
X024098Y017252D01*
X022746Y017235D02*
X022596Y017160D01*
X022445Y017010D01*
X022671Y017010D01*
X022746Y016935D01*
X022746Y016860D01*
X022671Y016785D01*
X022520Y016785D01*
X022445Y016860D01*
X022445Y017010D01*
X022285Y017010D02*
X022285Y017160D01*
X022210Y017235D01*
X021985Y017235D01*
X021985Y016785D01*
X021985Y016935D02*
X022210Y016935D01*
X022285Y017010D01*
X022135Y016935D02*
X022285Y016785D01*
X017446Y017660D02*
X017145Y017360D01*
X017145Y017285D01*
X016985Y017360D02*
X016910Y017285D01*
X016760Y017285D01*
X016685Y017360D01*
X016685Y017660D01*
X016760Y017735D01*
X016910Y017735D01*
X016985Y017660D01*
X017145Y017735D02*
X017446Y017735D01*
X017446Y017660D01*
X015203Y016710D02*
X015128Y016785D01*
X014977Y016785D01*
X014902Y016710D01*
X014742Y016710D02*
X014667Y016785D01*
X014517Y016785D01*
X014442Y016710D01*
X014442Y016410D01*
X014517Y016335D01*
X014667Y016335D01*
X014742Y016410D01*
X014902Y016335D02*
X015203Y016635D01*
X015203Y016710D01*
X015203Y016335D02*
X014902Y016335D01*
X014285Y016335D02*
X014135Y016335D01*
X014210Y016335D02*
X014210Y016785D01*
X014135Y016785D02*
X014285Y016785D01*
X012489Y016339D02*
X012339Y016264D01*
X012189Y016114D01*
X012414Y016114D01*
X012489Y016039D01*
X012489Y015964D01*
X012414Y015888D01*
X012264Y015888D01*
X012189Y015964D01*
X012189Y016114D01*
X012029Y016264D02*
X011954Y016339D01*
X011804Y016339D01*
X011729Y016264D01*
X011729Y015964D01*
X011804Y015888D01*
X011954Y015888D01*
X012029Y015964D01*
X012614Y013730D02*
X012839Y013730D01*
X012914Y013655D01*
X012914Y013505D01*
X012839Y013430D01*
X012614Y013430D01*
X012614Y013280D02*
X012614Y013730D01*
X012764Y013430D02*
X012914Y013280D01*
X013075Y013505D02*
X013375Y013505D01*
X013300Y013280D02*
X013300Y013730D01*
X013075Y013505D01*
X014013Y012124D02*
X014163Y012124D01*
X014088Y012124D02*
X014088Y011674D01*
X014013Y011674D02*
X014163Y011674D01*
X014320Y011749D02*
X014395Y011674D01*
X014545Y011674D01*
X014620Y011749D01*
X014780Y011674D02*
X015081Y011674D01*
X014930Y011674D02*
X014930Y012124D01*
X014780Y011974D01*
X014620Y012049D02*
X014545Y012124D01*
X014395Y012124D01*
X014320Y012049D01*
X014320Y011749D01*
X014376Y005645D02*
X014076Y005345D01*
X014151Y005420D02*
X014376Y005195D01*
X014536Y005195D02*
X014686Y005195D01*
X014611Y005195D02*
X014611Y005645D01*
X014536Y005645D02*
X014686Y005645D01*
X014843Y005495D02*
X014993Y005645D01*
X015143Y005495D01*
X015143Y005195D01*
X015303Y005270D02*
X015379Y005195D01*
X015529Y005195D01*
X015604Y005270D01*
X015604Y005420D01*
X015529Y005495D01*
X015454Y005495D01*
X015303Y005420D01*
X015303Y005645D01*
X015604Y005645D01*
X015764Y005495D02*
X015914Y005645D01*
X015914Y005195D01*
X015764Y005195D02*
X016064Y005195D01*
X016224Y005195D02*
X016525Y005195D01*
X016374Y005195D02*
X016374Y005645D01*
X016224Y005495D01*
X016685Y005570D02*
X016685Y005270D01*
X016985Y005570D01*
X016985Y005270D01*
X016910Y005195D01*
X016760Y005195D01*
X016685Y005270D01*
X016685Y005570D02*
X016760Y005645D01*
X016910Y005645D01*
X016985Y005570D01*
X017145Y005120D02*
X017445Y005120D01*
X017605Y005195D02*
X017906Y005195D01*
X018066Y005270D02*
X018141Y005195D01*
X018291Y005195D01*
X018366Y005270D01*
X018526Y005195D02*
X018751Y005195D01*
X018827Y005270D01*
X018827Y005570D01*
X018751Y005645D01*
X018526Y005645D01*
X018526Y005195D01*
X018366Y005570D02*
X018291Y005645D01*
X018141Y005645D01*
X018066Y005570D01*
X018066Y005270D01*
X017605Y005195D02*
X017605Y005645D01*
X015143Y005420D02*
X014843Y005420D01*
X014843Y005495D02*
X014843Y005195D01*
X014076Y005195D02*
X014076Y005645D01*
X013916Y005570D02*
X013841Y005645D01*
X013690Y005645D01*
X013615Y005570D01*
X013615Y005270D01*
X013690Y005195D01*
X013841Y005195D01*
X013916Y005270D01*
X013916Y005570D01*
X013455Y005645D02*
X013455Y005195D01*
X013155Y005645D01*
X013155Y005195D01*
X023355Y008995D02*
X023355Y009295D01*
X023580Y009295D01*
X023655Y009220D01*
X023655Y008995D01*
X023815Y008995D02*
X023815Y009445D01*
X024041Y009445D01*
X024116Y009370D01*
X024116Y009220D01*
X024041Y009145D01*
X023815Y009145D01*
X023966Y009145D02*
X024116Y008995D01*
X024276Y008995D02*
X024276Y009445D01*
X024576Y009445D01*
X024736Y009370D02*
X024811Y009445D01*
X024961Y009445D01*
X025036Y009370D01*
X025036Y009295D01*
X024736Y008995D01*
X025036Y008995D01*
X025197Y009220D02*
X025497Y009220D01*
X025422Y008995D02*
X025422Y009445D01*
X025197Y009220D01*
X025657Y008995D02*
X025957Y008995D01*
X026117Y009070D02*
X026117Y009370D01*
X026192Y009445D01*
X026343Y009445D01*
X026418Y009370D01*
X026117Y009070D01*
X026192Y008995D01*
X026343Y008995D01*
X026418Y009070D01*
X026418Y009370D01*
X026578Y009295D02*
X026728Y009445D01*
X026728Y008995D01*
X026578Y008995D02*
X026878Y008995D01*
X025657Y008995D02*
X025657Y009445D01*
X024426Y009220D02*
X024276Y009220D01*
X012731Y019285D02*
X012731Y019735D01*
X012506Y019510D01*
X012806Y019510D01*
X012346Y019285D02*
X012045Y019285D01*
X012196Y019285D02*
X012196Y019735D01*
X012045Y019585D01*
X011885Y019510D02*
X011810Y019435D01*
X011585Y019435D01*
X011585Y019285D02*
X011585Y019735D01*
X011810Y019735D01*
X011885Y019660D01*
X011885Y019510D01*
X011735Y019435D02*
X011885Y019285D01*
X005850Y021135D02*
X005550Y021135D01*
X005700Y021135D02*
X005700Y021585D01*
X005550Y021435D01*
X005395Y021210D02*
X005395Y021135D01*
X005319Y021135D01*
X005319Y021210D01*
X005395Y021210D01*
X005159Y021435D02*
X005009Y021135D01*
X004859Y021435D01*
X004699Y021360D02*
X004699Y021285D01*
X004399Y021285D01*
X004399Y021210D02*
X004399Y021360D01*
X004474Y021435D01*
X004624Y021435D01*
X004699Y021360D01*
X004624Y021135D02*
X004474Y021135D01*
X004399Y021210D01*
X004240Y021435D02*
X004165Y021435D01*
X004015Y021285D01*
X004015Y021135D02*
X004015Y021435D01*
D12*
X007575Y002759D02*
X007575Y002512D01*
X007575Y002635D02*
X007945Y002635D01*
X007883Y002390D02*
X007945Y002328D01*
X007945Y002205D01*
X007883Y002143D01*
X007945Y002022D02*
X007822Y001898D01*
X007822Y001960D02*
X007822Y001775D01*
X007945Y001775D02*
X007575Y001775D01*
X007575Y001960D01*
X007636Y002022D01*
X007760Y002022D01*
X007822Y001960D01*
X007698Y002143D02*
X007760Y002205D01*
X007760Y002328D01*
X007822Y002390D01*
X007883Y002390D01*
X007636Y002390D02*
X007575Y002328D01*
X007575Y002205D01*
X007636Y002143D01*
X007698Y002143D01*
X008675Y002160D02*
X008675Y002037D01*
X008736Y001975D01*
X008983Y001975D01*
X009045Y002037D01*
X009045Y002160D01*
X008983Y002222D01*
X009045Y002343D02*
X008675Y002343D01*
X008675Y002590D01*
X008860Y002467D02*
X008860Y002343D01*
X008736Y002222D02*
X008675Y002160D01*
X009045Y002343D02*
X009045Y002590D01*
X009675Y002528D02*
X009675Y002405D01*
X009736Y002343D01*
X009983Y002343D01*
X010045Y002405D01*
X010045Y002528D01*
X009983Y002590D01*
X009736Y002590D02*
X009675Y002528D01*
X009736Y002222D02*
X009675Y002160D01*
X009675Y001975D01*
X010045Y001975D01*
X010045Y002160D01*
X009983Y002222D01*
X009736Y002222D01*
X010675Y002205D02*
X011045Y002205D01*
X011045Y002143D02*
X011045Y002267D01*
X011045Y002389D02*
X010675Y002389D01*
X011045Y002636D01*
X010675Y002636D01*
X010675Y002267D02*
X010675Y002143D01*
X010736Y002022D02*
X010675Y001960D01*
X010675Y001775D01*
X011045Y001775D01*
X011045Y001960D01*
X010983Y002022D01*
X010736Y002022D01*
X011675Y001960D02*
X011675Y001837D01*
X011736Y001775D01*
X011983Y001775D01*
X012045Y001837D01*
X012045Y001960D01*
X011983Y002022D01*
X012045Y002143D02*
X012045Y002390D01*
X012045Y002512D02*
X011675Y002512D01*
X011860Y002573D02*
X012045Y002759D01*
X011922Y002512D02*
X011675Y002759D01*
X011675Y002143D02*
X012045Y002143D01*
X011736Y002022D02*
X011675Y001960D01*
X012675Y002022D02*
X012922Y002022D01*
X013045Y001898D01*
X012922Y001775D01*
X012675Y001775D01*
X012736Y002143D02*
X012983Y002143D01*
X013045Y002205D01*
X013045Y002328D01*
X012983Y002390D01*
X012983Y002512D02*
X012736Y002512D01*
X012675Y002573D01*
X012675Y002697D01*
X012736Y002759D01*
X012983Y002759D02*
X013045Y002697D01*
X013045Y002573D01*
X012983Y002512D01*
X012736Y002390D02*
X012675Y002328D01*
X012675Y002205D01*
X012736Y002143D01*
X013675Y002160D02*
X013675Y001975D01*
X014045Y001975D01*
X014045Y002160D01*
X013983Y002222D01*
X013922Y002222D01*
X013860Y002160D01*
X013860Y001975D01*
X013860Y002160D02*
X013798Y002222D01*
X013736Y002222D01*
X013675Y002160D01*
X013675Y002343D02*
X014045Y002343D01*
X014045Y002590D01*
X014675Y002512D02*
X014675Y002697D01*
X014736Y002759D01*
X014983Y002759D01*
X015045Y002697D01*
X015045Y002512D01*
X014675Y002512D01*
X014675Y002390D02*
X015045Y002390D01*
X014675Y002143D01*
X015045Y002143D01*
X014983Y002022D02*
X014860Y002022D01*
X014860Y001898D01*
X014983Y001775D02*
X015045Y001837D01*
X015045Y001960D01*
X014983Y002022D01*
X014736Y002022D02*
X014675Y001960D01*
X014675Y001837D01*
X014736Y001775D01*
X014983Y001775D01*
D13*
X015860Y001860D02*
X016760Y001860D01*
X016860Y001960D01*
X016960Y001860D01*
X017760Y001860D01*
X017860Y001960D01*
X017960Y001860D01*
X018760Y001860D01*
X018860Y001960D01*
X018960Y001860D01*
X019760Y001860D01*
X019860Y001960D01*
X019960Y001860D01*
X020760Y001860D01*
X020860Y001960D01*
X020960Y001860D01*
X021860Y001860D01*
X021860Y002860D01*
X020960Y002860D01*
X020860Y002760D01*
X020760Y002860D01*
X019960Y002860D01*
X019860Y002760D01*
X019760Y002860D01*
X018960Y002860D01*
X018860Y002760D01*
X018760Y002860D01*
X017960Y002860D01*
X017860Y002760D01*
X017760Y002860D01*
X016960Y002860D01*
X016860Y002760D01*
X016760Y002860D01*
X015860Y002860D01*
X015860Y001860D01*
X022860Y001860D02*
X023760Y001860D01*
X023860Y001960D01*
X023960Y001860D01*
X024760Y001860D01*
X024860Y001960D01*
X024960Y001860D01*
X025760Y001860D01*
X025860Y001960D01*
X025960Y001860D01*
X026760Y001860D01*
X026860Y001960D01*
X026960Y001860D01*
X027760Y001860D01*
X027860Y001960D01*
X027960Y001860D01*
X028860Y001860D01*
X028860Y002860D01*
X027960Y002860D01*
X027860Y002760D01*
X027760Y002860D01*
X026960Y002860D01*
X026860Y002760D01*
X026760Y002860D01*
X025960Y002860D01*
X025860Y002760D01*
X025760Y002860D01*
X024960Y002860D01*
X024860Y002760D01*
X024760Y002860D01*
X023960Y002860D01*
X023860Y002760D01*
X023760Y002860D01*
X022860Y002860D01*
X022860Y001860D01*
X016194Y007339D02*
X015774Y007339D01*
X015374Y007339D01*
X014954Y007339D01*
X014931Y007341D01*
X014908Y007346D01*
X014886Y007355D01*
X014866Y007368D01*
X014848Y007383D01*
X014833Y007401D01*
X014820Y007421D01*
X014811Y007443D01*
X014806Y007466D01*
X014804Y007489D01*
X014804Y011189D01*
X014806Y011212D01*
X014811Y011235D01*
X014820Y011257D01*
X014833Y011277D01*
X014848Y011295D01*
X014866Y011310D01*
X014886Y011323D01*
X014908Y011332D01*
X014931Y011337D01*
X014954Y011339D01*
X016194Y011339D01*
X016217Y011337D01*
X016240Y011332D01*
X016262Y011323D01*
X016282Y011310D01*
X016300Y011295D01*
X016315Y011277D01*
X016328Y011257D01*
X016337Y011235D01*
X016342Y011212D01*
X016344Y011189D01*
X016344Y007489D01*
X016342Y007466D01*
X016337Y007443D01*
X016328Y007421D01*
X016315Y007401D01*
X016300Y007383D01*
X016282Y007368D01*
X016262Y007355D01*
X016240Y007346D01*
X016217Y007341D01*
X016194Y007339D01*
X015774Y007339D02*
X015772Y007366D01*
X015767Y007393D01*
X015757Y007419D01*
X015745Y007443D01*
X015729Y007465D01*
X015711Y007485D01*
X015689Y007502D01*
X015666Y007517D01*
X015641Y007527D01*
X015615Y007535D01*
X015588Y007539D01*
X015560Y007539D01*
X015533Y007535D01*
X015507Y007527D01*
X015482Y007517D01*
X015459Y007502D01*
X015437Y007485D01*
X015419Y007465D01*
X015403Y007443D01*
X015391Y007419D01*
X015381Y007393D01*
X015376Y007366D01*
X015374Y007339D01*
X015360Y020860D02*
X016160Y020860D01*
X016260Y020960D01*
X016360Y020860D01*
X017160Y020860D01*
X017260Y020960D01*
X017360Y020860D01*
X018160Y020860D01*
X018260Y020960D01*
X018360Y020860D01*
X019160Y020860D01*
X019260Y020960D01*
X019360Y020860D01*
X020260Y020860D01*
X020260Y021860D01*
X019360Y021860D01*
X019260Y021760D01*
X019160Y021860D01*
X018360Y021860D01*
X018260Y021760D01*
X018160Y021860D01*
X017360Y021860D01*
X017260Y021760D01*
X017160Y021860D01*
X016360Y021860D01*
X016260Y021760D01*
X016160Y021860D01*
X015360Y021860D01*
X015260Y021760D01*
X015160Y021860D01*
X014360Y021860D01*
X014260Y021760D01*
X014160Y021860D01*
X013360Y021860D01*
X013260Y021760D01*
X013160Y021860D01*
X012260Y021860D01*
X012260Y020860D01*
X013160Y020860D01*
X013260Y020960D01*
X013360Y020860D01*
X014160Y020860D01*
X014260Y020960D01*
X014360Y020860D01*
X015160Y020860D01*
X015260Y020960D01*
X015360Y020860D01*
X020860Y020860D02*
X020860Y021860D01*
X021760Y021860D01*
X021860Y021760D01*
X021960Y021860D01*
X022760Y021860D01*
X022860Y021760D01*
X022960Y021860D01*
X023760Y021860D01*
X023860Y021760D01*
X023960Y021860D01*
X024760Y021860D01*
X024860Y021760D01*
X024960Y021860D01*
X025760Y021860D01*
X025860Y021760D01*
X025960Y021860D01*
X026760Y021860D01*
X026860Y021760D01*
X026960Y021860D01*
X027760Y021860D01*
X027860Y021760D01*
X027960Y021860D01*
X028860Y021860D01*
X028860Y020860D01*
X027960Y020860D01*
X027860Y020960D01*
X027760Y020860D01*
X026960Y020860D01*
X026860Y020960D01*
X026760Y020860D01*
X025960Y020860D01*
X025860Y020960D01*
X025760Y020860D01*
X024960Y020860D01*
X024860Y020960D01*
X024760Y020860D01*
X023960Y020860D01*
X023860Y020960D01*
X023760Y020860D01*
X022960Y020860D01*
X022860Y020960D01*
X022760Y020860D01*
X021960Y020860D01*
X021860Y020960D01*
X021760Y020860D01*
X020860Y020860D01*
D14*
X020704Y017232D02*
X020550Y017232D01*
X020473Y017155D01*
X020473Y016848D01*
X020550Y016772D01*
X020704Y016772D01*
X020780Y016848D01*
X020934Y016772D02*
X021241Y016772D01*
X021087Y016772D02*
X021087Y017232D01*
X020934Y017078D01*
X020780Y017155D02*
X020704Y017232D01*
X020884Y011380D02*
X020808Y011304D01*
X020808Y010997D01*
X020884Y010920D01*
X021038Y010920D01*
X021114Y010997D01*
X021268Y010997D02*
X021345Y010920D01*
X021498Y010920D01*
X021575Y010997D01*
X021575Y011074D01*
X021498Y011150D01*
X021421Y011150D01*
X021498Y011150D02*
X021575Y011227D01*
X021575Y011304D01*
X021498Y011380D01*
X021345Y011380D01*
X021268Y011304D01*
X021114Y011304D02*
X021038Y011380D01*
X020884Y011380D01*
X025432Y005048D02*
X025662Y005048D01*
X025739Y004971D01*
X025739Y004817D01*
X025662Y004741D01*
X025432Y004741D01*
X025586Y004741D02*
X025739Y004587D01*
X025893Y004664D02*
X025893Y004741D01*
X025969Y004817D01*
X026123Y004817D01*
X026200Y004741D01*
X026200Y004664D01*
X026123Y004587D01*
X025969Y004587D01*
X025893Y004664D01*
X025969Y004817D02*
X025893Y004894D01*
X025893Y004971D01*
X025969Y005048D01*
X026123Y005048D01*
X026200Y004971D01*
X026200Y004894D01*
X026123Y004817D01*
X025432Y004587D02*
X025432Y005048D01*
X012477Y005326D02*
X012477Y005633D01*
X012400Y005709D01*
X012246Y005709D01*
X012170Y005633D01*
X012170Y005556D01*
X012246Y005479D01*
X012477Y005479D01*
X012477Y005326D02*
X012400Y005249D01*
X012246Y005249D01*
X012170Y005326D01*
X012016Y005249D02*
X011863Y005403D01*
X011939Y005403D02*
X011709Y005403D01*
X011709Y005249D02*
X011709Y005709D01*
X011939Y005709D01*
X012016Y005633D01*
X012016Y005479D01*
X011939Y005403D01*
X011933Y007124D02*
X011780Y007124D01*
X011703Y007200D01*
X011703Y007507D01*
X011780Y007584D01*
X011933Y007584D01*
X012010Y007507D01*
X012163Y007354D02*
X012470Y007354D01*
X012393Y007124D02*
X012393Y007584D01*
X012163Y007354D01*
X012010Y007200D02*
X011933Y007124D01*
X009424Y008575D02*
X009347Y008499D01*
X009194Y008499D01*
X009117Y008575D01*
X009424Y008882D01*
X009424Y008575D01*
X009117Y008575D02*
X009117Y008882D01*
X009194Y008959D01*
X009347Y008959D01*
X009424Y008882D01*
X008963Y008499D02*
X008657Y008499D01*
X008810Y008499D02*
X008810Y008959D01*
X008657Y008806D01*
X008503Y008882D02*
X008426Y008959D01*
X008196Y008959D01*
X008196Y008499D01*
X008196Y008652D02*
X008426Y008652D01*
X008503Y008729D01*
X008503Y008882D01*
X008350Y008652D02*
X008503Y008499D01*
X006968Y009630D02*
X006892Y009554D01*
X006738Y009554D01*
X006661Y009630D01*
X006508Y009554D02*
X006354Y009707D01*
X006431Y009707D02*
X006201Y009707D01*
X006201Y009554D02*
X006201Y010014D01*
X006431Y010014D01*
X006508Y009937D01*
X006508Y009784D01*
X006431Y009707D01*
X006661Y009937D02*
X006738Y010014D01*
X006892Y010014D01*
X006968Y009937D01*
X006968Y009861D01*
X006892Y009784D01*
X006968Y009707D01*
X006968Y009630D01*
X006892Y009784D02*
X006815Y009784D01*
X008263Y013169D02*
X008263Y013629D01*
X008493Y013629D01*
X008570Y013553D01*
X008570Y013399D01*
X008493Y013322D01*
X008263Y013322D01*
X008416Y013322D02*
X008570Y013169D01*
X008723Y013169D02*
X009030Y013476D01*
X009030Y013553D01*
X008953Y013629D01*
X008800Y013629D01*
X008723Y013553D01*
X008723Y013169D02*
X009030Y013169D01*
X006977Y014160D02*
X006671Y014160D01*
X006977Y014467D01*
X006977Y014544D01*
X006901Y014620D01*
X006747Y014620D01*
X006671Y014544D01*
X006364Y014620D02*
X006364Y014160D01*
X006517Y014160D02*
X006210Y014160D01*
X006057Y014160D02*
X005903Y014313D01*
X005980Y014313D02*
X005750Y014313D01*
X005750Y014160D02*
X005750Y014620D01*
X005980Y014620D01*
X006057Y014544D01*
X006057Y014390D01*
X005980Y014313D01*
X006210Y014467D02*
X006364Y014620D01*
X009263Y017545D02*
X009263Y018005D01*
X009493Y018005D01*
X009570Y017929D01*
X009570Y017775D01*
X009493Y017699D01*
X009263Y017699D01*
X009416Y017699D02*
X009570Y017545D01*
X009723Y017622D02*
X009800Y017545D01*
X009953Y017545D01*
X010030Y017622D01*
X010030Y017775D01*
X009953Y017852D01*
X009877Y017852D01*
X009723Y017775D01*
X009723Y018005D01*
X010030Y018005D01*
X011815Y011964D02*
X011738Y011887D01*
X011738Y011580D01*
X011815Y011504D01*
X011968Y011504D01*
X012045Y011580D01*
X012198Y011580D02*
X012275Y011504D01*
X012428Y011504D01*
X012505Y011580D01*
X012505Y011734D01*
X012428Y011810D01*
X012352Y011810D01*
X012198Y011734D01*
X012198Y011964D01*
X012505Y011964D01*
X012045Y011887D02*
X011968Y011964D01*
X011815Y011964D01*
X011723Y010090D02*
X011953Y010090D01*
X012029Y010014D01*
X012029Y009860D01*
X011953Y009783D01*
X011723Y009783D01*
X011876Y009783D02*
X012029Y009630D01*
X012183Y009630D02*
X012490Y009630D01*
X012336Y009630D02*
X012336Y010090D01*
X012183Y009937D01*
X011723Y010090D02*
X011723Y009630D01*
X006898Y005297D02*
X006898Y004837D01*
X006745Y004837D02*
X007052Y004837D01*
X006745Y005144D02*
X006898Y005297D01*
X006438Y005297D02*
X006284Y005144D01*
X006131Y005220D02*
X006131Y005067D01*
X006054Y004990D01*
X005824Y004990D01*
X005824Y004837D02*
X005824Y005297D01*
X006054Y005297D01*
X006131Y005220D01*
X005977Y004990D02*
X006131Y004837D01*
X006284Y004837D02*
X006591Y004837D01*
X006438Y004837D02*
X006438Y005297D01*
D15*
X007061Y005555D02*
X004777Y005555D01*
X003399Y005555D02*
X003399Y008036D01*
X003360Y007740D02*
X002415Y007740D01*
X002415Y005851D01*
X003360Y005851D01*
X004777Y008036D02*
X007061Y008036D01*
X007848Y007642D02*
X007848Y005949D01*
X009514Y006813D02*
X009868Y006458D01*
X009947Y006458D01*
X009514Y006813D02*
X009514Y008151D01*
X009927Y008151D01*
X010793Y008151D02*
X011206Y008151D01*
X011206Y006813D01*
X010852Y006458D01*
X010793Y006458D01*
X009986Y006655D02*
X009941Y006683D01*
X009899Y006714D01*
X009859Y006747D01*
X009821Y006784D01*
X009786Y006822D01*
X009754Y006864D01*
X009724Y006907D01*
X009698Y006953D01*
X009675Y007000D01*
X009655Y007048D01*
X009639Y007098D01*
X009626Y007149D01*
X009617Y007201D01*
X009612Y007253D01*
X009610Y007305D01*
X009612Y007357D01*
X009617Y007409D01*
X009626Y007461D01*
X009639Y007512D01*
X009655Y007562D01*
X009675Y007610D01*
X009698Y007657D01*
X009724Y007703D01*
X009754Y007746D01*
X009786Y007788D01*
X009821Y007826D01*
X009859Y007863D01*
X009899Y007896D01*
X009941Y007927D01*
X009986Y007955D01*
X010734Y007955D02*
X010779Y007927D01*
X010821Y007896D01*
X010861Y007863D01*
X010899Y007826D01*
X010934Y007788D01*
X010966Y007746D01*
X010996Y007703D01*
X011022Y007657D01*
X011045Y007610D01*
X011065Y007562D01*
X011081Y007512D01*
X011094Y007461D01*
X011103Y007409D01*
X011108Y007357D01*
X011110Y007305D01*
X011108Y007253D01*
X011103Y007201D01*
X011094Y007149D01*
X011081Y007098D01*
X011065Y007048D01*
X011045Y007000D01*
X011022Y006953D01*
X010996Y006907D01*
X010966Y006864D01*
X010934Y006822D01*
X010899Y006784D01*
X010861Y006747D01*
X010821Y006714D01*
X010779Y006683D01*
X010734Y006655D01*
X007061Y010245D02*
X004777Y010245D01*
X003399Y010245D02*
X003399Y012725D01*
X003360Y012430D02*
X002415Y012430D01*
X002415Y010540D01*
X003360Y010540D01*
X004777Y012725D02*
X007061Y012725D01*
X007848Y012331D02*
X007848Y010639D01*
X009514Y011207D02*
X009868Y010853D01*
X009947Y010853D01*
X009514Y011207D02*
X009514Y012546D01*
X009927Y012546D01*
X010793Y012546D02*
X011206Y012546D01*
X011206Y011207D01*
X010852Y010853D01*
X010793Y010853D01*
X009986Y011049D02*
X009941Y011077D01*
X009899Y011108D01*
X009859Y011141D01*
X009821Y011178D01*
X009786Y011216D01*
X009754Y011258D01*
X009724Y011301D01*
X009698Y011347D01*
X009675Y011394D01*
X009655Y011442D01*
X009639Y011492D01*
X009626Y011543D01*
X009617Y011595D01*
X009612Y011647D01*
X009610Y011699D01*
X009612Y011751D01*
X009617Y011803D01*
X009626Y011855D01*
X009639Y011906D01*
X009655Y011956D01*
X009675Y012004D01*
X009698Y012051D01*
X009724Y012097D01*
X009754Y012140D01*
X009786Y012182D01*
X009821Y012220D01*
X009859Y012257D01*
X009899Y012290D01*
X009941Y012321D01*
X009986Y012349D01*
X010734Y012349D02*
X010779Y012321D01*
X010821Y012290D01*
X010861Y012257D01*
X010899Y012220D01*
X010934Y012182D01*
X010966Y012140D01*
X010996Y012097D01*
X011022Y012051D01*
X011045Y012004D01*
X011065Y011956D01*
X011081Y011906D01*
X011094Y011855D01*
X011103Y011803D01*
X011108Y011751D01*
X011110Y011699D01*
X011108Y011647D01*
X011103Y011595D01*
X011094Y011543D01*
X011081Y011492D01*
X011065Y011442D01*
X011045Y011394D01*
X011022Y011347D01*
X010996Y011301D01*
X010966Y011258D01*
X010934Y011216D01*
X010899Y011178D01*
X010861Y011141D01*
X010821Y011108D01*
X010779Y011077D01*
X010734Y011049D01*
X007061Y014872D02*
X004777Y014872D01*
X003399Y014872D02*
X003399Y017352D01*
X003360Y017057D02*
X002415Y017057D01*
X002415Y015167D01*
X003360Y015167D01*
X004777Y017352D02*
X007061Y017352D01*
X007848Y016958D02*
X007848Y015266D01*
X009464Y015565D02*
X009819Y015211D01*
X009897Y015211D01*
X009464Y015565D02*
X009464Y016904D01*
X009878Y016904D01*
X010744Y016904D02*
X011157Y016904D01*
X011157Y015565D01*
X010803Y015211D01*
X010744Y015211D01*
X009937Y015407D02*
X009892Y015435D01*
X009850Y015466D01*
X009810Y015499D01*
X009772Y015536D01*
X009737Y015574D01*
X009705Y015616D01*
X009675Y015659D01*
X009649Y015705D01*
X009626Y015752D01*
X009606Y015800D01*
X009590Y015850D01*
X009577Y015901D01*
X009568Y015953D01*
X009563Y016005D01*
X009561Y016057D01*
X009563Y016109D01*
X009568Y016161D01*
X009577Y016213D01*
X009590Y016264D01*
X009606Y016314D01*
X009626Y016362D01*
X009649Y016409D01*
X009675Y016455D01*
X009705Y016498D01*
X009737Y016540D01*
X009772Y016578D01*
X009810Y016615D01*
X009850Y016648D01*
X009892Y016679D01*
X009937Y016707D01*
X010685Y016707D02*
X010730Y016679D01*
X010772Y016648D01*
X010812Y016615D01*
X010850Y016578D01*
X010885Y016540D01*
X010917Y016498D01*
X010947Y016455D01*
X010973Y016409D01*
X010996Y016362D01*
X011016Y016314D01*
X011032Y016264D01*
X011045Y016213D01*
X011054Y016161D01*
X011059Y016109D01*
X011061Y016057D01*
X011059Y016005D01*
X011054Y015953D01*
X011045Y015901D01*
X011032Y015850D01*
X011016Y015800D01*
X010996Y015752D01*
X010973Y015705D01*
X010947Y015659D01*
X010917Y015616D01*
X010885Y015574D01*
X010850Y015536D01*
X010812Y015499D01*
X010772Y015466D01*
X010730Y015435D01*
X010685Y015407D01*
X020373Y013805D02*
X020373Y012467D01*
X020727Y012112D01*
X020806Y012112D01*
X021652Y012112D02*
X021711Y012112D01*
X022066Y012467D01*
X022066Y013805D01*
X021652Y013805D01*
X020786Y013805D02*
X020373Y013805D01*
X021593Y013609D02*
X021638Y013581D01*
X021680Y013550D01*
X021720Y013517D01*
X021758Y013480D01*
X021793Y013442D01*
X021825Y013400D01*
X021855Y013357D01*
X021881Y013311D01*
X021904Y013264D01*
X021924Y013216D01*
X021940Y013166D01*
X021953Y013115D01*
X021962Y013063D01*
X021967Y013011D01*
X021969Y012959D01*
X021967Y012907D01*
X021962Y012855D01*
X021953Y012803D01*
X021940Y012752D01*
X021924Y012702D01*
X021904Y012654D01*
X021881Y012607D01*
X021855Y012561D01*
X021825Y012518D01*
X021793Y012476D01*
X021758Y012438D01*
X021720Y012401D01*
X021680Y012368D01*
X021638Y012337D01*
X021593Y012309D01*
X020845Y012309D02*
X020800Y012337D01*
X020758Y012368D01*
X020718Y012401D01*
X020680Y012438D01*
X020645Y012476D01*
X020613Y012518D01*
X020583Y012561D01*
X020557Y012607D01*
X020534Y012654D01*
X020514Y012702D01*
X020498Y012752D01*
X020485Y012803D01*
X020476Y012855D01*
X020471Y012907D01*
X020469Y012959D01*
X020471Y013011D01*
X020476Y013063D01*
X020485Y013115D01*
X020498Y013166D01*
X020514Y013216D01*
X020534Y013264D01*
X020557Y013311D01*
X020583Y013357D01*
X020613Y013400D01*
X020645Y013442D01*
X020680Y013480D01*
X020718Y013517D01*
X020758Y013550D01*
X020800Y013581D01*
X020845Y013609D01*
D16*
X016204Y011339D02*
X016204Y007339D01*
D17*
X025003Y015737D03*
D18*
X019092Y018645D02*
X004344Y018645D01*
X004344Y004865D01*
X019092Y004865D01*
X019092Y018645D01*
X020151Y020818D02*
X020151Y002896D01*
X003360Y002896D01*
X003360Y020818D01*
X020151Y020818D01*
M02*
