%
M48
M72
T01C0.0197
T02C0.0315
T03C0.0320
T04C0.0394
T05C0.0472
T06C0.1102
T07C0.1260
%
T01
X6917Y3626
X9660Y5160
X6917Y7071
X9560Y8560
X9560Y9760
X12460Y9760
X13060Y9060
X13060Y7060
X15060Y6660
X15660Y6260
X16060Y6660
X17960Y7160
X17960Y9597
X19460Y11660
X17960Y12860
X18460Y14460
X18660Y15260
X15760Y11960
X14160Y13560
X13360Y11160
X9560Y12960
X9560Y13860
X6917Y11795
X6917Y16519
X9560Y17360
X12460Y17760
X13060Y18460
X14160Y19660
X16760Y19660
X23160Y18560
X23160Y17760
X23160Y16860
X23360Y15060
X24060Y15060
X23760Y13760
X23760Y13260
X23760Y12760
X23760Y12260
X23760Y11760
X23760Y11260
X23760Y10760
X23760Y10260
X21160Y9060
X23760Y7760
X28060Y7660
X24360Y3860
X25460Y13860
X7860Y19360
T02
X26173Y19260
X26173Y18473
X26173Y17685
X26173Y20048
X29548Y8357
X29548Y6388
X14843Y3873
X13843Y3873
X12843Y3873
X11843Y3873
X10843Y3873
X9843Y3873
X8843Y3873
X7843Y3873
T03
X16360Y2360
X17360Y2360
X18360Y2360
X19360Y2360
X20360Y2360
X21360Y2360
X23360Y2360
X24360Y2360
X25360Y2360
X26360Y2360
X27360Y2360
X28360Y2360
X28360Y21360
X27360Y21360
X26360Y21360
X25360Y21360
X24360Y21360
X23360Y21360
X22360Y21360
X21360Y21360
X19760Y21360
X18760Y21360
X17760Y21360
X16760Y21360
X15760Y21360
X14760Y21360
X13760Y21360
X12760Y21360
T04
X6116Y17096
X6116Y15128
X6116Y12469
X6116Y10501
X6116Y7780
X6116Y5811
T05
X28563Y5995
X28563Y8750
T06
X4856Y3896
X18655Y3896
X18655Y19629
X4856Y19629
T07
X9360Y21360
X29360Y15360
X29360Y4360
M30
