G75*
G70*
%OFA0B0*%
%FSLAX24Y24*%
%IPPOS*%
%LPD*%
%AMOC8*
5,1,8,0,0,1.08239X$1,22.5*
%
%ADD10C,0.0000*%
%ADD11C,0.0050*%
%ADD12R,0.0700X0.0700*%
%ADD13C,0.0700*%
%ADD14R,0.0591X0.0512*%
%ADD15R,0.0630X0.1024*%
%ADD16C,0.0866*%
%ADD17C,0.0669*%
%ADD18R,0.0512X0.0630*%
%ADD19R,0.0787X0.0984*%
%ADD20R,0.0591X0.0984*%
%ADD21R,0.0630X0.0512*%
%ADD22R,0.0515X0.0515*%
%ADD23C,0.0515*%
%ADD24R,0.0800X0.0260*%
%ADD25R,0.0472X0.0472*%
%ADD26C,0.0397*%
%ADD27R,0.0866X0.0236*%
%ADD28R,0.0512X0.0591*%
%ADD29C,0.0120*%
%ADD30C,0.0317*%
%ADD31C,0.0240*%
D10*
X004305Y003896D02*
X004307Y003943D01*
X004313Y003989D01*
X004323Y004035D01*
X004336Y004080D01*
X004354Y004123D01*
X004375Y004165D01*
X004399Y004205D01*
X004427Y004242D01*
X004458Y004277D01*
X004492Y004310D01*
X004528Y004339D01*
X004567Y004365D01*
X004608Y004388D01*
X004651Y004407D01*
X004695Y004423D01*
X004740Y004435D01*
X004786Y004443D01*
X004833Y004447D01*
X004879Y004447D01*
X004926Y004443D01*
X004972Y004435D01*
X005017Y004423D01*
X005061Y004407D01*
X005104Y004388D01*
X005145Y004365D01*
X005184Y004339D01*
X005220Y004310D01*
X005254Y004277D01*
X005285Y004242D01*
X005313Y004205D01*
X005337Y004165D01*
X005358Y004123D01*
X005376Y004080D01*
X005389Y004035D01*
X005399Y003989D01*
X005405Y003943D01*
X005407Y003896D01*
X005405Y003849D01*
X005399Y003803D01*
X005389Y003757D01*
X005376Y003712D01*
X005358Y003669D01*
X005337Y003627D01*
X005313Y003587D01*
X005285Y003550D01*
X005254Y003515D01*
X005220Y003482D01*
X005184Y003453D01*
X005145Y003427D01*
X005104Y003404D01*
X005061Y003385D01*
X005017Y003369D01*
X004972Y003357D01*
X004926Y003349D01*
X004879Y003345D01*
X004833Y003345D01*
X004786Y003349D01*
X004740Y003357D01*
X004695Y003369D01*
X004651Y003385D01*
X004608Y003404D01*
X004567Y003427D01*
X004528Y003453D01*
X004492Y003482D01*
X004458Y003515D01*
X004427Y003550D01*
X004399Y003587D01*
X004375Y003627D01*
X004354Y003669D01*
X004336Y003712D01*
X004323Y003757D01*
X004313Y003803D01*
X004307Y003849D01*
X004305Y003896D01*
X005919Y005811D02*
X005921Y005838D01*
X005927Y005865D01*
X005936Y005891D01*
X005949Y005915D01*
X005965Y005938D01*
X005984Y005957D01*
X006006Y005974D01*
X006030Y005988D01*
X006055Y005998D01*
X006082Y006005D01*
X006109Y006008D01*
X006137Y006007D01*
X006164Y006002D01*
X006190Y005994D01*
X006214Y005982D01*
X006237Y005966D01*
X006258Y005948D01*
X006275Y005927D01*
X006290Y005903D01*
X006301Y005878D01*
X006309Y005852D01*
X006313Y005825D01*
X006313Y005797D01*
X006309Y005770D01*
X006301Y005744D01*
X006290Y005719D01*
X006275Y005695D01*
X006258Y005674D01*
X006237Y005656D01*
X006215Y005640D01*
X006190Y005628D01*
X006164Y005620D01*
X006137Y005615D01*
X006109Y005614D01*
X006082Y005617D01*
X006055Y005624D01*
X006030Y005634D01*
X006006Y005648D01*
X005984Y005665D01*
X005965Y005684D01*
X005949Y005707D01*
X005936Y005731D01*
X005927Y005757D01*
X005921Y005784D01*
X005919Y005811D01*
X005919Y007780D02*
X005921Y007807D01*
X005927Y007834D01*
X005936Y007860D01*
X005949Y007884D01*
X005965Y007907D01*
X005984Y007926D01*
X006006Y007943D01*
X006030Y007957D01*
X006055Y007967D01*
X006082Y007974D01*
X006109Y007977D01*
X006137Y007976D01*
X006164Y007971D01*
X006190Y007963D01*
X006214Y007951D01*
X006237Y007935D01*
X006258Y007917D01*
X006275Y007896D01*
X006290Y007872D01*
X006301Y007847D01*
X006309Y007821D01*
X006313Y007794D01*
X006313Y007766D01*
X006309Y007739D01*
X006301Y007713D01*
X006290Y007688D01*
X006275Y007664D01*
X006258Y007643D01*
X006237Y007625D01*
X006215Y007609D01*
X006190Y007597D01*
X006164Y007589D01*
X006137Y007584D01*
X006109Y007583D01*
X006082Y007586D01*
X006055Y007593D01*
X006030Y007603D01*
X006006Y007617D01*
X005984Y007634D01*
X005965Y007653D01*
X005949Y007676D01*
X005936Y007700D01*
X005927Y007726D01*
X005921Y007753D01*
X005919Y007780D01*
X005919Y010501D02*
X005921Y010528D01*
X005927Y010555D01*
X005936Y010581D01*
X005949Y010605D01*
X005965Y010628D01*
X005984Y010647D01*
X006006Y010664D01*
X006030Y010678D01*
X006055Y010688D01*
X006082Y010695D01*
X006109Y010698D01*
X006137Y010697D01*
X006164Y010692D01*
X006190Y010684D01*
X006214Y010672D01*
X006237Y010656D01*
X006258Y010638D01*
X006275Y010617D01*
X006290Y010593D01*
X006301Y010568D01*
X006309Y010542D01*
X006313Y010515D01*
X006313Y010487D01*
X006309Y010460D01*
X006301Y010434D01*
X006290Y010409D01*
X006275Y010385D01*
X006258Y010364D01*
X006237Y010346D01*
X006215Y010330D01*
X006190Y010318D01*
X006164Y010310D01*
X006137Y010305D01*
X006109Y010304D01*
X006082Y010307D01*
X006055Y010314D01*
X006030Y010324D01*
X006006Y010338D01*
X005984Y010355D01*
X005965Y010374D01*
X005949Y010397D01*
X005936Y010421D01*
X005927Y010447D01*
X005921Y010474D01*
X005919Y010501D01*
X005919Y012469D02*
X005921Y012496D01*
X005927Y012523D01*
X005936Y012549D01*
X005949Y012573D01*
X005965Y012596D01*
X005984Y012615D01*
X006006Y012632D01*
X006030Y012646D01*
X006055Y012656D01*
X006082Y012663D01*
X006109Y012666D01*
X006137Y012665D01*
X006164Y012660D01*
X006190Y012652D01*
X006214Y012640D01*
X006237Y012624D01*
X006258Y012606D01*
X006275Y012585D01*
X006290Y012561D01*
X006301Y012536D01*
X006309Y012510D01*
X006313Y012483D01*
X006313Y012455D01*
X006309Y012428D01*
X006301Y012402D01*
X006290Y012377D01*
X006275Y012353D01*
X006258Y012332D01*
X006237Y012314D01*
X006215Y012298D01*
X006190Y012286D01*
X006164Y012278D01*
X006137Y012273D01*
X006109Y012272D01*
X006082Y012275D01*
X006055Y012282D01*
X006030Y012292D01*
X006006Y012306D01*
X005984Y012323D01*
X005965Y012342D01*
X005949Y012365D01*
X005936Y012389D01*
X005927Y012415D01*
X005921Y012442D01*
X005919Y012469D01*
X005919Y015128D02*
X005921Y015155D01*
X005927Y015182D01*
X005936Y015208D01*
X005949Y015232D01*
X005965Y015255D01*
X005984Y015274D01*
X006006Y015291D01*
X006030Y015305D01*
X006055Y015315D01*
X006082Y015322D01*
X006109Y015325D01*
X006137Y015324D01*
X006164Y015319D01*
X006190Y015311D01*
X006214Y015299D01*
X006237Y015283D01*
X006258Y015265D01*
X006275Y015244D01*
X006290Y015220D01*
X006301Y015195D01*
X006309Y015169D01*
X006313Y015142D01*
X006313Y015114D01*
X006309Y015087D01*
X006301Y015061D01*
X006290Y015036D01*
X006275Y015012D01*
X006258Y014991D01*
X006237Y014973D01*
X006215Y014957D01*
X006190Y014945D01*
X006164Y014937D01*
X006137Y014932D01*
X006109Y014931D01*
X006082Y014934D01*
X006055Y014941D01*
X006030Y014951D01*
X006006Y014965D01*
X005984Y014982D01*
X005965Y015001D01*
X005949Y015024D01*
X005936Y015048D01*
X005927Y015074D01*
X005921Y015101D01*
X005919Y015128D01*
X005919Y017096D02*
X005921Y017123D01*
X005927Y017150D01*
X005936Y017176D01*
X005949Y017200D01*
X005965Y017223D01*
X005984Y017242D01*
X006006Y017259D01*
X006030Y017273D01*
X006055Y017283D01*
X006082Y017290D01*
X006109Y017293D01*
X006137Y017292D01*
X006164Y017287D01*
X006190Y017279D01*
X006214Y017267D01*
X006237Y017251D01*
X006258Y017233D01*
X006275Y017212D01*
X006290Y017188D01*
X006301Y017163D01*
X006309Y017137D01*
X006313Y017110D01*
X006313Y017082D01*
X006309Y017055D01*
X006301Y017029D01*
X006290Y017004D01*
X006275Y016980D01*
X006258Y016959D01*
X006237Y016941D01*
X006215Y016925D01*
X006190Y016913D01*
X006164Y016905D01*
X006137Y016900D01*
X006109Y016899D01*
X006082Y016902D01*
X006055Y016909D01*
X006030Y016919D01*
X006006Y016933D01*
X005984Y016950D01*
X005965Y016969D01*
X005949Y016992D01*
X005936Y017016D01*
X005927Y017042D01*
X005921Y017069D01*
X005919Y017096D01*
X004305Y019629D02*
X004307Y019676D01*
X004313Y019722D01*
X004323Y019768D01*
X004336Y019813D01*
X004354Y019856D01*
X004375Y019898D01*
X004399Y019938D01*
X004427Y019975D01*
X004458Y020010D01*
X004492Y020043D01*
X004528Y020072D01*
X004567Y020098D01*
X004608Y020121D01*
X004651Y020140D01*
X004695Y020156D01*
X004740Y020168D01*
X004786Y020176D01*
X004833Y020180D01*
X004879Y020180D01*
X004926Y020176D01*
X004972Y020168D01*
X005017Y020156D01*
X005061Y020140D01*
X005104Y020121D01*
X005145Y020098D01*
X005184Y020072D01*
X005220Y020043D01*
X005254Y020010D01*
X005285Y019975D01*
X005313Y019938D01*
X005337Y019898D01*
X005358Y019856D01*
X005376Y019813D01*
X005389Y019768D01*
X005399Y019722D01*
X005405Y019676D01*
X005407Y019629D01*
X005405Y019582D01*
X005399Y019536D01*
X005389Y019490D01*
X005376Y019445D01*
X005358Y019402D01*
X005337Y019360D01*
X005313Y019320D01*
X005285Y019283D01*
X005254Y019248D01*
X005220Y019215D01*
X005184Y019186D01*
X005145Y019160D01*
X005104Y019137D01*
X005061Y019118D01*
X005017Y019102D01*
X004972Y019090D01*
X004926Y019082D01*
X004879Y019078D01*
X004833Y019078D01*
X004786Y019082D01*
X004740Y019090D01*
X004695Y019102D01*
X004651Y019118D01*
X004608Y019137D01*
X004567Y019160D01*
X004528Y019186D01*
X004492Y019215D01*
X004458Y019248D01*
X004427Y019283D01*
X004399Y019320D01*
X004375Y019360D01*
X004354Y019402D01*
X004336Y019445D01*
X004323Y019490D01*
X004313Y019536D01*
X004307Y019582D01*
X004305Y019629D01*
X008730Y021360D02*
X008732Y021410D01*
X008738Y021460D01*
X008748Y021509D01*
X008762Y021557D01*
X008779Y021604D01*
X008800Y021649D01*
X008825Y021693D01*
X008853Y021734D01*
X008885Y021773D01*
X008919Y021810D01*
X008956Y021844D01*
X008996Y021874D01*
X009038Y021901D01*
X009082Y021925D01*
X009128Y021946D01*
X009175Y021962D01*
X009223Y021975D01*
X009273Y021984D01*
X009322Y021989D01*
X009373Y021990D01*
X009423Y021987D01*
X009472Y021980D01*
X009521Y021969D01*
X009569Y021954D01*
X009615Y021936D01*
X009660Y021914D01*
X009703Y021888D01*
X009744Y021859D01*
X009783Y021827D01*
X009819Y021792D01*
X009851Y021754D01*
X009881Y021714D01*
X009908Y021671D01*
X009931Y021627D01*
X009950Y021581D01*
X009966Y021533D01*
X009978Y021484D01*
X009986Y021435D01*
X009990Y021385D01*
X009990Y021335D01*
X009986Y021285D01*
X009978Y021236D01*
X009966Y021187D01*
X009950Y021139D01*
X009931Y021093D01*
X009908Y021049D01*
X009881Y021006D01*
X009851Y020966D01*
X009819Y020928D01*
X009783Y020893D01*
X009744Y020861D01*
X009703Y020832D01*
X009660Y020806D01*
X009615Y020784D01*
X009569Y020766D01*
X009521Y020751D01*
X009472Y020740D01*
X009423Y020733D01*
X009373Y020730D01*
X009322Y020731D01*
X009273Y020736D01*
X009223Y020745D01*
X009175Y020758D01*
X009128Y020774D01*
X009082Y020795D01*
X009038Y020819D01*
X008996Y020846D01*
X008956Y020876D01*
X008919Y020910D01*
X008885Y020947D01*
X008853Y020986D01*
X008825Y021027D01*
X008800Y021071D01*
X008779Y021116D01*
X008762Y021163D01*
X008748Y021211D01*
X008738Y021260D01*
X008732Y021310D01*
X008730Y021360D01*
X018104Y019629D02*
X018106Y019676D01*
X018112Y019722D01*
X018122Y019768D01*
X018135Y019813D01*
X018153Y019856D01*
X018174Y019898D01*
X018198Y019938D01*
X018226Y019975D01*
X018257Y020010D01*
X018291Y020043D01*
X018327Y020072D01*
X018366Y020098D01*
X018407Y020121D01*
X018450Y020140D01*
X018494Y020156D01*
X018539Y020168D01*
X018585Y020176D01*
X018632Y020180D01*
X018678Y020180D01*
X018725Y020176D01*
X018771Y020168D01*
X018816Y020156D01*
X018860Y020140D01*
X018903Y020121D01*
X018944Y020098D01*
X018983Y020072D01*
X019019Y020043D01*
X019053Y020010D01*
X019084Y019975D01*
X019112Y019938D01*
X019136Y019898D01*
X019157Y019856D01*
X019175Y019813D01*
X019188Y019768D01*
X019198Y019722D01*
X019204Y019676D01*
X019206Y019629D01*
X019204Y019582D01*
X019198Y019536D01*
X019188Y019490D01*
X019175Y019445D01*
X019157Y019402D01*
X019136Y019360D01*
X019112Y019320D01*
X019084Y019283D01*
X019053Y019248D01*
X019019Y019215D01*
X018983Y019186D01*
X018944Y019160D01*
X018903Y019137D01*
X018860Y019118D01*
X018816Y019102D01*
X018771Y019090D01*
X018725Y019082D01*
X018678Y019078D01*
X018632Y019078D01*
X018585Y019082D01*
X018539Y019090D01*
X018494Y019102D01*
X018450Y019118D01*
X018407Y019137D01*
X018366Y019160D01*
X018327Y019186D01*
X018291Y019215D01*
X018257Y019248D01*
X018226Y019283D01*
X018198Y019320D01*
X018174Y019360D01*
X018153Y019402D01*
X018135Y019445D01*
X018122Y019490D01*
X018112Y019536D01*
X018106Y019582D01*
X018104Y019629D01*
X028730Y015360D02*
X028732Y015410D01*
X028738Y015460D01*
X028748Y015509D01*
X028762Y015557D01*
X028779Y015604D01*
X028800Y015649D01*
X028825Y015693D01*
X028853Y015734D01*
X028885Y015773D01*
X028919Y015810D01*
X028956Y015844D01*
X028996Y015874D01*
X029038Y015901D01*
X029082Y015925D01*
X029128Y015946D01*
X029175Y015962D01*
X029223Y015975D01*
X029273Y015984D01*
X029322Y015989D01*
X029373Y015990D01*
X029423Y015987D01*
X029472Y015980D01*
X029521Y015969D01*
X029569Y015954D01*
X029615Y015936D01*
X029660Y015914D01*
X029703Y015888D01*
X029744Y015859D01*
X029783Y015827D01*
X029819Y015792D01*
X029851Y015754D01*
X029881Y015714D01*
X029908Y015671D01*
X029931Y015627D01*
X029950Y015581D01*
X029966Y015533D01*
X029978Y015484D01*
X029986Y015435D01*
X029990Y015385D01*
X029990Y015335D01*
X029986Y015285D01*
X029978Y015236D01*
X029966Y015187D01*
X029950Y015139D01*
X029931Y015093D01*
X029908Y015049D01*
X029881Y015006D01*
X029851Y014966D01*
X029819Y014928D01*
X029783Y014893D01*
X029744Y014861D01*
X029703Y014832D01*
X029660Y014806D01*
X029615Y014784D01*
X029569Y014766D01*
X029521Y014751D01*
X029472Y014740D01*
X029423Y014733D01*
X029373Y014730D01*
X029322Y014731D01*
X029273Y014736D01*
X029223Y014745D01*
X029175Y014758D01*
X029128Y014774D01*
X029082Y014795D01*
X029038Y014819D01*
X028996Y014846D01*
X028956Y014876D01*
X028919Y014910D01*
X028885Y014947D01*
X028853Y014986D01*
X028825Y015027D01*
X028800Y015071D01*
X028779Y015116D01*
X028762Y015163D01*
X028748Y015211D01*
X028738Y015260D01*
X028732Y015310D01*
X028730Y015360D01*
X028730Y004360D02*
X028732Y004410D01*
X028738Y004460D01*
X028748Y004509D01*
X028762Y004557D01*
X028779Y004604D01*
X028800Y004649D01*
X028825Y004693D01*
X028853Y004734D01*
X028885Y004773D01*
X028919Y004810D01*
X028956Y004844D01*
X028996Y004874D01*
X029038Y004901D01*
X029082Y004925D01*
X029128Y004946D01*
X029175Y004962D01*
X029223Y004975D01*
X029273Y004984D01*
X029322Y004989D01*
X029373Y004990D01*
X029423Y004987D01*
X029472Y004980D01*
X029521Y004969D01*
X029569Y004954D01*
X029615Y004936D01*
X029660Y004914D01*
X029703Y004888D01*
X029744Y004859D01*
X029783Y004827D01*
X029819Y004792D01*
X029851Y004754D01*
X029881Y004714D01*
X029908Y004671D01*
X029931Y004627D01*
X029950Y004581D01*
X029966Y004533D01*
X029978Y004484D01*
X029986Y004435D01*
X029990Y004385D01*
X029990Y004335D01*
X029986Y004285D01*
X029978Y004236D01*
X029966Y004187D01*
X029950Y004139D01*
X029931Y004093D01*
X029908Y004049D01*
X029881Y004006D01*
X029851Y003966D01*
X029819Y003928D01*
X029783Y003893D01*
X029744Y003861D01*
X029703Y003832D01*
X029660Y003806D01*
X029615Y003784D01*
X029569Y003766D01*
X029521Y003751D01*
X029472Y003740D01*
X029423Y003733D01*
X029373Y003730D01*
X029322Y003731D01*
X029273Y003736D01*
X029223Y003745D01*
X029175Y003758D01*
X029128Y003774D01*
X029082Y003795D01*
X029038Y003819D01*
X028996Y003846D01*
X028956Y003876D01*
X028919Y003910D01*
X028885Y003947D01*
X028853Y003986D01*
X028825Y004027D01*
X028800Y004071D01*
X028779Y004116D01*
X028762Y004163D01*
X028748Y004211D01*
X028738Y004260D01*
X028732Y004310D01*
X028730Y004360D01*
X018104Y003896D02*
X018106Y003943D01*
X018112Y003989D01*
X018122Y004035D01*
X018135Y004080D01*
X018153Y004123D01*
X018174Y004165D01*
X018198Y004205D01*
X018226Y004242D01*
X018257Y004277D01*
X018291Y004310D01*
X018327Y004339D01*
X018366Y004365D01*
X018407Y004388D01*
X018450Y004407D01*
X018494Y004423D01*
X018539Y004435D01*
X018585Y004443D01*
X018632Y004447D01*
X018678Y004447D01*
X018725Y004443D01*
X018771Y004435D01*
X018816Y004423D01*
X018860Y004407D01*
X018903Y004388D01*
X018944Y004365D01*
X018983Y004339D01*
X019019Y004310D01*
X019053Y004277D01*
X019084Y004242D01*
X019112Y004205D01*
X019136Y004165D01*
X019157Y004123D01*
X019175Y004080D01*
X019188Y004035D01*
X019198Y003989D01*
X019204Y003943D01*
X019206Y003896D01*
X019204Y003849D01*
X019198Y003803D01*
X019188Y003757D01*
X019175Y003712D01*
X019157Y003669D01*
X019136Y003627D01*
X019112Y003587D01*
X019084Y003550D01*
X019053Y003515D01*
X019019Y003482D01*
X018983Y003453D01*
X018944Y003427D01*
X018903Y003404D01*
X018860Y003385D01*
X018816Y003369D01*
X018771Y003357D01*
X018725Y003349D01*
X018678Y003345D01*
X018632Y003345D01*
X018585Y003349D01*
X018539Y003357D01*
X018494Y003369D01*
X018450Y003385D01*
X018407Y003404D01*
X018366Y003427D01*
X018327Y003453D01*
X018291Y003482D01*
X018257Y003515D01*
X018226Y003550D01*
X018198Y003587D01*
X018174Y003627D01*
X018153Y003669D01*
X018135Y003712D01*
X018122Y003757D01*
X018112Y003803D01*
X018106Y003849D01*
X018104Y003896D01*
D11*
X029360Y001360D02*
X003360Y001360D01*
X003360Y022360D01*
X028760Y022360D01*
X029360Y021760D01*
X029360Y017260D01*
X030360Y016260D01*
X030360Y014360D01*
X027860Y014360D01*
X027860Y009660D01*
X030360Y009660D01*
X030360Y003360D01*
X029360Y002360D01*
X029360Y001360D01*
D12*
X023360Y002360D03*
X016360Y002360D03*
X007843Y003873D03*
X019760Y021360D03*
X028360Y021360D03*
D13*
X027360Y021360D03*
X026360Y021360D03*
X025360Y021360D03*
X024360Y021360D03*
X023360Y021360D03*
X022360Y021360D03*
X021360Y021360D03*
X018760Y021360D03*
X017760Y021360D03*
X016760Y021360D03*
X015760Y021360D03*
X014760Y021360D03*
X013760Y021360D03*
X012760Y021360D03*
X012843Y003873D03*
X013843Y003873D03*
X014843Y003873D03*
X017360Y002360D03*
X018360Y002360D03*
X019360Y002360D03*
X020360Y002360D03*
X021360Y002360D03*
X024360Y002360D03*
X025360Y002360D03*
X026360Y002360D03*
X027360Y002360D03*
X028360Y002360D03*
X011843Y003873D03*
X010843Y003873D03*
X009843Y003873D03*
X008843Y003873D03*
D14*
X020810Y015361D03*
X020810Y016109D03*
D15*
X021219Y013668D03*
X021219Y012250D03*
X010360Y012408D03*
X010360Y010990D03*
X010360Y008014D03*
X010360Y006596D03*
X010311Y015349D03*
X010311Y016766D03*
D16*
X028563Y008750D03*
X028563Y005995D03*
D17*
X029548Y006388D03*
X029548Y008357D03*
D18*
X026283Y003921D03*
X025535Y003921D03*
X011109Y005479D03*
X010361Y005479D03*
X010361Y009860D03*
X011109Y009860D03*
X010934Y019560D03*
X010186Y019560D03*
D19*
X004608Y017588D03*
X004608Y014636D03*
X004608Y012961D03*
X004608Y010009D03*
X004608Y008272D03*
X004608Y005319D03*
D20*
X007592Y005319D03*
X007592Y008272D03*
X007592Y010009D03*
X007592Y012961D03*
X007592Y014636D03*
X007592Y017588D03*
D21*
X008679Y017177D03*
X008679Y016429D03*
X008679Y015298D03*
X008679Y014550D03*
X008679Y012488D03*
X008679Y011740D03*
X008679Y010609D03*
X008679Y009861D03*
X008679Y007880D03*
X008679Y007132D03*
X008679Y006215D03*
X008679Y005467D03*
X011905Y013211D03*
X011905Y013959D03*
X022560Y015386D03*
X022560Y016134D03*
X026020Y016124D03*
X026020Y015376D03*
D22*
X026173Y020048D03*
D23*
X026173Y019260D03*
X026173Y018473D03*
X026173Y017685D03*
D24*
X016784Y011089D03*
X016784Y010589D03*
X016784Y010089D03*
X016784Y009589D03*
X016784Y009089D03*
X016784Y008589D03*
X016784Y008089D03*
X016784Y007589D03*
X014364Y007589D03*
X014364Y008089D03*
X014364Y008589D03*
X014364Y009089D03*
X014364Y009589D03*
X014364Y010089D03*
X014364Y010589D03*
X014364Y011089D03*
D25*
X025003Y015363D03*
X025003Y016190D03*
D26*
X023760Y013760D02*
X023363Y013760D01*
X023363Y013260D02*
X023760Y013260D01*
X023760Y012760D02*
X023363Y012760D01*
X023363Y012260D02*
X023760Y012260D01*
X023760Y011760D02*
X023363Y011760D01*
X023363Y011260D02*
X023760Y011260D01*
X023760Y010760D02*
X023363Y010760D01*
X023363Y010260D02*
X023760Y010260D01*
D27*
X016584Y014310D03*
X016584Y014810D03*
X016584Y015310D03*
X016584Y015810D03*
X014536Y015810D03*
X014536Y015310D03*
X014536Y014810D03*
X014536Y014310D03*
D28*
X015286Y017460D03*
X016034Y017460D03*
D29*
X016094Y017439D02*
X021520Y017439D01*
X021520Y017557D02*
X016450Y017557D01*
X016450Y017520D02*
X016450Y017776D01*
X016439Y017817D01*
X016418Y017854D01*
X016388Y017883D01*
X016352Y017904D01*
X016311Y017915D01*
X016094Y017915D01*
X016094Y017520D01*
X015974Y017520D01*
X015974Y017915D01*
X015757Y017915D01*
X015716Y017904D01*
X015680Y017883D01*
X015674Y017878D01*
X015616Y017935D01*
X015000Y017935D01*
X015000Y017961D01*
X015259Y018220D01*
X019108Y018220D01*
X019196Y018257D01*
X019896Y018957D01*
X019963Y019024D01*
X020000Y019112D01*
X020000Y020830D01*
X020185Y020830D01*
X020290Y020935D01*
X020290Y021785D01*
X020185Y021890D01*
X019335Y021890D01*
X019230Y021785D01*
X019230Y021610D01*
X019209Y021660D01*
X019060Y021809D01*
X018865Y021890D01*
X018769Y021890D01*
X018563Y022096D01*
X018504Y022155D01*
X028675Y022155D01*
X029155Y021675D01*
X029155Y017175D01*
X030155Y016175D01*
X030155Y015557D01*
X030047Y015819D01*
X029819Y016047D01*
X029521Y016170D01*
X029199Y016170D01*
X028901Y016047D01*
X028673Y015819D01*
X028550Y015521D01*
X028550Y015199D01*
X028673Y014901D01*
X028901Y014673D01*
X029163Y014565D01*
X027775Y014565D01*
X027655Y014445D01*
X027655Y009575D01*
X027775Y009455D01*
X030155Y009455D01*
X030155Y004557D01*
X030047Y004819D01*
X029819Y005047D01*
X029521Y005170D01*
X029199Y005170D01*
X028901Y005047D01*
X028673Y004819D01*
X028550Y004521D01*
X028550Y004199D01*
X028673Y003901D01*
X028901Y003673D01*
X029199Y003550D01*
X029521Y003550D01*
X029819Y003673D01*
X030047Y003901D01*
X030155Y004163D01*
X030155Y003445D01*
X029275Y002565D01*
X029155Y002445D01*
X029155Y001565D01*
X003565Y001565D01*
X003565Y022155D01*
X009163Y022155D01*
X008901Y022047D01*
X008673Y021819D01*
X008550Y021521D01*
X008550Y021199D01*
X008673Y020901D01*
X008901Y020673D01*
X009199Y020550D01*
X009521Y020550D01*
X009819Y020673D01*
X010047Y020901D01*
X010170Y021199D01*
X010170Y021521D01*
X010047Y021819D01*
X009819Y022047D01*
X009557Y022155D01*
X011616Y022155D01*
X010824Y021363D01*
X010757Y021296D01*
X010720Y021208D01*
X010720Y020055D01*
X010604Y020055D01*
X010560Y020011D01*
X010516Y020055D01*
X009856Y020055D01*
X009750Y019950D01*
X009750Y019800D01*
X008012Y019800D01*
X007924Y019763D01*
X007859Y019698D01*
X007793Y019698D01*
X007668Y019647D01*
X007573Y019552D01*
X007522Y019427D01*
X007522Y019293D01*
X007573Y019168D01*
X007668Y019073D01*
X007793Y019022D01*
X007927Y019022D01*
X008052Y019073D01*
X008147Y019168D01*
X008198Y019293D01*
X008198Y019320D01*
X009750Y019320D01*
X009750Y019170D01*
X009856Y019065D01*
X010516Y019065D01*
X010560Y019109D01*
X010604Y019065D01*
X011264Y019065D01*
X011370Y019170D01*
X011370Y019950D01*
X011264Y020055D01*
X011200Y020055D01*
X011200Y021061D01*
X011859Y021720D01*
X012370Y021720D01*
X012311Y021660D01*
X012230Y021465D01*
X012230Y021255D01*
X012311Y021060D01*
X012460Y020911D01*
X012655Y020830D01*
X012865Y020830D01*
X013060Y020911D01*
X013209Y021060D01*
X013272Y021211D01*
X013287Y021164D01*
X013324Y021093D01*
X013371Y021028D01*
X013428Y020971D01*
X013493Y020924D01*
X013564Y020887D01*
X013641Y020863D01*
X013720Y020850D01*
X013740Y020850D01*
X013740Y021340D01*
X013780Y021340D01*
X013780Y020850D01*
X013800Y020850D01*
X013879Y020863D01*
X013944Y020884D01*
X013557Y020496D01*
X013520Y020408D01*
X013520Y015412D01*
X013557Y015324D01*
X013571Y015310D01*
X013357Y015096D01*
X013320Y015008D01*
X013320Y012912D01*
X013357Y012824D01*
X013424Y012757D01*
X014024Y012157D01*
X014112Y012120D01*
X016661Y012120D01*
X018157Y010624D01*
X018224Y010557D01*
X018312Y010520D01*
X021208Y010520D01*
X021296Y010557D01*
X022259Y011520D01*
X023068Y011520D01*
X023078Y011510D01*
X023042Y011474D01*
X023041Y011470D01*
X023024Y011463D01*
X022957Y011396D01*
X021397Y009836D01*
X018199Y009836D01*
X018152Y009883D01*
X018027Y009935D01*
X017893Y009935D01*
X017768Y009883D01*
X017714Y009829D01*
X017329Y009829D01*
X017319Y009839D01*
X017364Y009885D01*
X017364Y010294D01*
X017319Y010339D01*
X017364Y010385D01*
X017364Y010794D01*
X017305Y010854D01*
X017312Y010861D01*
X017333Y010898D01*
X017344Y010938D01*
X017344Y011084D01*
X016789Y011084D01*
X016789Y011094D01*
X017344Y011094D01*
X017344Y011240D01*
X017333Y011281D01*
X017312Y011318D01*
X017282Y011347D01*
X017246Y011369D01*
X017205Y011379D01*
X016789Y011379D01*
X016789Y011094D01*
X016779Y011094D01*
X016779Y011084D01*
X016224Y011084D01*
X016224Y010938D01*
X016235Y010898D01*
X016256Y010861D01*
X016264Y010854D01*
X016240Y010829D01*
X016230Y010829D01*
X015196Y011863D01*
X015108Y011900D01*
X014259Y011900D01*
X013300Y012859D01*
X013300Y018221D01*
X013347Y018268D01*
X013398Y018393D01*
X013398Y018527D01*
X013347Y018652D01*
X013252Y018747D01*
X013127Y018798D01*
X012993Y018798D01*
X012868Y018747D01*
X012773Y018652D01*
X012722Y018527D01*
X012722Y018393D01*
X012773Y018268D01*
X012820Y018221D01*
X012820Y012712D01*
X012857Y012624D01*
X013957Y011524D01*
X014024Y011457D01*
X014112Y011420D01*
X014961Y011420D01*
X015927Y010453D01*
X015995Y010386D01*
X016083Y010349D01*
X016240Y010349D01*
X016250Y010339D01*
X016240Y010329D01*
X015842Y010329D01*
X015753Y010293D01*
X015300Y009839D01*
X015300Y010308D01*
X015263Y010396D01*
X015196Y010463D01*
X014944Y010715D01*
X014944Y010794D01*
X014899Y010839D01*
X014944Y010885D01*
X014944Y011294D01*
X014839Y011399D01*
X013890Y011399D01*
X013820Y011329D01*
X013656Y011329D01*
X013647Y011352D01*
X013552Y011447D01*
X013427Y011498D01*
X013293Y011498D01*
X013168Y011447D01*
X013073Y011352D01*
X013022Y011227D01*
X013022Y011093D01*
X013073Y010968D01*
X013168Y010873D01*
X013293Y010822D01*
X013427Y010822D01*
X013495Y010849D01*
X013820Y010849D01*
X013830Y010839D01*
X013784Y010794D01*
X013784Y010385D01*
X013830Y010339D01*
X013820Y010329D01*
X013230Y010329D01*
X012700Y010859D01*
X012700Y017521D01*
X012747Y017568D01*
X012798Y017693D01*
X012798Y017827D01*
X012747Y017952D01*
X012652Y018047D01*
X012527Y018098D01*
X012393Y018098D01*
X012268Y018047D01*
X012173Y017952D01*
X012122Y017827D01*
X012122Y017693D01*
X012173Y017568D01*
X012220Y017521D01*
X012220Y014395D01*
X012100Y014395D01*
X012100Y015008D01*
X012063Y015096D01*
X011996Y015163D01*
X011656Y015503D01*
X011568Y015539D01*
X010806Y015539D01*
X010806Y015935D01*
X010700Y016040D01*
X009921Y016040D01*
X009816Y015935D01*
X009816Y015539D01*
X009174Y015539D01*
X009174Y015629D01*
X009069Y015734D01*
X008919Y015734D01*
X008919Y015993D01*
X009069Y015993D01*
X009174Y016099D01*
X009174Y016760D01*
X009131Y016803D01*
X009174Y016847D01*
X009174Y017508D01*
X009069Y017613D01*
X008290Y017613D01*
X008184Y017508D01*
X008184Y017271D01*
X008068Y017157D01*
X008068Y018155D01*
X007962Y018260D01*
X007222Y018260D01*
X007117Y018155D01*
X007117Y017022D01*
X007222Y016916D01*
X007818Y016916D01*
X007657Y016759D01*
X007156Y016759D01*
X007109Y016806D01*
X006984Y016858D01*
X006850Y016858D01*
X006725Y016806D01*
X006630Y016711D01*
X006579Y016587D01*
X006579Y016452D01*
X006630Y016328D01*
X006725Y016233D01*
X006850Y016181D01*
X006984Y016181D01*
X007109Y016233D01*
X007156Y016279D01*
X007752Y016279D01*
X007798Y016279D01*
X007799Y016279D01*
X007801Y016279D01*
X007844Y016297D01*
X007886Y016314D01*
X007888Y016315D01*
X007890Y016316D01*
X007922Y016348D01*
X008184Y016602D01*
X008184Y016099D01*
X008290Y015993D01*
X008439Y015993D01*
X008439Y015734D01*
X008290Y015734D01*
X008184Y015629D01*
X008184Y015424D01*
X006353Y015424D01*
X006329Y015447D02*
X006191Y015505D01*
X006041Y015505D01*
X005902Y015447D01*
X005796Y015341D01*
X005739Y015203D01*
X005739Y015053D01*
X005796Y014914D01*
X005902Y014808D01*
X006041Y014751D01*
X006191Y014751D01*
X006329Y014808D01*
X006435Y014914D01*
X006493Y015053D01*
X006493Y015203D01*
X006435Y015341D01*
X006329Y015447D01*
X006450Y015306D02*
X007220Y015306D01*
X007222Y015308D02*
X007117Y015202D01*
X007117Y014069D01*
X007186Y014000D01*
X005459Y014000D01*
X005182Y014278D01*
X005182Y015202D01*
X005076Y015308D01*
X004140Y015308D01*
X004034Y015202D01*
X004034Y014069D01*
X004140Y013963D01*
X004817Y013963D01*
X005157Y013624D01*
X005224Y013557D01*
X005312Y013520D01*
X007117Y013520D01*
X007117Y012395D01*
X007222Y012289D01*
X007869Y012289D01*
X007607Y012035D01*
X007156Y012035D01*
X007109Y012082D01*
X006984Y012133D01*
X006850Y012133D01*
X006725Y012082D01*
X006630Y011987D01*
X006579Y011862D01*
X006579Y011728D01*
X006630Y011603D01*
X006725Y011508D01*
X006850Y011457D01*
X006984Y011457D01*
X007109Y011508D01*
X007156Y011555D01*
X007703Y011555D01*
X007749Y011554D01*
X007750Y011555D01*
X007752Y011555D01*
X007795Y011573D01*
X007837Y011590D01*
X007839Y011591D01*
X007840Y011592D01*
X007873Y011624D01*
X008184Y011926D01*
X008184Y011409D01*
X008290Y011304D01*
X008439Y011304D01*
X008439Y011045D01*
X008290Y011045D01*
X008184Y010939D01*
X008184Y010803D01*
X008159Y010777D01*
X008130Y010753D01*
X008125Y010743D01*
X008012Y010631D01*
X007962Y010681D01*
X007222Y010681D01*
X007117Y010575D01*
X007117Y009442D01*
X007159Y009400D01*
X005459Y009400D01*
X005182Y009678D01*
X005182Y010575D01*
X005076Y010681D01*
X004140Y010681D01*
X004034Y010575D01*
X004034Y009442D01*
X004140Y009336D01*
X004844Y009336D01*
X005157Y009024D01*
X005224Y008957D01*
X005312Y008920D01*
X007198Y008920D01*
X007117Y008839D01*
X007117Y007705D01*
X007222Y007600D01*
X007825Y007600D01*
X007552Y007311D01*
X007156Y007311D01*
X007109Y007358D01*
X006984Y007409D01*
X006850Y007409D01*
X006725Y007358D01*
X006630Y007262D01*
X006579Y007138D01*
X006579Y007003D01*
X006630Y006879D01*
X006725Y006784D01*
X006850Y006732D01*
X006984Y006732D01*
X007109Y006784D01*
X007156Y006831D01*
X007611Y006831D01*
X007614Y006829D01*
X007659Y006831D01*
X007703Y006831D01*
X007706Y006832D01*
X007710Y006832D01*
X007750Y006850D01*
X007791Y006867D01*
X007794Y006870D01*
X007797Y006871D01*
X007827Y006903D01*
X007859Y006935D01*
X007860Y006938D01*
X008184Y007281D01*
X008184Y006802D01*
X008290Y006696D01*
X008439Y006696D01*
X008439Y006651D01*
X008290Y006651D01*
X008184Y006545D01*
X008184Y006327D01*
X008181Y006320D01*
X008181Y006299D01*
X007873Y005991D01*
X007222Y005991D01*
X007117Y005886D01*
X007117Y004763D01*
X005796Y004763D01*
X005182Y005378D01*
X005182Y005886D01*
X005076Y005991D01*
X004140Y005991D01*
X004034Y005886D01*
X004034Y004752D01*
X004140Y004647D01*
X005076Y004647D01*
X005155Y004726D01*
X005561Y004320D01*
X005649Y004284D01*
X007313Y004284D01*
X007313Y003448D01*
X007419Y003343D01*
X008268Y003343D01*
X008373Y003448D01*
X008373Y003623D01*
X008394Y003573D01*
X008543Y003424D01*
X008738Y003343D01*
X008948Y003343D01*
X009143Y003424D01*
X009292Y003573D01*
X009343Y003695D01*
X009394Y003573D01*
X009543Y003424D01*
X009738Y003343D01*
X009948Y003343D01*
X010143Y003424D01*
X010292Y003573D01*
X010343Y003695D01*
X010394Y003573D01*
X010543Y003424D01*
X010738Y003343D01*
X010948Y003343D01*
X011143Y003424D01*
X011292Y003573D01*
X011343Y003695D01*
X011394Y003573D01*
X011543Y003424D01*
X011738Y003343D01*
X011948Y003343D01*
X012143Y003424D01*
X012292Y003573D01*
X012343Y003695D01*
X012394Y003573D01*
X012543Y003424D01*
X012738Y003343D01*
X012948Y003343D01*
X013143Y003424D01*
X013292Y003573D01*
X013343Y003695D01*
X013394Y003573D01*
X013543Y003424D01*
X013738Y003343D01*
X013948Y003343D01*
X014143Y003424D01*
X014292Y003573D01*
X014355Y003724D01*
X014370Y003677D01*
X014407Y003606D01*
X014454Y003541D01*
X014511Y003484D01*
X014576Y003437D01*
X014647Y003400D01*
X014724Y003375D01*
X014803Y003363D01*
X014824Y003363D01*
X014824Y003854D01*
X014373Y003854D01*
X014373Y003892D01*
X014824Y003892D01*
X014824Y004383D01*
X014803Y004383D01*
X014724Y004370D01*
X014647Y004346D01*
X014576Y004309D01*
X014511Y004262D01*
X014454Y004205D01*
X014407Y004140D01*
X014370Y004069D01*
X014355Y004022D01*
X014292Y004173D01*
X014143Y004322D01*
X013948Y004403D01*
X013738Y004403D01*
X013543Y004322D01*
X013394Y004173D01*
X013343Y004051D01*
X013292Y004173D01*
X013143Y004322D01*
X012948Y004403D01*
X012738Y004403D01*
X012543Y004322D01*
X012394Y004173D01*
X012343Y004051D01*
X012292Y004173D01*
X012143Y004322D01*
X011948Y004403D01*
X011738Y004403D01*
X011543Y004322D01*
X011394Y004173D01*
X011343Y004051D01*
X011292Y004173D01*
X011143Y004322D01*
X010948Y004403D01*
X010738Y004403D01*
X010543Y004322D01*
X010394Y004173D01*
X010343Y004051D01*
X010292Y004173D01*
X010143Y004322D01*
X009948Y004403D01*
X009738Y004403D01*
X009543Y004322D01*
X009394Y004173D01*
X009343Y004051D01*
X009292Y004173D01*
X009143Y004322D01*
X008948Y004403D01*
X008738Y004403D01*
X008543Y004322D01*
X008394Y004173D01*
X008373Y004123D01*
X008373Y004297D01*
X008276Y004394D01*
X008402Y004520D01*
X010890Y004520D01*
X010978Y004557D01*
X011406Y004984D01*
X011439Y004984D01*
X011468Y005013D01*
X019861Y005013D01*
X022717Y002157D01*
X022805Y002120D01*
X022830Y002120D01*
X022830Y001935D01*
X022935Y001830D01*
X023785Y001830D01*
X023890Y001935D01*
X023890Y002110D01*
X023911Y002060D01*
X024060Y001911D01*
X024255Y001830D01*
X024465Y001830D01*
X024660Y001911D01*
X024809Y002060D01*
X024860Y002182D01*
X024911Y002060D01*
X025060Y001911D01*
X025255Y001830D01*
X025465Y001830D01*
X025660Y001911D01*
X025809Y002060D01*
X025860Y002182D01*
X025911Y002060D01*
X026060Y001911D01*
X026255Y001830D01*
X026465Y001830D01*
X026660Y001911D01*
X026809Y002060D01*
X026860Y002182D01*
X026911Y002060D01*
X027060Y001911D01*
X027255Y001830D01*
X027465Y001830D01*
X027660Y001911D01*
X027809Y002060D01*
X027860Y002182D01*
X027911Y002060D01*
X028060Y001911D01*
X028255Y001830D01*
X028465Y001830D01*
X028660Y001911D01*
X028809Y002060D01*
X028890Y002255D01*
X028890Y002465D01*
X028809Y002660D01*
X028660Y002809D01*
X028465Y002890D01*
X028255Y002890D01*
X028060Y002809D01*
X027911Y002660D01*
X027860Y002538D01*
X027809Y002660D01*
X027660Y002809D01*
X027465Y002890D01*
X027255Y002890D01*
X027060Y002809D01*
X026911Y002660D01*
X026860Y002538D01*
X026809Y002660D01*
X026660Y002809D01*
X026600Y002834D01*
X026600Y003426D01*
X026613Y003426D01*
X026719Y003531D01*
X026719Y004310D01*
X026613Y004416D01*
X026500Y004416D01*
X026500Y006161D01*
X027159Y006820D01*
X028961Y006820D01*
X029108Y006672D01*
X029033Y006491D01*
X029033Y006392D01*
X028911Y006514D01*
X028685Y006608D01*
X028441Y006608D01*
X028216Y006514D01*
X028044Y006342D01*
X027950Y006116D01*
X027950Y005873D01*
X028044Y005647D01*
X028216Y005475D01*
X028441Y005381D01*
X028685Y005381D01*
X028911Y005475D01*
X029083Y005647D01*
X029176Y005873D01*
X029176Y006032D01*
X029256Y005952D01*
X029445Y005874D01*
X029650Y005874D01*
X029839Y005952D01*
X029984Y006097D01*
X030062Y006286D01*
X030062Y006491D01*
X029984Y006680D01*
X029839Y006825D01*
X029650Y006903D01*
X029557Y006903D01*
X029263Y007196D01*
X029196Y007263D01*
X029108Y007300D01*
X027012Y007300D01*
X026924Y007263D01*
X026124Y006463D01*
X026057Y006396D01*
X026020Y006308D01*
X026020Y004416D01*
X025952Y004416D01*
X025909Y004372D01*
X025865Y004416D01*
X025204Y004416D01*
X025099Y004310D01*
X025099Y004100D01*
X024599Y004100D01*
X024552Y004147D01*
X024427Y004198D01*
X024293Y004198D01*
X024168Y004147D01*
X024073Y004052D01*
X024022Y003927D01*
X024022Y003793D01*
X024073Y003668D01*
X024126Y003615D01*
X022912Y003615D01*
X020456Y006072D01*
X020388Y006139D01*
X020300Y006176D01*
X015991Y006176D01*
X015998Y006193D01*
X015998Y006322D01*
X016127Y006322D01*
X016252Y006373D01*
X016347Y006468D01*
X016398Y006593D01*
X016398Y006727D01*
X016347Y006852D01*
X016300Y006899D01*
X016300Y007289D01*
X016310Y007279D01*
X017259Y007279D01*
X017329Y007349D01*
X017431Y007349D01*
X017622Y007159D01*
X017622Y007093D01*
X017673Y006968D01*
X017768Y006873D01*
X017893Y006822D01*
X018027Y006822D01*
X018152Y006873D01*
X018247Y006968D01*
X018298Y007093D01*
X018298Y007227D01*
X018247Y007352D01*
X018152Y007447D01*
X018027Y007498D01*
X017961Y007498D01*
X017734Y007725D01*
X017667Y007793D01*
X017578Y007829D01*
X017329Y007829D01*
X017319Y007839D01*
X017364Y007885D01*
X017364Y008294D01*
X017319Y008339D01*
X017329Y008349D01*
X024337Y008349D01*
X024425Y008386D01*
X024493Y008453D01*
X025163Y009124D01*
X025200Y009212D01*
X025200Y011208D01*
X025163Y011296D01*
X025096Y011363D01*
X024699Y011760D01*
X026196Y013257D01*
X026263Y013324D01*
X026300Y013412D01*
X026300Y014940D01*
X026410Y014940D01*
X026515Y015046D01*
X026515Y015706D01*
X026471Y015750D01*
X026515Y015794D01*
X026515Y016454D01*
X026410Y016560D01*
X025630Y016560D01*
X025525Y016454D01*
X025525Y016430D01*
X025419Y016430D01*
X025419Y016501D01*
X025314Y016606D01*
X024692Y016606D01*
X024587Y016501D01*
X024587Y015879D01*
X024689Y015776D01*
X024587Y015674D01*
X024587Y015603D01*
X024356Y015603D01*
X023663Y016296D01*
X023596Y016363D01*
X023508Y016400D01*
X023055Y016400D01*
X023055Y016464D01*
X022950Y016570D01*
X022800Y016570D01*
X022800Y021050D01*
X022809Y021060D01*
X022860Y021182D01*
X022911Y021060D01*
X023060Y020911D01*
X023120Y020886D01*
X023120Y018898D01*
X023093Y018898D01*
X022968Y018847D01*
X022873Y018752D01*
X022822Y018627D01*
X022822Y018493D01*
X022873Y018368D01*
X022968Y018273D01*
X023093Y018222D01*
X023227Y018222D01*
X023352Y018273D01*
X023447Y018368D01*
X023498Y018493D01*
X023498Y018559D01*
X023563Y018624D01*
X024120Y018624D01*
X024120Y018559D02*
X023561Y018000D01*
X023399Y018000D01*
X023352Y018047D01*
X023227Y018098D01*
X023093Y018098D01*
X022968Y018047D01*
X022873Y017952D01*
X022822Y017827D01*
X022822Y017693D01*
X022873Y017568D01*
X022968Y017473D01*
X023093Y017422D01*
X023227Y017422D01*
X023352Y017473D01*
X023399Y017520D01*
X023481Y017520D01*
X023159Y017198D01*
X023093Y017198D01*
X022968Y017147D01*
X022873Y017052D01*
X022822Y016927D01*
X022822Y016793D01*
X022873Y016668D01*
X022968Y016573D01*
X023093Y016522D01*
X023227Y016522D01*
X023352Y016573D01*
X023447Y016668D01*
X023498Y016793D01*
X023498Y016859D01*
X024863Y018224D01*
X024900Y018312D01*
X024900Y020361D01*
X025369Y020830D01*
X025465Y020830D01*
X025660Y020911D01*
X025809Y021060D01*
X025860Y021182D01*
X025911Y021060D01*
X026060Y020911D01*
X026255Y020830D01*
X026465Y020830D01*
X026660Y020911D01*
X026809Y021060D01*
X026860Y021182D01*
X026911Y021060D01*
X027060Y020911D01*
X027255Y020830D01*
X027465Y020830D01*
X027660Y020911D01*
X027809Y021060D01*
X027830Y021110D01*
X027830Y020935D01*
X027935Y020830D01*
X028785Y020830D01*
X028890Y020935D01*
X028890Y021785D01*
X028785Y021890D01*
X027935Y021890D01*
X027830Y021785D01*
X027830Y021610D01*
X027809Y021660D01*
X027660Y021809D01*
X027465Y021890D01*
X027255Y021890D01*
X027060Y021809D01*
X026911Y021660D01*
X026860Y021538D01*
X026809Y021660D01*
X026660Y021809D01*
X026465Y021890D01*
X026255Y021890D01*
X026060Y021809D01*
X025911Y021660D01*
X025860Y021538D01*
X025809Y021660D01*
X025660Y021809D01*
X025465Y021890D01*
X025255Y021890D01*
X025060Y021809D01*
X024911Y021660D01*
X024860Y021538D01*
X024809Y021660D01*
X024660Y021809D01*
X024465Y021890D01*
X024255Y021890D01*
X024060Y021809D01*
X023911Y021660D01*
X023860Y021538D01*
X023809Y021660D01*
X023660Y021809D01*
X023465Y021890D01*
X023255Y021890D01*
X023060Y021809D01*
X022911Y021660D01*
X022860Y021538D01*
X022809Y021660D01*
X022660Y021809D01*
X022465Y021890D01*
X022255Y021890D01*
X022060Y021809D01*
X021911Y021660D01*
X021860Y021538D01*
X021809Y021660D01*
X021660Y021809D01*
X021465Y021890D01*
X021255Y021890D01*
X021060Y021809D01*
X020911Y021660D01*
X020830Y021465D01*
X020830Y021255D01*
X020911Y021060D01*
X021060Y020911D01*
X021120Y020886D01*
X021120Y020812D01*
X021157Y020724D01*
X021520Y020361D01*
X021520Y014912D01*
X021557Y014824D01*
X022057Y014324D01*
X022124Y014257D01*
X022212Y014220D01*
X024061Y014220D01*
X024220Y014061D01*
X024220Y013159D01*
X024061Y013000D01*
X024055Y013000D01*
X024031Y013024D01*
X024038Y013032D01*
X024078Y013090D01*
X024105Y013155D01*
X024118Y013225D01*
X024118Y013260D01*
X024118Y013295D01*
X024105Y013365D01*
X024078Y013430D01*
X024038Y013488D01*
X024031Y013496D01*
X024081Y013546D01*
X024138Y013685D01*
X024138Y013835D01*
X024081Y013974D01*
X023974Y014081D01*
X023835Y014138D01*
X023288Y014138D01*
X023149Y014081D01*
X023068Y014000D01*
X022712Y014000D01*
X022624Y013963D01*
X022460Y013799D01*
X021257Y015002D01*
X021285Y015031D01*
X021285Y015691D01*
X021228Y015749D01*
X021233Y015755D01*
X021254Y015791D01*
X021265Y015832D01*
X021265Y016049D01*
X020870Y016049D01*
X020870Y016169D01*
X021265Y016169D01*
X021265Y016386D01*
X021254Y016427D01*
X021233Y016463D01*
X021204Y016493D01*
X021167Y016514D01*
X021126Y016525D01*
X020870Y016525D01*
X020870Y016169D01*
X020750Y016169D01*
X020750Y016049D01*
X020355Y016049D01*
X020355Y015832D01*
X020366Y015791D01*
X020387Y015755D01*
X020392Y015749D01*
X020335Y015691D01*
X020335Y015031D01*
X020440Y014925D01*
X020656Y014925D01*
X021279Y014301D01*
X021279Y013728D01*
X021159Y013728D01*
X021159Y014339D01*
X020883Y014339D01*
X020842Y014328D01*
X020806Y014307D01*
X020776Y014278D01*
X020755Y014241D01*
X020744Y014200D01*
X020744Y013728D01*
X021159Y013728D01*
X021159Y013608D01*
X020744Y013608D01*
X020744Y013135D01*
X020755Y013094D01*
X020776Y013058D01*
X020806Y013028D01*
X020842Y013007D01*
X020883Y012996D01*
X021159Y012996D01*
X021159Y013608D01*
X021279Y013608D01*
X021279Y013728D01*
X021694Y013728D01*
X021694Y013886D01*
X022121Y013460D01*
X021603Y012942D01*
X020830Y012942D01*
X020724Y012837D01*
X020724Y012490D01*
X020003Y012490D01*
X019914Y012454D01*
X019459Y011998D01*
X019393Y011998D01*
X019268Y011947D01*
X019173Y011852D01*
X019122Y011727D01*
X019122Y011593D01*
X019173Y011468D01*
X019268Y011373D01*
X019393Y011322D01*
X019527Y011322D01*
X019652Y011373D01*
X019747Y011468D01*
X019798Y011593D01*
X019798Y011659D01*
X020150Y012010D01*
X020724Y012010D01*
X020724Y011664D01*
X020830Y011558D01*
X021609Y011558D01*
X021714Y011664D01*
X021714Y012375D01*
X022596Y013257D01*
X022663Y013324D01*
X022859Y013520D01*
X023068Y013520D01*
X023092Y013496D01*
X023085Y013488D01*
X023046Y013430D01*
X023018Y013365D01*
X023005Y013295D01*
X023005Y013260D01*
X023005Y013225D01*
X023018Y013155D01*
X023046Y013090D01*
X023085Y013032D01*
X023092Y013024D01*
X023042Y012974D01*
X022985Y012835D01*
X022985Y012685D01*
X023042Y012546D01*
X023078Y012510D01*
X023042Y012474D01*
X022985Y012335D01*
X022985Y012185D01*
X023042Y012046D01*
X023078Y012010D01*
X023068Y012000D01*
X022112Y012000D01*
X022024Y011963D01*
X021957Y011896D01*
X021061Y011000D01*
X018459Y011000D01*
X016963Y012496D01*
X016896Y012563D01*
X016808Y012600D01*
X014259Y012600D01*
X013800Y013059D01*
X013800Y014861D01*
X013923Y014984D01*
X013923Y014617D01*
X013981Y014560D01*
X013923Y014503D01*
X013923Y014117D01*
X014029Y014012D01*
X014272Y014012D01*
X014159Y013898D01*
X014093Y013898D01*
X013968Y013847D01*
X013873Y013752D01*
X013822Y013627D01*
X013822Y013493D01*
X013873Y013368D01*
X013968Y013273D01*
X014093Y013222D01*
X014227Y013222D01*
X014352Y013273D01*
X014447Y013368D01*
X014498Y013493D01*
X014498Y013559D01*
X014763Y013824D01*
X014800Y013912D01*
X014800Y014012D01*
X014957Y014012D01*
X014957Y013576D01*
X014993Y013488D01*
X015757Y012724D01*
X015824Y012657D01*
X015912Y012620D01*
X017721Y012620D01*
X017768Y012573D01*
X017893Y012522D01*
X018027Y012522D01*
X018152Y012573D01*
X018247Y012668D01*
X018298Y012793D01*
X018298Y012927D01*
X018247Y013052D01*
X018152Y013147D01*
X018027Y013198D01*
X017893Y013198D01*
X017768Y013147D01*
X017721Y013100D01*
X016059Y013100D01*
X015436Y013723D01*
X015436Y014544D01*
X015874Y014107D01*
X015962Y014070D01*
X016018Y014070D01*
X016076Y014012D01*
X017091Y014012D01*
X017197Y014117D01*
X017197Y014503D01*
X017139Y014560D01*
X017149Y014570D01*
X018011Y014570D01*
X018122Y014459D01*
X018122Y014393D01*
X018173Y014268D01*
X018268Y014173D01*
X018393Y014122D01*
X018527Y014122D01*
X018652Y014173D01*
X018747Y014268D01*
X018798Y014393D01*
X018798Y014527D01*
X018747Y014652D01*
X018652Y014747D01*
X018527Y014798D01*
X018461Y014798D01*
X018246Y015013D01*
X018158Y015050D01*
X017149Y015050D01*
X017139Y015060D01*
X017149Y015070D01*
X018372Y015070D01*
X018373Y015068D01*
X018468Y014973D01*
X018593Y014922D01*
X018727Y014922D01*
X018852Y014973D01*
X018947Y015068D01*
X018998Y015193D01*
X018998Y015327D01*
X018947Y015452D01*
X018852Y015547D01*
X018727Y015598D01*
X018593Y015598D01*
X018476Y015550D01*
X017149Y015550D01*
X017125Y015574D01*
X017145Y015594D01*
X017166Y015630D01*
X017177Y015671D01*
X017177Y015810D01*
X017177Y015949D01*
X017166Y015990D01*
X017145Y016026D01*
X017115Y016056D01*
X017078Y016077D01*
X017038Y016088D01*
X016584Y016088D01*
X016584Y015810D01*
X017177Y015810D01*
X016584Y015810D01*
X016584Y015810D01*
X016584Y015810D01*
X016584Y015608D01*
X016584Y015608D01*
X016584Y015810D01*
X016584Y015810D01*
X016584Y016088D01*
X016129Y016088D01*
X016089Y016077D01*
X016052Y016056D01*
X016023Y016026D01*
X016001Y015990D01*
X015991Y015949D01*
X015991Y015810D01*
X015991Y015769D01*
X015936Y015823D01*
X015936Y016171D01*
X015900Y016259D01*
X015400Y016759D01*
X015400Y016985D01*
X015616Y016985D01*
X015674Y017042D01*
X015680Y017037D01*
X015716Y017016D01*
X015757Y017005D01*
X015974Y017005D01*
X015974Y017400D01*
X016094Y017400D01*
X016094Y017005D01*
X016311Y017005D01*
X016352Y017016D01*
X016388Y017037D01*
X016418Y017066D01*
X016439Y017103D01*
X016450Y017144D01*
X016450Y017400D01*
X016094Y017400D01*
X016094Y017520D01*
X016450Y017520D01*
X016450Y017676D02*
X021520Y017676D01*
X021520Y017794D02*
X016445Y017794D01*
X016321Y017913D02*
X021520Y017913D01*
X021520Y018031D02*
X015070Y018031D01*
X015189Y018150D02*
X021520Y018150D01*
X021520Y018268D02*
X019207Y018268D01*
X019326Y018387D02*
X021520Y018387D01*
X021520Y018505D02*
X019444Y018505D01*
X019563Y018624D02*
X021520Y018624D01*
X021520Y018742D02*
X019681Y018742D01*
X019800Y018861D02*
X021520Y018861D01*
X021520Y018979D02*
X019918Y018979D01*
X019994Y019098D02*
X021520Y019098D01*
X021520Y019216D02*
X020000Y019216D01*
X020000Y019335D02*
X021520Y019335D01*
X021520Y019453D02*
X020000Y019453D01*
X020000Y019572D02*
X021520Y019572D01*
X021520Y019690D02*
X020000Y019690D01*
X020000Y019809D02*
X021520Y019809D01*
X021520Y019927D02*
X020000Y019927D01*
X020000Y020046D02*
X021520Y020046D01*
X021520Y020164D02*
X020000Y020164D01*
X020000Y020283D02*
X021520Y020283D01*
X021480Y020401D02*
X020000Y020401D01*
X020000Y020520D02*
X021361Y020520D01*
X021243Y020638D02*
X020000Y020638D01*
X020000Y020757D02*
X021143Y020757D01*
X021120Y020875D02*
X020230Y020875D01*
X020290Y020994D02*
X020977Y020994D01*
X020889Y021112D02*
X020290Y021112D01*
X020290Y021231D02*
X020840Y021231D01*
X020830Y021349D02*
X020290Y021349D01*
X020290Y021468D02*
X020831Y021468D01*
X020880Y021586D02*
X020290Y021586D01*
X020290Y021705D02*
X020955Y021705D01*
X021093Y021823D02*
X020252Y021823D01*
X019760Y021360D02*
X019760Y019160D01*
X019060Y018460D01*
X015160Y018460D01*
X014760Y018060D01*
X014760Y016560D01*
X015433Y015887D01*
X015433Y014887D01*
X016010Y014310D01*
X016584Y014310D01*
X016584Y014810D02*
X018110Y014810D01*
X018460Y014460D01*
X018771Y014595D02*
X020986Y014595D01*
X020868Y014713D02*
X018686Y014713D01*
X018796Y014950D02*
X020415Y014950D01*
X020335Y015069D02*
X018947Y015069D01*
X018996Y015187D02*
X020335Y015187D01*
X020335Y015306D02*
X018998Y015306D01*
X018958Y015424D02*
X020335Y015424D01*
X020335Y015543D02*
X018856Y015543D01*
X018610Y015310D02*
X018660Y015260D01*
X018610Y015310D02*
X016584Y015310D01*
X016110Y015310D01*
X015696Y015724D01*
X015696Y016124D01*
X015160Y016660D01*
X015160Y017360D01*
X015210Y017410D01*
X015186Y017434D01*
X015286Y017460D01*
X015260Y017460D02*
X015210Y017410D01*
X015400Y016965D02*
X021520Y016965D01*
X021520Y017083D02*
X016428Y017083D01*
X016450Y017202D02*
X021520Y017202D01*
X021520Y017320D02*
X016450Y017320D01*
X016094Y017320D02*
X015974Y017320D01*
X015974Y017202D02*
X016094Y017202D01*
X016094Y017083D02*
X015974Y017083D01*
X015974Y017557D02*
X016094Y017557D01*
X016094Y017676D02*
X015974Y017676D01*
X015974Y017794D02*
X016094Y017794D01*
X016094Y017913D02*
X015974Y017913D01*
X015747Y017913D02*
X015639Y017913D01*
X014957Y018596D02*
X014700Y018339D01*
X014700Y018961D01*
X016594Y020855D01*
X016655Y020830D01*
X016865Y020830D01*
X017060Y020911D01*
X017209Y021060D01*
X017260Y021182D01*
X017311Y021060D01*
X017460Y020911D01*
X017655Y020830D01*
X017865Y020830D01*
X018060Y020911D01*
X018209Y021060D01*
X018260Y021182D01*
X018311Y021060D01*
X018460Y020911D01*
X018655Y020830D01*
X018865Y020830D01*
X019060Y020911D01*
X019209Y021060D01*
X019230Y021110D01*
X019230Y020935D01*
X019335Y020830D01*
X019520Y020830D01*
X019520Y019259D01*
X018961Y018700D01*
X015112Y018700D01*
X015024Y018663D01*
X014957Y018596D01*
X014984Y018624D02*
X014700Y018624D01*
X014700Y018742D02*
X019003Y018742D01*
X019121Y018861D02*
X014700Y018861D01*
X014718Y018979D02*
X018313Y018979D01*
X018241Y019009D02*
X018510Y018898D01*
X018801Y018898D01*
X019069Y019009D01*
X019275Y019215D01*
X019386Y019483D01*
X019386Y019774D01*
X019275Y020043D01*
X019069Y020249D01*
X018801Y020360D01*
X018510Y020360D01*
X018241Y020249D01*
X018035Y020043D01*
X017924Y019774D01*
X017924Y019483D01*
X018035Y019215D01*
X018241Y019009D01*
X018152Y019098D02*
X014837Y019098D01*
X014955Y019216D02*
X018035Y019216D01*
X017986Y019335D02*
X015074Y019335D01*
X015192Y019453D02*
X017937Y019453D01*
X017924Y019572D02*
X015311Y019572D01*
X015429Y019690D02*
X017924Y019690D01*
X017938Y019809D02*
X015548Y019809D01*
X015666Y019927D02*
X017987Y019927D01*
X018038Y020046D02*
X015785Y020046D01*
X015903Y020164D02*
X018156Y020164D01*
X018323Y020283D02*
X016022Y020283D01*
X016140Y020401D02*
X019520Y020401D01*
X019520Y020283D02*
X018988Y020283D01*
X019154Y020164D02*
X019520Y020164D01*
X019520Y020046D02*
X019273Y020046D01*
X019323Y019927D02*
X019520Y019927D01*
X019520Y019809D02*
X019372Y019809D01*
X019386Y019690D02*
X019520Y019690D01*
X019520Y019572D02*
X019386Y019572D01*
X019374Y019453D02*
X019520Y019453D01*
X019520Y019335D02*
X019325Y019335D01*
X019276Y019216D02*
X019477Y019216D01*
X019358Y019098D02*
X019158Y019098D01*
X019240Y018979D02*
X018997Y018979D01*
X019520Y020520D02*
X016259Y020520D01*
X016377Y020638D02*
X019520Y020638D01*
X019520Y020757D02*
X016496Y020757D01*
X016974Y020875D02*
X017546Y020875D01*
X017377Y020994D02*
X017143Y020994D01*
X017231Y021112D02*
X017289Y021112D01*
X016760Y021360D02*
X014460Y019060D01*
X014460Y015886D01*
X014536Y015810D01*
X015010Y015810D01*
X015197Y015624D01*
X015197Y013624D01*
X015960Y012860D01*
X017960Y012860D01*
X018259Y012699D02*
X020724Y012699D01*
X020724Y012817D02*
X018298Y012817D01*
X018295Y012936D02*
X020823Y012936D01*
X020780Y013054D02*
X018245Y013054D01*
X018090Y013173D02*
X020744Y013173D01*
X020744Y013291D02*
X015868Y013291D01*
X015750Y013410D02*
X020744Y013410D01*
X020744Y013528D02*
X015631Y013528D01*
X015513Y013647D02*
X021159Y013647D01*
X021159Y013765D02*
X021279Y013765D01*
X021279Y013647D02*
X021934Y013647D01*
X021816Y013765D02*
X021694Y013765D01*
X021694Y013884D02*
X021697Y013884D01*
X021694Y013608D02*
X021279Y013608D01*
X021279Y012996D01*
X021555Y012996D01*
X021596Y013007D01*
X021632Y013028D01*
X021662Y013058D01*
X021683Y013094D01*
X021694Y013135D01*
X021694Y013608D01*
X021694Y013528D02*
X022053Y013528D01*
X022070Y013410D02*
X021694Y013410D01*
X021694Y013291D02*
X021952Y013291D01*
X021833Y013173D02*
X021694Y013173D01*
X021715Y013054D02*
X021659Y013054D01*
X021279Y013054D02*
X021159Y013054D01*
X021159Y013173D02*
X021279Y013173D01*
X021279Y013291D02*
X021159Y013291D01*
X021159Y013410D02*
X021279Y013410D01*
X021279Y013528D02*
X021159Y013528D01*
X021159Y013884D02*
X021279Y013884D01*
X021279Y014002D02*
X021159Y014002D01*
X021159Y014121D02*
X021279Y014121D01*
X021279Y014239D02*
X021159Y014239D01*
X021223Y014358D02*
X018784Y014358D01*
X018798Y014476D02*
X021105Y014476D01*
X020755Y014239D02*
X018718Y014239D01*
X018202Y014239D02*
X017197Y014239D01*
X017197Y014121D02*
X020744Y014121D01*
X020744Y014002D02*
X015436Y014002D01*
X015436Y013884D02*
X020744Y013884D01*
X020744Y013765D02*
X015436Y013765D01*
X015436Y014121D02*
X015860Y014121D01*
X015742Y014239D02*
X015436Y014239D01*
X015436Y014358D02*
X015623Y014358D01*
X015505Y014476D02*
X015436Y014476D01*
X014957Y014002D02*
X014800Y014002D01*
X014788Y013884D02*
X014957Y013884D01*
X014957Y013765D02*
X014704Y013765D01*
X014586Y013647D02*
X014957Y013647D01*
X014976Y013528D02*
X014498Y013528D01*
X014464Y013410D02*
X015071Y013410D01*
X015190Y013291D02*
X014370Y013291D01*
X014160Y013560D02*
X014560Y013960D01*
X014560Y014334D01*
X014536Y014310D01*
X014560Y014334D02*
X014560Y014360D01*
X014536Y014384D01*
X014536Y014810D01*
X014536Y015310D02*
X013910Y015310D01*
X013560Y014960D01*
X013560Y012960D01*
X014160Y012360D01*
X016760Y012360D01*
X018360Y010760D01*
X021160Y010760D01*
X022160Y011760D01*
X023760Y011760D01*
X024360Y011760D01*
X026060Y013460D01*
X026060Y015336D01*
X026020Y015376D01*
X025820Y014940D02*
X025820Y013559D01*
X025200Y012939D01*
X025200Y014947D01*
X025314Y014947D01*
X025419Y015052D01*
X025419Y015674D01*
X025317Y015776D01*
X025419Y015879D01*
X025419Y015950D01*
X025525Y015950D01*
X025525Y015794D01*
X025569Y015750D01*
X025525Y015706D01*
X025525Y015046D01*
X025630Y014940D01*
X025820Y014940D01*
X025820Y014832D02*
X025200Y014832D01*
X025200Y014713D02*
X025820Y014713D01*
X025820Y014595D02*
X025200Y014595D01*
X025200Y014476D02*
X025820Y014476D01*
X025820Y014358D02*
X025200Y014358D01*
X025200Y014239D02*
X025820Y014239D01*
X025820Y014121D02*
X025200Y014121D01*
X025200Y014002D02*
X025820Y014002D01*
X025820Y013884D02*
X025200Y013884D01*
X025200Y013765D02*
X025820Y013765D01*
X025820Y013647D02*
X025200Y013647D01*
X025200Y013528D02*
X025789Y013528D01*
X025670Y013410D02*
X025200Y013410D01*
X025200Y013291D02*
X025552Y013291D01*
X025433Y013173D02*
X025200Y013173D01*
X025200Y013054D02*
X025315Y013054D01*
X024960Y012860D02*
X024960Y015360D01*
X024963Y015363D01*
X025003Y015363D01*
X024257Y015363D01*
X023460Y016160D01*
X022386Y016160D01*
X022560Y016134D01*
X022560Y021160D01*
X022360Y021360D01*
X021880Y021586D02*
X021840Y021586D01*
X021765Y021705D02*
X021955Y021705D01*
X022093Y021823D02*
X021627Y021823D01*
X021360Y021360D02*
X021360Y020860D01*
X021760Y020460D01*
X021760Y014960D01*
X022260Y014460D01*
X024160Y014460D01*
X024460Y014160D01*
X024460Y013060D01*
X024160Y012760D01*
X023760Y012760D01*
X023760Y013138D02*
X023760Y013260D01*
X024118Y013260D01*
X023760Y013260D01*
X023760Y013260D01*
X023760Y013260D01*
X023760Y013382D01*
X023760Y013382D01*
X023760Y013260D01*
X023760Y013260D01*
X023005Y013260D01*
X023760Y013260D01*
X023760Y013138D01*
X023760Y013138D01*
X023760Y013173D02*
X023760Y013173D01*
X023760Y013260D02*
X023760Y013260D01*
X023760Y013291D02*
X023760Y013291D01*
X024086Y013410D02*
X024220Y013410D01*
X024220Y013528D02*
X024063Y013528D01*
X024123Y013647D02*
X024220Y013647D01*
X024220Y013765D02*
X024138Y013765D01*
X024118Y013884D02*
X024220Y013884D01*
X024220Y014002D02*
X024053Y014002D01*
X024160Y014121D02*
X023878Y014121D01*
X023760Y013760D02*
X022760Y013760D01*
X022460Y013460D01*
X020810Y015110D01*
X020810Y015361D01*
X021285Y015306D02*
X021520Y015306D01*
X021520Y015424D02*
X021285Y015424D01*
X021285Y015543D02*
X021520Y015543D01*
X021520Y015661D02*
X021285Y015661D01*
X021248Y015780D02*
X021520Y015780D01*
X021520Y015898D02*
X021265Y015898D01*
X021265Y016017D02*
X021520Y016017D01*
X021520Y016135D02*
X020870Y016135D01*
X020870Y016254D02*
X020750Y016254D01*
X020750Y016169D02*
X020750Y016525D01*
X020494Y016525D01*
X020453Y016514D01*
X020416Y016493D01*
X020387Y016463D01*
X020366Y016427D01*
X020355Y016386D01*
X020355Y016169D01*
X020750Y016169D01*
X020750Y016135D02*
X015936Y016135D01*
X015936Y016017D02*
X016017Y016017D01*
X015991Y015898D02*
X015936Y015898D01*
X015991Y015810D02*
X016584Y015810D01*
X015991Y015810D01*
X015991Y015780D02*
X015980Y015780D01*
X015902Y016254D02*
X020355Y016254D01*
X020355Y016372D02*
X015787Y016372D01*
X015669Y016491D02*
X020414Y016491D01*
X020750Y016491D02*
X020870Y016491D01*
X020870Y016372D02*
X020750Y016372D01*
X021206Y016491D02*
X021520Y016491D01*
X021520Y016609D02*
X015550Y016609D01*
X015432Y016728D02*
X021520Y016728D01*
X021520Y016846D02*
X015400Y016846D01*
X014220Y016846D02*
X014000Y016846D01*
X014000Y016728D02*
X014220Y016728D01*
X014220Y016609D02*
X014000Y016609D01*
X014000Y016491D02*
X014220Y016491D01*
X014220Y016372D02*
X014000Y016372D01*
X014000Y016254D02*
X014220Y016254D01*
X014220Y016135D02*
X014000Y016135D01*
X014029Y016108D02*
X014220Y016108D01*
X014220Y019108D01*
X014257Y019196D01*
X014324Y019263D01*
X015908Y020848D01*
X015865Y020830D01*
X015655Y020830D01*
X015460Y020911D01*
X015311Y021060D01*
X015260Y021182D01*
X015209Y021060D01*
X015060Y020911D01*
X014865Y020830D01*
X014655Y020830D01*
X014594Y020855D01*
X014000Y020261D01*
X014000Y016079D01*
X014029Y016108D01*
X013520Y016135D02*
X013300Y016135D01*
X013300Y016017D02*
X013520Y016017D01*
X013520Y015898D02*
X013300Y015898D01*
X013300Y015780D02*
X013520Y015780D01*
X013520Y015661D02*
X013300Y015661D01*
X013300Y015543D02*
X013520Y015543D01*
X013520Y015424D02*
X013300Y015424D01*
X013300Y015306D02*
X013566Y015306D01*
X013448Y015187D02*
X013300Y015187D01*
X013300Y015069D02*
X013345Y015069D01*
X013320Y014950D02*
X013300Y014950D01*
X013300Y014832D02*
X013320Y014832D01*
X013320Y014713D02*
X013300Y014713D01*
X013300Y014595D02*
X013320Y014595D01*
X013320Y014476D02*
X013300Y014476D01*
X013300Y014358D02*
X013320Y014358D01*
X013320Y014239D02*
X013300Y014239D01*
X013300Y014121D02*
X013320Y014121D01*
X013320Y014002D02*
X013300Y014002D01*
X013300Y013884D02*
X013320Y013884D01*
X013320Y013765D02*
X013300Y013765D01*
X013300Y013647D02*
X013320Y013647D01*
X013320Y013528D02*
X013300Y013528D01*
X013300Y013410D02*
X013320Y013410D01*
X013320Y013291D02*
X013300Y013291D01*
X013300Y013173D02*
X013320Y013173D01*
X013320Y013054D02*
X013300Y013054D01*
X013300Y012936D02*
X013320Y012936D01*
X013342Y012817D02*
X013364Y012817D01*
X013461Y012699D02*
X013482Y012699D01*
X013579Y012580D02*
X013601Y012580D01*
X013698Y012462D02*
X013719Y012462D01*
X013816Y012343D02*
X013838Y012343D01*
X013935Y012225D02*
X013956Y012225D01*
X014053Y012106D02*
X016675Y012106D01*
X016793Y011988D02*
X014172Y011988D01*
X014160Y011660D02*
X015060Y011660D01*
X016131Y010589D01*
X016784Y010589D01*
X016784Y010089D02*
X015889Y010089D01*
X015360Y009560D01*
X015360Y006960D01*
X015060Y006660D01*
X015398Y006659D02*
X015420Y006681D01*
X015420Y006499D01*
X015373Y006452D01*
X015322Y006327D01*
X015322Y006193D01*
X015329Y006176D01*
X012869Y006176D01*
X012132Y006920D01*
X012132Y012775D01*
X012220Y012775D01*
X012220Y010712D01*
X012257Y010624D01*
X012927Y009953D01*
X012995Y009886D01*
X013083Y009849D01*
X013820Y009849D01*
X013830Y009839D01*
X013820Y009829D01*
X013542Y009829D01*
X013453Y009793D01*
X013059Y009398D01*
X012993Y009398D01*
X012868Y009347D01*
X012773Y009252D01*
X012722Y009127D01*
X012722Y008993D01*
X012773Y008868D01*
X012868Y008773D01*
X012993Y008722D01*
X013127Y008722D01*
X013252Y008773D01*
X013347Y008868D01*
X013398Y008993D01*
X013398Y009059D01*
X013689Y009349D01*
X013820Y009349D01*
X013830Y009339D01*
X013784Y009294D01*
X013784Y008885D01*
X013830Y008839D01*
X013784Y008794D01*
X013784Y008385D01*
X013830Y008339D01*
X013784Y008294D01*
X013784Y007885D01*
X013830Y007839D01*
X013784Y007794D01*
X013784Y007385D01*
X013869Y007300D01*
X013299Y007300D01*
X013252Y007347D01*
X013127Y007398D01*
X012993Y007398D01*
X012868Y007347D01*
X012773Y007252D01*
X012722Y007127D01*
X012722Y006993D01*
X012773Y006868D01*
X012868Y006773D01*
X012993Y006722D01*
X013127Y006722D01*
X013252Y006773D01*
X013299Y006820D01*
X014760Y006820D01*
X014722Y006727D01*
X014722Y006593D01*
X014773Y006468D01*
X014868Y006373D01*
X014993Y006322D01*
X015127Y006322D01*
X015252Y006373D01*
X015347Y006468D01*
X015398Y006593D01*
X015398Y006659D01*
X015398Y006655D02*
X015420Y006655D01*
X015420Y006537D02*
X015375Y006537D01*
X015359Y006418D02*
X015297Y006418D01*
X015322Y006300D02*
X012746Y006300D01*
X012629Y006418D02*
X014823Y006418D01*
X014745Y006537D02*
X012512Y006537D01*
X012395Y006655D02*
X014722Y006655D01*
X014741Y006774D02*
X013252Y006774D01*
X013060Y007060D02*
X014760Y007060D01*
X015060Y007360D01*
X015060Y010260D01*
X014731Y010589D01*
X014364Y010589D01*
X014364Y010089D02*
X013131Y010089D01*
X012460Y010760D01*
X012460Y017760D01*
X012157Y017913D02*
X008068Y017913D01*
X008068Y018031D02*
X012252Y018031D01*
X012122Y017794D02*
X008068Y017794D01*
X008068Y017676D02*
X012129Y017676D01*
X012184Y017557D02*
X009125Y017557D01*
X009174Y017439D02*
X012220Y017439D01*
X012220Y017320D02*
X010780Y017320D01*
X010775Y017340D02*
X010754Y017376D01*
X010724Y017406D01*
X010688Y017427D01*
X010647Y017438D01*
X010371Y017438D01*
X010371Y016826D01*
X010786Y016826D01*
X010786Y017299D01*
X010775Y017340D01*
X010786Y017202D02*
X012220Y017202D01*
X012220Y017083D02*
X010786Y017083D01*
X010786Y016965D02*
X012220Y016965D01*
X012220Y016846D02*
X010786Y016846D01*
X010786Y016706D02*
X010786Y016233D01*
X010775Y016192D01*
X010754Y016156D01*
X010724Y016126D01*
X010688Y016105D01*
X010647Y016094D01*
X010371Y016094D01*
X010371Y016706D01*
X010371Y016826D01*
X010251Y016826D01*
X010251Y017438D01*
X009975Y017438D01*
X009934Y017427D01*
X009898Y017406D01*
X009868Y017376D01*
X009847Y017340D01*
X009836Y017299D01*
X009836Y016826D01*
X010251Y016826D01*
X010251Y016706D01*
X010371Y016706D01*
X010786Y016706D01*
X010786Y016609D02*
X012220Y016609D01*
X012220Y016491D02*
X010786Y016491D01*
X010786Y016372D02*
X012220Y016372D01*
X012220Y016254D02*
X010786Y016254D01*
X010733Y016135D02*
X012220Y016135D01*
X012220Y016017D02*
X010724Y016017D01*
X010806Y015898D02*
X012220Y015898D01*
X012220Y015780D02*
X010806Y015780D01*
X010806Y015661D02*
X012220Y015661D01*
X012220Y015543D02*
X010806Y015543D01*
X010360Y015299D02*
X011521Y015299D01*
X011860Y014960D01*
X011860Y014160D01*
X011620Y014395D02*
X011515Y014395D01*
X011410Y014289D01*
X011410Y013629D01*
X011439Y013600D01*
X008559Y013600D01*
X008196Y013963D01*
X008108Y014000D01*
X007999Y014000D01*
X008068Y014069D01*
X008068Y014628D01*
X008204Y014765D01*
X008204Y014610D01*
X008619Y014610D01*
X008619Y014490D01*
X008739Y014490D01*
X008739Y014135D01*
X009015Y014135D01*
X009056Y014145D01*
X009093Y014167D01*
X009122Y014196D01*
X009143Y014233D01*
X009154Y014273D01*
X009154Y014490D01*
X008739Y014490D01*
X008739Y014610D01*
X009154Y014610D01*
X009154Y014827D01*
X009143Y014868D01*
X009122Y014905D01*
X009117Y014910D01*
X009174Y014968D01*
X009174Y015059D01*
X009816Y015059D01*
X009816Y014762D01*
X009921Y014657D01*
X010700Y014657D01*
X010806Y014762D01*
X010806Y015059D01*
X011421Y015059D01*
X011620Y014861D01*
X011620Y014395D01*
X011620Y014476D02*
X009154Y014476D01*
X009154Y014358D02*
X011478Y014358D01*
X011410Y014239D02*
X009145Y014239D01*
X008739Y014239D02*
X008619Y014239D01*
X008619Y014135D02*
X008343Y014135D01*
X008303Y014145D01*
X008266Y014167D01*
X008236Y014196D01*
X008215Y014233D01*
X008204Y014273D01*
X008204Y014490D01*
X008619Y014490D01*
X008619Y014135D01*
X008619Y014358D02*
X008739Y014358D01*
X008739Y014476D02*
X008619Y014476D01*
X008619Y014595D02*
X008068Y014595D01*
X008068Y014476D02*
X008204Y014476D01*
X008204Y014358D02*
X008068Y014358D01*
X008068Y014239D02*
X008214Y014239D01*
X008068Y014121D02*
X011410Y014121D01*
X011410Y014002D02*
X008001Y014002D01*
X008060Y013760D02*
X008460Y013360D01*
X011838Y013360D01*
X011838Y013317D02*
X011892Y013073D01*
X011892Y006821D01*
X012769Y005936D01*
X020252Y005936D01*
X022813Y003375D01*
X024884Y003375D01*
X025360Y002899D01*
X025360Y002360D01*
X025848Y002152D02*
X025872Y002152D01*
X025937Y002034D02*
X025783Y002034D01*
X025665Y001915D02*
X026055Y001915D01*
X026665Y001915D02*
X027055Y001915D01*
X026937Y002034D02*
X026783Y002034D01*
X026848Y002152D02*
X026872Y002152D01*
X026360Y002360D02*
X026360Y003860D01*
X026310Y003910D01*
X026299Y003921D01*
X026283Y003921D01*
X026260Y003943D01*
X026260Y006260D01*
X027060Y007060D01*
X029060Y007060D01*
X029548Y006573D01*
X029548Y006388D01*
X029033Y006418D02*
X029007Y006418D01*
X029052Y006537D02*
X028857Y006537D01*
X029101Y006655D02*
X026994Y006655D01*
X026876Y006537D02*
X028270Y006537D01*
X028120Y006418D02*
X026757Y006418D01*
X026639Y006300D02*
X028026Y006300D01*
X027977Y006181D02*
X026520Y006181D01*
X026500Y006063D02*
X027950Y006063D01*
X027950Y005944D02*
X026500Y005944D01*
X026500Y005826D02*
X027970Y005826D01*
X028019Y005707D02*
X026500Y005707D01*
X026500Y005589D02*
X028102Y005589D01*
X028228Y005470D02*
X026500Y005470D01*
X026500Y005352D02*
X030155Y005352D01*
X030155Y005470D02*
X028899Y005470D01*
X029024Y005589D02*
X030155Y005589D01*
X030155Y005707D02*
X029108Y005707D01*
X029157Y005826D02*
X030155Y005826D01*
X030155Y005944D02*
X029820Y005944D01*
X029950Y006063D02*
X030155Y006063D01*
X030155Y006181D02*
X030019Y006181D01*
X030062Y006300D02*
X030155Y006300D01*
X030155Y006418D02*
X030062Y006418D01*
X030043Y006537D02*
X030155Y006537D01*
X030155Y006655D02*
X029994Y006655D01*
X029890Y006774D02*
X030155Y006774D01*
X030155Y006892D02*
X029676Y006892D01*
X029449Y007011D02*
X030155Y007011D01*
X030155Y007129D02*
X029330Y007129D01*
X029263Y007196D02*
X029263Y007196D01*
X029212Y007248D02*
X030155Y007248D01*
X030155Y007366D02*
X028235Y007366D01*
X028252Y007373D02*
X028347Y007468D01*
X028398Y007593D01*
X028398Y007727D01*
X028347Y007852D01*
X028252Y007947D01*
X028127Y007998D01*
X027993Y007998D01*
X027868Y007947D01*
X027821Y007900D01*
X024068Y007900D01*
X024047Y007952D01*
X023952Y008047D01*
X023827Y008098D01*
X023693Y008098D01*
X023568Y008047D01*
X023473Y007952D01*
X023422Y007827D01*
X023422Y007693D01*
X023473Y007568D01*
X023568Y007473D01*
X023693Y007422D01*
X023808Y007422D01*
X023812Y007420D01*
X027821Y007420D01*
X027868Y007373D01*
X027993Y007322D01*
X028127Y007322D01*
X028252Y007373D01*
X028354Y007485D02*
X030155Y007485D01*
X030155Y007603D02*
X028398Y007603D01*
X028398Y007722D02*
X030155Y007722D01*
X030155Y007840D02*
X028352Y007840D01*
X028224Y007959D02*
X029254Y007959D01*
X029225Y007979D02*
X029288Y007934D01*
X029358Y007898D01*
X029432Y007874D01*
X029509Y007862D01*
X029529Y007862D01*
X029529Y008338D01*
X029566Y008338D01*
X029566Y007862D01*
X029586Y007862D01*
X029663Y007874D01*
X029737Y007898D01*
X029807Y007934D01*
X029870Y007979D01*
X029925Y008035D01*
X029971Y008098D01*
X030006Y008167D01*
X030030Y008241D01*
X030042Y008318D01*
X030042Y008338D01*
X029566Y008338D01*
X029566Y008375D01*
X030042Y008375D01*
X030042Y008396D01*
X030030Y008473D01*
X030006Y008547D01*
X029971Y008616D01*
X029925Y008679D01*
X029870Y008734D01*
X029807Y008780D01*
X029737Y008815D01*
X029663Y008839D01*
X029586Y008851D01*
X029566Y008851D01*
X029566Y008375D01*
X029529Y008375D01*
X029529Y008338D01*
X029053Y008338D01*
X029053Y008318D01*
X029065Y008241D01*
X029089Y008167D01*
X029124Y008098D01*
X029170Y008035D01*
X029225Y007979D01*
X029139Y008077D02*
X023879Y008077D01*
X024040Y007959D02*
X027896Y007959D01*
X028216Y008231D02*
X028441Y008137D01*
X028685Y008137D01*
X028911Y008231D01*
X029055Y008375D01*
X029529Y008375D01*
X029529Y008851D01*
X029509Y008851D01*
X029432Y008839D01*
X029358Y008815D01*
X029288Y008780D01*
X029225Y008734D01*
X029176Y008685D01*
X029176Y008872D01*
X029083Y009098D01*
X028911Y009270D01*
X028685Y009364D01*
X028441Y009364D01*
X028216Y009270D01*
X028044Y009098D01*
X027950Y008872D01*
X027950Y008629D01*
X028044Y008403D01*
X028216Y008231D01*
X028301Y008196D02*
X017364Y008196D01*
X017364Y008077D02*
X023641Y008077D01*
X023480Y007959D02*
X017364Y007959D01*
X017319Y007840D02*
X023427Y007840D01*
X023422Y007722D02*
X017738Y007722D01*
X017856Y007603D02*
X023459Y007603D01*
X023557Y007485D02*
X018061Y007485D01*
X018233Y007366D02*
X027885Y007366D01*
X028060Y007660D02*
X023860Y007660D01*
X023760Y007760D01*
X024472Y008433D02*
X028031Y008433D01*
X027982Y008551D02*
X024590Y008551D01*
X024709Y008670D02*
X027950Y008670D01*
X027950Y008788D02*
X024827Y008788D01*
X024946Y008907D02*
X027964Y008907D01*
X028013Y009025D02*
X025064Y009025D01*
X025172Y009144D02*
X028089Y009144D01*
X028208Y009262D02*
X025200Y009262D01*
X025200Y009381D02*
X030155Y009381D01*
X030155Y009262D02*
X028919Y009262D01*
X029037Y009144D02*
X030155Y009144D01*
X030155Y009025D02*
X029113Y009025D01*
X029162Y008907D02*
X030155Y008907D01*
X030155Y008788D02*
X029791Y008788D01*
X029932Y008670D02*
X030155Y008670D01*
X030155Y008551D02*
X030004Y008551D01*
X030036Y008433D02*
X030155Y008433D01*
X030155Y008314D02*
X030042Y008314D01*
X030015Y008196D02*
X030155Y008196D01*
X030155Y008077D02*
X029956Y008077D01*
X029841Y007959D02*
X030155Y007959D01*
X029566Y007959D02*
X029529Y007959D01*
X029529Y008077D02*
X029566Y008077D01*
X029566Y008196D02*
X029529Y008196D01*
X029529Y008314D02*
X029566Y008314D01*
X029566Y008433D02*
X029529Y008433D01*
X029529Y008551D02*
X029566Y008551D01*
X029566Y008670D02*
X029529Y008670D01*
X029529Y008788D02*
X029566Y008788D01*
X029304Y008788D02*
X029176Y008788D01*
X029053Y008314D02*
X028994Y008314D01*
X029080Y008196D02*
X028826Y008196D01*
X028133Y008314D02*
X017344Y008314D01*
X017329Y008829D02*
X017319Y008839D01*
X017364Y008885D01*
X017364Y009294D01*
X017319Y009339D01*
X017329Y009349D01*
X017728Y009349D01*
X017768Y009310D01*
X017893Y009258D01*
X018027Y009258D01*
X018152Y009310D01*
X018199Y009357D01*
X021544Y009357D01*
X021632Y009393D01*
X022985Y010745D01*
X022985Y010685D01*
X023042Y010546D01*
X023078Y010510D01*
X023042Y010474D01*
X022985Y010335D01*
X022985Y010185D01*
X023042Y010046D01*
X023149Y009939D01*
X023288Y009882D01*
X023835Y009882D01*
X023974Y009939D01*
X024081Y010046D01*
X024138Y010185D01*
X024138Y010335D01*
X024081Y010474D01*
X024045Y010510D01*
X024081Y010546D01*
X024138Y010685D01*
X024138Y010835D01*
X024081Y010974D01*
X024045Y011010D01*
X024081Y011046D01*
X024138Y011185D01*
X024138Y011335D01*
X024081Y011474D01*
X024045Y011510D01*
X024055Y011520D01*
X024261Y011520D01*
X024720Y011061D01*
X024720Y009359D01*
X024190Y008829D01*
X017329Y008829D01*
X017364Y008907D02*
X024267Y008907D01*
X024386Y009025D02*
X017364Y009025D01*
X017364Y009144D02*
X024504Y009144D01*
X024623Y009262D02*
X018037Y009262D01*
X017883Y009262D02*
X017364Y009262D01*
X017334Y009855D02*
X017739Y009855D01*
X017889Y009589D02*
X017960Y009597D01*
X021496Y009597D01*
X023160Y011260D01*
X023760Y011260D01*
X024114Y011395D02*
X024386Y011395D01*
X024504Y011277D02*
X024138Y011277D01*
X024127Y011158D02*
X024623Y011158D01*
X024720Y011040D02*
X024075Y011040D01*
X024103Y010921D02*
X024720Y010921D01*
X024720Y010803D02*
X024138Y010803D01*
X024138Y010684D02*
X024720Y010684D01*
X024720Y010566D02*
X024089Y010566D01*
X024092Y010447D02*
X024720Y010447D01*
X024720Y010329D02*
X024138Y010329D01*
X024138Y010210D02*
X024720Y010210D01*
X024720Y010092D02*
X024100Y010092D01*
X024008Y009973D02*
X024720Y009973D01*
X024720Y009855D02*
X022094Y009855D01*
X022212Y009973D02*
X023115Y009973D01*
X023023Y010092D02*
X022331Y010092D01*
X022449Y010210D02*
X022985Y010210D01*
X022985Y010329D02*
X022568Y010329D01*
X022686Y010447D02*
X023031Y010447D01*
X023034Y010566D02*
X022805Y010566D01*
X022923Y010684D02*
X022985Y010684D01*
X022600Y011040D02*
X021779Y011040D01*
X021897Y011158D02*
X022719Y011158D01*
X022837Y011277D02*
X022016Y011277D01*
X022134Y011395D02*
X022956Y011395D01*
X022957Y011396D02*
X022957Y011396D01*
X023074Y011514D02*
X022253Y011514D01*
X021930Y011869D02*
X021714Y011869D01*
X021714Y011751D02*
X021811Y011751D01*
X021693Y011632D02*
X021682Y011632D01*
X021574Y011514D02*
X019766Y011514D01*
X019798Y011632D02*
X020756Y011632D01*
X020724Y011751D02*
X019890Y011751D01*
X020008Y011869D02*
X020724Y011869D01*
X020724Y011988D02*
X020127Y011988D01*
X020050Y012250D02*
X019460Y011660D01*
X019154Y011514D02*
X017946Y011514D01*
X017827Y011632D02*
X019122Y011632D01*
X019131Y011751D02*
X017709Y011751D01*
X017590Y011869D02*
X019190Y011869D01*
X019366Y011988D02*
X017472Y011988D01*
X017353Y012106D02*
X019567Y012106D01*
X019685Y012225D02*
X017235Y012225D01*
X017116Y012343D02*
X019804Y012343D01*
X019933Y012462D02*
X016998Y012462D01*
X016856Y012580D02*
X017761Y012580D01*
X018159Y012580D02*
X020724Y012580D01*
X021219Y012250D02*
X020050Y012250D01*
X019674Y011395D02*
X021456Y011395D01*
X021337Y011277D02*
X018183Y011277D01*
X018064Y011395D02*
X019246Y011395D01*
X018420Y011040D02*
X021100Y011040D01*
X021219Y011158D02*
X018301Y011158D01*
X017978Y010803D02*
X017356Y010803D01*
X017340Y010921D02*
X017860Y010921D01*
X017741Y011040D02*
X017344Y011040D01*
X017344Y011158D02*
X017623Y011158D01*
X017504Y011277D02*
X017335Y011277D01*
X017386Y011395D02*
X015664Y011395D01*
X015546Y011514D02*
X017267Y011514D01*
X017149Y011632D02*
X015427Y011632D01*
X015309Y011751D02*
X017030Y011751D01*
X016912Y011869D02*
X015183Y011869D01*
X014986Y011395D02*
X014843Y011395D01*
X014944Y011277D02*
X015104Y011277D01*
X015223Y011158D02*
X014944Y011158D01*
X014944Y011040D02*
X015341Y011040D01*
X015460Y010921D02*
X014944Y010921D01*
X014936Y010803D02*
X015578Y010803D01*
X015697Y010684D02*
X014975Y010684D01*
X015094Y010566D02*
X015815Y010566D01*
X015934Y010447D02*
X015212Y010447D01*
X015291Y010329D02*
X015840Y010329D01*
X015671Y010210D02*
X015300Y010210D01*
X015300Y010092D02*
X015552Y010092D01*
X015434Y009973D02*
X015300Y009973D01*
X015300Y009855D02*
X015315Y009855D01*
X015889Y009089D02*
X015660Y008860D01*
X015660Y006260D01*
X015998Y006300D02*
X026020Y006300D01*
X026020Y006181D02*
X015994Y006181D01*
X016297Y006418D02*
X026079Y006418D01*
X026197Y006537D02*
X016375Y006537D01*
X016398Y006655D02*
X026316Y006655D01*
X026434Y006774D02*
X016379Y006774D01*
X016307Y006892D02*
X017749Y006892D01*
X017656Y007011D02*
X016300Y007011D01*
X016300Y007129D02*
X017622Y007129D01*
X017533Y007248D02*
X016300Y007248D01*
X016784Y007589D02*
X017531Y007589D01*
X017960Y007160D01*
X018264Y007011D02*
X026671Y007011D01*
X026790Y007129D02*
X018298Y007129D01*
X018290Y007248D02*
X026908Y007248D01*
X026553Y006892D02*
X018171Y006892D01*
X016784Y008089D02*
X016260Y008089D01*
X016060Y007889D01*
X016060Y006660D01*
X015326Y006181D02*
X012863Y006181D01*
X012577Y005594D02*
X011572Y006599D01*
X011572Y009160D01*
X005360Y009160D01*
X004511Y010009D01*
X004034Y009973D02*
X003565Y009973D01*
X003565Y009855D02*
X004034Y009855D01*
X004034Y009736D02*
X003565Y009736D01*
X003565Y009618D02*
X004034Y009618D01*
X004034Y009499D02*
X003565Y009499D01*
X003565Y009381D02*
X004096Y009381D01*
X004140Y008944D02*
X004034Y008839D01*
X004034Y007705D01*
X004140Y007600D01*
X005076Y007600D01*
X005182Y007705D01*
X005182Y008839D01*
X005076Y008944D01*
X004140Y008944D01*
X004102Y008907D02*
X003565Y008907D01*
X003565Y009025D02*
X005156Y009025D01*
X005114Y008907D02*
X007185Y008907D01*
X007117Y008788D02*
X005182Y008788D01*
X005182Y008670D02*
X007117Y008670D01*
X007117Y008551D02*
X005182Y008551D01*
X005182Y008433D02*
X007117Y008433D01*
X007117Y008314D02*
X005182Y008314D01*
X005182Y008196D02*
X007117Y008196D01*
X007117Y008077D02*
X006352Y008077D01*
X006329Y008099D02*
X006191Y008157D01*
X006041Y008157D01*
X005902Y008099D01*
X005796Y007993D01*
X005739Y007855D01*
X005739Y007705D01*
X005796Y007566D01*
X005902Y007460D01*
X006041Y007403D01*
X006191Y007403D01*
X006329Y007460D01*
X006435Y007566D01*
X006493Y007705D01*
X006493Y007855D01*
X006435Y007993D01*
X006329Y008099D01*
X006450Y007959D02*
X007117Y007959D01*
X007117Y007840D02*
X006493Y007840D01*
X006493Y007722D02*
X007117Y007722D01*
X007219Y007603D02*
X006451Y007603D01*
X006354Y007485D02*
X007716Y007485D01*
X007604Y007366D02*
X007088Y007366D01*
X006917Y007071D02*
X007655Y007071D01*
X008492Y007956D01*
X008184Y007980D02*
X008068Y007857D01*
X008068Y008839D01*
X007986Y008920D01*
X011332Y008920D01*
X011332Y006551D01*
X011368Y006463D01*
X011436Y006396D01*
X012338Y005493D01*
X011545Y005493D01*
X011545Y005869D01*
X011439Y005974D01*
X010819Y005974D01*
X010855Y006010D01*
X010855Y007183D01*
X010750Y007288D01*
X009970Y007288D01*
X009865Y007183D01*
X009865Y006455D01*
X009174Y006455D01*
X009174Y006545D01*
X009069Y006651D01*
X008919Y006651D01*
X008919Y006696D01*
X009069Y006696D01*
X009174Y006802D01*
X009174Y007463D01*
X009131Y007506D01*
X009174Y007550D01*
X009174Y008211D01*
X009069Y008316D01*
X008290Y008316D01*
X008184Y008211D01*
X008184Y007980D01*
X008164Y007959D02*
X008068Y007959D01*
X008068Y008077D02*
X008184Y008077D01*
X008184Y008196D02*
X008068Y008196D01*
X008068Y008314D02*
X008288Y008314D01*
X008068Y008433D02*
X009885Y008433D01*
X009885Y008546D02*
X009885Y008074D01*
X010300Y008074D01*
X010300Y008685D01*
X010024Y008685D01*
X009983Y008674D01*
X009947Y008653D01*
X009917Y008624D01*
X009896Y008587D01*
X009885Y008546D01*
X009886Y008551D02*
X008068Y008551D01*
X008068Y008670D02*
X009975Y008670D01*
X010300Y008670D02*
X010420Y008670D01*
X010420Y008685D02*
X010420Y008074D01*
X010300Y008074D01*
X010300Y007954D01*
X009885Y007954D01*
X009885Y007481D01*
X009896Y007440D01*
X009917Y007403D01*
X009947Y007374D01*
X009983Y007353D01*
X010024Y007342D01*
X010300Y007342D01*
X010300Y007954D01*
X010420Y007954D01*
X010420Y008074D01*
X010835Y008074D01*
X010835Y008546D01*
X010824Y008587D01*
X010803Y008624D01*
X010773Y008653D01*
X010737Y008674D01*
X010696Y008685D01*
X010420Y008685D01*
X010420Y008551D02*
X010300Y008551D01*
X010300Y008433D02*
X010420Y008433D01*
X010420Y008314D02*
X010300Y008314D01*
X010300Y008196D02*
X010420Y008196D01*
X010420Y008077D02*
X010300Y008077D01*
X010300Y007959D02*
X009174Y007959D01*
X009174Y008077D02*
X009885Y008077D01*
X009885Y008196D02*
X009174Y008196D01*
X009071Y008314D02*
X009885Y008314D01*
X010420Y007959D02*
X011332Y007959D01*
X011332Y008077D02*
X010835Y008077D01*
X010835Y008196D02*
X011332Y008196D01*
X011332Y008314D02*
X010835Y008314D01*
X010835Y008433D02*
X011332Y008433D01*
X011332Y008551D02*
X010834Y008551D01*
X010745Y008670D02*
X011332Y008670D01*
X011332Y008788D02*
X008068Y008788D01*
X008000Y008907D02*
X011332Y008907D01*
X011572Y009160D02*
X011572Y009197D01*
X011109Y009660D01*
X011109Y009860D01*
X011545Y009855D02*
X011652Y009855D01*
X011652Y009973D02*
X011545Y009973D01*
X011545Y010092D02*
X011652Y010092D01*
X011652Y010210D02*
X011545Y010210D01*
X011545Y010250D02*
X011439Y010355D01*
X010806Y010355D01*
X010855Y010404D01*
X010855Y011577D01*
X010750Y011682D01*
X009970Y011682D01*
X009865Y011577D01*
X009865Y011185D01*
X009855Y011163D01*
X009853Y011140D01*
X009847Y011118D01*
X009851Y011081D01*
X009849Y011044D01*
X009856Y011022D01*
X009859Y011000D01*
X009865Y010988D01*
X009865Y010850D01*
X009174Y010850D01*
X009174Y010939D01*
X009069Y011045D01*
X008919Y011045D01*
X008919Y011304D01*
X009069Y011304D01*
X009174Y011409D01*
X009174Y012070D01*
X009131Y012114D01*
X009174Y012157D01*
X009174Y012818D01*
X009069Y012924D01*
X008290Y012924D01*
X008184Y012818D01*
X008184Y012595D01*
X008068Y012482D01*
X008068Y013413D01*
X008257Y013224D01*
X008324Y013157D01*
X008412Y013120D01*
X011410Y013120D01*
X011410Y012881D01*
X011515Y012775D01*
X011652Y012775D01*
X011652Y009456D01*
X011545Y009564D01*
X011545Y010250D01*
X011466Y010329D02*
X011652Y010329D01*
X011652Y010447D02*
X010855Y010447D01*
X010855Y010566D02*
X011652Y010566D01*
X011652Y010684D02*
X010855Y010684D01*
X010855Y010803D02*
X011652Y010803D01*
X011652Y010921D02*
X010855Y010921D01*
X010855Y011040D02*
X011652Y011040D01*
X011652Y011158D02*
X010855Y011158D01*
X010855Y011277D02*
X011652Y011277D01*
X011652Y011395D02*
X010855Y011395D01*
X010855Y011514D02*
X011652Y011514D01*
X011652Y011632D02*
X010800Y011632D01*
X010737Y011747D02*
X010773Y011768D01*
X010803Y011798D01*
X010824Y011834D01*
X010835Y011875D01*
X010835Y012348D01*
X010420Y012348D01*
X010420Y012468D01*
X010300Y012468D01*
X010300Y013080D01*
X010024Y013080D01*
X009983Y013069D01*
X009947Y013048D01*
X009917Y013018D01*
X009896Y012981D01*
X009885Y012941D01*
X009885Y012468D01*
X010300Y012468D01*
X010300Y012348D01*
X009885Y012348D01*
X009885Y011875D01*
X009896Y011834D01*
X009917Y011798D01*
X009947Y011768D01*
X009983Y011747D01*
X010024Y011736D01*
X010300Y011736D01*
X010300Y012348D01*
X010420Y012348D01*
X010420Y011736D01*
X010696Y011736D01*
X010737Y011747D01*
X010743Y011751D02*
X011652Y011751D01*
X011652Y011869D02*
X010833Y011869D01*
X010835Y011988D02*
X011652Y011988D01*
X011652Y012106D02*
X010835Y012106D01*
X010835Y012225D02*
X011652Y012225D01*
X011652Y012343D02*
X010835Y012343D01*
X010835Y012468D02*
X010420Y012468D01*
X010420Y013080D01*
X010696Y013080D01*
X010737Y013069D01*
X010773Y013048D01*
X010803Y013018D01*
X010824Y012981D01*
X010835Y012941D01*
X010835Y012468D01*
X010835Y012580D02*
X011652Y012580D01*
X011652Y012462D02*
X010420Y012462D01*
X010420Y012580D02*
X010300Y012580D01*
X010300Y012462D02*
X009174Y012462D01*
X009174Y012580D02*
X009885Y012580D01*
X009885Y012699D02*
X009174Y012699D01*
X009174Y012817D02*
X009885Y012817D01*
X009885Y012936D02*
X008068Y012936D01*
X008068Y013054D02*
X009958Y013054D01*
X010300Y013054D02*
X010420Y013054D01*
X010420Y012936D02*
X010300Y012936D01*
X010300Y012817D02*
X010420Y012817D01*
X010420Y012699D02*
X010300Y012699D01*
X010835Y012699D02*
X011652Y012699D01*
X011474Y012817D02*
X010835Y012817D01*
X010835Y012936D02*
X011410Y012936D01*
X011410Y013054D02*
X010762Y013054D01*
X011410Y013647D02*
X008513Y013647D01*
X008394Y013765D02*
X011410Y013765D01*
X011410Y013884D02*
X008276Y013884D01*
X008060Y013760D02*
X005360Y013760D01*
X004484Y014636D01*
X004034Y014595D02*
X003565Y014595D01*
X003565Y014713D02*
X004034Y014713D01*
X004034Y014832D02*
X003565Y014832D01*
X003565Y014950D02*
X004034Y014950D01*
X004034Y015069D02*
X003565Y015069D01*
X003565Y015187D02*
X004034Y015187D01*
X004138Y015306D02*
X003565Y015306D01*
X003565Y015424D02*
X005879Y015424D01*
X005782Y015306D02*
X005078Y015306D01*
X005182Y015187D02*
X005739Y015187D01*
X005739Y015069D02*
X005182Y015069D01*
X005182Y014950D02*
X005782Y014950D01*
X005879Y014832D02*
X005182Y014832D01*
X005182Y014713D02*
X007117Y014713D01*
X007117Y014595D02*
X005182Y014595D01*
X005182Y014476D02*
X007117Y014476D01*
X007117Y014358D02*
X005182Y014358D01*
X005220Y014239D02*
X007117Y014239D01*
X007117Y014121D02*
X005339Y014121D01*
X005457Y014002D02*
X007184Y014002D01*
X007117Y013410D02*
X005182Y013410D01*
X005182Y013528D02*
X005293Y013528D01*
X005182Y013528D02*
X005076Y013634D01*
X004140Y013634D01*
X004034Y013528D01*
X003565Y013528D01*
X003565Y013410D02*
X004034Y013410D01*
X004034Y013528D02*
X004034Y012395D01*
X004140Y012289D01*
X005076Y012289D01*
X005182Y012395D01*
X005182Y013528D01*
X005134Y013647D02*
X003565Y013647D01*
X003565Y013765D02*
X005016Y013765D01*
X004897Y013884D02*
X003565Y013884D01*
X003565Y014002D02*
X004101Y014002D01*
X004034Y014121D02*
X003565Y014121D01*
X003565Y014239D02*
X004034Y014239D01*
X004034Y014358D02*
X003565Y014358D01*
X003565Y014476D02*
X004034Y014476D01*
X003565Y015543D02*
X008184Y015543D01*
X008184Y015424D02*
X008157Y015396D01*
X008015Y015255D01*
X007962Y015308D01*
X007222Y015308D01*
X007117Y015187D02*
X006493Y015187D01*
X006493Y015069D02*
X007117Y015069D01*
X007117Y014950D02*
X006450Y014950D01*
X006353Y014832D02*
X007117Y014832D01*
X007736Y014636D02*
X008360Y015260D01*
X008641Y015260D01*
X008679Y015299D02*
X010360Y015299D01*
X010806Y014950D02*
X011531Y014950D01*
X011620Y014832D02*
X010806Y014832D01*
X010756Y014713D02*
X011620Y014713D01*
X011620Y014595D02*
X008739Y014595D01*
X009154Y014713D02*
X009865Y014713D01*
X009816Y014832D02*
X009153Y014832D01*
X009156Y014950D02*
X009816Y014950D01*
X009816Y015543D02*
X009174Y015543D01*
X009142Y015661D02*
X009816Y015661D01*
X009816Y015780D02*
X008919Y015780D01*
X008919Y015898D02*
X009816Y015898D01*
X009897Y016017D02*
X009092Y016017D01*
X009174Y016135D02*
X009889Y016135D01*
X009898Y016126D02*
X009934Y016105D01*
X009975Y016094D01*
X010251Y016094D01*
X010251Y016706D01*
X009836Y016706D01*
X009836Y016233D01*
X009847Y016192D01*
X009868Y016156D01*
X009898Y016126D01*
X009836Y016254D02*
X009174Y016254D01*
X009174Y016372D02*
X009836Y016372D01*
X009836Y016491D02*
X009174Y016491D01*
X009174Y016609D02*
X009836Y016609D01*
X009836Y016846D02*
X009173Y016846D01*
X009174Y016728D02*
X010251Y016728D01*
X010251Y016846D02*
X010371Y016846D01*
X010371Y016728D02*
X012220Y016728D01*
X012700Y016728D02*
X012820Y016728D01*
X012820Y016846D02*
X012700Y016846D01*
X012700Y016965D02*
X012820Y016965D01*
X012820Y017083D02*
X012700Y017083D01*
X012700Y017202D02*
X012820Y017202D01*
X012820Y017320D02*
X012700Y017320D01*
X012700Y017439D02*
X012820Y017439D01*
X012820Y017557D02*
X012736Y017557D01*
X012791Y017676D02*
X012820Y017676D01*
X012820Y017794D02*
X012798Y017794D01*
X012820Y017913D02*
X012763Y017913D01*
X012820Y018031D02*
X012668Y018031D01*
X012820Y018150D02*
X008068Y018150D01*
X008068Y017557D02*
X008234Y017557D01*
X008184Y017439D02*
X008068Y017439D01*
X008068Y017320D02*
X008184Y017320D01*
X008113Y017202D02*
X008068Y017202D01*
X008404Y017149D02*
X007754Y016519D01*
X006917Y016519D01*
X006612Y016372D02*
X003565Y016372D01*
X003565Y016254D02*
X006704Y016254D01*
X006579Y016491D02*
X003565Y016491D01*
X003565Y016609D02*
X006588Y016609D01*
X006647Y016728D02*
X006211Y016728D01*
X006191Y016719D02*
X006329Y016777D01*
X006435Y016883D01*
X006493Y017021D01*
X006493Y017171D01*
X006435Y017310D01*
X006329Y017416D01*
X006191Y017473D01*
X006041Y017473D01*
X005902Y017416D01*
X005796Y017310D01*
X005739Y017171D01*
X005739Y017021D01*
X005796Y016883D01*
X005902Y016777D01*
X006041Y016719D01*
X006191Y016719D01*
X006021Y016728D02*
X003565Y016728D01*
X003565Y016846D02*
X005833Y016846D01*
X005763Y016965D02*
X005125Y016965D01*
X005076Y016916D02*
X005182Y017022D01*
X005182Y018155D01*
X005076Y018260D01*
X004140Y018260D01*
X004034Y018155D01*
X004034Y017022D01*
X004140Y016916D01*
X005076Y016916D01*
X005182Y017083D02*
X005739Y017083D01*
X005752Y017202D02*
X005182Y017202D01*
X005182Y017320D02*
X005807Y017320D01*
X005958Y017439D02*
X005182Y017439D01*
X005182Y017557D02*
X007117Y017557D01*
X007117Y017439D02*
X006274Y017439D01*
X006425Y017320D02*
X007117Y017320D01*
X007117Y017202D02*
X006480Y017202D01*
X006493Y017083D02*
X007117Y017083D01*
X007174Y016965D02*
X006469Y016965D01*
X006399Y016846D02*
X006821Y016846D01*
X007013Y016846D02*
X007746Y016846D01*
X008069Y016491D02*
X008184Y016491D01*
X008184Y016372D02*
X007946Y016372D01*
X008184Y016254D02*
X007130Y016254D01*
X008184Y016135D02*
X003565Y016135D01*
X003565Y016017D02*
X008267Y016017D01*
X008439Y015898D02*
X003565Y015898D01*
X003565Y015780D02*
X008439Y015780D01*
X008217Y015661D02*
X003565Y015661D01*
X003565Y016965D02*
X004091Y016965D01*
X004034Y017083D02*
X003565Y017083D01*
X003565Y017202D02*
X004034Y017202D01*
X004034Y017320D02*
X003565Y017320D01*
X003565Y017439D02*
X004034Y017439D01*
X004034Y017557D02*
X003565Y017557D01*
X003565Y017676D02*
X004034Y017676D01*
X004034Y017794D02*
X003565Y017794D01*
X003565Y017913D02*
X004034Y017913D01*
X004034Y018031D02*
X003565Y018031D01*
X003565Y018150D02*
X004034Y018150D01*
X003565Y018268D02*
X012773Y018268D01*
X012724Y018387D02*
X003565Y018387D01*
X003565Y018505D02*
X012722Y018505D01*
X012761Y018624D02*
X003565Y018624D01*
X003565Y018742D02*
X012863Y018742D01*
X013060Y018460D02*
X013060Y012760D01*
X014160Y011660D01*
X013967Y011514D02*
X012700Y011514D01*
X012700Y011632D02*
X013849Y011632D01*
X013730Y011751D02*
X012700Y011751D01*
X012700Y011869D02*
X013612Y011869D01*
X013493Y011988D02*
X012700Y011988D01*
X012700Y012106D02*
X013375Y012106D01*
X013256Y012225D02*
X012700Y012225D01*
X012700Y012343D02*
X013138Y012343D01*
X013019Y012462D02*
X012700Y012462D01*
X012700Y012580D02*
X012901Y012580D01*
X012826Y012699D02*
X012700Y012699D01*
X012700Y012817D02*
X012820Y012817D01*
X012820Y012936D02*
X012700Y012936D01*
X012700Y013054D02*
X012820Y013054D01*
X012820Y013173D02*
X012700Y013173D01*
X012700Y013291D02*
X012820Y013291D01*
X012820Y013410D02*
X012700Y013410D01*
X012700Y013528D02*
X012820Y013528D01*
X012820Y013647D02*
X012700Y013647D01*
X012700Y013765D02*
X012820Y013765D01*
X012820Y013884D02*
X012700Y013884D01*
X012700Y014002D02*
X012820Y014002D01*
X012820Y014121D02*
X012700Y014121D01*
X012700Y014239D02*
X012820Y014239D01*
X012820Y014358D02*
X012700Y014358D01*
X012700Y014476D02*
X012820Y014476D01*
X012820Y014595D02*
X012700Y014595D01*
X012700Y014713D02*
X012820Y014713D01*
X012820Y014832D02*
X012700Y014832D01*
X012700Y014950D02*
X012820Y014950D01*
X012820Y015069D02*
X012700Y015069D01*
X012700Y015187D02*
X012820Y015187D01*
X012820Y015306D02*
X012700Y015306D01*
X012700Y015424D02*
X012820Y015424D01*
X012820Y015543D02*
X012700Y015543D01*
X012700Y015661D02*
X012820Y015661D01*
X012820Y015780D02*
X012700Y015780D01*
X012700Y015898D02*
X012820Y015898D01*
X012820Y016017D02*
X012700Y016017D01*
X012700Y016135D02*
X012820Y016135D01*
X012820Y016254D02*
X012700Y016254D01*
X012700Y016372D02*
X012820Y016372D01*
X012820Y016491D02*
X012700Y016491D01*
X012700Y016609D02*
X012820Y016609D01*
X013300Y016609D02*
X013520Y016609D01*
X013520Y016491D02*
X013300Y016491D01*
X013300Y016372D02*
X013520Y016372D01*
X013520Y016254D02*
X013300Y016254D01*
X013300Y016728D02*
X013520Y016728D01*
X013520Y016846D02*
X013300Y016846D01*
X013300Y016965D02*
X013520Y016965D01*
X013520Y017083D02*
X013300Y017083D01*
X013300Y017202D02*
X013520Y017202D01*
X013520Y017320D02*
X013300Y017320D01*
X013300Y017439D02*
X013520Y017439D01*
X013520Y017557D02*
X013300Y017557D01*
X013300Y017676D02*
X013520Y017676D01*
X013520Y017794D02*
X013300Y017794D01*
X013300Y017913D02*
X013520Y017913D01*
X013520Y018031D02*
X013300Y018031D01*
X013300Y018150D02*
X013520Y018150D01*
X013520Y018268D02*
X013347Y018268D01*
X013396Y018387D02*
X013520Y018387D01*
X013520Y018505D02*
X013398Y018505D01*
X013359Y018624D02*
X013520Y018624D01*
X013520Y018742D02*
X013257Y018742D01*
X013520Y018861D02*
X003565Y018861D01*
X003565Y018979D02*
X004514Y018979D01*
X004442Y019009D02*
X004711Y018898D01*
X005002Y018898D01*
X005270Y019009D01*
X005476Y019215D01*
X005587Y019483D01*
X005587Y019774D01*
X005476Y020043D01*
X005270Y020249D01*
X005002Y020360D01*
X004711Y020360D01*
X004442Y020249D01*
X004236Y020043D01*
X004125Y019774D01*
X004125Y019483D01*
X004236Y019215D01*
X004442Y019009D01*
X004353Y019098D02*
X003565Y019098D01*
X003565Y019216D02*
X004236Y019216D01*
X004187Y019335D02*
X003565Y019335D01*
X003565Y019453D02*
X004137Y019453D01*
X004125Y019572D02*
X003565Y019572D01*
X003565Y019690D02*
X004125Y019690D01*
X004139Y019809D02*
X003565Y019809D01*
X003565Y019927D02*
X004188Y019927D01*
X004239Y020046D02*
X003565Y020046D01*
X003565Y020164D02*
X004357Y020164D01*
X004524Y020283D02*
X003565Y020283D01*
X003565Y020401D02*
X010720Y020401D01*
X010720Y020283D02*
X005188Y020283D01*
X005355Y020164D02*
X010720Y020164D01*
X010594Y020046D02*
X010526Y020046D01*
X010720Y020520D02*
X003565Y020520D01*
X003565Y020638D02*
X008987Y020638D01*
X008818Y020757D02*
X003565Y020757D01*
X003565Y020875D02*
X008700Y020875D01*
X008635Y020994D02*
X003565Y020994D01*
X003565Y021112D02*
X008586Y021112D01*
X008550Y021231D02*
X003565Y021231D01*
X003565Y021349D02*
X008550Y021349D01*
X008550Y021468D02*
X003565Y021468D01*
X003565Y021586D02*
X008577Y021586D01*
X008626Y021705D02*
X003565Y021705D01*
X003565Y021823D02*
X008678Y021823D01*
X008796Y021942D02*
X003565Y021942D01*
X003565Y022060D02*
X008934Y022060D01*
X009786Y022060D02*
X011521Y022060D01*
X011402Y021942D02*
X009924Y021942D01*
X010042Y021823D02*
X011284Y021823D01*
X011165Y021705D02*
X010094Y021705D01*
X010143Y021586D02*
X011047Y021586D01*
X010928Y021468D02*
X010170Y021468D01*
X010170Y021349D02*
X010810Y021349D01*
X010729Y021231D02*
X010170Y021231D01*
X010134Y021112D02*
X010720Y021112D01*
X010720Y020994D02*
X010085Y020994D01*
X010020Y020875D02*
X010720Y020875D01*
X010720Y020757D02*
X009902Y020757D01*
X009733Y020638D02*
X010720Y020638D01*
X011200Y020638D02*
X013699Y020638D01*
X013817Y020757D02*
X011200Y020757D01*
X011200Y020875D02*
X012546Y020875D01*
X012377Y020994D02*
X011200Y020994D01*
X011251Y021112D02*
X012289Y021112D01*
X012240Y021231D02*
X011370Y021231D01*
X011488Y021349D02*
X012230Y021349D01*
X012231Y021468D02*
X011607Y021468D01*
X011725Y021586D02*
X012280Y021586D01*
X012355Y021705D02*
X011844Y021705D01*
X011760Y021960D02*
X010960Y021160D01*
X010960Y019586D01*
X010934Y019560D01*
X011370Y019572D02*
X013520Y019572D01*
X013520Y019690D02*
X011370Y019690D01*
X011370Y019809D02*
X013520Y019809D01*
X013520Y019927D02*
X011370Y019927D01*
X011274Y020046D02*
X013520Y020046D01*
X013520Y020164D02*
X011200Y020164D01*
X011200Y020283D02*
X013520Y020283D01*
X013520Y020401D02*
X011200Y020401D01*
X011200Y020520D02*
X013580Y020520D01*
X013760Y020360D02*
X014760Y021360D01*
X015143Y020994D02*
X015377Y020994D01*
X015289Y021112D02*
X015231Y021112D01*
X014974Y020875D02*
X015546Y020875D01*
X015699Y020638D02*
X014377Y020638D01*
X014259Y020520D02*
X015580Y020520D01*
X015462Y020401D02*
X014140Y020401D01*
X014022Y020283D02*
X015343Y020283D01*
X015225Y020164D02*
X014000Y020164D01*
X014000Y020046D02*
X015106Y020046D01*
X014988Y019927D02*
X014000Y019927D01*
X014000Y019809D02*
X014869Y019809D01*
X014751Y019690D02*
X014000Y019690D01*
X014000Y019572D02*
X014632Y019572D01*
X014514Y019453D02*
X014000Y019453D01*
X014000Y019335D02*
X014395Y019335D01*
X014277Y019216D02*
X014000Y019216D01*
X014000Y019098D02*
X014220Y019098D01*
X014220Y018979D02*
X014000Y018979D01*
X014000Y018861D02*
X014220Y018861D01*
X014220Y018742D02*
X014000Y018742D01*
X014000Y018624D02*
X014220Y018624D01*
X014220Y018505D02*
X014000Y018505D01*
X014000Y018387D02*
X014220Y018387D01*
X014220Y018268D02*
X014000Y018268D01*
X014000Y018150D02*
X014220Y018150D01*
X014220Y018031D02*
X014000Y018031D01*
X014000Y017913D02*
X014220Y017913D01*
X014220Y017794D02*
X014000Y017794D01*
X014000Y017676D02*
X014220Y017676D01*
X014220Y017557D02*
X014000Y017557D01*
X014000Y017439D02*
X014220Y017439D01*
X014220Y017320D02*
X014000Y017320D01*
X014000Y017202D02*
X014220Y017202D01*
X014220Y017083D02*
X014000Y017083D01*
X014000Y016965D02*
X014220Y016965D01*
X014700Y018387D02*
X014747Y018387D01*
X014700Y018505D02*
X014866Y018505D01*
X013520Y018979D02*
X005198Y018979D01*
X005359Y019098D02*
X007644Y019098D01*
X007553Y019216D02*
X005477Y019216D01*
X005526Y019335D02*
X007522Y019335D01*
X007532Y019453D02*
X005575Y019453D01*
X005587Y019572D02*
X007593Y019572D01*
X007772Y019690D02*
X005587Y019690D01*
X005573Y019809D02*
X009750Y019809D01*
X009750Y019927D02*
X005524Y019927D01*
X005473Y020046D02*
X009846Y020046D01*
X010186Y019560D02*
X008060Y019560D01*
X007860Y019360D01*
X008167Y019216D02*
X009750Y019216D01*
X009823Y019098D02*
X008076Y019098D01*
X007117Y018150D02*
X005182Y018150D01*
X005182Y018031D02*
X007117Y018031D01*
X007117Y017913D02*
X005182Y017913D01*
X005182Y017794D02*
X007117Y017794D01*
X007117Y017676D02*
X005182Y017676D01*
X008404Y017149D02*
X008679Y017177D01*
X009174Y017202D02*
X009836Y017202D01*
X009841Y017320D02*
X009174Y017320D01*
X009174Y017083D02*
X009836Y017083D01*
X009836Y016965D02*
X009174Y016965D01*
X008679Y016429D02*
X008679Y015299D01*
X008066Y015306D02*
X007964Y015306D01*
X008152Y014713D02*
X008204Y014713D01*
X008071Y013410D02*
X008068Y013410D01*
X008068Y013291D02*
X008190Y013291D01*
X008308Y013173D02*
X008068Y013173D01*
X008068Y012817D02*
X008184Y012817D01*
X008184Y012699D02*
X008068Y012699D01*
X008068Y012580D02*
X008169Y012580D01*
X008404Y012474D02*
X007704Y011795D01*
X006917Y011795D01*
X006784Y012106D02*
X006224Y012106D01*
X006191Y012092D02*
X006329Y012150D01*
X006435Y012256D01*
X006493Y012394D01*
X006493Y012544D01*
X006435Y012683D01*
X006329Y012789D01*
X006191Y012846D01*
X006041Y012846D01*
X005902Y012789D01*
X005796Y012683D01*
X005739Y012544D01*
X005739Y012394D01*
X005796Y012256D01*
X005902Y012150D01*
X006041Y012092D01*
X006191Y012092D01*
X006008Y012106D02*
X003565Y012106D01*
X003565Y011988D02*
X006631Y011988D01*
X006581Y011869D02*
X003565Y011869D01*
X003565Y011751D02*
X006579Y011751D01*
X006618Y011632D02*
X003565Y011632D01*
X003565Y011514D02*
X006720Y011514D01*
X007114Y011514D02*
X008184Y011514D01*
X008184Y011632D02*
X007881Y011632D01*
X008003Y011751D02*
X008184Y011751D01*
X008184Y011869D02*
X008125Y011869D01*
X007680Y012106D02*
X007051Y012106D01*
X007169Y012343D02*
X006472Y012343D01*
X006493Y012462D02*
X007117Y012462D01*
X007117Y012580D02*
X006478Y012580D01*
X006420Y012699D02*
X007117Y012699D01*
X007117Y012817D02*
X006261Y012817D01*
X005971Y012817D02*
X005182Y012817D01*
X005182Y012699D02*
X005812Y012699D01*
X005754Y012580D02*
X005182Y012580D01*
X005182Y012462D02*
X005739Y012462D01*
X005760Y012343D02*
X005130Y012343D01*
X005828Y012225D02*
X003565Y012225D01*
X003565Y012343D02*
X004086Y012343D01*
X004034Y012462D02*
X003565Y012462D01*
X003565Y012580D02*
X004034Y012580D01*
X004034Y012699D02*
X003565Y012699D01*
X003565Y012817D02*
X004034Y012817D01*
X004034Y012936D02*
X003565Y012936D01*
X003565Y013054D02*
X004034Y013054D01*
X004034Y013173D02*
X003565Y013173D01*
X003565Y013291D02*
X004034Y013291D01*
X005182Y013291D02*
X007117Y013291D01*
X007117Y013173D02*
X005182Y013173D01*
X005182Y013054D02*
X007117Y013054D01*
X007117Y012936D02*
X005182Y012936D01*
X006404Y012225D02*
X007802Y012225D01*
X008404Y012474D02*
X008679Y012488D01*
X009174Y012343D02*
X009885Y012343D01*
X009885Y012225D02*
X009174Y012225D01*
X009139Y012106D02*
X009885Y012106D01*
X009885Y011988D02*
X009174Y011988D01*
X009174Y011869D02*
X009887Y011869D01*
X009977Y011751D02*
X009174Y011751D01*
X009174Y011632D02*
X009920Y011632D01*
X009865Y011514D02*
X009174Y011514D01*
X009160Y011395D02*
X009865Y011395D01*
X009865Y011277D02*
X008919Y011277D01*
X008919Y011158D02*
X009854Y011158D01*
X009850Y011040D02*
X009074Y011040D01*
X009174Y010921D02*
X009865Y010921D01*
X010360Y010757D02*
X010360Y009860D01*
X009925Y009855D02*
X008739Y009855D01*
X008739Y009801D02*
X008739Y009921D01*
X009154Y009921D01*
X009154Y010138D01*
X009143Y010179D01*
X009122Y010215D01*
X009117Y010221D01*
X009174Y010279D01*
X009174Y010370D01*
X009899Y010370D01*
X009970Y010299D01*
X009974Y010299D01*
X009925Y010250D01*
X009925Y009470D01*
X009996Y009400D01*
X008026Y009400D01*
X008068Y009442D01*
X008068Y010007D01*
X008207Y010146D01*
X008204Y010138D01*
X008204Y009921D01*
X008619Y009921D01*
X008619Y009801D01*
X008204Y009801D01*
X008204Y009584D01*
X008215Y009543D01*
X008236Y009507D01*
X008266Y009477D01*
X008303Y009456D01*
X008343Y009445D01*
X008619Y009445D01*
X008619Y009801D01*
X008739Y009801D01*
X008739Y009445D01*
X009015Y009445D01*
X009056Y009456D01*
X009093Y009477D01*
X009122Y009507D01*
X009143Y009543D01*
X009154Y009584D01*
X009154Y009801D01*
X008739Y009801D01*
X008739Y009736D02*
X008619Y009736D01*
X008619Y009618D02*
X008739Y009618D01*
X008739Y009499D02*
X008619Y009499D01*
X008619Y009855D02*
X008068Y009855D01*
X008068Y009973D02*
X008204Y009973D01*
X008204Y010092D02*
X008152Y010092D01*
X008204Y009736D02*
X008068Y009736D01*
X008068Y009618D02*
X008204Y009618D01*
X008244Y009499D02*
X008068Y009499D01*
X007769Y010048D02*
X008321Y010599D01*
X008748Y010560D01*
X008679Y010610D02*
X010360Y010610D01*
X009941Y010329D02*
X009174Y010329D01*
X009125Y010210D02*
X009925Y010210D01*
X009925Y010092D02*
X009154Y010092D01*
X009154Y009973D02*
X009925Y009973D01*
X009925Y009736D02*
X009154Y009736D01*
X009154Y009618D02*
X009925Y009618D01*
X009925Y009499D02*
X009115Y009499D01*
X008679Y010610D02*
X008679Y011740D01*
X008439Y011277D02*
X003565Y011277D01*
X003565Y011395D02*
X008199Y011395D01*
X008439Y011158D02*
X003565Y011158D01*
X003565Y011040D02*
X008284Y011040D01*
X008184Y010921D02*
X003565Y010921D01*
X003565Y010803D02*
X005885Y010803D01*
X005902Y010820D02*
X005796Y010714D01*
X005739Y010576D01*
X005739Y010426D01*
X005796Y010287D01*
X005902Y010181D01*
X006041Y010124D01*
X006191Y010124D01*
X006329Y010181D01*
X006435Y010287D01*
X006493Y010426D01*
X006493Y010576D01*
X006435Y010714D01*
X006329Y010820D01*
X006191Y010878D01*
X006041Y010878D01*
X005902Y010820D01*
X005784Y010684D02*
X003565Y010684D01*
X003565Y010566D02*
X004034Y010566D01*
X004034Y010447D02*
X003565Y010447D01*
X003565Y010329D02*
X004034Y010329D01*
X004034Y010210D02*
X003565Y010210D01*
X003565Y010092D02*
X004034Y010092D01*
X003565Y009262D02*
X004919Y009262D01*
X005037Y009144D02*
X003565Y009144D01*
X003565Y008788D02*
X004034Y008788D01*
X004034Y008670D02*
X003565Y008670D01*
X003565Y008551D02*
X004034Y008551D01*
X004034Y008433D02*
X003565Y008433D01*
X003565Y008314D02*
X004034Y008314D01*
X004034Y008196D02*
X003565Y008196D01*
X003565Y008077D02*
X004034Y008077D01*
X004034Y007959D02*
X003565Y007959D01*
X003565Y007840D02*
X004034Y007840D01*
X004034Y007722D02*
X003565Y007722D01*
X003565Y007603D02*
X004137Y007603D01*
X003565Y007485D02*
X005878Y007485D01*
X005781Y007603D02*
X005080Y007603D01*
X005182Y007722D02*
X005739Y007722D01*
X005739Y007840D02*
X005182Y007840D01*
X005182Y007959D02*
X005782Y007959D01*
X005880Y008077D02*
X005182Y008077D01*
X006579Y007129D02*
X003565Y007129D01*
X003565Y007011D02*
X006579Y007011D01*
X006625Y006892D02*
X003565Y006892D01*
X003565Y006774D02*
X006750Y006774D01*
X007084Y006774D02*
X008213Y006774D01*
X008184Y006892D02*
X007817Y006892D01*
X007929Y007011D02*
X008184Y007011D01*
X008184Y007129D02*
X008041Y007129D01*
X008152Y007248D02*
X008184Y007248D01*
X008679Y007132D02*
X008679Y006215D01*
X010362Y006215D01*
X010361Y005479D01*
X009925Y005470D02*
X008739Y005470D01*
X008739Y005527D02*
X009154Y005527D01*
X009154Y005744D01*
X009143Y005784D01*
X009122Y005821D01*
X009117Y005827D01*
X009174Y005884D01*
X009174Y005975D01*
X009900Y005975D01*
X009966Y005909D01*
X009925Y005869D01*
X009925Y005090D01*
X010015Y005000D01*
X008255Y005000D01*
X008167Y004963D01*
X008099Y004896D01*
X008068Y004864D01*
X008068Y005507D01*
X008204Y005644D01*
X008204Y005527D01*
X008619Y005527D01*
X008619Y005407D01*
X008204Y005407D01*
X008204Y005190D01*
X008215Y005149D01*
X008236Y005113D01*
X008266Y005083D01*
X008303Y005062D01*
X008343Y005051D01*
X008619Y005051D01*
X008619Y005407D01*
X008739Y005407D01*
X008739Y005051D01*
X009015Y005051D01*
X009056Y005062D01*
X009093Y005083D01*
X009122Y005113D01*
X009143Y005149D01*
X009154Y005190D01*
X009154Y005407D01*
X008739Y005407D01*
X008739Y005527D01*
X008619Y005470D02*
X008068Y005470D01*
X008068Y005352D02*
X008204Y005352D01*
X008204Y005233D02*
X008068Y005233D01*
X008068Y005115D02*
X008235Y005115D01*
X008245Y004996D02*
X008068Y004996D01*
X008099Y004896D02*
X008099Y004896D01*
X008081Y004878D02*
X008068Y004878D01*
X008303Y004760D02*
X008066Y004524D01*
X005697Y004524D01*
X004860Y005360D01*
X005182Y005470D02*
X005955Y005470D01*
X005902Y005492D02*
X006041Y005434D01*
X006191Y005434D01*
X006329Y005492D01*
X006435Y005598D01*
X006493Y005736D01*
X006493Y005886D01*
X006435Y006025D01*
X006329Y006131D01*
X006191Y006188D01*
X006041Y006188D01*
X005902Y006131D01*
X005796Y006025D01*
X005739Y005886D01*
X005739Y005736D01*
X005796Y005598D01*
X005902Y005492D01*
X005806Y005589D02*
X005182Y005589D01*
X005182Y005707D02*
X005751Y005707D01*
X005739Y005826D02*
X005182Y005826D01*
X005124Y005944D02*
X005763Y005944D01*
X005834Y006063D02*
X003565Y006063D01*
X003565Y006181D02*
X006024Y006181D01*
X006208Y006181D02*
X008063Y006181D01*
X008181Y006300D02*
X003565Y006300D01*
X003565Y006418D02*
X008184Y006418D01*
X008184Y006537D02*
X003565Y006537D01*
X003565Y006655D02*
X008439Y006655D01*
X008481Y006260D02*
X007540Y005319D01*
X007117Y005352D02*
X005208Y005352D01*
X005326Y005233D02*
X007117Y005233D01*
X007117Y005115D02*
X005445Y005115D01*
X005563Y004996D02*
X007117Y004996D01*
X007117Y004878D02*
X005682Y004878D01*
X005359Y004522D02*
X005257Y004522D01*
X005270Y004516D02*
X005002Y004628D01*
X004711Y004628D01*
X004442Y004516D01*
X004236Y004311D01*
X004125Y004042D01*
X004125Y003751D01*
X004236Y003482D01*
X004442Y003277D01*
X004711Y003165D01*
X005002Y003165D01*
X005270Y003277D01*
X005476Y003482D01*
X005587Y003751D01*
X005587Y004042D01*
X005476Y004311D01*
X005270Y004516D01*
X005240Y004641D02*
X003565Y004641D01*
X003565Y004759D02*
X004034Y004759D01*
X004034Y004878D02*
X003565Y004878D01*
X003565Y004996D02*
X004034Y004996D01*
X004034Y005115D02*
X003565Y005115D01*
X003565Y005233D02*
X004034Y005233D01*
X004034Y005352D02*
X003565Y005352D01*
X003565Y005470D02*
X004034Y005470D01*
X004034Y005589D02*
X003565Y005589D01*
X003565Y005707D02*
X004034Y005707D01*
X004034Y005826D02*
X003565Y005826D01*
X003565Y005944D02*
X004093Y005944D01*
X004456Y004522D02*
X003565Y004522D01*
X003565Y004404D02*
X004329Y004404D01*
X004226Y004285D02*
X003565Y004285D01*
X003565Y004167D02*
X004176Y004167D01*
X004127Y004048D02*
X003565Y004048D01*
X003565Y003930D02*
X004125Y003930D01*
X004125Y003811D02*
X003565Y003811D01*
X003565Y003693D02*
X004149Y003693D01*
X004198Y003574D02*
X003565Y003574D01*
X003565Y003456D02*
X004263Y003456D01*
X004382Y003337D02*
X003565Y003337D01*
X003565Y003219D02*
X004582Y003219D01*
X005130Y003219D02*
X018381Y003219D01*
X018510Y003165D02*
X018241Y003277D01*
X018035Y003482D01*
X017924Y003751D01*
X017924Y004042D01*
X018035Y004311D01*
X018241Y004516D01*
X018510Y004628D01*
X018801Y004628D01*
X019069Y004516D01*
X019275Y004311D01*
X019386Y004042D01*
X019386Y003751D01*
X019275Y003482D01*
X019069Y003277D01*
X018801Y003165D01*
X018510Y003165D01*
X018465Y002890D02*
X018255Y002890D01*
X018060Y002809D01*
X017911Y002660D01*
X017860Y002538D01*
X017809Y002660D01*
X017660Y002809D01*
X017465Y002890D01*
X017255Y002890D01*
X017060Y002809D01*
X016911Y002660D01*
X016890Y002610D01*
X016890Y002785D01*
X016785Y002890D01*
X015935Y002890D01*
X015830Y002785D01*
X015830Y001935D01*
X015935Y001830D01*
X016785Y001830D01*
X016890Y001935D01*
X016890Y002110D01*
X016911Y002060D01*
X017060Y001911D01*
X017255Y001830D01*
X017465Y001830D01*
X017660Y001911D01*
X017809Y002060D01*
X017860Y002182D01*
X017911Y002060D01*
X018060Y001911D01*
X018255Y001830D01*
X018465Y001830D01*
X018660Y001911D01*
X018809Y002060D01*
X018872Y002211D01*
X018887Y002164D01*
X018924Y002093D01*
X018971Y002028D01*
X019028Y001971D01*
X019093Y001924D01*
X019164Y001887D01*
X019241Y001863D01*
X019320Y001850D01*
X019340Y001850D01*
X019340Y002340D01*
X019380Y002340D01*
X019380Y002380D01*
X019340Y002380D01*
X019340Y002870D01*
X019320Y002870D01*
X019241Y002857D01*
X019164Y002833D01*
X019093Y002796D01*
X019028Y002749D01*
X018971Y002692D01*
X018924Y002627D01*
X018887Y002556D01*
X018872Y002509D01*
X018809Y002660D01*
X018660Y002809D01*
X018465Y002890D01*
X018531Y002863D02*
X019276Y002863D01*
X019340Y002863D02*
X019380Y002863D01*
X019380Y002870D02*
X019380Y002380D01*
X020340Y002380D01*
X020340Y002870D01*
X020320Y002870D01*
X020241Y002857D01*
X020164Y002833D01*
X020093Y002796D01*
X020028Y002749D01*
X019971Y002692D01*
X019924Y002627D01*
X019887Y002556D01*
X019863Y002479D01*
X019860Y002463D01*
X019857Y002479D01*
X019833Y002556D01*
X019796Y002627D01*
X019749Y002692D01*
X019692Y002749D01*
X019627Y002796D01*
X019556Y002833D01*
X019479Y002857D01*
X019400Y002870D01*
X019380Y002870D01*
X019444Y002863D02*
X020276Y002863D01*
X020340Y002863D02*
X020380Y002863D01*
X020380Y002870D02*
X020380Y002380D01*
X020340Y002380D01*
X020340Y002340D01*
X020380Y002340D01*
X020380Y001850D01*
X020400Y001850D01*
X020479Y001863D01*
X020556Y001887D01*
X020627Y001924D01*
X020692Y001971D01*
X020749Y002028D01*
X020796Y002093D01*
X020833Y002164D01*
X020848Y002211D01*
X020911Y002060D01*
X021060Y001911D01*
X021255Y001830D01*
X021465Y001830D01*
X021660Y001911D01*
X021809Y002060D01*
X021890Y002255D01*
X021890Y002465D01*
X021809Y002660D01*
X021660Y002809D01*
X021465Y002890D01*
X021255Y002890D01*
X021060Y002809D01*
X020911Y002660D01*
X020848Y002509D01*
X020833Y002556D01*
X020796Y002627D01*
X020749Y002692D01*
X020692Y002749D01*
X020627Y002796D01*
X020556Y002833D01*
X020479Y002857D01*
X020400Y002870D01*
X020380Y002870D01*
X020444Y002863D02*
X021189Y002863D01*
X020995Y002745D02*
X020697Y002745D01*
X020797Y002626D02*
X020897Y002626D01*
X020872Y002152D02*
X020826Y002152D01*
X020753Y002034D02*
X020937Y002034D01*
X021055Y001915D02*
X020610Y001915D01*
X020380Y001915D02*
X020340Y001915D01*
X020340Y001850D02*
X020340Y002340D01*
X019850Y002340D01*
X019380Y002340D01*
X019380Y001850D01*
X019400Y001850D01*
X019479Y001863D01*
X019556Y001887D01*
X019627Y001924D01*
X019692Y001971D01*
X019749Y002028D01*
X019796Y002093D01*
X019833Y002164D01*
X019857Y002241D01*
X019860Y002257D01*
X019863Y002241D01*
X019887Y002164D01*
X019924Y002093D01*
X019971Y002028D01*
X020028Y001971D01*
X020093Y001924D01*
X020164Y001887D01*
X020241Y001863D01*
X020320Y001850D01*
X020340Y001850D01*
X020340Y002034D02*
X020380Y002034D01*
X020380Y002152D02*
X020340Y002152D01*
X020340Y002271D02*
X020380Y002271D01*
X020380Y002389D02*
X020340Y002389D01*
X020340Y002508D02*
X020380Y002508D01*
X020380Y002626D02*
X020340Y002626D01*
X020340Y002745D02*
X020380Y002745D01*
X020023Y002745D02*
X019697Y002745D01*
X019797Y002626D02*
X019923Y002626D01*
X019872Y002508D02*
X019848Y002508D01*
X019826Y002152D02*
X019894Y002152D01*
X019967Y002034D02*
X019753Y002034D01*
X019610Y001915D02*
X020110Y001915D01*
X019380Y001915D02*
X019340Y001915D01*
X019340Y002034D02*
X019380Y002034D01*
X019380Y002152D02*
X019340Y002152D01*
X019340Y002271D02*
X019380Y002271D01*
X019380Y002389D02*
X019340Y002389D01*
X019340Y002508D02*
X019380Y002508D01*
X019380Y002626D02*
X019340Y002626D01*
X019340Y002745D02*
X019380Y002745D01*
X019023Y002745D02*
X018725Y002745D01*
X018823Y002626D02*
X018923Y002626D01*
X018894Y002152D02*
X018848Y002152D01*
X018783Y002034D02*
X018967Y002034D01*
X019110Y001915D02*
X018665Y001915D01*
X018055Y001915D02*
X017665Y001915D01*
X017783Y002034D02*
X017937Y002034D01*
X017872Y002152D02*
X017848Y002152D01*
X017823Y002626D02*
X017897Y002626D01*
X017995Y002745D02*
X017725Y002745D01*
X017531Y002863D02*
X018189Y002863D01*
X018181Y003337D02*
X007104Y003337D01*
X007109Y003339D02*
X007204Y003434D01*
X007256Y003558D01*
X007256Y003693D01*
X007204Y003817D01*
X007109Y003913D01*
X006984Y003964D01*
X006850Y003964D01*
X006725Y003913D01*
X006630Y003817D01*
X006579Y003693D01*
X006579Y003558D01*
X006630Y003434D01*
X006725Y003339D01*
X006850Y003287D01*
X006984Y003287D01*
X007109Y003339D01*
X007213Y003456D02*
X007313Y003456D01*
X007313Y003574D02*
X007256Y003574D01*
X007256Y003693D02*
X007313Y003693D01*
X007313Y003811D02*
X007207Y003811D01*
X007313Y003930D02*
X007068Y003930D01*
X007313Y004048D02*
X005585Y004048D01*
X005587Y003930D02*
X006766Y003930D01*
X006628Y003811D02*
X005587Y003811D01*
X005563Y003693D02*
X006579Y003693D01*
X006579Y003574D02*
X005514Y003574D01*
X005449Y003456D02*
X006621Y003456D01*
X006730Y003337D02*
X005331Y003337D01*
X005536Y004167D02*
X007313Y004167D01*
X008285Y004404D02*
X018128Y004404D01*
X018025Y004285D02*
X015143Y004285D01*
X015175Y004262D02*
X015110Y004309D01*
X015039Y004346D01*
X014962Y004370D01*
X014883Y004383D01*
X014862Y004383D01*
X014862Y003892D01*
X014824Y003892D01*
X014824Y003854D01*
X014862Y003854D01*
X014862Y003892D01*
X015353Y003892D01*
X015353Y003913D01*
X015341Y003992D01*
X015316Y004069D01*
X015279Y004140D01*
X015232Y004205D01*
X015175Y004262D01*
X015260Y004167D02*
X017976Y004167D01*
X017927Y004048D02*
X015322Y004048D01*
X015350Y003930D02*
X017924Y003930D01*
X017924Y003811D02*
X015350Y003811D01*
X015353Y003833D02*
X015353Y003854D01*
X014862Y003854D01*
X014862Y003363D01*
X014883Y003363D01*
X014962Y003375D01*
X015039Y003400D01*
X015110Y003437D01*
X015175Y003484D01*
X015232Y003541D01*
X015279Y003606D01*
X015316Y003677D01*
X015341Y003753D01*
X015353Y003833D01*
X015321Y003693D02*
X017948Y003693D01*
X017997Y003574D02*
X015256Y003574D01*
X015136Y003456D02*
X018062Y003456D01*
X017189Y002863D02*
X016812Y002863D01*
X016890Y002745D02*
X016995Y002745D01*
X016897Y002626D02*
X016890Y002626D01*
X016890Y002034D02*
X016937Y002034D01*
X016870Y001915D02*
X017055Y001915D01*
X015850Y001915D02*
X003565Y001915D01*
X003565Y001797D02*
X029155Y001797D01*
X029155Y001915D02*
X028665Y001915D01*
X028783Y002034D02*
X029155Y002034D01*
X029155Y002152D02*
X028848Y002152D01*
X028890Y002271D02*
X029155Y002271D01*
X029155Y002389D02*
X028890Y002389D01*
X028873Y002508D02*
X029218Y002508D01*
X029336Y002626D02*
X028823Y002626D01*
X028725Y002745D02*
X029455Y002745D01*
X029573Y002863D02*
X028531Y002863D01*
X028189Y002863D02*
X027531Y002863D01*
X027725Y002745D02*
X027995Y002745D01*
X027897Y002626D02*
X027823Y002626D01*
X027848Y002152D02*
X027872Y002152D01*
X027937Y002034D02*
X027783Y002034D01*
X027665Y001915D02*
X028055Y001915D01*
X029155Y001678D02*
X003565Y001678D01*
X003565Y002034D02*
X015830Y002034D01*
X015830Y002152D02*
X003565Y002152D01*
X003565Y002271D02*
X015830Y002271D01*
X015830Y002389D02*
X003565Y002389D01*
X003565Y002508D02*
X015830Y002508D01*
X015830Y002626D02*
X003565Y002626D01*
X003565Y002745D02*
X015830Y002745D01*
X015908Y002863D02*
X003565Y002863D01*
X003565Y002982D02*
X021892Y002982D01*
X021773Y003100D02*
X003565Y003100D01*
X005383Y004404D02*
X005477Y004404D01*
X005487Y004285D02*
X005645Y004285D01*
X006277Y005470D02*
X007117Y005470D01*
X007117Y005589D02*
X006426Y005589D01*
X006481Y005707D02*
X007117Y005707D01*
X007117Y005826D02*
X006493Y005826D01*
X006469Y005944D02*
X007175Y005944D01*
X007944Y006063D02*
X006398Y006063D01*
X006624Y007248D02*
X003565Y007248D01*
X003565Y007366D02*
X006746Y007366D01*
X008149Y005589D02*
X008204Y005589D01*
X008619Y005352D02*
X008739Y005352D01*
X008739Y005233D02*
X008619Y005233D01*
X008619Y005115D02*
X008739Y005115D01*
X009123Y005115D02*
X009925Y005115D01*
X009925Y005233D02*
X009154Y005233D01*
X009154Y005352D02*
X009925Y005352D01*
X009925Y005589D02*
X009154Y005589D01*
X009154Y005707D02*
X009925Y005707D01*
X009925Y005826D02*
X009118Y005826D01*
X009174Y005944D02*
X009931Y005944D01*
X010855Y006063D02*
X011769Y006063D01*
X011650Y006181D02*
X010855Y006181D01*
X010855Y006300D02*
X011532Y006300D01*
X011413Y006418D02*
X010855Y006418D01*
X010855Y006537D02*
X011338Y006537D01*
X011332Y006655D02*
X010855Y006655D01*
X010855Y006774D02*
X011332Y006774D01*
X011332Y006892D02*
X010855Y006892D01*
X010855Y007011D02*
X011332Y007011D01*
X011332Y007129D02*
X010855Y007129D01*
X010790Y007248D02*
X011332Y007248D01*
X011332Y007366D02*
X010760Y007366D01*
X010773Y007374D02*
X010803Y007403D01*
X010824Y007440D01*
X010835Y007481D01*
X010835Y007954D01*
X010420Y007954D01*
X010420Y007342D01*
X010696Y007342D01*
X010737Y007353D01*
X010773Y007374D01*
X010835Y007485D02*
X011332Y007485D01*
X011332Y007603D02*
X010835Y007603D01*
X010835Y007722D02*
X011332Y007722D01*
X011332Y007840D02*
X010835Y007840D01*
X010420Y007840D02*
X010300Y007840D01*
X010300Y007722D02*
X010420Y007722D01*
X010420Y007603D02*
X010300Y007603D01*
X010300Y007485D02*
X010420Y007485D01*
X010420Y007366D02*
X010300Y007366D01*
X009960Y007366D02*
X009174Y007366D01*
X009174Y007248D02*
X009930Y007248D01*
X009865Y007129D02*
X009174Y007129D01*
X009174Y007011D02*
X009865Y007011D01*
X009865Y006892D02*
X009174Y006892D01*
X009146Y006774D02*
X009865Y006774D01*
X009865Y006655D02*
X008919Y006655D01*
X009174Y006537D02*
X009865Y006537D01*
X009885Y007485D02*
X009152Y007485D01*
X009174Y007603D02*
X009885Y007603D01*
X009885Y007722D02*
X009174Y007722D01*
X009174Y007840D02*
X009885Y007840D01*
X012132Y007840D02*
X013829Y007840D01*
X013784Y007722D02*
X012132Y007722D01*
X012132Y007603D02*
X013784Y007603D01*
X013784Y007485D02*
X012132Y007485D01*
X012132Y007366D02*
X012914Y007366D01*
X012771Y007248D02*
X012132Y007248D01*
X012132Y007129D02*
X012722Y007129D01*
X012722Y007011D02*
X012132Y007011D01*
X012160Y006892D02*
X012763Y006892D01*
X012868Y006774D02*
X012277Y006774D01*
X013206Y007366D02*
X013803Y007366D01*
X013784Y007959D02*
X012132Y007959D01*
X012132Y008077D02*
X013784Y008077D01*
X013784Y008196D02*
X012132Y008196D01*
X012132Y008314D02*
X013804Y008314D01*
X013784Y008433D02*
X012132Y008433D01*
X012132Y008551D02*
X013784Y008551D01*
X013784Y008670D02*
X012132Y008670D01*
X012132Y008788D02*
X012853Y008788D01*
X012757Y008907D02*
X012132Y008907D01*
X012132Y009025D02*
X012722Y009025D01*
X012728Y009144D02*
X012132Y009144D01*
X012132Y009262D02*
X012783Y009262D01*
X012949Y009381D02*
X012132Y009381D01*
X012132Y009499D02*
X013160Y009499D01*
X013278Y009618D02*
X012132Y009618D01*
X012132Y009736D02*
X013397Y009736D01*
X013589Y009589D02*
X013060Y009060D01*
X013363Y008907D02*
X013784Y008907D01*
X013784Y009025D02*
X013398Y009025D01*
X013483Y009144D02*
X013784Y009144D01*
X013784Y009262D02*
X013601Y009262D01*
X013589Y009589D02*
X014364Y009589D01*
X013784Y008788D02*
X013267Y008788D01*
X013071Y009855D02*
X012132Y009855D01*
X012132Y009973D02*
X012908Y009973D01*
X012789Y010092D02*
X012132Y010092D01*
X012132Y010210D02*
X012671Y010210D01*
X012552Y010329D02*
X012132Y010329D01*
X012132Y010447D02*
X012434Y010447D01*
X012315Y010566D02*
X012132Y010566D01*
X012132Y010684D02*
X012232Y010684D01*
X012220Y010803D02*
X012132Y010803D01*
X012132Y010921D02*
X012220Y010921D01*
X012220Y011040D02*
X012132Y011040D01*
X012132Y011158D02*
X012220Y011158D01*
X012220Y011277D02*
X012132Y011277D01*
X012132Y011395D02*
X012220Y011395D01*
X012220Y011514D02*
X012132Y011514D01*
X012132Y011632D02*
X012220Y011632D01*
X012220Y011751D02*
X012132Y011751D01*
X012132Y011869D02*
X012220Y011869D01*
X012220Y011988D02*
X012132Y011988D01*
X012132Y012106D02*
X012220Y012106D01*
X012220Y012225D02*
X012132Y012225D01*
X012132Y012343D02*
X012220Y012343D01*
X012220Y012462D02*
X012132Y012462D01*
X012132Y012580D02*
X012220Y012580D01*
X012220Y012699D02*
X012132Y012699D01*
X013805Y013054D02*
X015427Y013054D01*
X015545Y012936D02*
X013924Y012936D01*
X014042Y012817D02*
X015664Y012817D01*
X015757Y012724D02*
X015757Y012724D01*
X015782Y012699D02*
X014161Y012699D01*
X013800Y013173D02*
X015308Y013173D01*
X015987Y013173D02*
X017830Y013173D01*
X018136Y014358D02*
X017197Y014358D01*
X017197Y014476D02*
X018105Y014476D01*
X018428Y014832D02*
X020749Y014832D01*
X021309Y014950D02*
X021520Y014950D01*
X021520Y015069D02*
X021285Y015069D01*
X021285Y015187D02*
X021520Y015187D01*
X022000Y015187D02*
X022065Y015187D01*
X022065Y015069D02*
X022000Y015069D01*
X022000Y015059D02*
X022000Y020508D01*
X021963Y020596D01*
X021896Y020663D01*
X021652Y020907D01*
X021660Y020911D01*
X021809Y021060D01*
X021860Y021182D01*
X021911Y021060D01*
X022060Y020911D01*
X022255Y020830D01*
X022320Y020830D01*
X022320Y016570D01*
X022170Y016570D01*
X022065Y016464D01*
X022065Y015804D01*
X022109Y015760D01*
X022065Y015716D01*
X022065Y015056D01*
X022170Y014950D01*
X022950Y014950D01*
X023022Y015022D01*
X023022Y014993D01*
X023073Y014868D01*
X023168Y014773D01*
X023293Y014722D01*
X023427Y014722D01*
X023552Y014773D01*
X023647Y014868D01*
X023698Y014993D01*
X023698Y015127D01*
X023647Y015252D01*
X023552Y015347D01*
X023427Y015398D01*
X023361Y015398D01*
X023237Y015522D01*
X023170Y015589D01*
X023082Y015626D01*
X023055Y015626D01*
X023055Y015716D01*
X023011Y015760D01*
X023055Y015804D01*
X023055Y015920D01*
X023361Y015920D01*
X024121Y015160D01*
X024209Y015123D01*
X024587Y015123D01*
X024587Y015052D01*
X024692Y014947D01*
X024720Y014947D01*
X024720Y012959D01*
X024261Y012500D01*
X024055Y012500D01*
X024045Y012510D01*
X024055Y012520D01*
X024208Y012520D01*
X024296Y012557D01*
X024363Y012624D01*
X024663Y012924D01*
X024700Y013012D01*
X024700Y014208D01*
X024663Y014296D01*
X024596Y014363D01*
X024296Y014663D01*
X024208Y014700D01*
X022359Y014700D01*
X022000Y015059D01*
X022109Y014950D02*
X023039Y014950D01*
X023110Y014832D02*
X022228Y014832D01*
X022346Y014713D02*
X024720Y014713D01*
X024720Y014595D02*
X024365Y014595D01*
X024483Y014476D02*
X024720Y014476D01*
X024720Y014358D02*
X024602Y014358D01*
X024687Y014239D02*
X024720Y014239D01*
X024720Y014121D02*
X024700Y014121D01*
X024700Y014002D02*
X024720Y014002D01*
X024720Y013884D02*
X024700Y013884D01*
X024700Y013765D02*
X024720Y013765D01*
X024720Y013647D02*
X024700Y013647D01*
X024700Y013528D02*
X024720Y013528D01*
X024720Y013410D02*
X024700Y013410D01*
X024700Y013291D02*
X024720Y013291D01*
X024720Y013173D02*
X024700Y013173D01*
X024700Y013054D02*
X024720Y013054D01*
X024696Y012936D02*
X024668Y012936D01*
X024578Y012817D02*
X024556Y012817D01*
X024459Y012699D02*
X024438Y012699D01*
X024341Y012580D02*
X024319Y012580D01*
X024360Y012260D02*
X023760Y012260D01*
X024360Y012260D02*
X024960Y012860D01*
X025401Y012462D02*
X027655Y012462D01*
X027655Y012580D02*
X025519Y012580D01*
X025638Y012699D02*
X027655Y012699D01*
X027655Y012817D02*
X025756Y012817D01*
X025875Y012936D02*
X027655Y012936D01*
X027655Y013054D02*
X025993Y013054D01*
X026112Y013173D02*
X027655Y013173D01*
X027655Y013291D02*
X026230Y013291D01*
X026299Y013410D02*
X027655Y013410D01*
X027655Y013528D02*
X026300Y013528D01*
X026300Y013647D02*
X027655Y013647D01*
X027655Y013765D02*
X026300Y013765D01*
X026300Y013884D02*
X027655Y013884D01*
X027655Y014002D02*
X026300Y014002D01*
X026300Y014121D02*
X027655Y014121D01*
X027655Y014239D02*
X026300Y014239D01*
X026300Y014358D02*
X027655Y014358D01*
X027686Y014476D02*
X026300Y014476D01*
X026300Y014595D02*
X029092Y014595D01*
X028862Y014713D02*
X026300Y014713D01*
X026300Y014832D02*
X028743Y014832D01*
X028653Y014950D02*
X026419Y014950D01*
X026515Y015069D02*
X028604Y015069D01*
X028555Y015187D02*
X026515Y015187D01*
X026515Y015306D02*
X028550Y015306D01*
X028550Y015424D02*
X026515Y015424D01*
X026515Y015543D02*
X028559Y015543D01*
X028608Y015661D02*
X026515Y015661D01*
X026501Y015780D02*
X028657Y015780D01*
X028753Y015898D02*
X026515Y015898D01*
X026515Y016017D02*
X028871Y016017D01*
X029115Y016135D02*
X026515Y016135D01*
X026515Y016254D02*
X030077Y016254D01*
X030155Y016135D02*
X029605Y016135D01*
X029849Y016017D02*
X030155Y016017D01*
X030155Y015898D02*
X029967Y015898D01*
X030063Y015780D02*
X030155Y015780D01*
X030155Y015661D02*
X030112Y015661D01*
X029958Y016372D02*
X026515Y016372D01*
X026479Y016491D02*
X029840Y016491D01*
X029721Y016609D02*
X023388Y016609D01*
X023471Y016728D02*
X029603Y016728D01*
X029484Y016846D02*
X023498Y016846D01*
X023604Y016965D02*
X029366Y016965D01*
X029247Y017083D02*
X023722Y017083D01*
X023841Y017202D02*
X029155Y017202D01*
X029155Y017320D02*
X026375Y017320D01*
X026391Y017328D02*
X026444Y017367D01*
X026491Y017413D01*
X026530Y017466D01*
X026559Y017525D01*
X026580Y017588D01*
X026590Y017652D01*
X026590Y017667D01*
X026191Y017667D01*
X026191Y017704D01*
X026590Y017704D01*
X026590Y017718D01*
X026580Y017783D01*
X026559Y017846D01*
X026530Y017904D01*
X026491Y017957D01*
X026444Y018004D01*
X026391Y018042D01*
X026340Y018069D01*
X026420Y018102D01*
X026543Y018225D01*
X026610Y018386D01*
X026610Y018560D01*
X026543Y018721D01*
X026420Y018844D01*
X026365Y018866D01*
X026420Y018889D01*
X026543Y019012D01*
X026610Y019173D01*
X026610Y019347D01*
X026543Y019508D01*
X026441Y019610D01*
X026505Y019610D01*
X026610Y019715D01*
X026610Y020380D01*
X026505Y020485D01*
X025840Y020485D01*
X025735Y020380D01*
X025735Y019715D01*
X025840Y019610D01*
X025904Y019610D01*
X025802Y019508D01*
X025735Y019347D01*
X025735Y019173D01*
X025802Y019012D01*
X025925Y018889D01*
X025980Y018866D01*
X025925Y018844D01*
X025802Y018721D01*
X025735Y018560D01*
X025735Y018386D01*
X025802Y018225D01*
X025925Y018102D01*
X026005Y018069D01*
X025954Y018042D01*
X025901Y018004D01*
X025854Y017957D01*
X025815Y017904D01*
X025786Y017846D01*
X025765Y017783D01*
X025755Y017718D01*
X025755Y017704D01*
X026154Y017704D01*
X026154Y017667D01*
X025755Y017667D01*
X025755Y017652D01*
X025765Y017588D01*
X025786Y017525D01*
X025815Y017466D01*
X025854Y017413D01*
X025901Y017367D01*
X025954Y017328D01*
X026012Y017298D01*
X026075Y017278D01*
X026140Y017268D01*
X026154Y017268D01*
X026154Y017667D01*
X026191Y017667D01*
X026191Y017268D01*
X026205Y017268D01*
X026270Y017278D01*
X026333Y017298D01*
X026391Y017328D01*
X026509Y017439D02*
X029155Y017439D01*
X029155Y017557D02*
X026570Y017557D01*
X026576Y017794D02*
X029155Y017794D01*
X029155Y017676D02*
X026191Y017676D01*
X026154Y017676D02*
X024315Y017676D01*
X024433Y017794D02*
X025769Y017794D01*
X025822Y017913D02*
X024552Y017913D01*
X024670Y018031D02*
X025938Y018031D01*
X025877Y018150D02*
X024789Y018150D01*
X024882Y018268D02*
X025784Y018268D01*
X025735Y018387D02*
X024900Y018387D01*
X024900Y018505D02*
X025735Y018505D01*
X025761Y018624D02*
X024900Y018624D01*
X024900Y018742D02*
X025823Y018742D01*
X025966Y018861D02*
X024900Y018861D01*
X024900Y018979D02*
X025835Y018979D01*
X025766Y019098D02*
X024900Y019098D01*
X024900Y019216D02*
X025735Y019216D01*
X025735Y019335D02*
X024900Y019335D01*
X024900Y019453D02*
X025779Y019453D01*
X025865Y019572D02*
X024900Y019572D01*
X024900Y019690D02*
X025760Y019690D01*
X025735Y019809D02*
X024900Y019809D01*
X024900Y019927D02*
X025735Y019927D01*
X025735Y020046D02*
X024900Y020046D01*
X024900Y020164D02*
X025735Y020164D01*
X025735Y020283D02*
X024900Y020283D01*
X024940Y020401D02*
X025757Y020401D01*
X025574Y020875D02*
X026146Y020875D01*
X025977Y020994D02*
X025743Y020994D01*
X025831Y021112D02*
X025889Y021112D01*
X025880Y021586D02*
X025840Y021586D01*
X025765Y021705D02*
X025955Y021705D01*
X026093Y021823D02*
X025627Y021823D01*
X025093Y021823D02*
X024627Y021823D01*
X024765Y021705D02*
X024955Y021705D01*
X024880Y021586D02*
X024840Y021586D01*
X024360Y021360D02*
X024360Y018460D01*
X023660Y017760D01*
X023160Y017760D01*
X023268Y017439D02*
X023399Y017439D01*
X023281Y017320D02*
X022800Y017320D01*
X022800Y017202D02*
X023162Y017202D01*
X023052Y017439D02*
X022800Y017439D01*
X022800Y017557D02*
X022884Y017557D01*
X022829Y017676D02*
X022800Y017676D01*
X022800Y017794D02*
X022822Y017794D01*
X022800Y017913D02*
X022857Y017913D01*
X022800Y018031D02*
X022952Y018031D01*
X022800Y018150D02*
X023710Y018150D01*
X023829Y018268D02*
X023339Y018268D01*
X023454Y018387D02*
X023947Y018387D01*
X024066Y018505D02*
X023498Y018505D01*
X023563Y018624D02*
X023600Y018712D01*
X023600Y020886D01*
X023660Y020911D01*
X023809Y021060D01*
X023860Y021182D01*
X023911Y021060D01*
X024060Y020911D01*
X024120Y020886D01*
X024120Y018559D01*
X024120Y018742D02*
X023600Y018742D01*
X023600Y018861D02*
X024120Y018861D01*
X024120Y018979D02*
X023600Y018979D01*
X023600Y019098D02*
X024120Y019098D01*
X024120Y019216D02*
X023600Y019216D01*
X023600Y019335D02*
X024120Y019335D01*
X024120Y019453D02*
X023600Y019453D01*
X023600Y019572D02*
X024120Y019572D01*
X024120Y019690D02*
X023600Y019690D01*
X023600Y019809D02*
X024120Y019809D01*
X024120Y019927D02*
X023600Y019927D01*
X023600Y020046D02*
X024120Y020046D01*
X024120Y020164D02*
X023600Y020164D01*
X023600Y020283D02*
X024120Y020283D01*
X024120Y020401D02*
X023600Y020401D01*
X023600Y020520D02*
X024120Y020520D01*
X024120Y020638D02*
X023600Y020638D01*
X023600Y020757D02*
X024120Y020757D01*
X024120Y020875D02*
X023600Y020875D01*
X023743Y020994D02*
X023977Y020994D01*
X023889Y021112D02*
X023831Y021112D01*
X023840Y021586D02*
X023880Y021586D01*
X023955Y021705D02*
X023765Y021705D01*
X023627Y021823D02*
X024093Y021823D01*
X023360Y021360D02*
X023360Y018760D01*
X023160Y018560D01*
X023001Y018861D02*
X022800Y018861D01*
X022800Y018979D02*
X023120Y018979D01*
X023120Y019098D02*
X022800Y019098D01*
X022800Y019216D02*
X023120Y019216D01*
X023120Y019335D02*
X022800Y019335D01*
X022800Y019453D02*
X023120Y019453D01*
X023120Y019572D02*
X022800Y019572D01*
X022800Y019690D02*
X023120Y019690D01*
X023120Y019809D02*
X022800Y019809D01*
X022800Y019927D02*
X023120Y019927D01*
X023120Y020046D02*
X022800Y020046D01*
X022800Y020164D02*
X023120Y020164D01*
X023120Y020283D02*
X022800Y020283D01*
X022800Y020401D02*
X023120Y020401D01*
X023120Y020520D02*
X022800Y020520D01*
X022800Y020638D02*
X023120Y020638D01*
X023120Y020757D02*
X022800Y020757D01*
X022800Y020875D02*
X023120Y020875D01*
X022977Y020994D02*
X022800Y020994D01*
X022831Y021112D02*
X022889Y021112D01*
X022880Y021586D02*
X022840Y021586D01*
X022765Y021705D02*
X022955Y021705D01*
X023093Y021823D02*
X022627Y021823D01*
X021889Y021112D02*
X021831Y021112D01*
X021743Y020994D02*
X021977Y020994D01*
X022146Y020875D02*
X021684Y020875D01*
X021803Y020757D02*
X022320Y020757D01*
X022320Y020638D02*
X021921Y020638D01*
X021995Y020520D02*
X022320Y020520D01*
X022320Y020401D02*
X022000Y020401D01*
X022000Y020283D02*
X022320Y020283D01*
X022320Y020164D02*
X022000Y020164D01*
X022000Y020046D02*
X022320Y020046D01*
X022320Y019927D02*
X022000Y019927D01*
X022000Y019809D02*
X022320Y019809D01*
X022320Y019690D02*
X022000Y019690D01*
X022000Y019572D02*
X022320Y019572D01*
X022320Y019453D02*
X022000Y019453D01*
X022000Y019335D02*
X022320Y019335D01*
X022320Y019216D02*
X022000Y019216D01*
X022000Y019098D02*
X022320Y019098D01*
X022320Y018979D02*
X022000Y018979D01*
X022000Y018861D02*
X022320Y018861D01*
X022320Y018742D02*
X022000Y018742D01*
X022000Y018624D02*
X022320Y018624D01*
X022320Y018505D02*
X022000Y018505D01*
X022000Y018387D02*
X022320Y018387D01*
X022320Y018268D02*
X022000Y018268D01*
X022000Y018150D02*
X022320Y018150D01*
X022320Y018031D02*
X022000Y018031D01*
X022000Y017913D02*
X022320Y017913D01*
X022320Y017794D02*
X022000Y017794D01*
X022000Y017676D02*
X022320Y017676D01*
X022320Y017557D02*
X022000Y017557D01*
X022000Y017439D02*
X022320Y017439D01*
X022320Y017320D02*
X022000Y017320D01*
X022000Y017202D02*
X022320Y017202D01*
X022320Y017083D02*
X022000Y017083D01*
X022000Y016965D02*
X022320Y016965D01*
X022320Y016846D02*
X022000Y016846D01*
X022000Y016728D02*
X022320Y016728D01*
X022320Y016609D02*
X022000Y016609D01*
X022000Y016491D02*
X022091Y016491D01*
X022065Y016372D02*
X022000Y016372D01*
X022000Y016254D02*
X022065Y016254D01*
X022065Y016135D02*
X022000Y016135D01*
X022000Y016017D02*
X022065Y016017D01*
X022065Y015898D02*
X022000Y015898D01*
X022000Y015780D02*
X022089Y015780D01*
X022065Y015661D02*
X022000Y015661D01*
X022000Y015543D02*
X022065Y015543D01*
X022065Y015424D02*
X022000Y015424D01*
X022000Y015306D02*
X022065Y015306D01*
X022560Y015386D02*
X023034Y015386D01*
X023360Y015060D01*
X023674Y015187D02*
X024094Y015187D01*
X023975Y015306D02*
X023593Y015306D01*
X023698Y015069D02*
X024587Y015069D01*
X024689Y014950D02*
X023681Y014950D01*
X023610Y014832D02*
X024720Y014832D01*
X025317Y014950D02*
X025621Y014950D01*
X025525Y015069D02*
X025419Y015069D01*
X025419Y015187D02*
X025525Y015187D01*
X025525Y015306D02*
X025419Y015306D01*
X025419Y015424D02*
X025525Y015424D01*
X025525Y015543D02*
X025419Y015543D01*
X025419Y015661D02*
X025525Y015661D01*
X025539Y015780D02*
X025320Y015780D01*
X025419Y015898D02*
X025525Y015898D01*
X025830Y016190D02*
X025960Y016060D01*
X026060Y016060D01*
X026020Y016100D01*
X026020Y016124D01*
X025830Y016190D02*
X025003Y016190D01*
X024587Y016135D02*
X023824Y016135D01*
X023706Y016254D02*
X024587Y016254D01*
X024587Y016372D02*
X023575Y016372D01*
X023663Y016296D02*
X023663Y016296D01*
X023943Y016017D02*
X024587Y016017D01*
X024587Y015898D02*
X024061Y015898D01*
X024180Y015780D02*
X024686Y015780D01*
X024587Y015661D02*
X024298Y015661D01*
X023857Y015424D02*
X023335Y015424D01*
X023217Y015543D02*
X023738Y015543D01*
X023620Y015661D02*
X023055Y015661D01*
X023031Y015780D02*
X023501Y015780D01*
X023383Y015898D02*
X023055Y015898D01*
X023029Y016491D02*
X024587Y016491D01*
X025419Y016491D02*
X025561Y016491D01*
X025970Y017320D02*
X023959Y017320D01*
X024078Y017439D02*
X025836Y017439D01*
X025775Y017557D02*
X024196Y017557D01*
X023592Y018031D02*
X023368Y018031D01*
X022981Y018268D02*
X022800Y018268D01*
X022800Y018387D02*
X022866Y018387D01*
X022822Y018505D02*
X022800Y018505D01*
X022800Y018624D02*
X022822Y018624D01*
X022800Y018742D02*
X022869Y018742D01*
X024660Y018360D02*
X023160Y016860D01*
X022849Y016728D02*
X022800Y016728D01*
X022800Y016846D02*
X022822Y016846D01*
X022837Y016965D02*
X022800Y016965D01*
X022800Y017083D02*
X022904Y017083D01*
X022932Y016609D02*
X022800Y016609D01*
X021520Y016372D02*
X021265Y016372D01*
X021265Y016254D02*
X021520Y016254D01*
X020355Y016017D02*
X017150Y016017D01*
X017177Y015898D02*
X020355Y015898D01*
X020372Y015780D02*
X017177Y015780D01*
X017174Y015661D02*
X020335Y015661D01*
X021428Y014832D02*
X021553Y014832D01*
X021546Y014713D02*
X021668Y014713D01*
X021665Y014595D02*
X021786Y014595D01*
X021783Y014476D02*
X021905Y014476D01*
X021902Y014358D02*
X022023Y014358D01*
X022020Y014239D02*
X022166Y014239D01*
X022139Y014121D02*
X023245Y014121D01*
X023070Y014002D02*
X022257Y014002D01*
X022376Y013884D02*
X022544Y013884D01*
X022460Y013460D02*
X021260Y012260D01*
X021229Y012260D01*
X021219Y012250D01*
X021714Y012225D02*
X022985Y012225D01*
X022988Y012343D02*
X021714Y012343D01*
X021801Y012462D02*
X023037Y012462D01*
X023028Y012580D02*
X021919Y012580D01*
X022038Y012699D02*
X022985Y012699D01*
X022985Y012817D02*
X022156Y012817D01*
X022275Y012936D02*
X023026Y012936D01*
X023070Y013054D02*
X022393Y013054D01*
X022512Y013173D02*
X023015Y013173D01*
X023005Y013291D02*
X022630Y013291D01*
X022663Y013324D02*
X022663Y013324D01*
X022596Y013257D02*
X022596Y013257D01*
X022749Y013410D02*
X023037Y013410D01*
X024053Y013054D02*
X024115Y013054D01*
X024108Y013173D02*
X024220Y013173D01*
X024220Y013291D02*
X024118Y013291D01*
X025164Y012225D02*
X027655Y012225D01*
X027655Y012343D02*
X025282Y012343D01*
X025045Y012106D02*
X027655Y012106D01*
X027655Y011988D02*
X024927Y011988D01*
X024808Y011869D02*
X027655Y011869D01*
X027655Y011751D02*
X024709Y011751D01*
X024827Y011632D02*
X027655Y011632D01*
X027655Y011514D02*
X024946Y011514D01*
X025064Y011395D02*
X027655Y011395D01*
X027655Y011277D02*
X025172Y011277D01*
X025200Y011158D02*
X027655Y011158D01*
X027655Y011040D02*
X025200Y011040D01*
X025200Y010921D02*
X027655Y010921D01*
X027655Y010803D02*
X025200Y010803D01*
X025200Y010684D02*
X027655Y010684D01*
X027655Y010566D02*
X025200Y010566D01*
X025200Y010447D02*
X027655Y010447D01*
X027655Y010329D02*
X025200Y010329D01*
X025200Y010210D02*
X027655Y010210D01*
X027655Y010092D02*
X025200Y010092D01*
X025200Y009973D02*
X027655Y009973D01*
X027655Y009855D02*
X025200Y009855D01*
X025200Y009736D02*
X027655Y009736D01*
X027655Y009618D02*
X025200Y009618D01*
X025200Y009499D02*
X027731Y009499D01*
X024960Y009260D02*
X024289Y008589D01*
X016784Y008589D01*
X016784Y009089D02*
X015889Y009089D01*
X016784Y009589D02*
X017889Y009589D01*
X018181Y009855D02*
X021415Y009855D01*
X021534Y009973D02*
X017364Y009973D01*
X017364Y010092D02*
X021652Y010092D01*
X021771Y010210D02*
X017364Y010210D01*
X017330Y010329D02*
X021889Y010329D01*
X022008Y010447D02*
X017364Y010447D01*
X017364Y010566D02*
X018215Y010566D01*
X018097Y010684D02*
X017364Y010684D01*
X016789Y011158D02*
X016779Y011158D01*
X016779Y011094D02*
X016779Y011379D01*
X016363Y011379D01*
X016322Y011369D01*
X016286Y011347D01*
X016256Y011318D01*
X016235Y011281D01*
X016224Y011240D01*
X016224Y011094D01*
X016779Y011094D01*
X016779Y011277D02*
X016789Y011277D01*
X016234Y011277D02*
X015783Y011277D01*
X015901Y011158D02*
X016224Y011158D01*
X016224Y011040D02*
X016020Y011040D01*
X016138Y010921D02*
X016229Y010921D01*
X014364Y011089D02*
X013431Y011089D01*
X013360Y011160D01*
X013120Y010921D02*
X012700Y010921D01*
X012700Y011040D02*
X013044Y011040D01*
X013022Y011158D02*
X012700Y011158D01*
X012700Y011277D02*
X013042Y011277D01*
X013116Y011395D02*
X012700Y011395D01*
X012757Y010803D02*
X013793Y010803D01*
X013784Y010684D02*
X012875Y010684D01*
X012994Y010566D02*
X013784Y010566D01*
X013784Y010447D02*
X013112Y010447D01*
X013604Y011395D02*
X013885Y011395D01*
X011652Y009736D02*
X011545Y009736D01*
X011545Y009618D02*
X011652Y009618D01*
X011652Y009499D02*
X011609Y009499D01*
X010420Y011751D02*
X010300Y011751D01*
X010300Y011869D02*
X010420Y011869D01*
X010420Y011988D02*
X010300Y011988D01*
X010300Y012106D02*
X010420Y012106D01*
X010420Y012225D02*
X010300Y012225D01*
X010300Y012343D02*
X010420Y012343D01*
X008184Y010803D02*
X006347Y010803D01*
X006448Y010684D02*
X008066Y010684D01*
X007117Y010566D02*
X006493Y010566D01*
X006493Y010447D02*
X007117Y010447D01*
X007117Y010329D02*
X006452Y010329D01*
X006358Y010210D02*
X007117Y010210D01*
X007117Y010092D02*
X005182Y010092D01*
X005182Y010210D02*
X005874Y010210D01*
X005779Y010329D02*
X005182Y010329D01*
X005182Y010447D02*
X005739Y010447D01*
X005739Y010566D02*
X005182Y010566D01*
X005182Y009973D02*
X007117Y009973D01*
X007117Y009855D02*
X005182Y009855D01*
X005182Y009736D02*
X007117Y009736D01*
X007117Y009618D02*
X005242Y009618D01*
X005360Y009499D02*
X007117Y009499D01*
X011470Y005944D02*
X011887Y005944D01*
X012006Y005826D02*
X011545Y005826D01*
X011545Y005707D02*
X012124Y005707D01*
X012243Y005589D02*
X011545Y005589D01*
X011335Y005253D02*
X010842Y004760D01*
X008303Y004760D01*
X008373Y004285D02*
X008506Y004285D01*
X008391Y004167D02*
X008373Y004167D01*
X008373Y003574D02*
X008393Y003574D01*
X008373Y003456D02*
X008511Y003456D01*
X009175Y003456D02*
X009511Y003456D01*
X009393Y003574D02*
X009293Y003574D01*
X009342Y003693D02*
X009344Y003693D01*
X009295Y004167D02*
X009391Y004167D01*
X009506Y004285D02*
X009180Y004285D01*
X010180Y004285D02*
X010506Y004285D01*
X010391Y004167D02*
X010295Y004167D01*
X010342Y003693D02*
X010344Y003693D01*
X010393Y003574D02*
X010293Y003574D01*
X010175Y003456D02*
X010511Y003456D01*
X011175Y003456D02*
X011511Y003456D01*
X011393Y003574D02*
X011293Y003574D01*
X011342Y003693D02*
X011344Y003693D01*
X011295Y004167D02*
X011391Y004167D01*
X011506Y004285D02*
X011180Y004285D01*
X010895Y004522D02*
X018255Y004522D01*
X019056Y004522D02*
X020351Y004522D01*
X020233Y004641D02*
X011062Y004641D01*
X011181Y004759D02*
X020114Y004759D01*
X019996Y004878D02*
X011299Y004878D01*
X011451Y004996D02*
X019877Y004996D01*
X019960Y005253D02*
X011335Y005253D01*
X011109Y005479D01*
X012577Y005594D02*
X020106Y005594D01*
X022616Y003084D01*
X023797Y003084D01*
X024360Y002521D01*
X024848Y002152D02*
X024872Y002152D01*
X024937Y002034D02*
X024783Y002034D01*
X024665Y001915D02*
X025055Y001915D01*
X024055Y001915D02*
X023870Y001915D01*
X023890Y002034D02*
X023937Y002034D01*
X023360Y002360D02*
X022853Y002360D01*
X019960Y005253D01*
X020583Y005944D02*
X026020Y005944D01*
X026020Y005826D02*
X020702Y005826D01*
X020820Y005707D02*
X026020Y005707D01*
X026020Y005589D02*
X020939Y005589D01*
X021057Y005470D02*
X026020Y005470D01*
X026020Y005352D02*
X021176Y005352D01*
X021294Y005233D02*
X026020Y005233D01*
X026020Y005115D02*
X021413Y005115D01*
X021531Y004996D02*
X026020Y004996D01*
X026020Y004878D02*
X021650Y004878D01*
X021768Y004759D02*
X026020Y004759D01*
X026020Y004641D02*
X021887Y004641D01*
X022005Y004522D02*
X026020Y004522D01*
X025940Y004404D02*
X025877Y004404D01*
X025560Y003960D02*
X025560Y003946D01*
X025535Y003921D01*
X025560Y003960D02*
X025460Y003860D01*
X024360Y003860D01*
X024216Y004167D02*
X022361Y004167D01*
X022242Y004285D02*
X025099Y004285D01*
X025099Y004167D02*
X024504Y004167D01*
X024072Y004048D02*
X022479Y004048D01*
X022598Y003930D02*
X024022Y003930D01*
X024022Y003811D02*
X022716Y003811D01*
X022835Y003693D02*
X024063Y003693D01*
X025192Y004404D02*
X022124Y004404D01*
X021299Y003574D02*
X019313Y003574D01*
X019362Y003693D02*
X021181Y003693D01*
X021062Y003811D02*
X019386Y003811D01*
X019386Y003930D02*
X020944Y003930D01*
X020825Y004048D02*
X019384Y004048D01*
X019335Y004167D02*
X020707Y004167D01*
X020588Y004285D02*
X019286Y004285D01*
X019182Y004404D02*
X020470Y004404D01*
X021418Y003456D02*
X019248Y003456D01*
X019130Y003337D02*
X021536Y003337D01*
X021655Y003219D02*
X018929Y003219D01*
X021531Y002863D02*
X022010Y002863D01*
X022129Y002745D02*
X021725Y002745D01*
X021823Y002626D02*
X022247Y002626D01*
X022366Y002508D02*
X021873Y002508D01*
X021890Y002389D02*
X022484Y002389D01*
X022603Y002271D02*
X021890Y002271D01*
X021848Y002152D02*
X022728Y002152D01*
X022830Y002034D02*
X021783Y002034D01*
X021665Y001915D02*
X022850Y001915D01*
X026260Y003960D02*
X026299Y003921D01*
X026719Y003930D02*
X028662Y003930D01*
X028613Y004048D02*
X026719Y004048D01*
X026719Y004167D02*
X028563Y004167D01*
X028550Y004285D02*
X026719Y004285D01*
X026625Y004404D02*
X028550Y004404D01*
X028550Y004522D02*
X026500Y004522D01*
X026500Y004641D02*
X028600Y004641D01*
X028649Y004759D02*
X026500Y004759D01*
X026500Y004878D02*
X028732Y004878D01*
X028851Y004996D02*
X026500Y004996D01*
X026500Y005115D02*
X029065Y005115D01*
X029655Y005115D02*
X030155Y005115D01*
X030155Y005233D02*
X026500Y005233D01*
X026020Y006063D02*
X020465Y006063D01*
X021602Y009381D02*
X024720Y009381D01*
X024720Y009499D02*
X021738Y009499D01*
X021857Y009618D02*
X024720Y009618D01*
X024720Y009736D02*
X021975Y009736D01*
X022126Y010566D02*
X021305Y010566D01*
X021423Y010684D02*
X022245Y010684D01*
X022363Y010803D02*
X021542Y010803D01*
X021660Y010921D02*
X022482Y010921D01*
X022082Y011988D02*
X021714Y011988D01*
X021714Y012106D02*
X023017Y012106D01*
X024049Y011514D02*
X024267Y011514D01*
X024360Y011760D02*
X024960Y011160D01*
X024960Y009260D01*
X027113Y006774D02*
X029007Y006774D01*
X029176Y005944D02*
X029275Y005944D01*
X029869Y004996D02*
X030155Y004996D01*
X030155Y004878D02*
X029988Y004878D01*
X030071Y004759D02*
X030155Y004759D01*
X030155Y004641D02*
X030120Y004641D01*
X030107Y004048D02*
X030155Y004048D01*
X030155Y003930D02*
X030058Y003930D01*
X030155Y003811D02*
X029956Y003811D01*
X029838Y003693D02*
X030155Y003693D01*
X030155Y003574D02*
X029579Y003574D01*
X029141Y003574D02*
X026719Y003574D01*
X026719Y003693D02*
X028882Y003693D01*
X028764Y003811D02*
X026719Y003811D01*
X026643Y003456D02*
X030155Y003456D01*
X030047Y003337D02*
X026600Y003337D01*
X026600Y003219D02*
X029929Y003219D01*
X029810Y003100D02*
X026600Y003100D01*
X026600Y002982D02*
X029692Y002982D01*
X027189Y002863D02*
X026600Y002863D01*
X026725Y002745D02*
X026995Y002745D01*
X026897Y002626D02*
X026823Y002626D01*
X014862Y003456D02*
X014824Y003456D01*
X014824Y003574D02*
X014862Y003574D01*
X014862Y003693D02*
X014824Y003693D01*
X014824Y003811D02*
X014862Y003811D01*
X014862Y003930D02*
X014824Y003930D01*
X014824Y004048D02*
X014862Y004048D01*
X014862Y004167D02*
X014824Y004167D01*
X014824Y004285D02*
X014862Y004285D01*
X014543Y004285D02*
X014180Y004285D01*
X014295Y004167D02*
X014426Y004167D01*
X014364Y004048D02*
X014344Y004048D01*
X014342Y003693D02*
X014365Y003693D01*
X014430Y003574D02*
X014293Y003574D01*
X014175Y003456D02*
X014550Y003456D01*
X013511Y003456D02*
X013175Y003456D01*
X013293Y003574D02*
X013393Y003574D01*
X013344Y003693D02*
X013342Y003693D01*
X013295Y004167D02*
X013391Y004167D01*
X013506Y004285D02*
X013180Y004285D01*
X012506Y004285D02*
X012180Y004285D01*
X012295Y004167D02*
X012391Y004167D01*
X012342Y003693D02*
X012344Y003693D01*
X012393Y003574D02*
X012293Y003574D01*
X012175Y003456D02*
X012511Y003456D01*
X013800Y013291D02*
X013950Y013291D01*
X013856Y013410D02*
X013800Y013410D01*
X013800Y013528D02*
X013822Y013528D01*
X013830Y013647D02*
X013800Y013647D01*
X013800Y013765D02*
X013886Y013765D01*
X013800Y013884D02*
X014057Y013884D01*
X014263Y014002D02*
X013800Y014002D01*
X013800Y014121D02*
X013923Y014121D01*
X013923Y014239D02*
X013800Y014239D01*
X013800Y014358D02*
X013923Y014358D01*
X013923Y014476D02*
X013800Y014476D01*
X013800Y014595D02*
X013946Y014595D01*
X013923Y014713D02*
X013800Y014713D01*
X013800Y014832D02*
X013923Y014832D01*
X013923Y014950D02*
X013889Y014950D01*
X013910Y015310D02*
X013760Y015460D01*
X013760Y020360D01*
X013740Y020875D02*
X013780Y020875D01*
X013780Y020994D02*
X013740Y020994D01*
X013740Y021112D02*
X013780Y021112D01*
X013780Y021231D02*
X013740Y021231D01*
X013602Y020875D02*
X012974Y020875D01*
X013143Y020994D02*
X013405Y020994D01*
X013314Y021112D02*
X013231Y021112D01*
X013918Y020875D02*
X013936Y020875D01*
X014496Y020757D02*
X015817Y020757D01*
X017974Y020875D02*
X018546Y020875D01*
X018377Y020994D02*
X018143Y020994D01*
X018231Y021112D02*
X018289Y021112D01*
X018760Y021360D02*
X018760Y021560D01*
X018360Y021960D01*
X011760Y021960D01*
X011370Y019453D02*
X013520Y019453D01*
X013520Y019335D02*
X011370Y019335D01*
X011370Y019216D02*
X013520Y019216D01*
X013520Y019098D02*
X011297Y019098D01*
X010571Y019098D02*
X010549Y019098D01*
X010371Y017320D02*
X010251Y017320D01*
X010251Y017202D02*
X010371Y017202D01*
X010371Y017083D02*
X010251Y017083D01*
X010251Y016965D02*
X010371Y016965D01*
X010371Y016609D02*
X010251Y016609D01*
X010251Y016491D02*
X010371Y016491D01*
X010371Y016372D02*
X010251Y016372D01*
X010251Y016254D02*
X010371Y016254D01*
X010371Y016135D02*
X010251Y016135D01*
X011735Y015424D02*
X012220Y015424D01*
X012220Y015306D02*
X011854Y015306D01*
X011972Y015187D02*
X012220Y015187D01*
X012220Y015069D02*
X012075Y015069D01*
X012100Y014950D02*
X012220Y014950D01*
X012220Y014832D02*
X012100Y014832D01*
X012100Y014713D02*
X012220Y014713D01*
X012220Y014595D02*
X012100Y014595D01*
X012100Y014476D02*
X012220Y014476D01*
X016584Y015661D02*
X016584Y015661D01*
X016584Y015780D02*
X016584Y015780D01*
X016584Y015810D02*
X016584Y015810D01*
X016584Y015898D02*
X016584Y015898D01*
X016584Y016017D02*
X016584Y016017D01*
X017148Y015069D02*
X018373Y015069D01*
X018309Y014950D02*
X018524Y014950D01*
X024660Y018360D02*
X024660Y020460D01*
X025360Y021160D01*
X025360Y021360D01*
X025296Y020757D02*
X029155Y020757D01*
X029155Y020875D02*
X028830Y020875D01*
X028890Y020994D02*
X029155Y020994D01*
X029155Y021112D02*
X028890Y021112D01*
X028890Y021231D02*
X029155Y021231D01*
X029155Y021349D02*
X028890Y021349D01*
X028890Y021468D02*
X029155Y021468D01*
X029155Y021586D02*
X028890Y021586D01*
X028890Y021705D02*
X029126Y021705D01*
X029007Y021823D02*
X028852Y021823D01*
X028889Y021942D02*
X018718Y021942D01*
X018599Y022060D02*
X028770Y022060D01*
X027868Y021823D02*
X027627Y021823D01*
X027765Y021705D02*
X027830Y021705D01*
X027093Y021823D02*
X026627Y021823D01*
X026765Y021705D02*
X026955Y021705D01*
X026880Y021586D02*
X026840Y021586D01*
X026831Y021112D02*
X026889Y021112D01*
X026977Y020994D02*
X026743Y020994D01*
X026574Y020875D02*
X027146Y020875D01*
X027574Y020875D02*
X027890Y020875D01*
X027830Y020994D02*
X027743Y020994D01*
X026588Y020401D02*
X029155Y020401D01*
X029155Y020283D02*
X026610Y020283D01*
X026610Y020164D02*
X029155Y020164D01*
X029155Y020046D02*
X026610Y020046D01*
X026610Y019927D02*
X029155Y019927D01*
X029155Y019809D02*
X026610Y019809D01*
X026585Y019690D02*
X029155Y019690D01*
X029155Y019572D02*
X026480Y019572D01*
X026566Y019453D02*
X029155Y019453D01*
X029155Y019335D02*
X026610Y019335D01*
X026610Y019216D02*
X029155Y019216D01*
X029155Y019098D02*
X026579Y019098D01*
X026510Y018979D02*
X029155Y018979D01*
X029155Y018861D02*
X026379Y018861D01*
X026522Y018742D02*
X029155Y018742D01*
X029155Y018624D02*
X026584Y018624D01*
X026610Y018505D02*
X029155Y018505D01*
X029155Y018387D02*
X026610Y018387D01*
X026561Y018268D02*
X029155Y018268D01*
X029155Y018150D02*
X026468Y018150D01*
X026407Y018031D02*
X029155Y018031D01*
X029155Y017913D02*
X026523Y017913D01*
X026191Y017557D02*
X026154Y017557D01*
X026154Y017439D02*
X026191Y017439D01*
X026191Y017320D02*
X026154Y017320D01*
X025059Y020520D02*
X029155Y020520D01*
X029155Y020638D02*
X025177Y020638D01*
X019290Y020875D02*
X018974Y020875D01*
X019143Y020994D02*
X019230Y020994D01*
X019230Y021705D02*
X019165Y021705D01*
X019268Y021823D02*
X019027Y021823D01*
D30*
X016760Y019660D03*
X014160Y019660D03*
X013060Y018460D03*
X012460Y017760D03*
X009560Y017360D03*
X006917Y016519D03*
X009560Y013860D03*
X009560Y012960D03*
X006917Y011795D03*
X009560Y009760D03*
X009560Y008560D03*
X006917Y007071D03*
X009660Y005160D03*
X006917Y003626D03*
X013060Y007060D03*
X015060Y006660D03*
X015660Y006260D03*
X016060Y006660D03*
X017960Y007160D03*
X017960Y009597D03*
X019460Y011660D03*
X017960Y012860D03*
X018460Y014460D03*
X018660Y015260D03*
X015760Y011960D03*
X014160Y013560D03*
X013360Y011160D03*
X012460Y009760D03*
X013060Y009060D03*
X021160Y009060D03*
X023760Y007760D03*
X028060Y007660D03*
X024360Y003860D03*
X025460Y013860D03*
X024060Y015060D03*
X023360Y015060D03*
X023160Y016860D03*
X023160Y017760D03*
X023160Y018560D03*
X007860Y019360D03*
D31*
X010348Y015398D02*
X010360Y015299D01*
X010311Y015349D02*
X010348Y015398D01*
X008679Y015299D02*
X008679Y015298D01*
X008641Y015260D01*
X007736Y014636D02*
X007592Y014636D01*
X004608Y014636D02*
X004484Y014636D01*
X008679Y010610D02*
X008679Y010609D01*
X008748Y010560D01*
X007769Y010048D02*
X007592Y010009D01*
X010151Y011089D02*
X010293Y010824D01*
X010360Y010757D01*
X010293Y010824D02*
X010391Y010641D01*
X010360Y010610D01*
X010360Y010990D02*
X010151Y011089D01*
X010360Y009860D02*
X010361Y009860D01*
X008787Y007956D02*
X008492Y007956D01*
X008669Y007870D02*
X008679Y007880D01*
X008669Y007870D02*
X008787Y007956D01*
X010235Y006480D02*
X010362Y006215D01*
X010235Y006480D02*
X010360Y006596D01*
X008801Y006218D02*
X008679Y006215D01*
X008760Y006259D02*
X008801Y006218D01*
X008760Y006259D02*
X008760Y006260D01*
X008481Y006260D01*
X007592Y005319D02*
X007540Y005319D01*
X004860Y005360D02*
X004442Y005360D01*
X004401Y005319D01*
X004608Y005319D01*
X004608Y010009D02*
X004511Y010009D01*
X011838Y013276D02*
X011905Y013211D01*
X011838Y013276D02*
X011838Y013317D01*
X011838Y013360D01*
X011905Y013959D02*
X011905Y014115D01*
X011860Y014160D01*
X024360Y002521D02*
X024360Y002360D01*
M02*
