G75*
G70*
%OFA0B0*%
%FSLAX24Y24*%
%IPPOS*%
%LPD*%
%AMOC8*
5,1,8,0,0,1.08239X$1,22.5*
%
%ADD10C,0.0120*%
%ADD11C,0.0100*%
%ADD12C,0.0140*%
%ADD13C,0.0060*%
%ADD14C,0.0050*%
%ADD15C,0.0080*%
%ADD16R,0.0200X0.0100*%
%ADD17C,0.0150*%
%ADD18C,0.0160*%
%ADD19C,0.0040*%
%ADD20R,0.0200X0.0400*%
%ADD21R,0.0400X0.0200*%
%ADD22C,0.0070*%
%ADD23R,0.0340X0.0300*%
%ADD24C,0.0118*%
%ADD25C,0.0010*%
%ADD26R,0.0048X0.0006*%
%ADD27R,0.0048X0.0006*%
%ADD28R,0.0042X0.0006*%
%ADD29R,0.0042X0.0006*%
%ADD30R,0.0042X0.0006*%
%ADD31R,0.0042X0.0006*%
%ADD32R,0.0090X0.0006*%
%ADD33R,0.0066X0.0006*%
%ADD34R,0.0048X0.0006*%
%ADD35R,0.0162X0.0006*%
%ADD36R,0.0054X0.0006*%
%ADD37R,0.0048X0.0006*%
%ADD38R,0.0156X0.0006*%
%ADD39R,0.0072X0.0006*%
%ADD40R,0.0108X0.0006*%
%ADD41R,0.0198X0.0006*%
%ADD42R,0.0054X0.0006*%
%ADD43R,0.0180X0.0006*%
%ADD44R,0.0192X0.0006*%
%ADD45R,0.0198X0.0006*%
%ADD46R,0.0108X0.0006*%
%ADD47R,0.0066X0.0006*%
%ADD48R,0.0192X0.0006*%
%ADD49R,0.0204X0.0006*%
%ADD50R,0.0084X0.0006*%
%ADD51R,0.0072X0.0006*%
%ADD52R,0.0078X0.0006*%
%ADD53R,0.0072X0.0006*%
%ADD54R,0.0036X0.0006*%
%ADD55R,0.0036X0.0006*%
%ADD56R,0.0036X0.0006*%
%ADD57R,0.0126X0.0006*%
%ADD58R,0.0228X0.0006*%
%ADD59R,0.0186X0.0006*%
%ADD60R,0.0198X0.0006*%
%ADD61R,0.0252X0.0006*%
%ADD62R,0.0306X0.0006*%
%ADD63R,0.0318X0.0006*%
%ADD64R,0.0342X0.0006*%
%ADD65R,0.0354X0.0006*%
%ADD66R,0.0384X0.0006*%
%ADD67R,0.0402X0.0006*%
%ADD68R,0.0420X0.0006*%
%ADD69R,0.0150X0.0006*%
%ADD70R,0.0432X0.0006*%
%ADD71R,0.0450X0.0006*%
%ADD72R,0.0150X0.0006*%
%ADD73R,0.0054X0.0006*%
%ADD74R,0.0060X0.0006*%
%ADD75R,0.0162X0.0006*%
%ADD76R,0.0462X0.0006*%
%ADD77R,0.0480X0.0006*%
%ADD78R,0.0486X0.0006*%
%ADD79R,0.0492X0.0006*%
%ADD80R,0.0504X0.0006*%
%ADD81R,0.0516X0.0006*%
%ADD82R,0.0534X0.0006*%
%ADD83R,0.0540X0.0006*%
%ADD84R,0.0552X0.0006*%
%ADD85R,0.0552X0.0006*%
%ADD86R,0.0564X0.0006*%
%ADD87R,0.0570X0.0006*%
%ADD88R,0.0576X0.0006*%
%ADD89R,0.0582X0.0006*%
%ADD90R,0.0006X0.0006*%
%ADD91R,0.0594X0.0006*%
%ADD92R,0.0084X0.0006*%
%ADD93R,0.0600X0.0006*%
%ADD94R,0.0612X0.0006*%
%ADD95R,0.0012X0.0006*%
%ADD96R,0.0246X0.0006*%
%ADD97R,0.0300X0.0006*%
%ADD98R,0.0618X0.0006*%
%ADD99R,0.0324X0.0006*%
%ADD100R,0.0624X0.0006*%
%ADD101R,0.0330X0.0006*%
%ADD102R,0.0630X0.0006*%
%ADD103R,0.0348X0.0006*%
%ADD104R,0.0360X0.0006*%
%ADD105R,0.0642X0.0006*%
%ADD106R,0.0378X0.0006*%
%ADD107R,0.0648X0.0006*%
%ADD108R,0.0396X0.0006*%
%ADD109R,0.0648X0.0006*%
%ADD110R,0.0396X0.0006*%
%ADD111R,0.0660X0.0006*%
%ADD112R,0.0408X0.0006*%
%ADD113R,0.0666X0.0006*%
%ADD114R,0.0414X0.0006*%
%ADD115R,0.0672X0.0006*%
%ADD116R,0.0672X0.0006*%
%ADD117R,0.0420X0.0006*%
%ADD118R,0.0678X0.0006*%
%ADD119R,0.0426X0.0006*%
%ADD120R,0.0312X0.0006*%
%ADD121R,0.0294X0.0006*%
%ADD122R,0.0084X0.0006*%
%ADD123R,0.0078X0.0006*%
%ADD124R,0.0102X0.0006*%
%ADD125R,0.0390X0.0006*%
%ADD126R,0.0096X0.0006*%
%ADD127R,0.0138X0.0006*%
%ADD128R,0.0684X0.0006*%
%ADD129R,0.0432X0.0006*%
%ADD130R,0.0354X0.0006*%
%ADD131R,0.0090X0.0006*%
%ADD132R,0.0138X0.0006*%
%ADD133R,0.0438X0.0006*%
%ADD134R,0.0696X0.0006*%
%ADD135R,0.0444X0.0006*%
%ADD136R,0.0408X0.0006*%
%ADD137R,0.0390X0.0006*%
%ADD138R,0.0084X0.0006*%
%ADD139R,0.0078X0.0006*%
%ADD140R,0.0432X0.0006*%
%ADD141R,0.0102X0.0006*%
%ADD142R,0.0096X0.0006*%
%ADD143R,0.0132X0.0006*%
%ADD144R,0.0696X0.0006*%
%ADD145R,0.0450X0.0006*%
%ADD146R,0.0438X0.0006*%
%ADD147R,0.0702X0.0006*%
%ADD148R,0.0444X0.0006*%
%ADD149R,0.0102X0.0006*%
%ADD150R,0.0708X0.0006*%
%ADD151R,0.0456X0.0006*%
%ADD152R,0.0114X0.0006*%
%ADD153R,0.0462X0.0006*%
%ADD154R,0.0096X0.0006*%
%ADD155R,0.0132X0.0006*%
%ADD156R,0.0708X0.0006*%
%ADD157R,0.0456X0.0006*%
%ADD158R,0.0456X0.0006*%
%ADD159R,0.0120X0.0006*%
%ADD160R,0.0462X0.0006*%
%ADD161R,0.0102X0.0006*%
%ADD162R,0.0138X0.0006*%
%ADD163R,0.0426X0.0006*%
%ADD164R,0.0468X0.0006*%
%ADD165R,0.0468X0.0006*%
%ADD166R,0.0132X0.0006*%
%ADD167R,0.0168X0.0006*%
%ADD168R,0.0474X0.0006*%
%ADD169R,0.0456X0.0006*%
%ADD170R,0.0162X0.0006*%
%ADD171R,0.0144X0.0006*%
%ADD172R,0.0444X0.0006*%
%ADD173R,0.0474X0.0006*%
%ADD174R,0.0486X0.0006*%
%ADD175R,0.0138X0.0006*%
%ADD176R,0.0144X0.0006*%
%ADD177R,0.0336X0.0006*%
%ADD178R,0.0498X0.0006*%
%ADD179R,0.0168X0.0006*%
%ADD180R,0.0330X0.0006*%
%ADD181R,0.0174X0.0006*%
%ADD182R,0.0288X0.0006*%
%ADD183R,0.0126X0.0006*%
%ADD184R,0.0486X0.0006*%
%ADD185R,0.0402X0.0006*%
%ADD186R,0.0132X0.0006*%
%ADD187R,0.0252X0.0006*%
%ADD188R,0.0120X0.0006*%
%ADD189R,0.0492X0.0006*%
%ADD190R,0.0240X0.0006*%
%ADD191R,0.0114X0.0006*%
%ADD192R,0.0228X0.0006*%
%ADD193R,0.0204X0.0006*%
%ADD194R,0.0126X0.0006*%
%ADD195R,0.0216X0.0006*%
%ADD196R,0.0378X0.0006*%
%ADD197R,0.0198X0.0006*%
%ADD198R,0.0492X0.0006*%
%ADD199R,0.0366X0.0006*%
%ADD200R,0.0366X0.0006*%
%ADD201R,0.0156X0.0006*%
%ADD202R,0.0348X0.0006*%
%ADD203R,0.0498X0.0006*%
%ADD204R,0.0108X0.0006*%
%ADD205R,0.0264X0.0006*%
%ADD206R,0.0222X0.0006*%
%ADD207R,0.0504X0.0006*%
%ADD208R,0.0264X0.0006*%
%ADD209R,0.0060X0.0006*%
%ADD210R,0.0510X0.0006*%
%ADD211R,0.0066X0.0006*%
%ADD212R,0.0054X0.0006*%
%ADD213R,0.0510X0.0006*%
%ADD214R,0.0108X0.0006*%
%ADD215R,0.0192X0.0006*%
%ADD216R,0.0288X0.0006*%
%ADD217R,0.0030X0.0006*%
%ADD218R,0.0180X0.0006*%
%ADD219R,0.0270X0.0006*%
%ADD220R,0.0480X0.0006*%
%ADD221R,0.0078X0.0006*%
%ADD222R,0.0114X0.0006*%
%ADD223R,0.0024X0.0006*%
%ADD224R,0.0174X0.0006*%
%ADD225R,0.0018X0.0006*%
%ADD226R,0.0210X0.0006*%
%ADD227R,0.0258X0.0006*%
%ADD228R,0.0234X0.0006*%
%ADD229R,0.0252X0.0006*%
%ADD230R,0.0012X0.0006*%
%ADD231R,0.0258X0.0006*%
%ADD232R,0.0270X0.0006*%
%ADD233R,0.0012X0.0006*%
%ADD234R,0.0282X0.0006*%
%ADD235R,0.0186X0.0006*%
%ADD236R,0.0312X0.0006*%
%ADD237R,0.0360X0.0006*%
%ADD238R,0.0276X0.0006*%
%ADD239R,0.0468X0.0006*%
%ADD240R,0.0282X0.0006*%
%ADD241R,0.0144X0.0006*%
%ADD242R,0.0474X0.0006*%
%ADD243R,0.0438X0.0006*%
%ADD244R,0.0126X0.0006*%
%ADD245R,0.0486X0.0006*%
%ADD246R,0.0528X0.0006*%
%ADD247R,0.0534X0.0006*%
%ADD248R,0.0516X0.0006*%
%ADD249R,0.0306X0.0006*%
%ADD250R,0.0492X0.0006*%
%ADD251R,0.0546X0.0006*%
%ADD252R,0.0522X0.0006*%
%ADD253R,0.0306X0.0006*%
%ADD254R,0.0534X0.0006*%
%ADD255R,0.0558X0.0006*%
%ADD256R,0.0570X0.0006*%
%ADD257R,0.0540X0.0006*%
%ADD258R,0.0318X0.0006*%
%ADD259R,0.0546X0.0006*%
%ADD260R,0.0324X0.0006*%
%ADD261R,0.0588X0.0006*%
%ADD262R,0.0600X0.0006*%
%ADD263R,0.0558X0.0006*%
%ADD264R,0.0324X0.0006*%
%ADD265R,0.0462X0.0006*%
%ADD266R,0.0612X0.0006*%
%ADD267R,0.0366X0.0006*%
%ADD268R,0.0588X0.0006*%
%ADD269R,0.0576X0.0006*%
%ADD270R,0.0246X0.0006*%
%ADD271R,0.0234X0.0006*%
%ADD272R,0.0006X0.0006*%
%ADD273R,0.0552X0.0006*%
%ADD274R,0.0222X0.0006*%
%ADD275R,0.0234X0.0006*%
%ADD276R,0.0024X0.0006*%
%ADD277R,0.0336X0.0006*%
%ADD278R,0.0504X0.0006*%
%ADD279R,0.0228X0.0006*%
%ADD280R,0.0216X0.0006*%
%ADD281R,0.0336X0.0006*%
%ADD282R,0.0498X0.0006*%
%ADD283R,0.0228X0.0006*%
%ADD284R,0.0030X0.0006*%
%ADD285R,0.0222X0.0006*%
%ADD286R,0.0024X0.0006*%
%ADD287R,0.0396X0.0006*%
%ADD288R,0.0384X0.0006*%
%ADD289R,0.0498X0.0006*%
%ADD290R,0.0372X0.0006*%
%ADD291R,0.0318X0.0006*%
%ADD292R,0.0306X0.0006*%
%ADD293R,0.0534X0.0006*%
%ADD294R,0.0528X0.0006*%
%ADD295R,0.0522X0.0006*%
%ADD296R,0.0282X0.0006*%
%ADD297R,0.0300X0.0006*%
%ADD298R,0.0024X0.0006*%
%ADD299R,0.0186X0.0006*%
%ADD300R,0.0216X0.0006*%
%ADD301R,0.0414X0.0006*%
%ADD302R,0.0012X0.0006*%
%ADD303R,0.0240X0.0006*%
%ADD304R,0.0408X0.0006*%
%ADD305R,0.0276X0.0006*%
%ADD306R,0.0378X0.0006*%
%ADD307R,0.0372X0.0006*%
%ADD308R,0.0342X0.0006*%
%ADD309R,0.0018X0.0006*%
%ADD310R,0.0342X0.0006*%
%ADD311R,0.0438X0.0006*%
%ADD312R,0.0402X0.0006*%
%ADD313R,0.0366X0.0006*%
%ADD314R,0.0174X0.0006*%
%ADD315R,0.0324X0.0006*%
%ADD316R,0.0156X0.0006*%
%ADD317R,0.0294X0.0006*%
%ADD318R,0.0162X0.0006*%
%ADD319R,0.0288X0.0006*%
%ADD320R,0.0186X0.0006*%
%ADD321R,0.0258X0.0006*%
%ADD322R,0.0264X0.0006*%
%ADD323R,0.0522X0.0006*%
%ADD324R,0.0204X0.0006*%
%ADD325R,0.0432X0.0006*%
%ADD326R,0.0216X0.0006*%
%ADD327R,0.0222X0.0006*%
%ADD328R,0.0156X0.0006*%
%ADD329R,0.0168X0.0006*%
%ADD330R,0.0468X0.0006*%
%ADD331R,0.0258X0.0006*%
D10*
X002140Y001150D02*
X002140Y001550D01*
X001940Y001350D02*
X002340Y001350D01*
X002640Y001350D02*
X003040Y001350D01*
X003140Y001350D01*
X002890Y001100D02*
X002917Y001075D01*
X002947Y001053D01*
X002979Y001035D01*
X003013Y001020D01*
X003048Y001008D01*
X003085Y001000D01*
X003121Y000996D01*
X003159Y000996D01*
X003195Y001000D01*
X003232Y001008D01*
X003267Y001020D01*
X003301Y001035D01*
X003333Y001053D01*
X003363Y001075D01*
X003390Y001100D01*
X003415Y001127D01*
X003437Y001157D01*
X003455Y001189D01*
X003470Y001223D01*
X003482Y001258D01*
X003490Y001295D01*
X003494Y001331D01*
X003494Y001369D01*
X003490Y001405D01*
X003482Y001442D01*
X003470Y001477D01*
X003455Y001511D01*
X003437Y001543D01*
X003415Y001573D01*
X003390Y001600D01*
X003363Y001625D01*
X003333Y001647D01*
X003301Y001665D01*
X003267Y001680D01*
X003232Y001692D01*
X003195Y001700D01*
X003159Y001704D01*
X003121Y001704D01*
X003085Y001700D01*
X003048Y001692D01*
X003013Y001680D01*
X002979Y001665D01*
X002947Y001647D01*
X002917Y001625D01*
X002890Y001600D01*
X002640Y000750D02*
X002580Y000749D01*
X002521Y000752D01*
X002461Y000758D01*
X002402Y000768D01*
X002344Y000781D01*
X002287Y000799D01*
X002231Y000819D01*
X002176Y000844D01*
X002123Y000871D01*
X002072Y000902D01*
X002023Y000936D01*
X001976Y000973D01*
X001932Y001013D01*
X001890Y001056D01*
X001851Y001101D01*
X001815Y001149D01*
X001782Y001199D01*
X001752Y001250D01*
X001725Y001304D01*
X001702Y001359D01*
X001683Y001415D01*
X001667Y001473D01*
X001654Y001531D01*
X001645Y001590D01*
X001640Y001650D01*
X001640Y020450D01*
X001645Y020510D01*
X001654Y020569D01*
X001667Y020627D01*
X001683Y020685D01*
X001702Y020741D01*
X001725Y020796D01*
X001752Y020850D01*
X001782Y020901D01*
X001815Y020951D01*
X001851Y020999D01*
X001890Y021044D01*
X001932Y021087D01*
X001976Y021127D01*
X002023Y021164D01*
X002072Y021198D01*
X002123Y021229D01*
X002176Y021256D01*
X002231Y021281D01*
X002287Y021301D01*
X002344Y021319D01*
X002402Y021332D01*
X002461Y021342D01*
X002521Y021348D01*
X002580Y021351D01*
X002640Y021350D01*
X034328Y021350D01*
X034328Y001800D01*
X034327Y001738D01*
X034323Y001676D01*
X034315Y001615D01*
X034304Y001554D01*
X034289Y001494D01*
X034270Y001435D01*
X034248Y001377D01*
X034222Y001321D01*
X034193Y001266D01*
X034161Y001213D01*
X034125Y001163D01*
X034087Y001114D01*
X034045Y001068D01*
X034001Y001025D01*
X033955Y000984D01*
X033906Y000946D01*
X033855Y000911D01*
X033801Y000879D01*
X033746Y000851D01*
X033690Y000826D01*
X033632Y000804D01*
X033572Y000786D01*
X033512Y000772D01*
X033451Y000761D01*
X033390Y000754D01*
X033328Y000750D01*
X002640Y000750D01*
X003140Y001250D02*
X003123Y001252D01*
X003106Y001256D01*
X003090Y001263D01*
X003076Y001273D01*
X003063Y001286D01*
X003053Y001300D01*
X003046Y001316D01*
X003042Y001333D01*
X003040Y001350D01*
X003042Y001367D01*
X003046Y001384D01*
X003053Y001400D01*
X003063Y001414D01*
X003076Y001427D01*
X003090Y001437D01*
X003106Y001444D01*
X003123Y001448D01*
X003140Y001450D01*
X003157Y001448D01*
X003174Y001444D01*
X003190Y001437D01*
X003204Y001427D01*
X003217Y001414D01*
X003227Y001400D01*
X003234Y001384D01*
X003238Y001367D01*
X003240Y001350D01*
X003238Y001333D01*
X003234Y001316D01*
X003227Y001300D01*
X003217Y001286D01*
X003204Y001273D01*
X003190Y001263D01*
X003174Y001256D01*
X003157Y001252D01*
X003140Y001250D01*
X003490Y001350D02*
X003590Y001350D01*
X003790Y001350D02*
X004090Y001350D01*
X011940Y001250D02*
X011940Y002900D01*
X011942Y002926D01*
X011947Y002952D01*
X011955Y002977D01*
X011967Y003000D01*
X011981Y003022D01*
X011999Y003041D01*
X012018Y003059D01*
X012040Y003073D01*
X012063Y003085D01*
X012088Y003093D01*
X012114Y003098D01*
X012140Y003100D01*
X019740Y003100D01*
X019766Y003098D01*
X019792Y003093D01*
X019817Y003085D01*
X019840Y003073D01*
X019862Y003059D01*
X019881Y003041D01*
X019899Y003022D01*
X019913Y003000D01*
X019925Y002977D01*
X019933Y002952D01*
X019938Y002926D01*
X019940Y002900D01*
X019940Y001250D01*
X019938Y001224D01*
X019933Y001198D01*
X019925Y001173D01*
X019913Y001150D01*
X019899Y001128D01*
X019881Y001109D01*
X019862Y001091D01*
X019840Y001077D01*
X019817Y001065D01*
X019792Y001057D01*
X019766Y001052D01*
X019740Y001050D01*
X012140Y001050D01*
X012114Y001052D01*
X012088Y001057D01*
X012063Y001065D01*
X012040Y001077D01*
X012018Y001091D01*
X011999Y001109D01*
X011981Y001128D01*
X011967Y001150D01*
X011955Y001173D01*
X011947Y001198D01*
X011942Y001224D01*
X011940Y001250D01*
X020940Y001250D02*
X020940Y002900D01*
X020942Y002926D01*
X020947Y002952D01*
X020955Y002977D01*
X020967Y003000D01*
X020981Y003022D01*
X020999Y003041D01*
X021018Y003059D01*
X021040Y003073D01*
X021063Y003085D01*
X021088Y003093D01*
X021114Y003098D01*
X021140Y003100D01*
X026740Y003100D01*
X026766Y003098D01*
X026792Y003093D01*
X026817Y003085D01*
X026840Y003073D01*
X026862Y003059D01*
X026881Y003041D01*
X026899Y003022D01*
X026913Y003000D01*
X026925Y002977D01*
X026933Y002952D01*
X026938Y002926D01*
X026940Y002900D01*
X026940Y001250D01*
X026938Y001224D01*
X026933Y001198D01*
X026925Y001173D01*
X026913Y001150D01*
X026899Y001128D01*
X026881Y001109D01*
X026862Y001091D01*
X026840Y001077D01*
X026817Y001065D01*
X026792Y001057D01*
X026766Y001052D01*
X026740Y001050D01*
X021140Y001050D01*
X021114Y001052D01*
X021088Y001057D01*
X021063Y001065D01*
X021040Y001077D01*
X021018Y001091D01*
X020999Y001109D01*
X020981Y001128D01*
X020967Y001150D01*
X020955Y001173D01*
X020947Y001198D01*
X020942Y001224D01*
X020940Y001250D01*
X026740Y019000D02*
X012540Y019000D01*
X012514Y019002D01*
X012488Y019007D01*
X012463Y019015D01*
X012440Y019027D01*
X012418Y019041D01*
X012399Y019059D01*
X012381Y019078D01*
X012367Y019100D01*
X012355Y019123D01*
X012347Y019148D01*
X012342Y019174D01*
X012340Y019200D01*
X012340Y020300D01*
X012340Y020850D02*
X012338Y020876D01*
X012333Y020902D01*
X012325Y020927D01*
X012313Y020950D01*
X012299Y020972D01*
X012281Y020991D01*
X012262Y021009D01*
X012240Y021023D01*
X012217Y021035D01*
X012192Y021043D01*
X012166Y021048D01*
X012140Y021050D01*
X010540Y021050D01*
X010514Y021048D01*
X010488Y021043D01*
X010463Y021035D01*
X010440Y021023D01*
X010418Y021009D01*
X010399Y020991D01*
X010381Y020972D01*
X010367Y020950D01*
X010355Y020927D01*
X010347Y020902D01*
X010342Y020876D01*
X010340Y020850D01*
X010340Y020800D02*
X010340Y019200D01*
X010342Y019174D01*
X010347Y019148D01*
X010355Y019123D01*
X010367Y019100D01*
X010381Y019078D01*
X010399Y019059D01*
X010418Y019041D01*
X010440Y019027D01*
X010463Y019015D01*
X010488Y019007D01*
X010514Y019002D01*
X010540Y019000D01*
X012140Y019000D01*
X012166Y019002D01*
X012192Y019007D01*
X012217Y019015D01*
X012240Y019027D01*
X012262Y019041D01*
X012281Y019059D01*
X012299Y019078D01*
X012313Y019100D01*
X012325Y019123D01*
X012333Y019148D01*
X012338Y019174D01*
X012340Y019200D01*
X009740Y019000D02*
X008540Y019000D01*
X008514Y019002D01*
X008488Y019007D01*
X008463Y019015D01*
X008440Y019027D01*
X008418Y019041D01*
X008399Y019059D01*
X008381Y019078D01*
X008367Y019100D01*
X008355Y019123D01*
X008347Y019148D01*
X008342Y019174D01*
X008340Y019200D01*
X008340Y020800D01*
X008340Y020850D02*
X008342Y020876D01*
X008347Y020902D01*
X008355Y020927D01*
X008367Y020950D01*
X008381Y020972D01*
X008399Y020991D01*
X008418Y021009D01*
X008440Y021023D01*
X008463Y021035D01*
X008488Y021043D01*
X008514Y021048D01*
X008540Y021050D01*
X010140Y021050D01*
X010166Y021048D01*
X010192Y021043D01*
X010217Y021035D01*
X010240Y021023D01*
X010262Y021009D01*
X010281Y020991D01*
X010299Y020972D01*
X010313Y020950D01*
X010325Y020927D01*
X010333Y020902D01*
X010338Y020876D01*
X010340Y020850D01*
X012340Y020850D02*
X012342Y020876D01*
X012347Y020902D01*
X012355Y020927D01*
X012367Y020950D01*
X012381Y020972D01*
X012399Y020991D01*
X012418Y021009D01*
X012440Y021023D01*
X012463Y021035D01*
X012488Y021043D01*
X012514Y021048D01*
X012540Y021050D01*
X012590Y021050D01*
X014090Y021050D02*
X014590Y021050D01*
X015590Y021050D01*
X022190Y021050D01*
X022690Y021050D01*
X026740Y021050D01*
X026766Y021048D01*
X026792Y021043D01*
X026817Y021035D01*
X026840Y021023D01*
X026862Y021009D01*
X026881Y020991D01*
X026899Y020972D01*
X026913Y020950D01*
X026925Y020927D01*
X026933Y020902D01*
X026938Y020876D01*
X026940Y020850D01*
X026940Y019200D01*
X026938Y019174D01*
X026933Y019148D01*
X026925Y019123D01*
X026913Y019100D01*
X026899Y019078D01*
X026881Y019059D01*
X026862Y019041D01*
X026840Y019027D01*
X026817Y019015D01*
X026792Y019007D01*
X026766Y019002D01*
X026740Y019000D01*
D11*
X026690Y019250D02*
X026590Y019350D01*
X026690Y019350D01*
X026690Y019750D01*
X026690Y019350D02*
X026790Y019350D01*
X026690Y019250D01*
X025840Y019750D02*
X025740Y019750D01*
X025740Y019350D01*
X025740Y019750D02*
X025640Y019750D01*
X025740Y019850D01*
X025840Y019750D01*
X026090Y016650D02*
X026890Y016650D01*
X026913Y016648D01*
X026936Y016643D01*
X026958Y016634D01*
X026978Y016621D01*
X026996Y016606D01*
X027011Y016588D01*
X027024Y016568D01*
X027033Y016546D01*
X027038Y016523D01*
X027040Y016500D01*
X027040Y016200D01*
X027038Y016177D01*
X027033Y016154D01*
X027024Y016132D01*
X027011Y016112D01*
X026996Y016094D01*
X026978Y016079D01*
X026958Y016066D01*
X026936Y016057D01*
X026913Y016052D01*
X026890Y016050D01*
X026090Y016050D01*
X026090Y015900D02*
X026890Y015900D01*
X026913Y015898D01*
X026936Y015893D01*
X026958Y015884D01*
X026978Y015871D01*
X026996Y015856D01*
X027011Y015838D01*
X027024Y015818D01*
X027033Y015796D01*
X027038Y015773D01*
X027040Y015750D01*
X027040Y015450D01*
X027038Y015427D01*
X027033Y015404D01*
X027024Y015382D01*
X027011Y015362D01*
X026996Y015344D01*
X026978Y015329D01*
X026958Y015316D01*
X026936Y015307D01*
X026913Y015302D01*
X026890Y015300D01*
X026090Y015300D01*
X026067Y015302D01*
X026044Y015307D01*
X026022Y015316D01*
X026002Y015329D01*
X025984Y015344D01*
X025969Y015362D01*
X025956Y015382D01*
X025947Y015404D01*
X025942Y015427D01*
X025940Y015450D01*
X025940Y015750D01*
X025942Y015773D01*
X025947Y015796D01*
X025956Y015818D01*
X025969Y015838D01*
X025984Y015856D01*
X026002Y015871D01*
X026022Y015884D01*
X026044Y015893D01*
X026067Y015898D01*
X026090Y015900D01*
X026090Y016050D02*
X026067Y016052D01*
X026044Y016057D01*
X026022Y016066D01*
X026002Y016079D01*
X025984Y016094D01*
X025969Y016112D01*
X025956Y016132D01*
X025947Y016154D01*
X025942Y016177D01*
X025940Y016200D01*
X025940Y016500D01*
X025942Y016523D01*
X025947Y016546D01*
X025956Y016568D01*
X025969Y016588D01*
X025984Y016606D01*
X026002Y016621D01*
X026022Y016634D01*
X026044Y016643D01*
X026067Y016648D01*
X026090Y016650D01*
X029340Y015288D02*
X029340Y015188D01*
X020740Y010450D02*
X019940Y010450D01*
X019917Y010448D01*
X019894Y010443D01*
X019872Y010434D01*
X019852Y010421D01*
X019834Y010406D01*
X019819Y010388D01*
X019806Y010368D01*
X019797Y010346D01*
X019792Y010323D01*
X019790Y010300D01*
X019790Y010000D01*
X019792Y009977D01*
X019797Y009954D01*
X019806Y009932D01*
X019819Y009912D01*
X019834Y009894D01*
X019852Y009879D01*
X019872Y009866D01*
X019894Y009857D01*
X019917Y009852D01*
X019940Y009850D01*
X020740Y009850D01*
X020763Y009848D01*
X020786Y009843D01*
X020808Y009834D01*
X020828Y009821D01*
X020846Y009806D01*
X020861Y009788D01*
X020874Y009768D01*
X020883Y009746D01*
X020888Y009723D01*
X020890Y009700D01*
X020890Y009400D01*
X020888Y009377D01*
X020883Y009354D01*
X020874Y009332D01*
X020861Y009312D01*
X020846Y009294D01*
X020828Y009279D01*
X020808Y009266D01*
X020786Y009257D01*
X020763Y009252D01*
X020740Y009250D01*
X019940Y009250D01*
X019917Y009248D01*
X019894Y009243D01*
X019872Y009234D01*
X019852Y009221D01*
X019834Y009206D01*
X019819Y009188D01*
X019806Y009168D01*
X019797Y009146D01*
X019792Y009123D01*
X019790Y009100D01*
X019790Y008800D01*
X019792Y008777D01*
X019797Y008754D01*
X019806Y008732D01*
X019819Y008712D01*
X019834Y008694D01*
X019852Y008679D01*
X019872Y008666D01*
X019894Y008657D01*
X019917Y008652D01*
X019940Y008650D01*
X020740Y008650D01*
X020763Y008652D01*
X020786Y008657D01*
X020808Y008666D01*
X020828Y008679D01*
X020846Y008694D01*
X020861Y008712D01*
X020874Y008732D01*
X020883Y008754D01*
X020888Y008777D01*
X020890Y008800D01*
X020890Y009100D01*
X020888Y009123D01*
X020883Y009146D01*
X020874Y009168D01*
X020861Y009188D01*
X020846Y009206D01*
X020828Y009221D01*
X020808Y009234D01*
X020786Y009243D01*
X020763Y009248D01*
X020740Y009250D01*
X019940Y009250D02*
X019917Y009252D01*
X019894Y009257D01*
X019872Y009266D01*
X019852Y009279D01*
X019834Y009294D01*
X019819Y009312D01*
X019806Y009332D01*
X019797Y009354D01*
X019792Y009377D01*
X019790Y009400D01*
X019790Y009700D01*
X019792Y009723D01*
X019797Y009746D01*
X019806Y009768D01*
X019819Y009788D01*
X019834Y009806D01*
X019852Y009821D01*
X019872Y009834D01*
X019894Y009843D01*
X019917Y009848D01*
X019940Y009850D01*
X020740Y009850D02*
X020763Y009852D01*
X020786Y009857D01*
X020808Y009866D01*
X020828Y009879D01*
X020846Y009894D01*
X020861Y009912D01*
X020874Y009932D01*
X020883Y009954D01*
X020888Y009977D01*
X020890Y010000D01*
X020890Y010300D01*
X020888Y010323D01*
X020883Y010346D01*
X020874Y010368D01*
X020861Y010388D01*
X020846Y010406D01*
X020828Y010421D01*
X020808Y010434D01*
X020786Y010443D01*
X020763Y010448D01*
X020740Y010450D01*
X020740Y008650D02*
X020763Y008648D01*
X020786Y008643D01*
X020808Y008634D01*
X020828Y008621D01*
X020846Y008606D01*
X020861Y008588D01*
X020874Y008568D01*
X020883Y008546D01*
X020888Y008523D01*
X020890Y008500D01*
X020890Y008200D01*
X020888Y008177D01*
X020883Y008154D01*
X020874Y008132D01*
X020861Y008112D01*
X020846Y008094D01*
X020828Y008079D01*
X020808Y008066D01*
X020786Y008057D01*
X020763Y008052D01*
X020740Y008050D01*
X019940Y008050D01*
X019917Y008048D01*
X019894Y008043D01*
X019872Y008034D01*
X019852Y008021D01*
X019834Y008006D01*
X019819Y007988D01*
X019806Y007968D01*
X019797Y007946D01*
X019792Y007923D01*
X019790Y007900D01*
X019790Y007600D01*
X019792Y007577D01*
X019797Y007554D01*
X019806Y007532D01*
X019819Y007512D01*
X019834Y007494D01*
X019852Y007479D01*
X019872Y007466D01*
X019894Y007457D01*
X019917Y007452D01*
X019940Y007450D01*
X020740Y007450D01*
X020763Y007448D01*
X020786Y007443D01*
X020808Y007434D01*
X020828Y007421D01*
X020846Y007406D01*
X020861Y007388D01*
X020874Y007368D01*
X020883Y007346D01*
X020888Y007323D01*
X020890Y007300D01*
X020890Y007000D01*
X020888Y006977D01*
X020883Y006954D01*
X020874Y006932D01*
X020861Y006912D01*
X020846Y006894D01*
X020828Y006879D01*
X020808Y006866D01*
X020786Y006857D01*
X020763Y006852D01*
X020740Y006850D01*
X019940Y006850D01*
X019917Y006852D01*
X019894Y006857D01*
X019872Y006866D01*
X019852Y006879D01*
X019834Y006894D01*
X019819Y006912D01*
X019806Y006932D01*
X019797Y006954D01*
X019792Y006977D01*
X019790Y007000D01*
X019790Y007300D01*
X019792Y007323D01*
X019797Y007346D01*
X019806Y007368D01*
X019819Y007388D01*
X019834Y007406D01*
X019852Y007421D01*
X019872Y007434D01*
X019894Y007443D01*
X019917Y007448D01*
X019940Y007450D01*
X020740Y007450D02*
X020763Y007452D01*
X020786Y007457D01*
X020808Y007466D01*
X020828Y007479D01*
X020846Y007494D01*
X020861Y007512D01*
X020874Y007532D01*
X020883Y007554D01*
X020888Y007577D01*
X020890Y007600D01*
X020890Y007900D01*
X020888Y007923D01*
X020883Y007946D01*
X020874Y007968D01*
X020861Y007988D01*
X020846Y008006D01*
X020828Y008021D01*
X020808Y008034D01*
X020786Y008043D01*
X020763Y008048D01*
X020740Y008050D01*
X019940Y008050D02*
X019917Y008052D01*
X019894Y008057D01*
X019872Y008066D01*
X019852Y008079D01*
X019834Y008094D01*
X019819Y008112D01*
X019806Y008132D01*
X019797Y008154D01*
X019792Y008177D01*
X019790Y008200D01*
X019790Y008500D01*
X019792Y008523D01*
X019797Y008546D01*
X019806Y008568D01*
X019819Y008588D01*
X019834Y008606D01*
X019852Y008621D01*
X019872Y008634D01*
X019894Y008643D01*
X019917Y008648D01*
X019940Y008650D01*
X026165Y008000D02*
X026165Y007900D01*
X026365Y007900D02*
X026365Y008000D01*
X026253Y006675D02*
X026253Y006575D01*
X025690Y004863D02*
X025690Y004763D01*
X029440Y004621D02*
X029670Y004621D01*
X029747Y004698D01*
X029747Y004851D01*
X029670Y004928D01*
X029440Y004928D01*
X029440Y004468D01*
X029956Y004544D02*
X029956Y004698D01*
X030032Y004774D01*
X030186Y004774D01*
X030263Y004698D01*
X030263Y004621D01*
X029956Y004621D01*
X029956Y004544D02*
X030032Y004468D01*
X030186Y004468D01*
X030471Y004544D02*
X030548Y004621D01*
X030778Y004621D01*
X030778Y004698D02*
X030778Y004468D01*
X030548Y004468D01*
X030471Y004544D01*
X030548Y004774D02*
X030701Y004774D01*
X030778Y004698D01*
X030987Y004621D02*
X031217Y004774D01*
X031417Y004698D02*
X031493Y004774D01*
X031724Y004774D01*
X031724Y004928D02*
X031724Y004468D01*
X031493Y004468D01*
X031417Y004544D01*
X031417Y004698D01*
X031217Y004468D02*
X030987Y004621D01*
X030987Y004468D02*
X030987Y004928D01*
X031932Y004774D02*
X031932Y004544D01*
X032009Y004468D01*
X032239Y004468D01*
X032239Y004774D01*
X032448Y004774D02*
X032525Y004774D01*
X032525Y004468D01*
X032601Y004468D02*
X032448Y004468D01*
X032792Y004468D02*
X032792Y004774D01*
X033022Y004774D01*
X033099Y004698D01*
X033099Y004468D01*
X033307Y004544D02*
X033384Y004468D01*
X033537Y004468D01*
X033614Y004544D01*
X033614Y004698D01*
X033537Y004774D01*
X033384Y004774D01*
X033307Y004698D01*
X033307Y004544D01*
X032525Y004928D02*
X032525Y005005D01*
X031760Y004088D02*
X031760Y003628D01*
X031570Y003628D02*
X031493Y003704D01*
X031493Y004011D01*
X031417Y003934D02*
X031570Y003934D01*
X031760Y003858D02*
X031837Y003934D01*
X031991Y003934D01*
X032067Y003858D01*
X032067Y003628D01*
X032276Y003704D02*
X032276Y003858D01*
X032353Y003934D01*
X032506Y003934D01*
X032583Y003858D01*
X032583Y003704D01*
X032506Y003628D01*
X032353Y003628D01*
X032276Y003704D01*
X032792Y003628D02*
X032792Y003934D01*
X032868Y003934D01*
X032945Y003858D01*
X033022Y003934D01*
X033099Y003858D01*
X033099Y003628D01*
X032945Y003628D02*
X032945Y003858D01*
X033307Y003858D02*
X033307Y003704D01*
X033384Y003628D01*
X033537Y003628D01*
X033614Y003781D02*
X033307Y003781D01*
X033307Y003858D02*
X033384Y003934D01*
X033537Y003934D01*
X033614Y003858D01*
X033614Y003781D01*
X032669Y003094D02*
X032669Y002711D01*
X032592Y002634D01*
X032515Y002634D01*
X032439Y002788D02*
X032669Y002788D01*
X032439Y002788D02*
X032362Y002864D01*
X032362Y003094D01*
X032153Y003018D02*
X032153Y002788D01*
X031923Y002788D01*
X031846Y002864D01*
X031923Y002941D01*
X032153Y002941D01*
X032153Y003018D02*
X032077Y003094D01*
X031923Y003094D01*
X031638Y003094D02*
X031638Y002864D01*
X031561Y002788D01*
X031484Y002864D01*
X031407Y002788D01*
X031331Y002864D01*
X031331Y003094D01*
X031122Y003018D02*
X031122Y002941D01*
X030815Y002941D01*
X030815Y003018D02*
X030892Y003094D01*
X031045Y003094D01*
X031122Y003018D01*
X031045Y002788D02*
X030892Y002788D01*
X030815Y002864D01*
X030815Y003018D01*
X030625Y003094D02*
X030471Y003094D01*
X030548Y003171D02*
X030548Y002864D01*
X030625Y002788D01*
X030263Y002788D02*
X030263Y003018D01*
X030186Y003094D01*
X030032Y003094D01*
X030032Y002941D02*
X030263Y002941D01*
X030263Y002788D02*
X030032Y002788D01*
X029956Y002864D01*
X030032Y002941D01*
X029747Y002864D02*
X029747Y003018D01*
X029593Y003018D01*
X029440Y003171D02*
X029440Y002864D01*
X029517Y002788D01*
X029670Y002788D01*
X029747Y002864D01*
X029747Y003171D02*
X029670Y003248D01*
X029517Y003248D01*
X029440Y003171D01*
X029517Y003628D02*
X029440Y003704D01*
X029517Y003628D02*
X029670Y003628D01*
X029747Y003704D01*
X029747Y003781D01*
X029670Y003858D01*
X029517Y003858D01*
X029440Y003934D01*
X029440Y004011D01*
X029517Y004088D01*
X029670Y004088D01*
X029747Y004011D01*
X029956Y003934D02*
X030032Y003934D01*
X030109Y003858D01*
X030186Y003934D01*
X030263Y003858D01*
X030263Y003628D01*
X030109Y003628D02*
X030109Y003858D01*
X029956Y003934D02*
X029956Y003628D01*
X030471Y003704D02*
X030548Y003781D01*
X030778Y003781D01*
X030778Y003858D02*
X030778Y003628D01*
X030548Y003628D01*
X030471Y003704D01*
X030548Y003934D02*
X030701Y003934D01*
X030778Y003858D01*
X030987Y003934D02*
X030987Y003628D01*
X030987Y003781D02*
X031140Y003934D01*
X031217Y003934D01*
X012663Y006983D02*
X012356Y006983D01*
X012510Y006830D02*
X012510Y007137D01*
X012410Y006337D02*
X012410Y006030D01*
X010690Y006200D02*
X010597Y006200D01*
X010223Y006574D01*
X010130Y006574D01*
X010130Y006200D01*
X010410Y006808D02*
X010410Y007181D01*
X010410Y007415D02*
X010410Y007789D01*
X010503Y008023D02*
X010410Y008117D01*
X010410Y008303D01*
X010503Y008397D01*
X010597Y008397D01*
X010690Y008303D01*
X010690Y008117D01*
X010597Y008023D01*
X010503Y008023D01*
X010410Y008117D02*
X010316Y008023D01*
X010223Y008023D01*
X010130Y008117D01*
X010130Y008303D01*
X010223Y008397D01*
X010316Y008397D01*
X010410Y008303D01*
X010503Y008631D02*
X010130Y008631D01*
X010503Y008631D02*
X010690Y008818D01*
X010503Y009005D01*
X010130Y009005D01*
X010130Y007696D02*
X010410Y007415D01*
X010690Y007696D02*
X010130Y007696D01*
X015540Y018200D02*
X015540Y018300D01*
X015740Y018300D02*
X015740Y018200D01*
X017540Y018200D02*
X017540Y018300D01*
X017740Y018300D02*
X017740Y018200D01*
X003006Y018798D02*
X003006Y019098D01*
X003004Y019121D01*
X002999Y019144D01*
X002990Y019166D01*
X002977Y019186D01*
X002962Y019204D01*
X002944Y019219D01*
X002924Y019232D01*
X002902Y019241D01*
X002879Y019246D01*
X002856Y019248D01*
X002006Y019248D01*
X001983Y019246D01*
X001960Y019241D01*
X001938Y019232D01*
X001918Y019219D01*
X001900Y019204D01*
X001885Y019186D01*
X001872Y019166D01*
X001863Y019144D01*
X001858Y019121D01*
X001856Y019098D01*
X001856Y018798D01*
X001858Y018775D01*
X001863Y018752D01*
X001872Y018730D01*
X001885Y018710D01*
X001900Y018692D01*
X001918Y018677D01*
X001938Y018664D01*
X001960Y018655D01*
X001983Y018650D01*
X002006Y018648D01*
X002856Y018648D01*
X002879Y018650D01*
X002902Y018655D01*
X002924Y018664D01*
X002944Y018677D01*
X002962Y018692D01*
X002977Y018710D01*
X002990Y018730D01*
X002999Y018752D01*
X003004Y018775D01*
X003006Y018798D01*
X002856Y020198D02*
X002006Y020198D01*
X001983Y020200D01*
X001960Y020205D01*
X001938Y020214D01*
X001918Y020227D01*
X001900Y020242D01*
X001885Y020260D01*
X001872Y020280D01*
X001863Y020302D01*
X001858Y020325D01*
X001856Y020348D01*
X001856Y020648D01*
X001858Y020671D01*
X001863Y020694D01*
X001872Y020716D01*
X001885Y020736D01*
X001900Y020754D01*
X001918Y020769D01*
X001938Y020782D01*
X001960Y020791D01*
X001983Y020796D01*
X002006Y020798D01*
X002856Y020798D01*
X002879Y020796D01*
X002902Y020791D01*
X002924Y020782D01*
X002944Y020769D01*
X002962Y020754D01*
X002977Y020736D01*
X002990Y020716D01*
X002999Y020694D01*
X003004Y020671D01*
X003006Y020648D01*
X003006Y020348D01*
X003004Y020325D01*
X002999Y020302D01*
X002990Y020280D01*
X002977Y020260D01*
X002962Y020242D01*
X002944Y020227D01*
X002924Y020214D01*
X002902Y020205D01*
X002879Y020200D01*
X002856Y020198D01*
D12*
X012340Y020300D02*
X012590Y020050D01*
X012340Y020050D01*
X012340Y020300D01*
X012340Y020800D01*
X012590Y021050D01*
X012340Y021050D01*
X012340Y020800D01*
X012590Y021050D02*
X013090Y021050D01*
X013340Y020800D01*
X013590Y021050D01*
X013340Y021050D01*
X013340Y020800D01*
X013340Y020300D01*
X013590Y020050D01*
X013340Y020050D01*
X013340Y020300D01*
X013090Y020050D01*
X012590Y020050D01*
X013090Y020050D02*
X013340Y020050D01*
X013590Y020050D02*
X014340Y020050D01*
X014340Y020300D01*
X014590Y020050D01*
X014340Y020050D01*
X014340Y020300D02*
X014090Y020050D01*
X014340Y020300D02*
X014340Y020800D01*
X014590Y021050D01*
X014340Y021050D01*
X014340Y020800D01*
X014090Y021050D01*
X013590Y021050D01*
X013340Y021050D02*
X013090Y021050D01*
X014090Y021050D02*
X014340Y021050D01*
X014590Y021050D02*
X015340Y021050D01*
X015340Y020800D01*
X015590Y021050D01*
X015340Y021050D01*
X015340Y020800D02*
X015090Y021050D01*
X015340Y020800D02*
X015340Y020300D01*
X015590Y020050D01*
X015340Y020050D01*
X015340Y020300D01*
X015090Y020050D01*
X014590Y020050D01*
X015090Y020050D02*
X015340Y020050D01*
X015590Y020050D02*
X016090Y020050D01*
X016340Y020300D01*
X016340Y020800D01*
X016090Y021050D01*
X016340Y021050D02*
X016340Y020800D01*
X016340Y021050D02*
X015590Y021050D01*
X016340Y020300D02*
X016340Y020050D01*
X016090Y020050D01*
X021940Y020050D02*
X021940Y021050D01*
X022940Y021050D01*
X022940Y020050D01*
X021940Y020050D01*
X021940Y020300D02*
X022190Y020050D01*
X022690Y020050D02*
X022940Y020300D01*
X022940Y020800D02*
X022690Y021050D01*
X022190Y021050D02*
X021940Y020800D01*
D13*
X021240Y018600D02*
X023540Y018600D01*
X022640Y018250D02*
X022640Y017900D01*
X022890Y017900D01*
X022640Y017900D02*
X022640Y017550D01*
X022490Y017550D02*
X022290Y017550D01*
X022290Y018250D01*
X022490Y018250D01*
X022490Y017550D01*
X022140Y017550D02*
X022140Y017900D01*
X021890Y017900D01*
X022140Y017900D02*
X022140Y018250D01*
X021240Y018600D02*
X021189Y018598D01*
X021138Y018593D01*
X021088Y018583D01*
X021038Y018570D01*
X020990Y018554D01*
X020943Y018534D01*
X020897Y018510D01*
X020854Y018484D01*
X020812Y018454D01*
X020773Y018421D01*
X020736Y018386D01*
X020702Y018348D01*
X020671Y018307D01*
X020642Y018265D01*
X020617Y018220D01*
X020596Y018174D01*
X020577Y018126D01*
X020563Y018077D01*
X020552Y018027D01*
X020544Y017977D01*
X020540Y017926D01*
X020540Y017874D01*
X020544Y017823D01*
X020552Y017773D01*
X020563Y017723D01*
X020577Y017674D01*
X020596Y017626D01*
X020617Y017580D01*
X020642Y017535D01*
X020671Y017493D01*
X020702Y017452D01*
X020736Y017414D01*
X020773Y017379D01*
X020812Y017346D01*
X020854Y017316D01*
X020897Y017290D01*
X020943Y017266D01*
X020990Y017246D01*
X021038Y017230D01*
X021088Y017217D01*
X021138Y017207D01*
X021189Y017202D01*
X021240Y017200D01*
X023540Y017200D01*
X023591Y017202D01*
X023642Y017207D01*
X023692Y017217D01*
X023742Y017230D01*
X023790Y017246D01*
X023837Y017266D01*
X023883Y017290D01*
X023926Y017316D01*
X023968Y017346D01*
X024007Y017379D01*
X024044Y017414D01*
X024078Y017452D01*
X024109Y017493D01*
X024138Y017535D01*
X024163Y017580D01*
X024184Y017626D01*
X024203Y017674D01*
X024217Y017723D01*
X024228Y017773D01*
X024236Y017823D01*
X024240Y017874D01*
X024240Y017926D01*
X024236Y017977D01*
X024228Y018027D01*
X024217Y018077D01*
X024203Y018126D01*
X024184Y018174D01*
X024163Y018220D01*
X024138Y018265D01*
X024109Y018307D01*
X024078Y018348D01*
X024044Y018386D01*
X024007Y018421D01*
X023968Y018454D01*
X023926Y018484D01*
X023883Y018510D01*
X023837Y018534D01*
X023790Y018554D01*
X023742Y018570D01*
X023692Y018583D01*
X023642Y018593D01*
X023591Y018598D01*
X023540Y018600D01*
X026980Y018293D02*
X026980Y018067D01*
X026980Y018180D02*
X027320Y018180D01*
X027263Y017925D02*
X027320Y017868D01*
X027320Y017755D01*
X027263Y017698D01*
X027150Y017755D02*
X027150Y017868D01*
X027207Y017925D01*
X027263Y017925D01*
X027150Y017755D02*
X027093Y017698D01*
X027036Y017698D01*
X026980Y017755D01*
X026980Y017868D01*
X027036Y017925D01*
X027036Y017557D02*
X027150Y017557D01*
X027207Y017500D01*
X027207Y017330D01*
X027320Y017330D02*
X026980Y017330D01*
X026980Y017500D01*
X027036Y017557D01*
X027207Y017443D02*
X027320Y017557D01*
X025813Y016454D02*
X025757Y016510D01*
X025587Y016510D01*
X025587Y016170D01*
X025587Y016283D02*
X025757Y016283D01*
X025813Y016340D01*
X025813Y016454D01*
X025700Y016283D02*
X025813Y016170D01*
X025445Y016170D02*
X025445Y016510D01*
X025218Y016510D02*
X025218Y016170D01*
X025332Y016283D01*
X025445Y016170D01*
X025077Y016340D02*
X025077Y016454D01*
X025020Y016510D01*
X024850Y016510D01*
X024850Y016170D01*
X024850Y016283D02*
X025020Y016283D01*
X025077Y016340D01*
X025020Y015810D02*
X024850Y015810D01*
X024850Y015470D01*
X025020Y015470D01*
X025077Y015527D01*
X025077Y015754D01*
X025020Y015810D01*
X025218Y015697D02*
X025332Y015810D01*
X025332Y015470D01*
X025445Y015470D02*
X025218Y015470D01*
X025587Y015527D02*
X025643Y015470D01*
X025757Y015470D01*
X025813Y015527D01*
X025813Y015583D01*
X025757Y015640D01*
X025700Y015640D01*
X025757Y015640D02*
X025813Y015697D01*
X025813Y015754D01*
X025757Y015810D01*
X025643Y015810D01*
X025587Y015754D01*
X024830Y014736D02*
X024970Y014596D01*
X024970Y011976D01*
X022210Y011976D01*
X022210Y014736D01*
X024830Y014736D01*
X024529Y014436D02*
X024531Y014459D01*
X024537Y014482D01*
X024546Y014503D01*
X024559Y014523D01*
X024575Y014540D01*
X024593Y014554D01*
X024613Y014565D01*
X024635Y014573D01*
X024658Y014577D01*
X024682Y014577D01*
X024705Y014573D01*
X024727Y014565D01*
X024747Y014554D01*
X024765Y014540D01*
X024781Y014523D01*
X024794Y014503D01*
X024803Y014482D01*
X024809Y014459D01*
X024811Y014436D01*
X024809Y014413D01*
X024803Y014390D01*
X024794Y014369D01*
X024781Y014349D01*
X024765Y014332D01*
X024747Y014318D01*
X024727Y014307D01*
X024705Y014299D01*
X024682Y014295D01*
X024658Y014295D01*
X024635Y014299D01*
X024613Y014307D01*
X024593Y014318D01*
X024575Y014332D01*
X024559Y014349D01*
X024546Y014369D01*
X024537Y014390D01*
X024531Y014413D01*
X024529Y014436D01*
X025995Y012780D02*
X026245Y013030D01*
X027745Y013030D01*
X027995Y012780D01*
X027995Y012280D01*
X027745Y012030D01*
X026245Y012030D01*
X025995Y011780D01*
X025995Y011280D01*
X026245Y011030D01*
X025995Y010780D01*
X025995Y010280D01*
X026245Y010030D01*
X027745Y010030D01*
X027995Y010280D01*
X027995Y010780D01*
X027745Y011030D01*
X026245Y011030D01*
X027745Y011030D02*
X027995Y011280D01*
X027995Y011780D01*
X027745Y012030D01*
X026245Y012030D02*
X025995Y012280D01*
X025995Y012780D01*
X029778Y014450D02*
X029778Y016100D01*
X030378Y015828D02*
X030378Y015722D01*
X029981Y016225D02*
X029927Y016198D01*
X029876Y016168D01*
X029826Y016135D01*
X029778Y016100D01*
X030874Y016225D02*
X030931Y016196D01*
X030987Y016163D01*
X031040Y016128D01*
X031091Y016088D01*
X031139Y016046D01*
X031185Y016001D01*
X031228Y015954D01*
X031268Y015904D01*
X031305Y015851D01*
X031338Y015796D01*
X031369Y015740D01*
X031395Y015681D01*
X031418Y015621D01*
X031438Y015560D01*
X031453Y015498D01*
X031465Y015435D01*
X031473Y015371D01*
X031477Y015307D01*
X031477Y015243D01*
X031473Y015179D01*
X031465Y015115D01*
X031453Y015052D01*
X031438Y014990D01*
X031418Y014929D01*
X031395Y014869D01*
X031369Y014810D01*
X031338Y014754D01*
X031305Y014699D01*
X031268Y014646D01*
X031228Y014596D01*
X031185Y014549D01*
X031139Y014504D01*
X031091Y014462D01*
X031040Y014422D01*
X030987Y014387D01*
X030931Y014354D01*
X030874Y014325D01*
X030378Y014722D02*
X030378Y014828D01*
X029990Y014321D02*
X029934Y014348D01*
X029880Y014379D01*
X029828Y014413D01*
X029778Y014450D01*
X032940Y014400D02*
X032940Y014050D01*
X033040Y014050D01*
X033040Y013650D01*
X033140Y013650D01*
X033140Y013050D01*
X033040Y013050D01*
X033040Y012600D01*
X032940Y012600D01*
X032940Y012300D01*
X033040Y012300D01*
X033040Y012000D01*
X033240Y012000D01*
X033040Y011900D02*
X034440Y011900D01*
X034440Y014350D01*
X034540Y014350D01*
X034540Y013850D01*
X034690Y013850D01*
X034690Y012850D01*
X034540Y012850D01*
X034540Y013850D01*
X034340Y013600D02*
X034340Y014700D01*
X033840Y014700D01*
X033240Y014700D02*
X033040Y014700D01*
X033040Y014400D01*
X032940Y014400D01*
X033040Y014800D02*
X034440Y014800D01*
X034440Y014350D01*
X034340Y013600D02*
X033940Y013600D01*
X033940Y013100D01*
X034340Y013100D01*
X034340Y013600D01*
X034340Y013100D02*
X034340Y012000D01*
X033840Y012000D01*
X034440Y012350D02*
X034540Y012350D01*
X034540Y012850D01*
X034390Y015913D02*
X032990Y015913D01*
X032990Y016013D02*
X033190Y016013D01*
X032990Y016013D02*
X032990Y016313D01*
X032890Y016313D01*
X032890Y016613D01*
X032990Y016613D01*
X032990Y017063D01*
X033090Y017063D01*
X033090Y017663D01*
X032990Y017663D01*
X032990Y018063D01*
X032890Y018063D01*
X032890Y018413D01*
X032990Y018413D01*
X032990Y018713D01*
X033190Y018713D01*
X032990Y018813D02*
X034390Y018813D01*
X034390Y018363D01*
X034390Y015913D01*
X034290Y016013D02*
X033790Y016013D01*
X034290Y016013D02*
X034290Y017113D01*
X034290Y017613D01*
X034290Y018713D01*
X033790Y018713D01*
X034390Y018363D02*
X034490Y018363D01*
X034490Y017863D01*
X034640Y017863D01*
X034640Y016863D01*
X034490Y016863D01*
X034490Y017863D01*
X034290Y017613D02*
X033890Y017613D01*
X033890Y017113D01*
X034290Y017113D01*
X034490Y016863D02*
X034490Y016363D01*
X034390Y016363D01*
X021615Y010320D02*
X021388Y009980D01*
X021615Y009980D02*
X021388Y010320D01*
X021247Y010320D02*
X021020Y010320D01*
X021133Y010320D02*
X021133Y009980D01*
X021190Y009720D02*
X021247Y009664D01*
X021247Y009550D01*
X021190Y009493D01*
X021020Y009493D01*
X021020Y009380D02*
X021020Y009720D01*
X021190Y009720D01*
X021388Y009720D02*
X021615Y009380D01*
X021388Y009380D02*
X021615Y009720D01*
X021247Y009380D02*
X021133Y009493D01*
X016965Y008275D02*
X016965Y007175D01*
X016963Y007158D01*
X016959Y007141D01*
X016952Y007125D01*
X016942Y007111D01*
X016929Y007098D01*
X016915Y007088D01*
X016899Y007081D01*
X016882Y007077D01*
X016865Y007075D01*
X016265Y007075D01*
X016248Y007077D01*
X016231Y007081D01*
X016215Y007088D01*
X016201Y007098D01*
X016188Y007111D01*
X016178Y007125D01*
X016171Y007141D01*
X016167Y007158D01*
X016165Y007175D01*
X016165Y008275D01*
X016167Y008292D01*
X016171Y008309D01*
X016178Y008325D01*
X016188Y008339D01*
X016201Y008352D01*
X016215Y008362D01*
X016231Y008369D01*
X016248Y008373D01*
X016265Y008375D01*
X016865Y008375D01*
X016882Y008373D01*
X016899Y008369D01*
X016915Y008362D01*
X016929Y008352D01*
X016942Y008339D01*
X016952Y008325D01*
X016959Y008309D01*
X016963Y008292D01*
X016965Y008275D01*
X012690Y008224D02*
X012350Y008224D01*
X012690Y008451D01*
X012350Y008451D01*
X012350Y008092D02*
X012350Y007978D01*
X012350Y008035D02*
X012690Y008035D01*
X012690Y007978D02*
X012690Y008092D01*
X012577Y007837D02*
X012350Y007837D01*
X012577Y007837D02*
X012690Y007723D01*
X012577Y007610D01*
X012350Y007610D01*
X012406Y005533D02*
X012350Y005477D01*
X012350Y005307D01*
X012690Y005307D01*
X012690Y005477D01*
X012633Y005533D01*
X012406Y005533D01*
X012350Y005165D02*
X012690Y005165D01*
X012350Y004938D01*
X012690Y004938D01*
X012633Y004797D02*
X012520Y004797D01*
X012520Y004683D01*
X012633Y004570D02*
X012690Y004627D01*
X012690Y004740D01*
X012633Y004797D01*
X012406Y004797D02*
X012350Y004740D01*
X012350Y004627D01*
X012406Y004570D01*
X012633Y004570D01*
X010490Y013050D02*
X009990Y013050D01*
X009740Y013300D01*
X009740Y014800D01*
X009490Y015050D01*
X008990Y015050D01*
X008740Y014800D01*
X008490Y015050D01*
X007990Y015050D01*
X007740Y014800D01*
X007740Y013300D01*
X007990Y013050D01*
X008490Y013050D01*
X008740Y013300D01*
X008740Y014800D01*
X009740Y014800D02*
X009990Y015050D01*
X010490Y015050D01*
X010740Y014800D01*
X010740Y013300D01*
X010490Y013050D01*
X009740Y013300D02*
X009490Y013050D01*
X008990Y013050D01*
X008740Y013300D01*
X008040Y016250D02*
X008042Y016199D01*
X008047Y016148D01*
X008057Y016098D01*
X008070Y016048D01*
X008086Y016000D01*
X008106Y015953D01*
X008130Y015907D01*
X008156Y015864D01*
X008186Y015822D01*
X008219Y015783D01*
X008254Y015746D01*
X008292Y015712D01*
X008333Y015681D01*
X008375Y015652D01*
X008420Y015627D01*
X008466Y015606D01*
X008514Y015587D01*
X008563Y015573D01*
X008613Y015562D01*
X008663Y015554D01*
X008714Y015550D01*
X008766Y015550D01*
X008817Y015554D01*
X008867Y015562D01*
X008917Y015573D01*
X008966Y015587D01*
X009014Y015606D01*
X009060Y015627D01*
X009105Y015652D01*
X009147Y015681D01*
X009188Y015712D01*
X009226Y015746D01*
X009261Y015783D01*
X009294Y015822D01*
X009324Y015864D01*
X009350Y015907D01*
X009374Y015953D01*
X009394Y016000D01*
X009410Y016048D01*
X009423Y016098D01*
X009433Y016148D01*
X009438Y016199D01*
X009440Y016250D01*
X009440Y018550D01*
X009438Y018601D01*
X009433Y018652D01*
X009423Y018702D01*
X009410Y018752D01*
X009394Y018800D01*
X009374Y018847D01*
X009350Y018893D01*
X009324Y018936D01*
X009294Y018978D01*
X009261Y019017D01*
X009226Y019054D01*
X009188Y019088D01*
X009147Y019119D01*
X009105Y019148D01*
X009060Y019173D01*
X009014Y019194D01*
X008966Y019213D01*
X008917Y019227D01*
X008867Y019238D01*
X008817Y019246D01*
X008766Y019250D01*
X008714Y019250D01*
X008663Y019246D01*
X008613Y019238D01*
X008563Y019227D01*
X008514Y019213D01*
X008466Y019194D01*
X008420Y019173D01*
X008375Y019148D01*
X008333Y019119D01*
X008292Y019088D01*
X008254Y019054D01*
X008219Y019017D01*
X008186Y018978D01*
X008156Y018936D01*
X008130Y018893D01*
X008106Y018847D01*
X008086Y018800D01*
X008070Y018752D01*
X008057Y018702D01*
X008047Y018652D01*
X008042Y018601D01*
X008040Y018550D01*
X008040Y016250D01*
X008740Y016900D02*
X008740Y017150D01*
X009090Y017150D01*
X009090Y017300D02*
X008390Y017300D01*
X008390Y017500D01*
X009090Y017500D01*
X009090Y017300D01*
X009090Y017650D02*
X008740Y017650D01*
X008740Y017900D01*
X008740Y017650D02*
X008390Y017650D01*
X008390Y017150D02*
X008740Y017150D01*
X003820Y017914D02*
X003660Y017914D01*
X003660Y018386D02*
X003820Y018386D01*
X002650Y019339D02*
X002423Y019679D01*
X002423Y019758D02*
X002650Y020098D01*
X002423Y020098D02*
X002650Y019758D01*
X002650Y019679D02*
X002423Y019339D01*
X002282Y019339D02*
X002168Y019452D01*
X002225Y019452D02*
X002055Y019452D01*
X002055Y019339D02*
X002055Y019679D01*
X002225Y019679D01*
X002282Y019623D01*
X002282Y019509D01*
X002225Y019452D01*
X002168Y019758D02*
X002168Y020098D01*
X002055Y020098D02*
X002282Y020098D01*
X002522Y020892D02*
X002635Y020892D01*
X002692Y020949D01*
X002692Y021232D01*
X002833Y021175D02*
X002833Y021119D01*
X002890Y021062D01*
X003004Y021062D01*
X003060Y021005D01*
X003060Y020949D01*
X003004Y020892D01*
X002890Y020892D01*
X002833Y020949D01*
X002833Y021175D02*
X002890Y021232D01*
X003004Y021232D01*
X003060Y021175D01*
X003202Y021232D02*
X003202Y020892D01*
X003372Y020892D01*
X003429Y020949D01*
X003429Y021005D01*
X003372Y021062D01*
X003202Y021062D01*
X003372Y021062D02*
X003429Y021119D01*
X003429Y021175D01*
X003372Y021232D01*
X003202Y021232D01*
X002465Y021232D02*
X002465Y020949D01*
X002522Y020892D01*
X015090Y017350D02*
X015090Y016750D01*
X015092Y016733D01*
X015096Y016716D01*
X015103Y016700D01*
X015113Y016686D01*
X015126Y016673D01*
X015140Y016663D01*
X015156Y016656D01*
X015173Y016652D01*
X015190Y016650D01*
X016290Y016650D01*
X016307Y016652D01*
X016324Y016656D01*
X016340Y016663D01*
X016354Y016673D01*
X016367Y016686D01*
X016377Y016700D01*
X016384Y016716D01*
X016388Y016733D01*
X016390Y016750D01*
X016390Y017350D01*
X016388Y017367D01*
X016384Y017384D01*
X016377Y017400D01*
X016367Y017414D01*
X016354Y017427D01*
X016340Y017437D01*
X016324Y017444D01*
X016307Y017448D01*
X016290Y017450D01*
X015190Y017450D01*
X015173Y017448D01*
X015156Y017444D01*
X015140Y017437D01*
X015126Y017427D01*
X015113Y017414D01*
X015103Y017400D01*
X015096Y017384D01*
X015092Y017367D01*
X015090Y017350D01*
X018490Y017900D02*
X018490Y015600D01*
X018492Y015549D01*
X018497Y015498D01*
X018507Y015448D01*
X018520Y015398D01*
X018536Y015350D01*
X018556Y015303D01*
X018580Y015257D01*
X018606Y015214D01*
X018636Y015172D01*
X018669Y015133D01*
X018704Y015096D01*
X018742Y015062D01*
X018783Y015031D01*
X018825Y015002D01*
X018870Y014977D01*
X018916Y014956D01*
X018964Y014937D01*
X019013Y014923D01*
X019063Y014912D01*
X019113Y014904D01*
X019164Y014900D01*
X019216Y014900D01*
X019267Y014904D01*
X019317Y014912D01*
X019367Y014923D01*
X019416Y014937D01*
X019464Y014956D01*
X019510Y014977D01*
X019555Y015002D01*
X019597Y015031D01*
X019638Y015062D01*
X019676Y015096D01*
X019711Y015133D01*
X019744Y015172D01*
X019774Y015214D01*
X019800Y015257D01*
X019824Y015303D01*
X019844Y015350D01*
X019860Y015398D01*
X019873Y015448D01*
X019883Y015498D01*
X019888Y015549D01*
X019890Y015600D01*
X019890Y017900D01*
X019888Y017951D01*
X019883Y018002D01*
X019873Y018052D01*
X019860Y018102D01*
X019844Y018150D01*
X019824Y018197D01*
X019800Y018243D01*
X019774Y018286D01*
X019744Y018328D01*
X019711Y018367D01*
X019676Y018404D01*
X019638Y018438D01*
X019597Y018469D01*
X019555Y018498D01*
X019510Y018523D01*
X019464Y018544D01*
X019416Y018563D01*
X019367Y018577D01*
X019317Y018588D01*
X019267Y018596D01*
X019216Y018600D01*
X019164Y018600D01*
X019113Y018596D01*
X019063Y018588D01*
X019013Y018577D01*
X018964Y018563D01*
X018916Y018544D01*
X018870Y018523D01*
X018825Y018498D01*
X018783Y018469D01*
X018742Y018438D01*
X018704Y018404D01*
X018669Y018367D01*
X018636Y018328D01*
X018606Y018286D01*
X018580Y018243D01*
X018556Y018197D01*
X018536Y018150D01*
X018520Y018102D01*
X018507Y018052D01*
X018497Y018002D01*
X018492Y017951D01*
X018490Y017900D01*
X019190Y017250D02*
X019190Y017000D01*
X018840Y017000D01*
X018840Y016850D02*
X019540Y016850D01*
X019540Y016650D01*
X018840Y016650D01*
X018840Y016850D01*
X019190Y017000D02*
X019540Y017000D01*
X019540Y016500D02*
X019190Y016500D01*
X019190Y016250D01*
X019190Y016500D02*
X018840Y016500D01*
D14*
X016518Y016575D02*
X016518Y016305D01*
X016338Y016575D01*
X016338Y016305D01*
X016224Y016305D02*
X016044Y016305D01*
X016044Y016575D01*
X016224Y016575D01*
X016134Y016440D02*
X016044Y016440D01*
X015929Y016440D02*
X015749Y016440D01*
X015634Y016575D02*
X015454Y016575D01*
X015544Y016575D02*
X015544Y016305D01*
X015340Y016350D02*
X015340Y016395D01*
X015295Y016440D01*
X015205Y016440D01*
X015160Y016485D01*
X015160Y016530D01*
X015205Y016575D01*
X015295Y016575D01*
X015340Y016530D01*
X015340Y016350D02*
X015295Y016305D01*
X015205Y016305D01*
X015160Y016350D01*
X015045Y016305D02*
X014955Y016395D01*
X015000Y016395D02*
X014865Y016395D01*
X014865Y016305D02*
X014865Y016575D01*
X015000Y016575D01*
X015045Y016530D01*
X015045Y016440D01*
X015000Y016395D01*
X016150Y018070D02*
X016152Y018082D01*
X016158Y018094D01*
X016166Y018102D01*
X016178Y018108D01*
X016190Y018110D01*
X016202Y018108D01*
X016214Y018102D01*
X016222Y018094D01*
X016228Y018082D01*
X016230Y018070D01*
X016228Y018058D01*
X016222Y018046D01*
X016214Y018038D01*
X016202Y018032D01*
X016190Y018030D01*
X016178Y018032D01*
X016166Y018038D01*
X016158Y018046D01*
X016152Y018058D01*
X016150Y018070D01*
X016109Y019225D02*
X016067Y019267D01*
X016109Y019225D02*
X016193Y019225D01*
X016234Y019267D01*
X016234Y019308D01*
X016193Y019350D01*
X016109Y019350D01*
X016067Y019392D01*
X016067Y019434D01*
X016109Y019475D01*
X016193Y019475D01*
X016234Y019434D01*
X016090Y019620D02*
X016045Y019575D01*
X015955Y019575D01*
X015910Y019620D01*
X016090Y019800D01*
X016090Y019620D01*
X016090Y019800D02*
X016045Y019845D01*
X015955Y019845D01*
X015910Y019800D01*
X015910Y019620D01*
X015795Y019575D02*
X015615Y019575D01*
X015705Y019575D02*
X015705Y019845D01*
X015615Y019755D01*
X015682Y019475D02*
X015682Y019225D01*
X015598Y019308D01*
X015515Y019225D01*
X015515Y019475D01*
X015791Y019434D02*
X015791Y019267D01*
X015833Y019225D01*
X015916Y019225D01*
X015958Y019267D01*
X015958Y019434D02*
X015916Y019475D01*
X015833Y019475D01*
X015791Y019434D01*
X015184Y019475D02*
X015184Y019225D01*
X015017Y019225D02*
X015017Y019475D01*
X015101Y019392D01*
X015184Y019475D01*
X015090Y019575D02*
X014910Y019575D01*
X015000Y019575D02*
X015000Y019845D01*
X014910Y019755D01*
X014795Y019575D02*
X014615Y019575D01*
X014705Y019575D02*
X014705Y019845D01*
X014615Y019755D01*
X014590Y019475D02*
X014632Y019434D01*
X014632Y019350D01*
X014590Y019308D01*
X014465Y019308D01*
X014465Y019225D02*
X014465Y019475D01*
X014590Y019475D01*
X014741Y019475D02*
X014741Y019225D01*
X014825Y019308D01*
X014908Y019225D01*
X014908Y019475D01*
X014090Y019575D02*
X013910Y019575D01*
X014090Y019755D01*
X014090Y019800D01*
X014045Y019845D01*
X013955Y019845D01*
X013910Y019800D01*
X013705Y019845D02*
X013705Y019575D01*
X013615Y019575D02*
X013795Y019575D01*
X013615Y019755D02*
X013705Y019845D01*
X013090Y019800D02*
X013090Y019755D01*
X013045Y019710D01*
X013090Y019665D01*
X013090Y019620D01*
X013045Y019575D01*
X012955Y019575D01*
X012910Y019620D01*
X012795Y019575D02*
X012615Y019575D01*
X012705Y019575D02*
X012705Y019845D01*
X012615Y019755D01*
X012910Y019800D02*
X012955Y019845D01*
X013045Y019845D01*
X013090Y019800D01*
X013045Y019710D02*
X013000Y019710D01*
X012234Y019620D02*
X012234Y019800D01*
X012189Y019845D01*
X012054Y019845D01*
X012054Y019575D01*
X012189Y019575D01*
X012234Y019620D01*
X011940Y019575D02*
X011940Y019845D01*
X011760Y019845D02*
X011940Y019575D01*
X011760Y019575D02*
X011760Y019845D01*
X011645Y019800D02*
X011600Y019845D01*
X011510Y019845D01*
X011465Y019800D01*
X011465Y019620D01*
X011510Y019575D01*
X011600Y019575D01*
X011645Y019620D01*
X011645Y019710D01*
X011555Y019710D01*
X011234Y019495D02*
X011054Y019495D01*
X011054Y019225D01*
X010940Y019225D02*
X010760Y019225D01*
X010760Y019495D01*
X010940Y019495D01*
X010945Y019625D02*
X010945Y019805D01*
X010855Y019895D01*
X010765Y019805D01*
X010765Y019625D01*
X010765Y019760D02*
X010945Y019760D01*
X010645Y019450D02*
X010645Y019360D01*
X010600Y019315D01*
X010465Y019315D01*
X010465Y019225D02*
X010465Y019495D01*
X010600Y019495D01*
X010645Y019450D01*
X010760Y019360D02*
X010850Y019360D01*
X011054Y019360D02*
X011144Y019360D01*
X010645Y019225D02*
X010555Y019315D01*
X010234Y019575D02*
X010234Y019755D01*
X010144Y019845D01*
X010054Y019755D01*
X010054Y019575D01*
X009940Y019620D02*
X009940Y019800D01*
X009895Y019845D01*
X009760Y019845D01*
X009760Y019575D01*
X009895Y019575D01*
X009940Y019620D01*
X010054Y019710D02*
X010234Y019710D01*
X009645Y019665D02*
X009645Y019620D01*
X009600Y019575D01*
X009510Y019575D01*
X009465Y019620D01*
X009510Y019710D02*
X009465Y019755D01*
X009465Y019800D01*
X009510Y019845D01*
X009600Y019845D01*
X009645Y019800D01*
X009600Y019710D02*
X009645Y019665D01*
X009600Y019710D02*
X009510Y019710D01*
X009234Y019575D02*
X009054Y019575D01*
X009054Y019845D01*
X008940Y019800D02*
X008895Y019845D01*
X008805Y019845D01*
X008760Y019800D01*
X008760Y019620D01*
X008805Y019575D01*
X008895Y019575D01*
X008940Y019620D01*
X008645Y019620D02*
X008600Y019575D01*
X008510Y019575D01*
X008465Y019620D01*
X008510Y019710D02*
X008600Y019710D01*
X008645Y019665D01*
X008645Y019620D01*
X008510Y019710D02*
X008465Y019755D01*
X008465Y019800D01*
X008510Y019845D01*
X008600Y019845D01*
X008645Y019800D01*
X016515Y019475D02*
X016515Y019225D01*
X016515Y019308D02*
X016640Y019308D01*
X016682Y019350D01*
X016682Y019434D01*
X016640Y019475D01*
X016515Y019475D01*
X016655Y019575D02*
X016565Y019665D01*
X016565Y019755D01*
X016655Y019845D01*
X016761Y019800D02*
X016761Y019755D01*
X016806Y019710D01*
X016942Y019710D01*
X016942Y019620D02*
X016942Y019800D01*
X016897Y019845D01*
X016806Y019845D01*
X016761Y019800D01*
X016761Y019620D02*
X016806Y019575D01*
X016897Y019575D01*
X016942Y019620D01*
X017056Y019575D02*
X017146Y019665D01*
X017146Y019755D01*
X017056Y019845D01*
X017067Y019475D02*
X017151Y019392D01*
X017234Y019475D01*
X017234Y019225D01*
X017067Y019225D02*
X017067Y019475D01*
X016958Y019475D02*
X016958Y019225D01*
X016875Y019308D01*
X016791Y019225D01*
X016791Y019475D01*
X017490Y019475D02*
X017657Y019475D01*
X017766Y019434D02*
X017808Y019475D01*
X017891Y019475D01*
X017933Y019434D01*
X018042Y019434D02*
X018042Y019392D01*
X018084Y019350D01*
X018168Y019350D01*
X018209Y019308D01*
X018209Y019267D01*
X018168Y019225D01*
X018084Y019225D01*
X018042Y019267D01*
X017933Y019267D02*
X017891Y019225D01*
X017808Y019225D01*
X017766Y019267D01*
X017766Y019434D01*
X017810Y019575D02*
X017765Y019620D01*
X017765Y019665D01*
X017810Y019710D01*
X017900Y019710D01*
X017945Y019665D01*
X017945Y019620D01*
X017900Y019575D01*
X017810Y019575D01*
X017810Y019710D02*
X017765Y019755D01*
X017765Y019800D01*
X017810Y019845D01*
X017900Y019845D01*
X017945Y019800D01*
X017945Y019755D01*
X017900Y019710D01*
X018084Y019475D02*
X018042Y019434D01*
X018084Y019475D02*
X018168Y019475D01*
X018209Y019434D01*
X017573Y019350D02*
X017490Y019350D01*
X017490Y019225D02*
X017490Y019475D01*
X019165Y019665D02*
X019165Y019755D01*
X019255Y019845D01*
X019361Y019845D02*
X019542Y019845D01*
X019542Y019800D01*
X019361Y019620D01*
X019361Y019575D01*
X019255Y019575D02*
X019165Y019665D01*
X019656Y019575D02*
X019746Y019665D01*
X019746Y019755D01*
X019656Y019845D01*
X020090Y019409D02*
X020132Y019450D01*
X020215Y019450D01*
X020257Y019409D01*
X020366Y019409D02*
X020408Y019450D01*
X020491Y019450D01*
X020533Y019409D01*
X020491Y019325D02*
X020533Y019283D01*
X020533Y019242D01*
X020491Y019200D01*
X020408Y019200D01*
X020366Y019242D01*
X020408Y019325D02*
X020491Y019325D01*
X020408Y019325D02*
X020366Y019367D01*
X020366Y019409D01*
X020410Y019575D02*
X020500Y019575D01*
X020545Y019620D01*
X020545Y019665D01*
X020500Y019710D01*
X020365Y019710D01*
X020365Y019620D01*
X020410Y019575D01*
X020365Y019710D02*
X020455Y019800D01*
X020545Y019845D01*
X020642Y019450D02*
X020809Y019200D01*
X020809Y019450D01*
X020642Y019450D02*
X020642Y019200D01*
X020257Y019242D02*
X020215Y019200D01*
X020132Y019200D01*
X020090Y019242D01*
X020090Y019409D01*
X021228Y019396D02*
X021228Y019229D01*
X021269Y019188D01*
X021353Y019188D01*
X021394Y019229D01*
X021504Y019188D02*
X021504Y019438D01*
X021671Y019438D01*
X021587Y019313D02*
X021504Y019313D01*
X021504Y019188D02*
X021671Y019188D01*
X021394Y019396D02*
X021353Y019438D01*
X021269Y019438D01*
X021228Y019396D01*
X021410Y019575D02*
X021365Y019620D01*
X021410Y019575D02*
X021500Y019575D01*
X021545Y019620D01*
X021545Y019710D01*
X021500Y019755D01*
X021455Y019755D01*
X021365Y019710D01*
X021365Y019845D01*
X021545Y019845D01*
X021978Y019438D02*
X022144Y019438D01*
X022061Y019438D02*
X022061Y019188D01*
X022254Y019188D02*
X022254Y019438D01*
X022421Y019438D01*
X022530Y019438D02*
X022613Y019354D01*
X022697Y019438D01*
X022697Y019188D01*
X022806Y019188D02*
X022806Y019438D01*
X022931Y019438D01*
X022973Y019396D01*
X022973Y019313D01*
X022931Y019271D01*
X022806Y019271D01*
X022530Y019188D02*
X022530Y019438D01*
X022500Y019575D02*
X022500Y019845D01*
X022365Y019710D01*
X022545Y019710D01*
X022337Y019313D02*
X022254Y019313D01*
X022254Y019188D02*
X022421Y019188D01*
X023178Y019175D02*
X023261Y019175D01*
X023219Y019175D02*
X023219Y019425D01*
X023178Y019425D02*
X023261Y019425D01*
X023362Y019425D02*
X023487Y019425D01*
X023528Y019384D01*
X023528Y019300D01*
X023487Y019258D01*
X023362Y019258D01*
X023362Y019175D02*
X023362Y019425D01*
X023410Y019575D02*
X023365Y019620D01*
X023410Y019575D02*
X023500Y019575D01*
X023545Y019620D01*
X023545Y019665D01*
X023500Y019710D01*
X023455Y019710D01*
X023500Y019710D02*
X023545Y019755D01*
X023545Y019800D01*
X023500Y019845D01*
X023410Y019845D01*
X023365Y019800D01*
X023680Y019425D02*
X023763Y019425D01*
X023805Y019384D01*
X023805Y019217D01*
X023763Y019175D01*
X023680Y019175D01*
X023638Y019217D01*
X023638Y019384D01*
X023680Y019425D01*
X023721Y019258D02*
X023805Y019175D01*
X023528Y019175D02*
X023445Y019258D01*
X024165Y019665D02*
X024165Y019755D01*
X024255Y019845D01*
X024361Y019800D02*
X024406Y019845D01*
X024497Y019845D01*
X024542Y019800D01*
X024542Y019755D01*
X024361Y019575D01*
X024542Y019575D01*
X024656Y019575D02*
X024746Y019665D01*
X024746Y019755D01*
X024656Y019845D01*
X024255Y019575D02*
X024165Y019665D01*
X025115Y019475D02*
X025282Y019475D01*
X025198Y019475D02*
X025198Y019225D01*
X025391Y019225D02*
X025558Y019475D01*
X025545Y019575D02*
X025365Y019575D01*
X025455Y019575D02*
X025455Y019845D01*
X025365Y019755D01*
X025391Y019475D02*
X025558Y019225D01*
X026065Y019225D02*
X026065Y019475D01*
X026190Y019475D01*
X026232Y019434D01*
X026232Y019350D01*
X026190Y019308D01*
X026065Y019308D01*
X026148Y019308D02*
X026232Y019225D01*
X026341Y019225D02*
X026508Y019475D01*
X026500Y019575D02*
X026410Y019575D01*
X026365Y019620D01*
X026545Y019800D01*
X026545Y019620D01*
X026500Y019575D01*
X026365Y019620D02*
X026365Y019800D01*
X026410Y019845D01*
X026500Y019845D01*
X026545Y019800D01*
X026341Y019475D02*
X026508Y019225D01*
X026610Y018710D02*
X026662Y018710D01*
X026662Y018400D01*
X026713Y018400D02*
X026610Y018400D01*
X026485Y018400D02*
X026330Y018400D01*
X026278Y018452D01*
X026330Y018503D01*
X026485Y018503D01*
X026485Y018555D02*
X026485Y018400D01*
X026485Y018555D02*
X026434Y018607D01*
X026330Y018607D01*
X026161Y018607D02*
X026057Y018607D01*
X026109Y018659D02*
X026109Y018452D01*
X026161Y018400D01*
X025940Y018400D02*
X025836Y018400D01*
X025888Y018400D02*
X025888Y018607D01*
X025836Y018607D01*
X025888Y018710D02*
X025888Y018762D01*
X025712Y018607D02*
X025712Y018348D01*
X025660Y018297D01*
X025608Y018297D01*
X025557Y018400D02*
X025712Y018400D01*
X025557Y018400D02*
X025505Y018452D01*
X025505Y018555D01*
X025557Y018607D01*
X025712Y018607D01*
X025336Y018607D02*
X025336Y018400D01*
X025387Y018400D02*
X025284Y018400D01*
X025159Y018452D02*
X025159Y018659D01*
X025108Y018710D01*
X024953Y018710D01*
X024953Y018400D01*
X025108Y018400D01*
X025159Y018452D01*
X025284Y018607D02*
X025336Y018607D01*
X025336Y018710D02*
X025336Y018762D01*
X017740Y014050D02*
X017742Y014078D01*
X017748Y014105D01*
X017757Y014131D01*
X017770Y014156D01*
X017787Y014179D01*
X017806Y014199D01*
X017828Y014216D01*
X017852Y014230D01*
X017878Y014240D01*
X017905Y014247D01*
X017933Y014250D01*
X017961Y014249D01*
X017988Y014244D01*
X018015Y014235D01*
X018040Y014223D01*
X018063Y014208D01*
X018084Y014189D01*
X018102Y014168D01*
X018117Y014144D01*
X018128Y014118D01*
X018136Y014092D01*
X018140Y014064D01*
X018140Y014036D01*
X018136Y014008D01*
X018128Y013982D01*
X018117Y013956D01*
X018102Y013932D01*
X018084Y013911D01*
X018063Y013892D01*
X018040Y013877D01*
X018015Y013865D01*
X017988Y013856D01*
X017961Y013851D01*
X017933Y013850D01*
X017905Y013853D01*
X017878Y013860D01*
X017852Y013870D01*
X017828Y013884D01*
X017806Y013901D01*
X017787Y013921D01*
X017770Y013944D01*
X017757Y013969D01*
X017748Y013995D01*
X017742Y014022D01*
X017740Y014050D01*
X010875Y014985D02*
X010695Y014985D01*
X010785Y014985D02*
X010785Y015255D01*
X010695Y015165D01*
X021015Y009050D02*
X021060Y009095D01*
X021150Y009095D01*
X021195Y009050D01*
X021310Y009050D02*
X021355Y009095D01*
X021445Y009095D01*
X021490Y009050D01*
X021490Y008870D01*
X021445Y008825D01*
X021355Y008825D01*
X021310Y008870D01*
X021310Y009050D01*
X021195Y008870D02*
X021150Y008825D01*
X021060Y008825D01*
X021015Y008870D01*
X021015Y009050D01*
X021604Y009095D02*
X021604Y008825D01*
X021784Y008825D01*
X021784Y008495D02*
X021604Y008225D01*
X021490Y008270D02*
X021490Y008450D01*
X021445Y008495D01*
X021310Y008495D01*
X021310Y008225D01*
X021445Y008225D01*
X021490Y008270D01*
X021604Y008495D02*
X021784Y008225D01*
X021739Y007895D02*
X021649Y007895D01*
X021604Y007850D01*
X021604Y007670D01*
X021784Y007850D01*
X021784Y007670D01*
X021739Y007625D01*
X021649Y007625D01*
X021604Y007670D01*
X021490Y007670D02*
X021445Y007625D01*
X021355Y007625D01*
X021310Y007670D01*
X021490Y007850D01*
X021490Y007670D01*
X021490Y007850D02*
X021445Y007895D01*
X021355Y007895D01*
X021310Y007850D01*
X021310Y007670D01*
X021195Y007625D02*
X021015Y007625D01*
X021105Y007625D02*
X021105Y007895D01*
X021015Y007805D01*
X021015Y008225D02*
X021015Y008495D01*
X021195Y008495D01*
X021105Y008360D02*
X021015Y008360D01*
X021739Y007895D02*
X021784Y007850D01*
X021784Y007295D02*
X021604Y007115D01*
X021649Y007160D02*
X021784Y007025D01*
X021604Y007025D02*
X021604Y007295D01*
X021490Y007295D02*
X021490Y007025D01*
X021310Y007295D01*
X021310Y007025D01*
X021195Y007025D02*
X021015Y007025D01*
X021015Y007295D01*
X024340Y006413D02*
X024342Y006433D01*
X024348Y006451D01*
X024357Y006469D01*
X024369Y006484D01*
X024384Y006496D01*
X024402Y006505D01*
X024420Y006511D01*
X024440Y006513D01*
X024460Y006511D01*
X024478Y006505D01*
X024496Y006496D01*
X024511Y006484D01*
X024523Y006469D01*
X024532Y006451D01*
X024538Y006433D01*
X024540Y006413D01*
X024538Y006393D01*
X024532Y006375D01*
X024523Y006357D01*
X024511Y006342D01*
X024496Y006330D01*
X024478Y006321D01*
X024460Y006315D01*
X024440Y006313D01*
X024420Y006315D01*
X024402Y006321D01*
X024384Y006330D01*
X024369Y006342D01*
X024357Y006357D01*
X024348Y006375D01*
X024342Y006393D01*
X024340Y006413D01*
X024340Y005313D02*
X024340Y005013D01*
X024840Y004813D02*
X024840Y004663D01*
X024340Y004463D02*
X024340Y004163D01*
X024690Y004163D01*
X024149Y003548D02*
X024149Y003238D01*
X024200Y003238D02*
X024097Y003238D01*
X023972Y003238D02*
X023817Y003238D01*
X023765Y003289D01*
X023817Y003341D01*
X023972Y003341D01*
X023972Y003393D02*
X023972Y003238D01*
X023972Y003393D02*
X023921Y003444D01*
X023817Y003444D01*
X023641Y003393D02*
X023641Y003238D01*
X023641Y003393D02*
X023589Y003444D01*
X023434Y003444D01*
X023434Y003238D01*
X023309Y003238D02*
X023309Y003444D01*
X023206Y003548D01*
X023103Y003444D01*
X023103Y003238D01*
X023103Y003393D02*
X023309Y003393D01*
X024097Y003548D02*
X024149Y003548D01*
X024318Y003393D02*
X024318Y003289D01*
X024370Y003238D01*
X024473Y003238D01*
X024525Y003289D01*
X024525Y003393D01*
X024473Y003444D01*
X024370Y003444D01*
X024318Y003393D01*
X024649Y003393D02*
X024649Y003289D01*
X024701Y003238D01*
X024856Y003238D01*
X024856Y003186D02*
X024856Y003444D01*
X024701Y003444D01*
X024649Y003393D01*
X024753Y003134D02*
X024805Y003134D01*
X024856Y003186D01*
X024704Y002588D02*
X024821Y002471D01*
X024821Y002354D01*
X024704Y002238D01*
X024569Y002296D02*
X024511Y002238D01*
X024394Y002238D01*
X024336Y002296D01*
X024207Y002238D02*
X024090Y002354D01*
X024090Y002471D01*
X024207Y002588D01*
X024336Y002529D02*
X024394Y002588D01*
X024511Y002588D01*
X024569Y002529D01*
X024569Y002471D01*
X024511Y002413D01*
X024569Y002354D01*
X024569Y002296D01*
X024511Y002413D02*
X024452Y002413D01*
X025065Y002459D02*
X025182Y002575D01*
X025065Y002459D02*
X025065Y002342D01*
X025182Y002225D01*
X025311Y002400D02*
X025544Y002400D01*
X025486Y002225D02*
X025486Y002575D01*
X025311Y002400D01*
X025679Y002225D02*
X025796Y002342D01*
X025796Y002459D01*
X025679Y002575D01*
X026065Y002471D02*
X026065Y002354D01*
X026182Y002238D01*
X026311Y002296D02*
X026369Y002238D01*
X026486Y002238D01*
X026544Y002296D01*
X026544Y002413D01*
X026486Y002471D01*
X026427Y002471D01*
X026311Y002413D01*
X026311Y002588D01*
X026544Y002588D01*
X026679Y002588D02*
X026796Y002471D01*
X026796Y002354D01*
X026679Y002238D01*
X026182Y002588D02*
X026065Y002471D01*
X023549Y002459D02*
X023549Y002517D01*
X023490Y002575D01*
X023373Y002575D01*
X023315Y002517D01*
X023549Y002459D02*
X023315Y002225D01*
X023549Y002225D01*
X022549Y002225D02*
X022315Y002225D01*
X022432Y002225D02*
X022432Y002575D01*
X022315Y002459D01*
X021549Y002517D02*
X021315Y002283D01*
X021373Y002225D01*
X021490Y002225D01*
X021549Y002283D01*
X021549Y002517D01*
X021490Y002575D01*
X021373Y002575D01*
X021315Y002517D01*
X021315Y002283D01*
X019836Y002225D02*
X019836Y002495D01*
X019656Y002495D02*
X019836Y002225D01*
X019656Y002225D02*
X019656Y002495D01*
X019550Y002495D02*
X019460Y002495D01*
X019505Y002495D02*
X019505Y002225D01*
X019460Y002225D02*
X019550Y002225D01*
X019345Y002315D02*
X019345Y002495D01*
X019345Y002315D02*
X019255Y002225D01*
X019165Y002315D01*
X019165Y002495D01*
X018834Y002450D02*
X018834Y002270D01*
X018789Y002225D01*
X018654Y002225D01*
X018654Y002495D01*
X018789Y002495D01*
X018834Y002450D01*
X018540Y002495D02*
X018540Y002225D01*
X018360Y002495D01*
X018360Y002225D01*
X018245Y002270D02*
X018245Y002360D01*
X018155Y002360D01*
X018065Y002270D02*
X018110Y002225D01*
X018200Y002225D01*
X018245Y002270D01*
X018065Y002270D02*
X018065Y002450D01*
X018110Y002495D01*
X018200Y002495D01*
X018245Y002450D01*
X017834Y002450D02*
X017834Y002270D01*
X017789Y002225D01*
X017654Y002225D01*
X017654Y002495D01*
X017789Y002495D01*
X017834Y002450D01*
X017540Y002495D02*
X017540Y002225D01*
X017360Y002495D01*
X017360Y002225D01*
X017245Y002270D02*
X017245Y002360D01*
X017155Y002360D01*
X017065Y002270D02*
X017110Y002225D01*
X017200Y002225D01*
X017245Y002270D01*
X017065Y002270D02*
X017065Y002450D01*
X017110Y002495D01*
X017200Y002495D01*
X017245Y002450D01*
X017215Y002675D02*
X017111Y002675D01*
X017059Y002727D01*
X017059Y002830D01*
X017111Y002882D01*
X017215Y002882D01*
X017266Y002830D01*
X017266Y002778D01*
X017059Y002778D01*
X016935Y002727D02*
X016935Y002882D01*
X016935Y002727D02*
X016883Y002675D01*
X016831Y002727D01*
X016780Y002675D01*
X016728Y002727D01*
X016728Y002882D01*
X016603Y002830D02*
X016552Y002882D01*
X016448Y002882D01*
X016396Y002830D01*
X016396Y002727D01*
X016448Y002675D01*
X016552Y002675D01*
X016603Y002727D01*
X016603Y002830D01*
X016272Y002830D02*
X016272Y002934D01*
X016220Y002985D01*
X016065Y002985D01*
X016065Y002675D01*
X016065Y002778D02*
X016220Y002778D01*
X016272Y002830D01*
X016215Y002495D02*
X016215Y002360D01*
X016305Y002405D01*
X016350Y002405D01*
X016395Y002360D01*
X016395Y002270D01*
X016350Y002225D01*
X016260Y002225D01*
X016215Y002270D01*
X016215Y002495D02*
X016395Y002495D01*
X016510Y002495D02*
X016510Y002315D01*
X016600Y002225D01*
X016690Y002315D01*
X016690Y002495D01*
X015834Y002450D02*
X015834Y002405D01*
X015789Y002360D01*
X015834Y002315D01*
X015834Y002270D01*
X015789Y002225D01*
X015699Y002225D01*
X015654Y002270D01*
X015540Y002315D02*
X015540Y002495D01*
X015654Y002450D02*
X015699Y002495D01*
X015789Y002495D01*
X015834Y002450D01*
X015789Y002360D02*
X015744Y002360D01*
X015540Y002315D02*
X015450Y002225D01*
X015360Y002315D01*
X015360Y002495D01*
X015245Y002450D02*
X015245Y002405D01*
X015200Y002360D01*
X015245Y002315D01*
X015245Y002270D01*
X015200Y002225D01*
X015110Y002225D01*
X015065Y002270D01*
X015155Y002360D02*
X015200Y002360D01*
X015245Y002450D02*
X015200Y002495D01*
X015110Y002495D01*
X015065Y002450D01*
X014834Y002495D02*
X014654Y002495D01*
X014744Y002495D02*
X014744Y002225D01*
X014540Y002270D02*
X014495Y002225D01*
X014405Y002225D01*
X014360Y002270D01*
X014405Y002360D02*
X014495Y002360D01*
X014540Y002315D01*
X014540Y002270D01*
X014405Y002360D02*
X014360Y002405D01*
X014360Y002450D01*
X014405Y002495D01*
X014495Y002495D01*
X014540Y002450D01*
X014245Y002450D02*
X014245Y002360D01*
X014200Y002315D01*
X014065Y002315D01*
X014065Y002225D02*
X014065Y002495D01*
X014200Y002495D01*
X014245Y002450D01*
X014155Y002315D02*
X014245Y002225D01*
X013834Y002495D02*
X013654Y002495D01*
X013654Y002225D01*
X013540Y002225D02*
X013360Y002225D01*
X013360Y002495D01*
X013540Y002495D01*
X013497Y002625D02*
X013542Y002670D01*
X013542Y002850D01*
X013497Y002895D01*
X013406Y002895D01*
X013361Y002850D01*
X013361Y002670D01*
X013406Y002625D01*
X013497Y002625D01*
X013255Y002625D02*
X013165Y002625D01*
X013210Y002625D02*
X013210Y002895D01*
X013165Y002895D02*
X013255Y002895D01*
X013200Y002495D02*
X013065Y002495D01*
X013065Y002225D01*
X013065Y002315D02*
X013200Y002315D01*
X013245Y002360D01*
X013245Y002450D01*
X013200Y002495D01*
X013155Y002315D02*
X013245Y002225D01*
X013360Y002360D02*
X013450Y002360D01*
X013654Y002360D02*
X013744Y002360D01*
X017391Y002675D02*
X017391Y002882D01*
X017494Y002882D02*
X017546Y002882D01*
X017494Y002882D02*
X017391Y002778D01*
X018640Y004000D02*
X018640Y005250D01*
X018890Y005250D01*
X020390Y005250D02*
X020640Y005250D01*
X020640Y004000D01*
X020390Y004000D01*
X018890Y004000D02*
X018640Y004000D01*
X024340Y005313D02*
X024690Y005313D01*
X030345Y002478D02*
X030345Y002168D01*
X030189Y002168D01*
X030138Y002219D01*
X030138Y002323D01*
X030189Y002374D01*
X030345Y002374D01*
X030469Y002374D02*
X030469Y002219D01*
X030521Y002168D01*
X030676Y002168D01*
X030676Y002374D01*
X030801Y002374D02*
X030852Y002374D01*
X030852Y002168D01*
X030801Y002168D02*
X030904Y002168D01*
X031022Y002168D02*
X031022Y002374D01*
X031177Y002374D01*
X031228Y002323D01*
X031228Y002168D01*
X031353Y002219D02*
X031405Y002168D01*
X031508Y002168D01*
X031560Y002219D01*
X031560Y002323D01*
X031508Y002374D01*
X031405Y002374D01*
X031353Y002323D01*
X031353Y002219D01*
X031685Y002168D02*
X031840Y002168D01*
X031891Y002219D01*
X031891Y002323D01*
X031840Y002374D01*
X031685Y002374D01*
X031685Y002064D01*
X032016Y002219D02*
X032068Y002168D01*
X032171Y002168D01*
X032223Y002271D02*
X032016Y002271D01*
X032016Y002323D02*
X032068Y002374D01*
X032171Y002374D01*
X032223Y002323D01*
X032223Y002271D01*
X032348Y002219D02*
X032399Y002271D01*
X032554Y002271D01*
X032554Y002323D02*
X032554Y002168D01*
X032399Y002168D01*
X032348Y002219D01*
X032399Y002374D02*
X032503Y002374D01*
X032554Y002323D01*
X032679Y002271D02*
X032834Y002374D01*
X032679Y002271D02*
X032834Y002168D01*
X032955Y002168D02*
X033007Y002168D01*
X033007Y002219D01*
X032955Y002219D01*
X032955Y002168D01*
X033121Y002219D02*
X033173Y002168D01*
X033328Y002168D01*
X033453Y002219D02*
X033504Y002168D01*
X033608Y002168D01*
X033659Y002219D01*
X033659Y002323D01*
X033608Y002374D01*
X033504Y002374D01*
X033453Y002323D01*
X033453Y002219D01*
X033328Y002374D02*
X033173Y002374D01*
X033121Y002323D01*
X033121Y002219D01*
X032679Y002168D02*
X032679Y002478D01*
X032016Y002323D02*
X032016Y002219D01*
X030852Y002478D02*
X030852Y002529D01*
X030024Y002219D02*
X030024Y002168D01*
X029972Y002168D01*
X029972Y002219D01*
X030024Y002219D01*
X029847Y002219D02*
X029847Y002374D01*
X029847Y002219D02*
X029796Y002168D01*
X029744Y002219D01*
X029692Y002168D01*
X029640Y002219D01*
X029640Y002374D01*
X029516Y002374D02*
X029516Y002219D01*
X029464Y002168D01*
X029412Y002219D01*
X029361Y002168D01*
X029309Y002219D01*
X029309Y002374D01*
X029184Y002374D02*
X029184Y002219D01*
X029133Y002168D01*
X029081Y002219D01*
X029029Y002168D01*
X028978Y002219D01*
X028978Y002374D01*
X033784Y002374D02*
X033784Y002168D01*
X033887Y002168D02*
X033887Y002323D01*
X033939Y002374D01*
X033991Y002323D01*
X033991Y002168D01*
X033887Y002323D02*
X033836Y002374D01*
X033784Y002374D01*
X033078Y008375D02*
X032828Y008375D01*
X033078Y008375D02*
X033078Y009625D01*
X032828Y009625D01*
X031328Y009625D02*
X031078Y009625D01*
X031078Y008375D01*
X031328Y008375D01*
X023995Y010510D02*
X023815Y010330D01*
X023815Y010285D01*
X023700Y010285D02*
X023700Y010465D01*
X023610Y010555D01*
X023520Y010465D01*
X023520Y010285D01*
X023520Y010420D02*
X023700Y010420D01*
X023815Y010555D02*
X023995Y010555D01*
X023995Y010510D01*
X025895Y012985D02*
X026075Y012985D01*
X025985Y012985D02*
X025985Y013255D01*
X025895Y013165D01*
X016013Y008138D02*
X015833Y008138D01*
X015923Y008138D02*
X015923Y007868D01*
X015718Y007868D02*
X015718Y008138D01*
X015538Y008138D02*
X015718Y007868D01*
X015538Y007868D02*
X015538Y008138D01*
X015432Y008138D02*
X015342Y008138D01*
X015387Y008138D02*
X015387Y007868D01*
X015342Y007868D02*
X015432Y007868D01*
X015227Y007868D02*
X015047Y007868D01*
X015227Y008048D01*
X015227Y008093D01*
X015182Y008138D01*
X015092Y008138D01*
X015047Y008093D01*
X014933Y008093D02*
X014888Y008138D01*
X014753Y008138D01*
X014753Y007868D01*
X014888Y007868D01*
X014933Y007913D01*
X014933Y008093D01*
D15*
X014953Y008468D02*
X014953Y008838D01*
X014830Y008838D02*
X015076Y008838D01*
X015244Y008838D02*
X015244Y008468D01*
X015244Y008653D02*
X015491Y008653D01*
X015658Y008653D02*
X015782Y008653D01*
X015905Y008838D02*
X015658Y008838D01*
X015658Y008468D01*
X015905Y008468D01*
X016073Y008468D02*
X016073Y008838D01*
X016258Y008838D01*
X016319Y008776D01*
X016319Y008653D01*
X016258Y008591D01*
X016073Y008591D01*
X016196Y008591D02*
X016319Y008468D01*
X016487Y008468D02*
X016487Y008838D01*
X016734Y008468D01*
X016734Y008838D01*
X016901Y008838D02*
X016901Y008468D01*
X017148Y008468D01*
X017025Y008653D02*
X016901Y008653D01*
X016901Y008838D02*
X017148Y008838D01*
X017316Y008838D02*
X017563Y008838D01*
X017439Y008838D02*
X017439Y008468D01*
X015491Y008468D02*
X015491Y008838D01*
X014662Y008838D02*
X014415Y008838D01*
X014415Y008468D01*
X014662Y008468D01*
X014539Y008653D02*
X014415Y008653D01*
X014086Y009696D02*
X014086Y013404D01*
X017798Y013404D01*
X017798Y009696D01*
X014086Y009696D01*
X013140Y009550D02*
X013140Y009850D01*
X013140Y010250D02*
X013140Y010850D01*
X013140Y011250D02*
X013140Y011850D01*
X013140Y012250D02*
X013140Y012850D01*
X013140Y013250D02*
X013140Y013850D01*
X013179Y013599D02*
X012864Y013599D01*
X012864Y013835D01*
X013140Y014250D02*
X013140Y014850D01*
X013179Y014701D02*
X012864Y014701D01*
X012864Y014465D01*
X014176Y014408D02*
X014176Y015352D01*
X014766Y015352D01*
X015554Y015352D02*
X015987Y015352D01*
X016144Y015195D01*
X016144Y014565D01*
X015987Y014408D01*
X015554Y014408D01*
X014766Y014408D02*
X014176Y014408D01*
X013140Y015250D02*
X013140Y015850D01*
X013140Y016250D02*
X013140Y016850D01*
X013140Y017050D02*
X013138Y017092D01*
X013140Y017134D01*
X013146Y017176D01*
X013156Y017218D01*
X013170Y017258D01*
X013187Y017297D01*
X013208Y017334D01*
X013232Y017369D01*
X013259Y017401D01*
X013289Y017431D01*
X013321Y017458D01*
X013356Y017482D01*
X013393Y017503D01*
X013432Y017520D01*
X013472Y017534D01*
X013514Y017544D01*
X013556Y017550D01*
X013598Y017552D01*
X013640Y017550D01*
X013840Y017550D02*
X014440Y017550D01*
X014840Y017550D02*
X015440Y017550D01*
X015840Y017550D02*
X016440Y017550D01*
X016840Y017550D02*
X017440Y017550D01*
X017640Y017550D02*
X017682Y017552D01*
X017724Y017550D01*
X017766Y017544D01*
X017808Y017534D01*
X017848Y017520D01*
X017887Y017503D01*
X017924Y017482D01*
X017959Y017458D01*
X017991Y017431D01*
X018021Y017401D01*
X018048Y017369D01*
X018072Y017334D01*
X018093Y017297D01*
X018110Y017258D01*
X018124Y017218D01*
X018134Y017176D01*
X018140Y017134D01*
X018142Y017092D01*
X018140Y017050D01*
X018140Y016850D02*
X018140Y016250D01*
X020318Y016194D02*
X020318Y016784D01*
X021262Y016784D01*
X021262Y016194D01*
X021262Y015406D02*
X021262Y014973D01*
X021105Y014816D01*
X020475Y014816D01*
X020318Y014973D01*
X020318Y015406D01*
X017200Y018081D02*
X017200Y018419D01*
X016080Y018419D02*
X016080Y018081D01*
X014988Y018043D02*
X014988Y018413D01*
X014864Y018289D01*
X014741Y018413D01*
X014741Y018043D01*
X014573Y018104D02*
X014573Y018351D01*
X014511Y018413D01*
X014388Y018413D01*
X014326Y018351D01*
X014326Y018104D01*
X014388Y018043D01*
X014511Y018043D01*
X014573Y018104D01*
X014159Y018043D02*
X014035Y018166D01*
X014097Y018166D02*
X013912Y018166D01*
X013912Y018043D02*
X013912Y018413D01*
X014097Y018413D01*
X014159Y018351D01*
X014159Y018228D01*
X014097Y018166D01*
X013744Y018228D02*
X013744Y018351D01*
X013683Y018413D01*
X013498Y018413D01*
X013498Y018043D01*
X013498Y018166D02*
X013683Y018166D01*
X013744Y018228D01*
X013330Y018413D02*
X013083Y018413D01*
X013083Y018043D01*
X013330Y018043D01*
X013207Y018228D02*
X013083Y018228D01*
X012916Y018413D02*
X012669Y018413D01*
X012669Y018043D01*
X012916Y018043D01*
X012792Y018228D02*
X012669Y018228D01*
X012590Y020050D02*
X012340Y020300D01*
X012090Y020050D01*
X011590Y020050D01*
X011340Y020300D01*
X011090Y020050D01*
X010590Y020050D01*
X010340Y020300D01*
X010090Y020050D01*
X009590Y020050D01*
X009340Y020300D01*
X009090Y020050D01*
X008590Y020050D01*
X008340Y020300D01*
X008340Y020800D01*
X008590Y021050D01*
X009090Y021050D01*
X009340Y020800D01*
X009590Y021050D01*
X010090Y021050D01*
X010340Y020800D01*
X010590Y021050D01*
X011090Y021050D01*
X011340Y020800D01*
X011590Y021050D01*
X012090Y021050D01*
X012340Y020800D01*
X012590Y021050D01*
X013090Y021050D01*
X013340Y020800D01*
X013590Y021050D01*
X014090Y021050D01*
X014340Y020800D01*
X014590Y021050D01*
X015090Y021050D01*
X015340Y020800D01*
X015590Y021050D01*
X016090Y021050D01*
X016340Y020800D01*
X016590Y021050D01*
X017090Y021050D01*
X017340Y020800D01*
X017590Y021050D01*
X018090Y021050D01*
X018340Y020800D01*
X018340Y020300D01*
X018090Y020050D01*
X017590Y020050D01*
X017340Y020300D01*
X017090Y020050D01*
X016590Y020050D01*
X016340Y020300D01*
X016090Y020050D01*
X015590Y020050D01*
X015340Y020300D01*
X015090Y020050D01*
X014590Y020050D01*
X014340Y020300D01*
X014090Y020050D01*
X013590Y020050D01*
X013340Y020300D01*
X013090Y020050D01*
X012590Y020050D01*
X018940Y020300D02*
X018940Y020800D01*
X019190Y021050D01*
X019690Y021050D01*
X019940Y020800D01*
X020190Y021050D01*
X020690Y021050D01*
X020940Y020800D01*
X021190Y021050D01*
X021690Y021050D01*
X021940Y020800D01*
X022190Y021050D01*
X022690Y021050D01*
X022940Y020800D01*
X023190Y021050D01*
X023690Y021050D01*
X023940Y020800D01*
X024190Y021050D01*
X024690Y021050D01*
X024940Y020800D01*
X025190Y021050D01*
X025690Y021050D01*
X025940Y020800D01*
X026190Y021050D01*
X026690Y021050D01*
X026940Y020800D01*
X026940Y020300D01*
X026690Y020050D01*
X026190Y020050D01*
X025940Y020300D01*
X025690Y020050D01*
X025190Y020050D01*
X024940Y020300D01*
X024690Y020050D01*
X024190Y020050D01*
X023940Y020300D01*
X023690Y020050D01*
X023190Y020050D01*
X022940Y020300D01*
X022690Y020050D01*
X022190Y020050D01*
X021940Y020300D01*
X021690Y020050D01*
X021190Y020050D01*
X020940Y020300D01*
X020690Y020050D01*
X020190Y020050D01*
X019940Y020300D01*
X019690Y020050D01*
X019190Y020050D01*
X018940Y020300D01*
X026423Y016531D02*
X026423Y016350D01*
X026545Y016472D01*
X026545Y016224D01*
X026419Y016350D01*
X026423Y016350D02*
X026423Y016169D01*
X026423Y015781D02*
X026423Y015600D01*
X026545Y015722D01*
X026545Y015474D01*
X026419Y015600D01*
X026423Y015600D02*
X026423Y015419D01*
X026566Y014401D02*
X026251Y014401D01*
X026566Y014401D02*
X026566Y014165D01*
X026730Y013570D02*
X026853Y013570D01*
X026792Y013570D02*
X026792Y013200D01*
X026853Y013200D02*
X026730Y013200D01*
X026566Y013299D02*
X026251Y013299D01*
X026566Y013299D02*
X026566Y013535D01*
X027006Y013509D02*
X027006Y013262D01*
X027068Y013200D01*
X027191Y013200D01*
X027253Y013262D01*
X027421Y013262D02*
X027482Y013200D01*
X027606Y013200D01*
X027667Y013262D01*
X027667Y013323D01*
X027606Y013385D01*
X027482Y013385D01*
X027421Y013447D01*
X027421Y013509D01*
X027482Y013570D01*
X027606Y013570D01*
X027667Y013509D01*
X027835Y013570D02*
X028020Y013570D01*
X028082Y013509D01*
X028082Y013385D01*
X028020Y013323D01*
X027835Y013323D01*
X027835Y013200D02*
X027835Y013570D01*
X027253Y013509D02*
X027191Y013570D01*
X027068Y013570D01*
X027006Y013509D01*
X028620Y014540D02*
X028620Y014787D01*
X028620Y014663D02*
X028990Y014663D01*
X028990Y014954D02*
X028620Y014954D01*
X028620Y015201D01*
X028620Y015369D02*
X028743Y015492D01*
X028620Y015616D01*
X028990Y015616D01*
X028990Y015783D02*
X028620Y015783D01*
X028620Y015968D01*
X028681Y016030D01*
X028805Y016030D01*
X028867Y015968D01*
X028867Y015783D01*
X028990Y015369D02*
X028620Y015369D01*
X028805Y015078D02*
X028805Y014954D01*
X028990Y014954D02*
X028990Y015201D01*
X031495Y014900D02*
X031865Y014900D01*
X031495Y014654D01*
X031865Y014654D01*
X031803Y014486D02*
X031556Y014486D01*
X031495Y014424D01*
X031495Y014301D01*
X031556Y014239D01*
X031803Y014239D01*
X031865Y014301D01*
X031865Y014424D01*
X031803Y014486D01*
X031865Y014086D02*
X031865Y013963D01*
X031865Y014025D02*
X031495Y014025D01*
X031495Y014086D02*
X031495Y013963D01*
X031556Y013796D02*
X031495Y013734D01*
X031495Y013610D01*
X031556Y013549D01*
X031618Y013549D01*
X031680Y013610D01*
X031680Y013734D01*
X031742Y013796D01*
X031803Y013796D01*
X031865Y013734D01*
X031865Y013610D01*
X031803Y013549D01*
X031803Y013381D02*
X031495Y013381D01*
X031495Y013134D02*
X031803Y013134D01*
X031865Y013196D01*
X031865Y013319D01*
X031803Y013381D01*
X031865Y012967D02*
X031865Y012720D01*
X031495Y012720D01*
X031556Y012552D02*
X031495Y012491D01*
X031495Y012367D01*
X031556Y012306D01*
X031803Y012306D01*
X031865Y012367D01*
X031865Y012491D01*
X031803Y012552D01*
X031865Y012138D02*
X031495Y012138D01*
X031495Y011891D02*
X031865Y012138D01*
X031865Y011891D02*
X031495Y011891D01*
X031495Y011738D02*
X031495Y011615D01*
X031495Y011677D02*
X031865Y011677D01*
X031865Y011738D02*
X031865Y011615D01*
X031078Y010063D02*
X030788Y010063D01*
X030788Y008663D01*
X031078Y008663D01*
X030562Y008381D02*
X030562Y007948D01*
X030405Y007791D01*
X029775Y007791D01*
X029618Y007948D01*
X029618Y008381D01*
X029618Y009169D02*
X029618Y009759D01*
X030562Y009759D01*
X030562Y009169D01*
X033078Y008663D02*
X033368Y008663D01*
X033368Y010063D01*
X033078Y010063D01*
X026288Y009188D02*
X026288Y008818D01*
X026288Y009003D02*
X026041Y009003D01*
X025873Y008941D02*
X025873Y008879D01*
X025811Y008818D01*
X025688Y008818D01*
X025626Y008879D01*
X025688Y009003D02*
X025811Y009003D01*
X025873Y008941D01*
X025873Y009126D02*
X025811Y009188D01*
X025688Y009188D01*
X025626Y009126D01*
X025626Y009064D01*
X025688Y009003D01*
X025459Y009003D02*
X025212Y009003D01*
X025212Y009064D02*
X025212Y008818D01*
X025044Y008818D02*
X024798Y008818D01*
X024798Y009188D01*
X024630Y009188D02*
X024383Y009188D01*
X024383Y008818D01*
X024383Y009003D02*
X024507Y009003D01*
X025212Y009064D02*
X025335Y009188D01*
X025459Y009064D01*
X025459Y008818D01*
X026041Y008818D02*
X026041Y009188D01*
X025215Y010225D02*
X024965Y009975D01*
X024465Y009975D01*
X024215Y010225D01*
X024215Y010725D01*
X024465Y010975D01*
X024965Y010975D01*
X025215Y010725D01*
X025215Y010225D01*
X023801Y009064D02*
X023801Y008818D01*
X023801Y009003D02*
X023555Y009003D01*
X023555Y009064D02*
X023555Y008818D01*
X023264Y008818D02*
X023264Y009188D01*
X023387Y009188D02*
X023140Y009188D01*
X022973Y009126D02*
X022973Y008879D01*
X022911Y008818D01*
X022788Y008818D01*
X022726Y008879D01*
X022726Y009126D01*
X022788Y009188D01*
X022911Y009188D01*
X022973Y009126D01*
X023555Y009064D02*
X023678Y009188D01*
X023801Y009064D01*
X020395Y009072D02*
X020395Y008824D01*
X020269Y008950D01*
X020273Y008950D02*
X020395Y009072D01*
X020273Y009131D02*
X020273Y008950D01*
X020273Y008769D01*
X020273Y008531D02*
X020273Y008350D01*
X020395Y008472D01*
X020395Y008224D01*
X020269Y008350D01*
X020273Y008350D02*
X020273Y008169D01*
X020273Y007931D02*
X020273Y007750D01*
X020395Y007872D01*
X020395Y007624D01*
X020269Y007750D01*
X020273Y007750D02*
X020273Y007569D01*
X020273Y007331D02*
X020273Y007150D01*
X020395Y007272D01*
X020395Y007024D01*
X020269Y007150D01*
X020273Y007150D02*
X020273Y006969D01*
X018140Y005850D02*
X018140Y005250D01*
X018140Y005050D02*
X018142Y005008D01*
X018140Y004966D01*
X018134Y004924D01*
X018124Y004882D01*
X018110Y004842D01*
X018093Y004803D01*
X018072Y004766D01*
X018048Y004731D01*
X018021Y004699D01*
X017991Y004669D01*
X017959Y004642D01*
X017924Y004618D01*
X017887Y004597D01*
X017848Y004580D01*
X017808Y004566D01*
X017766Y004556D01*
X017724Y004550D01*
X017682Y004548D01*
X017640Y004550D01*
X017440Y004550D02*
X016840Y004550D01*
X016080Y004040D02*
X016080Y006400D01*
X013500Y006400D01*
X013500Y004040D01*
X013140Y004550D02*
X012840Y004550D01*
X012240Y004550D02*
X011840Y004550D01*
X011690Y004550D02*
X011940Y004800D01*
X011940Y005300D01*
X011690Y005550D01*
X011940Y005800D01*
X011940Y006300D01*
X011690Y006550D01*
X011940Y006800D01*
X011940Y007300D01*
X011690Y007550D01*
X011940Y007800D01*
X011940Y008300D01*
X011690Y008550D01*
X011190Y008550D01*
X010940Y008300D01*
X010940Y007800D01*
X011190Y007550D01*
X010940Y007300D01*
X010940Y006800D01*
X011190Y006550D01*
X010940Y006300D01*
X010940Y005800D01*
X011190Y005550D01*
X010940Y005300D01*
X010940Y004800D01*
X011190Y004550D01*
X011690Y004550D01*
X010940Y005050D02*
X010940Y008050D01*
X011840Y008550D02*
X012140Y008550D01*
X012112Y009016D02*
X011168Y009016D01*
X011168Y009606D01*
X012112Y009606D02*
X012112Y009016D01*
X012140Y008550D02*
X012200Y008552D01*
X012261Y008557D01*
X012320Y008566D01*
X012379Y008579D01*
X012438Y008595D01*
X012495Y008615D01*
X012550Y008638D01*
X012605Y008665D01*
X012657Y008694D01*
X012708Y008727D01*
X012757Y008763D01*
X012803Y008801D01*
X012847Y008843D01*
X012889Y008887D01*
X012927Y008933D01*
X012963Y008982D01*
X012996Y009033D01*
X013025Y009085D01*
X013052Y009140D01*
X013075Y009195D01*
X013095Y009252D01*
X013111Y009311D01*
X013124Y009370D01*
X013133Y009429D01*
X013138Y009490D01*
X013140Y009550D01*
X012112Y010394D02*
X012112Y010827D01*
X011955Y010984D01*
X011325Y010984D01*
X011168Y010827D01*
X011168Y010394D01*
X008740Y012720D02*
X006240Y012720D01*
X004940Y012720D02*
X000140Y012720D01*
X000140Y006380D01*
X004940Y006380D01*
X004917Y006070D02*
X004854Y006007D01*
X004854Y005753D01*
X004917Y005690D01*
X005044Y005690D01*
X005107Y005753D01*
X005107Y006007D02*
X005044Y006070D01*
X004917Y006070D01*
X004684Y006007D02*
X004620Y006070D01*
X004430Y006070D01*
X004430Y005690D01*
X004620Y005690D01*
X004684Y005753D01*
X004684Y006007D01*
X004028Y006070D02*
X004028Y005817D01*
X003901Y005690D01*
X003774Y005817D01*
X003774Y006070D01*
X003604Y006007D02*
X003604Y005944D01*
X003351Y005690D01*
X003604Y005690D01*
X003181Y005690D02*
X002927Y005690D01*
X003054Y005690D02*
X003054Y006070D01*
X002927Y005944D01*
X002757Y005880D02*
X002504Y005880D01*
X002334Y006007D02*
X002080Y005753D01*
X002080Y005690D01*
X001871Y005472D02*
X001871Y001928D01*
X003958Y001928D01*
X005808Y001928D02*
X006084Y001928D01*
X006084Y002755D01*
X006690Y002837D02*
X006753Y002900D01*
X006880Y002900D01*
X006944Y002837D01*
X006944Y002774D01*
X006690Y002520D01*
X006944Y002520D01*
X007114Y002520D02*
X007177Y002520D01*
X007177Y002583D01*
X007114Y002583D01*
X007114Y002520D01*
X007325Y002520D02*
X007579Y002520D01*
X007452Y002520D02*
X007452Y002900D01*
X007325Y002774D01*
X007749Y002774D02*
X007749Y002520D01*
X007876Y002520D02*
X007876Y002710D01*
X007939Y002774D01*
X008002Y002710D01*
X008002Y002520D01*
X008172Y002520D02*
X008172Y002774D01*
X008236Y002774D01*
X008299Y002710D01*
X008363Y002774D01*
X008426Y002710D01*
X008426Y002520D01*
X008299Y002520D02*
X008299Y002710D01*
X007876Y002710D02*
X007812Y002774D01*
X007749Y002774D01*
X009746Y004413D02*
X010534Y004413D01*
X010140Y004413D02*
X010534Y004953D01*
X009746Y004953D01*
X010140Y004413D01*
X008740Y006380D02*
X006240Y006380D01*
X006084Y005472D02*
X006084Y004645D01*
X006084Y005472D02*
X001871Y005472D01*
X002080Y006070D02*
X002334Y006070D01*
X002334Y006007D01*
X003351Y006007D02*
X003414Y006070D01*
X003541Y006070D01*
X003604Y006007D01*
X008740Y006380D02*
X008740Y012720D01*
X003162Y014211D02*
X002434Y014211D01*
X003162Y014211D02*
X003162Y014290D01*
X001646Y014211D02*
X001253Y014211D01*
X001469Y014211D02*
X001469Y016889D01*
X001646Y016889D02*
X001253Y016889D01*
X002434Y016889D02*
X003162Y016889D01*
X003162Y016810D01*
X002489Y018777D02*
X002489Y018958D01*
X002367Y018836D01*
X002367Y019084D01*
X002493Y018958D01*
X002489Y018958D02*
X002489Y019139D01*
X002489Y020310D02*
X002489Y020491D01*
X002367Y020369D01*
X002367Y020617D01*
X002493Y020491D01*
X002489Y020491D02*
X002489Y020672D01*
X020273Y010331D02*
X020273Y010150D01*
X020395Y010272D01*
X020395Y010024D01*
X020269Y010150D01*
X020273Y010150D02*
X020273Y009969D01*
X020273Y009731D02*
X020273Y009550D01*
X020395Y009672D01*
X020395Y009424D01*
X020269Y009550D01*
X020273Y009550D02*
X020273Y009369D01*
X024098Y005877D02*
X024221Y006000D01*
X024344Y005877D01*
X024344Y005630D01*
X024512Y005692D02*
X024574Y005630D01*
X024697Y005630D01*
X024759Y005692D01*
X024759Y006000D01*
X024926Y006000D02*
X025173Y006000D01*
X025050Y006000D02*
X025050Y005630D01*
X025341Y005630D02*
X025341Y006000D01*
X025341Y005815D02*
X025588Y005815D01*
X025588Y006000D02*
X025588Y005630D01*
X024512Y005692D02*
X024512Y006000D01*
X024344Y005815D02*
X024098Y005815D01*
X024098Y005877D02*
X024098Y005630D01*
X023024Y004272D02*
X022434Y004272D01*
X023024Y004272D02*
X023024Y003328D01*
X022434Y003328D01*
X021646Y003328D02*
X021213Y003328D01*
X021056Y003485D01*
X021056Y004115D01*
X021213Y004272D01*
X021646Y004272D01*
X020930Y004300D02*
X020640Y004300D01*
X020930Y004300D02*
X020930Y005700D01*
X020640Y005700D01*
X018640Y005700D02*
X018350Y005700D01*
X018350Y004300D01*
X018640Y004300D01*
X018690Y002050D02*
X018190Y002050D01*
X017940Y001800D01*
X017690Y002050D01*
X017190Y002050D01*
X016940Y001800D01*
X016690Y002050D01*
X016190Y002050D01*
X015940Y001800D01*
X015690Y002050D01*
X015190Y002050D01*
X014940Y001800D01*
X014690Y002050D01*
X014190Y002050D01*
X013940Y001800D01*
X013690Y002050D01*
X013190Y002050D01*
X012940Y001800D01*
X012690Y002050D01*
X012190Y002050D01*
X011940Y001800D01*
X011940Y001300D01*
X012190Y001050D01*
X012690Y001050D01*
X012940Y001300D01*
X013190Y001050D01*
X013690Y001050D01*
X013940Y001300D01*
X014190Y001050D01*
X014690Y001050D01*
X014940Y001300D01*
X015190Y001050D01*
X015690Y001050D01*
X015940Y001300D01*
X016190Y001050D01*
X016690Y001050D01*
X016940Y001300D01*
X017190Y001050D01*
X017690Y001050D01*
X017940Y001300D01*
X018190Y001050D01*
X018690Y001050D01*
X018940Y001300D01*
X019190Y001050D01*
X019690Y001050D01*
X019940Y001300D01*
X019940Y001800D01*
X019690Y002050D01*
X019190Y002050D01*
X018940Y001800D01*
X018690Y002050D01*
X020940Y001800D02*
X020940Y001300D01*
X021190Y001050D01*
X021690Y001050D01*
X021940Y001300D01*
X022190Y001050D01*
X022690Y001050D01*
X022940Y001300D01*
X023190Y001050D01*
X023690Y001050D01*
X023940Y001300D01*
X024190Y001050D01*
X024690Y001050D01*
X024940Y001300D01*
X025190Y001050D01*
X025690Y001050D01*
X025940Y001300D01*
X026190Y001050D01*
X026690Y001050D01*
X026940Y001300D01*
X026940Y001800D01*
X026690Y002050D01*
X026190Y002050D01*
X025940Y001800D01*
X025690Y002050D01*
X025190Y002050D01*
X024940Y001800D01*
X024690Y002050D01*
X024190Y002050D01*
X023940Y001800D01*
X023690Y002050D01*
X023190Y002050D01*
X022940Y001800D01*
X022690Y002050D01*
X022190Y002050D01*
X021940Y001800D01*
X021690Y002050D01*
X021190Y002050D01*
X020940Y001800D01*
X031507Y016515D02*
X031507Y016700D01*
X031569Y016762D01*
X031692Y016762D01*
X031754Y016700D01*
X031754Y016515D01*
X031754Y016638D02*
X031878Y016762D01*
X031878Y016929D02*
X031507Y016929D01*
X031507Y017176D01*
X031569Y017344D02*
X031631Y017344D01*
X031692Y017405D01*
X031692Y017529D01*
X031754Y017591D01*
X031816Y017591D01*
X031878Y017529D01*
X031878Y017405D01*
X031816Y017344D01*
X031878Y017176D02*
X031878Y016929D01*
X031692Y016929D02*
X031692Y017053D01*
X031569Y017344D02*
X031507Y017405D01*
X031507Y017529D01*
X031569Y017591D01*
X031507Y017758D02*
X031878Y017758D01*
X031878Y018005D01*
X031692Y017882D02*
X031692Y017758D01*
X031507Y017758D02*
X031507Y018005D01*
X031507Y018172D02*
X031507Y018419D01*
X031507Y018296D02*
X031878Y018296D01*
X031878Y016515D02*
X031507Y016515D01*
D16*
X026440Y020000D03*
X025440Y020000D03*
X024440Y020000D03*
X023440Y020000D03*
X022440Y020000D03*
X021440Y020000D03*
X020440Y020000D03*
X019440Y020000D03*
X017840Y020000D03*
X016840Y020000D03*
X015840Y020000D03*
X014840Y020000D03*
X013840Y020000D03*
X012840Y020000D03*
X011840Y020000D03*
X010840Y020000D03*
X009840Y020000D03*
X008840Y020000D03*
X013440Y002100D03*
X014440Y002100D03*
X015440Y002100D03*
X016440Y002100D03*
X017440Y002100D03*
X018440Y002100D03*
X019440Y002100D03*
X021440Y002100D03*
X022440Y002100D03*
X023440Y002100D03*
X024440Y002100D03*
X025440Y002100D03*
X026440Y002100D03*
D17*
X009865Y006325D02*
X009014Y006325D01*
X009014Y006750D01*
X009156Y006892D01*
X009440Y006892D01*
X009581Y006750D01*
X009581Y006325D01*
X009440Y007246D02*
X009723Y007246D01*
X009865Y007388D01*
X009865Y007671D01*
X009723Y007813D01*
X009440Y007813D01*
X009298Y007671D01*
X009298Y007388D01*
X009440Y007246D01*
X009440Y008167D02*
X009440Y008450D01*
X009865Y008167D02*
X009865Y008734D01*
X009014Y008734D02*
X009014Y008167D01*
X009865Y008167D01*
D18*
X007040Y003350D02*
X006940Y003350D01*
X007040Y003351D02*
X007070Y003357D01*
X007100Y003359D01*
X007130Y003358D01*
X007160Y003352D01*
X007189Y003344D01*
X007216Y003331D01*
X007242Y003316D01*
X007266Y003297D01*
X007287Y003276D01*
X007306Y003252D01*
X007321Y003226D01*
X007334Y003199D01*
X007342Y003170D01*
X007348Y003140D01*
X007349Y003110D01*
X007347Y003080D01*
X007341Y003050D01*
X018290Y015600D02*
X018290Y017900D01*
X018292Y017959D01*
X018298Y018017D01*
X018307Y018076D01*
X018321Y018133D01*
X018338Y018189D01*
X018359Y018244D01*
X018383Y018298D01*
X018411Y018350D01*
X018442Y018400D01*
X018476Y018448D01*
X018513Y018493D01*
X018554Y018536D01*
X018597Y018577D01*
X018642Y018614D01*
X018690Y018648D01*
X018740Y018679D01*
X018792Y018707D01*
X018846Y018731D01*
X018901Y018752D01*
X018957Y018769D01*
X019014Y018783D01*
X019073Y018792D01*
X019131Y018798D01*
X019190Y018800D01*
X019249Y018798D01*
X019307Y018792D01*
X019366Y018783D01*
X019423Y018769D01*
X019479Y018752D01*
X019534Y018731D01*
X019588Y018707D01*
X019640Y018679D01*
X019690Y018648D01*
X019738Y018614D01*
X019783Y018577D01*
X019826Y018536D01*
X019867Y018493D01*
X019904Y018448D01*
X019938Y018400D01*
X019969Y018350D01*
X019997Y018298D01*
X020021Y018244D01*
X020042Y018189D01*
X020059Y018133D01*
X020073Y018076D01*
X020082Y018017D01*
X020088Y017959D01*
X020090Y017900D01*
X020090Y015600D01*
X020088Y015541D01*
X020082Y015483D01*
X020073Y015424D01*
X020059Y015367D01*
X020042Y015311D01*
X020021Y015256D01*
X019997Y015202D01*
X019969Y015150D01*
X019938Y015100D01*
X019904Y015052D01*
X019867Y015007D01*
X019826Y014964D01*
X019783Y014923D01*
X019738Y014886D01*
X019690Y014852D01*
X019640Y014821D01*
X019588Y014793D01*
X019534Y014769D01*
X019479Y014748D01*
X019423Y014731D01*
X019366Y014717D01*
X019307Y014708D01*
X019249Y014702D01*
X019190Y014700D01*
X019131Y014702D01*
X019073Y014708D01*
X019014Y014717D01*
X018957Y014731D01*
X018901Y014748D01*
X018846Y014769D01*
X018792Y014793D01*
X018740Y014821D01*
X018690Y014852D01*
X018642Y014886D01*
X018597Y014923D01*
X018554Y014964D01*
X018513Y015007D01*
X018476Y015052D01*
X018442Y015100D01*
X018411Y015150D01*
X018383Y015202D01*
X018359Y015256D01*
X018338Y015311D01*
X018321Y015367D01*
X018307Y015424D01*
X018298Y015483D01*
X018292Y015541D01*
X018290Y015600D01*
X021240Y017000D02*
X023540Y017000D01*
X023599Y017002D01*
X023657Y017008D01*
X023716Y017017D01*
X023773Y017031D01*
X023829Y017048D01*
X023884Y017069D01*
X023938Y017093D01*
X023990Y017121D01*
X024040Y017152D01*
X024088Y017186D01*
X024133Y017223D01*
X024176Y017264D01*
X024217Y017307D01*
X024254Y017352D01*
X024288Y017400D01*
X024319Y017450D01*
X024347Y017502D01*
X024371Y017556D01*
X024392Y017611D01*
X024409Y017667D01*
X024423Y017724D01*
X024432Y017783D01*
X024438Y017841D01*
X024440Y017900D01*
X024438Y017959D01*
X024432Y018017D01*
X024423Y018076D01*
X024409Y018133D01*
X024392Y018189D01*
X024371Y018244D01*
X024347Y018298D01*
X024319Y018350D01*
X024288Y018400D01*
X024254Y018448D01*
X024217Y018493D01*
X024176Y018536D01*
X024133Y018577D01*
X024088Y018614D01*
X024040Y018648D01*
X023990Y018679D01*
X023938Y018707D01*
X023884Y018731D01*
X023829Y018752D01*
X023773Y018769D01*
X023716Y018783D01*
X023657Y018792D01*
X023599Y018798D01*
X023540Y018800D01*
X021240Y018800D01*
X021181Y018798D01*
X021123Y018792D01*
X021064Y018783D01*
X021007Y018769D01*
X020951Y018752D01*
X020896Y018731D01*
X020842Y018707D01*
X020790Y018679D01*
X020740Y018648D01*
X020692Y018614D01*
X020647Y018577D01*
X020604Y018536D01*
X020563Y018493D01*
X020526Y018448D01*
X020492Y018400D01*
X020461Y018350D01*
X020433Y018298D01*
X020409Y018244D01*
X020388Y018189D01*
X020371Y018133D01*
X020357Y018076D01*
X020348Y018017D01*
X020342Y017959D01*
X020340Y017900D01*
X020342Y017841D01*
X020348Y017783D01*
X020357Y017724D01*
X020371Y017667D01*
X020388Y017611D01*
X020409Y017556D01*
X020433Y017502D01*
X020461Y017450D01*
X020492Y017400D01*
X020526Y017352D01*
X020563Y017307D01*
X020604Y017264D01*
X020647Y017223D01*
X020692Y017186D01*
X020740Y017152D01*
X020790Y017121D01*
X020842Y017093D01*
X020896Y017069D01*
X020951Y017048D01*
X021007Y017031D01*
X021064Y017017D01*
X021123Y017008D01*
X021181Y017002D01*
X021240Y017000D01*
X009640Y016250D02*
X009640Y018550D01*
X009638Y018609D01*
X009632Y018667D01*
X009623Y018726D01*
X009609Y018783D01*
X009592Y018839D01*
X009571Y018894D01*
X009547Y018948D01*
X009519Y019000D01*
X009488Y019050D01*
X009454Y019098D01*
X009417Y019143D01*
X009376Y019186D01*
X009333Y019227D01*
X009288Y019264D01*
X009240Y019298D01*
X009190Y019329D01*
X009138Y019357D01*
X009084Y019381D01*
X009029Y019402D01*
X008973Y019419D01*
X008916Y019433D01*
X008857Y019442D01*
X008799Y019448D01*
X008740Y019450D01*
X008681Y019448D01*
X008623Y019442D01*
X008564Y019433D01*
X008507Y019419D01*
X008451Y019402D01*
X008396Y019381D01*
X008342Y019357D01*
X008290Y019329D01*
X008240Y019298D01*
X008192Y019264D01*
X008147Y019227D01*
X008104Y019186D01*
X008063Y019143D01*
X008026Y019098D01*
X007992Y019050D01*
X007961Y019000D01*
X007933Y018948D01*
X007909Y018894D01*
X007888Y018839D01*
X007871Y018783D01*
X007857Y018726D01*
X007848Y018667D01*
X007842Y018609D01*
X007840Y018550D01*
X007840Y016250D01*
X007842Y016191D01*
X007848Y016133D01*
X007857Y016074D01*
X007871Y016017D01*
X007888Y015961D01*
X007909Y015906D01*
X007933Y015852D01*
X007961Y015800D01*
X007992Y015750D01*
X008026Y015702D01*
X008063Y015657D01*
X008104Y015614D01*
X008147Y015573D01*
X008192Y015536D01*
X008240Y015502D01*
X008290Y015471D01*
X008342Y015443D01*
X008396Y015419D01*
X008451Y015398D01*
X008507Y015381D01*
X008564Y015367D01*
X008623Y015358D01*
X008681Y015352D01*
X008740Y015350D01*
X008799Y015352D01*
X008857Y015358D01*
X008916Y015367D01*
X008973Y015381D01*
X009029Y015398D01*
X009084Y015419D01*
X009138Y015443D01*
X009190Y015471D01*
X009240Y015502D01*
X009288Y015536D01*
X009333Y015573D01*
X009376Y015614D01*
X009417Y015657D01*
X009454Y015702D01*
X009488Y015750D01*
X009519Y015800D01*
X009547Y015852D01*
X009571Y015906D01*
X009592Y015961D01*
X009609Y016017D01*
X009623Y016074D01*
X009632Y016133D01*
X009638Y016191D01*
X009640Y016250D01*
D19*
X006305Y018685D02*
X006147Y018685D01*
X006305Y018685D02*
X006305Y018843D01*
X004533Y018685D02*
X004375Y018685D01*
X004375Y018843D01*
X004375Y020457D02*
X004375Y020615D01*
X004533Y020615D01*
X006147Y020615D02*
X006305Y020615D01*
X006305Y020457D01*
X004343Y010358D02*
X004420Y010281D01*
X004420Y010128D01*
X004343Y010051D01*
X004190Y010051D02*
X004113Y010205D01*
X004113Y010281D01*
X004190Y010358D01*
X004343Y010358D01*
X004190Y010051D02*
X003960Y010051D01*
X003960Y010358D01*
X004190Y009898D02*
X004190Y009591D01*
X003960Y009821D01*
X004420Y009821D01*
X004343Y009361D02*
X003960Y009361D01*
X003960Y009437D02*
X003960Y009284D01*
X004343Y009361D02*
X004420Y009284D01*
X004420Y009207D01*
X004343Y009130D01*
X004420Y008977D02*
X004267Y008823D01*
X004267Y008900D02*
X004267Y008670D01*
X004420Y008670D02*
X003960Y008670D01*
X003960Y008900D01*
X004036Y008977D01*
X004190Y008977D01*
X004267Y008900D01*
X006810Y006030D02*
X007716Y006030D01*
X008464Y006030D02*
X009370Y006030D01*
X009370Y004140D01*
X008700Y003470D01*
X008464Y003470D01*
X008960Y003330D02*
X010850Y003330D01*
X011520Y002660D01*
X011520Y002424D01*
X011520Y001676D02*
X011520Y001440D01*
X010850Y000770D01*
X008960Y000770D01*
X008960Y001676D01*
X008960Y002424D02*
X008960Y003330D01*
X009390Y003810D02*
X009390Y005590D01*
X010890Y005590D02*
X010890Y003810D01*
X007716Y003589D02*
X007652Y003611D01*
X007589Y003638D01*
X007527Y003668D01*
X007468Y003701D01*
X007410Y003737D01*
X007354Y003777D01*
X007301Y003820D01*
X007250Y003865D01*
X007202Y003913D01*
X007157Y003964D01*
X007114Y004018D01*
X007075Y004074D01*
X007038Y004131D01*
X007005Y004191D01*
X006976Y004253D01*
X006950Y004316D01*
X006927Y004380D01*
X006908Y004446D01*
X006893Y004513D01*
X006882Y004580D01*
X006874Y004648D01*
X006870Y004716D01*
X006870Y004784D01*
X006874Y004852D01*
X006882Y004920D01*
X006893Y004987D01*
X006908Y005054D01*
X006927Y005120D01*
X006950Y005184D01*
X006976Y005247D01*
X007005Y005309D01*
X007038Y005369D01*
X007075Y005426D01*
X007114Y005482D01*
X007157Y005536D01*
X007202Y005587D01*
X007250Y005635D01*
X007301Y005680D01*
X007354Y005723D01*
X007410Y005763D01*
X007468Y005799D01*
X007527Y005832D01*
X007589Y005862D01*
X007652Y005889D01*
X007716Y005911D01*
X006810Y006030D02*
X006810Y004140D01*
X007480Y003470D01*
X007716Y003470D01*
X008464Y003589D02*
X008528Y003611D01*
X008591Y003638D01*
X008653Y003668D01*
X008712Y003701D01*
X008770Y003737D01*
X008826Y003777D01*
X008879Y003820D01*
X008930Y003865D01*
X008978Y003913D01*
X009023Y003964D01*
X009066Y004018D01*
X009105Y004074D01*
X009142Y004131D01*
X009175Y004191D01*
X009204Y004253D01*
X009230Y004316D01*
X009253Y004380D01*
X009272Y004446D01*
X009287Y004513D01*
X009298Y004580D01*
X009306Y004648D01*
X009310Y004716D01*
X009310Y004784D01*
X009306Y004852D01*
X009298Y004920D01*
X009287Y004987D01*
X009272Y005054D01*
X009253Y005120D01*
X009230Y005184D01*
X009204Y005247D01*
X009175Y005309D01*
X009142Y005369D01*
X009105Y005426D01*
X009066Y005482D01*
X009023Y005536D01*
X008978Y005587D01*
X008930Y005635D01*
X008879Y005680D01*
X008826Y005723D01*
X008770Y005763D01*
X008712Y005799D01*
X008653Y005832D01*
X008591Y005862D01*
X008528Y005889D01*
X008464Y005911D01*
X009079Y001676D02*
X009101Y001612D01*
X009128Y001549D01*
X009158Y001487D01*
X009191Y001428D01*
X009227Y001370D01*
X009267Y001314D01*
X009310Y001261D01*
X009355Y001210D01*
X009403Y001162D01*
X009454Y001117D01*
X009508Y001074D01*
X009564Y001035D01*
X009621Y000998D01*
X009681Y000965D01*
X009743Y000936D01*
X009806Y000910D01*
X009870Y000887D01*
X009936Y000868D01*
X010003Y000853D01*
X010070Y000842D01*
X010138Y000834D01*
X010206Y000830D01*
X010274Y000830D01*
X010342Y000834D01*
X010410Y000842D01*
X010477Y000853D01*
X010544Y000868D01*
X010610Y000887D01*
X010674Y000910D01*
X010737Y000936D01*
X010799Y000965D01*
X010859Y000998D01*
X010916Y001035D01*
X010972Y001074D01*
X011026Y001117D01*
X011077Y001162D01*
X011125Y001210D01*
X011170Y001261D01*
X011213Y001314D01*
X011253Y001370D01*
X011289Y001428D01*
X011322Y001487D01*
X011352Y001549D01*
X011379Y001612D01*
X011401Y001676D01*
X011401Y002424D02*
X011379Y002488D01*
X011352Y002551D01*
X011322Y002613D01*
X011289Y002672D01*
X011253Y002730D01*
X011213Y002786D01*
X011170Y002839D01*
X011125Y002890D01*
X011077Y002938D01*
X011026Y002983D01*
X010972Y003026D01*
X010916Y003065D01*
X010859Y003102D01*
X010799Y003135D01*
X010737Y003164D01*
X010674Y003190D01*
X010610Y003213D01*
X010544Y003232D01*
X010477Y003247D01*
X010410Y003258D01*
X010342Y003266D01*
X010274Y003270D01*
X010206Y003270D01*
X010138Y003266D01*
X010070Y003258D01*
X010003Y003247D01*
X009936Y003232D01*
X009870Y003213D01*
X009806Y003190D01*
X009743Y003164D01*
X009681Y003135D01*
X009621Y003102D01*
X009564Y003065D01*
X009508Y003026D01*
X009454Y002983D01*
X009403Y002938D01*
X009355Y002890D01*
X009310Y002839D01*
X009267Y002786D01*
X009227Y002730D01*
X009191Y002672D01*
X009158Y002613D01*
X009128Y002551D01*
X009101Y002488D01*
X009079Y002424D01*
X021085Y002708D02*
X021085Y002908D01*
X021218Y002708D01*
X021218Y002908D01*
X021306Y002874D02*
X021306Y002841D01*
X021339Y002808D01*
X021406Y002808D01*
X021439Y002774D01*
X021439Y002741D01*
X021406Y002708D01*
X021339Y002708D01*
X021306Y002741D01*
X021306Y002874D02*
X021339Y002908D01*
X021406Y002908D01*
X021439Y002874D01*
X021527Y002874D02*
X021527Y002741D01*
X021560Y002708D01*
X021627Y002708D01*
X021660Y002741D01*
X021748Y002774D02*
X021881Y002908D01*
X021748Y002908D02*
X021748Y002708D01*
X021781Y002808D02*
X021881Y002708D01*
X022048Y002720D02*
X022048Y002920D01*
X022181Y002720D01*
X022181Y002920D01*
X022268Y002920D02*
X022335Y002853D01*
X022402Y002920D01*
X022402Y002720D01*
X022489Y002753D02*
X022523Y002720D01*
X022590Y002720D01*
X022623Y002753D01*
X022623Y002887D01*
X022590Y002920D01*
X022523Y002920D01*
X022489Y002887D01*
X022489Y002753D01*
X022710Y002753D02*
X022744Y002720D01*
X022811Y002720D01*
X022844Y002753D01*
X022844Y002787D01*
X022811Y002820D01*
X022744Y002820D01*
X022710Y002853D01*
X022710Y002887D01*
X022744Y002920D01*
X022811Y002920D01*
X022844Y002887D01*
X022931Y002920D02*
X022998Y002920D01*
X022965Y002920D02*
X022965Y002720D01*
X022998Y002720D02*
X022931Y002720D01*
X023098Y002720D02*
X023098Y002920D01*
X023231Y002720D01*
X023231Y002920D01*
X023318Y002920D02*
X023385Y002853D01*
X023452Y002920D01*
X023452Y002720D01*
X023539Y002720D02*
X023606Y002720D01*
X023573Y002720D02*
X023573Y002920D01*
X023606Y002920D02*
X023539Y002920D01*
X023687Y002887D02*
X023687Y002853D01*
X023720Y002820D01*
X023787Y002820D01*
X023820Y002787D01*
X023820Y002753D01*
X023787Y002720D01*
X023720Y002720D01*
X023687Y002753D01*
X023687Y002887D02*
X023720Y002920D01*
X023787Y002920D01*
X023820Y002887D01*
X023908Y002887D02*
X023908Y002753D01*
X023941Y002720D01*
X024008Y002720D01*
X024041Y002753D01*
X024041Y002887D01*
X024008Y002920D01*
X023941Y002920D01*
X023908Y002887D01*
X023318Y002920D02*
X023318Y002720D01*
X022268Y002720D02*
X022268Y002920D01*
X021660Y002874D02*
X021627Y002908D01*
X021560Y002908D01*
X021527Y002874D01*
X025160Y002837D02*
X025160Y002803D01*
X025193Y002770D01*
X025260Y002770D01*
X025293Y002737D01*
X025293Y002703D01*
X025260Y002670D01*
X025193Y002670D01*
X025160Y002703D01*
X025160Y002837D02*
X025193Y002870D01*
X025260Y002870D01*
X025293Y002837D01*
X025381Y002870D02*
X025481Y002870D01*
X025514Y002837D01*
X025514Y002703D01*
X025481Y002670D01*
X025381Y002670D01*
X025381Y002870D01*
X025602Y002803D02*
X025669Y002870D01*
X025735Y002803D01*
X025735Y002670D01*
X025735Y002770D02*
X025602Y002770D01*
X025602Y002803D02*
X025602Y002670D01*
X026160Y002703D02*
X026193Y002670D01*
X026260Y002670D01*
X026293Y002703D01*
X026293Y002737D01*
X026260Y002770D01*
X026193Y002770D01*
X026160Y002803D01*
X026160Y002837D01*
X026193Y002870D01*
X026260Y002870D01*
X026293Y002837D01*
X026381Y002837D02*
X026381Y002703D01*
X026414Y002670D01*
X026481Y002670D01*
X026514Y002703D01*
X026602Y002670D02*
X026735Y002670D01*
X026602Y002670D02*
X026602Y002870D01*
X026514Y002837D02*
X026481Y002870D01*
X026414Y002870D01*
X026381Y002837D01*
D20*
X025940Y012550D03*
D21*
X010240Y015150D03*
D22*
X028550Y013010D02*
X028660Y013120D01*
X028880Y013120D01*
X028715Y013120D02*
X028715Y012900D01*
X028660Y012900D02*
X028550Y013010D01*
X028660Y012900D02*
X028880Y012900D01*
X028715Y012752D02*
X028770Y012697D01*
X028770Y012532D01*
X028880Y012532D02*
X028550Y012532D01*
X028550Y012697D01*
X028605Y012752D01*
X028715Y012752D01*
X028715Y012383D02*
X028715Y012163D01*
X028605Y012273D02*
X028825Y012273D01*
X028880Y012015D02*
X028880Y011795D01*
X028880Y011905D02*
X028550Y011905D01*
X028660Y011795D01*
X028605Y011647D02*
X028825Y011427D01*
X028880Y011482D01*
X028880Y011592D01*
X028825Y011647D01*
X028605Y011647D01*
X028550Y011592D01*
X028550Y011482D01*
X028605Y011427D01*
X028825Y011427D01*
X028715Y011278D02*
X028715Y011058D01*
X028550Y011223D01*
X028880Y011223D01*
X029150Y011236D02*
X029150Y011346D01*
X029205Y011401D01*
X029315Y011346D02*
X029370Y011401D01*
X029425Y011401D01*
X029480Y011346D01*
X029480Y011236D01*
X029425Y011181D01*
X029315Y011236D02*
X029315Y011346D01*
X029315Y011236D02*
X029260Y011181D01*
X029205Y011181D01*
X029150Y011236D01*
X028880Y010910D02*
X028880Y010690D01*
X028660Y010910D01*
X028605Y010910D01*
X028550Y010855D01*
X028550Y010745D01*
X028605Y010690D01*
X028550Y010542D02*
X028550Y010322D01*
X028880Y010322D01*
X028880Y010174D02*
X028770Y010063D01*
X028770Y010118D02*
X028770Y009953D01*
X028880Y009953D02*
X028550Y009953D01*
X028550Y010118D01*
X028605Y010174D01*
X028715Y010174D01*
X028770Y010118D01*
X028715Y010322D02*
X028715Y010432D01*
X029150Y010432D02*
X029205Y010377D01*
X029480Y010377D01*
X029315Y010322D02*
X029315Y010432D01*
X029260Y010567D02*
X029260Y010677D01*
X029205Y010622D02*
X029425Y010622D01*
X029480Y010677D01*
X029425Y010174D02*
X029315Y010174D01*
X029260Y010118D01*
X029260Y010008D01*
X029315Y009953D01*
X029425Y009953D01*
X029480Y010008D01*
X029480Y010118D01*
X029425Y010174D01*
X029425Y009805D02*
X029370Y009805D01*
X029315Y009750D01*
X029315Y009640D01*
X029260Y009585D01*
X029205Y009585D01*
X029150Y009640D01*
X029150Y009750D01*
X029205Y009805D01*
X029425Y009805D02*
X029480Y009750D01*
X029480Y009640D01*
X029425Y009585D01*
X028880Y009585D02*
X028550Y009585D01*
X028880Y009805D01*
X028550Y009805D01*
X029150Y011549D02*
X029150Y011714D01*
X029205Y011770D01*
X029315Y011770D01*
X029370Y011714D01*
X029370Y011549D01*
X029480Y011549D02*
X029150Y011549D01*
X029150Y011918D02*
X029150Y012028D01*
X029150Y011973D02*
X029480Y011973D01*
X029480Y011918D02*
X029480Y012028D01*
D23*
X014790Y006590D03*
D24*
X006196Y018794D03*
D25*
X028440Y021475D02*
X034355Y021475D01*
X034355Y020643D01*
X034355Y020453D01*
X034355Y005350D01*
X028448Y005350D01*
X028448Y005915D01*
X028448Y006580D01*
X028440Y021475D01*
X030435Y021363D02*
X032390Y021363D01*
X032390Y021360D02*
X032388Y019383D01*
X030433Y019383D01*
X030435Y021363D01*
X031878Y007060D02*
X031875Y007060D01*
X031895Y006840D02*
X031893Y006840D01*
X031880Y006070D02*
X031878Y006070D01*
X031898Y005850D02*
X031895Y005850D01*
D26*
X027854Y001681D03*
X029324Y001243D03*
X029456Y001213D03*
X029474Y001243D03*
X029480Y001249D03*
X029390Y001117D03*
X029366Y001081D03*
X030674Y001171D03*
X030674Y001177D03*
X030674Y001183D03*
X030674Y001189D03*
X030674Y001201D03*
X030674Y001207D03*
X030674Y001213D03*
X030674Y001219D03*
X030830Y001219D03*
X030830Y001213D03*
X030830Y001207D03*
X030830Y001201D03*
X030830Y001189D03*
X030830Y001183D03*
X030830Y001177D03*
X030830Y001171D03*
X030830Y001159D03*
X030830Y001231D03*
X030830Y001237D03*
X030830Y001261D03*
X030830Y001267D03*
X030830Y001273D03*
X030830Y001279D03*
X030830Y001291D03*
X030830Y001297D03*
X030830Y001303D03*
X030830Y001309D03*
X030830Y001321D03*
X030830Y001327D03*
X030830Y001333D03*
X031664Y001309D03*
X031664Y001303D03*
X031664Y001297D03*
X031664Y001291D03*
X031664Y001249D03*
X031664Y001243D03*
X031664Y001237D03*
X031664Y001231D03*
X031664Y001219D03*
X031664Y001213D03*
X031664Y001207D03*
X031664Y001201D03*
X031664Y001189D03*
X031664Y001183D03*
X031664Y001177D03*
X031664Y001171D03*
X031664Y001159D03*
X031664Y001153D03*
X031664Y001147D03*
X031664Y001141D03*
X033500Y001141D03*
X033500Y001147D03*
X033500Y001153D03*
X033500Y001159D03*
X033500Y001171D03*
X033500Y001177D03*
X033500Y001183D03*
X033500Y001189D03*
X033500Y001201D03*
X033500Y001207D03*
X033500Y001213D03*
X033500Y001219D03*
X033500Y001231D03*
X033500Y001237D03*
X033500Y001243D03*
X033500Y001249D03*
X033500Y001261D03*
X033500Y001267D03*
X033500Y001273D03*
X033500Y001279D03*
X033500Y001291D03*
X033500Y001297D03*
X033500Y001303D03*
X033500Y001309D03*
X033500Y001321D03*
X033500Y001327D03*
X033500Y001333D03*
X033800Y001249D03*
X033806Y001243D03*
X033950Y001231D03*
X033956Y001243D03*
X033860Y001099D03*
X033854Y001087D03*
D27*
X033848Y001081D03*
X033872Y001117D03*
X033938Y001213D03*
X033962Y001249D03*
X033368Y001237D03*
X033368Y001231D03*
X033368Y001219D03*
X033368Y001213D03*
X033368Y001207D03*
X033368Y001183D03*
X033368Y001177D03*
X033368Y001171D03*
X033368Y001159D03*
X033212Y001159D03*
X033212Y001153D03*
X033212Y001171D03*
X033212Y001177D03*
X033212Y001183D03*
X033218Y001231D03*
X033218Y001237D03*
X031388Y001237D03*
X031388Y001231D03*
X031388Y001219D03*
X031388Y001213D03*
X031388Y001207D03*
X031388Y001183D03*
X031388Y001177D03*
X031388Y001171D03*
X031388Y001159D03*
X031232Y001159D03*
X031232Y001153D03*
X031232Y001171D03*
X031232Y001177D03*
X031232Y001183D03*
X031238Y001231D03*
X031238Y001237D03*
X030548Y001237D03*
X030548Y001243D03*
X030548Y001249D03*
X030548Y001231D03*
X030548Y001219D03*
X030548Y001213D03*
X030548Y001207D03*
X030548Y001201D03*
X030548Y001189D03*
X030548Y001183D03*
X030548Y001177D03*
X030548Y001171D03*
X030548Y001159D03*
X030548Y001153D03*
X030548Y001147D03*
X030548Y001141D03*
X030548Y001291D03*
X030548Y001297D03*
X030548Y001303D03*
X030548Y001309D03*
X029468Y001231D03*
X029318Y001249D03*
X029378Y001099D03*
X029372Y001087D03*
X028088Y001681D03*
X028088Y001687D03*
X028088Y001693D03*
X028088Y001699D03*
X027788Y002323D03*
X028022Y002557D03*
X028238Y002419D03*
D28*
X028229Y002413D03*
X028019Y002551D03*
X027791Y002317D03*
X028205Y001297D03*
X028205Y001291D03*
X028205Y001279D03*
X028205Y001273D03*
X028205Y001267D03*
X028205Y001261D03*
X028205Y001237D03*
X028205Y001231D03*
X028205Y001219D03*
X028205Y001213D03*
X028205Y001207D03*
X028205Y001201D03*
X028205Y001189D03*
X028205Y001183D03*
X028205Y001177D03*
X028205Y001171D03*
X028205Y001159D03*
X028205Y001153D03*
X028529Y001159D03*
X028529Y001171D03*
X028529Y001177D03*
X028529Y001183D03*
X028529Y001189D03*
X028529Y001201D03*
X028529Y001207D03*
X028529Y001213D03*
X028529Y001219D03*
X028529Y001231D03*
X028529Y001237D03*
X028529Y001243D03*
X028529Y001249D03*
X028655Y001231D03*
X028655Y001219D03*
X028655Y001213D03*
X028655Y001207D03*
X028655Y001201D03*
X028655Y001189D03*
X028655Y001183D03*
X028655Y001177D03*
X028655Y001171D03*
X028655Y001159D03*
X028655Y001153D03*
X028655Y001147D03*
X028655Y001141D03*
X028901Y001141D03*
X028901Y001147D03*
X028901Y001153D03*
X028901Y001159D03*
X028901Y001171D03*
X028901Y001177D03*
X028901Y001183D03*
X028901Y001189D03*
X028901Y001201D03*
X028901Y001207D03*
X028901Y001213D03*
X028901Y001219D03*
X028901Y001231D03*
X029339Y001219D03*
X029345Y001213D03*
X029345Y001207D03*
X029351Y001201D03*
X029369Y001171D03*
X029399Y001129D03*
X029375Y001093D03*
X029429Y001171D03*
X029435Y001183D03*
X029441Y001189D03*
X029459Y001219D03*
X029471Y001237D03*
X029591Y001237D03*
X029591Y001231D03*
X029591Y001219D03*
X029591Y001213D03*
X029591Y001207D03*
X029591Y001201D03*
X029591Y001189D03*
X029591Y001183D03*
X029591Y001177D03*
X029591Y001171D03*
X029591Y001159D03*
X029591Y001153D03*
X030029Y001159D03*
X030029Y001171D03*
X030029Y001177D03*
X030029Y001183D03*
X030029Y001189D03*
X030029Y001201D03*
X030029Y001207D03*
X030029Y001213D03*
X030029Y001219D03*
X030029Y001231D03*
X030029Y001237D03*
X030029Y001243D03*
X030029Y001249D03*
X030155Y001231D03*
X030155Y001219D03*
X030155Y001213D03*
X030155Y001207D03*
X030155Y001201D03*
X030155Y001189D03*
X030155Y001183D03*
X030155Y001177D03*
X030155Y001171D03*
X030155Y001159D03*
X030155Y001153D03*
X030155Y001147D03*
X030155Y001141D03*
X030959Y001153D03*
X030959Y001159D03*
X030959Y001171D03*
X030959Y001177D03*
X030959Y001183D03*
X030959Y001189D03*
X030959Y001213D03*
X030959Y001219D03*
X030959Y001231D03*
X030959Y001237D03*
X031109Y001237D03*
X031109Y001231D03*
X031109Y001219D03*
X031109Y001213D03*
X031109Y001171D03*
X031109Y001159D03*
X031109Y001153D03*
X031949Y001153D03*
X031949Y001159D03*
X031949Y001171D03*
X031949Y001177D03*
X031949Y001183D03*
X031949Y001189D03*
X031949Y001201D03*
X031949Y001207D03*
X031949Y001213D03*
X031949Y001219D03*
X031949Y001231D03*
X031949Y001237D03*
X031949Y001147D03*
X031949Y001141D03*
X032831Y001219D03*
X032831Y001231D03*
X032831Y001237D03*
X032939Y001237D03*
X032939Y001231D03*
X032939Y001219D03*
X032939Y001213D03*
X032939Y001189D03*
X032939Y001183D03*
X032939Y001177D03*
X032939Y001171D03*
X032939Y001159D03*
X032939Y001153D03*
X033089Y001153D03*
X033089Y001159D03*
X033089Y001171D03*
X033089Y001213D03*
X033089Y001219D03*
X033089Y001231D03*
X033089Y001237D03*
X033809Y001237D03*
X033815Y001231D03*
X033821Y001219D03*
X033839Y001189D03*
X033845Y001183D03*
X033851Y001171D03*
X033881Y001129D03*
X033875Y001123D03*
X033869Y001111D03*
X033911Y001171D03*
X033929Y001201D03*
X033935Y001207D03*
X033941Y001219D03*
D29*
X033953Y001237D03*
X033923Y001189D03*
X033917Y001183D03*
X033833Y001201D03*
X033827Y001207D03*
X033827Y001213D03*
X033857Y001093D03*
X033647Y001153D03*
X033647Y001159D03*
X033647Y001171D03*
X033647Y001177D03*
X033647Y001183D03*
X033647Y001189D03*
X033647Y001201D03*
X033647Y001207D03*
X033647Y001213D03*
X033647Y001219D03*
X033647Y001231D03*
X033647Y001237D03*
X033647Y001261D03*
X033647Y001267D03*
X033647Y001273D03*
X033647Y001279D03*
X033647Y001291D03*
X033647Y001297D03*
X032693Y001231D03*
X032693Y001219D03*
X032693Y001213D03*
X032693Y001207D03*
X032693Y001201D03*
X032693Y001189D03*
X032693Y001183D03*
X032693Y001177D03*
X032693Y001171D03*
X032693Y001159D03*
X032693Y001153D03*
X032693Y001147D03*
X032693Y001141D03*
X032423Y001153D03*
X032423Y001159D03*
X032423Y001171D03*
X032423Y001177D03*
X032423Y001183D03*
X032423Y001189D03*
X032423Y001201D03*
X032423Y001207D03*
X032423Y001213D03*
X032423Y001219D03*
X032423Y001231D03*
X032423Y001237D03*
X032267Y001237D03*
X032267Y001231D03*
X032267Y001219D03*
X032267Y001213D03*
X032267Y001207D03*
X032267Y001201D03*
X032267Y001189D03*
X032267Y001183D03*
X032267Y001177D03*
X032267Y001171D03*
X032267Y001159D03*
X032267Y001153D03*
X032093Y001153D03*
X032093Y001159D03*
X032093Y001171D03*
X032093Y001177D03*
X032093Y001183D03*
X032093Y001189D03*
X032093Y001201D03*
X032093Y001207D03*
X032093Y001213D03*
X032093Y001219D03*
X032093Y001231D03*
X032093Y001237D03*
X032093Y001261D03*
X032093Y001267D03*
X032093Y001273D03*
X032093Y001279D03*
X032093Y001291D03*
X032093Y001297D03*
X031793Y001231D03*
X031793Y001219D03*
X031793Y001213D03*
X031793Y001207D03*
X031793Y001201D03*
X031793Y001189D03*
X031793Y001183D03*
X031793Y001177D03*
X031793Y001171D03*
X031793Y001159D03*
X031793Y001153D03*
X031793Y001147D03*
X031793Y001141D03*
X030677Y001159D03*
X030677Y001231D03*
X030293Y001231D03*
X030293Y001237D03*
X030293Y001219D03*
X029873Y001219D03*
X029873Y001213D03*
X029873Y001207D03*
X029873Y001201D03*
X029873Y001189D03*
X029873Y001183D03*
X029873Y001177D03*
X029873Y001171D03*
X029873Y001159D03*
X029873Y001153D03*
X029873Y001231D03*
X029873Y001237D03*
X029873Y001243D03*
X029873Y001249D03*
X029747Y001237D03*
X029747Y001231D03*
X029747Y001219D03*
X029747Y001213D03*
X029747Y001207D03*
X029747Y001201D03*
X029747Y001189D03*
X029747Y001183D03*
X029747Y001177D03*
X029747Y001171D03*
X029747Y001159D03*
X029747Y001153D03*
X029453Y001207D03*
X029447Y001201D03*
X029363Y001183D03*
X029357Y001189D03*
X029333Y001231D03*
X029327Y001237D03*
X029393Y001123D03*
X029387Y001111D03*
X029057Y001141D03*
X029057Y001147D03*
X029057Y001153D03*
X029057Y001159D03*
X029057Y001171D03*
X029057Y001177D03*
X029057Y001183D03*
X029057Y001189D03*
X029057Y001201D03*
X029057Y001207D03*
X029057Y001213D03*
X029057Y001219D03*
X029057Y001231D03*
X029057Y001237D03*
X028793Y001237D03*
X028793Y001231D03*
X028793Y001219D03*
X028373Y001219D03*
X028373Y001213D03*
X028373Y001207D03*
X028373Y001201D03*
X028373Y001189D03*
X028373Y001183D03*
X028373Y001177D03*
X028373Y001171D03*
X028373Y001159D03*
X028373Y001153D03*
X028373Y001231D03*
X028373Y001237D03*
X028373Y001243D03*
X028373Y001249D03*
X027857Y001687D03*
X027857Y001693D03*
X028223Y002407D03*
D30*
X028205Y001285D03*
X028205Y001225D03*
X028205Y001195D03*
X028205Y001165D03*
X028529Y001165D03*
X028529Y001195D03*
X028529Y001225D03*
X028529Y001255D03*
X028529Y001135D03*
X028655Y001135D03*
X028655Y001165D03*
X028655Y001195D03*
X028655Y001225D03*
X028655Y001255D03*
X028901Y001255D03*
X028901Y001225D03*
X028901Y001195D03*
X028901Y001165D03*
X028901Y001135D03*
X029381Y001105D03*
X029465Y001225D03*
X029591Y001225D03*
X029591Y001195D03*
X029591Y001165D03*
X030029Y001165D03*
X030029Y001195D03*
X030029Y001225D03*
X030029Y001255D03*
X030029Y001135D03*
X030155Y001135D03*
X030155Y001165D03*
X030155Y001195D03*
X030155Y001225D03*
X030155Y001255D03*
X030959Y001225D03*
X030959Y001165D03*
X031109Y001165D03*
X031109Y001225D03*
X031949Y001225D03*
X031949Y001195D03*
X031949Y001165D03*
X031949Y001135D03*
X032831Y001225D03*
X032939Y001225D03*
X032939Y001165D03*
X033089Y001165D03*
X033089Y001225D03*
X033839Y001195D03*
X033929Y001195D03*
X033965Y001255D03*
D31*
X033947Y001225D03*
X033863Y001105D03*
X033647Y001165D03*
X033647Y001195D03*
X033647Y001225D03*
X033647Y001285D03*
X032693Y001255D03*
X032693Y001225D03*
X032693Y001195D03*
X032693Y001165D03*
X032693Y001135D03*
X032423Y001165D03*
X032423Y001195D03*
X032423Y001225D03*
X032267Y001225D03*
X032267Y001195D03*
X032267Y001165D03*
X032093Y001165D03*
X032093Y001195D03*
X032093Y001225D03*
X032093Y001285D03*
X031793Y001255D03*
X031793Y001225D03*
X031793Y001195D03*
X031793Y001165D03*
X031793Y001135D03*
X030293Y001225D03*
X029873Y001225D03*
X029873Y001255D03*
X029873Y001195D03*
X029873Y001165D03*
X029747Y001165D03*
X029747Y001195D03*
X029747Y001225D03*
X029483Y001255D03*
X029447Y001195D03*
X029357Y001195D03*
X029057Y001195D03*
X029057Y001225D03*
X029057Y001165D03*
X029057Y001135D03*
X028793Y001225D03*
X028373Y001225D03*
X028373Y001255D03*
X028373Y001195D03*
X028373Y001165D03*
X027377Y002455D03*
D32*
X028811Y002215D03*
X027833Y001645D03*
X028247Y001135D03*
X030545Y001825D03*
X031151Y001765D03*
X031151Y001735D03*
X031151Y001705D03*
X031151Y001675D03*
X031151Y001645D03*
X031151Y001615D03*
X031151Y001585D03*
X031151Y001555D03*
X031151Y001525D03*
X031535Y001555D03*
X031535Y001585D03*
X031535Y001615D03*
X031535Y001645D03*
X031535Y001675D03*
X031535Y001705D03*
X031535Y001735D03*
X031535Y001765D03*
X032135Y001135D03*
X032897Y001465D03*
X032915Y001495D03*
X033191Y001675D03*
X033179Y001705D03*
X033161Y001735D03*
X033209Y001645D03*
X033689Y001135D03*
D33*
X029903Y001135D03*
X028403Y001135D03*
X028079Y001645D03*
D34*
X029318Y001255D03*
X029402Y001135D03*
X030548Y001135D03*
X030548Y001165D03*
X030548Y001195D03*
X030548Y001225D03*
X030548Y001255D03*
X031232Y001165D03*
X031238Y001225D03*
X031388Y001225D03*
X031388Y001165D03*
X031388Y001135D03*
X033212Y001165D03*
X033218Y001225D03*
X033368Y001225D03*
X033368Y001165D03*
X033368Y001135D03*
X033818Y001225D03*
D35*
X032345Y001255D03*
X032345Y001135D03*
X029669Y001135D03*
X029669Y001255D03*
D36*
X030725Y001135D03*
X028085Y001675D03*
D37*
X027854Y001675D03*
X029336Y001225D03*
X030674Y001225D03*
X030674Y001195D03*
X030674Y001165D03*
X030830Y001165D03*
X030830Y001195D03*
X030830Y001225D03*
X030830Y001285D03*
X030830Y001315D03*
X030830Y001135D03*
X031664Y001135D03*
X031664Y001165D03*
X031664Y001195D03*
X031664Y001225D03*
X031664Y001255D03*
X033500Y001255D03*
X033500Y001285D03*
X033500Y001315D03*
X033500Y001225D03*
X033500Y001195D03*
X033500Y001165D03*
X033500Y001135D03*
X033800Y001255D03*
X033884Y001135D03*
D38*
X033014Y001135D03*
X033014Y001255D03*
X031034Y001255D03*
X031034Y001135D03*
X030776Y001255D03*
X030578Y001765D03*
D39*
X031262Y001135D03*
X033242Y001135D03*
D40*
X032192Y001741D03*
X032192Y001747D03*
X032192Y001753D03*
X032192Y001759D03*
X032192Y001771D03*
X032192Y001777D03*
X032192Y001783D03*
X032192Y001789D03*
X032192Y001801D03*
X032192Y001807D03*
X032192Y001813D03*
X032192Y001819D03*
X032192Y001831D03*
X032192Y001837D03*
X032192Y001843D03*
X029438Y001741D03*
X029438Y001729D03*
X029438Y001723D03*
X029438Y001717D03*
X029438Y001711D03*
X029438Y001699D03*
X029438Y001693D03*
X029438Y001687D03*
X029438Y001681D03*
X029438Y001669D03*
X029438Y001663D03*
X029438Y001657D03*
X029432Y001639D03*
X029432Y001633D03*
X029432Y001627D03*
X029432Y001759D03*
X029432Y001771D03*
X028388Y001741D03*
X028058Y001579D03*
X028058Y001573D03*
X028238Y001147D03*
X028238Y001141D03*
X027758Y002371D03*
D41*
X028109Y001723D03*
X028439Y001699D03*
X028451Y001147D03*
X028451Y001141D03*
X028979Y001243D03*
X028979Y001249D03*
X029351Y001543D03*
X029669Y001249D03*
X029669Y001243D03*
X029669Y001147D03*
X029669Y001141D03*
X029951Y001141D03*
X029951Y001147D03*
X030599Y001729D03*
X030851Y001567D03*
X031871Y001249D03*
X031871Y001243D03*
X032345Y001243D03*
X032345Y001249D03*
X032345Y001147D03*
X032345Y001141D03*
D42*
X033881Y001141D03*
X030683Y001153D03*
X030683Y001237D03*
X029399Y001141D03*
D43*
X030224Y001243D03*
X030224Y001249D03*
X030764Y001249D03*
X030764Y001141D03*
X031322Y001201D03*
X030860Y001549D03*
X030590Y001747D03*
X028724Y001249D03*
X028724Y001243D03*
X028334Y002479D03*
X028034Y002671D03*
X027728Y002473D03*
X027728Y002467D03*
X032762Y001249D03*
X032762Y001243D03*
X033302Y001201D03*
X033548Y001657D03*
X033548Y001663D03*
X033548Y001669D03*
D44*
X033554Y001651D03*
X033290Y001249D03*
X033014Y001249D03*
X033014Y001243D03*
X033014Y001207D03*
X033014Y001201D03*
X033014Y001147D03*
X033014Y001141D03*
X031310Y001249D03*
X031034Y001249D03*
X031034Y001243D03*
X031034Y001207D03*
X031034Y001201D03*
X031034Y001147D03*
X031034Y001141D03*
X030854Y001561D03*
X028466Y001351D03*
X028130Y002299D03*
D45*
X031313Y001243D03*
X031313Y001141D03*
X033293Y001141D03*
X033293Y001243D03*
X033557Y001681D03*
D46*
X033680Y001147D03*
X033680Y001141D03*
X032126Y001141D03*
X032126Y001147D03*
X030896Y001483D03*
X030554Y001807D03*
X029426Y001783D03*
X029426Y001777D03*
X027806Y001183D03*
D47*
X029399Y001147D03*
X030533Y001843D03*
X030917Y001447D03*
X030821Y001153D03*
X033881Y001147D03*
D48*
X030758Y001147D03*
X030758Y001243D03*
X027782Y001591D03*
X027338Y002389D03*
X027728Y002497D03*
X027728Y002503D03*
X027728Y002509D03*
D49*
X031310Y001189D03*
X031310Y001147D03*
X033290Y001147D03*
X033290Y001189D03*
X033560Y001639D03*
X033560Y001687D03*
D50*
X033164Y001729D03*
X033158Y001741D03*
X033152Y001753D03*
X033146Y001771D03*
X033008Y001681D03*
X033002Y001669D03*
X032996Y001657D03*
X032984Y001633D03*
X032984Y001627D03*
X032978Y001621D03*
X032972Y001609D03*
X032924Y001513D03*
X032918Y001501D03*
X032906Y001483D03*
X032894Y001459D03*
X032888Y001447D03*
X032414Y001531D03*
X032414Y001537D03*
X032414Y001543D03*
X032414Y001549D03*
X032414Y001561D03*
X032414Y001567D03*
X032414Y001573D03*
X032414Y001579D03*
X032414Y001591D03*
X032414Y001597D03*
X032414Y001603D03*
X032414Y001609D03*
X032414Y001621D03*
X032414Y001699D03*
X032414Y001711D03*
X032414Y001717D03*
X032414Y001723D03*
X032414Y001729D03*
X032414Y001741D03*
X032414Y001747D03*
X032414Y001753D03*
X032414Y001759D03*
X032414Y001771D03*
X032414Y001777D03*
X031532Y001771D03*
X030542Y001831D03*
X030038Y001831D03*
X030038Y001837D03*
X030038Y001843D03*
X030038Y001849D03*
X030038Y001819D03*
X030038Y001813D03*
X030038Y001807D03*
X030038Y001801D03*
X030038Y001789D03*
X030038Y001783D03*
X030038Y001777D03*
X030038Y001771D03*
X030038Y001759D03*
X030038Y001753D03*
X030038Y001747D03*
X030038Y001741D03*
X030038Y001729D03*
X030038Y001723D03*
X030038Y001717D03*
X030038Y001711D03*
X030038Y001699D03*
X030038Y001693D03*
X030038Y001687D03*
X030038Y001681D03*
X030038Y001669D03*
X030038Y001663D03*
X030038Y001657D03*
X030038Y001651D03*
X030038Y001639D03*
X030038Y001633D03*
X030038Y001627D03*
X030038Y001621D03*
X030038Y001609D03*
X030038Y001603D03*
X030038Y001597D03*
X030038Y001591D03*
X030038Y001579D03*
X030038Y001573D03*
X030038Y001567D03*
X030038Y001561D03*
X030038Y001549D03*
X030038Y001543D03*
X030038Y001537D03*
X030038Y001531D03*
X029696Y001531D03*
X029696Y001537D03*
X029696Y001543D03*
X029696Y001549D03*
X029696Y001561D03*
X029696Y001567D03*
X029696Y001573D03*
X029696Y001579D03*
X029696Y001591D03*
X029696Y001597D03*
X029696Y001603D03*
X029696Y001609D03*
X029696Y001621D03*
X029696Y001627D03*
X029696Y001633D03*
X029696Y001639D03*
X029696Y001651D03*
X029696Y001657D03*
X029696Y001663D03*
X029696Y001669D03*
X029696Y001681D03*
X029696Y001687D03*
X029696Y001693D03*
X029696Y001699D03*
X029696Y001711D03*
X029696Y001717D03*
X029696Y001723D03*
X029696Y001729D03*
X029696Y001741D03*
X029696Y001747D03*
X029696Y001753D03*
X029696Y001759D03*
X029696Y001771D03*
X029696Y001777D03*
X029696Y001783D03*
X029696Y001789D03*
X029696Y001801D03*
X029696Y001807D03*
X029696Y001813D03*
X029696Y001819D03*
X029696Y001831D03*
X029696Y001837D03*
X029696Y001843D03*
X029696Y001849D03*
X030008Y001153D03*
X028922Y001237D03*
X028508Y001153D03*
X028376Y001759D03*
X027836Y001651D03*
X027572Y002167D03*
X027362Y002443D03*
X028034Y002599D03*
X028034Y002611D03*
X031814Y001237D03*
X033818Y002011D03*
X033818Y002017D03*
D51*
X032708Y001237D03*
X029402Y001153D03*
X027842Y001663D03*
X028028Y002587D03*
D52*
X028127Y002317D03*
X028073Y001633D03*
X028073Y001627D03*
X031373Y001153D03*
X032993Y001651D03*
X033017Y001693D03*
X033017Y001699D03*
X033023Y001711D03*
X033047Y001753D03*
X033047Y001759D03*
X033053Y001771D03*
X033353Y001153D03*
D53*
X033884Y001153D03*
X030914Y001453D03*
X030536Y001837D03*
X030170Y001237D03*
X028670Y001237D03*
X028076Y001639D03*
X028364Y001771D03*
X028814Y002209D03*
X028256Y002431D03*
X027776Y002341D03*
D54*
X027794Y002311D03*
X028004Y002887D03*
X029366Y001177D03*
X029378Y001159D03*
X029432Y001177D03*
X033848Y001177D03*
X033902Y001159D03*
X033914Y001177D03*
D55*
X033860Y001159D03*
X033920Y001969D03*
X033890Y001993D03*
X029420Y001159D03*
X027860Y001699D03*
D56*
X027392Y001705D03*
X029372Y001165D03*
X029426Y001165D03*
X033854Y001165D03*
X033908Y001165D03*
D57*
X033701Y001759D03*
X033731Y001783D03*
X033773Y001813D03*
X033779Y001819D03*
X033797Y001831D03*
X033803Y001837D03*
X033809Y001843D03*
X033821Y001849D03*
X033101Y001813D03*
X033101Y001807D03*
X030887Y001501D03*
X030701Y001669D03*
X030653Y001711D03*
X030647Y001717D03*
X028301Y002461D03*
X028037Y002641D03*
X027749Y002389D03*
X027803Y001189D03*
D58*
X027800Y001195D03*
D59*
X028343Y002485D03*
X030857Y001555D03*
X031031Y001195D03*
X033011Y001195D03*
D60*
X033293Y001195D03*
X033557Y001645D03*
X031313Y001195D03*
X028553Y002665D03*
D61*
X028676Y002479D03*
X027950Y001939D03*
X027806Y001201D03*
D62*
X027803Y001207D03*
X027737Y001549D03*
X027233Y002089D03*
X027329Y002323D03*
X028679Y002419D03*
X028679Y001867D03*
D63*
X028583Y001993D03*
X028673Y002401D03*
X027257Y002167D03*
X027803Y001213D03*
D64*
X027803Y001219D03*
X028667Y002383D03*
X031343Y001849D03*
X031343Y001447D03*
D65*
X028139Y002245D03*
X027797Y001225D03*
D66*
X027794Y001231D03*
X027704Y001531D03*
X028112Y001771D03*
X028496Y001399D03*
X027272Y002041D03*
X027998Y002839D03*
X033104Y001573D03*
D67*
X029867Y001471D03*
X029153Y001921D03*
X027797Y001237D03*
D68*
X027794Y001243D03*
X028520Y001429D03*
X028532Y001441D03*
X029162Y001471D03*
X028328Y002071D03*
X028136Y002209D03*
X028640Y002323D03*
X028538Y002581D03*
X027302Y002011D03*
X027416Y001789D03*
X033104Y001537D03*
D69*
X033659Y001249D03*
X033659Y001243D03*
X033101Y001789D03*
X032105Y001249D03*
X032105Y001243D03*
X030575Y001771D03*
X029381Y001843D03*
X028409Y001717D03*
X027803Y001609D03*
X028217Y001249D03*
X028217Y001243D03*
X027743Y002419D03*
X027347Y002413D03*
X028037Y002653D03*
D70*
X028634Y002311D03*
X028136Y002203D03*
X027794Y001249D03*
X031976Y001933D03*
D71*
X028133Y002185D03*
X027791Y001255D03*
D72*
X028037Y001525D03*
X028217Y001255D03*
X029381Y001555D03*
X030875Y001525D03*
X032105Y001255D03*
X033659Y001255D03*
D73*
X032807Y001255D03*
X030269Y001255D03*
X028769Y001255D03*
D74*
X029030Y001255D03*
X028088Y001705D03*
X027782Y002335D03*
X028028Y002575D03*
X028244Y002425D03*
X031922Y001255D03*
D75*
X031313Y001255D03*
X033293Y001255D03*
X028133Y002305D03*
D76*
X028121Y001807D03*
X028565Y001501D03*
X027791Y001261D03*
X027329Y001993D03*
X031991Y001663D03*
D77*
X032000Y001693D03*
X032000Y001699D03*
X032000Y001711D03*
X032000Y001717D03*
X032000Y001861D03*
X032000Y001867D03*
X032000Y001873D03*
X032000Y001879D03*
X029192Y001873D03*
X029192Y001519D03*
X028574Y001531D03*
X028574Y001537D03*
X028136Y001789D03*
X028130Y002161D03*
X028130Y002167D03*
X027344Y002191D03*
X027344Y002197D03*
X027338Y001987D03*
X027788Y001267D03*
X027896Y002689D03*
X027902Y002701D03*
X027908Y002707D03*
X027914Y002713D03*
X027920Y002719D03*
X027926Y002737D03*
X027950Y002767D03*
X027956Y002773D03*
X027962Y002779D03*
D78*
X027947Y002761D03*
X027929Y002743D03*
X027923Y002731D03*
X028421Y002041D03*
X028151Y001777D03*
X028139Y001783D03*
X028583Y001579D03*
X028583Y001573D03*
X028583Y001567D03*
X028571Y001549D03*
X028571Y001543D03*
X027791Y001273D03*
D79*
X027788Y001279D03*
X027422Y001831D03*
X028538Y002533D03*
X029198Y001861D03*
X029198Y001531D03*
D80*
X028592Y001645D03*
X027788Y001285D03*
D81*
X027788Y001291D03*
X027656Y001513D03*
X027422Y001843D03*
X028442Y002023D03*
D82*
X027785Y001297D03*
D83*
X027782Y001303D03*
X028118Y002089D03*
D84*
X028112Y001897D03*
X027422Y001867D03*
X027782Y001309D03*
D85*
X027782Y001315D03*
D86*
X027782Y001321D03*
X027422Y001879D03*
D87*
X027425Y001891D03*
X027779Y001327D03*
D88*
X027782Y001333D03*
D89*
X027779Y001339D03*
X027425Y001897D03*
D90*
X027317Y001717D03*
X028499Y001339D03*
X028013Y002509D03*
X027953Y002887D03*
D91*
X027779Y001345D03*
D92*
X028472Y001345D03*
X029696Y001525D03*
X029696Y001555D03*
X029696Y001585D03*
X029696Y001615D03*
X029696Y001645D03*
X029696Y001675D03*
X029696Y001705D03*
X029696Y001735D03*
X029696Y001765D03*
X029696Y001795D03*
X029696Y001825D03*
X030038Y001825D03*
X030038Y001795D03*
X030038Y001765D03*
X030038Y001735D03*
X030038Y001705D03*
X030038Y001675D03*
X030038Y001645D03*
X030038Y001615D03*
X030038Y001585D03*
X030038Y001555D03*
X030038Y001525D03*
X030908Y001465D03*
X031532Y001525D03*
X032414Y001525D03*
X032414Y001555D03*
X032414Y001585D03*
X032414Y001615D03*
X032414Y001705D03*
X032414Y001735D03*
X032414Y001765D03*
X032978Y001615D03*
X033146Y001765D03*
X028034Y002605D03*
D93*
X027428Y001909D03*
X027776Y001351D03*
D94*
X027776Y001357D03*
X027776Y001363D03*
D95*
X027878Y001729D03*
X027392Y001699D03*
X028328Y001357D03*
X033818Y001951D03*
X033818Y001957D03*
X033818Y001963D03*
X033818Y001969D03*
X033818Y001981D03*
X033818Y001987D03*
X033818Y001993D03*
X033818Y001999D03*
X033878Y001987D03*
X033878Y001981D03*
X033878Y001969D03*
X033878Y001963D03*
X033878Y001957D03*
X033878Y001951D03*
X033902Y001987D03*
X033938Y001987D03*
X033938Y001981D03*
X033962Y001981D03*
X033962Y001987D03*
X033962Y001969D03*
X033962Y001963D03*
X033962Y001957D03*
X033962Y001951D03*
D96*
X028469Y001357D03*
X028139Y002287D03*
D97*
X028136Y002269D03*
X028688Y001849D03*
X028688Y001843D03*
X028460Y001363D03*
X027410Y001747D03*
X027230Y002101D03*
D98*
X027773Y001369D03*
D99*
X028460Y001369D03*
X028550Y002629D03*
D100*
X027776Y001375D03*
D101*
X028463Y001375D03*
X028631Y001945D03*
D102*
X027773Y001387D03*
X027773Y001381D03*
D103*
X028478Y001381D03*
D104*
X028484Y001387D03*
X029132Y001453D03*
D105*
X027773Y001399D03*
X027773Y001393D03*
D106*
X027413Y001771D03*
X028493Y001393D03*
X029867Y001459D03*
D107*
X027770Y001405D03*
D108*
X028502Y001405D03*
D109*
X027770Y001411D03*
D110*
X028508Y001411D03*
X028136Y002221D03*
X028652Y002347D03*
X027332Y002257D03*
X033104Y001561D03*
D111*
X027770Y001417D03*
D112*
X027416Y001783D03*
X027296Y002017D03*
X028514Y001417D03*
X029870Y001477D03*
X031964Y001639D03*
X031964Y001939D03*
X033104Y001549D03*
D113*
X027767Y001423D03*
D114*
X028517Y001423D03*
X029867Y001483D03*
X029867Y001489D03*
X031343Y001459D03*
X031343Y001837D03*
X033101Y001543D03*
X028661Y002269D03*
X028643Y002329D03*
D115*
X027764Y001429D03*
D116*
X027764Y001435D03*
D117*
X028526Y001435D03*
X029162Y001915D03*
X028646Y002275D03*
X029870Y001495D03*
D118*
X027761Y001447D03*
X027761Y001441D03*
D119*
X028535Y001447D03*
X027335Y002233D03*
X027335Y002239D03*
D120*
X029108Y001447D03*
D121*
X028703Y001819D03*
X028691Y001837D03*
X029867Y001447D03*
X027329Y002329D03*
X027227Y002119D03*
X027227Y002113D03*
X027227Y002107D03*
D122*
X027770Y002347D03*
X028070Y001621D03*
X030290Y001621D03*
X030290Y001627D03*
X030290Y001633D03*
X030290Y001639D03*
X030290Y001651D03*
X030290Y001657D03*
X030290Y001663D03*
X030290Y001669D03*
X030290Y001681D03*
X030290Y001687D03*
X030290Y001693D03*
X030290Y001699D03*
X030290Y001711D03*
X030290Y001717D03*
X030290Y001723D03*
X030290Y001729D03*
X030290Y001741D03*
X030290Y001747D03*
X030290Y001753D03*
X030290Y001759D03*
X030290Y001771D03*
X030290Y001777D03*
X030290Y001783D03*
X030290Y001789D03*
X030290Y001801D03*
X030290Y001807D03*
X030290Y001813D03*
X030290Y001819D03*
X030290Y001831D03*
X030290Y001837D03*
X030290Y001843D03*
X030290Y001849D03*
X030290Y001609D03*
X030290Y001603D03*
X030290Y001597D03*
X030290Y001591D03*
X030290Y001579D03*
X030290Y001573D03*
X030290Y001567D03*
X030290Y001561D03*
X030290Y001549D03*
X030290Y001543D03*
X030290Y001537D03*
X030290Y001531D03*
X030290Y001519D03*
X030290Y001513D03*
X030290Y001507D03*
X030290Y001501D03*
X030290Y001489D03*
X030290Y001483D03*
X030290Y001477D03*
X030290Y001471D03*
X030290Y001459D03*
X030290Y001453D03*
X030290Y001447D03*
X032900Y001471D03*
X032990Y001639D03*
X033500Y001621D03*
X033500Y001609D03*
X033500Y001603D03*
X033500Y001597D03*
X033500Y001591D03*
X033500Y001579D03*
X033500Y001573D03*
X033500Y001567D03*
X033500Y001561D03*
X033500Y001549D03*
X033500Y001543D03*
X033500Y001537D03*
X033500Y001531D03*
X033500Y001519D03*
X033500Y001513D03*
X033500Y001507D03*
X033500Y001501D03*
X033500Y001489D03*
X033500Y001483D03*
X033500Y001477D03*
X033500Y001471D03*
X033500Y001459D03*
X033500Y001453D03*
X033500Y001447D03*
X033500Y001693D03*
X033500Y001699D03*
X033500Y001711D03*
X033500Y001717D03*
X033500Y001723D03*
X033500Y001729D03*
X033500Y001741D03*
X033500Y001747D03*
X033500Y001753D03*
X033500Y001759D03*
X033500Y001771D03*
X033500Y001777D03*
X033500Y001783D03*
X033500Y001789D03*
X033500Y001801D03*
X033500Y001807D03*
X033500Y001813D03*
X033500Y001819D03*
X033500Y001831D03*
X033500Y001837D03*
X033500Y001843D03*
X033500Y001849D03*
D123*
X033041Y001747D03*
X033041Y001741D03*
X033035Y001729D03*
X033029Y001723D03*
X033029Y001717D03*
X033011Y001687D03*
X032999Y001663D03*
X030911Y001663D03*
X030911Y001669D03*
X030911Y001681D03*
X030911Y001687D03*
X030911Y001693D03*
X030911Y001699D03*
X030911Y001711D03*
X030911Y001717D03*
X030911Y001723D03*
X030911Y001729D03*
X030911Y001741D03*
X030911Y001747D03*
X030911Y001753D03*
X030911Y001759D03*
X030911Y001771D03*
X030911Y001777D03*
X030911Y001783D03*
X030911Y001789D03*
X030911Y001801D03*
X030911Y001807D03*
X030911Y001813D03*
X030911Y001819D03*
X030911Y001831D03*
X030911Y001837D03*
X030911Y001843D03*
X030911Y001849D03*
X030911Y001657D03*
X030911Y001651D03*
X030911Y001639D03*
X030911Y001633D03*
X030911Y001627D03*
X030911Y001621D03*
X030911Y001609D03*
X030911Y001603D03*
X030911Y001597D03*
X030911Y001591D03*
X030911Y001459D03*
X030539Y001459D03*
X030539Y001453D03*
X030539Y001447D03*
X030539Y001471D03*
X030539Y001477D03*
X030539Y001483D03*
X030539Y001489D03*
X030539Y001501D03*
X030539Y001507D03*
X030539Y001513D03*
X030539Y001519D03*
X030539Y001531D03*
X030539Y001537D03*
X030539Y001543D03*
X030539Y001549D03*
X030539Y001561D03*
X030539Y001567D03*
X030539Y001573D03*
X030539Y001579D03*
X030539Y001591D03*
X030539Y001597D03*
X030539Y001603D03*
X030539Y001609D03*
X030539Y001621D03*
X030539Y001627D03*
X030539Y001633D03*
X030539Y001639D03*
X030539Y001651D03*
X030539Y001657D03*
X030539Y001663D03*
X030539Y001669D03*
X030539Y001681D03*
X030539Y001687D03*
X030539Y001693D03*
X030539Y001699D03*
X030539Y001711D03*
X030539Y001717D03*
X028031Y002593D03*
X027839Y001657D03*
D124*
X028385Y001747D03*
X029435Y001747D03*
X029435Y001753D03*
X029435Y001651D03*
X030551Y001813D03*
X031811Y001813D03*
X031811Y001819D03*
X031811Y001831D03*
X031811Y001837D03*
X031811Y001843D03*
X031811Y001849D03*
X031811Y001807D03*
X031811Y001801D03*
X031811Y001789D03*
X031811Y001783D03*
X031811Y001777D03*
X031811Y001771D03*
X031811Y001759D03*
X031811Y001753D03*
X031811Y001747D03*
X031811Y001741D03*
X031811Y001729D03*
X031811Y001723D03*
X031811Y001633D03*
X031811Y001627D03*
X031811Y001621D03*
X031811Y001609D03*
X031811Y001603D03*
X031811Y001597D03*
X031811Y001591D03*
X031811Y001579D03*
X031811Y001573D03*
X031811Y001567D03*
X031811Y001561D03*
X031811Y001549D03*
X031811Y001543D03*
X031811Y001537D03*
X031811Y001531D03*
X031811Y001519D03*
X031811Y001513D03*
X031811Y001507D03*
X031811Y001501D03*
X031811Y001489D03*
X031811Y001483D03*
X031811Y001477D03*
X031811Y001471D03*
X031811Y001459D03*
X031811Y001453D03*
X031811Y001447D03*
X033101Y001831D03*
X033101Y001837D03*
X033299Y001471D03*
X027359Y002431D03*
D125*
X027329Y002269D03*
X027329Y002263D03*
X027281Y002029D03*
X027413Y001777D03*
X028139Y002227D03*
X028541Y002593D03*
X029147Y001927D03*
X029147Y001459D03*
X031343Y001453D03*
X031343Y001843D03*
X032567Y001843D03*
X032567Y001849D03*
X032567Y001837D03*
X032567Y001831D03*
X032567Y001819D03*
X032567Y001813D03*
X032567Y001807D03*
X032567Y001801D03*
X032567Y001789D03*
X032567Y001783D03*
X033101Y001567D03*
X032567Y001519D03*
X032567Y001513D03*
X032567Y001507D03*
X032567Y001501D03*
X032567Y001489D03*
X032567Y001483D03*
X032567Y001477D03*
X032567Y001471D03*
X032567Y001459D03*
X032567Y001453D03*
X032567Y001447D03*
D126*
X033206Y001651D03*
X033212Y001639D03*
X033218Y001627D03*
X033272Y001519D03*
X033278Y001513D03*
X033278Y001507D03*
X033284Y001501D03*
X033296Y001477D03*
X033308Y001459D03*
X033308Y001453D03*
X033314Y001447D03*
X030902Y001477D03*
X030548Y001819D03*
X028274Y002443D03*
X027764Y002359D03*
X027362Y002437D03*
X028064Y001597D03*
X028064Y001591D03*
D127*
X027401Y001717D03*
X030569Y001783D03*
X030881Y001513D03*
X033101Y001801D03*
X033659Y001591D03*
X033689Y001567D03*
X033719Y001543D03*
X033749Y001519D03*
X033809Y001471D03*
X033839Y001447D03*
D128*
X027764Y001453D03*
X027764Y001459D03*
D129*
X028538Y001453D03*
X029168Y001477D03*
X029168Y001909D03*
D130*
X028661Y002371D03*
X028547Y002611D03*
X027329Y002287D03*
X028109Y001759D03*
X029867Y001453D03*
X033101Y001597D03*
D131*
X033197Y001663D03*
X033197Y001669D03*
X033191Y001681D03*
X033185Y001687D03*
X033185Y001693D03*
X033179Y001699D03*
X033173Y001711D03*
X033173Y001717D03*
X033167Y001723D03*
X033155Y001747D03*
X033149Y001759D03*
X033101Y001843D03*
X033101Y001849D03*
X033203Y001657D03*
X033215Y001633D03*
X033221Y001621D03*
X033227Y001609D03*
X032927Y001519D03*
X032921Y001507D03*
X032909Y001489D03*
X032903Y001477D03*
X032891Y001453D03*
X031535Y001531D03*
X031535Y001537D03*
X031535Y001543D03*
X031535Y001549D03*
X031535Y001561D03*
X031535Y001567D03*
X031535Y001573D03*
X031535Y001579D03*
X031535Y001591D03*
X031535Y001597D03*
X031535Y001603D03*
X031535Y001609D03*
X031535Y001621D03*
X031535Y001627D03*
X031535Y001633D03*
X031535Y001639D03*
X031535Y001651D03*
X031535Y001657D03*
X031535Y001663D03*
X031535Y001669D03*
X031535Y001681D03*
X031535Y001687D03*
X031535Y001693D03*
X031535Y001699D03*
X031535Y001711D03*
X031535Y001717D03*
X031535Y001723D03*
X031535Y001729D03*
X031535Y001741D03*
X031535Y001747D03*
X031535Y001753D03*
X031535Y001759D03*
X031151Y001759D03*
X031151Y001753D03*
X031151Y001747D03*
X031151Y001741D03*
X031151Y001729D03*
X031151Y001723D03*
X031151Y001717D03*
X031151Y001711D03*
X031151Y001699D03*
X031151Y001693D03*
X031151Y001687D03*
X031151Y001681D03*
X031151Y001669D03*
X031151Y001663D03*
X031151Y001657D03*
X031151Y001651D03*
X031151Y001639D03*
X031151Y001633D03*
X031151Y001627D03*
X031151Y001621D03*
X031151Y001609D03*
X031151Y001603D03*
X031151Y001597D03*
X031151Y001591D03*
X031151Y001579D03*
X031151Y001573D03*
X031151Y001567D03*
X031151Y001561D03*
X031151Y001549D03*
X031151Y001543D03*
X031151Y001537D03*
X031151Y001531D03*
X030905Y001471D03*
X031151Y001771D03*
X028379Y001753D03*
X028091Y001711D03*
X028067Y001609D03*
X028067Y001603D03*
X027767Y002353D03*
X028265Y002437D03*
X027983Y002881D03*
D132*
X028037Y002647D03*
X027743Y002413D03*
X027353Y002419D03*
X028403Y001723D03*
X028043Y001537D03*
X029387Y001837D03*
X033713Y001549D03*
X033773Y001501D03*
X033797Y001483D03*
X033803Y001477D03*
X033827Y001459D03*
X033833Y001453D03*
D133*
X028541Y001459D03*
X027335Y002221D03*
X027335Y002227D03*
X028001Y002833D03*
D134*
X027764Y001465D03*
D135*
X028544Y001465D03*
X027314Y002005D03*
D136*
X028136Y002215D03*
X028646Y002335D03*
X029156Y001465D03*
D137*
X029867Y001465D03*
X032567Y001465D03*
X032567Y001495D03*
X032567Y001795D03*
X032567Y001825D03*
D138*
X032990Y001645D03*
X032930Y001525D03*
X033500Y001525D03*
X033500Y001495D03*
X033500Y001465D03*
X033500Y001555D03*
X033500Y001585D03*
X033500Y001615D03*
X033500Y001705D03*
X033500Y001735D03*
X033500Y001765D03*
X033500Y001795D03*
X033500Y001825D03*
X030290Y001825D03*
X030290Y001795D03*
X030290Y001765D03*
X030290Y001735D03*
X030290Y001705D03*
X030290Y001675D03*
X030290Y001645D03*
X030290Y001615D03*
X030290Y001585D03*
X030290Y001555D03*
X030290Y001525D03*
X030290Y001495D03*
X030290Y001465D03*
X028070Y001615D03*
D139*
X030539Y001615D03*
X030539Y001645D03*
X030539Y001675D03*
X030539Y001705D03*
X030539Y001585D03*
X030539Y001555D03*
X030539Y001525D03*
X030539Y001495D03*
X030539Y001465D03*
X030911Y001585D03*
X030911Y001615D03*
X030911Y001645D03*
X030911Y001675D03*
X030911Y001705D03*
X030911Y001735D03*
X030911Y001765D03*
X030911Y001795D03*
X030911Y001825D03*
X033005Y001675D03*
X033035Y001735D03*
D140*
X031976Y001645D03*
X031340Y001465D03*
X027416Y001795D03*
D141*
X027761Y002365D03*
X028061Y001585D03*
X029435Y001645D03*
X031811Y001615D03*
X031811Y001585D03*
X031811Y001555D03*
X031811Y001525D03*
X031811Y001495D03*
X031811Y001465D03*
X031811Y001735D03*
X031811Y001765D03*
X031811Y001795D03*
X031811Y001825D03*
X031811Y001855D03*
X033269Y001525D03*
D142*
X033302Y001465D03*
X033224Y001615D03*
D143*
X033668Y001585D03*
X033818Y001465D03*
X030728Y001645D03*
X030692Y001675D03*
X030662Y001705D03*
D144*
X027764Y001471D03*
D145*
X028547Y001471D03*
X028547Y001477D03*
X028553Y001483D03*
X029177Y001489D03*
X029177Y001897D03*
X028541Y002563D03*
X031343Y001819D03*
X031343Y001813D03*
X031343Y001483D03*
X031343Y001477D03*
D146*
X031343Y001471D03*
X028133Y002197D03*
D147*
X027761Y001483D03*
X027761Y001477D03*
D148*
X027416Y001801D03*
X028136Y002191D03*
X028382Y002059D03*
X028628Y002299D03*
X028538Y002569D03*
X028004Y002827D03*
X029174Y001903D03*
X029174Y001483D03*
X031982Y001651D03*
X031982Y001927D03*
D149*
X033293Y001483D03*
X029003Y001543D03*
X029003Y001549D03*
X029003Y001561D03*
X029003Y001567D03*
X029003Y001573D03*
X029003Y001579D03*
X029003Y001591D03*
X029003Y001597D03*
X029003Y001603D03*
X029003Y001609D03*
X029003Y001621D03*
X029003Y001627D03*
X029003Y001633D03*
X029003Y001639D03*
X029003Y001651D03*
X029003Y001657D03*
X029003Y001663D03*
X029003Y001669D03*
X029003Y001681D03*
X029003Y001687D03*
X029003Y001693D03*
X029003Y001699D03*
X029003Y001711D03*
X029003Y001717D03*
X029003Y001723D03*
X029003Y001729D03*
X029003Y001741D03*
X029003Y001747D03*
X029003Y001753D03*
X029003Y001759D03*
X029003Y001771D03*
X029003Y001777D03*
X029003Y001783D03*
X029003Y001789D03*
X029003Y001801D03*
X029003Y001807D03*
X029003Y001813D03*
X029003Y001819D03*
X029003Y001831D03*
X029003Y001837D03*
X029003Y001843D03*
X029003Y001849D03*
X028283Y002449D03*
X028037Y002617D03*
X028037Y002623D03*
X027827Y001633D03*
D150*
X027758Y001507D03*
X027758Y001501D03*
X027758Y001489D03*
D151*
X027416Y001807D03*
X028394Y002053D03*
X028622Y002293D03*
X028538Y002557D03*
X028556Y001489D03*
X031988Y001657D03*
X031988Y001921D03*
D152*
X032189Y001849D03*
X032189Y001729D03*
X033101Y001819D03*
X030893Y001489D03*
X030557Y001801D03*
X029423Y001789D03*
X029417Y001801D03*
X029429Y001621D03*
X029423Y001609D03*
X029423Y001603D03*
X029417Y001597D03*
X028037Y002629D03*
X028553Y002683D03*
X027401Y001711D03*
D153*
X028133Y002179D03*
X029183Y001501D03*
X031343Y001501D03*
X031343Y001507D03*
X031343Y001513D03*
X031343Y001489D03*
X031343Y001783D03*
X031343Y001789D03*
X031343Y001801D03*
D154*
X033290Y001489D03*
X027830Y001639D03*
D155*
X027812Y001621D03*
X028802Y002227D03*
X029402Y001573D03*
X030668Y001699D03*
X030722Y001651D03*
X030758Y001621D03*
X030782Y001597D03*
X030788Y001591D03*
X033638Y001609D03*
X033698Y001561D03*
X033728Y001537D03*
X033758Y001513D03*
X033788Y001489D03*
D156*
X027758Y001495D03*
D157*
X028562Y001495D03*
X027338Y002215D03*
D158*
X029180Y001495D03*
D159*
X029414Y001585D03*
X030560Y001795D03*
X030890Y001495D03*
X032180Y001855D03*
X033668Y001735D03*
X033710Y001765D03*
X028394Y001735D03*
D160*
X031343Y001795D03*
X031343Y001495D03*
D161*
X033287Y001495D03*
X029003Y001555D03*
X029003Y001585D03*
X029003Y001615D03*
X029003Y001645D03*
X029003Y001675D03*
X029003Y001705D03*
X029003Y001735D03*
X029003Y001765D03*
X029003Y001795D03*
X029003Y001825D03*
D162*
X027809Y001615D03*
X033779Y001495D03*
D163*
X033101Y001531D03*
X031343Y001831D03*
X029867Y001519D03*
X029867Y001513D03*
X029867Y001507D03*
X029867Y001501D03*
X028637Y002317D03*
D164*
X028118Y001813D03*
X028568Y001519D03*
X028568Y001513D03*
X028568Y001507D03*
X027998Y002821D03*
D165*
X027986Y002809D03*
X028616Y002287D03*
X028130Y002173D03*
X028124Y001801D03*
X027416Y001813D03*
X027344Y002209D03*
X029186Y001507D03*
X031340Y001519D03*
X031994Y001669D03*
X031994Y001909D03*
X031340Y001777D03*
D166*
X030776Y001603D03*
X030770Y001609D03*
X030746Y001627D03*
X030740Y001633D03*
X030734Y001639D03*
X030716Y001657D03*
X030710Y001663D03*
X030686Y001681D03*
X030680Y001687D03*
X030674Y001693D03*
X030566Y001789D03*
X030884Y001507D03*
X029396Y001567D03*
X029396Y001831D03*
X028400Y001729D03*
X028046Y001549D03*
X028046Y001543D03*
X027746Y002401D03*
X027746Y002407D03*
X028310Y002467D03*
X033620Y001621D03*
X033644Y001603D03*
X033650Y001597D03*
X033674Y001579D03*
X033680Y001573D03*
X033734Y001531D03*
X033764Y001507D03*
D167*
X028328Y002473D03*
X028028Y001513D03*
D168*
X027419Y001819D03*
X027341Y002203D03*
X027893Y002683D03*
X027971Y002791D03*
X027977Y002797D03*
X027983Y002803D03*
X028613Y002281D03*
X029189Y001879D03*
X029189Y001513D03*
X031997Y001681D03*
X031997Y001687D03*
X031997Y001891D03*
X031997Y001897D03*
X031997Y001903D03*
D169*
X031340Y001807D03*
X029180Y001891D03*
X027680Y001519D03*
X027320Y001999D03*
D170*
X028031Y001519D03*
X030581Y001759D03*
X030869Y001531D03*
X033101Y001777D03*
X033101Y001783D03*
D171*
X030878Y001519D03*
X030572Y001777D03*
D172*
X027680Y001525D03*
D173*
X028571Y001525D03*
X031997Y001675D03*
D174*
X029195Y001525D03*
X028535Y002545D03*
D175*
X033743Y001525D03*
D176*
X029390Y001561D03*
X028040Y001531D03*
X028130Y002311D03*
X028550Y002677D03*
D177*
X028136Y002251D03*
X028616Y001963D03*
X028622Y001957D03*
X027722Y001537D03*
D178*
X028115Y001837D03*
X028589Y001633D03*
X028589Y001627D03*
X028589Y001621D03*
X028589Y001609D03*
X028589Y001603D03*
X029201Y001537D03*
D179*
X029366Y001849D03*
X030584Y001753D03*
X030866Y001537D03*
X027794Y001597D03*
X027344Y002407D03*
X027734Y002443D03*
X027734Y002449D03*
D180*
X027329Y002311D03*
X028109Y001753D03*
X027725Y001543D03*
X028601Y001981D03*
X028625Y001951D03*
X028631Y001939D03*
X028637Y001933D03*
X028643Y001927D03*
X028649Y001921D03*
X028655Y001909D03*
X028703Y002257D03*
D181*
X027731Y002461D03*
X027341Y002401D03*
X028109Y001717D03*
X029369Y001549D03*
X030863Y001543D03*
D182*
X028700Y001825D03*
X027740Y001555D03*
X027230Y002125D03*
X027326Y002335D03*
D183*
X027749Y002395D03*
X028049Y001555D03*
X029399Y001825D03*
X033629Y001615D03*
X033749Y001795D03*
D184*
X028577Y001555D03*
X027347Y002185D03*
X027941Y002755D03*
D185*
X028349Y002065D03*
X033101Y001555D03*
D186*
X033704Y001555D03*
X030794Y001585D03*
X030764Y001615D03*
D187*
X028268Y001933D03*
X027758Y001561D03*
X027332Y002359D03*
D188*
X027752Y002383D03*
X027818Y001627D03*
X028052Y001561D03*
X029414Y001591D03*
X029414Y001807D03*
X029408Y001813D03*
X032180Y001723D03*
X033614Y001693D03*
X033620Y001699D03*
X033638Y001711D03*
X033644Y001717D03*
X033650Y001723D03*
X033662Y001729D03*
X033674Y001741D03*
X033686Y001747D03*
X033692Y001753D03*
X033716Y001771D03*
X033740Y001789D03*
X033764Y001807D03*
D189*
X028586Y001597D03*
X028586Y001591D03*
X028580Y001561D03*
X028130Y002149D03*
D190*
X028274Y001939D03*
X028106Y001729D03*
X027938Y001951D03*
X027758Y001567D03*
X027764Y002671D03*
X027770Y002677D03*
X028550Y002653D03*
D191*
X027755Y002377D03*
X028055Y001567D03*
D192*
X027764Y001573D03*
X027944Y002047D03*
X027950Y002053D03*
X028550Y002659D03*
D193*
X027722Y002551D03*
X027722Y002539D03*
X027722Y002533D03*
X027722Y002527D03*
X027722Y002521D03*
X027776Y001579D03*
X030602Y001723D03*
X030848Y001573D03*
D194*
X029405Y001579D03*
X029405Y001819D03*
X028805Y002221D03*
X033725Y001777D03*
X033755Y001801D03*
D195*
X033566Y001633D03*
X030842Y001579D03*
X028298Y001993D03*
X028292Y001981D03*
X028286Y001957D03*
X027938Y002023D03*
X027728Y002569D03*
X027728Y002581D03*
X027728Y002587D03*
X027728Y002593D03*
X027734Y002599D03*
D196*
X028139Y002233D03*
X028655Y002353D03*
X028541Y002599D03*
X033101Y001579D03*
D197*
X027779Y001585D03*
X027725Y002515D03*
D198*
X028586Y001585D03*
D199*
X028109Y001765D03*
X028547Y002605D03*
X033101Y001585D03*
D200*
X033101Y001591D03*
X028139Y002239D03*
D201*
X027800Y001603D03*
D202*
X027410Y001759D03*
X027254Y002053D03*
X027254Y002059D03*
X027326Y002293D03*
X028550Y002617D03*
X028664Y002377D03*
X033104Y001603D03*
D203*
X028589Y001615D03*
D204*
X029426Y001615D03*
D205*
X028718Y001711D03*
X028718Y001717D03*
X028718Y001759D03*
X027956Y001933D03*
X028136Y002281D03*
X028682Y002461D03*
X028682Y002467D03*
X027332Y002353D03*
X032504Y001693D03*
X032504Y001687D03*
X032504Y001681D03*
X032504Y001669D03*
X032504Y001663D03*
X032504Y001657D03*
X032504Y001651D03*
X032504Y001639D03*
X032504Y001633D03*
X032504Y001627D03*
D206*
X033569Y001627D03*
X028139Y002293D03*
X027941Y002041D03*
X027941Y002029D03*
X027935Y002017D03*
X027929Y002011D03*
X027929Y001999D03*
X027929Y001993D03*
X027335Y002377D03*
X027749Y002641D03*
X027749Y002647D03*
D207*
X028538Y002527D03*
X028436Y002029D03*
X028112Y001843D03*
X028592Y001639D03*
X027422Y001837D03*
D208*
X028106Y001735D03*
X028718Y001765D03*
X032504Y001675D03*
X032504Y001645D03*
D209*
X030530Y001849D03*
X028082Y001663D03*
X028082Y001657D03*
X028082Y001651D03*
X028028Y002581D03*
D210*
X028535Y002521D03*
X028127Y002131D03*
X028109Y001849D03*
X028595Y001693D03*
X028595Y001687D03*
X028595Y001681D03*
X028595Y001669D03*
X028595Y001663D03*
X028595Y001657D03*
X028595Y001651D03*
X027353Y002173D03*
D211*
X027365Y002449D03*
X027845Y001669D03*
D212*
X028085Y001669D03*
X027785Y002329D03*
X028025Y002563D03*
X028025Y002569D03*
D213*
X028595Y001675D03*
D214*
X029432Y001765D03*
X029438Y001735D03*
X029438Y001705D03*
X029438Y001675D03*
X032192Y001735D03*
X032192Y001765D03*
X032192Y001795D03*
X032192Y001825D03*
D215*
X033554Y001675D03*
X030596Y001735D03*
X027986Y002875D03*
D216*
X027236Y002149D03*
X027230Y002131D03*
X028694Y001831D03*
X028706Y001813D03*
X028706Y001807D03*
X028706Y001699D03*
D217*
X027863Y001705D03*
X027797Y002305D03*
X028019Y002545D03*
X033887Y002005D03*
D218*
X028424Y001705D03*
D219*
X028715Y001705D03*
X028685Y002455D03*
D220*
X028130Y002155D03*
X028112Y001825D03*
X027422Y001825D03*
X027896Y002695D03*
X027920Y002725D03*
X027968Y002785D03*
X032000Y001885D03*
X032000Y001705D03*
D221*
X033023Y001705D03*
X033053Y001765D03*
X028367Y001765D03*
D222*
X029423Y001795D03*
X028037Y002635D03*
X027359Y002425D03*
X033101Y001825D03*
X033629Y001705D03*
D223*
X033818Y001939D03*
X033884Y002011D03*
X033884Y002017D03*
X033956Y002017D03*
X033956Y002011D03*
X027866Y001711D03*
X027608Y002161D03*
D224*
X028415Y001711D03*
D225*
X027875Y001723D03*
X027869Y001717D03*
X027545Y002161D03*
X028019Y002533D03*
X033881Y001939D03*
X033905Y001981D03*
X033959Y001939D03*
D226*
X028295Y001987D03*
X028289Y001969D03*
X028289Y001963D03*
X027407Y001723D03*
X027335Y002383D03*
X027725Y002557D03*
X027725Y002563D03*
D227*
X028679Y002473D03*
X028721Y001753D03*
X028721Y001747D03*
X028721Y001741D03*
X028721Y001729D03*
X028721Y001723D03*
D228*
X027953Y002059D03*
X028379Y002497D03*
X027407Y001729D03*
D229*
X027410Y001735D03*
D230*
X027878Y001735D03*
X028202Y002395D03*
X033818Y002005D03*
X033818Y001975D03*
X033818Y001945D03*
X033878Y001945D03*
X033878Y001975D03*
X033908Y001975D03*
X033932Y001975D03*
X033962Y001975D03*
X033962Y001945D03*
D231*
X028721Y001735D03*
D232*
X028715Y001771D03*
X028715Y001777D03*
X028715Y001783D03*
X028547Y002647D03*
X027329Y002347D03*
X027413Y001741D03*
D233*
X027884Y001741D03*
X027884Y001747D03*
X027806Y002293D03*
X028016Y002527D03*
X027380Y002461D03*
X033920Y001951D03*
D234*
X028709Y001801D03*
X028109Y001741D03*
X027329Y002341D03*
X028685Y002443D03*
D235*
X028553Y002671D03*
X028349Y002491D03*
X028031Y002677D03*
X030593Y001741D03*
D236*
X028676Y001873D03*
X028670Y001879D03*
X028106Y001747D03*
X027410Y001753D03*
X027236Y002083D03*
X028136Y002263D03*
X028676Y002407D03*
X028676Y002413D03*
D237*
X027998Y002845D03*
X027410Y001765D03*
D238*
X027974Y002071D03*
X028712Y001789D03*
X028682Y002449D03*
X028664Y002497D03*
D239*
X029186Y001885D03*
X028130Y001795D03*
D240*
X028709Y001795D03*
X028139Y002275D03*
D241*
X033104Y001795D03*
D242*
X028535Y002551D03*
X028115Y001819D03*
D243*
X031343Y001825D03*
D244*
X033785Y001825D03*
X028295Y002455D03*
D245*
X028535Y002539D03*
X028415Y002047D03*
X028115Y001831D03*
X029195Y001867D03*
X027935Y002749D03*
D246*
X028532Y002503D03*
X027362Y001969D03*
X027422Y001849D03*
D247*
X027425Y001855D03*
D248*
X028112Y001855D03*
X028124Y002125D03*
D249*
X028685Y001855D03*
D250*
X029198Y001855D03*
D251*
X027425Y001861D03*
D252*
X028109Y001861D03*
X028451Y002017D03*
X028535Y002509D03*
D253*
X027995Y002857D03*
X028685Y001861D03*
D254*
X028457Y002011D03*
X028121Y002101D03*
X028109Y001879D03*
X028109Y001873D03*
X028109Y001867D03*
X027371Y001963D03*
D255*
X027425Y001873D03*
X028109Y001903D03*
X028109Y001909D03*
X028109Y001921D03*
X028109Y001927D03*
X028121Y002077D03*
D256*
X027425Y001885D03*
D257*
X028106Y001885D03*
X028460Y002005D03*
D258*
X028667Y001885D03*
D259*
X028463Y001999D03*
X028121Y002083D03*
X028109Y001891D03*
X027377Y001957D03*
D260*
X027242Y002071D03*
X028136Y002257D03*
X028592Y001987D03*
X028658Y001903D03*
X028664Y001897D03*
X028664Y001891D03*
X029114Y001939D03*
X027992Y002851D03*
D261*
X027428Y001903D03*
D262*
X027428Y001915D03*
D263*
X028109Y001915D03*
D264*
X028652Y001915D03*
D265*
X031991Y001915D03*
D266*
X027428Y001921D03*
X027428Y001927D03*
X027422Y001933D03*
D267*
X028655Y002359D03*
X029135Y001933D03*
D268*
X027410Y001939D03*
D269*
X027398Y001945D03*
D270*
X027941Y001945D03*
X027959Y002065D03*
D271*
X028283Y001945D03*
X027761Y002665D03*
D272*
X033917Y001945D03*
D273*
X027380Y001951D03*
D274*
X028283Y001951D03*
X027983Y002869D03*
D275*
X027335Y002371D03*
X027935Y001969D03*
X027935Y001963D03*
X027935Y001957D03*
D276*
X033920Y001957D03*
X033920Y001963D03*
D277*
X028700Y002263D03*
X028670Y002389D03*
X028550Y002623D03*
X028610Y001969D03*
D278*
X027350Y001975D03*
D279*
X027932Y001975D03*
D280*
X028292Y001975D03*
X027728Y002575D03*
D281*
X027248Y002065D03*
X028604Y001975D03*
D282*
X028127Y002137D03*
X028127Y002143D03*
X027353Y002179D03*
X027347Y001981D03*
D283*
X027932Y001981D03*
X027932Y001987D03*
X027752Y002653D03*
X027758Y002659D03*
D284*
X028019Y002539D03*
X028211Y002401D03*
X028835Y002203D03*
X033887Y001999D03*
X033953Y001999D03*
X033953Y001993D03*
D285*
X027941Y002035D03*
X027929Y002005D03*
D286*
X028388Y002275D03*
X033956Y002005D03*
D287*
X027290Y002023D03*
D288*
X027278Y002035D03*
D289*
X028427Y002035D03*
D290*
X027266Y002047D03*
D291*
X027239Y002077D03*
X027251Y002161D03*
X027329Y002317D03*
D292*
X027233Y002095D03*
D293*
X028121Y002095D03*
D294*
X028124Y002107D03*
X028124Y002113D03*
D295*
X028127Y002119D03*
D296*
X028547Y002641D03*
X027233Y002143D03*
X027233Y002137D03*
D297*
X027242Y002155D03*
X028550Y002635D03*
D298*
X027620Y002155D03*
D299*
X027725Y002479D03*
X027725Y002491D03*
X028775Y002233D03*
D300*
X028760Y002239D03*
X027740Y002611D03*
X027740Y002617D03*
X027740Y002623D03*
X027740Y002629D03*
D301*
X027335Y002245D03*
D302*
X028010Y002515D03*
X028604Y002245D03*
D303*
X028748Y002245D03*
X027332Y002365D03*
D304*
X027332Y002251D03*
X028538Y002587D03*
D305*
X028730Y002251D03*
D306*
X027329Y002275D03*
D307*
X027332Y002281D03*
D308*
X027329Y002299D03*
D309*
X027803Y002299D03*
X028013Y002521D03*
D310*
X027329Y002305D03*
D311*
X028631Y002305D03*
D312*
X028649Y002341D03*
D313*
X028655Y002365D03*
D314*
X027731Y002455D03*
X027341Y002395D03*
D315*
X028670Y002395D03*
D316*
X027740Y002425D03*
D317*
X028679Y002425D03*
D318*
X027737Y002431D03*
X027737Y002437D03*
D319*
X028682Y002437D03*
X028682Y002431D03*
D320*
X027725Y002485D03*
D321*
X028673Y002485D03*
D322*
X028670Y002491D03*
D323*
X028535Y002515D03*
D324*
X027722Y002545D03*
D325*
X028538Y002575D03*
D326*
X027740Y002605D03*
D327*
X027743Y002635D03*
D328*
X028034Y002659D03*
D329*
X028034Y002665D03*
D330*
X027992Y002815D03*
D331*
X027983Y002863D03*
M02*
