G75*
G70*
%OFA0B0*%
%FSLAX24Y24*%
%IPPOS*%
%LPD*%
%AMOC8*
5,1,8,0,0,1.08239X$1,22.5*
%
%ADD10C,0.1340*%
%ADD11C,0.0680*%
%ADD12R,0.0680X0.0680*%
%ADD13R,0.0474X0.0513*%
%ADD14R,0.0513X0.0474*%
%ADD15R,0.0178X0.0710*%
%ADD16R,0.0710X0.0178*%
%ADD17R,0.0631X0.0710*%
%ADD18R,0.0395X0.0395*%
%ADD19C,0.0500*%
%ADD20C,0.0474*%
%ADD21R,0.0560X0.0960*%
%ADD22R,0.1497X0.0946*%
%ADD23R,0.0395X0.0631*%
%ADD24C,0.0660*%
%ADD25R,0.0394X0.0630*%
%ADD26R,0.0634X0.0634*%
%ADD27C,0.0634*%
%ADD28OC8,0.1043*%
%ADD29C,0.1360*%
%ADD30R,0.0474X0.0474*%
%ADD31R,0.0710X0.0631*%
%ADD32R,0.0434X0.0395*%
%ADD33R,0.0300X0.0580*%
%ADD34R,0.0580X0.0300*%
%ADD35C,0.1660*%
%ADD36R,0.2206X0.2521*%
%ADD37R,0.0474X0.0710*%
%ADD38R,0.0631X0.1261*%
%ADD39R,0.1261X0.0631*%
%ADD40R,0.1025X0.1025*%
%ADD41R,0.0474X0.0356*%
%ADD42R,0.0316X0.0356*%
%ADD43C,0.0600*%
%ADD44R,0.0540X0.0710*%
%ADD45R,0.0060X0.0720*%
%ADD46R,0.0828X0.1419*%
%ADD47C,0.0197*%
%ADD48C,0.0040*%
%ADD49R,0.0580X0.0580*%
%ADD50OC8,0.0680*%
%ADD51R,0.0316X0.0946*%
%ADD52R,0.0631X0.0474*%
%ADD53R,0.0277X0.0336*%
%ADD54R,0.0336X0.0277*%
%ADD55R,0.0710X0.0540*%
%ADD56R,0.0720X0.0060*%
%ADD57R,0.0611X0.0237*%
%ADD58R,0.0867X0.0671*%
%ADD59C,0.0556*%
%ADD60R,0.0336X0.0395*%
%ADD61R,0.0380X0.0380*%
%ADD62C,0.0848*%
%ADD63R,0.0530X0.0480*%
%ADD64R,0.0460X0.0480*%
%ADD65OC8,0.0600*%
%ADD66R,0.0946X0.0316*%
%ADD67OC8,0.0780*%
%ADD68C,0.1080*%
D10*
X006940Y001550D03*
X027440Y003550D03*
X027440Y014550D03*
X007440Y020550D03*
D11*
X008840Y020550D03*
X009840Y020550D03*
X010840Y020550D03*
X011840Y020550D03*
X012840Y020550D03*
X013840Y020550D03*
X014840Y020550D03*
X015840Y020550D03*
X016840Y020550D03*
X017840Y020550D03*
X019440Y020550D03*
X020440Y020550D03*
X021440Y020550D03*
X022440Y020550D03*
X023440Y020550D03*
X024440Y020550D03*
X025440Y020550D03*
X017640Y017050D03*
X024715Y010475D03*
X017640Y005050D03*
X011440Y006050D03*
X011440Y007050D03*
X011440Y008050D03*
X002834Y007942D03*
X002834Y006942D03*
X002834Y011158D03*
X002834Y012158D03*
X013440Y001550D03*
X014440Y001550D03*
X015440Y001550D03*
X016440Y001550D03*
X017440Y001550D03*
X018440Y001550D03*
X019440Y001550D03*
X021440Y001550D03*
X022440Y001550D03*
X023440Y001550D03*
X024440Y001550D03*
X025440Y001550D03*
X026440Y001550D03*
D12*
X012440Y001550D03*
X011440Y005050D03*
X026440Y020550D03*
D13*
X016840Y017285D03*
X016840Y016615D03*
X013440Y015885D03*
X012840Y015885D03*
X012840Y015215D03*
X013440Y015215D03*
X010090Y015715D03*
X010090Y016385D03*
X010090Y017115D03*
X010090Y017785D03*
X010090Y018515D03*
X010090Y019185D03*
X007340Y019185D03*
X007340Y018515D03*
X007340Y017785D03*
X007340Y017115D03*
X007340Y016385D03*
X007340Y015715D03*
X006140Y015985D03*
X005440Y015985D03*
X005440Y015315D03*
X006140Y015315D03*
X006140Y016715D03*
X005440Y016715D03*
X005440Y017385D03*
X006140Y017385D03*
X012490Y011835D03*
X012490Y011165D03*
X010790Y009985D03*
X010790Y009315D03*
X016640Y006585D03*
X017390Y006585D03*
X017390Y005915D03*
X016640Y005915D03*
X020390Y012315D03*
X020390Y012985D03*
X019590Y013665D03*
X019590Y014335D03*
X018440Y014385D03*
X018440Y013715D03*
X030065Y010785D03*
X030065Y010115D03*
D14*
X026375Y014950D03*
X025705Y014950D03*
X023775Y015900D03*
X023105Y015900D03*
X022325Y015900D03*
X021655Y015900D03*
X021655Y016600D03*
X022325Y016600D03*
X023105Y016600D03*
X023775Y016600D03*
X016225Y015950D03*
X015555Y015950D03*
X014875Y015950D03*
X014205Y015950D03*
X012175Y015200D03*
X011505Y015200D03*
X010025Y011550D03*
X009355Y011550D03*
X009355Y009450D03*
X010025Y009450D03*
X019005Y012800D03*
X019675Y012800D03*
X002675Y018300D03*
X002005Y018300D03*
D15*
X014444Y013755D03*
X014601Y013755D03*
X014759Y013755D03*
X014916Y013755D03*
X015074Y013755D03*
X015231Y013755D03*
X015389Y013755D03*
X015546Y013755D03*
X015704Y013755D03*
X015861Y013755D03*
X016019Y013755D03*
X016176Y013755D03*
X016334Y013755D03*
X016491Y013755D03*
X016649Y013755D03*
X016806Y013755D03*
X016964Y013755D03*
X017121Y013755D03*
X017279Y013755D03*
X017436Y013755D03*
X017436Y009345D03*
X017279Y009345D03*
X017121Y009345D03*
X016964Y009345D03*
X016806Y009345D03*
X016649Y009345D03*
X016491Y009345D03*
X016334Y009345D03*
X016176Y009345D03*
X016019Y009345D03*
X015861Y009345D03*
X015704Y009345D03*
X015546Y009345D03*
X015389Y009345D03*
X015231Y009345D03*
X015074Y009345D03*
X014916Y009345D03*
X014759Y009345D03*
X014601Y009345D03*
X014444Y009345D03*
D16*
X013735Y010054D03*
X013735Y010211D03*
X013735Y010369D03*
X013735Y010526D03*
X013735Y010684D03*
X013735Y010841D03*
X013735Y010999D03*
X013735Y011156D03*
X013735Y011314D03*
X013735Y011471D03*
X013735Y011629D03*
X013735Y011786D03*
X013735Y011944D03*
X013735Y012101D03*
X013735Y012259D03*
X013735Y012416D03*
X013735Y012574D03*
X013735Y012731D03*
X013735Y012889D03*
X013735Y013046D03*
X018145Y013046D03*
X018145Y012889D03*
X018145Y012731D03*
X018145Y012574D03*
X018145Y012416D03*
X018145Y012259D03*
X018145Y012101D03*
X018145Y011944D03*
X018145Y011786D03*
X018145Y011629D03*
X018145Y011471D03*
X018145Y011314D03*
X018145Y011156D03*
X018145Y010999D03*
X018145Y010841D03*
X018145Y010684D03*
X018145Y010526D03*
X018145Y010369D03*
X018145Y010211D03*
X018145Y010054D03*
D17*
X015711Y014880D03*
X014609Y014880D03*
X021489Y003800D03*
X022591Y003800D03*
D18*
X020635Y007150D03*
X020045Y007150D03*
X020045Y007750D03*
X020635Y007750D03*
X020635Y008350D03*
X020045Y008350D03*
X020045Y008950D03*
X020635Y008950D03*
X020635Y009550D03*
X020045Y009550D03*
X020045Y010150D03*
X020635Y010150D03*
X026195Y015600D03*
X026785Y015600D03*
X026785Y016350D03*
X026195Y016350D03*
X002718Y018958D03*
X002127Y018958D03*
X002127Y020491D03*
X002718Y020491D03*
D19*
X017386Y015550D02*
X017388Y015587D01*
X017394Y015624D01*
X017403Y015659D01*
X017417Y015694D01*
X017433Y015727D01*
X017454Y015758D01*
X017477Y015787D01*
X017503Y015813D01*
X017532Y015836D01*
X017563Y015857D01*
X017596Y015873D01*
X017631Y015887D01*
X017666Y015896D01*
X017703Y015902D01*
X017740Y015904D01*
X017777Y015902D01*
X017814Y015896D01*
X017849Y015887D01*
X017884Y015873D01*
X017917Y015857D01*
X017948Y015836D01*
X017977Y015813D01*
X018003Y015787D01*
X018026Y015758D01*
X018047Y015727D01*
X018063Y015694D01*
X018077Y015659D01*
X018086Y015624D01*
X018092Y015587D01*
X018094Y015550D01*
X018092Y015513D01*
X018086Y015476D01*
X018077Y015441D01*
X018063Y015406D01*
X018047Y015373D01*
X018026Y015342D01*
X018003Y015313D01*
X017977Y015287D01*
X017948Y015264D01*
X017917Y015243D01*
X017884Y015227D01*
X017849Y015213D01*
X017814Y015204D01*
X017777Y015198D01*
X017740Y015196D01*
X017703Y015198D01*
X017666Y015204D01*
X017631Y015213D01*
X017596Y015227D01*
X017563Y015243D01*
X017532Y015264D01*
X017503Y015287D01*
X017477Y015313D01*
X017454Y015342D01*
X017433Y015373D01*
X017417Y015406D01*
X017403Y015441D01*
X017394Y015476D01*
X017388Y015513D01*
X017386Y015550D01*
X002136Y009950D02*
X002138Y009987D01*
X002144Y010024D01*
X002153Y010059D01*
X002167Y010094D01*
X002183Y010127D01*
X002204Y010158D01*
X002227Y010187D01*
X002253Y010213D01*
X002282Y010236D01*
X002313Y010257D01*
X002346Y010273D01*
X002381Y010287D01*
X002416Y010296D01*
X002453Y010302D01*
X002490Y010304D01*
X002527Y010302D01*
X002564Y010296D01*
X002599Y010287D01*
X002634Y010273D01*
X002667Y010257D01*
X002698Y010236D01*
X002727Y010213D01*
X002753Y010187D01*
X002776Y010158D01*
X002797Y010127D01*
X002813Y010094D01*
X002827Y010059D01*
X002836Y010024D01*
X002842Y009987D01*
X002844Y009950D01*
X002842Y009913D01*
X002836Y009876D01*
X002827Y009841D01*
X002813Y009806D01*
X002797Y009773D01*
X002776Y009742D01*
X002753Y009713D01*
X002727Y009687D01*
X002698Y009664D01*
X002667Y009643D01*
X002634Y009627D01*
X002599Y009613D01*
X002564Y009604D01*
X002527Y009598D01*
X002490Y009596D01*
X002453Y009598D01*
X002416Y009604D01*
X002381Y009613D01*
X002346Y009627D01*
X002313Y009643D01*
X002282Y009664D01*
X002253Y009687D01*
X002227Y009713D01*
X002204Y009742D01*
X002183Y009773D01*
X002167Y009806D01*
X002153Y009841D01*
X002144Y009876D01*
X002138Y009913D01*
X002136Y009950D01*
X028024Y004663D02*
X028026Y004700D01*
X028032Y004737D01*
X028041Y004772D01*
X028055Y004807D01*
X028071Y004840D01*
X028092Y004871D01*
X028115Y004900D01*
X028141Y004926D01*
X028170Y004949D01*
X028201Y004970D01*
X028234Y004986D01*
X028269Y005000D01*
X028304Y005009D01*
X028341Y005015D01*
X028378Y005017D01*
X028415Y005015D01*
X028452Y005009D01*
X028487Y005000D01*
X028522Y004986D01*
X028555Y004970D01*
X028586Y004949D01*
X028615Y004926D01*
X028641Y004900D01*
X028664Y004871D01*
X028685Y004840D01*
X028701Y004807D01*
X028715Y004772D01*
X028724Y004737D01*
X028730Y004700D01*
X028732Y004663D01*
X028730Y004626D01*
X028724Y004589D01*
X028715Y004554D01*
X028701Y004519D01*
X028685Y004486D01*
X028664Y004455D01*
X028641Y004426D01*
X028615Y004400D01*
X028586Y004377D01*
X028555Y004356D01*
X028522Y004340D01*
X028487Y004326D01*
X028452Y004317D01*
X028415Y004311D01*
X028378Y004309D01*
X028341Y004311D01*
X028304Y004317D01*
X028269Y004326D01*
X028234Y004340D01*
X028201Y004356D01*
X028170Y004377D01*
X028141Y004400D01*
X028115Y004426D01*
X028092Y004455D01*
X028071Y004486D01*
X028055Y004519D01*
X028041Y004554D01*
X028032Y004589D01*
X028026Y004626D01*
X028024Y004663D01*
D20*
X028378Y004663D03*
X017740Y015550D03*
X002490Y009950D03*
D21*
X018730Y006220D03*
X019640Y006220D03*
X020550Y006220D03*
X031168Y010583D03*
X032078Y010583D03*
X032988Y010583D03*
D22*
X032078Y008142D03*
X019640Y003780D03*
D23*
X019040Y005500D03*
X020240Y005500D03*
X031478Y009875D03*
X032678Y009875D03*
D24*
X032188Y009183D02*
X031968Y009183D01*
X032188Y009183D02*
X032188Y008327D01*
X031968Y008327D01*
X031968Y009183D01*
X031968Y008986D02*
X032188Y008986D01*
X019750Y004808D02*
X019530Y004808D01*
X019750Y004808D02*
X019750Y003952D01*
X019530Y003952D01*
X019530Y004808D01*
X019530Y004611D02*
X019750Y004611D01*
D25*
X019640Y005530D03*
X032078Y009905D03*
D26*
X007940Y011800D03*
D27*
X006940Y011300D03*
X007940Y010800D03*
X006940Y010300D03*
X007940Y009800D03*
X006940Y009300D03*
X007940Y008800D03*
X006940Y008300D03*
X007940Y007800D03*
X006940Y007300D03*
D28*
X005641Y006501D03*
X005641Y012599D03*
D29*
X004440Y011800D03*
X004440Y007300D03*
D30*
X012540Y009256D03*
X012540Y010044D03*
X020290Y013656D03*
X020290Y014444D03*
D31*
X020790Y015249D03*
X020790Y016351D03*
X011640Y010551D03*
X011640Y009449D03*
X030090Y009326D03*
X030090Y008224D03*
D32*
X025896Y013476D03*
X026723Y013850D03*
X025896Y014224D03*
X013534Y014524D03*
X012707Y014150D03*
X013534Y013776D03*
D33*
X022488Y015046D03*
X022803Y015046D03*
X023118Y015046D03*
X023433Y015046D03*
X023747Y015046D03*
X024062Y015046D03*
X024377Y015046D03*
X024692Y015046D03*
X024692Y011666D03*
X024377Y011666D03*
X024062Y011666D03*
X023747Y011666D03*
X023433Y011666D03*
X023118Y011666D03*
X022803Y011666D03*
X022488Y011666D03*
D34*
X021900Y012254D03*
X021900Y012569D03*
X021900Y012884D03*
X021900Y013199D03*
X021900Y013514D03*
X021900Y013829D03*
X021900Y014144D03*
X021900Y014459D03*
X025280Y014459D03*
X025280Y014144D03*
X025280Y013829D03*
X025280Y013514D03*
X025280Y013199D03*
X025280Y012884D03*
X025280Y012569D03*
X025280Y012254D03*
D35*
X004903Y001850D03*
X006084Y003700D03*
X003721Y003700D03*
D36*
X014790Y004566D03*
D37*
X013892Y007440D03*
X015688Y007440D03*
D38*
X008090Y005695D03*
X008090Y003805D03*
D39*
X009295Y002050D03*
X011185Y002050D03*
D40*
X010140Y003834D03*
X010140Y005566D03*
D41*
X017935Y008094D03*
D42*
X017266Y008094D03*
X017266Y007306D03*
X018014Y007306D03*
D43*
X019190Y015800D03*
X019190Y017700D03*
X021440Y017900D03*
X023340Y017900D03*
X008740Y018350D03*
X008740Y016450D03*
D44*
X015440Y017050D03*
X016040Y017050D03*
D45*
X015740Y017050D03*
D46*
X006508Y014100D03*
X004972Y014100D03*
D47*
X004818Y019128D02*
X004818Y020172D01*
X005862Y020172D01*
X005862Y019187D01*
X005803Y019128D01*
X004818Y019128D01*
X004818Y019304D02*
X005862Y019304D01*
X005862Y019499D02*
X004818Y019499D01*
X004818Y019694D02*
X005862Y019694D01*
X005862Y019890D02*
X004818Y019890D01*
X004818Y020085D02*
X005862Y020085D01*
D48*
X006147Y020103D02*
X006147Y020181D01*
X006344Y020181D01*
X006344Y020103D01*
X006147Y020103D01*
X006147Y020108D02*
X006344Y020108D01*
X006344Y020147D02*
X006147Y020147D01*
X006147Y020300D02*
X006344Y020300D01*
X006344Y020378D01*
X006167Y020378D01*
X006147Y020359D01*
X006147Y020300D01*
X006147Y020301D02*
X006344Y020301D01*
X006344Y020339D02*
X006147Y020339D01*
X006166Y020378D02*
X006344Y020378D01*
X006068Y020477D02*
X006068Y020654D01*
X005990Y020654D01*
X005990Y020457D01*
X006049Y020457D01*
X006068Y020477D01*
X006068Y020493D02*
X005990Y020493D01*
X005990Y020532D02*
X006068Y020532D01*
X006068Y020570D02*
X005990Y020570D01*
X005990Y020609D02*
X006068Y020609D01*
X006068Y020647D02*
X005990Y020647D01*
X005871Y020647D02*
X005793Y020647D01*
X005793Y020654D02*
X005871Y020654D01*
X005871Y020457D01*
X005793Y020457D01*
X005793Y020654D01*
X005793Y020609D02*
X005871Y020609D01*
X005871Y020570D02*
X005793Y020570D01*
X005793Y020532D02*
X005871Y020532D01*
X005871Y020493D02*
X005793Y020493D01*
X005675Y020493D02*
X005596Y020493D01*
X005596Y020457D02*
X005596Y020654D01*
X005675Y020654D01*
X005675Y020457D01*
X005596Y020457D01*
X005596Y020532D02*
X005675Y020532D01*
X005675Y020570D02*
X005596Y020570D01*
X005596Y020609D02*
X005675Y020609D01*
X005675Y020647D02*
X005596Y020647D01*
X005478Y020647D02*
X005399Y020647D01*
X005399Y020654D02*
X005478Y020654D01*
X005478Y020457D01*
X005399Y020457D01*
X005399Y020654D01*
X005399Y020609D02*
X005478Y020609D01*
X005478Y020570D02*
X005399Y020570D01*
X005399Y020532D02*
X005478Y020532D01*
X005478Y020493D02*
X005399Y020493D01*
X005281Y020493D02*
X005202Y020493D01*
X005202Y020457D02*
X005202Y020654D01*
X005281Y020654D01*
X005281Y020457D01*
X005202Y020457D01*
X005202Y020532D02*
X005281Y020532D01*
X005281Y020570D02*
X005202Y020570D01*
X005202Y020609D02*
X005281Y020609D01*
X005281Y020647D02*
X005202Y020647D01*
X005084Y020647D02*
X005005Y020647D01*
X005005Y020654D02*
X005084Y020654D01*
X005084Y020457D01*
X005005Y020457D01*
X005005Y020654D01*
X005005Y020609D02*
X005084Y020609D01*
X005084Y020570D02*
X005005Y020570D01*
X005005Y020532D02*
X005084Y020532D01*
X005084Y020493D02*
X005005Y020493D01*
X004887Y020493D02*
X004809Y020493D01*
X004809Y020457D02*
X004809Y020654D01*
X004887Y020654D01*
X004887Y020457D01*
X004809Y020457D01*
X004809Y020532D02*
X004887Y020532D01*
X004887Y020570D02*
X004809Y020570D01*
X004809Y020609D02*
X004887Y020609D01*
X004887Y020647D02*
X004809Y020647D01*
X004690Y020647D02*
X004612Y020647D01*
X004612Y020654D02*
X004690Y020654D01*
X004690Y020457D01*
X004631Y020457D01*
X004612Y020477D01*
X004612Y020654D01*
X004612Y020609D02*
X004690Y020609D01*
X004690Y020570D02*
X004612Y020570D01*
X004612Y020532D02*
X004690Y020532D01*
X004690Y020493D02*
X004612Y020493D01*
X004513Y020378D02*
X004533Y020359D01*
X004533Y020300D01*
X004336Y020300D01*
X004336Y020378D01*
X004513Y020378D01*
X004514Y020378D02*
X004336Y020378D01*
X004336Y020339D02*
X004533Y020339D01*
X004533Y020301D02*
X004336Y020301D01*
X004336Y020181D02*
X004336Y020103D01*
X004533Y020103D01*
X004533Y020181D01*
X004336Y020181D01*
X004336Y020147D02*
X004533Y020147D01*
X004533Y020108D02*
X004336Y020108D01*
X004336Y019985D02*
X004336Y019906D01*
X004533Y019906D01*
X004533Y019985D01*
X004336Y019985D01*
X004336Y019954D02*
X004533Y019954D01*
X004533Y019916D02*
X004336Y019916D01*
X004336Y019788D02*
X004336Y019709D01*
X004533Y019709D01*
X004533Y019788D01*
X004336Y019788D01*
X004336Y019762D02*
X004533Y019762D01*
X004533Y019723D02*
X004336Y019723D01*
X004336Y019591D02*
X004336Y019512D01*
X004533Y019512D01*
X004533Y019591D01*
X004336Y019591D01*
X004336Y019569D02*
X004533Y019569D01*
X004533Y019531D02*
X004336Y019531D01*
X004336Y019394D02*
X004336Y019315D01*
X004533Y019315D01*
X004533Y019394D01*
X004336Y019394D01*
X004336Y019377D02*
X004533Y019377D01*
X004533Y019338D02*
X004336Y019338D01*
X004336Y019197D02*
X004336Y019119D01*
X004533Y019119D01*
X004533Y019197D01*
X004336Y019197D01*
X004336Y019184D02*
X004533Y019184D01*
X004533Y019146D02*
X004336Y019146D01*
X004336Y019000D02*
X004336Y018922D01*
X004513Y018922D01*
X004533Y018941D01*
X004533Y019000D01*
X004336Y019000D01*
X004336Y018992D02*
X004533Y018992D01*
X004533Y018953D02*
X004336Y018953D01*
X004612Y018823D02*
X004612Y018646D01*
X004690Y018646D01*
X004690Y018843D01*
X004631Y018843D01*
X004612Y018823D01*
X004626Y018838D02*
X004690Y018838D01*
X004690Y018799D02*
X004612Y018799D01*
X004612Y018761D02*
X004690Y018761D01*
X004690Y018722D02*
X004612Y018722D01*
X004612Y018684D02*
X004690Y018684D01*
X004809Y018684D02*
X004887Y018684D01*
X004887Y018646D02*
X004809Y018646D01*
X004809Y018843D01*
X004887Y018843D01*
X004887Y018646D01*
X004887Y018722D02*
X004809Y018722D01*
X004809Y018761D02*
X004887Y018761D01*
X004887Y018799D02*
X004809Y018799D01*
X004809Y018838D02*
X004887Y018838D01*
X005005Y018838D02*
X005084Y018838D01*
X005084Y018843D02*
X005084Y018646D01*
X005005Y018646D01*
X005005Y018843D01*
X005084Y018843D01*
X005084Y018799D02*
X005005Y018799D01*
X005005Y018761D02*
X005084Y018761D01*
X005084Y018722D02*
X005005Y018722D01*
X005005Y018684D02*
X005084Y018684D01*
X005202Y018684D02*
X005281Y018684D01*
X005281Y018646D02*
X005202Y018646D01*
X005202Y018843D01*
X005281Y018843D01*
X005281Y018646D01*
X005281Y018722D02*
X005202Y018722D01*
X005202Y018761D02*
X005281Y018761D01*
X005281Y018799D02*
X005202Y018799D01*
X005202Y018838D02*
X005281Y018838D01*
X005399Y018838D02*
X005478Y018838D01*
X005478Y018843D02*
X005478Y018646D01*
X005399Y018646D01*
X005399Y018843D01*
X005478Y018843D01*
X005478Y018799D02*
X005399Y018799D01*
X005399Y018761D02*
X005478Y018761D01*
X005478Y018722D02*
X005399Y018722D01*
X005399Y018684D02*
X005478Y018684D01*
X005596Y018684D02*
X005675Y018684D01*
X005675Y018646D02*
X005596Y018646D01*
X005596Y018843D01*
X005675Y018843D01*
X005675Y018646D01*
X005675Y018722D02*
X005596Y018722D01*
X005596Y018761D02*
X005675Y018761D01*
X005675Y018799D02*
X005596Y018799D01*
X005596Y018838D02*
X005675Y018838D01*
X005793Y018838D02*
X005871Y018838D01*
X005871Y018843D02*
X005871Y018646D01*
X005793Y018646D01*
X005793Y018843D01*
X005871Y018843D01*
X005871Y018799D02*
X005793Y018799D01*
X005793Y018761D02*
X005871Y018761D01*
X005871Y018722D02*
X005793Y018722D01*
X005793Y018684D02*
X005871Y018684D01*
X005990Y018684D02*
X006068Y018684D01*
X006068Y018646D02*
X005990Y018646D01*
X005990Y018843D01*
X006049Y018843D01*
X006068Y018823D01*
X006068Y018646D01*
X006068Y018722D02*
X005990Y018722D01*
X005990Y018761D02*
X006068Y018761D01*
X006068Y018799D02*
X005990Y018799D01*
X005990Y018838D02*
X006054Y018838D01*
X006147Y018941D02*
X006147Y019000D01*
X006344Y019000D01*
X006344Y018922D01*
X006167Y018922D01*
X006147Y018941D01*
X006147Y018953D02*
X006344Y018953D01*
X006344Y018992D02*
X006147Y018992D01*
X006147Y019119D02*
X006147Y019197D01*
X006344Y019197D01*
X006344Y019119D01*
X006147Y019119D01*
X006147Y019146D02*
X006344Y019146D01*
X006344Y019184D02*
X006147Y019184D01*
X006147Y019315D02*
X006147Y019394D01*
X006344Y019394D01*
X006344Y019315D01*
X006147Y019315D01*
X006147Y019338D02*
X006344Y019338D01*
X006344Y019377D02*
X006147Y019377D01*
X006147Y019512D02*
X006147Y019591D01*
X006344Y019591D01*
X006344Y019512D01*
X006147Y019512D01*
X006147Y019531D02*
X006344Y019531D01*
X006344Y019569D02*
X006147Y019569D01*
X006147Y019709D02*
X006147Y019788D01*
X006344Y019788D01*
X006344Y019709D01*
X006147Y019709D01*
X006147Y019723D02*
X006344Y019723D01*
X006344Y019762D02*
X006147Y019762D01*
X006147Y019906D02*
X006147Y019985D01*
X006344Y019985D01*
X006344Y019906D01*
X006147Y019906D01*
X006147Y019916D02*
X006344Y019916D01*
X006344Y019954D02*
X006147Y019954D01*
D49*
X004140Y018150D03*
X003340Y018150D03*
D50*
X008240Y014550D03*
X009240Y014550D03*
X010240Y014550D03*
X010240Y013550D03*
X009240Y013550D03*
X008240Y013550D03*
X026495Y012530D03*
X027495Y012530D03*
X027495Y011530D03*
X026495Y011530D03*
X026495Y010530D03*
X027495Y010530D03*
D51*
X012240Y016276D03*
X011740Y016276D03*
X011240Y016276D03*
X010740Y016276D03*
X010740Y018324D03*
X011240Y018324D03*
X011740Y018324D03*
X012240Y018324D03*
D52*
X011207Y014374D03*
X012073Y014000D03*
X011207Y013626D03*
D53*
X013568Y016784D03*
X013883Y016784D03*
X014197Y016784D03*
X014512Y016784D03*
X014512Y017316D03*
X014197Y017316D03*
X013883Y017316D03*
X013568Y017316D03*
X021918Y010766D03*
X022233Y010766D03*
X022547Y010766D03*
X022862Y010766D03*
X022862Y010234D03*
X022547Y010234D03*
X022233Y010234D03*
X021918Y010234D03*
D54*
X019406Y009672D03*
X019406Y009357D03*
X018874Y009357D03*
X018874Y009672D03*
X018874Y009043D03*
X018874Y008728D03*
X019406Y008728D03*
X019406Y009043D03*
X019406Y008222D03*
X018874Y008222D03*
X018874Y007907D03*
X018874Y007593D03*
X019406Y007593D03*
X019406Y007907D03*
X019406Y007278D03*
X018874Y007278D03*
X013806Y008028D03*
X013806Y008343D03*
X013274Y008343D03*
X013274Y008028D03*
X013274Y008657D03*
X013274Y008972D03*
X013806Y008972D03*
X013806Y008657D03*
X009756Y010028D03*
X009756Y010343D03*
X009224Y010343D03*
X009224Y010028D03*
X009224Y010657D03*
X009224Y010972D03*
X009756Y010972D03*
X009756Y010657D03*
X003784Y019628D03*
X003253Y019628D03*
X003253Y019943D03*
X003253Y020257D03*
X003784Y020257D03*
X003784Y019943D03*
X003784Y020572D03*
X003253Y020572D03*
D55*
X016565Y008025D03*
X016565Y007425D03*
D56*
X016565Y007725D03*
D57*
X003054Y015038D03*
X003054Y015294D03*
X003054Y015550D03*
X003054Y015806D03*
X003054Y016062D03*
D58*
X002040Y016062D03*
X002040Y015038D03*
D59*
X003083Y014595D03*
X002119Y014123D03*
X001961Y014123D03*
X003083Y016505D03*
X002119Y016977D03*
X001961Y016977D03*
D60*
X016266Y017778D03*
X016640Y017778D03*
X017014Y017778D03*
X017014Y018722D03*
X016640Y018722D03*
X016266Y018722D03*
D61*
X015640Y018550D03*
X015640Y017950D03*
X017640Y017950D03*
X017640Y018550D03*
D62*
X029100Y020898D03*
X033668Y020895D03*
X032908Y006838D03*
X031898Y006840D03*
X030893Y006838D03*
X029888Y006840D03*
X029890Y005850D03*
X030895Y005848D03*
X031900Y005850D03*
X032910Y005848D03*
D63*
X024990Y005088D03*
X024190Y004738D03*
X024990Y004388D03*
D64*
X025690Y004478D03*
X025690Y005147D03*
X026253Y006290D03*
X026253Y006960D03*
X026265Y007615D03*
X026265Y008285D03*
X029340Y014903D03*
X029340Y015572D03*
D65*
X030428Y015275D03*
X030428Y016275D03*
X030428Y014275D03*
D66*
X025214Y007913D03*
X025214Y007413D03*
X025214Y006913D03*
X025214Y006413D03*
X023166Y006413D03*
X023166Y006913D03*
X023166Y007413D03*
X023166Y007913D03*
D67*
X033530Y012460D03*
X033530Y014240D03*
X033480Y016473D03*
X033480Y018253D03*
D68*
X032500Y018743D03*
X032500Y015983D03*
X032550Y014730D03*
X032550Y011970D03*
M02*
