G75*
G70*
%OFA0B0*%
%FSLAX24Y24*%
%IPPOS*%
%LPD*%
%AMOC8*
5,1,8,0,0,1.08239X$1,22.5*
%
%ADD10C,0.0080*%
%ADD11C,0.0120*%
%ADD12C,0.0100*%
%ADD13C,0.0140*%
%ADD14C,0.0050*%
%ADD15C,0.0150*%
%ADD16C,0.0060*%
%ADD17R,0.0200X0.0100*%
%ADD18C,0.0040*%
%ADD19R,0.0096X0.0012*%
%ADD20R,0.0096X0.0012*%
%ADD21R,0.0084X0.0012*%
%ADD22R,0.0084X0.0012*%
%ADD23R,0.0096X0.0012*%
%ADD24R,0.0084X0.0012*%
%ADD25R,0.0096X0.0012*%
%ADD26R,0.0180X0.0012*%
%ADD27R,0.0132X0.0012*%
%ADD28R,0.0324X0.0012*%
%ADD29R,0.0108X0.0012*%
%ADD30R,0.0312X0.0012*%
%ADD31R,0.0144X0.0012*%
%ADD32R,0.0324X0.0012*%
%ADD33R,0.0216X0.0012*%
%ADD34R,0.0396X0.0012*%
%ADD35R,0.0084X0.0012*%
%ADD36R,0.0108X0.0012*%
%ADD37R,0.0360X0.0012*%
%ADD38R,0.0384X0.0012*%
%ADD39R,0.0396X0.0012*%
%ADD40R,0.0216X0.0012*%
%ADD41R,0.0216X0.0012*%
%ADD42R,0.0396X0.0012*%
%ADD43R,0.0132X0.0012*%
%ADD44R,0.0384X0.0012*%
%ADD45R,0.0408X0.0012*%
%ADD46R,0.0396X0.0012*%
%ADD47R,0.0216X0.0012*%
%ADD48R,0.0168X0.0012*%
%ADD49R,0.0156X0.0012*%
%ADD50R,0.0072X0.0012*%
%ADD51R,0.0072X0.0012*%
%ADD52R,0.0072X0.0012*%
%ADD53R,0.0252X0.0012*%
%ADD54R,0.0408X0.0012*%
%ADD55R,0.0456X0.0012*%
%ADD56R,0.0372X0.0012*%
%ADD57R,0.0504X0.0012*%
%ADD58R,0.0612X0.0012*%
%ADD59R,0.0636X0.0012*%
%ADD60R,0.0684X0.0012*%
%ADD61R,0.0708X0.0012*%
%ADD62R,0.0768X0.0012*%
%ADD63R,0.0804X0.0012*%
%ADD64R,0.0144X0.0012*%
%ADD65R,0.0168X0.0012*%
%ADD66R,0.0840X0.0012*%
%ADD67R,0.0300X0.0012*%
%ADD68R,0.0360X0.0012*%
%ADD69R,0.0864X0.0012*%
%ADD70R,0.0300X0.0012*%
%ADD71R,0.0384X0.0012*%
%ADD72R,0.0900X0.0012*%
%ADD73R,0.0108X0.0012*%
%ADD74R,0.0120X0.0012*%
%ADD75R,0.0924X0.0012*%
%ADD76R,0.0960X0.0012*%
%ADD77R,0.0972X0.0012*%
%ADD78R,0.0984X0.0012*%
%ADD79R,0.1008X0.0012*%
%ADD80R,0.1032X0.0012*%
%ADD81R,0.1068X0.0012*%
%ADD82R,0.1080X0.0012*%
%ADD83R,0.1104X0.0012*%
%ADD84R,0.1104X0.0012*%
%ADD85R,0.1128X0.0012*%
%ADD86R,0.1140X0.0012*%
%ADD87R,0.1152X0.0012*%
%ADD88R,0.1164X0.0012*%
%ADD89R,0.0012X0.0012*%
%ADD90R,0.1188X0.0012*%
%ADD91R,0.1200X0.0012*%
%ADD92R,0.1224X0.0012*%
%ADD93R,0.0024X0.0012*%
%ADD94R,0.0492X0.0012*%
%ADD95R,0.0600X0.0012*%
%ADD96R,0.1236X0.0012*%
%ADD97R,0.0648X0.0012*%
%ADD98R,0.1248X0.0012*%
%ADD99R,0.0660X0.0012*%
%ADD100R,0.1260X0.0012*%
%ADD101R,0.0696X0.0012*%
%ADD102R,0.1260X0.0012*%
%ADD103R,0.0720X0.0012*%
%ADD104R,0.1284X0.0012*%
%ADD105R,0.0756X0.0012*%
%ADD106R,0.1284X0.0012*%
%ADD107R,0.1296X0.0012*%
%ADD108R,0.0792X0.0012*%
%ADD109R,0.1296X0.0012*%
%ADD110R,0.0792X0.0012*%
%ADD111R,0.1320X0.0012*%
%ADD112R,0.0816X0.0012*%
%ADD113R,0.1332X0.0012*%
%ADD114R,0.0828X0.0012*%
%ADD115R,0.1344X0.0012*%
%ADD116R,0.0840X0.0012*%
%ADD117R,0.1344X0.0012*%
%ADD118R,0.1356X0.0012*%
%ADD119R,0.1356X0.0012*%
%ADD120R,0.0852X0.0012*%
%ADD121R,0.0624X0.0012*%
%ADD122R,0.0588X0.0012*%
%ADD123R,0.0684X0.0012*%
%ADD124R,0.0204X0.0012*%
%ADD125R,0.0780X0.0012*%
%ADD126R,0.0192X0.0012*%
%ADD127R,0.0276X0.0012*%
%ADD128R,0.1368X0.0012*%
%ADD129R,0.0864X0.0012*%
%ADD130R,0.0192X0.0012*%
%ADD131R,0.1368X0.0012*%
%ADD132R,0.0876X0.0012*%
%ADD133R,0.0780X0.0012*%
%ADD134R,0.0756X0.0012*%
%ADD135R,0.0168X0.0012*%
%ADD136R,0.0156X0.0012*%
%ADD137R,0.0828X0.0012*%
%ADD138R,0.0204X0.0012*%
%ADD139R,0.0168X0.0012*%
%ADD140R,0.0192X0.0012*%
%ADD141R,0.0276X0.0012*%
%ADD142R,0.1392X0.0012*%
%ADD143R,0.0888X0.0012*%
%ADD144R,0.0864X0.0012*%
%ADD145R,0.0264X0.0012*%
%ADD146R,0.1392X0.0012*%
%ADD147R,0.0900X0.0012*%
%ADD148R,0.0804X0.0012*%
%ADD149R,0.0180X0.0012*%
%ADD150R,0.1404X0.0012*%
%ADD151R,0.0816X0.0012*%
%ADD152R,0.1416X0.0012*%
%ADD153R,0.0912X0.0012*%
%ADD154R,0.0228X0.0012*%
%ADD155R,0.0264X0.0012*%
%ADD156R,0.1416X0.0012*%
%ADD157R,0.0912X0.0012*%
%ADD158R,0.0240X0.0012*%
%ADD159R,0.0924X0.0012*%
%ADD160R,0.0924X0.0012*%
%ADD161R,0.0852X0.0012*%
%ADD162R,0.0192X0.0012*%
%ADD163R,0.0936X0.0012*%
%ADD164R,0.1032X0.0012*%
%ADD165R,0.0336X0.0012*%
%ADD166R,0.0948X0.0012*%
%ADD167R,0.0912X0.0012*%
%ADD168R,0.0324X0.0012*%
%ADD169R,0.0936X0.0012*%
%ADD170R,0.0960X0.0012*%
%ADD171R,0.0288X0.0012*%
%ADD172R,0.0936X0.0012*%
%ADD173R,0.0888X0.0012*%
%ADD174R,0.0972X0.0012*%
%ADD175R,0.0852X0.0012*%
%ADD176R,0.0672X0.0012*%
%ADD177R,0.0996X0.0012*%
%ADD178R,0.0348X0.0012*%
%ADD179R,0.0828X0.0012*%
%ADD180R,0.0612X0.0012*%
%ADD181R,0.0972X0.0012*%
%ADD182R,0.0348X0.0012*%
%ADD183R,0.0816X0.0012*%
%ADD184R,0.0576X0.0012*%
%ADD185R,0.0252X0.0012*%
%ADD186R,0.0372X0.0012*%
%ADD187R,0.0240X0.0012*%
%ADD188R,0.0984X0.0012*%
%ADD189R,0.0792X0.0012*%
%ADD190R,0.0480X0.0012*%
%ADD191R,0.0228X0.0012*%
%ADD192R,0.0456X0.0012*%
%ADD193R,0.0768X0.0012*%
%ADD194R,0.0264X0.0012*%
%ADD195R,0.0408X0.0012*%
%ADD196R,0.0972X0.0012*%
%ADD197R,0.0432X0.0012*%
%ADD198R,0.0984X0.0012*%
%ADD199R,0.0732X0.0012*%
%ADD200R,0.0732X0.0012*%
%ADD201R,0.0708X0.0012*%
%ADD202R,0.0312X0.0012*%
%ADD203R,0.0696X0.0012*%
%ADD204R,0.0996X0.0012*%
%ADD205R,0.0264X0.0012*%
%ADD206R,0.0228X0.0012*%
%ADD207R,0.0528X0.0012*%
%ADD208R,0.0444X0.0012*%
%ADD209R,0.0432X0.0012*%
%ADD210R,0.0144X0.0012*%
%ADD211R,0.1008X0.0012*%
%ADD212R,0.0528X0.0012*%
%ADD213R,0.0204X0.0012*%
%ADD214R,0.0120X0.0012*%
%ADD215R,0.1020X0.0012*%
%ADD216R,0.0204X0.0012*%
%ADD217R,0.0888X0.0012*%
%ADD218R,0.1020X0.0012*%
%ADD219R,0.0132X0.0012*%
%ADD220R,0.0108X0.0012*%
%ADD221R,0.0252X0.0012*%
%ADD222R,0.0948X0.0012*%
%ADD223R,0.0156X0.0012*%
%ADD224R,0.0948X0.0012*%
%ADD225R,0.0024X0.0012*%
%ADD226R,0.0576X0.0012*%
%ADD227R,0.0060X0.0012*%
%ADD228R,0.0540X0.0012*%
%ADD229R,0.0228X0.0012*%
%ADD230R,0.0048X0.0012*%
%ADD231R,0.0348X0.0012*%
%ADD232R,0.0528X0.0012*%
%ADD233R,0.0012X0.0012*%
%ADD234R,0.0036X0.0012*%
%ADD235R,0.0348X0.0012*%
%ADD236R,0.0528X0.0012*%
%ADD237R,0.0252X0.0012*%
%ADD238R,0.0420X0.0012*%
%ADD239R,0.0036X0.0012*%
%ADD240R,0.0516X0.0012*%
%ADD241R,0.0468X0.0012*%
%ADD242R,0.0480X0.0012*%
%ADD243R,0.0516X0.0012*%
%ADD244R,0.0156X0.0012*%
%ADD245R,0.0504X0.0012*%
%ADD246R,0.0540X0.0012*%
%ADD247R,0.0564X0.0012*%
%ADD248R,0.0372X0.0012*%
%ADD249R,0.0624X0.0012*%
%ADD250R,0.0696X0.0012*%
%ADD251R,0.0708X0.0012*%
%ADD252R,0.0768X0.0012*%
%ADD253R,0.0288X0.0012*%
%ADD254R,0.0936X0.0012*%
%ADD255R,0.0552X0.0012*%
%ADD256R,0.0564X0.0012*%
%ADD257R,0.0288X0.0012*%
%ADD258R,0.0888X0.0012*%
%ADD259R,0.0912X0.0012*%
%ADD260R,0.0576X0.0012*%
%ADD261R,0.0948X0.0012*%
%ADD262R,0.0588X0.0012*%
%ADD263R,0.0876X0.0012*%
%ADD264R,0.0996X0.0012*%
%ADD265R,0.0588X0.0012*%
%ADD266R,0.1032X0.0012*%
%ADD267R,0.1056X0.0012*%
%ADD268R,0.0600X0.0012*%
%ADD269R,0.0336X0.0012*%
%ADD270R,0.1092X0.0012*%
%ADD271R,0.1044X0.0012*%
%ADD272R,0.1068X0.0012*%
%ADD273R,0.0612X0.0012*%
%ADD274R,0.1116X0.0012*%
%ADD275R,0.1068X0.0012*%
%ADD276R,0.0624X0.0012*%
%ADD277R,0.1140X0.0012*%
%ADD278R,0.1092X0.0012*%
%ADD279R,0.0648X0.0012*%
%ADD280R,0.1164X0.0012*%
%ADD281R,0.0648X0.0012*%
%ADD282R,0.1176X0.0012*%
%ADD283R,0.1116X0.0012*%
%ADD284R,0.0648X0.0012*%
%ADD285R,0.1116X0.0012*%
%ADD286R,0.0660X0.0012*%
%ADD287R,0.1200X0.0012*%
%ADD288R,0.1224X0.0012*%
%ADD289R,0.0504X0.0012*%
%ADD290R,0.0732X0.0012*%
%ADD291R,0.1176X0.0012*%
%ADD292R,0.0504X0.0012*%
%ADD293R,0.0048X0.0012*%
%ADD294R,0.0036X0.0012*%
%ADD295R,0.0468X0.0012*%
%ADD296R,0.1104X0.0012*%
%ADD297R,0.0444X0.0012*%
%ADD298R,0.0024X0.0012*%
%ADD299R,0.1092X0.0012*%
%ADD300R,0.0048X0.0012*%
%ADD301R,0.0672X0.0012*%
%ADD302R,0.0420X0.0012*%
%ADD303R,0.0672X0.0012*%
%ADD304R,0.0432X0.0012*%
%ADD305R,0.0456X0.0012*%
%ADD306R,0.0036X0.0012*%
%ADD307R,0.0060X0.0012*%
%ADD308R,0.0048X0.0012*%
%ADD309R,0.1068X0.0012*%
%ADD310R,0.0444X0.0012*%
%ADD311R,0.1044X0.0012*%
%ADD312R,0.1008X0.0012*%
%ADD313R,0.0768X0.0012*%
%ADD314R,0.0744X0.0012*%
%ADD315R,0.0552X0.0012*%
%ADD316R,0.1092X0.0012*%
%ADD317R,0.1080X0.0012*%
%ADD318R,0.1056X0.0012*%
%ADD319R,0.0576X0.0012*%
%ADD320R,0.0636X0.0012*%
%ADD321R,0.0876X0.0012*%
%ADD322R,0.0876X0.0012*%
%ADD323R,0.0672X0.0012*%
%ADD324R,0.0828X0.0012*%
%ADD325R,0.0744X0.0012*%
%ADD326R,0.0072X0.0012*%
%ADD327R,0.0588X0.0012*%
%ADD328R,0.0756X0.0012*%
%ADD329R,0.0732X0.0012*%
%ADD330R,0.0612X0.0012*%
%ADD331R,0.0564X0.0012*%
%ADD332R,0.0372X0.0012*%
%ADD333R,0.0468X0.0012*%
%ADD334R,0.0552X0.0012*%
%ADD335R,0.0012X0.0012*%
%ADD336R,0.1044X0.0012*%
%ADD337R,0.0024X0.0012*%
%ADD338R,0.1044X0.0012*%
%ADD339R,0.0432X0.0012*%
%ADD340R,0.0708X0.0012*%
%ADD341R,0.0696X0.0012*%
%ADD342R,0.0312X0.0012*%
%ADD343R,0.0456X0.0012*%
%ADD344C,0.0030*%
D10*
X013940Y001300D02*
X014190Y001050D01*
X014690Y001050D01*
X014940Y001300D01*
X015190Y001050D01*
X015690Y001050D01*
X015940Y001300D01*
X016190Y001050D01*
X016690Y001050D01*
X016940Y001300D01*
X017190Y001050D01*
X017690Y001050D01*
X017940Y001300D01*
X018190Y001050D01*
X018690Y001050D01*
X018940Y001300D01*
X019190Y001050D01*
X019690Y001050D01*
X019940Y001300D01*
X019940Y001800D01*
X019690Y002050D01*
X019190Y002050D01*
X018940Y001800D01*
X018690Y002050D01*
X018190Y002050D01*
X017940Y001800D01*
X017690Y002050D01*
X017190Y002050D01*
X016940Y001800D01*
X016690Y002050D01*
X016190Y002050D01*
X015940Y001800D01*
X015690Y002050D01*
X015190Y002050D01*
X014940Y001800D01*
X014690Y002050D01*
X014190Y002050D01*
X013940Y001800D01*
X013940Y001300D01*
X017390Y004550D02*
X017890Y004550D01*
X018140Y004800D01*
X018140Y005300D02*
X017890Y005550D01*
X017390Y005550D01*
X017140Y005300D01*
X017140Y004800D02*
X017390Y004550D01*
X020940Y001800D02*
X021190Y002050D01*
X021690Y002050D01*
X021940Y001800D01*
X022190Y002050D01*
X022690Y002050D01*
X022940Y001800D01*
X023190Y002050D01*
X023690Y002050D01*
X023940Y001800D01*
X024190Y002050D01*
X024690Y002050D01*
X024940Y001800D01*
X025190Y002050D01*
X025690Y002050D01*
X025940Y001800D01*
X026190Y002050D01*
X026690Y002050D01*
X026940Y001800D01*
X026940Y001300D01*
X026690Y001050D01*
X026190Y001050D01*
X025940Y001300D01*
X025690Y001050D01*
X025190Y001050D01*
X024940Y001300D01*
X024690Y001050D01*
X024190Y001050D01*
X023940Y001300D01*
X023690Y001050D01*
X023190Y001050D01*
X022940Y001300D01*
X022690Y001050D01*
X022190Y001050D01*
X021940Y001300D01*
X021690Y001050D01*
X021190Y001050D01*
X020940Y001300D01*
X020940Y001800D01*
X017074Y008308D02*
X017074Y008929D01*
X016763Y008929D01*
X016660Y008825D01*
X016660Y008618D01*
X016763Y008515D01*
X017074Y008515D01*
X017305Y008618D02*
X017305Y008825D01*
X017408Y008929D01*
X017615Y008929D01*
X017718Y008825D01*
X017718Y008618D01*
X017615Y008515D01*
X017408Y008515D01*
X017305Y008618D01*
X017949Y008515D02*
X017949Y008825D01*
X018053Y008929D01*
X018363Y008929D01*
X018363Y008515D01*
X018586Y008515D02*
X018792Y008515D01*
X018689Y008515D02*
X018689Y008929D01*
X018792Y008929D01*
X018689Y009136D02*
X018689Y009239D01*
X019023Y008929D02*
X019023Y008515D01*
X019334Y008515D01*
X019437Y008618D01*
X019437Y008929D01*
X019668Y008929D02*
X019978Y008929D01*
X020082Y008825D01*
X020082Y008618D01*
X019978Y008515D01*
X019668Y008515D01*
X019668Y009136D01*
X020635Y008929D02*
X020635Y008618D01*
X020738Y008515D01*
X020842Y008618D01*
X020945Y008515D01*
X021048Y008618D01*
X021048Y008929D01*
X021279Y008929D02*
X021279Y008618D01*
X021383Y008515D01*
X021486Y008618D01*
X021590Y008515D01*
X021693Y008618D01*
X021693Y008929D01*
X021924Y008929D02*
X021924Y008618D01*
X022027Y008515D01*
X022131Y008618D01*
X022234Y008515D01*
X022338Y008618D01*
X022338Y008929D01*
X020404Y008618D02*
X020300Y008618D01*
X020300Y008515D01*
X020404Y008515D01*
X020404Y008618D01*
X016429Y008618D02*
X016429Y008825D01*
X016326Y008929D01*
X016119Y008929D01*
X016015Y008825D01*
X016015Y008722D01*
X016429Y008722D01*
X016429Y008618D02*
X016326Y008515D01*
X016119Y008515D01*
X015785Y008618D02*
X015681Y008722D01*
X015371Y008722D01*
X015371Y008825D02*
X015371Y008515D01*
X015681Y008515D01*
X015785Y008618D01*
X015474Y008929D02*
X015371Y008825D01*
X015474Y008929D02*
X015681Y008929D01*
X015140Y009136D02*
X015140Y008515D01*
X015140Y008722D02*
X014830Y008929D01*
X015140Y008722D02*
X014830Y008515D01*
X014603Y008515D02*
X014499Y008515D01*
X014499Y008618D01*
X014603Y008618D01*
X014603Y008515D01*
X014281Y008618D02*
X014281Y008825D01*
X014177Y008929D01*
X013867Y008929D01*
X013636Y008825D02*
X013636Y008618D01*
X013533Y008515D01*
X013326Y008515D01*
X013222Y008618D01*
X013222Y008825D01*
X013326Y008929D01*
X013533Y008929D01*
X013636Y008825D01*
X013867Y008515D02*
X014177Y008515D01*
X014281Y008618D01*
X012992Y008515D02*
X012992Y008929D01*
X012888Y008929D01*
X012785Y008825D01*
X012681Y008929D01*
X012578Y008825D01*
X012578Y008515D01*
X012785Y008515D02*
X012785Y008825D01*
X017390Y016550D02*
X017890Y016550D01*
X018140Y016800D01*
X018140Y017300D02*
X017890Y017550D01*
X017390Y017550D01*
X017140Y017300D01*
X017140Y016800D02*
X017390Y016550D01*
X021972Y018075D02*
X022042Y018075D01*
X022042Y018145D01*
X021972Y018145D01*
X021972Y018075D01*
X021972Y018285D02*
X022042Y018285D01*
X022042Y018355D01*
X021972Y018355D01*
X021972Y018285D01*
X022222Y018355D02*
X022432Y018355D01*
X022502Y018285D01*
X022432Y018215D01*
X022292Y018215D01*
X022222Y018145D01*
X022292Y018075D01*
X022502Y018075D01*
X022683Y018215D02*
X022963Y018215D01*
X022963Y018145D02*
X022963Y018285D01*
X022893Y018355D01*
X022753Y018355D01*
X022683Y018285D01*
X022683Y018215D01*
X022753Y018075D02*
X022893Y018075D01*
X022963Y018145D01*
X023136Y018355D02*
X023206Y018355D01*
X023347Y018215D01*
X023347Y018075D02*
X023347Y018355D01*
X023527Y018355D02*
X023527Y018075D01*
X023737Y018075D01*
X023807Y018145D01*
X023807Y018355D01*
X023974Y018355D02*
X024114Y018355D01*
X024044Y018425D02*
X024044Y018145D01*
X023974Y018075D01*
X024294Y018075D02*
X024504Y018075D01*
X024574Y018145D01*
X024504Y018215D01*
X024294Y018215D01*
X024294Y018285D02*
X024294Y018075D01*
X024294Y018285D02*
X024364Y018355D01*
X024504Y018355D01*
X024754Y018285D02*
X024824Y018355D01*
X024965Y018355D01*
X025035Y018285D01*
X025035Y018145D01*
X024965Y018075D01*
X024824Y018075D01*
X024754Y018215D02*
X025035Y018215D01*
X024754Y018215D02*
X024754Y018285D01*
X025215Y018495D02*
X025495Y018495D01*
X025495Y018075D01*
X025495Y018285D02*
X025355Y018285D01*
X025190Y020050D02*
X025690Y020050D01*
X025940Y020300D01*
X026190Y020050D01*
X026690Y020050D01*
X026940Y020300D01*
X026940Y020800D01*
X026690Y021050D01*
X026190Y021050D01*
X025940Y020800D01*
X025690Y021050D01*
X025190Y021050D01*
X024940Y020800D01*
X024690Y021050D01*
X024190Y021050D01*
X023940Y020800D01*
X023690Y021050D01*
X023190Y021050D01*
X022940Y020800D01*
X021940Y020800D02*
X021690Y021050D01*
X021190Y021050D01*
X020940Y020800D01*
X020690Y021050D01*
X020190Y021050D01*
X019940Y020800D01*
X019690Y021050D01*
X019190Y021050D01*
X018940Y020800D01*
X018940Y020300D01*
X019190Y020050D01*
X019690Y020050D01*
X019940Y020300D01*
X020190Y020050D01*
X020690Y020050D01*
X020940Y020300D01*
X021190Y020050D01*
X021690Y020050D01*
X021940Y020300D01*
X022190Y020050D02*
X022690Y020050D01*
X022940Y020300D02*
X023190Y020050D01*
X023690Y020050D01*
X023940Y020300D01*
X024190Y020050D01*
X024690Y020050D01*
X024940Y020300D01*
X025190Y020050D01*
X018340Y020300D02*
X018090Y020050D01*
X017590Y020050D01*
X017340Y020300D01*
X017090Y020050D01*
X016590Y020050D01*
X016340Y020300D01*
X016340Y020800D02*
X016590Y021050D01*
X017090Y021050D01*
X017340Y020800D01*
X017590Y021050D01*
X018090Y021050D01*
X018340Y020800D01*
X018340Y020300D01*
X012340Y020300D02*
X012090Y020050D01*
X011590Y020050D01*
X011340Y020300D01*
X011090Y020050D01*
X010590Y020050D01*
X010340Y020300D01*
X010090Y020050D01*
X009590Y020050D01*
X009340Y020300D01*
X009090Y020050D01*
X008590Y020050D01*
X008340Y020300D01*
X008340Y020800D02*
X008590Y021050D01*
X009090Y021050D02*
X009340Y020800D01*
X009590Y021050D01*
X010090Y021050D02*
X010340Y020800D01*
X010590Y021050D01*
X011090Y021050D01*
X011340Y020800D01*
X011590Y021050D01*
X012090Y021050D01*
X012340Y020800D01*
D11*
X012340Y020850D01*
X012342Y020876D01*
X012347Y020902D01*
X012355Y020927D01*
X012367Y020950D01*
X012381Y020972D01*
X012399Y020991D01*
X012418Y021009D01*
X012440Y021023D01*
X012463Y021035D01*
X012488Y021043D01*
X012514Y021048D01*
X012540Y021050D01*
X012590Y021050D01*
X012140Y021050D02*
X010540Y021050D01*
X010514Y021048D01*
X010488Y021043D01*
X010463Y021035D01*
X010440Y021023D01*
X010418Y021009D01*
X010399Y020991D01*
X010381Y020972D01*
X010367Y020950D01*
X010355Y020927D01*
X010347Y020902D01*
X010342Y020876D01*
X010340Y020850D01*
X010340Y020800D02*
X010340Y020300D01*
X010340Y019200D01*
X010338Y019174D01*
X010333Y019148D01*
X010325Y019123D01*
X010313Y019100D01*
X010299Y019078D01*
X010281Y019059D01*
X010262Y019041D01*
X010240Y019027D01*
X010217Y019015D01*
X010192Y019007D01*
X010166Y019002D01*
X010140Y019000D01*
X008540Y019000D01*
X008514Y019002D01*
X008488Y019007D01*
X008463Y019015D01*
X008440Y019027D01*
X008418Y019041D01*
X008399Y019059D01*
X008381Y019078D01*
X008367Y019100D01*
X008355Y019123D01*
X008347Y019148D01*
X008342Y019174D01*
X008340Y019200D01*
X008340Y020300D01*
X008340Y020800D01*
X008340Y020850D02*
X008342Y020876D01*
X008347Y020902D01*
X008355Y020927D01*
X008367Y020950D01*
X008381Y020972D01*
X008399Y020991D01*
X008418Y021009D01*
X008440Y021023D01*
X008463Y021035D01*
X008488Y021043D01*
X008514Y021048D01*
X008540Y021050D01*
X008590Y021050D01*
X009090Y021050D01*
X009590Y021050D01*
X010090Y021050D01*
X010140Y021050D01*
X010166Y021048D01*
X010192Y021043D01*
X010217Y021035D01*
X010240Y021023D01*
X010262Y021009D01*
X010281Y020991D01*
X010299Y020972D01*
X010313Y020950D01*
X010325Y020927D01*
X010333Y020902D01*
X010338Y020876D01*
X010340Y020850D01*
X012140Y021050D02*
X012166Y021048D01*
X012192Y021043D01*
X012217Y021035D01*
X012240Y021023D01*
X012262Y021009D01*
X012281Y020991D01*
X012299Y020972D01*
X012313Y020950D01*
X012325Y020927D01*
X012333Y020902D01*
X012338Y020876D01*
X012340Y020850D01*
X013090Y021050D02*
X013590Y021050D01*
X014090Y021050D02*
X014590Y021050D01*
X016090Y021050D02*
X022190Y021050D01*
X022940Y021050D02*
X026740Y021050D01*
X026766Y021048D01*
X026792Y021043D01*
X026817Y021035D01*
X026840Y021023D01*
X026862Y021009D01*
X026881Y020991D01*
X026899Y020972D01*
X026913Y020950D01*
X026925Y020927D01*
X026933Y020902D01*
X026938Y020876D01*
X026940Y020850D01*
X026940Y020800D02*
X026940Y019200D01*
X026938Y019174D01*
X026933Y019148D01*
X026925Y019123D01*
X026913Y019100D01*
X026899Y019078D01*
X026881Y019059D01*
X026862Y019041D01*
X026840Y019027D01*
X026817Y019015D01*
X026792Y019007D01*
X026766Y019002D01*
X026740Y019000D01*
X012540Y019000D01*
X012514Y019002D01*
X012488Y019007D01*
X012463Y019015D01*
X012440Y019027D01*
X012418Y019041D01*
X012399Y019059D01*
X012381Y019078D01*
X012367Y019100D01*
X012355Y019123D01*
X012347Y019148D01*
X012342Y019174D01*
X012340Y019200D01*
X012340Y020300D01*
X012340Y019200D02*
X012338Y019174D01*
X012333Y019148D01*
X012325Y019123D01*
X012313Y019100D01*
X012299Y019078D01*
X012281Y019059D01*
X012262Y019041D01*
X012240Y019027D01*
X012217Y019015D01*
X012192Y019007D01*
X012166Y019002D01*
X012140Y019000D01*
X010540Y019000D01*
X010514Y019002D01*
X010488Y019007D01*
X010463Y019015D01*
X010440Y019027D01*
X010418Y019041D01*
X010399Y019059D01*
X010381Y019078D01*
X010367Y019100D01*
X010355Y019123D01*
X010347Y019148D01*
X010342Y019174D01*
X010340Y019200D01*
X014140Y003100D02*
X019740Y003100D01*
X019766Y003098D01*
X019792Y003093D01*
X019817Y003085D01*
X019840Y003073D01*
X019862Y003059D01*
X019881Y003041D01*
X019899Y003022D01*
X019913Y003000D01*
X019925Y002977D01*
X019933Y002952D01*
X019938Y002926D01*
X019940Y002900D01*
X019940Y001250D01*
X019938Y001224D01*
X019933Y001198D01*
X019925Y001173D01*
X019913Y001150D01*
X019899Y001128D01*
X019881Y001109D01*
X019862Y001091D01*
X019840Y001077D01*
X019817Y001065D01*
X019792Y001057D01*
X019766Y001052D01*
X019740Y001050D01*
X014140Y001050D01*
X014114Y001052D01*
X014088Y001057D01*
X014063Y001065D01*
X014040Y001077D01*
X014018Y001091D01*
X013999Y001109D01*
X013981Y001128D01*
X013967Y001150D01*
X013955Y001173D01*
X013947Y001198D01*
X013942Y001224D01*
X013940Y001250D01*
X013940Y002900D01*
X013942Y002926D01*
X013947Y002952D01*
X013955Y002977D01*
X013967Y003000D01*
X013981Y003022D01*
X013999Y003041D01*
X014018Y003059D01*
X014040Y003073D01*
X014063Y003085D01*
X014088Y003093D01*
X014114Y003098D01*
X014140Y003100D01*
X020940Y002900D02*
X020940Y001250D01*
X020942Y001224D01*
X020947Y001198D01*
X020955Y001173D01*
X020967Y001150D01*
X020981Y001128D01*
X020999Y001109D01*
X021018Y001091D01*
X021040Y001077D01*
X021063Y001065D01*
X021088Y001057D01*
X021114Y001052D01*
X021140Y001050D01*
X026740Y001050D01*
X026766Y001052D01*
X026792Y001057D01*
X026817Y001065D01*
X026840Y001077D01*
X026862Y001091D01*
X026881Y001109D01*
X026899Y001128D01*
X026913Y001150D01*
X026925Y001173D01*
X026933Y001198D01*
X026938Y001224D01*
X026940Y001250D01*
X026940Y002900D01*
X026938Y002926D01*
X026933Y002952D01*
X026925Y002977D01*
X026913Y003000D01*
X026899Y003022D01*
X026881Y003041D01*
X026862Y003059D01*
X026840Y003073D01*
X026817Y003085D01*
X026792Y003093D01*
X026766Y003098D01*
X026740Y003100D01*
X021140Y003100D01*
X021114Y003098D01*
X021088Y003093D01*
X021063Y003085D01*
X021040Y003073D01*
X021018Y003059D01*
X020999Y003041D01*
X020981Y003022D01*
X020967Y003000D01*
X020955Y002977D01*
X020947Y002952D01*
X020942Y002926D01*
X020940Y002900D01*
D12*
X020797Y004675D02*
X020670Y004802D01*
X020670Y005309D01*
X020797Y005436D01*
X021177Y005436D01*
X021177Y004675D01*
X020797Y004675D01*
X020385Y004802D02*
X020258Y004675D01*
X020005Y004675D01*
X019878Y004802D01*
X019878Y005436D01*
X019593Y005436D02*
X019340Y005436D01*
X019466Y005436D02*
X019466Y004675D01*
X019340Y004675D02*
X019593Y004675D01*
X019065Y004675D02*
X019065Y005436D01*
X018558Y004675D01*
X018558Y005436D01*
X020385Y005436D02*
X020385Y004802D01*
X022254Y005309D02*
X022507Y005055D01*
X022507Y004675D01*
X022507Y005055D02*
X022761Y005309D01*
X022761Y005436D01*
X023045Y005309D02*
X023045Y005182D01*
X023172Y005055D01*
X023553Y005055D01*
X023553Y004675D02*
X023172Y004675D01*
X023045Y004802D01*
X023045Y004929D01*
X023172Y005055D01*
X023553Y004675D02*
X023553Y005436D01*
X023172Y005436D01*
X023045Y005309D01*
X022254Y005309D02*
X022254Y005436D01*
X016690Y005436D02*
X016690Y004675D01*
X016690Y004929D02*
X016309Y004929D01*
X016182Y005055D01*
X016182Y005309D01*
X016309Y005436D01*
X016690Y005436D01*
X015898Y005436D02*
X015898Y004675D01*
X015391Y004675D01*
X015106Y004675D02*
X015106Y005182D01*
X014852Y005436D01*
X014599Y005182D01*
X014599Y004675D01*
X014314Y004675D02*
X014314Y005436D01*
X014314Y004929D02*
X013807Y005436D01*
X014187Y005055D02*
X013807Y004675D01*
X014599Y005055D02*
X015106Y005055D01*
X015644Y005055D02*
X015898Y005055D01*
X015898Y005436D02*
X015391Y005436D01*
X025140Y019300D02*
X025140Y019700D01*
X025240Y019700D01*
X025140Y019800D01*
X025040Y019700D01*
X025140Y019700D01*
X026040Y019400D02*
X026140Y019400D01*
X026140Y019800D01*
X026140Y019400D02*
X026240Y019400D01*
X026140Y019300D01*
X026040Y019400D01*
D13*
X022940Y020050D02*
X022940Y020300D01*
X022690Y020050D01*
X022940Y020050D02*
X022190Y020050D01*
X021940Y020300D01*
X021940Y021050D01*
X022190Y021050D01*
X021940Y020800D01*
X022190Y021050D02*
X022690Y021050D01*
X022940Y020800D01*
X022940Y021050D01*
X022690Y021050D01*
X022940Y020800D02*
X022940Y020300D01*
X022190Y020050D02*
X021940Y020050D01*
X021940Y020300D01*
X016340Y020300D02*
X016340Y020050D01*
X016090Y020050D01*
X016340Y020300D01*
X016340Y020800D01*
X016090Y021050D01*
X016340Y021050D01*
X016340Y020800D01*
X016090Y021050D02*
X015590Y021050D01*
X015340Y020800D01*
X015090Y021050D01*
X015590Y021050D01*
X015340Y021050D02*
X015340Y020800D01*
X015340Y020300D01*
X015090Y020050D01*
X015340Y020050D01*
X015340Y020300D01*
X015590Y020050D01*
X016090Y020050D01*
X015590Y020050D02*
X015340Y020050D01*
X015090Y020050D02*
X014590Y020050D01*
X014340Y020300D01*
X014090Y020050D01*
X014340Y020050D01*
X014340Y020300D01*
X014340Y020800D01*
X014590Y021050D01*
X015090Y021050D01*
X014590Y021050D02*
X014340Y021050D01*
X014340Y020800D01*
X014090Y021050D01*
X014340Y021050D01*
X014090Y021050D02*
X013590Y021050D01*
X013340Y020800D01*
X013090Y021050D01*
X013340Y021050D01*
X013340Y020800D01*
X013340Y020300D01*
X013090Y020050D01*
X013340Y020050D01*
X013340Y020300D01*
X013590Y020050D01*
X014090Y020050D01*
X014340Y020050D02*
X014590Y020050D01*
X013590Y020050D02*
X013340Y020050D01*
X013090Y020050D02*
X012590Y020050D01*
X012340Y020300D01*
X012340Y020800D01*
X012590Y021050D01*
X013090Y021050D01*
X013340Y021050D02*
X013590Y021050D01*
X012590Y021050D02*
X012340Y021050D01*
X012340Y020800D01*
X012340Y020300D02*
X012340Y020050D01*
X012590Y020050D01*
D14*
X012635Y019845D02*
X012590Y019800D01*
X012590Y019755D01*
X012635Y019710D01*
X012590Y019665D01*
X012590Y019620D01*
X012635Y019575D01*
X012725Y019575D01*
X012770Y019620D01*
X012885Y019575D02*
X013065Y019575D01*
X012975Y019575D02*
X012975Y019845D01*
X013065Y019755D01*
X012770Y019800D02*
X012725Y019845D01*
X012635Y019845D01*
X012635Y019710D02*
X012680Y019710D01*
X012215Y019620D02*
X012170Y019575D01*
X012080Y019575D01*
X012035Y019620D01*
X012035Y019710D01*
X012125Y019710D01*
X012215Y019800D02*
X012215Y019620D01*
X012215Y019800D02*
X012170Y019845D01*
X012080Y019845D01*
X012035Y019800D01*
X011920Y019845D02*
X011740Y019575D01*
X011740Y019845D01*
X011626Y019845D02*
X011491Y019845D01*
X011446Y019800D01*
X011446Y019620D01*
X011491Y019575D01*
X011626Y019575D01*
X011626Y019845D01*
X011920Y019845D02*
X011920Y019575D01*
X011215Y019495D02*
X011215Y019225D01*
X011215Y019315D02*
X011080Y019315D01*
X011035Y019360D01*
X011035Y019450D01*
X011080Y019495D01*
X011215Y019495D01*
X011125Y019315D02*
X011035Y019225D01*
X010920Y019225D02*
X010740Y019225D01*
X010626Y019225D02*
X010626Y019495D01*
X010446Y019495D01*
X010536Y019360D02*
X010626Y019360D01*
X010740Y019495D02*
X010920Y019495D01*
X010920Y019225D01*
X010920Y019360D02*
X010830Y019360D01*
X010915Y019575D02*
X010915Y019755D01*
X010825Y019845D01*
X010735Y019755D01*
X010735Y019575D01*
X010735Y019710D02*
X010915Y019710D01*
X010215Y019755D02*
X010170Y019710D01*
X010080Y019710D01*
X010035Y019665D01*
X010035Y019620D01*
X010080Y019575D01*
X010170Y019575D01*
X010215Y019620D01*
X010215Y019755D02*
X010215Y019800D01*
X010170Y019845D01*
X010080Y019845D01*
X010035Y019800D01*
X009920Y019845D02*
X009920Y019575D01*
X009785Y019575D01*
X009740Y019620D01*
X009740Y019800D01*
X009785Y019845D01*
X009920Y019845D01*
X009626Y019755D02*
X009536Y019845D01*
X009446Y019755D01*
X009446Y019575D01*
X009428Y019445D02*
X009337Y019445D01*
X009382Y019445D02*
X009382Y019175D01*
X009337Y019175D02*
X009428Y019175D01*
X009231Y019175D02*
X009051Y019355D01*
X009051Y019400D01*
X009096Y019445D01*
X009186Y019445D01*
X009231Y019400D01*
X009170Y019575D02*
X009215Y019620D01*
X009170Y019575D02*
X009080Y019575D01*
X009035Y019620D01*
X009035Y019665D01*
X009080Y019710D01*
X009170Y019710D01*
X009215Y019755D01*
X009215Y019800D01*
X009170Y019845D01*
X009080Y019845D01*
X009035Y019800D01*
X008920Y019800D02*
X008920Y019620D01*
X008875Y019575D01*
X008785Y019575D01*
X008740Y019620D01*
X008626Y019575D02*
X008446Y019575D01*
X008626Y019575D02*
X008626Y019845D01*
X008740Y019800D02*
X008785Y019845D01*
X008875Y019845D01*
X008920Y019800D01*
X009446Y019710D02*
X009626Y019710D01*
X009626Y019755D02*
X009626Y019575D01*
X009231Y019175D02*
X009051Y019175D01*
X008936Y019220D02*
X008936Y019400D01*
X008891Y019445D01*
X008801Y019445D01*
X008756Y019400D01*
X008756Y019220D02*
X008801Y019175D01*
X008891Y019175D01*
X008936Y019220D01*
X010657Y018546D02*
X010698Y018588D01*
X010782Y018588D01*
X010824Y018546D01*
X010824Y018379D01*
X010782Y018338D01*
X010698Y018338D01*
X010657Y018379D01*
X010933Y018338D02*
X011100Y018338D01*
X010933Y018504D01*
X010933Y018546D01*
X010975Y018588D01*
X011058Y018588D01*
X011100Y018546D01*
X011201Y018588D02*
X011284Y018588D01*
X011242Y018588D02*
X011242Y018338D01*
X011201Y018338D02*
X011284Y018338D01*
X011670Y018379D02*
X011711Y018338D01*
X011795Y018338D01*
X011836Y018379D01*
X011836Y018421D01*
X011795Y018463D01*
X011711Y018463D01*
X011670Y018421D01*
X011670Y018379D01*
X011711Y018463D02*
X011670Y018504D01*
X011670Y018546D01*
X011711Y018588D01*
X011795Y018588D01*
X011836Y018546D01*
X011836Y018504D01*
X011795Y018463D01*
X011946Y018463D02*
X012113Y018463D01*
X011988Y018588D01*
X011988Y018338D01*
X012025Y018138D02*
X011942Y018138D01*
X011900Y018096D01*
X012067Y017929D01*
X012025Y017888D01*
X011942Y017888D01*
X011900Y017929D01*
X011900Y018096D01*
X011790Y018138D02*
X011707Y018054D01*
X011707Y017971D01*
X011790Y017888D01*
X012067Y017929D02*
X012067Y018096D01*
X012025Y018138D01*
X012176Y018138D02*
X012343Y018138D01*
X012343Y018013D01*
X012259Y018054D01*
X012218Y018054D01*
X012176Y018013D01*
X012176Y017929D01*
X012218Y017888D01*
X012301Y017888D01*
X012343Y017929D01*
X012452Y017888D02*
X012619Y018054D01*
X012729Y018096D02*
X012770Y018138D01*
X012854Y018138D01*
X012895Y018096D01*
X012895Y017929D01*
X012729Y018096D01*
X012729Y017929D01*
X012770Y017888D01*
X012854Y017888D01*
X012895Y017929D01*
X012996Y017888D02*
X013080Y017971D01*
X013080Y018054D01*
X012996Y018138D01*
X012941Y018338D02*
X012775Y018504D01*
X012775Y018546D01*
X012816Y018588D01*
X012900Y018588D01*
X012941Y018546D01*
X013051Y018546D02*
X013218Y018379D01*
X013176Y018338D01*
X013093Y018338D01*
X013051Y018379D01*
X013051Y018546D01*
X013093Y018588D01*
X013176Y018588D01*
X013218Y018546D01*
X013218Y018379D01*
X013327Y018338D02*
X013327Y018504D01*
X013410Y018588D01*
X013494Y018504D01*
X013494Y018338D01*
X013603Y018338D02*
X013603Y018504D01*
X013687Y018588D01*
X013770Y018504D01*
X013770Y018338D01*
X013770Y018463D02*
X013603Y018463D01*
X013494Y018463D02*
X013327Y018463D01*
X013507Y018138D02*
X013465Y018096D01*
X013632Y017929D01*
X013590Y017888D01*
X013507Y017888D01*
X013465Y017929D01*
X013465Y018096D01*
X013507Y018138D02*
X013590Y018138D01*
X013632Y018096D01*
X013632Y017929D01*
X013741Y018096D02*
X013908Y017929D01*
X013908Y017888D01*
X013741Y018096D02*
X013741Y018138D01*
X013908Y018138D01*
X013921Y018338D02*
X013921Y018588D01*
X014046Y018463D01*
X013880Y018463D01*
X014156Y018504D02*
X014323Y018338D01*
X014156Y018338D01*
X014156Y018504D02*
X014156Y018546D01*
X014197Y018588D01*
X014281Y018588D01*
X014323Y018546D01*
X014708Y018546D02*
X014750Y018588D01*
X014875Y018588D01*
X014875Y018338D01*
X014875Y018421D02*
X014750Y018421D01*
X014708Y018463D01*
X014708Y018546D01*
X014984Y018546D02*
X015026Y018588D01*
X015110Y018588D01*
X015151Y018546D01*
X015151Y018379D01*
X015110Y018338D01*
X015026Y018338D01*
X014984Y018379D01*
X015026Y018138D02*
X015151Y018138D01*
X015151Y017888D01*
X015026Y017888D01*
X014984Y017929D01*
X014984Y018096D01*
X015026Y018138D01*
X014875Y018138D02*
X014750Y018138D01*
X014708Y018096D01*
X014708Y017929D01*
X014750Y017888D01*
X014875Y017888D01*
X014875Y018138D01*
X014599Y018138D02*
X014474Y018138D01*
X014432Y018096D01*
X014432Y018013D01*
X014474Y017971D01*
X014599Y017971D01*
X014599Y017888D02*
X014599Y018138D01*
X014515Y017971D02*
X014432Y017888D01*
X014323Y017888D02*
X014323Y017929D01*
X014281Y017929D01*
X014281Y017888D01*
X014323Y017888D01*
X014323Y018013D02*
X014323Y018054D01*
X014281Y018054D01*
X014281Y018013D01*
X014323Y018013D01*
X015261Y018013D02*
X015428Y018013D01*
X015428Y018054D02*
X015344Y018138D01*
X015261Y018054D01*
X015261Y017888D01*
X015428Y017888D02*
X015428Y018054D01*
X015428Y018338D02*
X015428Y018588D01*
X015344Y018504D01*
X015261Y018588D01*
X015261Y018338D01*
X015215Y019225D02*
X015215Y019475D01*
X015090Y019475D01*
X015048Y019434D01*
X015048Y019350D01*
X015090Y019308D01*
X015215Y019308D01*
X015496Y019308D02*
X015496Y019267D01*
X015537Y019225D01*
X015621Y019225D01*
X015663Y019267D01*
X015621Y019350D02*
X015537Y019350D01*
X015496Y019308D01*
X015496Y019434D02*
X015537Y019475D01*
X015621Y019475D01*
X015663Y019434D01*
X015663Y019392D01*
X015621Y019350D01*
X015772Y019267D02*
X015814Y019225D01*
X015897Y019225D01*
X015939Y019267D01*
X015939Y019434D01*
X015897Y019475D01*
X015814Y019475D01*
X015772Y019434D01*
X015725Y019575D02*
X015770Y019620D01*
X015590Y019800D01*
X015590Y019620D01*
X015635Y019575D01*
X015725Y019575D01*
X015770Y019620D02*
X015770Y019800D01*
X015725Y019845D01*
X015635Y019845D01*
X015590Y019800D01*
X015885Y019575D02*
X016065Y019575D01*
X015975Y019575D02*
X015975Y019845D01*
X016065Y019755D01*
X016048Y019475D02*
X016048Y019225D01*
X016132Y019308D01*
X016215Y019225D01*
X016215Y019475D01*
X016496Y019475D02*
X016579Y019392D01*
X016663Y019475D01*
X016663Y019225D01*
X016772Y019225D02*
X016855Y019308D01*
X016939Y019225D01*
X016939Y019475D01*
X016886Y019575D02*
X016796Y019575D01*
X016751Y019620D01*
X016751Y019800D01*
X016796Y019845D01*
X016886Y019845D01*
X016931Y019800D01*
X016931Y019755D01*
X016886Y019710D01*
X016751Y019710D01*
X016636Y019575D02*
X016546Y019665D01*
X016546Y019755D01*
X016636Y019845D01*
X016886Y019575D02*
X016931Y019620D01*
X017037Y019575D02*
X017128Y019665D01*
X017128Y019755D01*
X017037Y019845D01*
X017090Y019475D02*
X017048Y019434D01*
X017048Y019350D01*
X017090Y019308D01*
X017215Y019308D01*
X017215Y019225D02*
X017215Y019475D01*
X017090Y019475D01*
X016772Y019475D02*
X016772Y019225D01*
X016496Y019225D02*
X016496Y019475D01*
X017483Y019434D02*
X017525Y019475D01*
X017608Y019475D01*
X017650Y019434D01*
X017650Y019392D01*
X017608Y019350D01*
X017525Y019350D01*
X017483Y019308D01*
X017483Y019267D01*
X017525Y019225D01*
X017608Y019225D01*
X017650Y019267D01*
X017759Y019267D02*
X017801Y019225D01*
X017885Y019225D01*
X017926Y019267D01*
X017926Y019434D01*
X017885Y019475D01*
X017801Y019475D01*
X017759Y019434D01*
X017780Y019575D02*
X017870Y019575D01*
X017915Y019620D01*
X017915Y019665D01*
X017870Y019710D01*
X017780Y019710D01*
X017735Y019665D01*
X017735Y019620D01*
X017780Y019575D01*
X017780Y019710D02*
X017735Y019755D01*
X017735Y019800D01*
X017780Y019845D01*
X017870Y019845D01*
X017915Y019800D01*
X017915Y019755D01*
X017870Y019710D01*
X018036Y019475D02*
X018203Y019475D01*
X018203Y019225D01*
X018203Y019350D02*
X018119Y019350D01*
X017920Y018785D02*
X017868Y018785D01*
X017868Y018475D01*
X017817Y018475D02*
X017920Y018475D01*
X018045Y018475D02*
X018200Y018475D01*
X018252Y018527D01*
X018200Y018578D01*
X018045Y018578D01*
X018045Y018630D02*
X018045Y018475D01*
X018045Y018630D02*
X018096Y018682D01*
X018200Y018682D01*
X018369Y018682D02*
X018473Y018682D01*
X018421Y018734D02*
X018421Y018527D01*
X018369Y018475D01*
X018590Y018475D02*
X018694Y018475D01*
X018642Y018475D02*
X018642Y018682D01*
X018694Y018682D01*
X018642Y018785D02*
X018642Y018837D01*
X018818Y018682D02*
X018973Y018682D01*
X019025Y018630D01*
X019025Y018527D01*
X018973Y018475D01*
X018818Y018475D01*
X018818Y018423D02*
X018818Y018682D01*
X018818Y018423D02*
X018870Y018372D01*
X018922Y018372D01*
X019143Y018475D02*
X019246Y018475D01*
X019194Y018475D02*
X019194Y018682D01*
X019246Y018682D01*
X019194Y018785D02*
X019194Y018837D01*
X019371Y018734D02*
X019422Y018785D01*
X019578Y018785D01*
X019578Y018475D01*
X019422Y018475D01*
X019371Y018527D01*
X019371Y018734D01*
X020083Y019188D02*
X020083Y019438D01*
X020250Y019438D02*
X020083Y019188D01*
X020250Y019188D02*
X020250Y019438D01*
X020359Y019396D02*
X020401Y019438D01*
X020485Y019438D01*
X020526Y019396D01*
X020526Y019354D01*
X020485Y019313D01*
X020401Y019313D01*
X020359Y019271D01*
X020359Y019229D01*
X020401Y019188D01*
X020485Y019188D01*
X020526Y019229D01*
X020636Y019229D02*
X020677Y019188D01*
X020761Y019188D01*
X020803Y019229D01*
X020803Y019396D01*
X020761Y019438D01*
X020677Y019438D01*
X020636Y019396D01*
X020470Y019575D02*
X020380Y019575D01*
X020335Y019620D01*
X020335Y019665D01*
X020380Y019710D01*
X020515Y019710D01*
X020515Y019620D01*
X020470Y019575D01*
X020515Y019710D02*
X020425Y019800D01*
X020335Y019845D01*
X019740Y019755D02*
X019740Y019665D01*
X019650Y019575D01*
X019544Y019575D02*
X019544Y019620D01*
X019363Y019800D01*
X019363Y019845D01*
X019544Y019845D01*
X019650Y019845D02*
X019740Y019755D01*
X019249Y019845D02*
X019159Y019755D01*
X019159Y019665D01*
X019249Y019575D01*
X021234Y019438D02*
X021401Y019438D01*
X021401Y019188D01*
X021234Y019188D01*
X021318Y019313D02*
X021401Y019313D01*
X021511Y019396D02*
X021552Y019438D01*
X021636Y019438D01*
X021678Y019396D01*
X021678Y019229D01*
X021636Y019188D01*
X021552Y019188D01*
X021511Y019229D01*
X021470Y019575D02*
X021515Y019620D01*
X021470Y019575D02*
X021380Y019575D01*
X021335Y019620D01*
X021335Y019710D01*
X021380Y019755D01*
X021425Y019755D01*
X021515Y019710D01*
X021515Y019845D01*
X021335Y019845D01*
X021969Y019384D02*
X021969Y019300D01*
X022011Y019258D01*
X022136Y019258D01*
X022136Y019175D02*
X022136Y019425D01*
X022011Y019425D01*
X021969Y019384D01*
X022246Y019425D02*
X022246Y019175D01*
X022413Y019175D02*
X022413Y019425D01*
X022329Y019342D01*
X022246Y019425D01*
X022380Y019575D02*
X022380Y019845D01*
X022515Y019710D01*
X022335Y019710D01*
X022522Y019425D02*
X022689Y019425D01*
X022689Y019175D01*
X022522Y019175D01*
X022605Y019300D02*
X022689Y019300D01*
X022798Y019425D02*
X022965Y019425D01*
X022882Y019425D02*
X022882Y019175D01*
X023163Y019175D02*
X023246Y019258D01*
X023205Y019175D02*
X023288Y019175D01*
X023330Y019217D01*
X023330Y019384D01*
X023288Y019425D01*
X023205Y019425D01*
X023163Y019384D01*
X023163Y019217D01*
X023205Y019175D01*
X023439Y019175D02*
X023522Y019258D01*
X023481Y019258D02*
X023606Y019258D01*
X023606Y019175D02*
X023606Y019425D01*
X023481Y019425D01*
X023439Y019384D01*
X023439Y019300D01*
X023481Y019258D01*
X023707Y019175D02*
X023790Y019175D01*
X023748Y019175D02*
X023748Y019425D01*
X023707Y019425D02*
X023790Y019425D01*
X023540Y019645D02*
X023495Y019600D01*
X023405Y019600D01*
X023360Y019645D01*
X023360Y019690D01*
X023405Y019735D01*
X023450Y019735D01*
X023405Y019735D02*
X023360Y019780D01*
X023360Y019825D01*
X023405Y019870D01*
X023495Y019870D01*
X023540Y019825D01*
X024159Y019755D02*
X024159Y019665D01*
X024249Y019575D01*
X024363Y019575D02*
X024544Y019575D01*
X024363Y019755D01*
X024363Y019800D01*
X024408Y019845D01*
X024499Y019845D01*
X024544Y019800D01*
X024650Y019845D02*
X024740Y019755D01*
X024740Y019665D01*
X024650Y019575D01*
X024249Y019845D02*
X024159Y019755D01*
X025335Y019575D02*
X025515Y019575D01*
X025425Y019575D02*
X025425Y019845D01*
X025515Y019755D01*
X025489Y019475D02*
X025322Y019225D01*
X025489Y019225D02*
X025322Y019475D01*
X025598Y019475D02*
X025765Y019475D01*
X025682Y019475D02*
X025682Y019225D01*
X026322Y019225D02*
X026489Y019475D01*
X026470Y019575D02*
X026515Y019620D01*
X026335Y019800D01*
X026335Y019620D01*
X026380Y019575D01*
X026470Y019575D01*
X026515Y019620D02*
X026515Y019800D01*
X026470Y019845D01*
X026380Y019845D01*
X026335Y019800D01*
X026322Y019475D02*
X026489Y019225D01*
X026598Y019225D02*
X026682Y019308D01*
X026640Y019308D02*
X026765Y019308D01*
X026765Y019225D02*
X026765Y019475D01*
X026640Y019475D01*
X026598Y019434D01*
X026598Y019350D01*
X026640Y019308D01*
X017940Y015625D02*
X017940Y015375D01*
X017773Y015375D01*
X017664Y015375D02*
X017497Y015542D01*
X017388Y015542D02*
X017304Y015542D01*
X017346Y015584D02*
X017346Y015417D01*
X017304Y015375D01*
X017203Y015417D02*
X017203Y015500D01*
X017162Y015542D01*
X017078Y015542D01*
X017037Y015500D01*
X017037Y015458D01*
X017203Y015458D01*
X017203Y015417D02*
X017162Y015375D01*
X017078Y015375D01*
X016927Y015375D02*
X016927Y015542D01*
X016844Y015542D02*
X016802Y015542D01*
X016844Y015542D02*
X016927Y015458D01*
X016697Y015375D02*
X016697Y015542D01*
X016572Y015542D01*
X016530Y015500D01*
X016530Y015375D01*
X016421Y015417D02*
X016379Y015458D01*
X016254Y015458D01*
X016254Y015500D02*
X016254Y015375D01*
X016379Y015375D01*
X016421Y015417D01*
X016379Y015542D02*
X016296Y015542D01*
X016254Y015500D01*
X016144Y015375D02*
X016061Y015375D01*
X016103Y015375D02*
X016103Y015625D01*
X016144Y015625D01*
X015684Y015625D02*
X015684Y015375D01*
X015684Y015500D02*
X015601Y015500D01*
X015684Y015625D02*
X015517Y015625D01*
X015408Y015625D02*
X015366Y015625D01*
X015366Y015375D01*
X015408Y015375D02*
X015324Y015375D01*
X015224Y015417D02*
X015182Y015458D01*
X015057Y015458D01*
X015057Y015500D02*
X015057Y015375D01*
X015182Y015375D01*
X015224Y015417D01*
X015182Y015542D02*
X015099Y015542D01*
X015057Y015500D01*
X014947Y015500D02*
X014906Y015542D01*
X014781Y015542D01*
X014822Y015458D02*
X014906Y015458D01*
X014947Y015500D01*
X014947Y015375D02*
X014822Y015375D01*
X014781Y015417D01*
X014822Y015458D01*
X014671Y015500D02*
X014630Y015542D01*
X014546Y015542D01*
X014504Y015500D01*
X014504Y015375D01*
X014395Y015375D02*
X014395Y015417D01*
X014353Y015417D01*
X014353Y015375D01*
X014395Y015375D01*
X014395Y015500D02*
X014395Y015542D01*
X014353Y015542D01*
X014353Y015500D01*
X014395Y015500D01*
X014671Y015625D02*
X014671Y015375D01*
X014583Y015175D02*
X014625Y015134D01*
X014625Y015092D01*
X014583Y015050D01*
X014500Y015050D01*
X014458Y015008D01*
X014458Y014967D01*
X014500Y014925D01*
X014583Y014925D01*
X014625Y014967D01*
X014735Y014967D02*
X014776Y014925D01*
X014860Y014925D01*
X014901Y014967D01*
X014901Y015134D01*
X014860Y015175D01*
X014776Y015175D01*
X014735Y015134D01*
X014583Y015175D02*
X014500Y015175D01*
X014458Y015134D01*
X014073Y015175D02*
X013948Y015175D01*
X013906Y015134D01*
X013906Y015050D01*
X013948Y015008D01*
X014073Y015008D01*
X014073Y014925D02*
X014073Y015175D01*
X013796Y015175D02*
X013713Y015175D01*
X013755Y015175D02*
X013755Y014925D01*
X013796Y014925D02*
X013713Y014925D01*
X013612Y014925D02*
X013612Y015175D01*
X013446Y014925D01*
X013446Y015175D01*
X013336Y015092D02*
X013253Y015175D01*
X013152Y015175D02*
X013027Y015175D01*
X012985Y015134D01*
X012985Y014967D01*
X013027Y014925D01*
X013152Y014925D01*
X013152Y015175D01*
X013336Y015092D02*
X013336Y015008D01*
X013253Y014925D01*
X012876Y014967D02*
X012876Y015008D01*
X012834Y015050D01*
X012751Y015050D01*
X012709Y015008D01*
X012709Y014967D01*
X012751Y014925D01*
X012834Y014925D01*
X012876Y014967D01*
X012834Y015050D02*
X012876Y015092D01*
X012876Y015134D01*
X012834Y015175D01*
X012751Y015175D01*
X012709Y015134D01*
X012709Y015092D01*
X012751Y015050D01*
X012599Y014925D02*
X012516Y015008D01*
X012516Y015092D01*
X012599Y015175D01*
X015287Y015134D02*
X015329Y015175D01*
X015412Y015175D01*
X015454Y015134D01*
X015454Y014967D01*
X015412Y014925D01*
X015329Y014925D01*
X015287Y014967D01*
X015563Y014925D02*
X015730Y014925D01*
X015563Y015092D01*
X015563Y015134D01*
X015605Y015175D01*
X015688Y015175D01*
X015730Y015134D01*
X015923Y015175D02*
X015923Y014925D01*
X016006Y014925D02*
X015840Y014925D01*
X016006Y015092D02*
X015923Y015175D01*
X016116Y015175D02*
X016283Y015175D01*
X016283Y015050D01*
X016199Y015092D01*
X016157Y015092D01*
X016116Y015050D01*
X016116Y014967D01*
X016157Y014925D01*
X016241Y014925D01*
X016283Y014967D01*
X016475Y015050D02*
X016559Y015050D01*
X016559Y014925D02*
X016559Y015175D01*
X016392Y015175D01*
X016668Y015134D02*
X016710Y015175D01*
X016835Y015175D01*
X016835Y014925D01*
X016710Y014925D01*
X016668Y014967D01*
X016668Y015134D01*
X016944Y015175D02*
X017111Y015175D01*
X017111Y015050D01*
X017028Y015092D01*
X016986Y015092D01*
X016944Y015050D01*
X016944Y014967D01*
X016986Y014925D01*
X017070Y014925D01*
X017111Y014967D01*
X017221Y014925D02*
X017388Y014925D01*
X017221Y015092D01*
X017221Y015134D01*
X017262Y015175D01*
X017346Y015175D01*
X017388Y015134D01*
X017497Y015175D02*
X017664Y015175D01*
X017580Y015175D02*
X017580Y014925D01*
X017773Y014925D02*
X017773Y015092D01*
X017857Y015175D01*
X017940Y015092D01*
X017940Y014925D01*
X017940Y015050D02*
X017773Y015050D01*
X017497Y015375D02*
X017664Y015542D01*
X017773Y015625D02*
X017940Y015625D01*
X017940Y015500D02*
X017857Y015500D01*
X016465Y016767D02*
X016423Y016725D01*
X016340Y016725D01*
X016298Y016767D01*
X016298Y016808D01*
X016340Y016850D01*
X016423Y016850D01*
X016465Y016892D01*
X016465Y016934D01*
X016423Y016975D01*
X016340Y016975D01*
X016298Y016934D01*
X016189Y016975D02*
X016189Y016725D01*
X016064Y016725D01*
X016022Y016767D01*
X016022Y016934D01*
X016064Y016975D01*
X016189Y016975D01*
X016156Y017125D02*
X016239Y017125D01*
X016281Y017167D01*
X016239Y017250D02*
X016156Y017250D01*
X016114Y017208D01*
X016114Y017167D01*
X016156Y017125D01*
X016239Y017250D02*
X016281Y017292D01*
X016281Y017334D01*
X016239Y017375D01*
X016156Y017375D01*
X016114Y017334D01*
X016005Y017334D02*
X016005Y017167D01*
X015963Y017125D01*
X015880Y017125D01*
X015838Y017167D01*
X015838Y017334D01*
X015880Y017375D01*
X015963Y017375D01*
X016005Y017334D01*
X015728Y017375D02*
X015728Y017125D01*
X015562Y017125D01*
X015452Y017125D02*
X015452Y017292D01*
X015369Y017375D01*
X015285Y017292D01*
X015285Y017125D01*
X015285Y017250D02*
X015452Y017250D01*
X015176Y017375D02*
X015009Y017375D01*
X015092Y017375D02*
X015092Y017125D01*
X015042Y016975D02*
X015084Y016934D01*
X015084Y016767D01*
X015042Y016725D01*
X014959Y016725D01*
X014917Y016767D01*
X014808Y016725D02*
X014808Y016975D01*
X014917Y016934D02*
X014959Y016975D01*
X015042Y016975D01*
X015193Y016934D02*
X015235Y016975D01*
X015318Y016975D01*
X015360Y016934D01*
X015360Y016892D01*
X015318Y016850D01*
X015235Y016850D01*
X015193Y016808D01*
X015193Y016767D01*
X015235Y016725D01*
X015318Y016725D01*
X015360Y016767D01*
X015469Y016975D02*
X015636Y016725D01*
X015746Y016725D02*
X015746Y016892D01*
X015829Y016975D01*
X015913Y016892D01*
X015913Y016725D01*
X015913Y016850D02*
X015746Y016850D01*
X016382Y017125D02*
X016465Y017125D01*
X016423Y017125D02*
X016423Y017375D01*
X016382Y017375D02*
X016465Y017375D01*
X014900Y017375D02*
X014900Y017125D01*
X014733Y017125D01*
X014816Y017250D02*
X014900Y017250D01*
X014900Y017375D02*
X014733Y017375D01*
X014808Y016725D02*
X014641Y016725D01*
X012619Y017888D02*
X012452Y018054D01*
X012389Y018338D02*
X012222Y018338D01*
X012306Y018463D02*
X012389Y018463D01*
X012498Y018463D02*
X012498Y018379D01*
X012540Y018338D01*
X012623Y018338D01*
X012665Y018379D01*
X012665Y018463D02*
X012582Y018504D01*
X012540Y018504D01*
X012498Y018463D01*
X012498Y018588D02*
X012665Y018588D01*
X012665Y018463D01*
X012775Y018338D02*
X012941Y018338D01*
X012389Y018338D02*
X012389Y018588D01*
X012222Y018588D01*
X013590Y019575D02*
X013770Y019575D01*
X013590Y019755D01*
X013590Y019800D01*
X013635Y019845D01*
X013725Y019845D01*
X013770Y019800D01*
X013975Y019845D02*
X013975Y019575D01*
X014065Y019575D02*
X013885Y019575D01*
X014065Y019755D02*
X013975Y019845D01*
X014496Y019475D02*
X014579Y019392D01*
X014663Y019475D01*
X014663Y019225D01*
X014772Y019225D02*
X014772Y019475D01*
X014770Y019575D02*
X014590Y019575D01*
X014680Y019575D02*
X014680Y019845D01*
X014770Y019755D01*
X014885Y019575D02*
X015065Y019575D01*
X014975Y019575D02*
X014975Y019845D01*
X015065Y019755D01*
X014939Y019475D02*
X014939Y019225D01*
X014855Y019308D01*
X014772Y019225D01*
X014496Y019225D02*
X014496Y019475D01*
X013419Y010385D02*
X013316Y010385D01*
X013264Y010334D01*
X013264Y010282D01*
X013316Y010230D01*
X013264Y010178D01*
X013264Y010127D01*
X013316Y010075D01*
X013419Y010075D01*
X013471Y010127D01*
X013368Y010230D02*
X013316Y010230D01*
X013471Y010334D02*
X013419Y010385D01*
X013596Y010282D02*
X013699Y010075D01*
X013803Y010282D01*
X013140Y010127D02*
X013088Y010127D01*
X013088Y010075D01*
X013140Y010075D01*
X013140Y010127D01*
X012974Y010075D02*
X012767Y010075D01*
X012870Y010075D02*
X012870Y010385D01*
X012974Y010282D01*
X017635Y003635D02*
X017583Y003584D01*
X017583Y003480D01*
X017635Y003428D01*
X017790Y003428D01*
X017790Y003325D02*
X017790Y003635D01*
X017635Y003635D01*
X017459Y003480D02*
X017459Y003377D01*
X017407Y003325D01*
X017303Y003325D01*
X017252Y003377D01*
X017252Y003480D01*
X017303Y003532D01*
X017407Y003532D01*
X017459Y003480D01*
X017127Y003532D02*
X017127Y003377D01*
X017075Y003325D01*
X017024Y003377D01*
X016972Y003325D01*
X016920Y003377D01*
X016920Y003532D01*
X016796Y003480D02*
X016744Y003532D01*
X016640Y003532D01*
X016589Y003480D01*
X016589Y003428D01*
X016796Y003428D01*
X016796Y003377D02*
X016796Y003480D01*
X016796Y003377D02*
X016744Y003325D01*
X016640Y003325D01*
X016464Y003325D02*
X016464Y003532D01*
X016361Y003532D02*
X016309Y003532D01*
X016361Y003532D02*
X016464Y003428D01*
X016485Y002495D02*
X016665Y002495D01*
X016665Y002360D01*
X016575Y002405D01*
X016530Y002405D01*
X016485Y002360D01*
X016485Y002270D01*
X016530Y002225D01*
X016620Y002225D01*
X016665Y002270D01*
X016370Y002315D02*
X016280Y002225D01*
X016190Y002315D01*
X016190Y002495D01*
X016370Y002495D02*
X016370Y002315D01*
X017046Y002270D02*
X017046Y002450D01*
X017091Y002495D01*
X017226Y002495D01*
X017226Y002225D01*
X017091Y002225D01*
X017046Y002270D01*
X017340Y002225D02*
X017340Y002495D01*
X017520Y002495D02*
X017340Y002225D01*
X017520Y002225D02*
X017520Y002495D01*
X017635Y002450D02*
X017680Y002495D01*
X017770Y002495D01*
X017815Y002450D01*
X017815Y002270D01*
X017770Y002225D01*
X017680Y002225D01*
X017635Y002270D01*
X017635Y002360D01*
X017725Y002360D01*
X018046Y002270D02*
X018046Y002450D01*
X018091Y002495D01*
X018226Y002495D01*
X018226Y002225D01*
X018091Y002225D01*
X018046Y002270D01*
X018340Y002225D02*
X018340Y002495D01*
X018520Y002495D02*
X018340Y002225D01*
X018520Y002225D02*
X018520Y002495D01*
X018635Y002450D02*
X018680Y002495D01*
X018770Y002495D01*
X018815Y002450D01*
X018815Y002270D01*
X018770Y002225D01*
X018680Y002225D01*
X018635Y002270D01*
X018635Y002360D01*
X018725Y002360D01*
X019044Y002225D02*
X019044Y002495D01*
X019224Y002495D02*
X019044Y002225D01*
X019224Y002225D02*
X019224Y002495D01*
X019330Y002495D02*
X019420Y002495D01*
X019375Y002495D02*
X019375Y002225D01*
X019420Y002225D02*
X019330Y002225D01*
X019535Y002315D02*
X019535Y002495D01*
X019535Y002315D02*
X019625Y002225D01*
X019715Y002315D01*
X019715Y002495D01*
X021331Y002517D02*
X021565Y002283D01*
X021507Y002225D01*
X021390Y002225D01*
X021331Y002283D01*
X021331Y002517D01*
X021390Y002575D01*
X021507Y002575D01*
X021565Y002517D01*
X021565Y002283D01*
X022331Y002225D02*
X022565Y002225D01*
X022448Y002225D02*
X022448Y002575D01*
X022565Y002459D01*
X023331Y002459D02*
X023331Y002517D01*
X023390Y002575D01*
X023507Y002575D01*
X023565Y002517D01*
X023331Y002459D02*
X023565Y002225D01*
X023331Y002225D01*
X024084Y002354D02*
X024084Y002471D01*
X024201Y002588D01*
X024336Y002529D02*
X024336Y002471D01*
X024394Y002413D01*
X024336Y002354D01*
X024336Y002296D01*
X024394Y002238D01*
X024511Y002238D01*
X024569Y002296D01*
X024698Y002238D02*
X024815Y002354D01*
X024815Y002471D01*
X024698Y002588D01*
X024569Y002529D02*
X024511Y002588D01*
X024394Y002588D01*
X024336Y002529D01*
X024394Y002413D02*
X024453Y002413D01*
X024201Y002238D02*
X024084Y002354D01*
X025072Y002329D02*
X025072Y002446D01*
X025189Y002563D01*
X025382Y002563D02*
X025557Y002388D01*
X025323Y002388D01*
X025382Y002213D02*
X025382Y002563D01*
X025686Y002563D02*
X025803Y002446D01*
X025803Y002329D01*
X025686Y002213D01*
X026059Y002354D02*
X026059Y002471D01*
X026176Y002588D01*
X026311Y002588D02*
X026544Y002588D01*
X026544Y002413D01*
X026428Y002471D01*
X026369Y002471D01*
X026311Y002413D01*
X026311Y002296D01*
X026369Y002238D01*
X026486Y002238D01*
X026544Y002296D01*
X026673Y002238D02*
X026790Y002354D01*
X026790Y002471D01*
X026673Y002588D01*
X026176Y002238D02*
X026059Y002354D01*
X025189Y002213D02*
X025072Y002329D01*
X024853Y003263D02*
X024853Y003469D01*
X024749Y003573D01*
X024646Y003469D01*
X024646Y003263D01*
X024521Y003263D02*
X024521Y003469D01*
X024366Y003469D01*
X024314Y003418D01*
X024314Y003263D01*
X024190Y003314D02*
X024138Y003366D01*
X023983Y003366D01*
X023983Y003418D02*
X023983Y003263D01*
X024138Y003263D01*
X024190Y003314D01*
X024138Y003469D02*
X024034Y003469D01*
X023983Y003418D01*
X023858Y003573D02*
X023806Y003573D01*
X023806Y003263D01*
X023755Y003263D02*
X023858Y003263D01*
X023637Y003314D02*
X023585Y003263D01*
X023482Y003263D01*
X023430Y003314D01*
X023430Y003418D01*
X023482Y003469D01*
X023585Y003469D01*
X023637Y003418D01*
X023637Y003314D01*
X023306Y003314D02*
X023306Y003418D01*
X023254Y003469D01*
X023099Y003469D01*
X023099Y003211D01*
X023150Y003159D01*
X023202Y003159D01*
X023254Y003263D02*
X023099Y003263D01*
X023254Y003263D02*
X023306Y003314D01*
X024646Y003418D02*
X024853Y003418D01*
X015815Y002450D02*
X015770Y002495D01*
X015680Y002495D01*
X015635Y002450D01*
X015635Y002405D01*
X015680Y002360D01*
X015635Y002315D01*
X015635Y002270D01*
X015680Y002225D01*
X015770Y002225D01*
X015815Y002270D01*
X015725Y002360D02*
X015680Y002360D01*
X015520Y002315D02*
X015430Y002225D01*
X015340Y002315D01*
X015340Y002495D01*
X015226Y002450D02*
X015181Y002495D01*
X015091Y002495D01*
X015046Y002450D01*
X015046Y002405D01*
X015091Y002360D01*
X015046Y002315D01*
X015046Y002270D01*
X015091Y002225D01*
X015181Y002225D01*
X015226Y002270D01*
X015136Y002360D02*
X015091Y002360D01*
X014815Y002315D02*
X014680Y002315D01*
X014635Y002360D01*
X014635Y002450D01*
X014680Y002495D01*
X014815Y002495D01*
X014815Y002225D01*
X014725Y002315D02*
X014635Y002225D01*
X014520Y002270D02*
X014475Y002225D01*
X014385Y002225D01*
X014340Y002270D01*
X014340Y002315D01*
X014385Y002360D01*
X014475Y002360D01*
X014520Y002405D01*
X014520Y002450D01*
X014475Y002495D01*
X014385Y002495D01*
X014340Y002450D01*
X014226Y002495D02*
X014046Y002495D01*
X014136Y002495D02*
X014136Y002225D01*
X015520Y002315D02*
X015520Y002495D01*
D15*
X015550Y010450D02*
X015432Y010568D01*
X015432Y011042D01*
X015550Y011161D01*
X015787Y011161D01*
X015906Y011042D01*
X015906Y010568D01*
X015787Y010450D01*
X015550Y010450D01*
X016197Y010450D02*
X016433Y010450D01*
X016315Y010450D02*
X016315Y011161D01*
X016433Y011161D02*
X016197Y011161D01*
X015114Y011161D02*
X014640Y011161D01*
X014877Y011161D02*
X014877Y010450D01*
X017543Y010450D02*
X018017Y010924D01*
X018017Y011042D01*
X017899Y011161D01*
X017780Y011042D01*
X017780Y010924D01*
X018017Y010687D01*
X018017Y010568D01*
X017899Y010450D01*
X017780Y010450D01*
X017543Y010687D01*
X019127Y010687D02*
X019601Y010687D01*
X019601Y010805D02*
X019482Y010924D01*
X019246Y010924D01*
X019127Y010805D01*
X019127Y010687D01*
X019246Y010450D02*
X019482Y010450D01*
X019601Y010568D01*
X019601Y010805D01*
X019919Y010805D02*
X019919Y010450D01*
X020156Y010450D02*
X020156Y010805D01*
X020038Y010924D01*
X019919Y010805D01*
X020156Y010805D02*
X020274Y010924D01*
X020393Y010924D01*
X020393Y010450D01*
X020711Y010568D02*
X020711Y010805D01*
X020829Y010924D01*
X021066Y010924D01*
X021185Y010805D01*
X021185Y010568D01*
X021066Y010450D01*
X020829Y010450D01*
X020711Y010568D01*
X021503Y010450D02*
X021503Y011161D01*
X021977Y011161D02*
X021977Y010450D01*
X022268Y010450D02*
X022386Y010568D01*
X022386Y011042D01*
X022504Y010924D02*
X022268Y010924D01*
X021977Y010805D02*
X021503Y010805D01*
X022809Y010924D02*
X022928Y010924D01*
X023164Y010687D01*
X023164Y010450D02*
X023164Y010924D01*
X023483Y010805D02*
X023483Y010450D01*
X023838Y010450D01*
X023956Y010568D01*
X023838Y010687D01*
X023483Y010687D01*
X023483Y010805D02*
X023601Y010924D01*
X023838Y010924D01*
X024274Y010805D02*
X024274Y010450D01*
X024511Y010450D02*
X024511Y010805D01*
X024393Y010924D01*
X024274Y010805D01*
X024511Y010805D02*
X024630Y010924D01*
X024748Y010924D01*
X024748Y010450D01*
X025066Y010568D02*
X025066Y010687D01*
X025185Y010805D01*
X025422Y010805D01*
X025540Y010924D01*
X025540Y011042D01*
X025422Y011161D01*
X025185Y011161D01*
X025066Y011042D01*
X025066Y010568D02*
X025185Y010450D01*
X025422Y010450D01*
X025540Y010568D01*
X025422Y011740D02*
X025185Y011740D01*
X025066Y011858D01*
X025066Y012095D01*
X025303Y012095D01*
X025540Y011858D02*
X025422Y011740D01*
X025540Y011858D02*
X025540Y012332D01*
X025422Y012451D01*
X025185Y012451D01*
X025066Y012332D01*
X024630Y012214D02*
X024393Y012214D01*
X024274Y012095D01*
X024274Y011740D01*
X024630Y011740D01*
X024748Y011858D01*
X024630Y011977D01*
X024274Y011977D01*
X023956Y012214D02*
X023719Y012214D01*
X023838Y012332D02*
X023838Y011858D01*
X023719Y011740D01*
X023428Y011858D02*
X023428Y012095D01*
X023310Y012214D01*
X023073Y012214D01*
X022955Y012095D01*
X022955Y011977D01*
X023428Y011977D01*
X023428Y011858D02*
X023310Y011740D01*
X023073Y011740D01*
X022636Y011858D02*
X022518Y011740D01*
X022400Y011858D01*
X022281Y011740D01*
X022163Y011858D01*
X022163Y012214D01*
X021726Y012214D02*
X021489Y012214D01*
X021371Y012095D01*
X021371Y011740D01*
X021726Y011740D01*
X021845Y011858D01*
X021726Y011977D01*
X021371Y011977D01*
X021053Y011858D02*
X020934Y011740D01*
X020579Y011740D01*
X020579Y011622D02*
X020697Y011503D01*
X020816Y011503D01*
X020579Y011622D02*
X020579Y012214D01*
X021053Y012214D02*
X021053Y011858D01*
X019469Y012095D02*
X019232Y012095D01*
X019351Y012332D02*
X019351Y011740D01*
X018941Y011858D02*
X018941Y012095D01*
X018823Y012214D01*
X018586Y012214D01*
X018467Y012095D01*
X018467Y011858D01*
X018586Y011740D01*
X018823Y011740D01*
X018941Y011858D01*
X018149Y011740D02*
X018149Y012214D01*
X018149Y011977D02*
X017912Y012214D01*
X017794Y012214D01*
X018017Y013030D02*
X017543Y013030D01*
X017225Y013030D02*
X017225Y013504D01*
X016870Y013504D01*
X016752Y013385D01*
X016752Y013030D01*
X016315Y013148D02*
X016197Y013030D01*
X016315Y013148D02*
X016315Y013622D01*
X016433Y013504D02*
X016197Y013504D01*
X015906Y013385D02*
X015787Y013504D01*
X015550Y013504D01*
X015432Y013385D01*
X015432Y013267D01*
X015906Y013267D01*
X015906Y013385D02*
X015906Y013148D01*
X015787Y013030D01*
X015550Y013030D01*
X015114Y013030D02*
X015114Y013504D01*
X015114Y013267D02*
X014877Y013504D01*
X014758Y013504D01*
X014454Y013504D02*
X014098Y013504D01*
X013980Y013385D01*
X013980Y013030D01*
X013662Y013148D02*
X013662Y013385D01*
X013543Y013504D01*
X013307Y013504D01*
X013188Y013385D01*
X013188Y013267D01*
X013662Y013267D01*
X013662Y013148D02*
X013543Y013030D01*
X013307Y013030D01*
X012752Y013148D02*
X012633Y013030D01*
X012752Y013148D02*
X012752Y013622D01*
X012870Y013504D02*
X012633Y013504D01*
X014454Y013504D02*
X014454Y013030D01*
X017543Y013741D02*
X018017Y013741D01*
X018017Y013030D01*
X018017Y013385D02*
X017780Y013385D01*
X019127Y013385D02*
X019127Y013148D01*
X019246Y013030D01*
X019482Y013030D01*
X019601Y013148D01*
X019601Y013385D01*
X019482Y013504D01*
X019246Y013504D01*
X019127Y013385D01*
X019919Y013385D02*
X019919Y013030D01*
X020393Y013030D02*
X020393Y013504D01*
X020038Y013504D01*
X019919Y013385D01*
X020684Y013030D02*
X020921Y013030D01*
X020802Y013030D02*
X020802Y013504D01*
X020921Y013504D01*
X020802Y013741D02*
X020802Y013859D01*
X021239Y013504D02*
X021239Y013030D01*
X021594Y013030D01*
X021713Y013148D01*
X021713Y013504D01*
X022031Y013504D02*
X022386Y013504D01*
X022504Y013385D01*
X022504Y013148D01*
X022386Y013030D01*
X022031Y013030D01*
X022031Y013741D01*
X022809Y013504D02*
X023164Y013267D01*
X022809Y013030D01*
X023164Y013030D02*
X023164Y013741D01*
X023483Y013385D02*
X023601Y013504D01*
X023838Y013504D01*
X023838Y013267D02*
X023483Y013267D01*
X023483Y013385D02*
X023483Y013030D01*
X023838Y013030D01*
X023956Y013148D01*
X023838Y013267D01*
X024274Y013267D02*
X024748Y013267D01*
X024748Y013385D02*
X024630Y013504D01*
X024393Y013504D01*
X024274Y013385D01*
X024274Y013267D01*
X024630Y013030D02*
X024748Y013148D01*
X024748Y013385D01*
X025066Y013385D02*
X025066Y013622D01*
X025185Y013741D01*
X025540Y013741D01*
X025540Y013030D01*
X025540Y013267D02*
X025185Y013267D01*
X025066Y013385D01*
X024630Y013030D02*
X024393Y013030D01*
X022636Y012214D02*
X022636Y011858D01*
X019351Y012332D02*
X019232Y012451D01*
D16*
X007487Y002560D02*
X007374Y002673D01*
X007374Y002787D01*
X007487Y002900D01*
X007629Y002787D02*
X007686Y002787D01*
X007856Y002787D01*
X007856Y002673D02*
X007629Y002673D01*
X007686Y002560D02*
X007686Y002900D01*
X007799Y002900D02*
X007799Y002560D01*
X007988Y002560D02*
X008101Y002673D01*
X008101Y002787D01*
X007988Y002900D01*
X008229Y002787D02*
X008229Y002730D01*
X008286Y002730D01*
X008286Y002787D01*
X008229Y002787D01*
X008229Y002617D02*
X008229Y002560D01*
X008286Y002560D01*
X008286Y002617D01*
X008229Y002617D01*
X008427Y002617D02*
X008484Y002673D01*
X008597Y002673D01*
X008654Y002730D01*
X008597Y002787D01*
X008427Y002787D01*
X008427Y002617D02*
X008484Y002560D01*
X008654Y002560D01*
X008786Y002560D02*
X008843Y002617D01*
X008843Y002844D01*
X008899Y002787D02*
X008786Y002787D01*
X009041Y002730D02*
X009041Y002673D01*
X009268Y002673D01*
X009268Y002617D02*
X009268Y002730D01*
X009211Y002787D01*
X009098Y002787D01*
X009041Y002730D01*
X009098Y002560D02*
X009211Y002560D01*
X009268Y002617D01*
X009404Y002560D02*
X009575Y002673D01*
X009404Y002787D01*
X009575Y002900D02*
X009575Y002560D01*
X009716Y002560D02*
X009886Y002560D01*
X009943Y002617D01*
X009943Y002730D01*
X009886Y002787D01*
X009716Y002787D01*
X010084Y002730D02*
X010084Y002560D01*
X010255Y002560D01*
X010311Y002617D01*
X010255Y002673D01*
X010084Y002673D01*
X010084Y002730D02*
X010141Y002787D01*
X010255Y002787D01*
X010448Y002787D02*
X010505Y002787D01*
X010618Y002673D01*
X010618Y002560D02*
X010618Y002787D01*
X010760Y002730D02*
X010816Y002787D01*
X010986Y002787D01*
X010986Y002900D02*
X010986Y002560D01*
X010816Y002560D01*
X010760Y002617D01*
X010760Y002730D01*
X010004Y003047D02*
X010004Y003387D01*
X009834Y003387D01*
X009777Y003330D01*
X009777Y003217D01*
X009834Y003160D01*
X010004Y003160D01*
X009636Y003160D02*
X009523Y003160D01*
X009579Y003160D02*
X009579Y003387D01*
X009636Y003387D01*
X009579Y003500D02*
X009579Y003557D01*
X009390Y003387D02*
X009220Y003387D01*
X009164Y003330D01*
X009164Y003160D01*
X009022Y003160D02*
X008852Y003160D01*
X008795Y003217D01*
X008852Y003273D01*
X008965Y003273D01*
X009022Y003330D01*
X008965Y003387D01*
X008795Y003387D01*
X009390Y003387D02*
X009390Y003160D01*
X010514Y003160D02*
X010684Y003160D01*
X010741Y003217D01*
X010741Y003330D01*
X010684Y003387D01*
X010514Y003387D01*
X010514Y003500D02*
X010514Y003160D01*
X010882Y003273D02*
X010882Y003330D01*
X010939Y003387D01*
X011053Y003387D01*
X011109Y003330D01*
X011109Y003217D01*
X011053Y003160D01*
X010939Y003160D01*
X010882Y003273D02*
X011109Y003273D01*
X011251Y003217D02*
X011307Y003273D01*
X011421Y003273D01*
X011478Y003330D01*
X011421Y003387D01*
X011251Y003387D01*
X011251Y003217D02*
X011307Y003160D01*
X011478Y003160D01*
X011619Y003160D02*
X011619Y003387D01*
X011846Y003387D02*
X011846Y003217D01*
X011789Y003160D01*
X011619Y003160D01*
X011723Y002900D02*
X011723Y002560D01*
X011855Y002560D02*
X011912Y002617D01*
X011912Y002844D01*
X011969Y002787D02*
X011855Y002787D01*
X011723Y002730D02*
X011666Y002787D01*
X011553Y002787D01*
X011496Y002730D01*
X011496Y002560D01*
X012101Y002560D02*
X012214Y002560D01*
X012157Y002560D02*
X012157Y002787D01*
X012214Y002787D01*
X012157Y002900D02*
X012157Y002957D01*
X012214Y003160D02*
X012214Y003387D01*
X012044Y003387D01*
X011987Y003330D01*
X011987Y003160D01*
X012356Y003217D02*
X012356Y003500D01*
X012583Y003500D02*
X012583Y003217D01*
X012526Y003160D01*
X012412Y003160D01*
X012356Y003217D01*
X012356Y002787D02*
X012356Y002617D01*
X012412Y002560D01*
X012469Y002617D01*
X012526Y002560D01*
X012583Y002617D01*
X012583Y002787D01*
X012583Y003760D02*
X012583Y004100D01*
X012356Y003760D01*
X012356Y004100D01*
X012214Y004044D02*
X012214Y003817D01*
X012157Y003760D01*
X012044Y003760D01*
X011987Y003817D01*
X011987Y004044D01*
X012044Y004100D01*
X012157Y004100D01*
X012214Y004044D01*
X011846Y004100D02*
X011619Y004100D01*
X011732Y004100D02*
X011732Y003760D01*
X011478Y003760D02*
X011251Y003760D01*
X011109Y003760D02*
X011109Y003817D01*
X011053Y003817D01*
X011053Y003760D01*
X011109Y003760D01*
X011109Y003930D02*
X011109Y003987D01*
X011053Y003987D01*
X011053Y003930D01*
X011109Y003930D01*
X011251Y004100D02*
X011478Y004100D01*
X011478Y003760D01*
X011478Y003930D02*
X011364Y003930D01*
X010758Y006123D02*
X010758Y006293D01*
X010701Y006349D01*
X010588Y006349D01*
X010531Y006293D01*
X010531Y006123D01*
X010418Y006123D02*
X010758Y006123D01*
X010701Y006491D02*
X010474Y006491D01*
X010418Y006548D01*
X010418Y006661D01*
X010474Y006718D01*
X010701Y006718D01*
X010758Y006661D01*
X010758Y006548D01*
X010701Y006491D01*
X010758Y006859D02*
X010418Y006859D01*
X010418Y007086D01*
X010588Y006973D02*
X010588Y006859D01*
X010758Y006859D02*
X010758Y007086D01*
X019958Y014843D02*
X020015Y014899D01*
X020015Y015126D01*
X020072Y015069D02*
X019958Y015069D01*
X020213Y015013D02*
X020270Y015069D01*
X020383Y015069D01*
X020440Y015013D01*
X020440Y014899D01*
X020383Y014843D01*
X020270Y014843D01*
X020213Y014956D02*
X020440Y014956D01*
X020577Y015069D02*
X020747Y014956D01*
X020577Y014843D01*
X020747Y014843D02*
X020747Y015183D01*
X020888Y015069D02*
X021059Y015069D01*
X021115Y015013D01*
X021115Y014899D01*
X021059Y014843D01*
X020888Y014843D01*
X021257Y014899D02*
X021257Y015013D01*
X021313Y015069D01*
X021427Y015069D01*
X021484Y015013D01*
X021484Y014899D01*
X021427Y014843D01*
X021313Y014843D01*
X021257Y014899D01*
X021625Y014899D02*
X021682Y014843D01*
X021795Y014843D01*
X021852Y014899D01*
X021795Y015013D02*
X021682Y015013D01*
X021625Y014956D01*
X021625Y014899D01*
X021795Y015013D02*
X021852Y015069D01*
X021852Y015126D01*
X021795Y015183D01*
X021682Y015183D01*
X021625Y015126D01*
X021625Y015443D02*
X021625Y015669D01*
X021484Y015669D02*
X021370Y015669D01*
X021427Y015726D02*
X021427Y015499D01*
X021370Y015443D01*
X021181Y015499D02*
X021125Y015443D01*
X021181Y015499D02*
X021181Y015726D01*
X021125Y015669D02*
X021238Y015669D01*
X020992Y015613D02*
X020992Y015499D01*
X020936Y015443D01*
X020822Y015443D01*
X020766Y015499D01*
X020766Y015613D01*
X020822Y015669D01*
X020936Y015669D01*
X020992Y015613D01*
X020624Y015669D02*
X020624Y015443D01*
X020624Y015669D02*
X020454Y015669D01*
X020397Y015613D01*
X020397Y015443D01*
X020213Y015013D02*
X020213Y014956D01*
X021625Y015443D02*
X021795Y015443D01*
X021852Y015499D01*
X021852Y015669D01*
X021993Y015669D02*
X022050Y015613D01*
X022220Y015613D01*
X022220Y015783D02*
X022050Y015783D01*
X021993Y015726D01*
X021993Y015669D01*
X022050Y015613D02*
X021993Y015556D01*
X021993Y015499D01*
X022050Y015443D01*
X022220Y015443D01*
X022220Y015783D01*
X022159Y016043D02*
X022159Y016269D01*
X022045Y016383D01*
X021932Y016269D01*
X021932Y016043D01*
X021790Y016099D02*
X021734Y016043D01*
X021620Y016043D01*
X021564Y016099D01*
X021790Y016099D02*
X021790Y016326D01*
X021734Y016383D01*
X021620Y016383D01*
X021564Y016326D01*
X021932Y016213D02*
X022159Y016213D01*
X022300Y016383D02*
X022414Y016269D01*
X022527Y016383D01*
X022527Y016043D01*
X022300Y016043D02*
X022300Y016383D01*
X022357Y016643D02*
X022300Y016699D01*
X022300Y016926D01*
X022357Y016983D01*
X022470Y016983D01*
X022527Y016926D01*
X022527Y016699D01*
X022470Y016643D01*
X022357Y016643D01*
X022045Y016643D02*
X022045Y016983D01*
X021932Y016983D02*
X022159Y016983D01*
X021790Y016869D02*
X021790Y016643D01*
X021790Y016813D02*
X021564Y016813D01*
X021564Y016869D02*
X021564Y016643D01*
X021564Y016869D02*
X021677Y016983D01*
X021790Y016869D01*
X021800Y017243D02*
X021857Y017299D01*
X021857Y017526D01*
X021913Y017469D02*
X021800Y017469D01*
X022050Y017469D02*
X022107Y017469D01*
X022220Y017356D01*
X022220Y017243D02*
X022220Y017469D01*
X022362Y017413D02*
X022418Y017469D01*
X022532Y017469D01*
X022588Y017413D01*
X022588Y017299D01*
X022532Y017243D01*
X022418Y017243D01*
X022362Y017299D01*
X022362Y017413D01*
X022730Y017413D02*
X022787Y017469D01*
X022957Y017469D01*
X022957Y017129D01*
X022957Y017243D02*
X022787Y017243D01*
X022730Y017299D01*
X022730Y017413D01*
X023098Y017413D02*
X023155Y017469D01*
X023325Y017469D01*
X023325Y017129D01*
X023325Y017243D02*
X023155Y017243D01*
X023098Y017299D01*
X023098Y017413D01*
X023467Y017469D02*
X023467Y017243D01*
X023637Y017243D01*
X023693Y017299D01*
X023693Y017469D01*
X023835Y017526D02*
X023892Y017583D01*
X024005Y017583D01*
X024062Y017526D01*
X024062Y017469D01*
X024005Y017413D01*
X023892Y017413D01*
X023835Y017356D01*
X023835Y017299D01*
X023892Y017243D01*
X024005Y017243D01*
X024062Y017299D01*
X024572Y017243D02*
X024798Y017243D01*
X024798Y017583D01*
X024572Y017583D01*
X024685Y017413D02*
X024798Y017413D01*
X024940Y017526D02*
X024997Y017583D01*
X025110Y017583D01*
X025167Y017526D01*
X025167Y017299D01*
X025110Y017243D01*
X024997Y017243D01*
X024940Y017299D01*
X024940Y017526D01*
X025308Y017526D02*
X025308Y017413D01*
X025365Y017356D01*
X025535Y017356D01*
X025535Y017243D02*
X025535Y017583D01*
X025365Y017583D01*
X025308Y017526D01*
X025308Y016983D02*
X025535Y016983D01*
X025535Y016643D01*
X025308Y016643D01*
X025167Y016643D02*
X024940Y016869D01*
X024798Y016869D02*
X024685Y016869D01*
X024742Y016926D02*
X024742Y016699D01*
X024685Y016643D01*
X024553Y016699D02*
X024553Y016813D01*
X024496Y016869D01*
X024383Y016869D01*
X024326Y016813D01*
X024326Y016756D01*
X024553Y016756D01*
X024553Y016699D02*
X024496Y016643D01*
X024383Y016643D01*
X024185Y016643D02*
X024185Y016869D01*
X024185Y016756D02*
X024071Y016869D01*
X024014Y016869D01*
X023878Y016869D02*
X023878Y016643D01*
X023878Y016869D02*
X023707Y016869D01*
X023651Y016813D01*
X023651Y016643D01*
X023509Y016699D02*
X023453Y016756D01*
X023282Y016756D01*
X023282Y016813D02*
X023282Y016643D01*
X023453Y016643D01*
X023509Y016699D01*
X023453Y016869D02*
X023339Y016869D01*
X023282Y016813D01*
X023141Y016983D02*
X023084Y016983D01*
X023084Y016643D01*
X023028Y016643D02*
X023141Y016643D01*
X023141Y016383D02*
X023084Y016383D01*
X023084Y016043D01*
X023028Y016043D02*
X023141Y016043D01*
X023282Y016043D02*
X023453Y016043D01*
X023509Y016099D01*
X023453Y016156D01*
X023282Y016156D01*
X023282Y016213D02*
X023282Y016043D01*
X023282Y016213D02*
X023339Y016269D01*
X023453Y016269D01*
X023651Y016213D02*
X023651Y016043D01*
X023651Y016213D02*
X023707Y016269D01*
X023878Y016269D01*
X023878Y016043D01*
X024014Y016269D02*
X024071Y016269D01*
X024185Y016156D01*
X024185Y016043D02*
X024185Y016269D01*
X024326Y016213D02*
X024326Y016156D01*
X024553Y016156D01*
X024553Y016213D02*
X024496Y016269D01*
X024383Y016269D01*
X024326Y016213D01*
X024383Y016043D02*
X024496Y016043D01*
X024553Y016099D01*
X024553Y016213D01*
X024685Y016269D02*
X024798Y016269D01*
X024742Y016326D02*
X024742Y016099D01*
X024685Y016043D01*
X024940Y016043D02*
X025167Y016269D01*
X025308Y016383D02*
X025535Y016383D01*
X025535Y016043D01*
X025308Y016043D01*
X025167Y016043D02*
X024940Y016269D01*
X025422Y016213D02*
X025535Y016213D01*
X025535Y015783D02*
X025422Y015783D01*
X025478Y015783D02*
X025478Y015443D01*
X025422Y015443D02*
X025535Y015443D01*
X025289Y015443D02*
X025289Y015669D01*
X025119Y015669D01*
X025063Y015613D01*
X025063Y015443D01*
X024921Y015499D02*
X024864Y015443D01*
X024694Y015443D01*
X024553Y015443D02*
X024439Y015443D01*
X024496Y015443D02*
X024496Y015783D01*
X024553Y015783D01*
X024694Y015669D02*
X024864Y015669D01*
X024921Y015613D01*
X024921Y015499D01*
X024940Y015183D02*
X025167Y015183D01*
X025167Y014843D01*
X025308Y014843D02*
X025422Y014956D01*
X025365Y014956D02*
X025535Y014956D01*
X025535Y014843D02*
X025535Y015183D01*
X025365Y015183D01*
X025308Y015126D01*
X025308Y015013D01*
X025365Y014956D01*
X025167Y015013D02*
X025053Y015013D01*
X024798Y015126D02*
X024742Y015183D01*
X024628Y015183D01*
X024572Y015126D01*
X024572Y015069D01*
X024798Y014843D01*
X024572Y014843D01*
X024430Y015013D02*
X024203Y015013D01*
X024260Y014843D02*
X024260Y015183D01*
X024430Y015013D01*
X024062Y015126D02*
X024005Y015183D01*
X023892Y015183D01*
X023835Y015126D01*
X024062Y014899D01*
X024005Y014843D01*
X023892Y014843D01*
X023835Y014899D01*
X023835Y015126D01*
X023693Y015069D02*
X023580Y015183D01*
X023580Y014843D01*
X023693Y014843D02*
X023467Y014843D01*
X023325Y015013D02*
X023098Y015013D01*
X022957Y014956D02*
X022787Y014956D01*
X022730Y015013D01*
X022730Y015126D01*
X022787Y015183D01*
X022957Y015183D01*
X022957Y014843D01*
X023212Y014899D02*
X023212Y015126D01*
X023268Y015443D02*
X023325Y015499D01*
X023325Y015613D01*
X023268Y015669D01*
X023155Y015669D01*
X023098Y015613D01*
X023098Y015499D01*
X023155Y015443D01*
X023268Y015443D01*
X023457Y015443D02*
X023571Y015443D01*
X023514Y015443D02*
X023514Y015669D01*
X023571Y015669D01*
X023514Y015783D02*
X023514Y015840D01*
X023712Y015669D02*
X023882Y015669D01*
X023939Y015613D01*
X023882Y015556D01*
X023769Y015556D01*
X023712Y015499D01*
X023769Y015443D01*
X023939Y015443D01*
X024080Y015443D02*
X024080Y015669D01*
X024080Y015443D02*
X024251Y015443D01*
X024307Y015499D01*
X024307Y015669D01*
X024062Y015126D02*
X024062Y014899D01*
X022957Y015443D02*
X022957Y015669D01*
X022787Y015669D01*
X022730Y015613D01*
X022730Y015443D01*
X022475Y015183D02*
X022362Y015069D01*
X022362Y014843D01*
X022362Y015013D02*
X022588Y015013D01*
X022588Y015069D02*
X022588Y014843D01*
X022588Y015069D02*
X022475Y015183D01*
X021054Y016043D02*
X020827Y016043D01*
X020686Y016043D02*
X020459Y016043D01*
X020317Y016043D02*
X020317Y016383D01*
X020147Y016383D01*
X020090Y016326D01*
X020090Y016213D01*
X020147Y016156D01*
X020317Y016156D01*
X020572Y016213D02*
X020686Y016213D01*
X020686Y016383D02*
X020686Y016043D01*
X020940Y016213D02*
X021054Y016213D01*
X021054Y016383D02*
X021054Y016043D01*
X021054Y016383D02*
X020827Y016383D01*
X020686Y016383D02*
X020459Y016383D01*
X020383Y016643D02*
X020213Y016643D01*
X020213Y016813D01*
X020270Y016869D01*
X020383Y016869D01*
X020383Y016756D02*
X020213Y016756D01*
X020072Y016813D02*
X020015Y016756D01*
X019902Y016756D01*
X019845Y016699D01*
X019902Y016643D01*
X020072Y016643D01*
X020072Y016813D02*
X020015Y016869D01*
X019845Y016869D01*
X019703Y016813D02*
X019647Y016869D01*
X019533Y016869D01*
X019476Y016813D01*
X019476Y016643D01*
X019703Y016643D02*
X019703Y016983D01*
X019779Y016383D02*
X019722Y016326D01*
X019722Y016213D01*
X019779Y016156D01*
X019949Y016156D01*
X019949Y016043D02*
X019949Y016383D01*
X019779Y016383D01*
X019581Y016326D02*
X019524Y016383D01*
X019410Y016383D01*
X019354Y016326D01*
X019354Y016099D01*
X019410Y016043D01*
X019524Y016043D01*
X019581Y016099D01*
X019581Y016326D01*
X019835Y016156D02*
X019722Y016043D01*
X019212Y016043D02*
X019212Y016383D01*
X019099Y016269D01*
X018985Y016383D01*
X018985Y016043D01*
X020383Y016643D02*
X020440Y016699D01*
X020383Y016756D01*
X020572Y016643D02*
X020686Y016643D01*
X020629Y016643D02*
X020629Y016983D01*
X020686Y016983D01*
X020827Y016983D02*
X021054Y016983D01*
X021054Y016643D01*
X021054Y016813D02*
X020940Y016813D01*
X017640Y017800D02*
X017640Y018900D01*
X017638Y018917D01*
X017634Y018934D01*
X017627Y018950D01*
X017617Y018964D01*
X017604Y018977D01*
X017590Y018987D01*
X017574Y018994D01*
X017557Y018998D01*
X017540Y019000D01*
X016940Y019000D01*
X016923Y018998D01*
X016906Y018994D01*
X016890Y018987D01*
X016876Y018977D01*
X016863Y018964D01*
X016853Y018950D01*
X016846Y018934D01*
X016842Y018917D01*
X016840Y018900D01*
X016840Y017800D01*
X016842Y017783D01*
X016846Y017766D01*
X016853Y017750D01*
X016863Y017736D01*
X016876Y017723D01*
X016890Y017713D01*
X016906Y017706D01*
X016923Y017702D01*
X016940Y017700D01*
X017540Y017700D01*
X017557Y017702D01*
X017574Y017706D01*
X017590Y017713D01*
X017604Y017723D01*
X017617Y017736D01*
X017627Y017750D01*
X017634Y017766D01*
X017638Y017783D01*
X017640Y017800D01*
X016440Y017800D02*
X016440Y018900D01*
X016438Y018917D01*
X016434Y018934D01*
X016427Y018950D01*
X016417Y018964D01*
X016404Y018977D01*
X016390Y018987D01*
X016374Y018994D01*
X016357Y018998D01*
X016340Y019000D01*
X015740Y019000D01*
X015723Y018998D01*
X015706Y018994D01*
X015690Y018987D01*
X015676Y018977D01*
X015663Y018964D01*
X015653Y018950D01*
X015646Y018934D01*
X015642Y018917D01*
X015640Y018900D01*
X015640Y017800D01*
X015642Y017783D01*
X015646Y017766D01*
X015653Y017750D01*
X015663Y017736D01*
X015676Y017723D01*
X015690Y017713D01*
X015706Y017706D01*
X015723Y017702D01*
X015740Y017700D01*
X016340Y017700D01*
X016357Y017702D01*
X016374Y017706D01*
X016390Y017713D01*
X016404Y017723D01*
X016417Y017736D01*
X016427Y017750D01*
X016434Y017766D01*
X016438Y017783D01*
X016440Y017800D01*
X024940Y016643D02*
X025167Y016869D01*
X025422Y016813D02*
X025535Y016813D01*
X028843Y015548D02*
X028956Y015661D01*
X029069Y015661D01*
X029183Y015548D01*
X029183Y015350D02*
X028843Y015350D01*
X029013Y015407D02*
X029013Y015180D01*
X029183Y015350D01*
X029443Y015359D02*
X029443Y015473D01*
X029499Y015529D01*
X029556Y015529D01*
X029613Y015473D01*
X029613Y015359D01*
X029669Y015302D01*
X029726Y015302D01*
X029783Y015359D01*
X029783Y015473D01*
X029726Y015529D01*
X029669Y015529D01*
X029613Y015473D01*
X029613Y015359D02*
X029556Y015302D01*
X029499Y015302D01*
X029443Y015359D01*
X029443Y015161D02*
X029443Y014934D01*
X029443Y015048D02*
X029783Y015048D01*
X029669Y014934D01*
X029726Y014793D02*
X029783Y014736D01*
X029783Y014623D01*
X029726Y014566D01*
X029669Y014566D01*
X029613Y014623D01*
X029613Y014736D01*
X029556Y014793D01*
X029499Y014793D01*
X029443Y014736D01*
X029443Y014623D01*
X029499Y014566D01*
X029499Y014424D02*
X029726Y014424D01*
X029783Y014368D01*
X029783Y014198D01*
X029443Y014198D01*
X029443Y014368D01*
X029499Y014424D01*
X029183Y014679D02*
X029069Y014566D01*
X028956Y014566D01*
X028843Y014679D01*
X028843Y014811D02*
X028843Y014982D01*
X028899Y015038D01*
X029126Y015038D01*
X029183Y014982D01*
X029183Y014811D01*
X028843Y014811D01*
X029443Y015671D02*
X029669Y015898D01*
X029726Y015898D01*
X029783Y015841D01*
X029783Y015727D01*
X029726Y015671D01*
X029443Y015671D02*
X029443Y015898D01*
X029499Y016039D02*
X029726Y016266D01*
X029499Y016266D01*
X029443Y016209D01*
X029443Y016096D01*
X029499Y016039D01*
X029726Y016039D01*
X029783Y016096D01*
X029783Y016209D01*
X029726Y016266D01*
X031368Y016435D02*
X031708Y016435D01*
X031708Y016605D01*
X031651Y016662D01*
X031538Y016662D01*
X031481Y016605D01*
X031481Y016435D01*
X031481Y016548D02*
X031368Y016662D01*
X031368Y016803D02*
X031368Y017030D01*
X031424Y017172D02*
X031368Y017228D01*
X031368Y017342D01*
X031424Y017398D01*
X031481Y017398D01*
X031538Y017342D01*
X031538Y017228D01*
X031594Y017172D01*
X031651Y017172D01*
X031708Y017228D01*
X031708Y017342D01*
X031651Y017398D01*
X031708Y017540D02*
X031368Y017540D01*
X031368Y017767D01*
X031538Y017653D02*
X031538Y017540D01*
X031708Y017540D02*
X031708Y017767D01*
X031708Y017908D02*
X031708Y018135D01*
X031708Y018022D02*
X031368Y018022D01*
X031708Y017030D02*
X031708Y016803D01*
X031368Y016803D01*
X031538Y016803D02*
X031538Y016917D01*
X031480Y014725D02*
X031820Y014725D01*
X031820Y014498D02*
X031480Y014498D01*
X031537Y014357D02*
X031764Y014357D01*
X031820Y014300D01*
X031820Y014187D01*
X031764Y014130D01*
X031537Y014130D01*
X031480Y014187D01*
X031480Y014300D01*
X031537Y014357D01*
X031820Y014498D02*
X031480Y014725D01*
X031480Y013998D02*
X031480Y013885D01*
X031480Y013941D02*
X031820Y013941D01*
X031820Y013885D02*
X031820Y013998D01*
X031764Y013743D02*
X031820Y013686D01*
X031820Y013573D01*
X031764Y013516D01*
X031707Y013516D01*
X031650Y013573D01*
X031650Y013686D01*
X031593Y013743D01*
X031537Y013743D01*
X031480Y013686D01*
X031480Y013573D01*
X031537Y013516D01*
X031537Y013375D02*
X031820Y013375D01*
X031820Y013148D02*
X031537Y013148D01*
X031480Y013205D01*
X031480Y013318D01*
X031537Y013375D01*
X031220Y013375D02*
X031164Y013261D01*
X031050Y013148D01*
X031050Y013318D01*
X030993Y013375D01*
X030937Y013375D01*
X030880Y013318D01*
X030880Y013205D01*
X030937Y013148D01*
X031050Y013148D01*
X031050Y013007D02*
X031050Y012780D01*
X031107Y012780D02*
X031220Y012893D01*
X031107Y013007D01*
X030880Y013007D01*
X030880Y012780D02*
X031107Y012780D01*
X031220Y012648D02*
X031107Y012534D01*
X030993Y012534D01*
X030880Y012648D01*
X031480Y012582D02*
X031537Y012638D01*
X031480Y012582D02*
X031480Y012468D01*
X031537Y012411D01*
X031764Y012411D01*
X031820Y012468D01*
X031820Y012582D01*
X031764Y012638D01*
X031820Y012780D02*
X031480Y012780D01*
X031480Y013007D01*
X031220Y013516D02*
X031107Y013630D01*
X030993Y013630D01*
X030880Y013516D01*
X031480Y012270D02*
X031820Y012270D01*
X031820Y012043D02*
X031480Y012043D01*
X031480Y011911D02*
X031480Y011798D01*
X031480Y011854D02*
X031820Y011854D01*
X031820Y011798D02*
X031820Y011911D01*
X031820Y012043D02*
X031480Y012270D01*
X031519Y001968D02*
X031406Y001968D01*
X031349Y001911D01*
X031576Y001684D01*
X031519Y001628D01*
X031406Y001628D01*
X031349Y001684D01*
X031349Y001911D01*
X031208Y001854D02*
X031094Y001968D01*
X031094Y001628D01*
X030981Y001628D02*
X031208Y001628D01*
X031576Y001684D02*
X031576Y001911D01*
X031519Y001968D01*
X031774Y001968D02*
X031774Y001628D01*
X031717Y001798D02*
X031944Y001798D01*
X031774Y001968D01*
X032086Y001911D02*
X032142Y001968D01*
X032256Y001968D01*
X032313Y001911D01*
X032454Y001968D02*
X032681Y001968D01*
X032681Y001628D01*
X032822Y001628D02*
X032936Y001741D01*
X032879Y001741D02*
X033049Y001741D01*
X033049Y001628D02*
X033049Y001968D01*
X032879Y001968D01*
X032822Y001911D01*
X032822Y001798D01*
X032879Y001741D01*
X032681Y001798D02*
X032567Y001798D01*
X032313Y001628D02*
X032086Y001854D01*
X032086Y001911D01*
X032086Y001628D02*
X032313Y001628D01*
X033191Y001628D02*
X033191Y001968D01*
X033418Y001968D02*
X033191Y001628D01*
X033418Y001628D02*
X033418Y001968D01*
X030839Y001798D02*
X030612Y001798D01*
X030726Y001911D02*
X030726Y001684D01*
X030103Y001628D02*
X030103Y001968D01*
X029933Y001968D01*
X029876Y001911D01*
X029876Y001798D01*
X029933Y001741D01*
X030103Y001741D01*
X029734Y001798D02*
X029507Y001798D01*
X029507Y001854D02*
X029507Y001628D01*
X029507Y001854D02*
X029621Y001968D01*
X029734Y001854D01*
X029734Y001628D01*
X003960Y016947D02*
X003903Y016890D01*
X003790Y016890D01*
X003733Y016947D01*
X003733Y017060D01*
X003847Y017060D01*
X003960Y016947D02*
X003960Y017174D01*
X003903Y017230D01*
X003790Y017230D01*
X003733Y017174D01*
X003592Y017230D02*
X003365Y016890D01*
X003365Y017230D01*
X003223Y017230D02*
X003053Y017230D01*
X002997Y017174D01*
X002997Y016947D01*
X003053Y016890D01*
X003223Y016890D01*
X003223Y017230D01*
X002934Y017337D02*
X004034Y017337D01*
X004051Y017339D01*
X004068Y017343D01*
X004084Y017350D01*
X004098Y017360D01*
X004111Y017373D01*
X004121Y017387D01*
X004128Y017403D01*
X004132Y017420D01*
X004134Y017437D01*
X004134Y018037D01*
X004132Y018054D01*
X004128Y018071D01*
X004121Y018087D01*
X004111Y018101D01*
X004098Y018114D01*
X004084Y018124D01*
X004068Y018131D01*
X004051Y018135D01*
X004034Y018137D01*
X002934Y018137D01*
X002917Y018135D01*
X002900Y018131D01*
X002884Y018124D01*
X002870Y018114D01*
X002857Y018101D01*
X002847Y018087D01*
X002840Y018071D01*
X002836Y018054D01*
X002834Y018037D01*
X002834Y017437D01*
X002836Y017420D01*
X002840Y017403D01*
X002847Y017387D01*
X002857Y017373D01*
X002870Y017360D01*
X002884Y017350D01*
X002900Y017343D01*
X002917Y017339D01*
X002934Y017337D01*
X003592Y017230D02*
X003592Y016890D01*
X004833Y018960D02*
X004833Y019300D01*
X004720Y019300D02*
X004947Y019300D01*
X005088Y019244D02*
X005088Y019017D01*
X005145Y018960D01*
X005258Y018960D01*
X005315Y019017D01*
X005315Y019244D01*
X005258Y019300D01*
X005145Y019300D01*
X005088Y019244D01*
X005340Y019466D02*
X005940Y019466D01*
X005957Y019468D01*
X005974Y019472D01*
X005990Y019479D01*
X006004Y019489D01*
X006017Y019502D01*
X006027Y019516D01*
X006034Y019532D01*
X006038Y019549D01*
X006040Y019566D01*
X006040Y020666D01*
X006038Y020683D01*
X006034Y020700D01*
X006027Y020716D01*
X006017Y020730D01*
X006004Y020743D01*
X005990Y020753D01*
X005974Y020760D01*
X005957Y020764D01*
X005940Y020766D01*
X005340Y020766D01*
X005323Y020764D01*
X005306Y020760D01*
X005290Y020753D01*
X005276Y020743D01*
X005263Y020730D01*
X005253Y020716D01*
X005246Y020700D01*
X005242Y020683D01*
X005240Y020666D01*
X005240Y019566D01*
X005242Y019549D01*
X005246Y019532D01*
X005253Y019516D01*
X005263Y019502D01*
X005276Y019489D01*
X005290Y019479D01*
X005306Y019472D01*
X005323Y019468D01*
X005340Y019466D01*
X005513Y019300D02*
X005457Y019244D01*
X005457Y019017D01*
X005513Y018960D01*
X005627Y018960D01*
X005683Y019017D01*
X005683Y019244D01*
X005627Y019300D01*
X005513Y019300D01*
X005825Y019244D02*
X005825Y019187D01*
X005882Y019130D01*
X006052Y019130D01*
X006052Y018960D02*
X005882Y018960D01*
X005825Y019017D01*
X005825Y019073D01*
X005882Y019130D01*
X005825Y019244D02*
X005882Y019300D01*
X006052Y019300D01*
X006052Y018960D01*
X006193Y019017D02*
X006250Y018960D01*
X006363Y018960D01*
X006420Y019017D01*
X006420Y019300D01*
X006193Y019300D02*
X006193Y019017D01*
D17*
X008840Y020000D03*
X009840Y020000D03*
X010840Y020000D03*
X011840Y020000D03*
X012840Y020000D03*
X013840Y020000D03*
X014840Y020000D03*
X015840Y020000D03*
X016840Y020000D03*
X017840Y020000D03*
X019440Y020000D03*
X020440Y020000D03*
X021440Y020000D03*
X022440Y020000D03*
X023440Y020000D03*
X024440Y020000D03*
X025440Y020000D03*
X026440Y020000D03*
X026440Y002100D03*
X025440Y002100D03*
X024440Y002100D03*
X023440Y002100D03*
X022440Y002100D03*
X021440Y002100D03*
X019440Y002100D03*
X018440Y002100D03*
X017440Y002100D03*
X016440Y002100D03*
X015440Y002100D03*
X014440Y002100D03*
D18*
X021074Y002720D02*
X021174Y002820D01*
X021207Y002787D02*
X021074Y002920D01*
X021207Y002920D02*
X021207Y002720D01*
X021295Y002753D02*
X021328Y002720D01*
X021395Y002720D01*
X021428Y002753D01*
X021428Y002887D01*
X021395Y002920D01*
X021328Y002920D01*
X021295Y002887D01*
X021516Y002887D02*
X021549Y002920D01*
X021616Y002920D01*
X021649Y002887D01*
X021649Y002853D01*
X021616Y002820D01*
X021549Y002820D01*
X021516Y002787D01*
X021516Y002753D01*
X021549Y002720D01*
X021616Y002720D01*
X021649Y002753D01*
X021737Y002720D02*
X021737Y002920D01*
X021870Y002920D02*
X021737Y002720D01*
X021870Y002720D02*
X021870Y002920D01*
X022032Y002920D02*
X022099Y002920D01*
X022065Y002920D02*
X022065Y002720D01*
X022032Y002720D02*
X022099Y002720D01*
X022186Y002753D02*
X022219Y002720D01*
X022286Y002720D01*
X022320Y002753D01*
X022286Y002820D02*
X022219Y002820D01*
X022186Y002787D01*
X022186Y002753D01*
X022286Y002820D02*
X022320Y002853D01*
X022320Y002887D01*
X022286Y002920D01*
X022219Y002920D01*
X022186Y002887D01*
X022407Y002887D02*
X022440Y002920D01*
X022507Y002920D01*
X022541Y002887D01*
X022541Y002753D01*
X022507Y002720D01*
X022440Y002720D01*
X022407Y002753D01*
X022407Y002887D01*
X022628Y002920D02*
X022628Y002720D01*
X022762Y002720D02*
X022762Y002920D01*
X022695Y002853D01*
X022628Y002920D01*
X022849Y002920D02*
X022849Y002720D01*
X022983Y002920D01*
X022983Y002720D01*
X023101Y002753D02*
X023101Y002887D01*
X023135Y002920D01*
X023201Y002920D01*
X023235Y002887D01*
X023235Y002753D01*
X023201Y002720D01*
X023135Y002720D01*
X023101Y002753D01*
X023322Y002753D02*
X023356Y002720D01*
X023422Y002720D01*
X023456Y002753D01*
X023422Y002820D02*
X023356Y002820D01*
X023322Y002787D01*
X023322Y002753D01*
X023422Y002820D02*
X023456Y002853D01*
X023456Y002887D01*
X023422Y002920D01*
X023356Y002920D01*
X023322Y002887D01*
X023536Y002920D02*
X023603Y002920D01*
X023570Y002920D02*
X023570Y002720D01*
X023603Y002720D02*
X023536Y002720D01*
X023691Y002720D02*
X023691Y002920D01*
X023757Y002853D01*
X023824Y002920D01*
X023824Y002720D01*
X023912Y002720D02*
X023912Y002920D01*
X024045Y002920D02*
X023912Y002720D01*
X024045Y002720D02*
X024045Y002920D01*
X025145Y002803D02*
X025145Y002670D01*
X025145Y002770D02*
X025278Y002770D01*
X025278Y002803D02*
X025211Y002870D01*
X025145Y002803D01*
X025278Y002803D02*
X025278Y002670D01*
X025366Y002703D02*
X025366Y002837D01*
X025399Y002870D01*
X025499Y002870D01*
X025499Y002670D01*
X025399Y002670D01*
X025366Y002703D01*
X025587Y002703D02*
X025620Y002670D01*
X025687Y002670D01*
X025720Y002703D01*
X025687Y002770D02*
X025620Y002770D01*
X025587Y002737D01*
X025587Y002703D01*
X025687Y002770D02*
X025720Y002803D01*
X025720Y002837D01*
X025687Y002870D01*
X025620Y002870D01*
X025587Y002837D01*
X026145Y002670D02*
X026278Y002670D01*
X026278Y002870D01*
X026366Y002837D02*
X026399Y002870D01*
X026466Y002870D01*
X026499Y002837D01*
X026499Y002703D01*
X026466Y002670D01*
X026399Y002670D01*
X026366Y002703D01*
X026587Y002703D02*
X026620Y002670D01*
X026687Y002670D01*
X026720Y002703D01*
X026687Y002770D02*
X026620Y002770D01*
X026587Y002737D01*
X026587Y002703D01*
X026687Y002770D02*
X026720Y002803D01*
X026720Y002837D01*
X026687Y002870D01*
X026620Y002870D01*
X026587Y002837D01*
X030243Y002826D02*
X030336Y002733D01*
X030429Y002733D01*
X030523Y002826D01*
X030523Y002929D02*
X030243Y002929D01*
X030243Y003069D01*
X030289Y003116D01*
X030476Y003116D01*
X030523Y003069D01*
X030523Y002929D01*
X030523Y003224D02*
X030383Y003224D01*
X030429Y003317D01*
X030429Y003364D01*
X030383Y003411D01*
X030289Y003411D01*
X030243Y003364D01*
X030243Y003271D01*
X030289Y003224D01*
X030523Y003224D02*
X030523Y003411D01*
X030523Y003519D02*
X030429Y003612D01*
X030336Y003612D01*
X030243Y003519D01*
X030286Y004120D02*
X030379Y004120D01*
X030473Y004214D01*
X030473Y004317D02*
X030473Y004457D01*
X030426Y004504D01*
X030239Y004504D01*
X030193Y004457D01*
X030193Y004317D01*
X030473Y004317D01*
X030286Y004120D02*
X030193Y004214D01*
X030239Y004611D02*
X030193Y004658D01*
X030193Y004752D01*
X030239Y004798D01*
X030286Y004798D01*
X030333Y004752D01*
X030333Y004611D01*
X030239Y004611D01*
X030333Y004611D02*
X030426Y004705D01*
X030473Y004798D01*
X030473Y004906D02*
X030379Y004999D01*
X030286Y004999D01*
X030193Y004906D01*
X031255Y004944D02*
X031348Y005037D01*
X031442Y005037D01*
X031535Y004944D01*
X031489Y004836D02*
X031535Y004789D01*
X031535Y004696D01*
X031489Y004649D01*
X031442Y004541D02*
X031255Y004541D01*
X031255Y004649D02*
X031442Y004836D01*
X031489Y004836D01*
X031255Y004836D02*
X031255Y004649D01*
X031395Y004541D02*
X031395Y004354D01*
X031442Y004354D02*
X031535Y004448D01*
X031442Y004541D01*
X031442Y004354D02*
X031255Y004354D01*
X031255Y004251D02*
X031348Y004158D01*
X031442Y004158D01*
X031535Y004251D01*
X032243Y004264D02*
X032336Y004170D01*
X032429Y004170D01*
X032523Y004264D01*
X032523Y004367D02*
X032523Y004507D01*
X032476Y004554D01*
X032289Y004554D01*
X032243Y004507D01*
X032243Y004367D01*
X032523Y004367D01*
X032476Y004661D02*
X032523Y004708D01*
X032523Y004802D01*
X032476Y004848D01*
X032429Y004848D01*
X032383Y004802D01*
X032336Y004848D01*
X032289Y004848D01*
X032243Y004802D01*
X032243Y004708D01*
X032289Y004661D01*
X032383Y004755D02*
X032383Y004802D01*
X032523Y004956D02*
X032429Y005049D01*
X032336Y005049D01*
X032243Y004956D01*
X032373Y003624D02*
X032467Y003624D01*
X032560Y003531D01*
X032514Y003423D02*
X032560Y003377D01*
X032560Y003283D01*
X032514Y003236D01*
X032467Y003129D02*
X032280Y003129D01*
X032280Y003236D02*
X032467Y003423D01*
X032514Y003423D01*
X032280Y003423D02*
X032280Y003236D01*
X032420Y003129D02*
X032420Y002942D01*
X032467Y002942D02*
X032560Y003035D01*
X032467Y003129D01*
X032467Y002942D02*
X032280Y002942D01*
X032280Y002839D02*
X032373Y002745D01*
X032467Y002745D01*
X032560Y002839D01*
X032280Y003531D02*
X032373Y003624D01*
X031548Y003519D02*
X031454Y003612D01*
X031361Y003612D01*
X031268Y003519D01*
X031314Y003411D02*
X031268Y003364D01*
X031268Y003271D01*
X031314Y003224D01*
X031501Y003411D01*
X031314Y003411D01*
X031501Y003411D02*
X031548Y003364D01*
X031548Y003271D01*
X031501Y003224D01*
X031314Y003224D01*
X031268Y003116D02*
X031454Y003116D01*
X031548Y003023D01*
X031454Y002929D01*
X031268Y002929D01*
X031268Y002826D02*
X031361Y002733D01*
X031454Y002733D01*
X031548Y002826D01*
X031408Y002929D02*
X031408Y003116D01*
D19*
X024587Y007499D03*
X024119Y007499D03*
X024119Y007535D03*
X023819Y008975D03*
X021659Y006635D03*
X021359Y006599D03*
X021539Y006335D03*
X021563Y006299D03*
X019199Y006419D03*
X019199Y006455D03*
X019199Y006479D03*
X019199Y006515D03*
X019199Y006539D03*
X019199Y006575D03*
X019199Y006599D03*
X019199Y006635D03*
X019199Y006719D03*
X019199Y006755D03*
X018947Y006575D03*
X018947Y006539D03*
X018947Y006515D03*
X018947Y006479D03*
X017831Y006479D03*
X017831Y006455D03*
X017819Y006599D03*
X017519Y006599D03*
X017519Y006575D03*
X017519Y006479D03*
X017519Y006455D03*
X016967Y006455D03*
X016967Y006479D03*
X016967Y006515D03*
X016967Y006539D03*
X016967Y006575D03*
X016967Y006599D03*
X016967Y006635D03*
X016967Y006719D03*
X016967Y006755D03*
X016967Y006419D03*
X013871Y006455D03*
X013871Y006479D03*
X013859Y006599D03*
X013559Y006599D03*
X013559Y006575D03*
X013559Y006479D03*
X013559Y006455D03*
X012599Y006299D03*
X012371Y006635D03*
D20*
X012383Y006624D03*
X012419Y006564D03*
X012527Y006408D03*
X012551Y006371D03*
X012587Y006311D03*
X012659Y006588D03*
X012683Y006624D03*
X013559Y006611D03*
X013559Y006588D03*
X013559Y006564D03*
X013559Y006551D03*
X013559Y006504D03*
X013559Y006491D03*
X013559Y006468D03*
X013559Y006408D03*
X013871Y006444D03*
X013871Y006468D03*
X013871Y006491D03*
X013871Y006504D03*
X013859Y006588D03*
X013859Y006611D03*
X016967Y006611D03*
X016967Y006624D03*
X016967Y006648D03*
X016967Y006588D03*
X016967Y006564D03*
X016967Y006551D03*
X016967Y006528D03*
X016967Y006504D03*
X016967Y006491D03*
X016967Y006468D03*
X016967Y006444D03*
X016967Y006431D03*
X016967Y006408D03*
X017519Y006408D03*
X017519Y006468D03*
X017519Y006491D03*
X017519Y006504D03*
X017519Y006551D03*
X017519Y006564D03*
X017519Y006588D03*
X017519Y006611D03*
X017819Y006611D03*
X017819Y006588D03*
X017831Y006504D03*
X017831Y006491D03*
X017831Y006468D03*
X017831Y006444D03*
X016967Y006731D03*
X016967Y006744D03*
X018947Y006588D03*
X018947Y006564D03*
X018947Y006551D03*
X018947Y006528D03*
X018947Y006504D03*
X018947Y006491D03*
X018947Y006468D03*
X019199Y006468D03*
X019199Y006491D03*
X019199Y006504D03*
X019199Y006528D03*
X019199Y006551D03*
X019199Y006564D03*
X019199Y006588D03*
X019199Y006611D03*
X019199Y006624D03*
X019199Y006648D03*
X019199Y006731D03*
X019199Y006744D03*
X019199Y006444D03*
X019199Y006431D03*
X019199Y006408D03*
X021347Y006624D03*
X021383Y006564D03*
X021491Y006408D03*
X021551Y006311D03*
X021623Y006588D03*
X021647Y006624D03*
X021659Y006648D03*
X024119Y007511D03*
X024119Y007524D03*
X024587Y007488D03*
X024719Y008784D03*
X024251Y009251D03*
D21*
X023885Y006731D03*
X023885Y006708D03*
X023885Y006684D03*
X023885Y006671D03*
X023885Y006611D03*
X023885Y006588D03*
X023885Y006564D03*
X023885Y006551D03*
X023885Y006528D03*
X023885Y006504D03*
X023885Y006491D03*
X023885Y006468D03*
X023885Y006444D03*
X022985Y006444D03*
X022985Y006431D03*
X022985Y006408D03*
X022985Y006468D03*
X022985Y006491D03*
X022985Y006504D03*
X022985Y006528D03*
X022985Y006551D03*
X022985Y006564D03*
X022985Y006588D03*
X022985Y006648D03*
X021605Y006564D03*
X021605Y006551D03*
X021425Y006504D03*
X021365Y006588D03*
X021545Y006324D03*
X019985Y006408D03*
X019985Y006431D03*
X019985Y006444D03*
X019985Y006468D03*
X019985Y006491D03*
X019985Y006504D03*
X019985Y006528D03*
X019985Y006551D03*
X019985Y006564D03*
X019985Y006588D03*
X019985Y006648D03*
X012605Y006504D03*
X012545Y006384D03*
X012425Y006551D03*
X012365Y006648D03*
D22*
X012389Y006611D03*
X012401Y006588D03*
X012437Y006528D03*
X012461Y006504D03*
X012617Y006528D03*
X012641Y006551D03*
X012641Y006564D03*
X012677Y006611D03*
X012569Y006348D03*
X012581Y006324D03*
X013001Y006444D03*
X013001Y006468D03*
X013001Y006491D03*
X013001Y006504D03*
X013001Y006528D03*
X013001Y006551D03*
X013001Y006564D03*
X013001Y006588D03*
X013001Y006611D03*
X013001Y006671D03*
X013001Y006684D03*
X013001Y006708D03*
X013001Y006731D03*
X014117Y006611D03*
X014117Y006588D03*
X014117Y006564D03*
X014117Y006468D03*
X014117Y006444D03*
X014417Y006444D03*
X014417Y006468D03*
X014417Y006491D03*
X014417Y006504D03*
X014417Y006564D03*
X014417Y006588D03*
X014417Y006611D03*
X014633Y006611D03*
X014633Y006588D03*
X014909Y006588D03*
X014909Y006564D03*
X014909Y006551D03*
X014909Y006528D03*
X014909Y006504D03*
X014909Y006491D03*
X014909Y006468D03*
X014909Y006444D03*
X014909Y006431D03*
X014909Y006408D03*
X014909Y006648D03*
X015449Y006611D03*
X015449Y006588D03*
X015449Y006564D03*
X015449Y006551D03*
X015449Y006528D03*
X015449Y006504D03*
X015449Y006491D03*
X015449Y006468D03*
X015449Y006444D03*
X015761Y006444D03*
X015761Y006468D03*
X015761Y006491D03*
X015761Y006504D03*
X015761Y006528D03*
X015761Y006551D03*
X015761Y006564D03*
X015761Y006588D03*
X015761Y006611D03*
X016109Y006611D03*
X016109Y006588D03*
X016109Y006564D03*
X016109Y006551D03*
X016109Y006528D03*
X016109Y006504D03*
X016109Y006491D03*
X016109Y006468D03*
X016109Y006444D03*
X016109Y006671D03*
X016109Y006684D03*
X016109Y006708D03*
X016109Y006731D03*
X016397Y006611D03*
X016397Y006588D03*
X016397Y006564D03*
X016397Y006551D03*
X016397Y006528D03*
X016397Y006504D03*
X016397Y006491D03*
X016397Y006468D03*
X016397Y006444D03*
X016397Y006431D03*
X016397Y006408D03*
X016709Y006408D03*
X016709Y006431D03*
X016709Y006444D03*
X016709Y006468D03*
X016709Y006491D03*
X016709Y006504D03*
X016709Y006528D03*
X016709Y006551D03*
X016709Y006564D03*
X016709Y006588D03*
X016709Y006648D03*
X018077Y006611D03*
X018077Y006588D03*
X018077Y006564D03*
X018077Y006468D03*
X018077Y006444D03*
X018377Y006444D03*
X018377Y006468D03*
X018377Y006491D03*
X018377Y006504D03*
X018377Y006564D03*
X018377Y006588D03*
X018377Y006611D03*
X019709Y006611D03*
X019709Y006588D03*
X020237Y006588D03*
X020237Y006611D03*
X020237Y006624D03*
X020237Y006648D03*
X020237Y006564D03*
X020237Y006551D03*
X020237Y006528D03*
X020237Y006504D03*
X020237Y006491D03*
X020237Y006468D03*
X020237Y006408D03*
X020549Y006444D03*
X020549Y006468D03*
X020549Y006491D03*
X020549Y006504D03*
X020549Y006528D03*
X020549Y006551D03*
X020549Y006564D03*
X020549Y006588D03*
X020549Y006611D03*
X020549Y006624D03*
X020549Y006648D03*
X020801Y006611D03*
X020801Y006588D03*
X020801Y006564D03*
X020801Y006551D03*
X020801Y006528D03*
X020801Y006504D03*
X020801Y006491D03*
X020801Y006468D03*
X020801Y006444D03*
X021113Y006444D03*
X021113Y006468D03*
X021113Y006491D03*
X021113Y006504D03*
X021113Y006528D03*
X021113Y006551D03*
X021113Y006564D03*
X021113Y006588D03*
X021113Y006611D03*
X021329Y006648D03*
X021353Y006611D03*
X021389Y006551D03*
X021401Y006528D03*
X021569Y006504D03*
X021581Y006528D03*
X021641Y006611D03*
X021509Y006384D03*
X021533Y006348D03*
X022181Y006408D03*
X022181Y006431D03*
X022181Y006444D03*
X022181Y006468D03*
X022181Y006491D03*
X022181Y006504D03*
X022181Y006528D03*
X022181Y006551D03*
X022181Y006564D03*
X022181Y006588D03*
X022181Y006611D03*
X022493Y006588D03*
X022493Y006564D03*
X022493Y006551D03*
X022493Y006528D03*
X022493Y006504D03*
X022493Y006491D03*
X022493Y006468D03*
X022493Y006444D03*
X022493Y006431D03*
X022493Y006408D03*
X022709Y006588D03*
X022709Y006611D03*
X022493Y006648D03*
X023237Y006648D03*
X023237Y006624D03*
X023237Y006611D03*
X023237Y006588D03*
X023237Y006564D03*
X023237Y006551D03*
X023237Y006528D03*
X023237Y006504D03*
X023237Y006491D03*
X023237Y006468D03*
X023237Y006408D03*
X023549Y006444D03*
X023549Y006468D03*
X023549Y006491D03*
X023549Y006504D03*
X023549Y006528D03*
X023549Y006551D03*
X023549Y006564D03*
X023549Y006588D03*
X023549Y006611D03*
X023549Y006624D03*
X023549Y006648D03*
X024581Y007511D03*
X024581Y007524D03*
X024713Y008771D03*
X025541Y009048D03*
X023849Y008951D03*
X023837Y008964D03*
D23*
X021335Y006635D03*
X018635Y006659D03*
X018635Y006695D03*
X018635Y006719D03*
X018635Y006755D03*
X018635Y006779D03*
X018635Y006599D03*
X018635Y006575D03*
X018635Y006539D03*
X018635Y006515D03*
X018635Y006479D03*
X018635Y006455D03*
X013295Y006455D03*
X013295Y006479D03*
X013295Y006515D03*
X013295Y006539D03*
X013295Y006575D03*
X013295Y006599D03*
X013295Y006635D03*
X013295Y006659D03*
X013295Y006695D03*
X013295Y006719D03*
X013295Y006755D03*
X013295Y006779D03*
X013295Y006419D03*
X012695Y006635D03*
X012395Y006599D03*
X012575Y006335D03*
D24*
X012557Y006359D03*
X012533Y006395D03*
X012473Y006479D03*
X012449Y006515D03*
X012437Y006539D03*
X012413Y006575D03*
X012593Y006479D03*
X012617Y006515D03*
X012629Y006539D03*
X012653Y006575D03*
X013001Y006575D03*
X013001Y006599D03*
X013001Y006539D03*
X013001Y006515D03*
X013001Y006479D03*
X013001Y006455D03*
X013001Y006659D03*
X013001Y006695D03*
X013001Y006719D03*
X014117Y006599D03*
X014117Y006575D03*
X014117Y006479D03*
X014117Y006455D03*
X014417Y006455D03*
X014417Y006479D03*
X014417Y006515D03*
X014417Y006575D03*
X014417Y006599D03*
X014633Y006599D03*
X014633Y006575D03*
X014909Y006575D03*
X014909Y006599D03*
X014909Y006539D03*
X014909Y006515D03*
X014909Y006479D03*
X014909Y006455D03*
X014909Y006419D03*
X015449Y006455D03*
X015449Y006479D03*
X015449Y006515D03*
X015449Y006539D03*
X015449Y006575D03*
X015449Y006599D03*
X015761Y006599D03*
X015761Y006575D03*
X015761Y006539D03*
X015761Y006515D03*
X015761Y006479D03*
X015761Y006455D03*
X016109Y006455D03*
X016109Y006479D03*
X016109Y006515D03*
X016109Y006539D03*
X016109Y006575D03*
X016109Y006599D03*
X016109Y006659D03*
X016109Y006695D03*
X016109Y006719D03*
X016397Y006599D03*
X016397Y006575D03*
X016397Y006539D03*
X016397Y006515D03*
X016397Y006479D03*
X016397Y006455D03*
X016397Y006419D03*
X016709Y006419D03*
X016709Y006455D03*
X016709Y006479D03*
X016709Y006515D03*
X016709Y006539D03*
X016709Y006575D03*
X016709Y006599D03*
X018077Y006599D03*
X018077Y006575D03*
X018077Y006479D03*
X018077Y006455D03*
X018377Y006455D03*
X018377Y006479D03*
X018377Y006515D03*
X018377Y006575D03*
X018377Y006599D03*
X018941Y006599D03*
X018941Y006455D03*
X019709Y006575D03*
X019709Y006599D03*
X020237Y006599D03*
X020237Y006575D03*
X020237Y006539D03*
X020237Y006515D03*
X020237Y006479D03*
X020237Y006455D03*
X020237Y006635D03*
X020549Y006635D03*
X020549Y006599D03*
X020549Y006575D03*
X020549Y006539D03*
X020549Y006515D03*
X020549Y006479D03*
X020549Y006455D03*
X020801Y006455D03*
X020801Y006479D03*
X020801Y006515D03*
X020801Y006539D03*
X020801Y006575D03*
X020801Y006599D03*
X021113Y006599D03*
X021113Y006575D03*
X021113Y006539D03*
X021113Y006515D03*
X021113Y006479D03*
X021113Y006455D03*
X021377Y006575D03*
X021401Y006539D03*
X021413Y006515D03*
X021437Y006479D03*
X021497Y006395D03*
X021521Y006359D03*
X021557Y006479D03*
X021581Y006515D03*
X021593Y006539D03*
X021617Y006575D03*
X021629Y006599D03*
X022181Y006599D03*
X022181Y006575D03*
X022181Y006539D03*
X022181Y006515D03*
X022181Y006479D03*
X022181Y006455D03*
X022181Y006419D03*
X022493Y006419D03*
X022493Y006455D03*
X022493Y006479D03*
X022493Y006515D03*
X022493Y006539D03*
X022493Y006575D03*
X022493Y006599D03*
X022709Y006599D03*
X022709Y006575D03*
X023237Y006575D03*
X023237Y006599D03*
X023237Y006635D03*
X023237Y006539D03*
X023237Y006515D03*
X023237Y006479D03*
X023237Y006455D03*
X023549Y006455D03*
X023549Y006479D03*
X023549Y006515D03*
X023549Y006539D03*
X023549Y006575D03*
X023549Y006599D03*
X023549Y006635D03*
X024257Y009239D03*
D25*
X018635Y006804D03*
X018635Y006791D03*
X018635Y006768D03*
X018635Y006744D03*
X018635Y006731D03*
X018635Y006708D03*
X018635Y006684D03*
X018635Y006671D03*
X018635Y006611D03*
X018635Y006588D03*
X018635Y006564D03*
X018635Y006551D03*
X018635Y006528D03*
X018635Y006504D03*
X018635Y006491D03*
X018635Y006468D03*
X018635Y006408D03*
X021515Y006371D03*
X013295Y006408D03*
X013295Y006431D03*
X013295Y006444D03*
X013295Y006468D03*
X013295Y006491D03*
X013295Y006504D03*
X013295Y006528D03*
X013295Y006551D03*
X013295Y006564D03*
X013295Y006588D03*
X013295Y006611D03*
X013295Y006624D03*
X013295Y006648D03*
X013295Y006671D03*
X013295Y006684D03*
X013295Y006708D03*
X013295Y006731D03*
X013295Y006744D03*
X013295Y006768D03*
X013295Y006791D03*
X013295Y006804D03*
X012695Y006648D03*
D26*
X012917Y006408D03*
X014453Y007151D03*
X014465Y007128D03*
X014489Y007091D03*
X014501Y007068D03*
X014513Y007044D03*
X013865Y007404D03*
X013877Y007428D03*
X013889Y007451D03*
X013901Y007464D03*
X013913Y007488D03*
X013925Y007511D03*
X013925Y007524D03*
X013937Y007548D03*
X013949Y007571D03*
X013961Y007584D03*
X013973Y007608D03*
X013985Y007631D03*
X014093Y007824D03*
X016025Y006408D03*
X017225Y007211D03*
X017225Y007224D03*
X017225Y007248D03*
X017225Y007271D03*
X017225Y007284D03*
X017225Y007308D03*
X017225Y007331D03*
X017225Y007344D03*
X017225Y007368D03*
X017225Y007391D03*
X017225Y007404D03*
X017225Y007428D03*
X017225Y007451D03*
X017225Y007464D03*
X017225Y007488D03*
X017225Y007511D03*
X017225Y007524D03*
X017225Y007548D03*
X017225Y007571D03*
X017225Y007584D03*
X017225Y007608D03*
X017225Y007631D03*
X017225Y007644D03*
X017225Y007668D03*
X017993Y007668D03*
X017993Y007644D03*
X017993Y007631D03*
X017993Y007608D03*
X017993Y007584D03*
X017993Y007571D03*
X017993Y007548D03*
X017993Y007524D03*
X017993Y007511D03*
X017993Y007488D03*
X017993Y007464D03*
X017993Y007451D03*
X017993Y007428D03*
X017993Y007404D03*
X017993Y007391D03*
X017993Y007368D03*
X017993Y007344D03*
X017993Y007331D03*
X017993Y007308D03*
X017993Y007284D03*
X017993Y007271D03*
X017993Y007248D03*
X017993Y007224D03*
X017993Y007211D03*
X017993Y007188D03*
X019205Y007788D03*
X022673Y008568D03*
X023765Y009011D03*
X024761Y008844D03*
X023537Y007644D03*
X024161Y007344D03*
X024629Y007428D03*
X023801Y006408D03*
D27*
X023489Y006408D03*
X020489Y006408D03*
X018461Y007031D03*
X019229Y007824D03*
D28*
X017669Y006648D03*
X020957Y006648D03*
X020957Y006408D03*
X024029Y008748D03*
X024821Y009011D03*
X014093Y007704D03*
X014093Y007691D03*
X013709Y006648D03*
D29*
X014681Y006648D03*
X018845Y006408D03*
X018929Y006444D03*
X018929Y006611D03*
X024125Y007488D03*
X024245Y009264D03*
D30*
X018743Y006648D03*
X018227Y006648D03*
X018227Y006408D03*
X014267Y006408D03*
X014267Y006648D03*
D31*
X014879Y006611D03*
X013811Y006408D03*
X012527Y006444D03*
X017771Y006408D03*
X018467Y007044D03*
X019223Y007811D03*
X021491Y006444D03*
X024611Y007464D03*
X024239Y009311D03*
D32*
X015605Y006648D03*
X015605Y006408D03*
D33*
X016043Y006419D03*
X015911Y007619D03*
X015911Y007655D03*
X015911Y007679D03*
X015911Y007715D03*
X015911Y007739D03*
X015911Y007775D03*
X015911Y007799D03*
X021419Y007619D03*
X021419Y007595D03*
X021419Y007559D03*
X021419Y007535D03*
X021419Y007499D03*
X021419Y007475D03*
X021431Y007415D03*
X021431Y007655D03*
X021431Y007679D03*
X023519Y007619D03*
X024179Y007295D03*
X023819Y006419D03*
X024779Y008879D03*
D34*
X023417Y007535D03*
X022337Y006635D03*
X023393Y006419D03*
X020957Y006419D03*
X020957Y006635D03*
X020393Y006419D03*
X019097Y007595D03*
X017669Y006419D03*
X016553Y006635D03*
X013709Y006419D03*
X013181Y007499D03*
D35*
X012665Y006599D03*
X019985Y006599D03*
X019985Y006575D03*
X019985Y006539D03*
X019985Y006515D03*
X019985Y006479D03*
X019985Y006455D03*
X019985Y006419D03*
X022985Y006419D03*
X022985Y006455D03*
X022985Y006479D03*
X022985Y006515D03*
X022985Y006539D03*
X022985Y006575D03*
X022985Y006599D03*
X023885Y006599D03*
X023885Y006575D03*
X023885Y006539D03*
X023885Y006515D03*
X023885Y006479D03*
X023885Y006455D03*
X023885Y006659D03*
X023885Y006695D03*
X023885Y006719D03*
D36*
X021497Y006419D03*
X012533Y006419D03*
D37*
X013691Y006539D03*
X014771Y006635D03*
X013199Y007475D03*
X017651Y006539D03*
X018767Y006635D03*
X018767Y006419D03*
X019847Y006635D03*
X018575Y007235D03*
X022847Y006635D03*
X023627Y009095D03*
X024227Y009479D03*
D38*
X024839Y009155D03*
X025619Y008915D03*
X024731Y007319D03*
X023363Y006839D03*
X018587Y007259D03*
X018227Y006635D03*
X018227Y006539D03*
X018227Y006419D03*
X014267Y006419D03*
X014267Y006539D03*
X014267Y006635D03*
X013187Y007439D03*
D39*
X015605Y006635D03*
X015605Y006419D03*
D40*
X012935Y006419D03*
D41*
X016043Y006431D03*
X015911Y007608D03*
X015911Y007631D03*
X015911Y007644D03*
X015911Y007668D03*
X015911Y007691D03*
X015911Y007704D03*
X015911Y007728D03*
X015911Y007751D03*
X015911Y007764D03*
X015911Y007788D03*
X015911Y007811D03*
X015911Y007824D03*
X018503Y007104D03*
X019187Y007751D03*
X021419Y007608D03*
X021419Y007584D03*
X021419Y007571D03*
X021419Y007548D03*
X021419Y007524D03*
X021419Y007511D03*
X021419Y007488D03*
X021419Y007464D03*
X021419Y007451D03*
X021431Y007404D03*
X021431Y007391D03*
X021443Y007368D03*
X021431Y007668D03*
X021443Y007691D03*
X021443Y007704D03*
X023819Y006431D03*
X024683Y006504D03*
X024179Y007284D03*
D42*
X024737Y007308D03*
X024077Y007584D03*
X023393Y006431D03*
X022337Y006624D03*
X021593Y007224D03*
X020957Y006624D03*
X020957Y006431D03*
X020393Y006431D03*
X018593Y007271D03*
X017669Y006624D03*
X017669Y006528D03*
X016553Y006624D03*
X013709Y006624D03*
X013709Y006528D03*
X013181Y007428D03*
X023189Y009468D03*
D43*
X024137Y007428D03*
X021497Y006431D03*
X018653Y006444D03*
X012533Y006431D03*
D44*
X013187Y007488D03*
X014267Y006624D03*
X014267Y006551D03*
X014267Y006431D03*
X018227Y006431D03*
X018227Y006551D03*
X018227Y006624D03*
X018779Y006624D03*
X018779Y006431D03*
X019103Y007608D03*
X024323Y009888D03*
X024839Y009144D03*
X024839Y009131D03*
D45*
X024851Y009191D03*
X024851Y009204D03*
X024851Y009228D03*
X019091Y007584D03*
X018599Y007284D03*
X017675Y006431D03*
X013715Y006431D03*
X013175Y007511D03*
D46*
X015605Y006624D03*
X015605Y006431D03*
X024845Y009168D03*
D47*
X012935Y006431D03*
D48*
X013295Y007031D03*
X013295Y007044D03*
X013295Y007068D03*
X013295Y007091D03*
X013295Y007104D03*
X013295Y007128D03*
X013295Y007151D03*
X013295Y007164D03*
X013295Y007188D03*
X013295Y007211D03*
X013295Y007224D03*
X013295Y007248D03*
X013295Y007271D03*
X013295Y007284D03*
X013295Y007308D03*
X013295Y007331D03*
X013295Y007344D03*
X013295Y007368D03*
X013295Y007524D03*
X013295Y007548D03*
X013295Y007571D03*
X013295Y007584D03*
X013295Y007608D03*
X013295Y007631D03*
X013295Y007644D03*
X013295Y007668D03*
X013295Y007691D03*
X013295Y007704D03*
X013295Y007728D03*
X013295Y007751D03*
X013295Y007764D03*
X013295Y007788D03*
X013295Y007811D03*
X013295Y007824D03*
X013991Y007644D03*
X014315Y007428D03*
X014339Y007368D03*
X014435Y007188D03*
X014519Y007031D03*
X012659Y008171D03*
X017231Y007188D03*
X018479Y007068D03*
X019715Y007068D03*
X019715Y007091D03*
X019715Y007104D03*
X019715Y007128D03*
X019715Y007151D03*
X019715Y007164D03*
X019715Y007188D03*
X019715Y007211D03*
X019715Y007224D03*
X019715Y007248D03*
X019715Y007271D03*
X019715Y007284D03*
X019715Y007308D03*
X019715Y007331D03*
X019715Y007344D03*
X019715Y007368D03*
X019715Y007391D03*
X019715Y007404D03*
X019715Y007428D03*
X019715Y007451D03*
X019715Y007464D03*
X019715Y007488D03*
X019715Y007511D03*
X019715Y007524D03*
X019715Y007548D03*
X019715Y007571D03*
X019715Y007584D03*
X019715Y007608D03*
X019715Y007631D03*
X019715Y007644D03*
X019715Y007668D03*
X019715Y007691D03*
X019715Y007704D03*
X019715Y007728D03*
X019715Y007751D03*
X019715Y007764D03*
X019715Y007788D03*
X019715Y007811D03*
X019715Y007824D03*
X020219Y007824D03*
X020219Y007811D03*
X020219Y007788D03*
X020219Y007764D03*
X020219Y007751D03*
X020219Y007728D03*
X020219Y007704D03*
X020219Y007691D03*
X020219Y007668D03*
X020219Y007644D03*
X020219Y007631D03*
X020219Y007608D03*
X020219Y007584D03*
X020219Y007571D03*
X020219Y007548D03*
X020219Y007524D03*
X020219Y007511D03*
X020219Y007488D03*
X020219Y007464D03*
X020219Y007451D03*
X020219Y007428D03*
X020219Y007404D03*
X020219Y007391D03*
X020219Y007368D03*
X020219Y007344D03*
X020219Y007331D03*
X020219Y007308D03*
X020219Y007284D03*
X020219Y007271D03*
X020219Y007248D03*
X020219Y007224D03*
X020219Y007211D03*
X020219Y007188D03*
X019715Y007044D03*
X019715Y007031D03*
X020279Y006444D03*
X022451Y006611D03*
X023279Y006444D03*
X023351Y006828D03*
X024155Y007368D03*
X025151Y008471D03*
X024755Y008831D03*
X025571Y009024D03*
D49*
X024233Y009324D03*
X024041Y008771D03*
X023561Y007668D03*
X024149Y007404D03*
X024149Y007391D03*
X024617Y007451D03*
X019217Y007451D03*
X019217Y007464D03*
X019217Y007488D03*
X019217Y007511D03*
X019217Y007524D03*
X019217Y007548D03*
X019217Y007571D03*
X019217Y007428D03*
X019217Y007404D03*
X019217Y007391D03*
X019217Y007368D03*
X019217Y007344D03*
X019217Y007331D03*
X019217Y007308D03*
X019217Y007284D03*
X019217Y007271D03*
X019217Y007248D03*
X019217Y007224D03*
X019217Y007211D03*
X019217Y007188D03*
X019217Y007164D03*
X019217Y007151D03*
X019217Y007128D03*
X019217Y007104D03*
X019217Y007091D03*
X019217Y007068D03*
X019217Y007044D03*
X019217Y007031D03*
X018473Y007308D03*
X018473Y007331D03*
X018473Y007344D03*
X018473Y007368D03*
X018473Y007391D03*
X018473Y007404D03*
X018473Y007428D03*
X018473Y007451D03*
X018473Y007464D03*
X018473Y007488D03*
X018473Y007511D03*
X018473Y007524D03*
X018473Y007548D03*
X018473Y007571D03*
X018473Y007584D03*
X018473Y007608D03*
X018473Y007631D03*
X018473Y007644D03*
X018473Y007668D03*
X018473Y007691D03*
X018473Y007704D03*
X018473Y007728D03*
X018473Y007751D03*
X018473Y007764D03*
X018473Y007788D03*
X018473Y007811D03*
X018473Y007824D03*
X017549Y006444D03*
X014297Y007464D03*
X014273Y007511D03*
X014261Y007524D03*
X014249Y007548D03*
X014237Y007571D03*
X014237Y007584D03*
X014213Y007631D03*
X014201Y007644D03*
X014189Y007668D03*
X013589Y006444D03*
D50*
X012575Y006455D03*
X012491Y006455D03*
X012455Y008075D03*
X021455Y006455D03*
X021539Y006455D03*
X024575Y007535D03*
D51*
X025511Y007548D03*
X021551Y006468D03*
X021431Y006491D03*
X012599Y006491D03*
X012479Y006468D03*
X012515Y008124D03*
D52*
X012467Y006491D03*
X012587Y006468D03*
X021443Y006468D03*
X021563Y006491D03*
X024287Y009911D03*
D53*
X024221Y009419D03*
X022685Y008579D03*
X021485Y007775D03*
X021485Y007295D03*
X018989Y007559D03*
X018521Y007139D03*
X012785Y007739D03*
X012701Y007799D03*
X024689Y006515D03*
D54*
X024851Y009179D03*
X024851Y009215D03*
X024851Y009239D03*
X017675Y006515D03*
X013715Y006515D03*
X013175Y007415D03*
D55*
X024395Y008244D03*
X024695Y006528D03*
D56*
X024233Y009491D03*
X018233Y006528D03*
X014273Y006528D03*
D57*
X022943Y009095D03*
X025631Y008855D03*
X024779Y007259D03*
X024683Y006539D03*
D58*
X024689Y006551D03*
X022925Y007848D03*
X025829Y008328D03*
X024305Y009851D03*
D59*
X025637Y008771D03*
X025781Y008471D03*
X025817Y008291D03*
X023129Y008124D03*
X022961Y007908D03*
X024689Y006564D03*
D60*
X024689Y006575D03*
X025637Y008735D03*
X017609Y007835D03*
D61*
X020561Y007044D03*
X024701Y006588D03*
D62*
X024707Y006599D03*
X024887Y007199D03*
X023303Y006935D03*
D63*
X024701Y006611D03*
X023597Y008268D03*
X014093Y007248D03*
D64*
X019955Y006611D03*
X022955Y006611D03*
D65*
X020903Y007188D03*
X020903Y007211D03*
X020903Y007224D03*
X020903Y007248D03*
X020903Y007271D03*
X020903Y007284D03*
X020903Y007308D03*
X020903Y007331D03*
X020903Y007344D03*
X020903Y007368D03*
X020903Y007391D03*
X020903Y007404D03*
X020903Y007428D03*
X020903Y007451D03*
X020903Y007464D03*
X020903Y007488D03*
X020903Y007511D03*
X020903Y007524D03*
X020903Y007548D03*
X020903Y007571D03*
X020903Y007584D03*
X020903Y007608D03*
X020903Y007631D03*
X020903Y007644D03*
X020903Y007668D03*
X020903Y007691D03*
X020903Y007704D03*
X020903Y007728D03*
X020903Y007751D03*
X020903Y007764D03*
X020903Y007788D03*
X020903Y007811D03*
X020903Y007824D03*
X024227Y009348D03*
X016667Y006611D03*
X015467Y007188D03*
X015467Y007211D03*
X015467Y007224D03*
X015467Y007248D03*
X015467Y007271D03*
X015467Y007284D03*
X015467Y007308D03*
X015467Y007331D03*
X015467Y007344D03*
X015467Y007368D03*
X015467Y007548D03*
X015467Y007571D03*
X015467Y007584D03*
X015467Y007608D03*
X015467Y007631D03*
X015467Y007644D03*
X015467Y007668D03*
X015467Y007691D03*
X014483Y007104D03*
X014447Y007164D03*
X014327Y007391D03*
X014327Y007404D03*
X014303Y007451D03*
X014003Y007668D03*
D66*
X014087Y007211D03*
X020555Y007128D03*
X021971Y007968D03*
X023003Y008688D03*
X023015Y008784D03*
X023243Y007008D03*
X024707Y006624D03*
D67*
X023861Y006624D03*
X023861Y006648D03*
X024221Y007188D03*
X023477Y007571D03*
X021533Y007824D03*
X021533Y007248D03*
X018545Y007188D03*
X016085Y006648D03*
X016085Y006624D03*
X012977Y006624D03*
X012977Y006648D03*
X024221Y009444D03*
X025601Y008964D03*
D68*
X024839Y009071D03*
X024839Y009084D03*
X023447Y007548D03*
X022847Y006624D03*
X019847Y006624D03*
X019115Y007631D03*
X014771Y006624D03*
X013199Y007451D03*
X013199Y007464D03*
D69*
X021959Y007955D03*
X023027Y008759D03*
X024707Y006635D03*
D70*
X023861Y006635D03*
X024689Y007355D03*
X024809Y008975D03*
X019145Y007679D03*
X016085Y006635D03*
X014093Y007715D03*
X012977Y006635D03*
D71*
X013715Y006635D03*
X017675Y006635D03*
X024035Y008735D03*
D72*
X024029Y008508D03*
X023213Y009264D03*
X021941Y007931D03*
X023189Y007104D03*
X023201Y007091D03*
X024713Y006648D03*
X017609Y007091D03*
X017609Y007104D03*
X017609Y007764D03*
D73*
X019757Y006648D03*
X022757Y006648D03*
D74*
X022235Y006648D03*
X024131Y007451D03*
X024131Y007464D03*
X024119Y007548D03*
X024731Y008808D03*
X023807Y008988D03*
X024239Y009288D03*
X016451Y006648D03*
D75*
X017609Y007115D03*
X017609Y007139D03*
X017609Y007715D03*
X017609Y007739D03*
X021929Y007139D03*
X024029Y008495D03*
X024713Y006659D03*
D76*
X024719Y006671D03*
X023147Y007211D03*
X024071Y007788D03*
X024035Y008448D03*
X024035Y008471D03*
X025451Y007788D03*
X025619Y008111D03*
X025607Y008531D03*
X024503Y009528D03*
X024479Y009551D03*
X024467Y009564D03*
X024455Y009588D03*
X024443Y009611D03*
X024395Y009671D03*
X024383Y009684D03*
X024359Y009708D03*
X021911Y007884D03*
X016295Y007884D03*
X016295Y007871D03*
X016295Y007908D03*
X016295Y007571D03*
X016295Y007548D03*
X016295Y007524D03*
D77*
X023153Y007224D03*
X023993Y007691D03*
X024017Y007704D03*
X024713Y006684D03*
X024437Y009624D03*
X024413Y009648D03*
D78*
X025451Y007799D03*
X024719Y006695D03*
X023123Y007319D03*
X021899Y007199D03*
X021899Y007859D03*
D79*
X023111Y007428D03*
X024071Y007824D03*
X025451Y007811D03*
X025595Y008088D03*
X023219Y009191D03*
X024719Y006708D03*
D80*
X024719Y006719D03*
D81*
X024725Y006731D03*
X025445Y007848D03*
D82*
X024083Y007908D03*
X023375Y008148D03*
X024731Y006744D03*
D83*
X024731Y006755D03*
D84*
X024731Y006768D03*
X025451Y007871D03*
X024071Y007931D03*
D85*
X025451Y007895D03*
X024731Y006779D03*
D86*
X024737Y006791D03*
X025445Y007908D03*
D87*
X025499Y008028D03*
X024731Y006804D03*
D88*
X024737Y006815D03*
D89*
X023297Y006815D03*
D90*
X024737Y006828D03*
D91*
X024743Y006839D03*
X025439Y007955D03*
D92*
X025439Y007991D03*
X025451Y008004D03*
X024743Y006864D03*
X024743Y006851D03*
D93*
X023639Y006851D03*
X024539Y007608D03*
X024527Y007631D03*
X024683Y008724D03*
X024263Y009191D03*
X023891Y008928D03*
X023087Y008628D03*
X012659Y008148D03*
X012659Y008124D03*
X012659Y008111D03*
X012659Y008088D03*
X012659Y008064D03*
X012659Y008051D03*
X012659Y008028D03*
X012539Y008028D03*
X012539Y008051D03*
X012539Y008064D03*
X012539Y008088D03*
X012539Y008111D03*
X012491Y008111D03*
X012479Y008088D03*
X012431Y008088D03*
X012419Y008111D03*
X012371Y008111D03*
X012371Y008088D03*
X012371Y008064D03*
X012371Y008051D03*
X012371Y008028D03*
D94*
X023357Y006851D03*
X024413Y008028D03*
X024377Y008268D03*
X024017Y008711D03*
D95*
X023195Y009408D03*
X025811Y008448D03*
X025475Y007631D03*
X023375Y006864D03*
X022919Y007824D03*
D96*
X024749Y006875D03*
D97*
X023375Y006875D03*
X025811Y008279D03*
X023195Y009395D03*
X024311Y009839D03*
D98*
X024743Y006888D03*
D99*
X024845Y007224D03*
X024077Y007644D03*
X023369Y006888D03*
X023009Y007991D03*
X023021Y008004D03*
X023033Y008028D03*
X022889Y008651D03*
D100*
X024749Y006899D03*
D101*
X023339Y006899D03*
X025787Y008255D03*
D102*
X024749Y006911D03*
D103*
X025475Y007668D03*
X023327Y006911D03*
X022031Y007044D03*
X024299Y009828D03*
D104*
X024749Y006924D03*
D105*
X023309Y006924D03*
X024017Y008604D03*
X025637Y008688D03*
D106*
X024749Y006935D03*
D107*
X024755Y006948D03*
D108*
X023291Y006948D03*
X025715Y008184D03*
X025631Y008651D03*
X022991Y008831D03*
D109*
X024755Y006959D03*
D110*
X023279Y006959D03*
D111*
X024755Y006971D03*
D112*
X025463Y007704D03*
X025703Y008171D03*
X024023Y008568D03*
X023003Y008808D03*
X023219Y009311D03*
X023267Y006971D03*
X021983Y007068D03*
D113*
X024761Y006984D03*
D114*
X023261Y006984D03*
X020561Y007104D03*
X017609Y007811D03*
X025625Y008628D03*
D115*
X024767Y006995D03*
D116*
X025463Y007715D03*
X025691Y008159D03*
X024023Y008555D03*
X023639Y008279D03*
X023219Y009299D03*
X021971Y007079D03*
X023231Y007019D03*
X023255Y006995D03*
D117*
X024767Y007008D03*
D118*
X024773Y007019D03*
D119*
X024773Y007031D03*
D120*
X023225Y007031D03*
X020561Y007151D03*
X020561Y007164D03*
X023021Y008771D03*
X025625Y008604D03*
D121*
X025823Y008304D03*
X024023Y008664D03*
X022943Y008951D03*
X022943Y008964D03*
X022943Y007884D03*
X024083Y007631D03*
X022079Y007031D03*
D122*
X020561Y007031D03*
X025841Y008351D03*
X025841Y008364D03*
D123*
X025637Y008748D03*
X022961Y008904D03*
X017609Y007031D03*
D124*
X016673Y007031D03*
X016673Y007044D03*
X016673Y007068D03*
X016673Y007091D03*
X016673Y007104D03*
X016673Y007128D03*
X016673Y007151D03*
X016673Y007164D03*
X016673Y007188D03*
X016673Y007211D03*
X016673Y007224D03*
X016673Y007248D03*
X016673Y007271D03*
X016673Y007284D03*
X016673Y007308D03*
X016673Y007331D03*
X016673Y007344D03*
X016673Y007368D03*
X016673Y007391D03*
X016673Y007404D03*
X016673Y007584D03*
X016673Y007608D03*
X016673Y007631D03*
X016673Y007644D03*
X016673Y007668D03*
X016673Y007691D03*
X016673Y007704D03*
X016673Y007728D03*
X016673Y007751D03*
X016673Y007764D03*
X016673Y007788D03*
X016673Y007811D03*
X016673Y007824D03*
X016673Y007848D03*
X014093Y007811D03*
X013757Y007188D03*
X013721Y007128D03*
X013709Y007104D03*
X019193Y007764D03*
X022289Y007764D03*
X022289Y007751D03*
X022289Y007728D03*
X022289Y007704D03*
X022289Y007691D03*
X022289Y007668D03*
X022289Y007644D03*
X022289Y007631D03*
X022289Y007608D03*
X022289Y007584D03*
X022289Y007571D03*
X022289Y007548D03*
X022289Y007524D03*
X022289Y007511D03*
X022289Y007488D03*
X022289Y007464D03*
X022289Y007451D03*
X022289Y007428D03*
X022289Y007404D03*
X022289Y007391D03*
X022289Y007368D03*
X022289Y007344D03*
X022289Y007331D03*
X022289Y007308D03*
X022289Y007284D03*
X022289Y007271D03*
X022289Y007248D03*
X022289Y007224D03*
X022289Y007788D03*
X022289Y007811D03*
X022289Y007824D03*
X024173Y007308D03*
X024641Y007404D03*
X024773Y008868D03*
X024221Y009371D03*
X024221Y009384D03*
D125*
X023213Y009324D03*
X024017Y008591D03*
X025637Y008664D03*
X025469Y007691D03*
X022001Y007991D03*
X020561Y007068D03*
X017609Y007044D03*
X017609Y007824D03*
X015161Y007824D03*
X015161Y007811D03*
X015161Y007788D03*
X015161Y007764D03*
X015161Y007751D03*
X015161Y007728D03*
X015161Y007704D03*
X015161Y007164D03*
X015161Y007151D03*
X015161Y007128D03*
X015161Y007104D03*
X015161Y007091D03*
X015161Y007068D03*
X015161Y007044D03*
X015161Y007031D03*
X014093Y007271D03*
D126*
X013847Y007368D03*
X013703Y007091D03*
X013667Y007031D03*
X023747Y009024D03*
X024167Y007331D03*
D127*
X024209Y007211D03*
X024677Y007368D03*
X025493Y007571D03*
X023489Y007584D03*
X021521Y007811D03*
X019157Y007704D03*
X018533Y007164D03*
X024221Y009431D03*
X024809Y008964D03*
X012917Y007271D03*
X012857Y007224D03*
X012809Y007188D03*
X012737Y007128D03*
X012701Y007104D03*
X012689Y007091D03*
X012629Y007044D03*
X012617Y007031D03*
D128*
X024767Y007044D03*
D129*
X025463Y007728D03*
X024023Y008544D03*
X023219Y009288D03*
X021959Y007091D03*
X023219Y007044D03*
X016343Y007428D03*
X016343Y008004D03*
D130*
X018491Y007091D03*
X013859Y007391D03*
X013739Y007164D03*
X013739Y007151D03*
X013691Y007068D03*
X013679Y007044D03*
X025571Y009011D03*
D131*
X024767Y007055D03*
D132*
X023213Y007055D03*
X017609Y007079D03*
D133*
X015161Y007079D03*
X015161Y007055D03*
X015161Y007115D03*
X015161Y007139D03*
X015161Y007175D03*
X015161Y007715D03*
X015161Y007739D03*
X015161Y007775D03*
X015161Y007799D03*
X015161Y007835D03*
X022001Y007055D03*
X025733Y008195D03*
X025637Y008675D03*
D134*
X025469Y007679D03*
X023213Y009335D03*
X020561Y007055D03*
X014093Y007295D03*
D135*
X014315Y007415D03*
X014339Y007379D03*
X014351Y007355D03*
X014291Y007475D03*
X014279Y007499D03*
X013979Y007619D03*
X013295Y007619D03*
X013295Y007595D03*
X013295Y007559D03*
X013295Y007535D03*
X013295Y007655D03*
X013295Y007679D03*
X013295Y007715D03*
X013295Y007739D03*
X013295Y007775D03*
X013295Y007799D03*
X013295Y007835D03*
X012659Y008159D03*
X013295Y007379D03*
X013295Y007355D03*
X013295Y007319D03*
X013295Y007295D03*
X013295Y007259D03*
X013295Y007235D03*
X013295Y007199D03*
X013295Y007175D03*
X013295Y007139D03*
X013295Y007115D03*
X013295Y007079D03*
X013295Y007055D03*
X014459Y007139D03*
X014495Y007079D03*
X017231Y007679D03*
X019211Y007799D03*
X019715Y007799D03*
X019715Y007775D03*
X019715Y007739D03*
X019715Y007715D03*
X019715Y007679D03*
X019715Y007655D03*
X019715Y007619D03*
X019715Y007595D03*
X019715Y007559D03*
X019715Y007535D03*
X019715Y007499D03*
X019715Y007475D03*
X019715Y007439D03*
X019715Y007415D03*
X019715Y007379D03*
X019715Y007355D03*
X019715Y007319D03*
X019715Y007295D03*
X019715Y007259D03*
X019715Y007235D03*
X019715Y007199D03*
X019715Y007175D03*
X019715Y007139D03*
X019715Y007115D03*
X019715Y007079D03*
X019715Y007055D03*
X020219Y007199D03*
X020219Y007235D03*
X020219Y007259D03*
X020219Y007295D03*
X020219Y007319D03*
X020219Y007355D03*
X020219Y007379D03*
X020219Y007415D03*
X020219Y007439D03*
X020219Y007475D03*
X020219Y007499D03*
X020219Y007535D03*
X020219Y007559D03*
X020219Y007595D03*
X020219Y007619D03*
X020219Y007655D03*
X020219Y007679D03*
X020219Y007715D03*
X020219Y007739D03*
X020219Y007775D03*
X020219Y007799D03*
X020219Y007835D03*
X019715Y007835D03*
X024155Y007379D03*
D136*
X019217Y007379D03*
X019217Y007355D03*
X019217Y007319D03*
X019217Y007295D03*
X019217Y007259D03*
X019217Y007235D03*
X019217Y007199D03*
X019217Y007175D03*
X019217Y007139D03*
X019217Y007115D03*
X019217Y007079D03*
X019217Y007055D03*
X019217Y007415D03*
X019217Y007439D03*
X019217Y007475D03*
X019217Y007499D03*
X019217Y007535D03*
X019217Y007559D03*
X018473Y007559D03*
X018473Y007535D03*
X018473Y007499D03*
X018473Y007475D03*
X018473Y007439D03*
X018473Y007415D03*
X018473Y007379D03*
X018473Y007355D03*
X018473Y007319D03*
X018473Y007595D03*
X018473Y007619D03*
X018473Y007655D03*
X018473Y007679D03*
X018473Y007715D03*
X018473Y007739D03*
X018473Y007775D03*
X018473Y007799D03*
X018473Y007835D03*
X018473Y007055D03*
X014309Y007439D03*
X014261Y007535D03*
X014249Y007559D03*
X014213Y007619D03*
X014201Y007655D03*
X014189Y007679D03*
D137*
X017609Y007055D03*
X020561Y007115D03*
X023009Y008795D03*
D138*
X023729Y009035D03*
X025577Y008999D03*
X022289Y007835D03*
X022289Y007799D03*
X022289Y007775D03*
X022289Y007739D03*
X022289Y007715D03*
X022289Y007679D03*
X022289Y007655D03*
X022289Y007619D03*
X022289Y007595D03*
X022289Y007559D03*
X022289Y007535D03*
X022289Y007499D03*
X022289Y007475D03*
X022289Y007439D03*
X022289Y007415D03*
X022289Y007379D03*
X022289Y007355D03*
X022289Y007319D03*
X022289Y007295D03*
X022289Y007259D03*
X022289Y007235D03*
X016673Y007235D03*
X016673Y007259D03*
X016673Y007295D03*
X016673Y007319D03*
X016673Y007355D03*
X016673Y007379D03*
X016673Y007199D03*
X016673Y007175D03*
X016673Y007139D03*
X016673Y007115D03*
X016673Y007079D03*
X016673Y007055D03*
X016673Y007595D03*
X016673Y007619D03*
X016673Y007655D03*
X016673Y007679D03*
X016673Y007715D03*
X016673Y007739D03*
X016673Y007775D03*
X016673Y007799D03*
X016673Y007835D03*
X014093Y007799D03*
X013697Y007079D03*
D139*
X013967Y007595D03*
X014003Y007679D03*
X014507Y007055D03*
X015467Y007199D03*
X015467Y007235D03*
X015467Y007259D03*
X015467Y007295D03*
X015467Y007319D03*
X015467Y007355D03*
X015467Y007379D03*
X015467Y007535D03*
X015467Y007559D03*
X015467Y007595D03*
X015467Y007619D03*
X015467Y007655D03*
X015467Y007679D03*
X020903Y007679D03*
X020903Y007655D03*
X020903Y007619D03*
X020903Y007595D03*
X020903Y007559D03*
X020903Y007535D03*
X020903Y007499D03*
X020903Y007475D03*
X020903Y007439D03*
X020903Y007415D03*
X020903Y007379D03*
X020903Y007355D03*
X020903Y007319D03*
X020903Y007295D03*
X020903Y007259D03*
X020903Y007235D03*
X020903Y007199D03*
X020903Y007715D03*
X020903Y007739D03*
X020903Y007775D03*
X020903Y007799D03*
X020903Y007835D03*
X023543Y007655D03*
X024623Y007439D03*
X024227Y009335D03*
X024227Y009359D03*
D140*
X024635Y007415D03*
X019199Y007775D03*
X013871Y007415D03*
X013751Y007175D03*
X013715Y007115D03*
X013679Y007055D03*
D141*
X012977Y007319D03*
X012869Y007235D03*
X012797Y007175D03*
X012749Y007139D03*
X012677Y007079D03*
X012641Y007055D03*
X014093Y007739D03*
X025589Y008975D03*
D142*
X024767Y007068D03*
D143*
X023207Y007068D03*
X021947Y007104D03*
X021947Y007944D03*
X025667Y008148D03*
X024287Y009791D03*
D144*
X017615Y007068D03*
D145*
X018527Y007151D03*
X018707Y007308D03*
X018731Y007331D03*
X018743Y007344D03*
X018767Y007368D03*
X018803Y007391D03*
X018839Y007428D03*
X018863Y007451D03*
X018911Y007488D03*
X018947Y007524D03*
X018971Y007548D03*
X021491Y007284D03*
X021503Y007271D03*
X022691Y008591D03*
X024803Y008951D03*
X024203Y007224D03*
X013007Y007344D03*
X012959Y007308D03*
X012887Y007248D03*
X012839Y007211D03*
X012779Y007164D03*
X012767Y007151D03*
X012659Y007068D03*
D146*
X024767Y007079D03*
D147*
X023201Y007079D03*
X021941Y007115D03*
X017609Y007775D03*
D148*
X020561Y007079D03*
X021989Y007979D03*
X022997Y008819D03*
D149*
X024113Y007559D03*
X024161Y007355D03*
X024329Y009899D03*
X018485Y007079D03*
X017993Y007199D03*
X017993Y007235D03*
X017993Y007259D03*
X017993Y007295D03*
X017993Y007319D03*
X017993Y007355D03*
X017993Y007379D03*
X017993Y007415D03*
X017993Y007439D03*
X017993Y007475D03*
X017993Y007499D03*
X017993Y007535D03*
X017993Y007559D03*
X017993Y007595D03*
X017993Y007619D03*
X017993Y007655D03*
X017993Y007679D03*
X017225Y007655D03*
X017225Y007619D03*
X017225Y007595D03*
X017225Y007559D03*
X017225Y007535D03*
X017225Y007499D03*
X017225Y007475D03*
X017225Y007439D03*
X017225Y007415D03*
X017225Y007379D03*
X017225Y007355D03*
X017225Y007319D03*
X017225Y007295D03*
X017225Y007259D03*
X017225Y007235D03*
X017225Y007199D03*
X014477Y007115D03*
X014441Y007175D03*
X013901Y007475D03*
X013913Y007499D03*
X013937Y007535D03*
X013949Y007559D03*
X013997Y007655D03*
X014093Y007835D03*
X013853Y007379D03*
X013841Y007355D03*
D150*
X024773Y007104D03*
X024773Y007091D03*
D151*
X020555Y007091D03*
D152*
X024779Y007115D03*
X024779Y007139D03*
D153*
X023183Y007115D03*
D154*
X021449Y007355D03*
X021449Y007715D03*
X021461Y007739D03*
X019181Y007739D03*
X018509Y007115D03*
X024221Y009395D03*
D155*
X024803Y008939D03*
X024671Y007379D03*
X024203Y007235D03*
X021503Y007799D03*
X019163Y007715D03*
X018959Y007535D03*
X018923Y007499D03*
X018851Y007439D03*
X018827Y007415D03*
X018779Y007379D03*
X018719Y007319D03*
X013019Y007355D03*
X012947Y007295D03*
X012899Y007259D03*
X012827Y007199D03*
X012719Y007115D03*
D156*
X024779Y007128D03*
X024779Y007151D03*
D157*
X023171Y007128D03*
X021935Y007128D03*
X023051Y008724D03*
X023219Y009251D03*
X025619Y008568D03*
X017615Y007751D03*
X016319Y007451D03*
D158*
X015935Y007584D03*
X015935Y007848D03*
X018515Y007128D03*
X019175Y007728D03*
X021467Y007751D03*
X021479Y007764D03*
X021467Y007308D03*
X023507Y007608D03*
X024659Y007391D03*
X024791Y008904D03*
X013067Y007524D03*
X013007Y007571D03*
X012995Y007584D03*
X012959Y007608D03*
X012923Y007631D03*
X012911Y007644D03*
X012875Y007668D03*
X012767Y007751D03*
D159*
X016313Y007968D03*
X017609Y007728D03*
X017609Y007704D03*
X017609Y007164D03*
X017609Y007151D03*
X017609Y007128D03*
X016313Y007464D03*
X024053Y007751D03*
X025637Y008124D03*
D160*
X023165Y007139D03*
D161*
X020561Y007139D03*
X020561Y007175D03*
X017609Y007799D03*
X025625Y008615D03*
D162*
X024767Y008855D03*
X024167Y007319D03*
X013883Y007439D03*
X013727Y007139D03*
D163*
X021923Y007151D03*
X021923Y007908D03*
X023159Y007164D03*
X023159Y007151D03*
X024059Y007764D03*
X025463Y007764D03*
X023063Y008711D03*
X024311Y009768D03*
D164*
X024047Y008388D03*
X024983Y007164D03*
D165*
X024707Y007331D03*
X024239Y007164D03*
X024827Y009024D03*
X024227Y009468D03*
X023639Y009084D03*
X025607Y008951D03*
X019127Y007644D03*
X018563Y007211D03*
D166*
X021917Y007164D03*
X023153Y007188D03*
X025613Y008544D03*
D167*
X025655Y008135D03*
X024935Y007175D03*
X021935Y007919D03*
X016319Y007979D03*
D168*
X018557Y007199D03*
X019133Y007655D03*
X024233Y007175D03*
X024821Y008999D03*
D169*
X025607Y008555D03*
X024047Y007739D03*
X023159Y007175D03*
X024323Y009755D03*
X024299Y009779D03*
X016307Y007955D03*
X016307Y007475D03*
D170*
X016295Y007535D03*
X016295Y007559D03*
X016295Y007859D03*
X016295Y007895D03*
X021911Y007175D03*
X023147Y007199D03*
X024023Y007715D03*
X024035Y008459D03*
X025607Y008519D03*
X024503Y009515D03*
X024491Y009539D03*
X024455Y009575D03*
X024371Y009695D03*
D171*
X024035Y008759D03*
X024215Y007199D03*
X021515Y007259D03*
X018539Y007175D03*
D172*
X017615Y007175D03*
D173*
X016331Y007991D03*
X024935Y007188D03*
D174*
X023141Y007248D03*
X023129Y007271D03*
X023129Y007284D03*
X021905Y007188D03*
X021905Y007871D03*
X023465Y008231D03*
X023225Y009228D03*
X025601Y008508D03*
D175*
X014093Y007199D03*
D176*
X022895Y008664D03*
X023051Y008051D03*
X024851Y007211D03*
X025799Y008268D03*
X023195Y009384D03*
D177*
X024041Y008424D03*
X024041Y008411D03*
X023441Y008208D03*
X023117Y007404D03*
X023117Y007391D03*
X023117Y007368D03*
X023117Y007344D03*
X021893Y007211D03*
D178*
X018569Y007224D03*
D179*
X014093Y007224D03*
D180*
X022925Y007859D03*
X024821Y007235D03*
X025829Y008315D03*
D181*
X023453Y008219D03*
X023153Y007235D03*
D182*
X021557Y007235D03*
X024833Y009059D03*
X025613Y008939D03*
D183*
X025631Y008639D03*
X016367Y008015D03*
X016367Y007415D03*
X014087Y007235D03*
D184*
X022895Y007788D03*
X024815Y007248D03*
X025835Y008388D03*
D185*
X024797Y008928D03*
X021497Y007788D03*
X024197Y007248D03*
X014093Y007751D03*
X014093Y007764D03*
X013037Y007368D03*
X012833Y007704D03*
X012797Y007728D03*
X012677Y007824D03*
D186*
X018581Y007248D03*
X022745Y008604D03*
X023609Y009108D03*
X024845Y009108D03*
D187*
X021467Y007319D03*
X024191Y007259D03*
X013055Y007535D03*
X013019Y007559D03*
X012971Y007595D03*
X012947Y007619D03*
X012863Y007679D03*
X012815Y007715D03*
D188*
X023135Y007259D03*
X024035Y008435D03*
D189*
X024023Y008579D03*
X014087Y007259D03*
D190*
X022799Y008628D03*
X023195Y009444D03*
X024755Y009491D03*
X025631Y008868D03*
X024779Y007271D03*
D191*
X024185Y007271D03*
X021461Y007331D03*
X021449Y007344D03*
X021449Y007728D03*
X024785Y008891D03*
X024221Y009408D03*
X023189Y009504D03*
D192*
X024791Y009444D03*
X024407Y008231D03*
X024431Y008111D03*
X024431Y008088D03*
X024767Y007284D03*
D193*
X014087Y007284D03*
D194*
X012995Y007331D03*
X012935Y007284D03*
X018815Y007404D03*
X018875Y007464D03*
X018935Y007511D03*
X023675Y009071D03*
D195*
X024743Y007295D03*
D196*
X024065Y007799D03*
X023129Y007295D03*
X023225Y009215D03*
X024401Y009659D03*
X024425Y009635D03*
X024449Y009599D03*
D197*
X024815Y009395D03*
X024815Y009359D03*
X024839Y009299D03*
X024839Y009275D03*
X022775Y008615D03*
X023711Y008099D03*
X018611Y007295D03*
D198*
X021899Y007848D03*
X023123Y007331D03*
X023123Y007308D03*
X023219Y009204D03*
D199*
X024077Y007668D03*
X014093Y007308D03*
D200*
X014093Y007319D03*
X024017Y008615D03*
D201*
X024017Y008628D03*
X025637Y008711D03*
X014093Y007331D03*
D202*
X019139Y007668D03*
X024695Y007344D03*
X024815Y008988D03*
D203*
X025643Y008724D03*
X025787Y008244D03*
X022967Y008891D03*
X014087Y007344D03*
D204*
X023117Y007355D03*
X023117Y007379D03*
X025601Y008099D03*
X025589Y008495D03*
D205*
X023495Y007595D03*
X018755Y007355D03*
X013055Y007379D03*
D206*
X014093Y007775D03*
X015917Y007835D03*
X015917Y007595D03*
X021437Y007379D03*
X025493Y007559D03*
D207*
X024383Y008004D03*
X024083Y007608D03*
X015287Y007524D03*
X015287Y007511D03*
X015287Y007488D03*
X015287Y007464D03*
X015287Y007451D03*
X015287Y007428D03*
X015287Y007404D03*
X015287Y007391D03*
D208*
X013157Y007391D03*
X024017Y008724D03*
X024413Y008208D03*
X024437Y008148D03*
X024437Y008124D03*
X024809Y009408D03*
X024797Y009431D03*
D209*
X023723Y008051D03*
X013163Y007404D03*
D210*
X022667Y008555D03*
X023783Y008999D03*
X024743Y008819D03*
X023567Y007679D03*
X024143Y007415D03*
D211*
X023111Y007415D03*
D212*
X024023Y008699D03*
X015287Y007499D03*
X015287Y007475D03*
X015287Y007439D03*
X015287Y007415D03*
D213*
X021425Y007428D03*
X021425Y007631D03*
X021425Y007644D03*
X023525Y007631D03*
D214*
X024131Y007439D03*
X024239Y009299D03*
X019235Y007835D03*
D215*
X023105Y007499D03*
X023105Y007475D03*
X023105Y007439D03*
X024077Y007835D03*
X024041Y008399D03*
X023225Y009179D03*
D216*
X021425Y007439D03*
D217*
X023531Y008255D03*
X023039Y008735D03*
X023219Y009275D03*
X016331Y007439D03*
D218*
X023105Y007451D03*
X023105Y007464D03*
X023105Y007488D03*
X023105Y007511D03*
X023105Y007524D03*
X025589Y008484D03*
D219*
X025565Y009035D03*
X024605Y007475D03*
D220*
X024125Y007475D03*
X024725Y008795D03*
X024245Y009275D03*
D221*
X023693Y009059D03*
X024797Y008915D03*
X018893Y007475D03*
X012893Y007655D03*
X012737Y007775D03*
X012653Y007835D03*
D222*
X016301Y007931D03*
X016301Y007944D03*
X016301Y007511D03*
X016301Y007488D03*
X024329Y009744D03*
X024341Y009731D03*
X024509Y009504D03*
D223*
X014285Y007488D03*
X014225Y007608D03*
D224*
X016301Y007499D03*
X016301Y007919D03*
X023069Y008699D03*
X023225Y009239D03*
X024065Y007775D03*
D225*
X024527Y007619D03*
X024539Y007595D03*
X025511Y007535D03*
X012659Y008039D03*
X012659Y008075D03*
X012659Y008099D03*
X012659Y008135D03*
X012539Y008099D03*
X012539Y008075D03*
X012539Y008039D03*
X012419Y008099D03*
X012371Y008099D03*
X012371Y008075D03*
X012371Y008039D03*
D226*
X022883Y007535D03*
X022907Y007799D03*
X022931Y008999D03*
X025823Y008435D03*
D227*
X024701Y008748D03*
X024257Y009228D03*
X022625Y008544D03*
X024569Y007548D03*
X012521Y008148D03*
X012389Y008124D03*
D228*
X022865Y007704D03*
X022865Y007691D03*
X022865Y007548D03*
X022925Y009048D03*
X023201Y009431D03*
X025637Y008831D03*
D229*
X025577Y008988D03*
X014093Y007788D03*
X013037Y007548D03*
D230*
X012527Y008159D03*
X012383Y008159D03*
X024563Y007559D03*
D231*
X023465Y007559D03*
D232*
X022859Y007559D03*
X022859Y007655D03*
X022931Y009059D03*
X022955Y009119D03*
D233*
X024389Y009911D03*
X025661Y007571D03*
X012461Y008028D03*
D234*
X024257Y009204D03*
X024557Y007571D03*
D235*
X024077Y007571D03*
X024833Y009048D03*
X025613Y008928D03*
D236*
X025631Y008844D03*
X022931Y009071D03*
X022859Y007668D03*
X022859Y007571D03*
D237*
X023705Y009048D03*
X019001Y007571D03*
X012845Y007691D03*
X012749Y007764D03*
X012725Y007788D03*
X012689Y007811D03*
D238*
X023705Y008111D03*
X023717Y008064D03*
X025481Y007584D03*
X025625Y008904D03*
X024845Y009251D03*
X024845Y009264D03*
D239*
X024545Y007584D03*
D240*
X022853Y007584D03*
X022853Y007608D03*
X022853Y007631D03*
X022853Y007644D03*
X022937Y009084D03*
X022949Y009108D03*
X024329Y009864D03*
D241*
X025625Y008879D03*
X024389Y008255D03*
X024425Y008075D03*
X025481Y007595D03*
D242*
X024419Y008039D03*
X024083Y007595D03*
X023747Y008015D03*
X024767Y009479D03*
D243*
X022853Y007619D03*
X022853Y007595D03*
D244*
X014225Y007595D03*
D245*
X025475Y007608D03*
D246*
X025469Y007619D03*
X022865Y007679D03*
D247*
X022877Y007739D03*
X024077Y007619D03*
X025637Y008819D03*
X023201Y009419D03*
D248*
X023189Y009479D03*
X024845Y009119D03*
X024845Y009095D03*
X019109Y007619D03*
D249*
X025475Y007644D03*
D250*
X025475Y007655D03*
D251*
X024077Y007655D03*
X022973Y008879D03*
D252*
X024299Y009815D03*
X025751Y008219D03*
X024071Y007679D03*
D253*
X023195Y009491D03*
X019151Y007691D03*
D254*
X017615Y007691D03*
X024035Y007728D03*
X024035Y008484D03*
D255*
X022835Y008639D03*
X022931Y009035D03*
X022871Y007715D03*
D256*
X022877Y007728D03*
X024017Y008688D03*
X025829Y008424D03*
X025829Y008411D03*
D257*
X014087Y007728D03*
D258*
X024023Y008519D03*
X025463Y007739D03*
D259*
X025463Y007751D03*
X023507Y008244D03*
D260*
X022883Y007764D03*
X022883Y007751D03*
X022931Y009011D03*
X025643Y008808D03*
D261*
X025457Y007775D03*
X024353Y009719D03*
X021917Y007895D03*
D262*
X022889Y007775D03*
X025841Y008375D03*
D263*
X024029Y008531D03*
X023033Y008748D03*
X024293Y009804D03*
X017609Y007788D03*
D264*
X024065Y007811D03*
D265*
X022913Y007811D03*
X022937Y008988D03*
D266*
X023411Y008184D03*
X024071Y007848D03*
X025451Y007824D03*
D267*
X025451Y007835D03*
X025571Y008075D03*
D268*
X025835Y008339D03*
X024023Y008675D03*
X022919Y007835D03*
D269*
X021563Y007835D03*
X024827Y009035D03*
D270*
X023369Y008135D03*
X025445Y007859D03*
D271*
X024077Y007859D03*
X024041Y008375D03*
D272*
X024053Y008328D03*
X024077Y007884D03*
X024077Y007871D03*
X025553Y008064D03*
D273*
X025637Y008784D03*
X022937Y007871D03*
D274*
X025445Y007884D03*
D275*
X024077Y007895D03*
X024053Y008339D03*
D276*
X022955Y007895D03*
D277*
X025445Y007919D03*
D278*
X024077Y007919D03*
D279*
X022967Y007919D03*
X022067Y008015D03*
D280*
X025445Y007931D03*
D281*
X024023Y008651D03*
X022967Y007931D03*
D282*
X025439Y007944D03*
D283*
X024077Y007944D03*
X024077Y007968D03*
X024077Y007991D03*
X024053Y008291D03*
D284*
X023111Y008111D03*
X022991Y007968D03*
X022979Y007944D03*
X022955Y008928D03*
D285*
X024077Y007979D03*
X024077Y007955D03*
D286*
X023093Y008099D03*
X023045Y008039D03*
X023033Y008015D03*
X022997Y007979D03*
X022985Y007955D03*
X025637Y008759D03*
D287*
X025439Y007968D03*
D288*
X025439Y007979D03*
D289*
X023759Y008004D03*
D290*
X022985Y008868D03*
X023201Y009348D03*
X022025Y008004D03*
D291*
X025475Y008015D03*
D292*
X024395Y008015D03*
D293*
X025079Y008459D03*
X012659Y008015D03*
D294*
X012533Y008015D03*
X012377Y008015D03*
X024269Y009179D03*
X024689Y008735D03*
D295*
X024425Y008064D03*
X024425Y008051D03*
X023729Y008028D03*
D296*
X025535Y008039D03*
D297*
X024437Y008135D03*
X024437Y008159D03*
X024413Y008195D03*
X024413Y008219D03*
X023729Y008039D03*
X024797Y009419D03*
X024329Y009875D03*
D298*
X025535Y009059D03*
X012455Y008039D03*
D299*
X025541Y008051D03*
D300*
X025055Y008448D03*
X023519Y008688D03*
X012455Y008064D03*
X012455Y008051D03*
D301*
X023063Y008064D03*
X023087Y008088D03*
D302*
X023717Y008075D03*
D303*
X023075Y008075D03*
X022955Y008915D03*
D304*
X023699Y008124D03*
X023711Y008088D03*
X024419Y008184D03*
X024839Y009288D03*
X024839Y009311D03*
X024839Y009324D03*
X024815Y009348D03*
X024815Y009371D03*
X024815Y009384D03*
D305*
X024779Y009455D03*
X024431Y008099D03*
D306*
X025205Y008459D03*
X012485Y008099D03*
D307*
X012521Y008135D03*
X012389Y008135D03*
X023873Y008939D03*
X024257Y009215D03*
D308*
X012527Y008171D03*
X012383Y008171D03*
X012383Y008148D03*
D309*
X023381Y008159D03*
D310*
X024425Y008171D03*
X025625Y008891D03*
D311*
X023393Y008171D03*
D312*
X023423Y008195D03*
D313*
X025739Y008208D03*
D314*
X025763Y008231D03*
D315*
X024347Y008279D03*
D316*
X024053Y008304D03*
D317*
X024059Y008315D03*
D318*
X024047Y008351D03*
X024047Y008364D03*
X023231Y009144D03*
D319*
X025835Y008399D03*
D320*
X025793Y008459D03*
X022949Y008939D03*
D321*
X025625Y008579D03*
D322*
X025625Y008591D03*
D323*
X024023Y008639D03*
D324*
X022973Y008675D03*
D325*
X025631Y008699D03*
D326*
X024707Y008759D03*
D327*
X025637Y008795D03*
D328*
X022985Y008844D03*
D329*
X022985Y008855D03*
D330*
X022937Y008975D03*
D331*
X022925Y009024D03*
D332*
X023597Y009119D03*
D333*
X023537Y009131D03*
X024773Y009468D03*
D334*
X022967Y009131D03*
D335*
X024269Y009155D03*
D336*
X023225Y009155D03*
D337*
X024275Y009168D03*
D338*
X023225Y009168D03*
D339*
X024827Y009335D03*
D340*
X023201Y009359D03*
D341*
X023195Y009371D03*
D342*
X024227Y009455D03*
D343*
X023195Y009455D03*
D344*
X031717Y005138D02*
X031717Y005041D01*
X031717Y005090D02*
X032008Y005090D01*
X032008Y005138D02*
X032008Y005041D01*
X031959Y004940D02*
X032008Y004892D01*
X032008Y004795D01*
X031959Y004747D01*
X031959Y004646D02*
X031766Y004646D01*
X031717Y004597D01*
X031717Y004501D01*
X031766Y004452D01*
X031959Y004452D01*
X032008Y004501D01*
X032008Y004597D01*
X031959Y004646D01*
X031814Y004747D02*
X031862Y004795D01*
X031862Y004892D01*
X031911Y004940D01*
X031959Y004940D01*
X031766Y004940D02*
X031717Y004892D01*
X031717Y004795D01*
X031766Y004747D01*
X031814Y004747D01*
X031717Y004351D02*
X032008Y004351D01*
X032008Y004158D02*
X031717Y004158D01*
X031814Y004254D01*
X031717Y004351D01*
X030943Y004273D02*
X030943Y004176D01*
X030894Y004128D01*
X030701Y004128D01*
X030652Y004176D01*
X030652Y004273D01*
X030701Y004321D01*
X030701Y004422D02*
X030749Y004422D01*
X030797Y004471D01*
X030797Y004567D01*
X030846Y004616D01*
X030894Y004616D01*
X030943Y004567D01*
X030943Y004471D01*
X030894Y004422D01*
X030894Y004321D02*
X030943Y004273D01*
X030701Y004422D02*
X030652Y004471D01*
X030652Y004567D01*
X030701Y004616D01*
X030652Y004717D02*
X030943Y004910D01*
X030652Y004910D01*
X030652Y004717D02*
X030943Y004717D01*
X029960Y004753D02*
X029912Y004704D01*
X029960Y004753D02*
X029960Y004849D01*
X029912Y004898D01*
X029863Y004898D01*
X029815Y004849D01*
X029815Y004801D01*
X029815Y004849D02*
X029767Y004898D01*
X029718Y004898D01*
X029670Y004849D01*
X029670Y004753D01*
X029718Y004704D01*
X029670Y004603D02*
X029863Y004603D01*
X029960Y004506D01*
X029863Y004410D01*
X029670Y004410D01*
X029718Y004308D02*
X029767Y004308D01*
X029815Y004260D01*
X029863Y004308D01*
X029912Y004308D01*
X029960Y004260D01*
X029960Y004163D01*
X029912Y004115D01*
X029815Y004212D02*
X029815Y004260D01*
X029718Y004308D02*
X029670Y004260D01*
X029670Y004163D01*
X029718Y004115D01*
X029731Y003530D02*
X029682Y003482D01*
X029682Y003337D01*
X029973Y003337D01*
X029973Y003482D01*
X029924Y003530D01*
X029731Y003530D01*
X029682Y003236D02*
X029973Y003236D01*
X029682Y003042D01*
X029973Y003042D01*
X029924Y002941D02*
X029827Y002941D01*
X029827Y002844D01*
X029731Y002748D02*
X029924Y002748D01*
X029973Y002796D01*
X029973Y002893D01*
X029924Y002941D01*
X029731Y002941D02*
X029682Y002893D01*
X029682Y002796D01*
X029731Y002748D01*
X030692Y002781D02*
X030741Y002733D01*
X030934Y002733D01*
X030983Y002781D01*
X030983Y002878D01*
X030934Y002926D01*
X030983Y003027D02*
X030983Y003221D01*
X030837Y003124D02*
X030837Y003027D01*
X030741Y002926D02*
X030692Y002878D01*
X030692Y002781D01*
X030692Y003027D02*
X030983Y003027D01*
X030692Y003027D02*
X030692Y003221D01*
X031745Y003172D02*
X031745Y003076D01*
X031793Y003027D01*
X031987Y003027D01*
X032035Y003076D01*
X032035Y003172D01*
X031987Y003221D01*
X032035Y003322D02*
X031745Y003322D01*
X031793Y003221D02*
X031745Y003172D01*
X031938Y003322D02*
X031745Y003515D01*
X031890Y003370D02*
X032035Y003515D01*
X031987Y002926D02*
X032035Y002878D01*
X032035Y002781D01*
X031987Y002733D01*
X031890Y002781D02*
X031890Y002878D01*
X031938Y002926D01*
X031987Y002926D01*
X031890Y002781D02*
X031842Y002733D01*
X031793Y002733D01*
X031745Y002781D01*
X031745Y002878D01*
X031793Y002926D01*
X032755Y002941D02*
X032852Y002844D01*
X032755Y002748D01*
X033045Y002748D01*
X033045Y002941D02*
X032755Y002941D01*
X032755Y003042D02*
X032755Y003139D01*
X032755Y003091D02*
X033045Y003091D01*
X033045Y003139D02*
X033045Y003042D01*
X032997Y003239D02*
X033045Y003287D01*
X033045Y003384D01*
X032997Y003432D01*
X032948Y003432D01*
X032900Y003384D01*
X032900Y003287D01*
X032852Y003239D01*
X032803Y003239D01*
X032755Y003287D01*
X032755Y003384D01*
X032803Y003432D01*
X032803Y003533D02*
X032997Y003533D01*
X033045Y003582D01*
X033045Y003678D01*
X032997Y003727D01*
X032803Y003727D01*
X032755Y003678D01*
X032755Y003582D01*
X032803Y003533D01*
X032712Y004173D02*
X032712Y004269D01*
X032712Y004221D02*
X033003Y004221D01*
X033003Y004173D02*
X033003Y004269D01*
X033003Y004369D02*
X032712Y004369D01*
X032712Y004514D01*
X032761Y004562D01*
X032857Y004562D01*
X032906Y004514D01*
X032906Y004369D01*
X032906Y004466D02*
X033003Y004562D01*
X032954Y004664D02*
X033003Y004712D01*
X033003Y004809D01*
X032954Y004857D01*
X032761Y004857D01*
X032712Y004809D01*
X032712Y004712D01*
X032761Y004664D01*
X032954Y004664D01*
X032906Y004760D02*
X033003Y004857D01*
M02*
