G75*
G70*
%OFA0B0*%
%FSLAX24Y24*%
%IPPOS*%
%LPD*%
%AMOC8*
5,1,8,0,0,1.08239X$1,22.5*
%
%ADD10R,0.0400X0.0450*%
%ADD11R,0.0650X0.0650*%
%ADD12C,0.0650*%
%ADD13R,0.0250X0.0500*%
%ADD14R,0.1250X0.1000*%
%ADD15C,0.0100*%
%ADD16R,0.0600X0.0800*%
%ADD17R,0.0800X0.0600*%
%ADD18C,0.0088*%
%ADD19R,0.0450X0.0900*%
%ADD20C,0.0075*%
%ADD21C,0.0594*%
%ADD22R,0.0500X0.0500*%
%ADD23C,0.0500*%
%ADD24R,0.0800X0.0160*%
%ADD25R,0.0217X0.0472*%
%ADD26R,0.0157X0.0591*%
%ADD27R,0.0450X0.0400*%
%ADD28R,0.0600X0.0400*%
%ADD29R,0.0515X0.0515*%
%ADD30C,0.0515*%
%ADD31R,0.0520X0.0520*%
%ADD32C,0.0520*%
%ADD33OC8,0.0650*%
%ADD34C,0.0250*%
%ADD35C,0.0160*%
%ADD36C,0.0320*%
%ADD37C,0.0320*%
%ADD38C,0.0240*%
%ADD39C,0.0356*%
D10*
X007276Y012109D03*
X006926Y012909D03*
X007626Y012909D03*
X008501Y012941D03*
X009201Y012941D03*
X008851Y012141D03*
D11*
X008151Y001337D03*
D12*
X007151Y001337D03*
X006151Y001337D03*
X005151Y001337D03*
X004151Y001337D03*
X003901Y013498D03*
X003901Y014498D03*
X003901Y015498D03*
X003901Y016498D03*
X003901Y017498D03*
X003901Y018498D03*
X003901Y019498D03*
X003901Y020498D03*
X003901Y021498D03*
X015639Y021567D03*
X015639Y022567D03*
X015639Y020567D03*
X015639Y019567D03*
X015639Y018567D03*
X015639Y017567D03*
X015639Y016567D03*
X015639Y015567D03*
X015639Y014567D03*
D13*
X009910Y016496D03*
X009410Y016496D03*
X008910Y016496D03*
X008410Y016496D03*
X008410Y018596D03*
X008910Y018596D03*
X009410Y018596D03*
X009910Y018596D03*
D14*
X009160Y017546D03*
D15*
X001307Y001567D02*
X001444Y001330D01*
X001638Y001136D01*
X001875Y000999D01*
X002140Y000928D01*
X002277Y000919D01*
X003919Y000919D01*
X003882Y000934D01*
X003748Y001068D01*
X003676Y001242D01*
X003676Y001431D01*
X003748Y001606D01*
X003882Y001740D01*
X004056Y001812D01*
X004245Y001812D01*
X004420Y001740D01*
X004554Y001606D01*
X004626Y001431D01*
X004626Y001242D01*
X004554Y001068D01*
X004420Y000934D01*
X004382Y000919D01*
X004919Y000919D01*
X004882Y000934D01*
X004748Y001068D01*
X004676Y001242D01*
X004676Y001431D01*
X004748Y001606D01*
X004882Y001740D01*
X005056Y001812D01*
X005245Y001812D01*
X005420Y001740D01*
X005554Y001606D01*
X005626Y001431D01*
X005626Y001242D01*
X005554Y001068D01*
X005420Y000934D01*
X005382Y000919D01*
X005919Y000919D01*
X005882Y000934D01*
X005748Y001068D01*
X005676Y001242D01*
X005676Y001431D01*
X005748Y001606D01*
X005882Y001740D01*
X006056Y001812D01*
X006245Y001812D01*
X006420Y001740D01*
X006554Y001606D01*
X006626Y001431D01*
X006626Y001242D01*
X006554Y001068D01*
X006420Y000934D01*
X006382Y000919D01*
X006925Y000919D01*
X006902Y000931D01*
X006841Y000975D01*
X006789Y001027D01*
X006745Y001088D01*
X006711Y001155D01*
X006688Y001226D01*
X006676Y001299D01*
X007113Y001299D01*
X007113Y001374D01*
X006676Y001374D01*
X006688Y001448D01*
X006711Y001519D01*
X006745Y001586D01*
X006789Y001646D01*
X006841Y001699D01*
X006902Y001743D01*
X006969Y001777D01*
X007040Y001800D01*
X007113Y001812D01*
X007113Y001374D01*
X007188Y001374D01*
X007626Y001374D01*
X007614Y001448D01*
X007591Y001519D01*
X007557Y001586D01*
X007513Y001646D01*
X007460Y001699D01*
X007400Y001743D01*
X007333Y001777D01*
X007262Y001800D01*
X007188Y001812D01*
X007188Y001374D01*
X007188Y001299D01*
X007626Y001299D01*
X007614Y001226D01*
X007591Y001155D01*
X007557Y001088D01*
X007513Y001027D01*
X007460Y000975D01*
X007400Y000931D01*
X007376Y000919D01*
X007707Y000919D01*
X007676Y000950D01*
X007676Y001724D01*
X007764Y001812D01*
X008538Y001812D01*
X008626Y001724D01*
X008626Y000950D01*
X008595Y000919D01*
X009195Y000919D01*
X009195Y001312D01*
X009283Y001400D01*
X010007Y001400D01*
X010095Y001312D01*
X010095Y000919D01*
X011695Y000919D01*
X011695Y001000D01*
X012095Y001000D01*
X012095Y001100D01*
X011695Y001100D01*
X011695Y001270D01*
X011705Y001308D01*
X011725Y001342D01*
X011753Y001370D01*
X011787Y001390D01*
X011825Y001400D01*
X012095Y001400D01*
X012095Y001100D01*
X012195Y001100D01*
X012195Y001400D01*
X012465Y001400D01*
X012503Y001390D01*
X012537Y001370D01*
X012565Y001342D01*
X012585Y001308D01*
X012595Y001270D01*
X012595Y001100D01*
X012195Y001100D01*
X012195Y001000D01*
X012595Y001000D01*
X012595Y000919D01*
X018045Y000919D01*
X018182Y000928D01*
X018446Y000999D01*
X018684Y001136D01*
X018878Y001330D01*
X019015Y001567D01*
X019086Y001832D01*
X019095Y001969D01*
X019095Y014662D01*
X019010Y015149D01*
X018924Y015399D01*
X018905Y015414D01*
X018898Y015474D01*
X018879Y015532D01*
X018889Y015554D01*
X018784Y016479D01*
X018773Y016490D01*
X018774Y016560D01*
X018767Y016628D01*
X018776Y016640D01*
X018793Y017405D01*
X018784Y017417D01*
X018795Y017486D01*
X018797Y017556D01*
X018807Y017566D01*
X018895Y018140D01*
X018893Y018143D01*
X018907Y018222D01*
X018919Y018301D01*
X018922Y018303D01*
X019018Y018833D01*
X019095Y019295D01*
X019095Y019446D01*
X019044Y019396D01*
X018979Y019352D01*
X018906Y019322D01*
X018829Y019306D01*
X018552Y019306D01*
X018552Y019694D01*
X018527Y019694D01*
X018527Y019306D01*
X018250Y019306D01*
X018172Y019322D01*
X018100Y019352D01*
X018034Y019396D01*
X017978Y019451D01*
X017935Y019517D01*
X017904Y019590D01*
X017889Y019667D01*
X017889Y019694D01*
X018527Y019694D01*
X018527Y019719D01*
X018527Y020106D01*
X018250Y020106D01*
X018172Y020091D01*
X018100Y020061D01*
X018034Y020017D01*
X017978Y019961D01*
X017935Y019896D01*
X017904Y019823D01*
X017889Y019746D01*
X017889Y019719D01*
X018527Y019719D01*
X018552Y019719D01*
X018552Y020106D01*
X018829Y020106D01*
X018906Y020091D01*
X018979Y020061D01*
X019044Y020017D01*
X019095Y019966D01*
X019095Y022446D01*
X019044Y022396D01*
X018979Y022352D01*
X018906Y022322D01*
X018829Y022306D01*
X018552Y022306D01*
X018552Y022694D01*
X018527Y022694D01*
X018527Y022306D01*
X018250Y022306D01*
X018172Y022322D01*
X018100Y022352D01*
X018034Y022396D01*
X018030Y022400D01*
X018030Y021771D01*
X018064Y021757D01*
X018142Y021679D01*
X018184Y021578D01*
X018184Y021469D01*
X018142Y021368D01*
X018064Y021290D01*
X017963Y021249D01*
X017854Y021249D01*
X017787Y021276D01*
X017636Y021126D01*
X017519Y021009D01*
X017139Y021009D01*
X017139Y020754D01*
X017122Y020737D01*
X017129Y020724D01*
X017139Y020686D01*
X017139Y020586D01*
X016589Y020586D01*
X016589Y020586D01*
X016589Y020356D01*
X016169Y020356D01*
X016131Y020366D01*
X016097Y020386D01*
X016084Y020400D01*
X016042Y020298D01*
X015908Y020164D01*
X015733Y020092D01*
X015544Y020092D01*
X015505Y020108D01*
X014456Y019059D01*
X014456Y018935D01*
X014394Y018784D01*
X014278Y018669D01*
X014167Y018623D01*
X014278Y018576D01*
X014301Y018554D01*
X015180Y019433D01*
X015164Y019472D01*
X015164Y019661D01*
X015236Y019836D01*
X015370Y019970D01*
X015544Y020042D01*
X015733Y020042D01*
X015908Y019970D01*
X016042Y019836D01*
X016052Y019811D01*
X016054Y019823D01*
X016085Y019896D01*
X016128Y019961D01*
X016184Y020017D01*
X016250Y020061D01*
X016322Y020091D01*
X016400Y020106D01*
X016677Y020106D01*
X016677Y019719D01*
X016702Y019719D01*
X017339Y019719D01*
X017339Y019746D01*
X017324Y019823D01*
X017294Y019896D01*
X017250Y019961D01*
X017194Y020017D01*
X017129Y020061D01*
X017056Y020091D01*
X016979Y020106D01*
X016702Y020106D01*
X016702Y019719D01*
X016702Y019694D01*
X017339Y019694D01*
X017339Y019667D01*
X017324Y019590D01*
X017294Y019517D01*
X017250Y019451D01*
X017194Y019396D01*
X017129Y019352D01*
X017056Y019322D01*
X016979Y019306D01*
X016702Y019306D01*
X016702Y019694D01*
X016677Y019694D01*
X016677Y019306D01*
X016400Y019306D01*
X016322Y019322D01*
X016250Y019352D01*
X016184Y019396D01*
X016128Y019451D01*
X016114Y019473D01*
X016114Y019472D01*
X016042Y019298D01*
X015908Y019164D01*
X015733Y019092D01*
X015544Y019092D01*
X015505Y019108D01*
X014396Y017999D01*
X014395Y017999D01*
X014394Y017997D01*
X014278Y017881D01*
X014167Y017835D01*
X014278Y017789D01*
X014394Y017674D01*
X014395Y017671D01*
X014418Y017671D01*
X015180Y018433D01*
X015164Y018472D01*
X015164Y018661D01*
X015236Y018836D01*
X015370Y018970D01*
X015544Y019042D01*
X015733Y019042D01*
X015908Y018970D01*
X016042Y018836D01*
X016114Y018661D01*
X016114Y018472D01*
X016042Y018298D01*
X015908Y018164D01*
X015733Y018092D01*
X015544Y018092D01*
X015505Y018108D01*
X014609Y017211D01*
X014395Y017211D01*
X014394Y017209D01*
X014278Y017094D01*
X014167Y017048D01*
X014278Y017002D01*
X014394Y016886D01*
X014395Y016884D01*
X014631Y016884D01*
X015180Y017433D01*
X015164Y017472D01*
X015164Y017661D01*
X015236Y017836D01*
X015370Y017970D01*
X015544Y018042D01*
X015733Y018042D01*
X015908Y017970D01*
X016042Y017836D01*
X016114Y017661D01*
X016114Y017472D01*
X016042Y017298D01*
X015908Y017164D01*
X015733Y017092D01*
X015544Y017092D01*
X015505Y017108D01*
X014821Y016424D01*
X014395Y016424D01*
X014394Y016422D01*
X014278Y016307D01*
X014167Y016260D01*
X014278Y016214D01*
X014394Y016099D01*
X014395Y016097D01*
X014843Y016097D01*
X015180Y016433D01*
X015164Y016472D01*
X015164Y016661D01*
X015236Y016836D01*
X015370Y016970D01*
X015544Y017042D01*
X015733Y017042D01*
X015908Y016970D01*
X016042Y016836D01*
X016114Y016661D01*
X016114Y016472D01*
X016042Y016298D01*
X015908Y016164D01*
X015733Y016092D01*
X015544Y016092D01*
X015505Y016108D01*
X015034Y015637D01*
X014395Y015637D01*
X014394Y015634D01*
X014278Y015519D01*
X014167Y015473D01*
X014278Y015427D01*
X014394Y015312D01*
X014395Y015309D01*
X015056Y015309D01*
X015180Y015433D01*
X015164Y015472D01*
X015164Y015661D01*
X015236Y015836D01*
X015370Y015970D01*
X015544Y016042D01*
X015733Y016042D01*
X015908Y015970D01*
X016042Y015836D01*
X016114Y015661D01*
X016114Y015613D01*
X016575Y016074D01*
X016575Y016270D01*
X016542Y016303D01*
X016495Y016417D01*
X016495Y016540D01*
X016542Y016654D01*
X016629Y016742D01*
X016743Y016789D01*
X016866Y016789D01*
X016980Y016742D01*
X017067Y016654D01*
X017115Y016540D01*
X017115Y016417D01*
X017067Y016303D01*
X017035Y016270D01*
X017035Y015883D01*
X016014Y014863D01*
X016042Y014836D01*
X016114Y014661D01*
X016114Y014472D01*
X016042Y014298D01*
X015908Y014164D01*
X015733Y014092D01*
X015544Y014092D01*
X015505Y014108D01*
X015459Y014062D01*
X014395Y014062D01*
X014394Y014060D01*
X014278Y013944D01*
X014164Y013897D01*
X014203Y013884D01*
X014261Y013855D01*
X014313Y013817D01*
X014359Y013772D01*
X014397Y013719D01*
X014426Y013662D01*
X014446Y013600D01*
X014456Y013537D01*
X014456Y013534D01*
X014076Y013534D01*
X014076Y013474D01*
X014456Y013474D01*
X014456Y013472D01*
X014446Y013408D01*
X014426Y013347D01*
X014397Y013290D01*
X014359Y013237D01*
X014313Y013192D01*
X014261Y013154D01*
X014231Y013139D01*
X015395Y013139D01*
X015164Y013370D01*
X015164Y013529D01*
X015601Y013529D01*
X015601Y013604D01*
X015164Y013604D01*
X015164Y013764D01*
X015442Y014042D01*
X015601Y014042D01*
X015601Y013604D01*
X015676Y013604D01*
X016114Y013604D01*
X016114Y013764D01*
X015836Y014042D01*
X015676Y014042D01*
X015676Y013604D01*
X015676Y013529D01*
X016114Y013529D01*
X016114Y013370D01*
X015882Y013139D01*
X016226Y013139D01*
X017795Y014707D01*
X017795Y015051D01*
X017791Y015054D01*
X017791Y015225D01*
X017789Y015218D01*
X017759Y015160D01*
X017722Y015109D01*
X017676Y015063D01*
X017624Y015026D01*
X017567Y014996D01*
X017506Y014977D01*
X017443Y014967D01*
X017440Y014967D01*
X017440Y015345D01*
X017382Y015345D01*
X017382Y014967D01*
X017379Y014967D01*
X017315Y014977D01*
X017254Y014996D01*
X017197Y015026D01*
X017145Y015063D01*
X017100Y015109D01*
X017062Y015160D01*
X017033Y015218D01*
X017013Y015279D01*
X017003Y015342D01*
X017003Y015345D01*
X017382Y015345D01*
X017382Y015403D01*
X017382Y015781D01*
X017379Y015781D01*
X017315Y015771D01*
X017254Y015752D01*
X017197Y015723D01*
X017145Y015685D01*
X017100Y015639D01*
X017062Y015588D01*
X017033Y015530D01*
X017013Y015469D01*
X017003Y015406D01*
X017003Y015403D01*
X017382Y015403D01*
X017440Y015403D01*
X017440Y015781D01*
X017443Y015781D01*
X017506Y015771D01*
X017567Y015752D01*
X017624Y015723D01*
X017676Y015685D01*
X017722Y015639D01*
X017759Y015588D01*
X017789Y015530D01*
X017791Y015523D01*
X017791Y015694D01*
X017879Y015781D01*
X018518Y015781D01*
X018606Y015694D01*
X018606Y015054D01*
X018518Y014967D01*
X018415Y014967D01*
X018415Y014517D01*
X018367Y014403D01*
X018280Y014316D01*
X016530Y012566D01*
X016416Y012519D01*
X016135Y012519D01*
X016185Y012502D01*
X016242Y012473D01*
X016294Y012436D01*
X016339Y012390D01*
X016377Y012338D01*
X016406Y012281D01*
X016421Y012236D01*
X016471Y012356D01*
X016585Y012470D01*
X016735Y012532D01*
X016897Y012532D01*
X017047Y012470D01*
X017161Y012356D01*
X017210Y012239D01*
X017258Y012356D01*
X017373Y012470D01*
X017522Y012532D01*
X017684Y012532D01*
X017834Y012470D01*
X017949Y012356D01*
X017983Y012272D01*
X017983Y012444D01*
X018071Y012532D01*
X018710Y012532D01*
X018798Y012444D01*
X018798Y011805D01*
X018710Y011717D01*
X018309Y011717D01*
X015375Y008783D01*
X015280Y008689D01*
X015326Y008689D01*
X016494Y009857D01*
X016608Y009904D01*
X018273Y009904D01*
X018342Y009973D01*
X018378Y009987D01*
X018342Y010002D01*
X018216Y010128D01*
X018148Y010292D01*
X018148Y010470D01*
X018216Y010634D01*
X018342Y010760D01*
X018506Y010828D01*
X018684Y010828D01*
X018848Y010760D01*
X018974Y010634D01*
X019042Y010470D01*
X019042Y010292D01*
X018974Y010128D01*
X018848Y010002D01*
X018812Y009987D01*
X018848Y009973D01*
X018974Y009847D01*
X019042Y009683D01*
X019042Y009505D01*
X018974Y009341D01*
X018848Y009215D01*
X018812Y009200D01*
X018848Y009185D01*
X018974Y009059D01*
X019042Y008895D01*
X019042Y008717D01*
X018974Y008553D01*
X018848Y008427D01*
X018684Y008359D01*
X018506Y008359D01*
X018342Y008427D01*
X018273Y008496D01*
X016861Y008496D01*
X015939Y007574D01*
X015825Y007527D01*
X012085Y007527D01*
X011971Y007574D01*
X011476Y008069D01*
X011303Y008069D01*
X011367Y008004D01*
X011415Y007890D01*
X011415Y007844D01*
X012375Y006883D01*
X017002Y006883D01*
X017002Y006981D02*
X012277Y006981D01*
X012375Y006883D02*
X012375Y002900D01*
X012507Y002900D01*
X012595Y002812D01*
X012595Y002288D01*
X012507Y002200D01*
X011783Y002200D01*
X011695Y002288D01*
X011695Y002812D01*
X011783Y002900D01*
X011915Y002900D01*
X011915Y006693D01*
X011089Y007519D01*
X011043Y007519D01*
X010929Y007566D01*
X010842Y007653D01*
X010795Y007767D01*
X010795Y007890D01*
X010842Y008004D01*
X010906Y008069D01*
X010143Y008069D01*
X010029Y008116D01*
X009942Y008203D01*
X009895Y008317D01*
X009895Y008440D01*
X009942Y008554D01*
X010029Y008642D01*
X010046Y008649D01*
X006763Y008649D01*
X006730Y008616D01*
X006616Y008569D01*
X006493Y008569D01*
X006379Y008616D01*
X006292Y008703D01*
X006245Y008817D01*
X006245Y008940D01*
X006292Y009054D01*
X006379Y009142D01*
X006493Y009189D01*
X006606Y009189D01*
X006595Y009217D01*
X006595Y009340D01*
X006642Y009454D01*
X006729Y009542D01*
X006843Y009589D01*
X006966Y009589D01*
X007080Y009542D01*
X007113Y009509D01*
X009236Y009509D01*
X008679Y010066D01*
X008592Y010153D01*
X008545Y010267D01*
X008545Y011810D01*
X008501Y011853D01*
X008501Y012428D01*
X008589Y012516D01*
X009113Y012516D01*
X009201Y012428D01*
X009201Y011853D01*
X009165Y011817D01*
X009165Y010457D01*
X009583Y010039D01*
X014276Y010039D01*
X015961Y011723D01*
X015933Y011727D01*
X015872Y011747D01*
X015815Y011776D01*
X015763Y011814D01*
X015718Y011859D01*
X015680Y011911D01*
X015651Y011968D01*
X015631Y012029D01*
X015621Y012093D01*
X015621Y012096D01*
X016000Y012096D01*
X016000Y012154D01*
X015621Y012154D01*
X015621Y012157D01*
X015631Y012220D01*
X015651Y012281D01*
X015680Y012338D01*
X015718Y012390D01*
X015763Y012436D01*
X015815Y012473D01*
X015872Y012502D01*
X015922Y012519D01*
X013784Y012519D01*
X013670Y012566D01*
X013129Y013107D01*
X013042Y013194D01*
X012995Y013308D01*
X012995Y013443D01*
X012961Y013424D01*
X012923Y013413D01*
X012704Y013413D01*
X012704Y013763D01*
X012604Y013763D01*
X012604Y013413D01*
X012384Y013413D01*
X012346Y013424D01*
X012311Y013443D01*
X012283Y013471D01*
X012264Y013506D01*
X012254Y013544D01*
X012254Y013763D01*
X012604Y013763D01*
X012604Y013863D01*
X012254Y013863D01*
X012254Y014083D01*
X012264Y014121D01*
X012283Y014156D01*
X012311Y014183D01*
X012346Y014203D01*
X012384Y014213D01*
X012604Y014213D01*
X012604Y013863D01*
X012704Y013863D01*
X012704Y014213D01*
X012923Y014213D01*
X012961Y014203D01*
X012995Y014184D01*
X012995Y014302D01*
X012961Y014268D01*
X012915Y014242D01*
X012864Y014228D01*
X012738Y014228D01*
X012738Y014603D01*
X012638Y014603D01*
X012638Y014228D01*
X012512Y014228D01*
X012461Y014242D01*
X012415Y014268D01*
X012378Y014305D01*
X012352Y014351D01*
X012338Y014402D01*
X012338Y014603D01*
X012638Y014603D01*
X012638Y014703D01*
X012638Y015078D01*
X012512Y015078D01*
X012461Y015064D01*
X012415Y015038D01*
X012378Y015001D01*
X012352Y014955D01*
X012338Y014904D01*
X012338Y014703D01*
X012638Y014703D01*
X012738Y014703D01*
X012738Y015038D01*
X012693Y015083D01*
X012265Y015083D01*
X012265Y015034D01*
X012338Y014961D01*
X012338Y014345D01*
X012221Y014228D01*
X012001Y014228D01*
X011976Y014203D01*
X012054Y014126D01*
X012054Y013501D01*
X012031Y013479D01*
X012031Y013016D01*
X011984Y012902D01*
X011979Y012898D01*
X011979Y012779D01*
X011892Y012691D01*
X011767Y012691D01*
X011800Y012659D01*
X011935Y012524D01*
X011935Y012397D01*
X011968Y012364D01*
X012182Y012364D01*
X012182Y012534D01*
X012299Y012651D01*
X012915Y012651D01*
X013032Y012534D01*
X013032Y012069D01*
X012915Y011951D01*
X012865Y011951D01*
X012865Y011417D01*
X012817Y011303D01*
X012730Y011216D01*
X012616Y011169D01*
X012493Y011169D01*
X012379Y011216D01*
X012292Y011303D01*
X012245Y011417D01*
X012245Y011744D01*
X011968Y011744D01*
X011892Y011668D01*
X011551Y011668D01*
X011531Y011688D01*
X011513Y011678D01*
X011475Y011668D01*
X011351Y011668D01*
X011351Y012050D01*
X011343Y012050D01*
X011343Y011668D01*
X011219Y011668D01*
X011181Y011678D01*
X011164Y011688D01*
X011144Y011668D01*
X010803Y011668D01*
X010715Y011756D01*
X010715Y012352D01*
X010743Y012381D01*
X010743Y012543D01*
X010825Y012624D01*
X010892Y012691D01*
X010803Y012691D01*
X010715Y012779D01*
X010715Y012848D01*
X010574Y012848D01*
X010571Y012845D01*
X010571Y012634D01*
X010479Y012542D01*
X010496Y012532D01*
X010532Y012496D01*
X010558Y012452D01*
X010571Y012402D01*
X010571Y012283D01*
X010284Y012283D01*
X010284Y012208D01*
X010571Y012208D01*
X010571Y012089D01*
X010558Y012039D01*
X010532Y011995D01*
X010496Y011959D01*
X010452Y011934D01*
X010403Y011921D01*
X010284Y011921D01*
X010284Y012208D01*
X010209Y012208D01*
X010209Y011921D01*
X010089Y011921D01*
X010040Y011934D01*
X009996Y011959D01*
X009960Y011995D01*
X009934Y012039D01*
X009921Y012089D01*
X009921Y012208D01*
X010209Y012208D01*
X010209Y012283D01*
X009921Y012283D01*
X009921Y012402D01*
X009934Y012452D01*
X009960Y012496D01*
X009996Y012532D01*
X010013Y012542D01*
X009921Y012634D01*
X009921Y013057D01*
X010035Y013171D01*
X010246Y013171D01*
X010383Y013308D01*
X010715Y013308D01*
X010715Y013376D01*
X010717Y013378D01*
X009536Y013378D01*
X009471Y013313D01*
X009471Y013308D01*
X009551Y013228D01*
X009551Y012653D01*
X009463Y012566D01*
X008939Y012566D01*
X008851Y012653D01*
X008851Y013228D01*
X008931Y013308D01*
X008931Y013321D01*
X008874Y013378D01*
X008042Y013378D01*
X007965Y013300D01*
X007965Y013207D01*
X007976Y013196D01*
X007976Y012679D01*
X008072Y012679D01*
X008151Y012758D01*
X008151Y013228D01*
X008239Y013316D01*
X008763Y013316D01*
X008851Y013228D01*
X008851Y012653D01*
X008763Y012566D01*
X008524Y012566D01*
X008355Y012396D01*
X008237Y012279D01*
X007626Y012279D01*
X007626Y011822D01*
X007538Y011734D01*
X007014Y011734D01*
X006949Y011799D01*
X002886Y011799D01*
X002772Y011846D01*
X002685Y011933D01*
X002431Y012187D01*
X002424Y012147D01*
X002404Y012086D01*
X002375Y012029D01*
X002337Y011977D01*
X002292Y011931D01*
X002240Y011894D01*
X002183Y011864D01*
X002122Y011845D01*
X002059Y011835D01*
X002055Y011835D01*
X002055Y012213D01*
X001998Y012213D01*
X001998Y011835D01*
X001995Y011835D01*
X001931Y011845D01*
X001870Y011864D01*
X001813Y011894D01*
X001761Y011931D01*
X001716Y011977D01*
X001678Y012029D01*
X001649Y012086D01*
X001629Y012147D01*
X001619Y012210D01*
X001619Y012213D01*
X001998Y012213D01*
X001998Y012271D01*
X001619Y012271D01*
X001619Y012274D01*
X001629Y012338D01*
X001649Y012399D01*
X001227Y012399D01*
X001227Y012497D02*
X001708Y012497D01*
X001716Y012508D02*
X001678Y012456D01*
X001649Y012399D01*
X001623Y012300D02*
X001227Y012300D01*
X001227Y012202D02*
X001620Y012202D01*
X001643Y012103D02*
X001227Y012103D01*
X001227Y012005D02*
X001695Y012005D01*
X001796Y011906D02*
X001227Y011906D01*
X001227Y011808D02*
X002864Y011808D01*
X002712Y011906D02*
X002258Y011906D01*
X002358Y012005D02*
X002613Y012005D01*
X002515Y012103D02*
X002410Y012103D01*
X002055Y012103D02*
X001998Y012103D01*
X001998Y012005D02*
X002055Y012005D01*
X002055Y011906D02*
X001998Y011906D01*
X001998Y012202D02*
X002055Y012202D01*
X001716Y012508D02*
X001761Y012553D01*
X001813Y012591D01*
X001870Y012620D01*
X001916Y012634D01*
X001796Y012684D01*
X001681Y012799D01*
X001619Y012948D01*
X001619Y013111D01*
X001681Y013260D01*
X001796Y013375D01*
X001912Y013423D01*
X001796Y013471D01*
X001681Y013586D01*
X001619Y013736D01*
X001619Y013898D01*
X001681Y014048D01*
X001796Y014162D01*
X001879Y014197D01*
X001707Y014197D01*
X001619Y014285D01*
X001619Y014924D01*
X001707Y015012D01*
X001797Y015012D01*
X001797Y016719D01*
X003442Y018364D01*
X003426Y018404D01*
X003426Y018593D01*
X003498Y018767D01*
X003632Y018901D01*
X003671Y018917D01*
X003671Y019079D01*
X003632Y019095D01*
X003498Y019229D01*
X003426Y019404D01*
X003426Y019593D01*
X003498Y019767D01*
X003632Y019901D01*
X003806Y019973D01*
X003995Y019973D01*
X004170Y019901D01*
X004303Y019767D01*
X004376Y019593D01*
X004376Y019404D01*
X004303Y019229D01*
X004170Y019095D01*
X004131Y019079D01*
X004131Y018917D01*
X004170Y018901D01*
X004303Y018767D01*
X004376Y018593D01*
X004376Y018459D01*
X005036Y018459D01*
X005037Y018461D01*
X005152Y018576D01*
X005264Y018623D01*
X005152Y018669D01*
X005037Y018784D01*
X004975Y018935D01*
X004975Y019098D01*
X004975Y019099D01*
X004034Y020039D01*
X003995Y020023D01*
X003806Y020023D01*
X003632Y020095D01*
X003498Y020229D01*
X003426Y020404D01*
X003426Y020593D01*
X003498Y020767D01*
X003632Y020901D01*
X003806Y020973D01*
X003995Y020973D01*
X004170Y020901D01*
X004303Y020767D01*
X004375Y020595D01*
X004375Y020699D01*
X004034Y021039D01*
X003995Y021023D01*
X003806Y021023D01*
X003632Y021095D01*
X003498Y021229D01*
X003426Y021404D01*
X003426Y021593D01*
X003498Y021767D01*
X003632Y021901D01*
X003806Y021973D01*
X003835Y021973D01*
X003785Y022023D01*
X003704Y022023D01*
X003426Y022301D01*
X003426Y022695D01*
X003704Y022973D01*
X004097Y022973D01*
X004376Y022695D01*
X004376Y022301D01*
X004267Y022192D01*
X004377Y022081D01*
X004377Y022101D01*
X004665Y022101D01*
X004740Y022101D01*
X004740Y021814D01*
X004859Y021814D01*
X004881Y021819D01*
X004972Y021729D01*
X005622Y021078D01*
X005622Y020933D01*
X005617Y020939D01*
X005466Y021001D01*
X005303Y021001D01*
X005301Y021000D01*
X004685Y021616D01*
X004685Y021774D01*
X004645Y021814D01*
X004665Y021814D01*
X004665Y022101D01*
X004665Y022176D01*
X004377Y022176D01*
X004377Y022295D01*
X004390Y022345D01*
X004416Y022389D01*
X004452Y022425D01*
X004469Y022435D01*
X004377Y022527D01*
X004377Y022723D01*
X003772Y023329D01*
X003655Y023446D01*
X003655Y023559D01*
X003639Y023559D01*
X003529Y023669D01*
X003529Y024049D01*
X003639Y024159D01*
X003892Y024159D01*
X003639Y024159D01*
X003529Y024269D01*
X003529Y024649D01*
X003639Y024759D01*
X004069Y024759D01*
X004179Y024649D01*
X004179Y024437D01*
X004226Y024390D01*
X004226Y024652D01*
X004336Y024762D01*
X004568Y024762D01*
X004668Y024862D01*
X004785Y024979D01*
X005698Y024979D01*
X005815Y024862D01*
X006745Y023932D01*
X006745Y023940D01*
X006792Y024054D01*
X006879Y024142D01*
X006993Y024189D01*
X007116Y024189D01*
X007230Y024142D01*
X007317Y024054D01*
X007365Y023940D01*
X007365Y023817D01*
X007317Y023703D01*
X007261Y023647D01*
X007261Y023571D01*
X007569Y023571D01*
X007569Y024226D01*
X007542Y024253D01*
X007495Y024367D01*
X007495Y024490D01*
X007542Y024604D01*
X007629Y024692D01*
X007743Y024739D01*
X007866Y024739D01*
X007980Y024692D01*
X008067Y024604D01*
X008115Y024490D01*
X008115Y024447D01*
X008792Y025125D01*
X002277Y025125D01*
X002140Y025116D01*
X001875Y025045D01*
X001638Y024908D01*
X001444Y024714D01*
X001307Y024477D01*
X001236Y024212D01*
X001227Y024075D01*
X001227Y001969D01*
X001236Y001832D01*
X001307Y001567D01*
X001309Y001564D02*
X001964Y001564D01*
X002055Y001473D02*
X002342Y001354D01*
X002652Y001354D01*
X002939Y001473D01*
X003158Y001692D01*
X003277Y001979D01*
X003277Y002289D01*
X003158Y002576D01*
X002939Y002795D01*
X002652Y002914D01*
X002342Y002914D01*
X002055Y002795D01*
X001836Y002576D01*
X001717Y002289D01*
X001717Y001979D01*
X001836Y001692D01*
X002055Y001473D01*
X002073Y001465D02*
X001366Y001465D01*
X001422Y001367D02*
X002311Y001367D01*
X002683Y001367D02*
X003676Y001367D01*
X003676Y001268D02*
X001505Y001268D01*
X001604Y001170D02*
X003706Y001170D01*
X003747Y001071D02*
X001749Y001071D01*
X001972Y000973D02*
X003843Y000973D01*
X003690Y001465D02*
X002921Y001465D01*
X003030Y001564D02*
X003731Y001564D01*
X003804Y001662D02*
X003128Y001662D01*
X003186Y001761D02*
X003933Y001761D01*
X003984Y002179D02*
X004131Y002240D01*
X004244Y002352D01*
X004305Y002499D01*
X004305Y002658D01*
X004244Y002805D01*
X004131Y002918D01*
X003984Y002979D01*
X003825Y002979D01*
X003678Y002918D01*
X003566Y002805D01*
X003505Y002658D01*
X003505Y002499D01*
X003566Y002352D01*
X003251Y002352D01*
X003277Y002253D02*
X003664Y002253D01*
X003678Y002240D02*
X003825Y002179D01*
X003984Y002179D01*
X004145Y002253D02*
X009230Y002253D01*
X009195Y002288D02*
X009283Y002200D01*
X010007Y002200D01*
X010095Y002288D01*
X010095Y002812D01*
X010007Y002900D01*
X009283Y002900D01*
X009195Y002812D01*
X009195Y002288D01*
X009195Y002352D02*
X006144Y002352D01*
X006198Y002374D02*
X005962Y002277D01*
X005707Y002277D01*
X005471Y002374D01*
X005290Y002555D01*
X005192Y002791D01*
X005192Y003046D01*
X005290Y003282D01*
X005471Y003463D01*
X005707Y003561D01*
X005962Y003561D01*
X006198Y003463D01*
X006379Y003282D01*
X006477Y003046D01*
X006477Y002791D01*
X006379Y002555D01*
X006198Y002374D01*
X006274Y002450D02*
X009195Y002450D01*
X009195Y002549D02*
X006373Y002549D01*
X006417Y002647D02*
X009195Y002647D01*
X009195Y002746D02*
X006458Y002746D01*
X006477Y002844D02*
X009227Y002844D01*
X010063Y002844D02*
X011727Y002844D01*
X011695Y002746D02*
X010095Y002746D01*
X010095Y002647D02*
X011695Y002647D01*
X011695Y002549D02*
X010095Y002549D01*
X010095Y002450D02*
X011695Y002450D01*
X011695Y002352D02*
X010095Y002352D01*
X010061Y002253D02*
X011730Y002253D01*
X011915Y002943D02*
X006477Y002943D01*
X006477Y003041D02*
X011915Y003041D01*
X011915Y003140D02*
X006438Y003140D01*
X006397Y003238D02*
X011915Y003238D01*
X011915Y003337D02*
X006325Y003337D01*
X006226Y003435D02*
X011915Y003435D01*
X011915Y003534D02*
X006028Y003534D01*
X005641Y003534D02*
X001227Y003534D01*
X001227Y003632D02*
X011915Y003632D01*
X011915Y003731D02*
X001227Y003731D01*
X001227Y003829D02*
X011915Y003829D01*
X011915Y003928D02*
X001227Y003928D01*
X001227Y004026D02*
X011915Y004026D01*
X011915Y004125D02*
X001227Y004125D01*
X001227Y004223D02*
X011915Y004223D01*
X011915Y004322D02*
X001227Y004322D01*
X001227Y004420D02*
X011915Y004420D01*
X011915Y004519D02*
X001227Y004519D01*
X001227Y004617D02*
X011915Y004617D01*
X011915Y004716D02*
X001227Y004716D01*
X001227Y004814D02*
X011915Y004814D01*
X011915Y004913D02*
X001227Y004913D01*
X001227Y005011D02*
X011915Y005011D01*
X011915Y005110D02*
X001227Y005110D01*
X001227Y005208D02*
X011915Y005208D01*
X011915Y005307D02*
X001227Y005307D01*
X001227Y005405D02*
X011915Y005405D01*
X011915Y005504D02*
X001227Y005504D01*
X001227Y005602D02*
X011915Y005602D01*
X011915Y005701D02*
X001227Y005701D01*
X001227Y005799D02*
X011915Y005799D01*
X011915Y005898D02*
X001227Y005898D01*
X001227Y005996D02*
X011915Y005996D01*
X011915Y006095D02*
X001227Y006095D01*
X001227Y006193D02*
X009666Y006193D01*
X009591Y006224D02*
X009410Y006405D01*
X009312Y006641D01*
X009312Y006896D01*
X009410Y007132D01*
X009591Y007313D01*
X009827Y007411D01*
X010082Y007411D01*
X010318Y007313D01*
X010499Y007132D01*
X010597Y006896D01*
X010597Y006641D01*
X010499Y006405D01*
X010318Y006224D01*
X010082Y006127D01*
X009827Y006127D01*
X009591Y006224D01*
X009524Y006292D02*
X002334Y006292D01*
X002388Y006314D02*
X002569Y006495D01*
X002667Y006731D01*
X002667Y006986D01*
X002569Y007222D01*
X002388Y007403D01*
X002152Y007501D01*
X001897Y007501D01*
X001661Y007403D01*
X001480Y007222D01*
X001382Y006986D01*
X001382Y006731D01*
X001480Y006495D01*
X001661Y006314D01*
X001897Y006217D01*
X002152Y006217D01*
X002388Y006314D01*
X002464Y006390D02*
X009425Y006390D01*
X009376Y006489D02*
X002563Y006489D01*
X002607Y006587D02*
X009335Y006587D01*
X009312Y006686D02*
X002648Y006686D01*
X002667Y006784D02*
X009312Y006784D01*
X009312Y006883D02*
X002667Y006883D01*
X002667Y006981D02*
X009348Y006981D01*
X009388Y007080D02*
X002628Y007080D01*
X002587Y007178D02*
X009456Y007178D01*
X009555Y007277D02*
X002515Y007277D01*
X002416Y007375D02*
X009741Y007375D01*
X010168Y007375D02*
X011233Y007375D01*
X011331Y007277D02*
X010355Y007277D01*
X010453Y007178D02*
X011430Y007178D01*
X011528Y007080D02*
X010521Y007080D01*
X010562Y006981D02*
X011627Y006981D01*
X011725Y006883D02*
X010597Y006883D01*
X010597Y006784D02*
X011824Y006784D01*
X011915Y006686D02*
X010597Y006686D01*
X010574Y006587D02*
X011915Y006587D01*
X011915Y006489D02*
X010534Y006489D01*
X010484Y006390D02*
X011915Y006390D01*
X011915Y006292D02*
X010386Y006292D01*
X010243Y006193D02*
X011915Y006193D01*
X012375Y006193D02*
X019095Y006193D01*
X019095Y006095D02*
X012375Y006095D01*
X012375Y005996D02*
X019095Y005996D01*
X019095Y005898D02*
X012375Y005898D01*
X012375Y005799D02*
X019095Y005799D01*
X019095Y005701D02*
X012375Y005701D01*
X012375Y005602D02*
X019095Y005602D01*
X019095Y005504D02*
X012375Y005504D01*
X012375Y005405D02*
X019095Y005405D01*
X019095Y005307D02*
X012375Y005307D01*
X012375Y005208D02*
X019095Y005208D01*
X019095Y005110D02*
X012375Y005110D01*
X012375Y005011D02*
X019095Y005011D01*
X019095Y004913D02*
X012375Y004913D01*
X012375Y004814D02*
X019095Y004814D01*
X019095Y004716D02*
X012375Y004716D01*
X012375Y004617D02*
X019095Y004617D01*
X019095Y004519D02*
X012375Y004519D01*
X012375Y004420D02*
X019095Y004420D01*
X019095Y004322D02*
X012375Y004322D01*
X012375Y004223D02*
X019095Y004223D01*
X019095Y004125D02*
X012375Y004125D01*
X012375Y004026D02*
X019095Y004026D01*
X019095Y003928D02*
X012375Y003928D01*
X012375Y003829D02*
X019095Y003829D01*
X019095Y003731D02*
X012375Y003731D01*
X012375Y003632D02*
X019095Y003632D01*
X019095Y003534D02*
X013898Y003534D01*
X013832Y003561D02*
X013577Y003561D01*
X013341Y003463D01*
X013160Y003282D01*
X013062Y003046D01*
X013062Y002791D01*
X013160Y002555D01*
X013341Y002374D01*
X013577Y002277D01*
X013832Y002277D01*
X014068Y002374D01*
X014249Y002555D01*
X014347Y002791D01*
X014347Y003046D01*
X014249Y003282D01*
X014068Y003463D01*
X013832Y003561D01*
X014096Y003435D02*
X019095Y003435D01*
X019095Y003337D02*
X014195Y003337D01*
X014267Y003238D02*
X019095Y003238D01*
X019095Y003140D02*
X014308Y003140D01*
X014347Y003041D02*
X019095Y003041D01*
X019095Y002943D02*
X014347Y002943D01*
X014347Y002844D02*
X017664Y002844D01*
X017546Y002795D02*
X017326Y002576D01*
X017207Y002289D01*
X017207Y001979D01*
X017326Y001692D01*
X017546Y001473D01*
X017832Y001354D01*
X018142Y001354D01*
X018429Y001473D01*
X018648Y001692D01*
X018767Y001979D01*
X018767Y002289D01*
X018648Y002576D01*
X018429Y002795D01*
X018142Y002914D01*
X017832Y002914D01*
X017546Y002795D01*
X017496Y002746D02*
X014328Y002746D01*
X014287Y002647D02*
X017398Y002647D01*
X017315Y002549D02*
X014243Y002549D01*
X014144Y002450D02*
X017274Y002450D01*
X017233Y002352D02*
X014014Y002352D01*
X013396Y002352D02*
X012595Y002352D01*
X012595Y002450D02*
X013265Y002450D01*
X013167Y002549D02*
X012595Y002549D01*
X012595Y002647D02*
X013122Y002647D01*
X013081Y002746D02*
X012595Y002746D01*
X012563Y002844D02*
X013062Y002844D01*
X013062Y002943D02*
X012375Y002943D01*
X012375Y003041D02*
X013062Y003041D01*
X013101Y003140D02*
X012375Y003140D01*
X012375Y003238D02*
X013142Y003238D01*
X013215Y003337D02*
X012375Y003337D01*
X012375Y003435D02*
X013313Y003435D01*
X013511Y003534D02*
X012375Y003534D01*
X012561Y002253D02*
X017207Y002253D01*
X017207Y002155D02*
X003277Y002155D01*
X003277Y002056D02*
X017207Y002056D01*
X017216Y001958D02*
X003268Y001958D01*
X003227Y001859D02*
X017257Y001859D01*
X017298Y001761D02*
X008589Y001761D01*
X008626Y001662D02*
X017356Y001662D01*
X017454Y001564D02*
X008626Y001564D01*
X008626Y001465D02*
X017563Y001465D01*
X017801Y001367D02*
X012541Y001367D01*
X012595Y001268D02*
X018816Y001268D01*
X018899Y001367D02*
X018173Y001367D01*
X018411Y001465D02*
X018956Y001465D01*
X019013Y001564D02*
X018520Y001564D01*
X018619Y001662D02*
X019040Y001662D01*
X019067Y001761D02*
X018677Y001761D01*
X018718Y001859D02*
X019087Y001859D01*
X019094Y001958D02*
X018759Y001958D01*
X018767Y002056D02*
X019095Y002056D01*
X019095Y002155D02*
X018767Y002155D01*
X018767Y002253D02*
X019095Y002253D01*
X019095Y002352D02*
X018741Y002352D01*
X018700Y002450D02*
X019095Y002450D01*
X019095Y002549D02*
X018660Y002549D01*
X018577Y002647D02*
X019095Y002647D01*
X019095Y002746D02*
X018478Y002746D01*
X018310Y002844D02*
X019095Y002844D01*
X018718Y001170D02*
X012595Y001170D01*
X012595Y000973D02*
X018350Y000973D01*
X018572Y001071D02*
X012195Y001071D01*
X012195Y001170D02*
X012095Y001170D01*
X012095Y001268D02*
X012195Y001268D01*
X012195Y001367D02*
X012095Y001367D01*
X012095Y001071D02*
X010095Y001071D01*
X010095Y000973D02*
X011695Y000973D01*
X011695Y001170D02*
X010095Y001170D01*
X010095Y001268D02*
X011695Y001268D01*
X011750Y001367D02*
X010041Y001367D01*
X009250Y001367D02*
X008626Y001367D01*
X008626Y001268D02*
X009195Y001268D01*
X009195Y001170D02*
X008626Y001170D01*
X008626Y001071D02*
X009195Y001071D01*
X009195Y000973D02*
X008626Y000973D01*
X007676Y000973D02*
X007458Y000973D01*
X007545Y001071D02*
X007676Y001071D01*
X007676Y001170D02*
X007596Y001170D01*
X007621Y001268D02*
X007676Y001268D01*
X007676Y001367D02*
X007188Y001367D01*
X007113Y001367D02*
X006626Y001367D01*
X006626Y001268D02*
X006681Y001268D01*
X006706Y001170D02*
X006596Y001170D01*
X006555Y001071D02*
X006757Y001071D01*
X006844Y000973D02*
X006458Y000973D01*
X006612Y001465D02*
X006693Y001465D01*
X006733Y001564D02*
X006571Y001564D01*
X006497Y001662D02*
X006804Y001662D01*
X006936Y001761D02*
X006369Y001761D01*
X005933Y001761D02*
X005369Y001761D01*
X005497Y001662D02*
X005804Y001662D01*
X005731Y001564D02*
X005571Y001564D01*
X005612Y001465D02*
X005690Y001465D01*
X005676Y001367D02*
X005626Y001367D01*
X005626Y001268D02*
X005676Y001268D01*
X005706Y001170D02*
X005596Y001170D01*
X005555Y001071D02*
X005747Y001071D01*
X005843Y000973D02*
X005458Y000973D01*
X004843Y000973D02*
X004458Y000973D01*
X004555Y001071D02*
X004747Y001071D01*
X004706Y001170D02*
X004596Y001170D01*
X004626Y001268D02*
X004676Y001268D01*
X004676Y001367D02*
X004626Y001367D01*
X004612Y001465D02*
X004690Y001465D01*
X004731Y001564D02*
X004571Y001564D01*
X004497Y001662D02*
X004804Y001662D01*
X004933Y001761D02*
X004369Y001761D01*
X004243Y002352D02*
X005526Y002352D01*
X005395Y002450D02*
X004284Y002450D01*
X004305Y002549D02*
X005297Y002549D01*
X005252Y002647D02*
X004305Y002647D01*
X004268Y002746D02*
X005211Y002746D01*
X005192Y002844D02*
X004205Y002844D01*
X004071Y002943D02*
X005192Y002943D01*
X005192Y003041D02*
X001227Y003041D01*
X001227Y002943D02*
X003738Y002943D01*
X003604Y002844D02*
X002820Y002844D01*
X002988Y002746D02*
X003541Y002746D01*
X003505Y002647D02*
X003086Y002647D01*
X003169Y002549D02*
X003505Y002549D01*
X003525Y002450D02*
X003210Y002450D01*
X003566Y002352D02*
X003678Y002240D01*
X002174Y002844D02*
X001227Y002844D01*
X001227Y002746D02*
X002006Y002746D01*
X001907Y002647D02*
X001227Y002647D01*
X001227Y002549D02*
X001824Y002549D01*
X001784Y002450D02*
X001227Y002450D01*
X001227Y002352D02*
X001743Y002352D01*
X001717Y002253D02*
X001227Y002253D01*
X001227Y002155D02*
X001717Y002155D01*
X001717Y002056D02*
X001227Y002056D01*
X001228Y001958D02*
X001726Y001958D01*
X001766Y001859D02*
X001234Y001859D01*
X001255Y001761D02*
X001807Y001761D01*
X001865Y001662D02*
X001281Y001662D01*
X001227Y003140D02*
X005231Y003140D01*
X005272Y003238D02*
X001227Y003238D01*
X001227Y003337D02*
X005345Y003337D01*
X005443Y003435D02*
X001227Y003435D01*
X001227Y006292D02*
X001715Y006292D01*
X001585Y006390D02*
X001227Y006390D01*
X001227Y006489D02*
X001486Y006489D01*
X001442Y006587D02*
X001227Y006587D01*
X001227Y006686D02*
X001401Y006686D01*
X001382Y006784D02*
X001227Y006784D01*
X001227Y006883D02*
X001382Y006883D01*
X001382Y006981D02*
X001227Y006981D01*
X001227Y007080D02*
X001421Y007080D01*
X001462Y007178D02*
X001227Y007178D01*
X001227Y007277D02*
X001535Y007277D01*
X001633Y007375D02*
X001227Y007375D01*
X001227Y007474D02*
X001831Y007474D01*
X002218Y007474D02*
X011134Y007474D01*
X010923Y007572D02*
X001227Y007572D01*
X001227Y007671D02*
X010835Y007671D01*
X010795Y007769D02*
X001227Y007769D01*
X001227Y007868D02*
X010795Y007868D01*
X010826Y007966D02*
X001227Y007966D01*
X001227Y008065D02*
X010902Y008065D01*
X011307Y008065D02*
X011480Y008065D01*
X011383Y007966D02*
X011579Y007966D01*
X011677Y007868D02*
X011415Y007868D01*
X011489Y007769D02*
X011776Y007769D01*
X011874Y007671D02*
X011588Y007671D01*
X011686Y007572D02*
X011976Y007572D01*
X011785Y007474D02*
X017451Y007474D01*
X017517Y007501D02*
X017281Y007403D01*
X017100Y007222D01*
X017002Y006986D01*
X017002Y006731D01*
X017100Y006495D01*
X017281Y006314D01*
X017517Y006217D01*
X017772Y006217D01*
X018008Y006314D01*
X018189Y006495D01*
X018287Y006731D01*
X018287Y006986D01*
X018189Y007222D01*
X018008Y007403D01*
X017772Y007501D01*
X017517Y007501D01*
X017253Y007375D02*
X011883Y007375D01*
X011982Y007277D02*
X017155Y007277D01*
X017082Y007178D02*
X012080Y007178D01*
X012179Y007080D02*
X017041Y007080D01*
X017002Y006784D02*
X012375Y006784D01*
X012375Y006686D02*
X017021Y006686D01*
X017062Y006587D02*
X012375Y006587D01*
X012375Y006489D02*
X017106Y006489D01*
X017205Y006390D02*
X012375Y006390D01*
X012375Y006292D02*
X017335Y006292D01*
X017954Y006292D02*
X019095Y006292D01*
X019095Y006390D02*
X018084Y006390D01*
X018183Y006489D02*
X019095Y006489D01*
X019095Y006587D02*
X018227Y006587D01*
X018268Y006686D02*
X019095Y006686D01*
X019095Y006784D02*
X018287Y006784D01*
X018287Y006883D02*
X019095Y006883D01*
X019095Y006981D02*
X018287Y006981D01*
X018248Y007080D02*
X019095Y007080D01*
X019095Y007178D02*
X018207Y007178D01*
X018135Y007277D02*
X019095Y007277D01*
X019095Y007375D02*
X018036Y007375D01*
X017838Y007474D02*
X019095Y007474D01*
X019095Y007572D02*
X015934Y007572D01*
X016035Y007671D02*
X019095Y007671D01*
X019095Y007769D02*
X016134Y007769D01*
X016232Y007868D02*
X019095Y007868D01*
X019095Y007966D02*
X016331Y007966D01*
X016429Y008065D02*
X019095Y008065D01*
X019095Y008163D02*
X016528Y008163D01*
X016626Y008262D02*
X019095Y008262D01*
X019095Y008360D02*
X018686Y008360D01*
X018504Y008360D02*
X016725Y008360D01*
X016823Y008459D02*
X018310Y008459D01*
X018879Y008459D02*
X019095Y008459D01*
X019095Y008557D02*
X018975Y008557D01*
X019016Y008656D02*
X019095Y008656D01*
X019095Y008754D02*
X019042Y008754D01*
X019042Y008853D02*
X019095Y008853D01*
X019095Y008951D02*
X019018Y008951D01*
X018978Y009050D02*
X019095Y009050D01*
X019095Y009148D02*
X018885Y009148D01*
X018880Y009247D02*
X019095Y009247D01*
X019095Y009345D02*
X018976Y009345D01*
X019016Y009444D02*
X019095Y009444D01*
X019095Y009542D02*
X019042Y009542D01*
X019042Y009641D02*
X019095Y009641D01*
X019095Y009739D02*
X019018Y009739D01*
X018977Y009838D02*
X019095Y009838D01*
X019095Y009936D02*
X018884Y009936D01*
X018880Y010035D02*
X019095Y010035D01*
X019095Y010133D02*
X018976Y010133D01*
X019017Y010232D02*
X019095Y010232D01*
X019095Y010330D02*
X019042Y010330D01*
X019042Y010429D02*
X019095Y010429D01*
X019095Y010527D02*
X019018Y010527D01*
X018977Y010626D02*
X019095Y010626D01*
X019095Y010724D02*
X018884Y010724D01*
X018696Y010823D02*
X019095Y010823D01*
X019095Y010921D02*
X017513Y010921D01*
X017611Y011020D02*
X019095Y011020D01*
X019095Y011118D02*
X017710Y011118D01*
X017808Y011217D02*
X019095Y011217D01*
X019095Y011315D02*
X017907Y011315D01*
X018005Y011414D02*
X019095Y011414D01*
X019095Y011512D02*
X018104Y011512D01*
X018202Y011611D02*
X019095Y011611D01*
X019095Y011709D02*
X018301Y011709D01*
X018798Y011808D02*
X019095Y011808D01*
X019095Y011906D02*
X018798Y011906D01*
X018798Y012005D02*
X019095Y012005D01*
X019095Y012103D02*
X018798Y012103D01*
X018798Y012202D02*
X019095Y012202D01*
X019095Y012300D02*
X018798Y012300D01*
X018798Y012399D02*
X019095Y012399D01*
X019095Y012497D02*
X018745Y012497D01*
X019095Y012596D02*
X016560Y012596D01*
X016650Y012497D02*
X016195Y012497D01*
X016331Y012399D02*
X016514Y012399D01*
X016448Y012300D02*
X016397Y012300D01*
X016659Y012694D02*
X019095Y012694D01*
X019095Y012793D02*
X016757Y012793D01*
X016856Y012891D02*
X019095Y012891D01*
X019095Y012990D02*
X016954Y012990D01*
X017053Y013088D02*
X019095Y013088D01*
X019095Y013187D02*
X017151Y013187D01*
X017250Y013285D02*
X019095Y013285D01*
X019095Y013384D02*
X017348Y013384D01*
X017447Y013482D02*
X019095Y013482D01*
X019095Y013581D02*
X017545Y013581D01*
X017644Y013679D02*
X019095Y013679D01*
X019095Y013778D02*
X017742Y013778D01*
X017841Y013876D02*
X019095Y013876D01*
X019095Y013975D02*
X017939Y013975D01*
X018038Y014073D02*
X019095Y014073D01*
X019095Y014172D02*
X018136Y014172D01*
X018235Y014270D02*
X019095Y014270D01*
X019095Y014369D02*
X018333Y014369D01*
X018394Y014467D02*
X019095Y014467D01*
X019095Y014566D02*
X018415Y014566D01*
X018415Y014664D02*
X019094Y014664D01*
X019077Y014763D02*
X018415Y014763D01*
X018415Y014861D02*
X019060Y014861D01*
X019043Y014960D02*
X018415Y014960D01*
X018606Y015058D02*
X019026Y015058D01*
X019008Y015157D02*
X018606Y015157D01*
X018606Y015255D02*
X018974Y015255D01*
X018940Y015354D02*
X018606Y015354D01*
X018606Y015452D02*
X018901Y015452D01*
X018888Y015551D02*
X018606Y015551D01*
X018606Y015649D02*
X018878Y015649D01*
X018867Y015748D02*
X018552Y015748D01*
X018856Y015846D02*
X016997Y015846D01*
X017035Y015945D02*
X018845Y015945D01*
X018833Y016043D02*
X017035Y016043D01*
X017035Y016142D02*
X018822Y016142D01*
X018811Y016240D02*
X017035Y016240D01*
X017082Y016339D02*
X018800Y016339D01*
X018788Y016437D02*
X017115Y016437D01*
X017115Y016536D02*
X018774Y016536D01*
X018771Y016634D02*
X017076Y016634D01*
X016989Y016733D02*
X018778Y016733D01*
X018780Y016831D02*
X016044Y016831D01*
X016084Y016733D02*
X016620Y016733D01*
X016534Y016634D02*
X016114Y016634D01*
X016114Y016536D02*
X016495Y016536D01*
X016495Y016437D02*
X016099Y016437D01*
X016059Y016339D02*
X016527Y016339D01*
X016575Y016240D02*
X015984Y016240D01*
X015854Y016142D02*
X016575Y016142D01*
X016544Y016043D02*
X015440Y016043D01*
X015345Y015945D02*
X015342Y015945D01*
X015246Y015846D02*
X015243Y015846D01*
X015200Y015748D02*
X015145Y015748D01*
X015164Y015649D02*
X015046Y015649D01*
X015164Y015551D02*
X014310Y015551D01*
X014217Y015452D02*
X015172Y015452D01*
X015100Y015354D02*
X014351Y015354D01*
X013925Y015473D02*
X013814Y015427D01*
X013698Y015312D01*
X013636Y015161D01*
X013636Y014998D01*
X013698Y014847D01*
X013814Y014732D01*
X013925Y014686D01*
X013814Y014639D01*
X013698Y014524D01*
X013636Y014373D01*
X013636Y014210D01*
X013698Y014060D01*
X013814Y013944D01*
X013928Y013897D01*
X013889Y013884D01*
X013831Y013855D01*
X013779Y013817D01*
X013733Y013772D01*
X013695Y013719D01*
X013666Y013662D01*
X013646Y013600D01*
X013636Y013537D01*
X013636Y013534D01*
X014016Y013534D01*
X014016Y013474D01*
X013638Y013474D01*
X013615Y013498D01*
X013615Y014971D01*
X013567Y015085D01*
X013031Y015621D01*
X013031Y016095D01*
X012943Y016183D01*
X012469Y016183D01*
X011998Y016654D01*
X011911Y016742D01*
X011797Y016789D01*
X011378Y016789D01*
X011378Y017514D01*
X011671Y017807D01*
X011759Y017894D01*
X011806Y018008D01*
X011806Y018207D01*
X011871Y018272D01*
X011871Y019296D01*
X011783Y019384D01*
X011765Y019384D01*
X011765Y019771D01*
X011915Y019771D01*
X012003Y019859D01*
X012003Y020583D01*
X011915Y020671D01*
X011765Y020671D01*
X011765Y020840D01*
X011717Y020954D01*
X011630Y021042D01*
X011516Y021089D01*
X011393Y021089D01*
X011279Y021042D01*
X011192Y020954D01*
X011145Y020840D01*
X011145Y020671D01*
X011015Y020671D01*
X011015Y021044D01*
X011441Y021471D01*
X011915Y021471D01*
X012003Y021559D01*
X012200Y021559D01*
X012200Y021558D02*
X012288Y021470D01*
X013212Y021470D01*
X013300Y021558D01*
X013300Y021610D01*
X014233Y021610D01*
X014258Y021620D01*
X013829Y021192D01*
X013742Y021104D01*
X013695Y020990D01*
X013695Y020972D01*
X013636Y020913D01*
X013636Y020649D01*
X013329Y020342D01*
X013300Y020313D01*
X013300Y020582D01*
X013212Y020670D01*
X012765Y020670D01*
X012765Y020840D01*
X012717Y020954D01*
X012630Y021042D01*
X012516Y021089D01*
X012393Y021089D01*
X012279Y021042D01*
X012192Y020954D01*
X012145Y020840D01*
X012145Y020454D01*
X012192Y020340D01*
X012200Y020331D01*
X012200Y019858D01*
X012288Y019770D01*
X013195Y019770D01*
X013195Y017667D01*
X013242Y017553D01*
X013329Y017466D01*
X013443Y017419D01*
X013566Y017419D01*
X013636Y017448D01*
X013636Y017360D01*
X013698Y017209D01*
X013814Y017094D01*
X013925Y017048D01*
X013814Y017002D01*
X013698Y016886D01*
X013636Y016736D01*
X013636Y016573D01*
X013698Y016422D01*
X013814Y016307D01*
X013925Y016260D01*
X013814Y016214D01*
X013698Y016099D01*
X013636Y015948D01*
X013636Y015785D01*
X013698Y015634D01*
X013814Y015519D01*
X013925Y015473D01*
X013875Y015452D02*
X013200Y015452D01*
X013299Y015354D02*
X013741Y015354D01*
X013675Y015255D02*
X013397Y015255D01*
X013496Y015157D02*
X013636Y015157D01*
X013636Y015058D02*
X013579Y015058D01*
X013615Y014960D02*
X013652Y014960D01*
X013615Y014861D02*
X013693Y014861D01*
X013615Y014763D02*
X013783Y014763D01*
X013874Y014664D02*
X013615Y014664D01*
X013615Y014566D02*
X013740Y014566D01*
X013675Y014467D02*
X013615Y014467D01*
X013615Y014369D02*
X013636Y014369D01*
X013636Y014270D02*
X013615Y014270D01*
X013615Y014172D02*
X013652Y014172D01*
X013615Y014073D02*
X013693Y014073D01*
X013615Y013975D02*
X013783Y013975D01*
X013873Y013876D02*
X013615Y013876D01*
X013615Y013778D02*
X013739Y013778D01*
X013675Y013679D02*
X013615Y013679D01*
X013615Y013581D02*
X013643Y013581D01*
X013630Y013482D02*
X014016Y013482D01*
X014076Y013482D02*
X015164Y013482D01*
X015164Y013384D02*
X014438Y013384D01*
X014394Y013285D02*
X015249Y013285D01*
X015347Y013187D02*
X014306Y013187D01*
X014449Y013581D02*
X015601Y013581D01*
X015676Y013581D02*
X016668Y013581D01*
X016570Y013482D02*
X016114Y013482D01*
X016114Y013384D02*
X016471Y013384D01*
X016373Y013285D02*
X016029Y013285D01*
X015930Y013187D02*
X016274Y013187D01*
X016114Y013679D02*
X016767Y013679D01*
X016865Y013778D02*
X016100Y013778D01*
X016001Y013876D02*
X016964Y013876D01*
X017062Y013975D02*
X015903Y013975D01*
X015915Y014172D02*
X017259Y014172D01*
X017161Y014073D02*
X015470Y014073D01*
X015375Y013975D02*
X014309Y013975D01*
X014219Y013876D02*
X015276Y013876D01*
X015178Y013778D02*
X014353Y013778D01*
X014417Y013679D02*
X015164Y013679D01*
X015601Y013679D02*
X015676Y013679D01*
X015676Y013778D02*
X015601Y013778D01*
X015601Y013876D02*
X015676Y013876D01*
X015676Y013975D02*
X015601Y013975D01*
X016014Y014270D02*
X017358Y014270D01*
X017456Y014369D02*
X016071Y014369D01*
X016112Y014467D02*
X017555Y014467D01*
X017653Y014566D02*
X016114Y014566D01*
X016113Y014664D02*
X017752Y014664D01*
X017795Y014763D02*
X016072Y014763D01*
X016016Y014861D02*
X017795Y014861D01*
X017795Y014960D02*
X016111Y014960D01*
X016209Y015058D02*
X017152Y015058D01*
X017065Y015157D02*
X016308Y015157D01*
X016406Y015255D02*
X017021Y015255D01*
X017011Y015452D02*
X016603Y015452D01*
X016505Y015354D02*
X017382Y015354D01*
X017382Y015452D02*
X017440Y015452D01*
X017440Y015551D02*
X017382Y015551D01*
X017382Y015649D02*
X017440Y015649D01*
X017440Y015748D02*
X017382Y015748D01*
X017247Y015748D02*
X016899Y015748D01*
X016800Y015649D02*
X017110Y015649D01*
X017044Y015551D02*
X016702Y015551D01*
X016347Y015846D02*
X016031Y015846D01*
X016078Y015748D02*
X016248Y015748D01*
X016150Y015649D02*
X016114Y015649D01*
X015933Y015945D02*
X016445Y015945D01*
X017382Y015255D02*
X017440Y015255D01*
X017440Y015157D02*
X017382Y015157D01*
X017382Y015058D02*
X017440Y015058D01*
X017670Y015058D02*
X017791Y015058D01*
X017791Y015157D02*
X017757Y015157D01*
X017778Y015551D02*
X017791Y015551D01*
X017791Y015649D02*
X017712Y015649D01*
X017845Y015748D02*
X017575Y015748D01*
X018783Y016930D02*
X015948Y016930D01*
X015766Y017028D02*
X018785Y017028D01*
X018787Y017127D02*
X015817Y017127D01*
X015969Y017225D02*
X018789Y017225D01*
X018791Y017324D02*
X016052Y017324D01*
X016093Y017422D02*
X018785Y017422D01*
X018796Y017521D02*
X016114Y017521D01*
X016114Y017619D02*
X018815Y017619D01*
X018830Y017718D02*
X016091Y017718D01*
X016050Y017816D02*
X018845Y017816D01*
X018860Y017915D02*
X018566Y017915D01*
X018606Y017954D02*
X018606Y018594D01*
X018518Y018681D01*
X017879Y018681D01*
X017791Y018594D01*
X017791Y018423D01*
X017789Y018430D01*
X017759Y018488D01*
X017722Y018539D01*
X017676Y018585D01*
X017624Y018623D01*
X017567Y018652D01*
X017506Y018671D01*
X017443Y018681D01*
X017440Y018681D01*
X017440Y018303D01*
X017382Y018303D01*
X017382Y018681D01*
X017379Y018681D01*
X017315Y018671D01*
X017254Y018652D01*
X017197Y018623D01*
X017145Y018585D01*
X017100Y018539D01*
X017062Y018488D01*
X017033Y018430D01*
X017013Y018369D01*
X017003Y018306D01*
X017003Y018303D01*
X017382Y018303D01*
X017382Y018245D01*
X017440Y018245D01*
X017440Y017867D01*
X017443Y017867D01*
X017506Y017877D01*
X017567Y017896D01*
X017624Y017926D01*
X017676Y017963D01*
X017722Y018009D01*
X017759Y018060D01*
X017789Y018118D01*
X017791Y018125D01*
X017791Y017954D01*
X017879Y017867D01*
X018518Y017867D01*
X018606Y017954D01*
X018606Y018013D02*
X018875Y018013D01*
X018891Y018112D02*
X018606Y018112D01*
X018606Y018210D02*
X018905Y018210D01*
X018923Y018309D02*
X018606Y018309D01*
X018606Y018407D02*
X018941Y018407D01*
X018959Y018506D02*
X018606Y018506D01*
X018595Y018604D02*
X018976Y018604D01*
X018994Y018703D02*
X016097Y018703D01*
X016114Y018604D02*
X017172Y018604D01*
X017076Y018506D02*
X016114Y018506D01*
X016087Y018407D02*
X017026Y018407D01*
X017004Y018309D02*
X016046Y018309D01*
X015954Y018210D02*
X017008Y018210D01*
X017013Y018179D02*
X017033Y018118D01*
X017062Y018060D01*
X017100Y018009D01*
X017145Y017963D01*
X017197Y017926D01*
X017254Y017896D01*
X017315Y017877D01*
X017379Y017867D01*
X017382Y017867D01*
X017382Y018245D01*
X017003Y018245D01*
X017003Y018242D01*
X017013Y018179D01*
X017036Y018112D02*
X015781Y018112D01*
X015803Y018013D02*
X017097Y018013D01*
X017218Y017915D02*
X015963Y017915D01*
X015475Y018013D02*
X015410Y018013D01*
X015315Y017915D02*
X015312Y017915D01*
X015228Y017816D02*
X015213Y017816D01*
X015187Y017718D02*
X015115Y017718D01*
X015164Y017619D02*
X015016Y017619D01*
X014918Y017521D02*
X015164Y017521D01*
X015169Y017422D02*
X014819Y017422D01*
X014721Y017324D02*
X015070Y017324D01*
X014972Y017225D02*
X014622Y017225D01*
X014775Y017028D02*
X014214Y017028D01*
X014311Y017127D02*
X014873Y017127D01*
X014676Y016930D02*
X014350Y016930D01*
X013878Y017028D02*
X013276Y017028D01*
X013178Y017127D02*
X013781Y017127D01*
X013692Y017225D02*
X013079Y017225D01*
X013078Y017226D02*
X013078Y017700D01*
X012990Y017788D01*
X012266Y017788D01*
X012178Y017700D01*
X012178Y016776D01*
X012266Y016688D01*
X012740Y016688D01*
X012993Y016435D01*
X012977Y016394D01*
X012977Y016263D01*
X013026Y016143D01*
X013119Y016051D01*
X013239Y016001D01*
X013370Y016001D01*
X013490Y016051D01*
X013583Y016143D01*
X013633Y016263D01*
X013633Y016394D01*
X013615Y016438D01*
X013615Y016500D01*
X013615Y016623D01*
X013567Y016737D01*
X013078Y017226D01*
X013078Y017324D02*
X013651Y017324D01*
X013636Y017422D02*
X013575Y017422D01*
X013434Y017422D02*
X013078Y017422D01*
X013078Y017521D02*
X013274Y017521D01*
X013214Y017619D02*
X013078Y017619D01*
X013061Y017718D02*
X013195Y017718D01*
X013195Y017816D02*
X011681Y017816D01*
X011767Y017915D02*
X013195Y017915D01*
X013195Y018013D02*
X011806Y018013D01*
X011806Y018112D02*
X013195Y018112D01*
X013195Y018210D02*
X012956Y018210D01*
X012963Y018214D02*
X012991Y018242D01*
X013011Y018276D01*
X013021Y018315D01*
X013021Y018734D01*
X012696Y018734D01*
X012696Y018184D01*
X012891Y018184D01*
X012929Y018195D01*
X012963Y018214D01*
X013019Y018309D02*
X013195Y018309D01*
X013195Y018407D02*
X013021Y018407D01*
X013021Y018506D02*
X013195Y018506D01*
X013195Y018604D02*
X013021Y018604D01*
X013021Y018703D02*
X013195Y018703D01*
X013195Y018801D02*
X012696Y018801D01*
X012696Y018834D02*
X013021Y018834D01*
X013021Y019254D01*
X013011Y019292D01*
X012991Y019326D01*
X012963Y019354D01*
X012929Y019374D01*
X012891Y019384D01*
X012696Y019384D01*
X012696Y018834D01*
X012696Y018734D01*
X012596Y018734D01*
X012596Y018184D01*
X012401Y018184D01*
X012363Y018195D01*
X012329Y018214D01*
X012301Y018242D01*
X012281Y018276D01*
X012271Y018315D01*
X012271Y018734D01*
X012596Y018734D01*
X012596Y018834D01*
X012271Y018834D01*
X012271Y019254D01*
X012281Y019292D01*
X012301Y019326D01*
X012329Y019354D01*
X012363Y019374D01*
X012401Y019384D01*
X012596Y019384D01*
X012596Y018834D01*
X012696Y018834D01*
X012696Y018900D02*
X012596Y018900D01*
X012596Y018998D02*
X012696Y018998D01*
X012696Y019097D02*
X012596Y019097D01*
X012596Y019195D02*
X012696Y019195D01*
X012696Y019294D02*
X012596Y019294D01*
X012282Y019294D02*
X011871Y019294D01*
X011871Y019195D02*
X012271Y019195D01*
X012271Y019097D02*
X011871Y019097D01*
X011871Y018998D02*
X012271Y018998D01*
X012271Y018900D02*
X011871Y018900D01*
X011871Y018801D02*
X012596Y018801D01*
X012596Y018703D02*
X012696Y018703D01*
X012696Y018604D02*
X012596Y018604D01*
X012596Y018506D02*
X012696Y018506D01*
X012696Y018407D02*
X012596Y018407D01*
X012596Y018309D02*
X012696Y018309D01*
X012696Y018210D02*
X012596Y018210D01*
X012336Y018210D02*
X011809Y018210D01*
X011871Y018309D02*
X012272Y018309D01*
X012271Y018407D02*
X011871Y018407D01*
X011871Y018506D02*
X012271Y018506D01*
X012271Y018604D02*
X011871Y018604D01*
X011871Y018703D02*
X012271Y018703D01*
X011765Y019392D02*
X013195Y019392D01*
X013195Y019294D02*
X013010Y019294D01*
X013021Y019195D02*
X013195Y019195D01*
X013195Y019097D02*
X013021Y019097D01*
X013021Y018998D02*
X013195Y018998D01*
X013195Y018900D02*
X013021Y018900D01*
X013195Y019491D02*
X011765Y019491D01*
X011765Y019589D02*
X013195Y019589D01*
X013195Y019688D02*
X011765Y019688D01*
X011930Y019786D02*
X012272Y019786D01*
X012200Y019885D02*
X012003Y019885D01*
X012003Y019983D02*
X012200Y019983D01*
X012200Y020082D02*
X012003Y020082D01*
X012003Y020180D02*
X012200Y020180D01*
X012200Y020279D02*
X012003Y020279D01*
X012003Y020377D02*
X012176Y020377D01*
X012145Y020476D02*
X012003Y020476D01*
X012003Y020574D02*
X012145Y020574D01*
X012145Y020673D02*
X011765Y020673D01*
X011765Y020771D02*
X012145Y020771D01*
X012157Y020870D02*
X011752Y020870D01*
X011703Y020968D02*
X012206Y020968D01*
X012340Y021067D02*
X011569Y021067D01*
X011340Y021067D02*
X011037Y021067D01*
X011015Y020968D02*
X011206Y020968D01*
X011157Y020870D02*
X011015Y020870D01*
X011015Y020771D02*
X011145Y020771D01*
X011145Y020673D02*
X011015Y020673D01*
X011136Y021165D02*
X013803Y021165D01*
X013726Y021067D02*
X012569Y021067D01*
X012703Y020968D02*
X013691Y020968D01*
X013636Y020870D02*
X012752Y020870D01*
X012765Y020771D02*
X013636Y020771D01*
X013636Y020673D02*
X012765Y020673D01*
X013300Y020574D02*
X013562Y020574D01*
X013463Y020476D02*
X013300Y020476D01*
X013300Y020377D02*
X013365Y020377D01*
X013901Y021264D02*
X011234Y021264D01*
X011333Y021362D02*
X014000Y021362D01*
X014098Y021461D02*
X011431Y021461D01*
X012003Y021559D02*
X012003Y021610D01*
X012200Y021610D01*
X012200Y021558D01*
X013300Y021559D02*
X014197Y021559D01*
X014205Y022429D02*
X014855Y023079D01*
X015881Y023079D01*
X016058Y023256D01*
X017042Y023256D01*
X017633Y022665D01*
X017633Y021406D01*
X017436Y021209D01*
X016592Y021209D01*
X016589Y021206D01*
X016589Y021516D02*
X016597Y021524D01*
X017239Y021524D01*
X017433Y021799D02*
X016176Y021799D01*
X016176Y022272D01*
X017433Y022272D01*
X017433Y021799D01*
X017433Y021855D02*
X016176Y021855D01*
X016176Y021953D02*
X017433Y021953D01*
X017433Y022052D02*
X016176Y022052D01*
X016176Y022150D02*
X017433Y022150D01*
X017433Y022249D02*
X016176Y022249D01*
X015805Y023279D02*
X015979Y023453D01*
X017121Y023453D01*
X017830Y022744D01*
X017830Y021602D01*
X017909Y021524D01*
X018000Y021264D02*
X019095Y021264D01*
X019095Y021362D02*
X018136Y021362D01*
X018180Y021461D02*
X019095Y021461D01*
X019095Y021559D02*
X018184Y021559D01*
X018151Y021658D02*
X019095Y021658D01*
X019095Y021756D02*
X018065Y021756D01*
X018030Y021855D02*
X019095Y021855D01*
X019095Y021953D02*
X018030Y021953D01*
X018030Y022052D02*
X019095Y022052D01*
X019095Y022150D02*
X018030Y022150D01*
X018030Y022249D02*
X019095Y022249D01*
X019095Y022347D02*
X018968Y022347D01*
X019094Y022446D02*
X019095Y022446D01*
X019095Y022966D02*
X019044Y023017D01*
X018979Y023061D01*
X018906Y023091D01*
X018829Y023106D01*
X018552Y023106D01*
X018552Y022719D01*
X018527Y022719D01*
X018527Y023106D01*
X018381Y023106D01*
X018429Y023126D01*
X018648Y023346D01*
X018767Y023632D01*
X018767Y023943D01*
X018648Y024229D01*
X018429Y024449D01*
X018142Y024567D01*
X017832Y024567D01*
X017546Y024449D01*
X017326Y024229D01*
X017207Y023943D01*
X017207Y023649D01*
X017204Y023653D01*
X016723Y023653D01*
X016752Y023681D01*
X016777Y023725D01*
X016791Y023775D01*
X016791Y023894D01*
X016503Y023894D01*
X016503Y023969D01*
X016791Y023969D01*
X016791Y024088D01*
X016777Y024138D01*
X016752Y024182D01*
X016716Y024218D01*
X016698Y024228D01*
X016791Y024320D01*
X016791Y024743D01*
X016677Y024856D01*
X016254Y024856D01*
X016159Y024761D01*
X016070Y024761D01*
X015993Y024839D01*
X015420Y024839D01*
X015306Y024726D01*
X015306Y024303D01*
X015420Y024189D01*
X015993Y024189D01*
X016105Y024301D01*
X016159Y024301D01*
X016233Y024228D01*
X016215Y024218D01*
X016179Y024182D01*
X016154Y024138D01*
X016141Y024088D01*
X016141Y023969D01*
X016428Y023969D01*
X016428Y023894D01*
X016141Y023894D01*
X016141Y023775D01*
X016154Y023725D01*
X016179Y023681D01*
X016208Y023653D01*
X016106Y023653D01*
X016106Y024026D01*
X015993Y024139D01*
X015420Y024139D01*
X015306Y024026D01*
X015306Y023868D01*
X015293Y023873D01*
X015293Y024136D01*
X015183Y024246D01*
X015293Y024356D01*
X015293Y024736D01*
X015183Y024846D01*
X014753Y024846D01*
X014683Y024776D01*
X014613Y024776D01*
X014542Y024847D01*
X014111Y024847D01*
X014041Y024777D01*
X013939Y024777D01*
X013884Y024832D01*
X013461Y024832D01*
X013348Y024718D01*
X013348Y024295D01*
X013354Y024289D01*
X013043Y024289D01*
X012929Y024242D01*
X012842Y024154D01*
X012795Y024040D01*
X012795Y023917D01*
X012842Y023803D01*
X012929Y023716D01*
X013043Y023669D01*
X013374Y023669D01*
X013461Y023582D01*
X013884Y023582D01*
X013998Y023695D01*
X013998Y024118D01*
X013909Y024207D01*
X013998Y024295D01*
X013998Y024317D01*
X014041Y024317D01*
X014111Y024247D01*
X014542Y024247D01*
X014611Y024316D01*
X014683Y024316D01*
X014753Y024246D01*
X014648Y024141D01*
X014542Y024247D01*
X014111Y024247D01*
X014002Y024137D01*
X014002Y023757D01*
X014031Y023728D01*
X013995Y023640D01*
X013995Y023517D01*
X014042Y023403D01*
X014129Y023316D01*
X014243Y023269D01*
X014366Y023269D01*
X014444Y023301D01*
X014065Y022922D01*
X014065Y023040D01*
X014017Y023154D01*
X013930Y023242D01*
X013816Y023289D01*
X013727Y023289D01*
X013655Y023362D01*
X013537Y023479D01*
X011787Y023479D01*
X011765Y023502D01*
X011765Y023590D01*
X011717Y023704D01*
X011687Y023735D01*
X011790Y023838D01*
X011790Y024261D01*
X011701Y024350D01*
X011790Y024438D01*
X011790Y024861D01*
X011676Y024975D01*
X011492Y024975D01*
X011399Y025067D01*
X011341Y025125D01*
X018228Y025125D01*
X018364Y025114D01*
X018622Y025031D01*
X018841Y024871D01*
X019000Y024652D01*
X019084Y024394D01*
X019095Y024259D01*
X019095Y022966D01*
X019095Y023037D02*
X019014Y023037D01*
X019095Y023135D02*
X018438Y023135D01*
X018527Y023037D02*
X018552Y023037D01*
X018552Y022938D02*
X018527Y022938D01*
X018527Y022840D02*
X018552Y022840D01*
X018552Y022741D02*
X018527Y022741D01*
X018527Y022643D02*
X018552Y022643D01*
X018552Y022544D02*
X018527Y022544D01*
X018527Y022446D02*
X018552Y022446D01*
X018552Y022347D02*
X018527Y022347D01*
X018110Y022347D02*
X018030Y022347D01*
X018537Y023234D02*
X019095Y023234D01*
X019095Y023332D02*
X018635Y023332D01*
X018684Y023431D02*
X019095Y023431D01*
X019095Y023529D02*
X018725Y023529D01*
X018765Y023628D02*
X019095Y023628D01*
X019095Y023726D02*
X018767Y023726D01*
X018767Y023825D02*
X019095Y023825D01*
X019095Y023923D02*
X018767Y023923D01*
X018734Y024022D02*
X019095Y024022D01*
X019095Y024120D02*
X018694Y024120D01*
X018653Y024219D02*
X019095Y024219D01*
X019090Y024317D02*
X018560Y024317D01*
X018462Y024416D02*
X019077Y024416D01*
X019045Y024514D02*
X018270Y024514D01*
X018654Y025007D02*
X011459Y025007D01*
X011361Y025105D02*
X018392Y025105D01*
X018790Y024908D02*
X012891Y024908D01*
X012881Y024918D02*
X012734Y024979D01*
X012575Y024979D01*
X012428Y024918D01*
X012316Y024805D01*
X012255Y024658D01*
X012255Y024499D01*
X012316Y024352D01*
X012428Y024240D01*
X012575Y024179D01*
X012734Y024179D01*
X012881Y024240D01*
X012994Y024352D01*
X013055Y024499D01*
X013055Y024658D01*
X012994Y024805D01*
X012881Y024918D01*
X012989Y024810D02*
X013439Y024810D01*
X013348Y024711D02*
X013033Y024711D01*
X013055Y024613D02*
X013348Y024613D01*
X013348Y024514D02*
X013055Y024514D01*
X013020Y024416D02*
X013348Y024416D01*
X013348Y024317D02*
X012959Y024317D01*
X012906Y024219D02*
X012831Y024219D01*
X012828Y024120D02*
X011790Y024120D01*
X011790Y024022D02*
X012795Y024022D01*
X012795Y023923D02*
X011790Y023923D01*
X011776Y023825D02*
X012833Y023825D01*
X012919Y023726D02*
X011695Y023726D01*
X011749Y023628D02*
X013415Y023628D01*
X013585Y023431D02*
X014030Y023431D01*
X013995Y023529D02*
X011765Y023529D01*
X011705Y023279D02*
X011455Y023529D01*
X011455Y024040D01*
X011465Y024050D01*
X011790Y024219D02*
X012478Y024219D01*
X012350Y024317D02*
X011733Y024317D01*
X011767Y024416D02*
X012289Y024416D01*
X012255Y024514D02*
X011790Y024514D01*
X011790Y024613D02*
X012255Y024613D01*
X012277Y024711D02*
X011790Y024711D01*
X011790Y024810D02*
X012320Y024810D01*
X012418Y024908D02*
X011742Y024908D01*
X011465Y024719D02*
X011200Y024984D01*
X008934Y024984D01*
X008055Y024105D01*
X008055Y023126D01*
X008567Y023126D02*
X008567Y023126D01*
X008567Y023126D01*
X008567Y023571D01*
X008665Y023571D01*
X008678Y023568D01*
X008682Y023571D01*
X010433Y023571D01*
X010405Y023600D01*
X010405Y023728D01*
X010371Y023762D01*
X010266Y023719D01*
X010143Y023719D01*
X010029Y023766D01*
X009942Y023853D01*
X009895Y023967D01*
X009895Y024090D01*
X009942Y024204D01*
X010029Y024292D01*
X010143Y024339D01*
X010266Y024339D01*
X010374Y024294D01*
X010406Y024326D01*
X010318Y024415D01*
X010318Y024426D01*
X009235Y024426D01*
X008715Y023906D01*
X008715Y023817D01*
X008667Y023703D01*
X008580Y023616D01*
X008472Y023571D01*
X008567Y023571D01*
X008567Y023126D01*
X008567Y022681D01*
X008665Y022681D01*
X008678Y022684D01*
X008682Y022681D01*
X010499Y022681D01*
X010587Y022768D01*
X010587Y023418D01*
X011009Y022996D01*
X011126Y022879D01*
X012910Y022879D01*
X012931Y022829D01*
X010672Y022829D01*
X009902Y022059D01*
X009902Y020717D01*
X009705Y020717D01*
X009702Y020713D01*
X009689Y020717D01*
X009590Y020717D01*
X009492Y020717D01*
X009479Y020713D01*
X009475Y020717D01*
X008938Y020717D01*
X008934Y020713D01*
X008921Y020717D01*
X008823Y020717D01*
X008823Y020272D01*
X008823Y020272D01*
X008823Y020717D01*
X008767Y020717D01*
X008767Y020850D01*
X008017Y021599D01*
X008596Y021599D01*
X008629Y021566D01*
X008743Y021519D01*
X008866Y021519D01*
X008980Y021566D01*
X009067Y021653D01*
X009115Y021767D01*
X009115Y021890D01*
X009067Y022004D01*
X008980Y022092D01*
X008866Y022139D01*
X008743Y022139D01*
X008629Y022092D01*
X008596Y022059D01*
X008000Y022059D01*
X007883Y022176D01*
X007980Y022216D01*
X008067Y022303D01*
X008115Y022417D01*
X008115Y022540D01*
X008067Y022654D01*
X008041Y022681D01*
X008452Y022681D01*
X008455Y022684D01*
X008468Y022681D01*
X008567Y022681D01*
X008567Y023126D01*
X008567Y023135D02*
X008567Y023135D01*
X008567Y023037D02*
X008567Y023037D01*
X008567Y022938D02*
X008567Y022938D01*
X008567Y022840D02*
X008567Y022840D01*
X008567Y022741D02*
X008567Y022741D01*
X008113Y022544D02*
X010387Y022544D01*
X010289Y022446D02*
X008115Y022446D01*
X008086Y022347D02*
X010190Y022347D01*
X010092Y022249D02*
X008013Y022249D01*
X007908Y022150D02*
X009993Y022150D01*
X009902Y022052D02*
X009020Y022052D01*
X009089Y021953D02*
X009902Y021953D01*
X009902Y021855D02*
X009115Y021855D01*
X009110Y021756D02*
X009902Y021756D01*
X009902Y021658D02*
X009069Y021658D01*
X008964Y021559D02*
X009902Y021559D01*
X009902Y021461D02*
X008155Y021461D01*
X008057Y021559D02*
X008645Y021559D01*
X008352Y021264D02*
X009902Y021264D01*
X009902Y021362D02*
X008254Y021362D01*
X008451Y021165D02*
X009902Y021165D01*
X009902Y021067D02*
X008549Y021067D01*
X008648Y020968D02*
X009902Y020968D01*
X009902Y020870D02*
X008746Y020870D01*
X008767Y020771D02*
X009902Y020771D01*
X009590Y020717D02*
X009590Y020272D01*
X009590Y020717D01*
X009590Y020673D02*
X009590Y020673D01*
X009590Y020574D02*
X009590Y020574D01*
X009590Y020476D02*
X009590Y020476D01*
X009590Y020377D02*
X009590Y020377D01*
X009590Y020279D02*
X009590Y020279D01*
X009590Y020272D02*
X009590Y020272D01*
X009334Y020272D02*
X009334Y019931D01*
X009436Y019829D01*
X009742Y019829D01*
X009846Y019933D01*
X009846Y020272D01*
X010102Y020272D02*
X010102Y021976D01*
X010755Y022629D01*
X014055Y022629D01*
X014705Y023279D01*
X015805Y023279D01*
X016106Y023726D02*
X016154Y023726D01*
X016141Y023825D02*
X016106Y023825D01*
X016106Y023923D02*
X016428Y023923D01*
X016503Y023923D02*
X017207Y023923D01*
X017207Y023825D02*
X016791Y023825D01*
X016778Y023726D02*
X017207Y023726D01*
X017240Y024022D02*
X016791Y024022D01*
X016782Y024120D02*
X017281Y024120D01*
X017322Y024219D02*
X016714Y024219D01*
X016788Y024317D02*
X017414Y024317D01*
X017513Y024416D02*
X016791Y024416D01*
X016791Y024514D02*
X017704Y024514D01*
X016791Y024613D02*
X019013Y024613D01*
X018957Y024711D02*
X016791Y024711D01*
X016724Y024810D02*
X018886Y024810D01*
X016207Y024810D02*
X016022Y024810D01*
X015390Y024810D02*
X015220Y024810D01*
X015293Y024711D02*
X015306Y024711D01*
X015293Y024613D02*
X015306Y024613D01*
X015293Y024514D02*
X015306Y024514D01*
X015293Y024416D02*
X015306Y024416D01*
X015306Y024317D02*
X015255Y024317D01*
X015183Y024246D02*
X014753Y024246D01*
X015183Y024246D01*
X015211Y024219D02*
X015390Y024219D01*
X015401Y024120D02*
X015293Y024120D01*
X015293Y024022D02*
X015306Y024022D01*
X015293Y023923D02*
X015306Y023923D01*
X014968Y023938D02*
X014759Y023728D01*
X014759Y023580D01*
X014758Y023579D01*
X014968Y023938D02*
X014968Y023946D01*
X014726Y024219D02*
X014570Y024219D01*
X014327Y023947D02*
X014327Y023601D01*
X014305Y023579D01*
X014030Y023726D02*
X013998Y023726D01*
X013995Y023628D02*
X013930Y023628D01*
X013998Y023825D02*
X014002Y023825D01*
X013998Y023923D02*
X014002Y023923D01*
X013998Y024022D02*
X014002Y024022D01*
X013995Y024120D02*
X014002Y024120D01*
X013921Y024219D02*
X014083Y024219D01*
X014074Y024810D02*
X013906Y024810D01*
X014579Y024810D02*
X014717Y024810D01*
X016022Y024219D02*
X016217Y024219D01*
X016149Y024120D02*
X016011Y024120D01*
X016106Y024022D02*
X016141Y024022D01*
X014377Y023234D02*
X013938Y023234D01*
X014025Y023135D02*
X014278Y023135D01*
X014180Y023037D02*
X014065Y023037D01*
X014065Y022938D02*
X014081Y022938D01*
X013755Y022979D02*
X013455Y023279D01*
X011705Y023279D01*
X011209Y023079D02*
X013105Y023079D01*
X013205Y022979D01*
X012927Y022840D02*
X010587Y022840D01*
X010587Y022938D02*
X011066Y022938D01*
X010968Y023037D02*
X010587Y023037D01*
X010587Y023135D02*
X010869Y023135D01*
X010771Y023234D02*
X010587Y023234D01*
X010587Y023332D02*
X010672Y023332D01*
X010605Y023683D02*
X011209Y023079D01*
X010584Y022741D02*
X010560Y022741D01*
X010486Y022643D02*
X008072Y022643D01*
X008567Y023234D02*
X008567Y023234D01*
X008567Y023332D02*
X008567Y023332D01*
X008567Y023431D02*
X008567Y023431D01*
X008567Y023529D02*
X008567Y023529D01*
X008592Y023628D02*
X010405Y023628D01*
X010405Y023726D02*
X010285Y023726D01*
X010125Y023726D02*
X008677Y023726D01*
X008715Y023825D02*
X009970Y023825D01*
X009913Y023923D02*
X008732Y023923D01*
X008831Y024022D02*
X009895Y024022D01*
X009907Y024120D02*
X008929Y024120D01*
X009028Y024219D02*
X009956Y024219D01*
X010091Y024317D02*
X009126Y024317D01*
X009225Y024416D02*
X010318Y024416D01*
X010318Y024317D02*
X010397Y024317D01*
X010643Y024026D02*
X010605Y023988D01*
X010605Y023683D01*
X010643Y024626D02*
X009152Y024626D01*
X008405Y023879D01*
X008182Y024514D02*
X008105Y024514D01*
X008059Y024613D02*
X008280Y024613D01*
X008379Y024711D02*
X007933Y024711D01*
X007677Y024711D02*
X005965Y024711D01*
X006063Y024613D02*
X007550Y024613D01*
X007505Y024514D02*
X006162Y024514D01*
X006260Y024416D02*
X007495Y024416D01*
X007515Y024317D02*
X006359Y024317D01*
X006457Y024219D02*
X007569Y024219D01*
X007569Y024120D02*
X007251Y024120D01*
X007331Y024022D02*
X007569Y024022D01*
X007569Y023923D02*
X007365Y023923D01*
X007365Y023825D02*
X007569Y023825D01*
X007569Y023726D02*
X007327Y023726D01*
X007261Y023628D02*
X007569Y023628D01*
X006858Y024120D02*
X006556Y024120D01*
X006654Y024022D02*
X006778Y024022D01*
X006605Y023789D02*
X005615Y024779D01*
X004868Y024779D01*
X004551Y024462D01*
X004226Y024416D02*
X004200Y024416D01*
X004179Y024514D02*
X004226Y024514D01*
X004226Y024613D02*
X004179Y024613D01*
X004117Y024711D02*
X004285Y024711D01*
X003875Y024459D02*
X004205Y024129D01*
X004205Y023602D01*
X004428Y023379D01*
X004664Y023379D01*
X005055Y022988D01*
X005055Y021929D01*
X005822Y021161D01*
X005822Y017092D01*
X005385Y016654D01*
X006565Y016634D02*
X006841Y016634D01*
X006841Y016536D02*
X006565Y016536D01*
X006565Y016437D02*
X006841Y016437D01*
X006841Y016339D02*
X006565Y016339D01*
X006565Y016240D02*
X006870Y016240D01*
X006841Y016269D02*
X006958Y016152D01*
X007574Y016152D01*
X007608Y016186D01*
X008100Y016186D01*
X008100Y015712D01*
X008107Y015695D01*
X008055Y015695D01*
X007941Y015647D01*
X007853Y015560D01*
X007806Y015446D01*
X007806Y014719D01*
X007747Y014660D01*
X007356Y014660D01*
X007264Y014567D01*
X007254Y014585D01*
X007217Y014621D01*
X007173Y014646D01*
X007124Y014660D01*
X007005Y014660D01*
X007005Y014372D01*
X006930Y014372D01*
X006930Y014660D01*
X006810Y014660D01*
X006761Y014646D01*
X006717Y014621D01*
X006681Y014585D01*
X006655Y014541D01*
X006642Y014491D01*
X006642Y014372D01*
X006930Y014372D01*
X006930Y014297D01*
X007005Y014297D01*
X007005Y014010D01*
X007124Y014010D01*
X007173Y014023D01*
X007217Y014048D01*
X007254Y014084D01*
X007264Y014102D01*
X007356Y014010D01*
X007779Y014010D01*
X007794Y014025D01*
X008229Y014025D01*
X008229Y013998D01*
X006924Y013998D01*
X006912Y014010D01*
X006930Y014010D01*
X006930Y014297D01*
X006642Y014297D01*
X006642Y014280D01*
X006565Y014357D01*
X006565Y021840D01*
X006517Y021954D01*
X006430Y022041D01*
X006316Y022088D01*
X006313Y022088D01*
X006313Y022356D01*
X006225Y022444D01*
X006241Y022460D01*
X006322Y022379D01*
X007984Y020717D01*
X007914Y020717D01*
X007910Y020713D01*
X007897Y020717D01*
X007799Y020717D01*
X007799Y020272D01*
X007799Y020272D01*
X007799Y020717D01*
X007700Y020717D01*
X007671Y020709D01*
X007642Y020717D01*
X007543Y020717D01*
X007445Y020717D01*
X007432Y020713D01*
X007428Y020717D01*
X006890Y020717D01*
X006802Y020629D01*
X006802Y019914D01*
X006890Y019826D01*
X007428Y019826D01*
X007432Y019830D01*
X007445Y019826D01*
X007543Y019826D01*
X007543Y020272D01*
X007543Y020717D01*
X007543Y020272D01*
X007543Y020272D01*
X007772Y020272D01*
X007799Y020272D01*
X007799Y020272D01*
X007543Y020272D01*
X007543Y020272D01*
X007543Y020272D01*
X007543Y019826D01*
X007642Y019826D01*
X007671Y019834D01*
X007700Y019826D01*
X007799Y019826D01*
X007897Y019826D01*
X007910Y019830D01*
X007914Y019826D01*
X008226Y019826D01*
X008192Y019792D01*
X008166Y019748D01*
X008153Y019699D01*
X008153Y019580D01*
X008441Y019580D01*
X008441Y019505D01*
X008153Y019505D01*
X008153Y019385D01*
X008166Y019336D01*
X008182Y019309D01*
X007753Y019309D01*
X007390Y018946D01*
X007179Y018946D01*
X007066Y018832D01*
X007066Y018409D01*
X007158Y018317D01*
X007140Y018307D01*
X007104Y018271D01*
X007079Y018227D01*
X007066Y018177D01*
X007066Y018058D01*
X007353Y018058D01*
X007353Y017983D01*
X007428Y017983D01*
X007428Y017696D01*
X007547Y017696D01*
X007597Y017709D01*
X007641Y017734D01*
X007677Y017770D01*
X007702Y017815D01*
X007716Y017864D01*
X007716Y017983D01*
X007428Y017983D01*
X007428Y018058D01*
X007716Y018058D01*
X007716Y018177D01*
X007702Y018227D01*
X007677Y018271D01*
X007641Y018307D01*
X007623Y018317D01*
X007716Y018409D01*
X007716Y018620D01*
X007944Y018849D01*
X008135Y018849D01*
X008135Y018609D01*
X008397Y018609D01*
X008397Y018584D01*
X008135Y018584D01*
X008135Y018326D01*
X008144Y018293D01*
X008075Y018224D01*
X008075Y016833D01*
X008102Y016806D01*
X007619Y016806D01*
X007574Y016852D01*
X006958Y016852D01*
X006841Y016735D01*
X006841Y016269D01*
X006565Y016142D02*
X008100Y016142D01*
X008100Y016043D02*
X006565Y016043D01*
X006565Y015945D02*
X008100Y015945D01*
X008100Y015846D02*
X006565Y015846D01*
X006565Y015748D02*
X008100Y015748D01*
X007945Y015649D02*
X006565Y015649D01*
X006565Y015551D02*
X007850Y015551D01*
X007809Y015452D02*
X006565Y015452D01*
X006565Y015354D02*
X007806Y015354D01*
X007806Y015255D02*
X006565Y015255D01*
X006565Y015157D02*
X007806Y015157D01*
X007806Y015058D02*
X006565Y015058D01*
X006565Y014960D02*
X007806Y014960D01*
X007806Y014861D02*
X006565Y014861D01*
X006565Y014763D02*
X007806Y014763D01*
X007752Y014664D02*
X006565Y014664D01*
X006565Y014566D02*
X006670Y014566D01*
X006642Y014467D02*
X006565Y014467D01*
X006565Y014369D02*
X006930Y014369D01*
X006930Y014467D02*
X007005Y014467D01*
X007005Y014566D02*
X006930Y014566D01*
X006930Y014270D02*
X007005Y014270D01*
X007005Y014172D02*
X006930Y014172D01*
X006930Y014073D02*
X007005Y014073D01*
X007242Y014073D02*
X007292Y014073D01*
X007965Y013285D02*
X008208Y013285D01*
X008151Y013187D02*
X007976Y013187D01*
X007976Y013088D02*
X008151Y013088D01*
X008151Y012990D02*
X007976Y012990D01*
X007976Y012891D02*
X008151Y012891D01*
X008151Y012793D02*
X007976Y012793D01*
X007976Y012694D02*
X008087Y012694D01*
X008155Y012479D02*
X006410Y012479D01*
X005385Y013504D01*
X005707Y011431D02*
X005471Y011333D01*
X005290Y011152D01*
X005192Y010916D01*
X005192Y010661D01*
X005290Y010425D01*
X005471Y010244D01*
X005707Y010147D01*
X005962Y010147D01*
X006198Y010244D01*
X006379Y010425D01*
X006477Y010661D01*
X006477Y010916D01*
X006379Y011152D01*
X006198Y011333D01*
X005962Y011431D01*
X005707Y011431D01*
X005666Y011414D02*
X001227Y011414D01*
X001227Y011512D02*
X008545Y011512D01*
X008545Y011414D02*
X006004Y011414D01*
X006216Y011315D02*
X008545Y011315D01*
X008545Y011217D02*
X006315Y011217D01*
X006393Y011118D02*
X008545Y011118D01*
X008545Y011020D02*
X006434Y011020D01*
X006475Y010921D02*
X008545Y010921D01*
X008545Y010823D02*
X006477Y010823D01*
X006477Y010724D02*
X008545Y010724D01*
X008545Y010626D02*
X006462Y010626D01*
X006421Y010527D02*
X008545Y010527D01*
X008545Y010429D02*
X006381Y010429D01*
X006284Y010330D02*
X008545Y010330D01*
X008559Y010232D02*
X006168Y010232D01*
X005501Y010232D02*
X001227Y010232D01*
X001227Y010330D02*
X005385Y010330D01*
X005289Y010429D02*
X001227Y010429D01*
X001227Y010527D02*
X005248Y010527D01*
X005207Y010626D02*
X001227Y010626D01*
X001227Y010724D02*
X005192Y010724D01*
X005192Y010823D02*
X001227Y010823D01*
X001227Y010921D02*
X005194Y010921D01*
X005235Y011020D02*
X001227Y011020D01*
X001227Y011118D02*
X005276Y011118D01*
X005355Y011217D02*
X001227Y011217D01*
X001227Y011315D02*
X005453Y011315D01*
X006731Y009542D02*
X001227Y009542D01*
X001227Y009444D02*
X006637Y009444D01*
X006597Y009345D02*
X001227Y009345D01*
X001227Y009247D02*
X006595Y009247D01*
X006395Y009148D02*
X001227Y009148D01*
X001227Y009050D02*
X006290Y009050D01*
X006249Y008951D02*
X001227Y008951D01*
X001227Y008853D02*
X006245Y008853D01*
X006271Y008754D02*
X001227Y008754D01*
X001227Y008656D02*
X006339Y008656D01*
X007078Y009542D02*
X009203Y009542D01*
X009104Y009641D02*
X001227Y009641D01*
X001227Y009739D02*
X009006Y009739D01*
X008907Y009838D02*
X001227Y009838D01*
X001227Y009936D02*
X008809Y009936D01*
X008710Y010035D02*
X001227Y010035D01*
X001227Y010133D02*
X008612Y010133D01*
X009193Y010429D02*
X013176Y010429D01*
X013160Y010445D02*
X013341Y010264D01*
X013577Y010167D01*
X013832Y010167D01*
X014068Y010264D01*
X014249Y010445D01*
X014347Y010681D01*
X014347Y010936D01*
X014249Y011172D01*
X014068Y011353D01*
X013832Y011451D01*
X013577Y011451D01*
X013341Y011353D01*
X013160Y011172D01*
X013062Y010936D01*
X013062Y010681D01*
X013160Y010445D01*
X013126Y010527D02*
X009165Y010527D01*
X009165Y010626D02*
X013085Y010626D01*
X013062Y010724D02*
X009165Y010724D01*
X009165Y010823D02*
X013062Y010823D01*
X013062Y010921D02*
X009165Y010921D01*
X009165Y011020D02*
X013097Y011020D01*
X013138Y011118D02*
X009165Y011118D01*
X009165Y011217D02*
X012378Y011217D01*
X012287Y011315D02*
X009165Y011315D01*
X009165Y011414D02*
X012246Y011414D01*
X012245Y011512D02*
X009165Y011512D01*
X009165Y011611D02*
X012245Y011611D01*
X012245Y011709D02*
X011933Y011709D01*
X011351Y011709D02*
X011343Y011709D01*
X011343Y011808D02*
X011351Y011808D01*
X011343Y011906D02*
X011351Y011906D01*
X011343Y012005D02*
X011351Y012005D01*
X010761Y011709D02*
X009165Y011709D01*
X009165Y011808D02*
X010715Y011808D01*
X010715Y011906D02*
X009201Y011906D01*
X009201Y012005D02*
X009954Y012005D01*
X009921Y012103D02*
X009201Y012103D01*
X009201Y012202D02*
X009921Y012202D01*
X009921Y012300D02*
X009201Y012300D01*
X009201Y012399D02*
X009921Y012399D01*
X009961Y012497D02*
X009131Y012497D01*
X008908Y012596D02*
X008793Y012596D01*
X008851Y012694D02*
X008851Y012694D01*
X008851Y012793D02*
X008851Y012793D01*
X008851Y012891D02*
X008851Y012891D01*
X008851Y012990D02*
X008851Y012990D01*
X008851Y013088D02*
X008851Y013088D01*
X008851Y013187D02*
X008851Y013187D01*
X008793Y013285D02*
X008908Y013285D01*
X008501Y012941D02*
X008501Y012825D01*
X008155Y012479D01*
X008259Y012300D02*
X008501Y012300D01*
X008501Y012202D02*
X007626Y012202D01*
X007626Y012103D02*
X008501Y012103D01*
X008501Y012005D02*
X007626Y012005D01*
X007626Y011906D02*
X008501Y011906D01*
X008545Y011808D02*
X007613Y011808D01*
X008545Y011709D02*
X001227Y011709D01*
X001227Y011611D02*
X008545Y011611D01*
X008501Y012399D02*
X008357Y012399D01*
X008456Y012497D02*
X008570Y012497D01*
X009493Y012596D02*
X009959Y012596D01*
X009921Y012694D02*
X009551Y012694D01*
X009551Y012793D02*
X009921Y012793D01*
X009921Y012891D02*
X009551Y012891D01*
X009551Y012990D02*
X009921Y012990D01*
X009952Y013088D02*
X009551Y013088D01*
X009551Y013187D02*
X010262Y013187D01*
X010361Y013285D02*
X009493Y013285D01*
X010571Y012793D02*
X010715Y012793D01*
X010800Y012694D02*
X010571Y012694D01*
X010533Y012596D02*
X010796Y012596D01*
X010743Y012497D02*
X010531Y012497D01*
X010571Y012399D02*
X010743Y012399D01*
X010715Y012300D02*
X010571Y012300D01*
X010571Y012202D02*
X010715Y012202D01*
X010715Y012103D02*
X010571Y012103D01*
X010538Y012005D02*
X010715Y012005D01*
X010284Y012005D02*
X010209Y012005D01*
X010209Y012103D02*
X010284Y012103D01*
X010284Y012202D02*
X010209Y012202D01*
X011863Y012596D02*
X012243Y012596D01*
X012304Y012665D02*
X012355Y012651D01*
X012557Y012651D01*
X012557Y012951D01*
X012657Y012951D01*
X012657Y012651D01*
X012858Y012651D01*
X012909Y012665D01*
X012954Y012691D01*
X012992Y012729D01*
X013018Y012774D01*
X013032Y012825D01*
X013032Y012951D01*
X012657Y012951D01*
X012657Y013051D01*
X013032Y013051D01*
X013032Y013178D01*
X013018Y013229D01*
X012992Y013274D01*
X012954Y013312D01*
X012909Y013338D01*
X012858Y013351D01*
X012657Y013351D01*
X012657Y013051D01*
X012557Y013051D01*
X012557Y012951D01*
X012182Y012951D01*
X012182Y012825D01*
X012195Y012774D01*
X012222Y012729D01*
X012259Y012691D01*
X012304Y012665D01*
X012256Y012694D02*
X011894Y012694D01*
X011979Y012793D02*
X012190Y012793D01*
X012182Y012891D02*
X011979Y012891D01*
X012020Y012990D02*
X012557Y012990D01*
X012832Y012851D02*
X012832Y013151D01*
X012832Y012851D02*
X012382Y012851D01*
X012382Y013151D01*
X012832Y013151D01*
X012832Y012950D02*
X012382Y012950D01*
X012382Y013049D02*
X012832Y013049D01*
X012832Y013148D02*
X012382Y013148D01*
X012557Y013187D02*
X012657Y013187D01*
X012657Y013285D02*
X012557Y013285D01*
X012557Y013351D02*
X012355Y013351D01*
X012304Y013338D01*
X012259Y013312D01*
X012222Y013274D01*
X012195Y013229D01*
X012182Y013178D01*
X012182Y013051D01*
X012557Y013051D01*
X012557Y013351D01*
X012604Y013482D02*
X012704Y013482D01*
X012704Y013581D02*
X012604Y013581D01*
X012604Y013679D02*
X012704Y013679D01*
X012604Y013778D02*
X012054Y013778D01*
X012054Y013876D02*
X012254Y013876D01*
X012254Y013975D02*
X012054Y013975D01*
X012054Y014073D02*
X012254Y014073D01*
X012300Y014172D02*
X012007Y014172D01*
X012263Y014270D02*
X012413Y014270D01*
X012347Y014369D02*
X012338Y014369D01*
X012338Y014467D02*
X012338Y014467D01*
X012338Y014566D02*
X012338Y014566D01*
X012338Y014664D02*
X012638Y014664D01*
X012538Y014428D02*
X012838Y014428D01*
X012538Y014428D02*
X012538Y014878D01*
X012838Y014878D01*
X012838Y014428D01*
X012838Y014527D02*
X012538Y014527D01*
X012538Y014626D02*
X012838Y014626D01*
X012838Y014725D02*
X012538Y014725D01*
X012538Y014824D02*
X012838Y014824D01*
X012738Y014861D02*
X012638Y014861D01*
X012638Y014763D02*
X012738Y014763D01*
X012738Y014960D02*
X012638Y014960D01*
X012638Y015058D02*
X012717Y015058D01*
X012450Y015058D02*
X012265Y015058D01*
X012338Y014960D02*
X012354Y014960D01*
X012338Y014861D02*
X012338Y014861D01*
X012338Y014763D02*
X012338Y014763D01*
X012638Y014566D02*
X012738Y014566D01*
X012738Y014467D02*
X012638Y014467D01*
X012638Y014369D02*
X012738Y014369D01*
X012738Y014270D02*
X012638Y014270D01*
X012604Y014172D02*
X012704Y014172D01*
X012704Y014073D02*
X012604Y014073D01*
X012604Y013975D02*
X012704Y013975D01*
X012704Y013876D02*
X012604Y013876D01*
X012254Y013679D02*
X012054Y013679D01*
X012054Y013581D02*
X012254Y013581D01*
X012277Y013482D02*
X012034Y013482D01*
X012031Y013384D02*
X012995Y013384D01*
X012981Y013285D02*
X013004Y013285D01*
X013029Y013187D02*
X013049Y013187D01*
X013032Y013088D02*
X013148Y013088D01*
X013246Y012990D02*
X012657Y012990D01*
X012657Y013088D02*
X012557Y013088D01*
X012557Y012891D02*
X012657Y012891D01*
X012657Y012793D02*
X012557Y012793D01*
X012557Y012694D02*
X012657Y012694D01*
X012957Y012694D02*
X013542Y012694D01*
X013640Y012596D02*
X012970Y012596D01*
X013032Y012497D02*
X015862Y012497D01*
X015726Y012399D02*
X013032Y012399D01*
X013032Y012300D02*
X015661Y012300D01*
X015628Y012202D02*
X013032Y012202D01*
X013032Y012103D02*
X016000Y012103D01*
X015684Y011906D02*
X012865Y011906D01*
X012865Y011808D02*
X015772Y011808D01*
X015947Y011709D02*
X012865Y011709D01*
X012865Y011611D02*
X015848Y011611D01*
X015750Y011512D02*
X012865Y011512D01*
X012863Y011414D02*
X013487Y011414D01*
X013303Y011315D02*
X012822Y011315D01*
X012731Y011217D02*
X013205Y011217D01*
X013922Y011414D02*
X015651Y011414D01*
X015553Y011315D02*
X014106Y011315D01*
X014205Y011217D02*
X015454Y011217D01*
X015356Y011118D02*
X014271Y011118D01*
X014312Y011020D02*
X015257Y011020D01*
X015159Y010921D02*
X014347Y010921D01*
X014347Y010823D02*
X015060Y010823D01*
X014962Y010724D02*
X014347Y010724D01*
X014324Y010626D02*
X014863Y010626D01*
X014765Y010527D02*
X014283Y010527D01*
X014233Y010429D02*
X014666Y010429D01*
X014568Y010330D02*
X014134Y010330D01*
X013990Y010232D02*
X014469Y010232D01*
X014371Y010133D02*
X009488Y010133D01*
X009390Y010232D02*
X013420Y010232D01*
X013275Y010330D02*
X009291Y010330D01*
X009945Y008557D02*
X001227Y008557D01*
X001227Y008459D02*
X009902Y008459D01*
X009895Y008360D02*
X001227Y008360D01*
X001227Y008262D02*
X009918Y008262D01*
X009982Y008163D02*
X001227Y008163D01*
X001227Y012596D02*
X001823Y012596D01*
X001786Y012694D02*
X001227Y012694D01*
X001227Y012793D02*
X001687Y012793D01*
X001643Y012891D02*
X001227Y012891D01*
X001227Y012990D02*
X001619Y012990D01*
X001619Y013088D02*
X001227Y013088D01*
X001227Y013187D02*
X001651Y013187D01*
X001706Y013285D02*
X001227Y013285D01*
X001227Y013384D02*
X001817Y013384D01*
X001785Y013482D02*
X001227Y013482D01*
X001227Y013581D02*
X001687Y013581D01*
X001643Y013679D02*
X001227Y013679D01*
X001227Y013778D02*
X001619Y013778D01*
X001619Y013876D02*
X001227Y013876D01*
X001227Y013975D02*
X001651Y013975D01*
X001707Y014073D02*
X001227Y014073D01*
X001227Y014172D02*
X001819Y014172D01*
X001634Y014270D02*
X001227Y014270D01*
X001227Y014369D02*
X001619Y014369D01*
X001619Y014467D02*
X001227Y014467D01*
X001227Y014566D02*
X001619Y014566D01*
X001619Y014664D02*
X001227Y014664D01*
X001227Y014763D02*
X001619Y014763D01*
X001619Y014861D02*
X001227Y014861D01*
X001227Y014960D02*
X001655Y014960D01*
X001797Y015058D02*
X001227Y015058D01*
X001227Y015157D02*
X001797Y015157D01*
X001797Y015255D02*
X001227Y015255D01*
X001227Y015354D02*
X001797Y015354D01*
X001797Y015452D02*
X001227Y015452D01*
X001227Y015551D02*
X001797Y015551D01*
X001797Y015649D02*
X001227Y015649D01*
X001227Y015748D02*
X001797Y015748D01*
X001797Y015846D02*
X001227Y015846D01*
X001227Y015945D02*
X001797Y015945D01*
X001797Y016043D02*
X001227Y016043D01*
X001227Y016142D02*
X001797Y016142D01*
X001797Y016240D02*
X001227Y016240D01*
X001227Y016339D02*
X001797Y016339D01*
X001797Y016437D02*
X001227Y016437D01*
X001227Y016536D02*
X001797Y016536D01*
X001797Y016634D02*
X001227Y016634D01*
X001227Y016733D02*
X001810Y016733D01*
X001909Y016831D02*
X001227Y016831D01*
X001227Y016930D02*
X002007Y016930D01*
X002106Y017028D02*
X001227Y017028D01*
X001227Y017127D02*
X002204Y017127D01*
X002303Y017225D02*
X001227Y017225D01*
X001227Y017324D02*
X002401Y017324D01*
X002500Y017422D02*
X001227Y017422D01*
X001227Y017521D02*
X002598Y017521D01*
X002697Y017619D02*
X001227Y017619D01*
X001227Y017718D02*
X002795Y017718D01*
X002894Y017816D02*
X001227Y017816D01*
X001227Y017915D02*
X002992Y017915D01*
X003091Y018013D02*
X001227Y018013D01*
X001227Y018112D02*
X003189Y018112D01*
X003288Y018210D02*
X001227Y018210D01*
X001227Y018309D02*
X003386Y018309D01*
X003426Y018407D02*
X001227Y018407D01*
X001227Y018506D02*
X003426Y018506D01*
X003431Y018604D02*
X001227Y018604D01*
X001227Y018703D02*
X003471Y018703D01*
X003532Y018801D02*
X001227Y018801D01*
X001227Y018900D02*
X003631Y018900D01*
X003671Y018998D02*
X001227Y018998D01*
X001227Y019097D02*
X003630Y019097D01*
X003532Y019195D02*
X001227Y019195D01*
X001227Y019294D02*
X003471Y019294D01*
X003430Y019392D02*
X001227Y019392D01*
X001227Y019491D02*
X003426Y019491D01*
X003426Y019589D02*
X001227Y019589D01*
X001227Y019688D02*
X003465Y019688D01*
X003517Y019786D02*
X001227Y019786D01*
X001227Y019885D02*
X003616Y019885D01*
X003664Y020082D02*
X001227Y020082D01*
X001227Y020180D02*
X003547Y020180D01*
X003477Y020279D02*
X001227Y020279D01*
X001227Y020377D02*
X003437Y020377D01*
X003426Y020476D02*
X001227Y020476D01*
X001227Y020574D02*
X003426Y020574D01*
X003459Y020673D02*
X001227Y020673D01*
X001227Y020771D02*
X003502Y020771D01*
X003601Y020870D02*
X001227Y020870D01*
X001227Y020968D02*
X003795Y020968D01*
X003701Y021067D02*
X001227Y021067D01*
X001227Y021165D02*
X003562Y021165D01*
X003484Y021264D02*
X001227Y021264D01*
X001227Y021362D02*
X003443Y021362D01*
X003426Y021461D02*
X001227Y021461D01*
X001227Y021559D02*
X003426Y021559D01*
X003453Y021658D02*
X001227Y021658D01*
X001227Y021756D02*
X003494Y021756D01*
X003586Y021855D02*
X001227Y021855D01*
X001227Y021953D02*
X003759Y021953D01*
X003675Y022052D02*
X001227Y022052D01*
X001227Y022150D02*
X003577Y022150D01*
X003478Y022249D02*
X001227Y022249D01*
X001227Y022347D02*
X003426Y022347D01*
X003426Y022446D02*
X001227Y022446D01*
X001227Y022544D02*
X003426Y022544D01*
X003426Y022643D02*
X001227Y022643D01*
X001227Y022741D02*
X003472Y022741D01*
X003571Y022840D02*
X001227Y022840D01*
X001227Y022938D02*
X003669Y022938D01*
X003965Y023135D02*
X002948Y023135D01*
X002939Y023126D02*
X003158Y023346D01*
X003277Y023632D01*
X003277Y023943D01*
X003158Y024229D01*
X002939Y024449D01*
X002652Y024567D01*
X002342Y024567D01*
X002055Y024449D01*
X001836Y024229D01*
X001717Y023943D01*
X001717Y023632D01*
X001836Y023346D01*
X002055Y023126D01*
X002342Y023007D01*
X002652Y023007D01*
X002939Y023126D01*
X003046Y023234D02*
X003867Y023234D01*
X003768Y023332D02*
X003145Y023332D01*
X003193Y023431D02*
X003670Y023431D01*
X003655Y023529D02*
X003234Y023529D01*
X003275Y023628D02*
X003570Y023628D01*
X003529Y023726D02*
X003277Y023726D01*
X003277Y023825D02*
X003529Y023825D01*
X003529Y023923D02*
X003277Y023923D01*
X003244Y024022D02*
X003529Y024022D01*
X003601Y024120D02*
X003203Y024120D01*
X003162Y024219D02*
X003579Y024219D01*
X003529Y024317D02*
X003070Y024317D01*
X002971Y024416D02*
X003529Y024416D01*
X003529Y024514D02*
X002780Y024514D01*
X002214Y024514D02*
X001328Y024514D01*
X001290Y024416D02*
X002022Y024416D01*
X001924Y024317D02*
X001264Y024317D01*
X001238Y024219D02*
X001831Y024219D01*
X001790Y024120D02*
X001230Y024120D01*
X001227Y024022D02*
X001750Y024022D01*
X001717Y023923D02*
X001227Y023923D01*
X001227Y023825D02*
X001717Y023825D01*
X001717Y023726D02*
X001227Y023726D01*
X001227Y023628D02*
X001719Y023628D01*
X001759Y023529D02*
X001227Y023529D01*
X001227Y023431D02*
X001800Y023431D01*
X001849Y023332D02*
X001227Y023332D01*
X001227Y023234D02*
X001947Y023234D01*
X002046Y023135D02*
X001227Y023135D01*
X001227Y023037D02*
X002271Y023037D01*
X002723Y023037D02*
X004064Y023037D01*
X004132Y022938D02*
X004162Y022938D01*
X004231Y022840D02*
X004261Y022840D01*
X004329Y022741D02*
X004359Y022741D01*
X004376Y022643D02*
X004377Y022643D01*
X004376Y022544D02*
X004377Y022544D01*
X004376Y022446D02*
X004459Y022446D01*
X004392Y022347D02*
X004376Y022347D01*
X004377Y022249D02*
X004323Y022249D01*
X004308Y022150D02*
X004665Y022150D01*
X004665Y022052D02*
X004740Y022052D01*
X004740Y021953D02*
X004665Y021953D01*
X004665Y021855D02*
X004740Y021855D01*
X004685Y021756D02*
X004944Y021756D01*
X005043Y021658D02*
X004685Y021658D01*
X004742Y021559D02*
X005141Y021559D01*
X005240Y021461D02*
X004840Y021461D01*
X004939Y021362D02*
X005338Y021362D01*
X005437Y021264D02*
X005037Y021264D01*
X005136Y021165D02*
X005535Y021165D01*
X005622Y021067D02*
X005234Y021067D01*
X005545Y020968D02*
X005622Y020968D01*
X006565Y020968D02*
X007732Y020968D01*
X007831Y020870D02*
X006565Y020870D01*
X006565Y020771D02*
X007929Y020771D01*
X007799Y020673D02*
X007799Y020673D01*
X007799Y020574D02*
X007799Y020574D01*
X007799Y020476D02*
X007799Y020476D01*
X007799Y020377D02*
X007799Y020377D01*
X007799Y020279D02*
X007799Y020279D01*
X007799Y020272D02*
X007799Y019826D01*
X007799Y020272D01*
X007799Y020272D01*
X007799Y020180D02*
X007799Y020180D01*
X007799Y020082D02*
X007799Y020082D01*
X007799Y019983D02*
X007799Y019983D01*
X007799Y019885D02*
X007799Y019885D01*
X007543Y019885D02*
X007543Y019885D01*
X007543Y019983D02*
X007543Y019983D01*
X007543Y020082D02*
X007543Y020082D01*
X007543Y020180D02*
X007543Y020180D01*
X007543Y020279D02*
X007543Y020279D01*
X007543Y020377D02*
X007543Y020377D01*
X007543Y020476D02*
X007543Y020476D01*
X007543Y020574D02*
X007543Y020574D01*
X007543Y020673D02*
X007543Y020673D01*
X007634Y021067D02*
X006565Y021067D01*
X006565Y021165D02*
X007535Y021165D01*
X007437Y021264D02*
X006565Y021264D01*
X006565Y021362D02*
X007338Y021362D01*
X007240Y021461D02*
X006565Y021461D01*
X006565Y021559D02*
X007141Y021559D01*
X007043Y021658D02*
X006565Y021658D01*
X006565Y021756D02*
X006944Y021756D01*
X006846Y021855D02*
X006558Y021855D01*
X006518Y021953D02*
X006747Y021953D01*
X006649Y022052D02*
X006404Y022052D01*
X006313Y022150D02*
X006550Y022150D01*
X006452Y022249D02*
X006313Y022249D01*
X006313Y022347D02*
X006353Y022347D01*
X006255Y022446D02*
X006227Y022446D01*
X006405Y022579D02*
X006405Y023340D01*
X005266Y024479D01*
X005248Y024461D01*
X005248Y023861D02*
X005938Y023170D01*
X005938Y022794D01*
X005988Y022744D01*
X006405Y022579D02*
X008311Y020673D01*
X008311Y020272D01*
X008567Y020272D02*
X008567Y020767D01*
X006605Y022729D01*
X006605Y023789D01*
X005866Y024810D02*
X008477Y024810D01*
X008576Y024908D02*
X005768Y024908D01*
X004715Y024908D02*
X001638Y024908D01*
X001539Y024810D02*
X004616Y024810D01*
X003875Y024459D02*
X003854Y024459D01*
X003892Y024159D02*
X003892Y024159D01*
X003854Y023859D02*
X003855Y023858D01*
X003855Y023529D01*
X004645Y022739D01*
X004702Y022739D01*
X005398Y022759D02*
X005398Y023015D01*
X004551Y023862D01*
X003529Y024613D02*
X001385Y024613D01*
X001442Y024711D02*
X003592Y024711D01*
X002100Y025105D02*
X008773Y025105D01*
X008674Y025007D02*
X001809Y025007D01*
X004007Y020968D02*
X004105Y020968D01*
X004201Y020870D02*
X004204Y020870D01*
X004299Y020771D02*
X004302Y020771D01*
X004342Y020673D02*
X004375Y020673D01*
X004090Y019983D02*
X001227Y019983D01*
X004186Y019885D02*
X004189Y019885D01*
X004284Y019786D02*
X004287Y019786D01*
X004336Y019688D02*
X004386Y019688D01*
X004376Y019589D02*
X004484Y019589D01*
X004583Y019491D02*
X004376Y019491D01*
X004371Y019392D02*
X004681Y019392D01*
X004780Y019294D02*
X004330Y019294D01*
X004270Y019195D02*
X004878Y019195D01*
X004975Y019097D02*
X004171Y019097D01*
X004131Y018998D02*
X004975Y018998D01*
X004989Y018900D02*
X004171Y018900D01*
X004269Y018801D02*
X005030Y018801D01*
X005118Y018703D02*
X004330Y018703D01*
X004371Y018604D02*
X005220Y018604D01*
X005082Y018506D02*
X004376Y018506D01*
X006565Y018506D02*
X007066Y018506D01*
X007066Y018604D02*
X006565Y018604D01*
X006565Y018703D02*
X007066Y018703D01*
X007066Y018801D02*
X006565Y018801D01*
X006565Y018900D02*
X007133Y018900D01*
X007443Y018998D02*
X006565Y018998D01*
X006565Y019097D02*
X007541Y019097D01*
X007640Y019195D02*
X006565Y019195D01*
X006565Y019294D02*
X007738Y019294D01*
X008153Y019392D02*
X006565Y019392D01*
X006565Y019491D02*
X008153Y019491D01*
X008153Y019589D02*
X006565Y019589D01*
X006565Y019688D02*
X008153Y019688D01*
X008188Y019786D02*
X006565Y019786D01*
X006565Y019885D02*
X006832Y019885D01*
X006802Y019983D02*
X006565Y019983D01*
X006565Y020082D02*
X006802Y020082D01*
X006802Y020180D02*
X006565Y020180D01*
X006565Y020279D02*
X006802Y020279D01*
X006802Y020377D02*
X006565Y020377D01*
X006565Y020476D02*
X006802Y020476D01*
X006802Y020574D02*
X006565Y020574D01*
X006565Y020673D02*
X006846Y020673D01*
X008823Y020673D02*
X008823Y020673D01*
X008823Y020574D02*
X008823Y020574D01*
X008823Y020476D02*
X008823Y020476D01*
X008823Y020377D02*
X008823Y020377D01*
X008823Y020279D02*
X008823Y020279D01*
X008823Y020272D02*
X008823Y019826D01*
X008826Y019826D01*
X008775Y019775D01*
X008765Y019792D01*
X008731Y019826D01*
X008823Y019826D01*
X008823Y020272D01*
X008823Y020272D01*
X008823Y020180D02*
X008823Y020180D01*
X008823Y020082D02*
X008823Y020082D01*
X008823Y019983D02*
X008823Y019983D01*
X008823Y019885D02*
X008823Y019885D01*
X008786Y019786D02*
X008768Y019786D01*
X008775Y019309D02*
X008867Y019217D01*
X008982Y019217D01*
X009067Y019182D01*
X010380Y019182D01*
X010494Y019229D01*
X010880Y019616D01*
X010967Y019703D01*
X010995Y019771D01*
X011145Y019771D01*
X011145Y019320D01*
X011121Y019296D01*
X011121Y018906D01*
X010185Y018906D01*
X010185Y018908D01*
X010097Y018996D01*
X009722Y018996D01*
X009658Y018932D01*
X009655Y018938D01*
X009627Y018966D01*
X009592Y018986D01*
X009554Y018996D01*
X009422Y018996D01*
X009422Y018609D01*
X009397Y018609D01*
X009397Y018996D01*
X009265Y018996D01*
X009227Y018986D01*
X009192Y018966D01*
X009165Y018938D01*
X009161Y018932D01*
X009097Y018996D01*
X009013Y018996D01*
X008835Y019174D01*
X008741Y019268D01*
X008765Y019292D01*
X008775Y019309D01*
X008766Y019294D02*
X008790Y019294D01*
X008813Y019195D02*
X009035Y019195D01*
X008912Y019097D02*
X011121Y019097D01*
X011121Y019195D02*
X010411Y019195D01*
X010558Y019294D02*
X011121Y019294D01*
X011145Y019392D02*
X010657Y019392D01*
X010755Y019491D02*
X011145Y019491D01*
X011145Y019589D02*
X010854Y019589D01*
X010952Y019688D02*
X011145Y019688D01*
X011121Y018998D02*
X009010Y018998D01*
X009397Y018900D02*
X009422Y018900D01*
X009422Y018801D02*
X009397Y018801D01*
X009397Y018703D02*
X009422Y018703D01*
X008397Y018604D02*
X007716Y018604D01*
X007716Y018506D02*
X008135Y018506D01*
X008135Y018407D02*
X007714Y018407D01*
X007638Y018309D02*
X008139Y018309D01*
X008075Y018210D02*
X007707Y018210D01*
X007716Y018112D02*
X008075Y018112D01*
X008075Y018013D02*
X007428Y018013D01*
X007353Y018013D02*
X006565Y018013D01*
X006565Y017915D02*
X007066Y017915D01*
X007066Y017864D02*
X007066Y017983D01*
X007353Y017983D01*
X007353Y017696D01*
X007234Y017696D01*
X007184Y017709D01*
X007140Y017734D01*
X007104Y017770D01*
X007079Y017815D01*
X007066Y017864D01*
X007078Y017816D02*
X006565Y017816D01*
X006565Y017718D02*
X007169Y017718D01*
X007216Y017552D02*
X007014Y017552D01*
X006964Y017538D01*
X006918Y017512D01*
X006881Y017475D01*
X006854Y017429D01*
X006841Y017378D01*
X006841Y017252D01*
X007216Y017252D01*
X007216Y017552D01*
X007216Y017521D02*
X007316Y017521D01*
X007316Y017552D02*
X007316Y017252D01*
X007691Y017252D01*
X007691Y017378D01*
X007677Y017429D01*
X007651Y017475D01*
X007614Y017512D01*
X007568Y017538D01*
X007517Y017552D01*
X007316Y017552D01*
X007316Y017422D02*
X007216Y017422D01*
X007216Y017324D02*
X007316Y017324D01*
X007316Y017252D02*
X007216Y017252D01*
X007216Y017152D01*
X007316Y017152D01*
X007316Y017252D01*
X007316Y017225D02*
X008075Y017225D01*
X008075Y017127D02*
X007691Y017127D01*
X007691Y017152D02*
X007316Y017152D01*
X007316Y016852D01*
X007517Y016852D01*
X007568Y016866D01*
X007614Y016892D01*
X007651Y016929D01*
X007677Y016975D01*
X007691Y017026D01*
X007691Y017152D01*
X007691Y017028D02*
X008075Y017028D01*
X008075Y016930D02*
X007651Y016930D01*
X007594Y016831D02*
X008077Y016831D01*
X008075Y017324D02*
X007691Y017324D01*
X007679Y017422D02*
X008075Y017422D01*
X008075Y017521D02*
X007598Y017521D01*
X007612Y017718D02*
X008075Y017718D01*
X008075Y017816D02*
X007703Y017816D01*
X007716Y017915D02*
X008075Y017915D01*
X008075Y017619D02*
X006565Y017619D01*
X006565Y017521D02*
X006933Y017521D01*
X006853Y017422D02*
X006565Y017422D01*
X006565Y017324D02*
X006841Y017324D01*
X006841Y017152D02*
X006841Y017026D01*
X006854Y016975D01*
X006881Y016929D01*
X006918Y016892D01*
X006964Y016866D01*
X007014Y016852D01*
X007216Y016852D01*
X007216Y017152D01*
X006841Y017152D01*
X006841Y017127D02*
X006565Y017127D01*
X006565Y017225D02*
X007216Y017225D01*
X007491Y017352D02*
X007491Y017052D01*
X007041Y017052D01*
X007041Y017352D01*
X007491Y017352D01*
X007491Y017151D02*
X007041Y017151D01*
X007041Y017250D02*
X007491Y017250D01*
X007491Y017349D02*
X007041Y017349D01*
X007216Y017127D02*
X007316Y017127D01*
X007316Y017028D02*
X007216Y017028D01*
X007216Y016930D02*
X007316Y016930D01*
X006937Y016831D02*
X006565Y016831D01*
X006565Y016733D02*
X006841Y016733D01*
X006880Y016930D02*
X006565Y016930D01*
X006565Y017028D02*
X006841Y017028D01*
X007491Y016652D02*
X007491Y016352D01*
X007041Y016352D01*
X007041Y016652D01*
X007491Y016652D01*
X007491Y016451D02*
X007041Y016451D01*
X007041Y016550D02*
X007491Y016550D01*
X007491Y016649D02*
X007041Y016649D01*
X007353Y017718D02*
X007428Y017718D01*
X007428Y017816D02*
X007353Y017816D01*
X007353Y017915D02*
X007428Y017915D01*
X007066Y018112D02*
X006565Y018112D01*
X006565Y018210D02*
X007074Y018210D01*
X007143Y018309D02*
X006565Y018309D01*
X006565Y018407D02*
X007067Y018407D01*
X007798Y018703D02*
X008135Y018703D01*
X008135Y018801D02*
X007896Y018801D01*
X008910Y016496D02*
X008910Y016034D01*
X008905Y016029D01*
X009405Y016029D02*
X009410Y016034D01*
X009410Y016496D01*
X011378Y016831D02*
X012178Y016831D01*
X012178Y016930D02*
X011378Y016930D01*
X011378Y017028D02*
X012178Y017028D01*
X012178Y017127D02*
X011378Y017127D01*
X011378Y017225D02*
X012178Y017225D01*
X012178Y017324D02*
X011378Y017324D01*
X011378Y017422D02*
X012178Y017422D01*
X012178Y017521D02*
X011385Y017521D01*
X011484Y017619D02*
X012178Y017619D01*
X012196Y017718D02*
X011582Y017718D01*
X011920Y016733D02*
X012221Y016733D01*
X012117Y016536D02*
X012892Y016536D01*
X012794Y016634D02*
X012018Y016634D01*
X012215Y016437D02*
X012991Y016437D01*
X012977Y016339D02*
X012314Y016339D01*
X012412Y016240D02*
X012986Y016240D01*
X012984Y016142D02*
X013028Y016142D01*
X013031Y016043D02*
X013136Y016043D01*
X013031Y015945D02*
X013636Y015945D01*
X013636Y015846D02*
X013031Y015846D01*
X013031Y015748D02*
X013652Y015748D01*
X013692Y015649D02*
X013031Y015649D01*
X013102Y015551D02*
X013782Y015551D01*
X013675Y016043D02*
X013473Y016043D01*
X013582Y016142D02*
X013741Y016142D01*
X013623Y016240D02*
X013877Y016240D01*
X013782Y016339D02*
X013633Y016339D01*
X013615Y016437D02*
X013692Y016437D01*
X013651Y016536D02*
X013615Y016536D01*
X013610Y016634D02*
X013636Y016634D01*
X013636Y016733D02*
X013569Y016733D01*
X013473Y016831D02*
X013676Y016831D01*
X013742Y016930D02*
X013375Y016930D01*
X014213Y017816D02*
X014563Y017816D01*
X014464Y017718D02*
X014350Y017718D01*
X014312Y017915D02*
X014661Y017915D01*
X014760Y018013D02*
X014410Y018013D01*
X014509Y018112D02*
X014858Y018112D01*
X014957Y018210D02*
X014607Y018210D01*
X014706Y018309D02*
X015055Y018309D01*
X015154Y018407D02*
X014804Y018407D01*
X014903Y018506D02*
X015164Y018506D01*
X015164Y018604D02*
X015001Y018604D01*
X015100Y018703D02*
X015181Y018703D01*
X015198Y018801D02*
X015222Y018801D01*
X015297Y018900D02*
X015300Y018900D01*
X015395Y018998D02*
X015439Y018998D01*
X015494Y019097D02*
X015533Y019097D01*
X015745Y019097D02*
X019062Y019097D01*
X019078Y019195D02*
X015939Y019195D01*
X016037Y019294D02*
X019094Y019294D01*
X019095Y019392D02*
X019039Y019392D01*
X019045Y018998D02*
X015839Y018998D01*
X015978Y018900D02*
X019029Y018900D01*
X019012Y018801D02*
X016056Y018801D01*
X016081Y019392D02*
X016189Y019392D01*
X016677Y019392D02*
X016702Y019392D01*
X016702Y019491D02*
X016677Y019491D01*
X016677Y019589D02*
X016702Y019589D01*
X016702Y019688D02*
X016677Y019688D01*
X016677Y019786D02*
X016702Y019786D01*
X016702Y019885D02*
X016677Y019885D01*
X016677Y019983D02*
X016702Y019983D01*
X016702Y020082D02*
X016677Y020082D01*
X016589Y020356D02*
X017009Y020356D01*
X017047Y020366D01*
X017081Y020386D01*
X017109Y020414D01*
X017129Y020448D01*
X017139Y020486D01*
X017139Y020586D01*
X016589Y020586D01*
X016589Y020356D01*
X016589Y020377D02*
X016589Y020377D01*
X016589Y020476D02*
X016589Y020476D01*
X016589Y020574D02*
X016589Y020574D01*
X016589Y020586D02*
X016589Y020586D01*
X016112Y020377D02*
X016074Y020377D01*
X016022Y020279D02*
X019095Y020279D01*
X019095Y020377D02*
X017066Y020377D01*
X017136Y020476D02*
X019095Y020476D01*
X019095Y020574D02*
X017139Y020574D01*
X017139Y020673D02*
X019095Y020673D01*
X019095Y020771D02*
X017139Y020771D01*
X017139Y020870D02*
X019095Y020870D01*
X019095Y020968D02*
X017139Y020968D01*
X017577Y021067D02*
X019095Y021067D01*
X019095Y021165D02*
X017676Y021165D01*
X017774Y021264D02*
X017817Y021264D01*
X018151Y020082D02*
X017078Y020082D01*
X017228Y019983D02*
X018000Y019983D01*
X017930Y019885D02*
X017298Y019885D01*
X017331Y019786D02*
X017897Y019786D01*
X017889Y019688D02*
X017339Y019688D01*
X017324Y019589D02*
X017905Y019589D01*
X017952Y019491D02*
X017276Y019491D01*
X017189Y019392D02*
X018039Y019392D01*
X018527Y019392D02*
X018552Y019392D01*
X018552Y019491D02*
X018527Y019491D01*
X018527Y019589D02*
X018552Y019589D01*
X018552Y019688D02*
X018527Y019688D01*
X018527Y019786D02*
X018552Y019786D01*
X018552Y019885D02*
X018527Y019885D01*
X018527Y019983D02*
X018552Y019983D01*
X018552Y020082D02*
X018527Y020082D01*
X018928Y020082D02*
X019095Y020082D01*
X019095Y020180D02*
X015924Y020180D01*
X015875Y019983D02*
X016150Y019983D01*
X016080Y019885D02*
X015993Y019885D01*
X016301Y020082D02*
X015479Y020082D01*
X015403Y019983D02*
X015380Y019983D01*
X015285Y019885D02*
X015282Y019885D01*
X015216Y019786D02*
X015183Y019786D01*
X015175Y019688D02*
X015085Y019688D01*
X015164Y019589D02*
X014986Y019589D01*
X014888Y019491D02*
X015164Y019491D01*
X015139Y019392D02*
X014789Y019392D01*
X014691Y019294D02*
X015040Y019294D01*
X014942Y019195D02*
X014592Y019195D01*
X014494Y019097D02*
X014843Y019097D01*
X014745Y018998D02*
X014456Y018998D01*
X014442Y018900D02*
X014646Y018900D01*
X014548Y018801D02*
X014401Y018801D01*
X014449Y018703D02*
X014312Y018703D01*
X014351Y018604D02*
X014211Y018604D01*
X015425Y017028D02*
X015511Y017028D01*
X015330Y016930D02*
X015327Y016930D01*
X015234Y016831D02*
X015228Y016831D01*
X015193Y016733D02*
X015130Y016733D01*
X015164Y016634D02*
X015031Y016634D01*
X014933Y016536D02*
X015164Y016536D01*
X015178Y016437D02*
X014834Y016437D01*
X014987Y016240D02*
X014215Y016240D01*
X014311Y016339D02*
X015085Y016339D01*
X014888Y016142D02*
X014351Y016142D01*
X012995Y014270D02*
X012963Y014270D01*
X012233Y013285D02*
X012031Y013285D01*
X012031Y013187D02*
X012184Y013187D01*
X012182Y013088D02*
X012031Y013088D01*
X011935Y012497D02*
X012182Y012497D01*
X012182Y012399D02*
X011935Y012399D01*
X012832Y012451D02*
X012832Y012151D01*
X012382Y012151D01*
X012382Y012451D01*
X012832Y012451D01*
X012832Y012250D02*
X012382Y012250D01*
X012382Y012349D02*
X012832Y012349D01*
X012832Y012448D02*
X012382Y012448D01*
X013023Y012793D02*
X013443Y012793D01*
X013345Y012891D02*
X013032Y012891D01*
X012968Y012005D02*
X015639Y012005D01*
X016982Y012497D02*
X017438Y012497D01*
X017301Y012399D02*
X017118Y012399D01*
X017184Y012300D02*
X017235Y012300D01*
X017769Y012497D02*
X018036Y012497D01*
X017983Y012399D02*
X017906Y012399D01*
X017972Y012300D02*
X017983Y012300D01*
X018493Y010823D02*
X017414Y010823D01*
X017316Y010724D02*
X018306Y010724D01*
X018212Y010626D02*
X017217Y010626D01*
X017119Y010527D02*
X018172Y010527D01*
X018148Y010429D02*
X017020Y010429D01*
X016922Y010330D02*
X018148Y010330D01*
X018173Y010232D02*
X016823Y010232D01*
X016725Y010133D02*
X018214Y010133D01*
X018309Y010035D02*
X016626Y010035D01*
X016528Y009936D02*
X018305Y009936D01*
X016475Y009838D02*
X016429Y009838D01*
X016377Y009739D02*
X016331Y009739D01*
X016278Y009641D02*
X016232Y009641D01*
X016180Y009542D02*
X016134Y009542D01*
X016081Y009444D02*
X016035Y009444D01*
X015983Y009345D02*
X015937Y009345D01*
X015884Y009247D02*
X015838Y009247D01*
X015786Y009148D02*
X015740Y009148D01*
X015687Y009050D02*
X015641Y009050D01*
X015589Y008951D02*
X015543Y008951D01*
X015490Y008853D02*
X015444Y008853D01*
X015392Y008754D02*
X015346Y008754D01*
X012138Y014428D02*
X011838Y014428D01*
X011838Y014878D01*
X012138Y014878D01*
X012138Y014428D01*
X012138Y014527D02*
X011838Y014527D01*
X011838Y014626D02*
X012138Y014626D01*
X012138Y014725D02*
X011838Y014725D01*
X011838Y014824D02*
X012138Y014824D01*
X017382Y017915D02*
X017440Y017915D01*
X017440Y018013D02*
X017382Y018013D01*
X017382Y018112D02*
X017440Y018112D01*
X017440Y018210D02*
X017382Y018210D01*
X017382Y018309D02*
X017440Y018309D01*
X017440Y018407D02*
X017382Y018407D01*
X017382Y018506D02*
X017440Y018506D01*
X017440Y018604D02*
X017382Y018604D01*
X017650Y018604D02*
X017801Y018604D01*
X017791Y018506D02*
X017746Y018506D01*
X017786Y018112D02*
X017791Y018112D01*
X017791Y018013D02*
X017725Y018013D01*
X017830Y017915D02*
X017603Y017915D01*
X019078Y019983D02*
X019095Y019983D01*
X014205Y022429D02*
X010905Y022429D01*
X010358Y021882D01*
X010358Y020272D01*
X013684Y023332D02*
X014113Y023332D01*
X011465Y024650D02*
X011465Y024719D01*
X007713Y001761D02*
X007365Y001761D01*
X007497Y001662D02*
X007676Y001662D01*
X007676Y001564D02*
X007568Y001564D01*
X007609Y001465D02*
X007676Y001465D01*
X007188Y001465D02*
X007113Y001465D01*
X007113Y001564D02*
X007188Y001564D01*
X007188Y001662D02*
X007113Y001662D01*
X007113Y001761D02*
X007188Y001761D01*
D16*
X010881Y015633D03*
X010928Y017238D03*
X012581Y015633D03*
X012628Y017238D03*
D17*
X012750Y020220D03*
X011453Y020221D03*
X011453Y021921D03*
X012750Y021920D03*
D18*
X013542Y023776D02*
X013542Y024038D01*
X013804Y024038D01*
X013804Y023776D01*
X013542Y023776D01*
X013542Y023863D02*
X013804Y023863D01*
X013804Y023950D02*
X013542Y023950D01*
X013542Y024037D02*
X013804Y024037D01*
X013542Y024376D02*
X013542Y024638D01*
X013804Y024638D01*
X013804Y024376D01*
X013542Y024376D01*
X013542Y024463D02*
X013804Y024463D01*
X013804Y024550D02*
X013542Y024550D01*
X013542Y024637D02*
X013804Y024637D01*
X015912Y024645D02*
X015912Y024383D01*
X015500Y024383D01*
X015500Y024645D01*
X015912Y024645D01*
X015912Y024470D02*
X015500Y024470D01*
X015500Y024557D02*
X015912Y024557D01*
X015912Y024644D02*
X015500Y024644D01*
X015912Y023945D02*
X015912Y023683D01*
X015500Y023683D01*
X015500Y023945D01*
X015912Y023945D01*
X015912Y023770D02*
X015500Y023770D01*
X015500Y023857D02*
X015912Y023857D01*
X015912Y023944D02*
X015500Y023944D01*
X016597Y024062D02*
X016597Y023800D01*
X016335Y023800D01*
X016335Y024062D01*
X016597Y024062D01*
X016597Y023887D02*
X016335Y023887D01*
X016335Y023974D02*
X016597Y023974D01*
X016597Y024061D02*
X016335Y024061D01*
X016597Y024400D02*
X016597Y024662D01*
X016597Y024400D02*
X016335Y024400D01*
X016335Y024662D01*
X016597Y024662D01*
X016597Y024487D02*
X016335Y024487D01*
X016335Y024574D02*
X016597Y024574D01*
X016597Y024661D02*
X016335Y024661D01*
X011334Y024781D02*
X011334Y024519D01*
X011334Y024781D02*
X011596Y024781D01*
X011596Y024519D01*
X011334Y024519D01*
X011334Y024606D02*
X011596Y024606D01*
X011596Y024693D02*
X011334Y024693D01*
X011334Y024780D02*
X011596Y024780D01*
X011334Y024181D02*
X011334Y023919D01*
X011334Y024181D02*
X011596Y024181D01*
X011596Y023919D01*
X011334Y023919D01*
X011334Y024006D02*
X011596Y024006D01*
X011596Y024093D02*
X011334Y024093D01*
X011334Y024180D02*
X011596Y024180D01*
X010512Y024157D02*
X010512Y023895D01*
X010512Y024157D02*
X010774Y024157D01*
X010774Y023895D01*
X010512Y023895D01*
X010512Y023982D02*
X010774Y023982D01*
X010774Y024069D02*
X010512Y024069D01*
X010512Y024156D02*
X010774Y024156D01*
X010512Y024495D02*
X010512Y024757D01*
X010774Y024757D01*
X010774Y024495D01*
X010512Y024495D01*
X010512Y024582D02*
X010774Y024582D01*
X010774Y024669D02*
X010512Y024669D01*
X010512Y024756D02*
X010774Y024756D01*
X005857Y022875D02*
X005857Y022613D01*
X005857Y022875D02*
X006119Y022875D01*
X006119Y022613D01*
X005857Y022613D01*
X005857Y022700D02*
X006119Y022700D01*
X006119Y022787D02*
X005857Y022787D01*
X005857Y022874D02*
X006119Y022874D01*
X005267Y022890D02*
X005267Y022628D01*
X005267Y022890D02*
X005529Y022890D01*
X005529Y022628D01*
X005267Y022628D01*
X005267Y022715D02*
X005529Y022715D01*
X005529Y022802D02*
X005267Y022802D01*
X005267Y022889D02*
X005529Y022889D01*
X005267Y022290D02*
X005267Y022028D01*
X005267Y022290D02*
X005529Y022290D01*
X005529Y022028D01*
X005267Y022028D01*
X005267Y022115D02*
X005529Y022115D01*
X005529Y022202D02*
X005267Y022202D01*
X005267Y022289D02*
X005529Y022289D01*
X005857Y022275D02*
X005857Y022013D01*
X005857Y022275D02*
X006119Y022275D01*
X006119Y022013D01*
X005857Y022013D01*
X005857Y022100D02*
X006119Y022100D01*
X006119Y022187D02*
X005857Y022187D01*
X005857Y022274D02*
X006119Y022274D01*
X004833Y022270D02*
X004833Y022008D01*
X004571Y022008D01*
X004571Y022270D01*
X004833Y022270D01*
X004833Y022095D02*
X004571Y022095D01*
X004571Y022182D02*
X004833Y022182D01*
X004833Y022269D02*
X004571Y022269D01*
X004833Y022608D02*
X004833Y022870D01*
X004833Y022608D02*
X004571Y022608D01*
X004571Y022870D01*
X004833Y022870D01*
X004833Y022695D02*
X004571Y022695D01*
X004571Y022782D02*
X004833Y022782D01*
X004833Y022869D02*
X004571Y022869D01*
X008347Y019411D02*
X008609Y019411D01*
X008347Y019411D02*
X008347Y019673D01*
X008609Y019673D01*
X008609Y019411D01*
X008609Y019498D02*
X008347Y019498D01*
X008347Y019585D02*
X008609Y019585D01*
X008609Y019672D02*
X008347Y019672D01*
X008947Y019411D02*
X009209Y019411D01*
X008947Y019411D02*
X008947Y019673D01*
X009209Y019673D01*
X009209Y019411D01*
X009209Y019498D02*
X008947Y019498D01*
X008947Y019585D02*
X009209Y019585D01*
X009209Y019672D02*
X008947Y019672D01*
X007522Y018752D02*
X007522Y018490D01*
X007260Y018490D01*
X007260Y018752D01*
X007522Y018752D01*
X007522Y018577D02*
X007260Y018577D01*
X007260Y018664D02*
X007522Y018664D01*
X007522Y018751D02*
X007260Y018751D01*
X007522Y018152D02*
X007522Y017890D01*
X007260Y017890D01*
X007260Y018152D01*
X007522Y018152D01*
X007522Y017977D02*
X007260Y017977D01*
X007260Y018064D02*
X007522Y018064D01*
X007522Y018151D02*
X007260Y018151D01*
X007098Y014204D02*
X006836Y014204D01*
X006836Y014466D01*
X007098Y014466D01*
X007098Y014204D01*
X007098Y014291D02*
X006836Y014291D01*
X006836Y014378D02*
X007098Y014378D01*
X007098Y014465D02*
X006836Y014465D01*
X007436Y014204D02*
X007698Y014204D01*
X007436Y014204D02*
X007436Y014466D01*
X007698Y014466D01*
X007698Y014204D01*
X007698Y014291D02*
X007436Y014291D01*
X007436Y014378D02*
X007698Y014378D01*
X007698Y014465D02*
X007436Y014465D01*
X010115Y012977D02*
X010115Y012715D01*
X010115Y012977D02*
X010377Y012977D01*
X010377Y012715D01*
X010115Y012715D01*
X010115Y012802D02*
X010377Y012802D01*
X010377Y012889D02*
X010115Y012889D01*
X010115Y012976D02*
X010377Y012976D01*
X010115Y012377D02*
X010115Y012115D01*
X010115Y012377D02*
X010377Y012377D01*
X010377Y012115D01*
X010115Y012115D01*
X010115Y012202D02*
X010377Y012202D01*
X010377Y012289D02*
X010115Y012289D01*
X010115Y012376D02*
X010377Y012376D01*
D19*
X011496Y018784D03*
X012646Y018784D03*
D20*
X014189Y023834D02*
X014189Y024060D01*
X014465Y024060D01*
X014465Y023834D01*
X014189Y023834D01*
X014189Y023908D02*
X014465Y023908D01*
X014465Y023982D02*
X014189Y023982D01*
X014189Y024056D02*
X014465Y024056D01*
X014189Y024434D02*
X014189Y024660D01*
X014465Y024660D01*
X014465Y024434D01*
X014189Y024434D01*
X014189Y024508D02*
X014465Y024508D01*
X014465Y024582D02*
X014189Y024582D01*
X014189Y024656D02*
X014465Y024656D01*
X014830Y024659D02*
X014830Y024433D01*
X014830Y024659D02*
X015106Y024659D01*
X015106Y024433D01*
X014830Y024433D01*
X014830Y024507D02*
X015106Y024507D01*
X015106Y024581D02*
X014830Y024581D01*
X014830Y024655D02*
X015106Y024655D01*
X014830Y024059D02*
X014830Y023833D01*
X014830Y024059D02*
X015106Y024059D01*
X015106Y023833D01*
X014830Y023833D01*
X014830Y023907D02*
X015106Y023907D01*
X015106Y023981D02*
X014830Y023981D01*
X014830Y024055D02*
X015106Y024055D01*
X005386Y023974D02*
X005386Y023748D01*
X005110Y023748D01*
X005110Y023974D01*
X005386Y023974D01*
X005386Y023822D02*
X005110Y023822D01*
X005110Y023896D02*
X005386Y023896D01*
X005386Y023970D02*
X005110Y023970D01*
X005386Y024348D02*
X005386Y024574D01*
X005386Y024348D02*
X005110Y024348D01*
X005110Y024574D01*
X005386Y024574D01*
X005386Y024422D02*
X005110Y024422D01*
X005110Y024496D02*
X005386Y024496D01*
X005386Y024570D02*
X005110Y024570D01*
X004689Y024575D02*
X004689Y024349D01*
X004413Y024349D01*
X004413Y024575D01*
X004689Y024575D01*
X004689Y024423D02*
X004413Y024423D01*
X004413Y024497D02*
X004689Y024497D01*
X004689Y024571D02*
X004413Y024571D01*
X003716Y024572D02*
X003716Y024346D01*
X003716Y024572D02*
X003992Y024572D01*
X003992Y024346D01*
X003716Y024346D01*
X003716Y024420D02*
X003992Y024420D01*
X003992Y024494D02*
X003716Y024494D01*
X003716Y024568D02*
X003992Y024568D01*
X003716Y023972D02*
X003716Y023746D01*
X003716Y023972D02*
X003992Y023972D01*
X003992Y023746D01*
X003716Y023746D01*
X003716Y023820D02*
X003992Y023820D01*
X003992Y023894D02*
X003716Y023894D01*
X003716Y023968D02*
X003992Y023968D01*
X004689Y023975D02*
X004689Y023749D01*
X004413Y023749D01*
X004413Y023975D01*
X004689Y023975D01*
X004689Y023823D02*
X004413Y023823D01*
X004413Y023897D02*
X004689Y023897D01*
X004689Y023971D02*
X004413Y023971D01*
D21*
X018595Y010381D03*
X018595Y009594D03*
X018595Y008806D03*
D22*
X012654Y013813D03*
X011654Y013813D03*
D23*
X016439Y019706D02*
X016939Y019706D01*
X018289Y019706D02*
X018789Y019706D01*
X018789Y022706D02*
X018289Y022706D01*
X016939Y022706D02*
X016439Y022706D01*
D24*
X016589Y021826D03*
X016589Y021516D03*
X016589Y021206D03*
X016589Y020896D03*
X016589Y020586D03*
D25*
X011721Y013078D03*
X010973Y013078D03*
X010973Y012054D03*
X011347Y012054D03*
X011721Y012054D03*
D26*
X010358Y020272D03*
X010102Y020272D03*
X009846Y020272D03*
X009590Y020272D03*
X009334Y020272D03*
X009078Y020272D03*
X008823Y020272D03*
X008567Y020272D03*
X008311Y020272D03*
X008055Y020272D03*
X007799Y020272D03*
X007543Y020272D03*
X007287Y020272D03*
X007031Y020272D03*
X007031Y023126D03*
X007287Y023126D03*
X007543Y023126D03*
X007799Y023126D03*
X008055Y023126D03*
X008311Y023126D03*
X008567Y023126D03*
X008823Y023126D03*
X009078Y023126D03*
X009334Y023126D03*
X009590Y023126D03*
X009846Y023126D03*
X010102Y023126D03*
X010358Y023126D03*
D27*
X008604Y014944D03*
X008604Y014244D03*
X009404Y014594D03*
D28*
X009645Y002550D03*
X009645Y001050D03*
X012145Y001050D03*
X012145Y002550D03*
D29*
X018391Y012125D03*
X018198Y015374D03*
X018198Y018274D03*
X002027Y014604D03*
D30*
X002027Y013817D03*
X002027Y013030D03*
X002027Y012242D03*
X016029Y012125D03*
X016816Y012125D03*
X017603Y012125D03*
X017411Y015374D03*
X017411Y018274D03*
D31*
X014046Y020591D03*
D32*
X014046Y019804D03*
X014046Y019016D03*
X014046Y018229D03*
X014046Y017441D03*
X014046Y016654D03*
X014046Y015867D03*
X014046Y015079D03*
X014046Y014292D03*
X014046Y013504D03*
X005385Y013504D03*
X005385Y014292D03*
X005385Y015079D03*
X005385Y015867D03*
X005385Y016654D03*
X005385Y017441D03*
X005385Y018229D03*
X005385Y019016D03*
X005385Y019804D03*
X005385Y020591D03*
D33*
X003901Y022498D03*
X015639Y013567D03*
D34*
X017239Y021524D03*
X017909Y021524D03*
X012655Y024579D03*
X003905Y002579D03*
D35*
X006555Y008879D02*
X015145Y008879D01*
X018391Y012125D01*
X017603Y012125D02*
X014757Y009279D01*
X006905Y009279D01*
X010205Y011679D02*
X010205Y012204D01*
X010246Y012246D01*
X010205Y011679D02*
X010355Y011529D01*
X011255Y011529D01*
X011347Y011621D01*
X011347Y012054D01*
X011705Y012071D02*
X011705Y012429D01*
X011605Y012529D01*
X011055Y012529D01*
X010973Y012447D01*
X010973Y012054D01*
X011705Y012071D02*
X011721Y012054D01*
X010973Y013078D02*
X010478Y013078D01*
X010246Y012846D01*
X006926Y012909D02*
X006926Y012957D01*
X005605Y014279D01*
X005398Y014279D01*
X005385Y014292D01*
X004107Y014292D01*
X003901Y014498D01*
X004319Y015079D02*
X003901Y015498D01*
X004319Y015079D02*
X005385Y015079D01*
X005385Y015867D02*
X004532Y015867D01*
X003901Y016498D01*
X004745Y016654D02*
X003901Y017498D01*
X004170Y018229D02*
X003901Y018498D01*
X003901Y019498D01*
X003901Y018498D02*
X002027Y016624D01*
X002027Y014604D01*
X003901Y013498D02*
X003907Y013504D01*
X005385Y013504D01*
X006655Y014679D02*
X006655Y017079D01*
X006805Y017229D01*
X007239Y017229D01*
X007266Y017202D01*
X007391Y017327D01*
X007391Y018021D01*
X007966Y018596D01*
X008410Y018596D01*
X008305Y018129D02*
X008305Y016929D01*
X010055Y016929D01*
X010055Y018129D01*
X008305Y018129D01*
X008305Y018014D02*
X010055Y018014D01*
X010055Y017855D02*
X008305Y017855D01*
X008305Y017697D02*
X010055Y017697D01*
X010055Y017538D02*
X008305Y017538D01*
X008305Y017380D02*
X010055Y017380D01*
X010055Y017221D02*
X008305Y017221D01*
X008305Y017063D02*
X010055Y017063D01*
X009410Y018596D02*
X009410Y018934D01*
X009605Y019129D01*
X010855Y019129D01*
X009078Y019542D02*
X009078Y019542D01*
X009078Y020272D01*
X008605Y019079D02*
X007849Y019079D01*
X007391Y018621D01*
X008605Y019079D02*
X008910Y018774D01*
X008910Y018596D01*
X008805Y021829D02*
X007905Y021829D01*
X007287Y022446D01*
X007287Y023126D01*
X007031Y023126D02*
X007031Y023855D01*
X007055Y023879D01*
X007799Y024423D02*
X007799Y023126D01*
X007799Y022484D01*
X007805Y022479D01*
X006255Y021778D02*
X005938Y022094D01*
X005988Y022144D01*
X005420Y022144D01*
X005413Y022144D01*
X005398Y022159D01*
X005413Y022144D02*
X005363Y022144D01*
X005405Y022129D02*
X005420Y022144D01*
X004455Y021679D02*
X004455Y021521D01*
X005385Y020591D01*
X005385Y019804D02*
X005230Y019804D01*
X004605Y020429D01*
X004605Y020794D01*
X003901Y021498D01*
X004455Y021679D02*
X003901Y022233D01*
X003901Y022498D01*
X003901Y020498D02*
X005382Y019016D01*
X005385Y019016D01*
X005385Y018229D02*
X004170Y018229D01*
X005385Y018229D02*
X005385Y017441D01*
X005385Y016654D02*
X004745Y016654D01*
X006655Y014679D02*
X006967Y014366D01*
X006967Y014335D01*
X011105Y007829D02*
X012145Y006788D01*
X012145Y002550D01*
X014046Y013504D02*
X015576Y013504D01*
X015639Y013567D01*
X015364Y014292D02*
X015639Y014567D01*
X015639Y014813D01*
X016805Y015979D01*
X016805Y016479D01*
X015639Y016567D02*
X014939Y015867D01*
X014046Y015867D01*
X014046Y016654D02*
X014726Y016654D01*
X015639Y017567D01*
X015639Y018567D02*
X014513Y017441D01*
X014046Y017441D01*
X014046Y018229D02*
X014301Y018229D01*
X015639Y019567D01*
X014805Y020379D02*
X014805Y020733D01*
X015639Y021567D01*
X015639Y020567D02*
X014088Y019016D01*
X014046Y019016D01*
X014046Y019804D02*
X014230Y019804D01*
X014805Y020379D01*
X015220Y023568D02*
X015460Y023568D01*
X015706Y023814D01*
X015706Y024514D02*
X015724Y024531D01*
X016466Y024531D01*
X014968Y024546D02*
X014327Y024546D01*
X014327Y024547D01*
X013713Y024547D01*
X013673Y024507D01*
X010643Y024026D02*
X010640Y024029D01*
X010205Y024029D01*
X007805Y024429D02*
X007799Y024423D01*
X015639Y015567D02*
X015151Y015079D01*
X014046Y015079D01*
X014046Y014292D02*
X015364Y014292D01*
D36*
X016805Y016479D03*
X013505Y017729D03*
X013105Y018679D03*
X012455Y020779D03*
X011455Y020779D03*
X010855Y019129D03*
X009555Y019492D03*
X009605Y021129D03*
X008805Y021129D03*
X008805Y021829D03*
X007805Y022479D03*
X008405Y023879D03*
X007805Y024429D03*
X007055Y023879D03*
X006255Y021778D03*
X004805Y021729D03*
X007505Y019479D03*
X007905Y017779D03*
X008405Y017779D03*
X008405Y017279D03*
X007905Y017279D03*
X008005Y016079D03*
X008116Y015385D03*
X008905Y016029D03*
X009405Y016029D03*
X009155Y017229D03*
X009155Y017779D03*
X009905Y017779D03*
X009905Y017229D03*
X011955Y015429D03*
X010205Y014579D03*
X007405Y013679D03*
X009605Y011679D03*
X006905Y009279D03*
X006555Y008879D03*
X010205Y008379D03*
X011105Y007829D03*
X012555Y008379D03*
X012555Y011479D03*
X017239Y022035D03*
X015220Y023568D03*
X014758Y023579D03*
X014305Y023579D03*
X013755Y022979D03*
X013205Y022979D03*
X013105Y023979D03*
X011455Y023529D03*
X010205Y024029D03*
X014877Y022626D03*
D37*
X014171Y021920D01*
X012750Y021920D01*
X011454Y021920D01*
X011453Y021921D01*
X010705Y021173D01*
X010705Y019879D01*
X010318Y019492D01*
X009555Y019492D01*
X009128Y019492D01*
X009078Y019542D01*
X009910Y018596D02*
X011308Y018596D01*
X011496Y018784D01*
X011496Y018070D01*
X010955Y017529D01*
X010955Y017264D01*
X010928Y017238D01*
X010155Y016479D02*
X010155Y016429D01*
X009905Y016179D01*
X009905Y015779D01*
X009655Y015529D01*
X008655Y015529D01*
X008410Y015774D01*
X008410Y016496D01*
X008237Y016496D01*
X008405Y016329D01*
X008237Y016496D02*
X007272Y016496D01*
X007266Y016502D01*
X008116Y015385D02*
X008116Y014567D01*
X008305Y014379D01*
X007905Y014379D01*
X008055Y014529D01*
X008116Y014567D02*
X008116Y014346D01*
X008105Y014335D01*
X007567Y014335D01*
X008105Y014335D02*
X008513Y014335D01*
X008604Y014244D01*
X009255Y013688D02*
X007655Y013688D01*
X007655Y013429D01*
X007405Y013679D01*
X006805Y013679D01*
X006795Y013688D01*
X006255Y014229D01*
X006255Y021778D01*
X011455Y020779D02*
X011455Y020223D01*
X011455Y018826D01*
X011496Y018784D01*
X011453Y020221D02*
X011455Y020223D01*
X012455Y020515D02*
X012750Y020220D01*
X012755Y020224D01*
X012455Y020515D02*
X012455Y020779D01*
X013505Y020079D02*
X013505Y017729D01*
X012628Y017238D02*
X013305Y016562D01*
X013305Y016329D01*
X012677Y015729D02*
X012581Y015633D01*
X011735Y016479D01*
X010155Y016479D01*
X009927Y016479D01*
X009910Y016496D01*
X009905Y016491D01*
X009905Y016179D01*
X010220Y014594D02*
X009404Y014594D01*
X010205Y014579D02*
X010220Y014594D01*
X009255Y013688D02*
X011721Y013688D01*
X011721Y013746D01*
X011654Y013813D01*
X011654Y014319D01*
X011988Y014653D01*
X011955Y014686D01*
X011955Y015429D01*
X012581Y015633D02*
X013305Y014909D01*
X013305Y013370D01*
X013845Y012829D01*
X016355Y012829D01*
X018105Y014579D01*
X018105Y015280D01*
X018198Y015374D01*
X016816Y012125D02*
X016801Y012125D01*
X014405Y009729D01*
X009455Y009729D01*
X008855Y010329D01*
X008855Y012137D01*
X008851Y012141D01*
X007655Y012937D02*
X007655Y013429D01*
X007905Y013679D01*
X007655Y013688D02*
X006795Y013688D01*
X007626Y012909D02*
X007655Y012937D01*
X007276Y012109D02*
X002948Y012109D01*
X002027Y013030D01*
X010205Y008379D02*
X011605Y008379D01*
X012146Y007837D01*
X015763Y007837D01*
X016732Y008806D01*
X018595Y008806D01*
X018595Y009594D02*
X016670Y009594D01*
X015455Y008379D01*
X012555Y008379D01*
X012555Y011479D02*
X012555Y011929D01*
X012405Y012079D01*
X012359Y012054D02*
X012607Y012301D01*
X012555Y012249D01*
X012555Y011929D01*
X012359Y012054D02*
X011721Y012054D01*
X011721Y013078D02*
X011721Y013688D01*
X012654Y013813D02*
X012654Y013048D01*
X012607Y013001D01*
X012654Y013813D02*
X012688Y013848D01*
X012688Y014653D01*
X013505Y020079D02*
X014017Y020591D01*
X014046Y020591D01*
X014005Y020633D01*
X014005Y020929D01*
X015639Y022563D01*
X015639Y022567D01*
X013673Y023907D02*
X013673Y023951D01*
X013645Y023979D01*
X013105Y023979D01*
D38*
X010881Y015633D02*
X010881Y015555D01*
X010405Y015079D01*
X008739Y015079D01*
X008604Y014944D01*
X009005Y013629D02*
X009165Y013469D01*
X009201Y013469D01*
X009245Y013469D01*
X009405Y013629D01*
X009255Y013688D02*
X009201Y013634D01*
X009201Y013469D01*
X009201Y012941D01*
D39*
X013305Y016329D03*
M02*
