G75*
G70*
%OFA0B0*%
%FSLAX24Y24*%
%IPPOS*%
%LPD*%
%AMOC8*
5,1,8,0,0,1.08239X$1,22.5*
%
%ADD10C,0.0100*%
%ADD11C,0.0000*%
%ADD12R,0.0650X0.0650*%
%ADD13C,0.0650*%
%ADD14C,0.0594*%
%ADD15C,0.0500*%
%ADD16R,0.0515X0.0515*%
%ADD17C,0.0515*%
%ADD18R,0.0520X0.0520*%
%ADD19C,0.0520*%
%ADD20OC8,0.0650*%
%ADD21C,0.0160*%
%ADD22C,0.0320*%
%ADD23C,0.0320*%
%ADD24C,0.0356*%
%ADD25C,0.0250*%
D10*
X001444Y001330D02*
X001307Y001567D01*
X001236Y001832D01*
X001227Y001969D01*
X001227Y024075D01*
X001236Y024212D01*
X001307Y024477D01*
X001444Y024714D01*
X001638Y024908D01*
X001875Y025045D01*
X002140Y025116D01*
X002277Y025125D01*
X018228Y025125D01*
X018364Y025114D01*
X018622Y025031D01*
X018841Y024871D01*
X019000Y024652D01*
X019084Y024394D01*
X019095Y024259D01*
X019095Y022966D01*
X019044Y023017D01*
X018979Y023061D01*
X018906Y023091D01*
X018829Y023106D01*
X018552Y023106D01*
X018552Y022719D01*
X018527Y022719D01*
X018527Y023106D01*
X018381Y023106D01*
X018429Y023126D01*
X018648Y023346D01*
X018767Y023632D01*
X018767Y023943D01*
X018648Y024229D01*
X018429Y024449D01*
X018142Y024567D01*
X017832Y024567D01*
X017546Y024449D01*
X017326Y024229D01*
X017207Y023943D01*
X017207Y023632D01*
X017226Y023587D01*
X017183Y023605D01*
X015530Y023605D01*
X015530Y023630D01*
X015483Y023744D01*
X015450Y023777D01*
X015450Y024341D01*
X015267Y024524D01*
X015133Y024659D01*
X008013Y024659D01*
X007980Y024692D01*
X007866Y024739D01*
X007743Y024739D01*
X007629Y024692D01*
X007542Y024604D01*
X007495Y024490D01*
X007495Y024367D01*
X007542Y024253D01*
X007629Y024166D01*
X007743Y024119D01*
X007866Y024119D01*
X007980Y024166D01*
X008013Y024199D01*
X009932Y024199D01*
X009858Y024124D01*
X008089Y022356D01*
X008115Y022417D01*
X008115Y022540D01*
X008067Y022654D01*
X007980Y022742D01*
X007866Y022789D01*
X007743Y022789D01*
X007629Y022742D01*
X007542Y022654D01*
X006975Y022088D01*
X006193Y022088D01*
X006079Y022041D01*
X005992Y021954D01*
X005945Y021840D01*
X005945Y021716D01*
X005992Y021602D01*
X006079Y021515D01*
X006193Y021468D01*
X007165Y021468D01*
X007227Y021493D01*
X006285Y020551D01*
X006285Y020016D01*
X005794Y020507D01*
X005795Y020510D01*
X005795Y020673D01*
X006406Y020673D01*
X006308Y020574D02*
X005795Y020574D01*
X005795Y020673D02*
X005732Y020823D01*
X005617Y020939D01*
X005466Y021001D01*
X005303Y021001D01*
X005152Y020939D01*
X005037Y020823D01*
X004975Y020673D01*
X004342Y020673D01*
X004376Y020593D02*
X004303Y020767D01*
X004170Y020901D01*
X003995Y020973D01*
X003806Y020973D01*
X003632Y020901D01*
X003498Y020767D01*
X003426Y020593D01*
X003426Y020404D01*
X003442Y020364D01*
X002625Y019547D01*
X002625Y014524D01*
X002434Y014334D01*
X002434Y014924D01*
X002346Y015012D01*
X001707Y015012D01*
X001619Y014924D01*
X001619Y014285D01*
X001707Y014197D01*
X001879Y014197D01*
X001796Y014162D01*
X001681Y014048D01*
X001619Y013898D01*
X001619Y013736D01*
X001681Y013586D01*
X001796Y013471D01*
X001912Y013423D01*
X001796Y013375D01*
X001681Y013260D01*
X001619Y013111D01*
X001619Y012948D01*
X001681Y012799D01*
X001796Y012684D01*
X001916Y012634D01*
X001870Y012620D01*
X001813Y012591D01*
X001761Y012553D01*
X001716Y012508D01*
X001678Y012456D01*
X001649Y012399D01*
X001227Y012399D01*
X001227Y012497D02*
X001708Y012497D01*
X001649Y012399D02*
X001629Y012338D01*
X001619Y012274D01*
X001619Y012271D01*
X001998Y012271D01*
X001998Y012213D01*
X002055Y012213D01*
X002055Y011835D01*
X002059Y011835D01*
X002122Y011845D01*
X002183Y011864D01*
X002240Y011894D01*
X002292Y011931D01*
X002337Y011977D01*
X002375Y012029D01*
X002404Y012086D01*
X002424Y012147D01*
X002434Y012210D01*
X002434Y012213D01*
X002055Y012213D01*
X002055Y012271D01*
X002434Y012271D01*
X002434Y012274D01*
X002424Y012338D01*
X002404Y012399D01*
X006325Y012399D01*
X006325Y012497D02*
X002345Y012497D01*
X002337Y012508D02*
X002292Y012553D01*
X002240Y012591D01*
X002183Y012620D01*
X002138Y012634D01*
X002257Y012684D01*
X002372Y012799D01*
X002434Y012948D01*
X002434Y013111D01*
X002372Y013260D01*
X002257Y013375D01*
X002141Y013423D01*
X002257Y013471D01*
X002372Y013586D01*
X002397Y013646D01*
X002950Y014199D01*
X003085Y014333D01*
X003085Y019357D01*
X003767Y020039D01*
X003806Y020023D01*
X003995Y020023D01*
X004170Y020095D01*
X004303Y020229D01*
X004376Y020404D01*
X004376Y020593D01*
X004376Y020574D02*
X004975Y020574D01*
X004975Y020510D02*
X005037Y020359D01*
X005152Y020244D01*
X005264Y020197D01*
X005152Y020151D01*
X005037Y020036D01*
X004975Y019885D01*
X004186Y019885D01*
X004170Y019901D02*
X003995Y019973D01*
X003806Y019973D01*
X003632Y019901D01*
X003498Y019767D01*
X003426Y019593D01*
X003426Y019404D01*
X003498Y019229D01*
X003632Y019095D01*
X003806Y019023D01*
X003995Y019023D01*
X004170Y019095D01*
X004303Y019229D01*
X004376Y019404D01*
X004376Y019593D01*
X004303Y019767D01*
X004170Y019901D01*
X004284Y019786D02*
X004975Y019786D01*
X004975Y019722D02*
X005037Y019571D01*
X005152Y019456D01*
X005264Y019410D01*
X005152Y019364D01*
X005037Y019249D01*
X004975Y019098D01*
X004975Y018935D01*
X005037Y018784D01*
X005152Y018669D01*
X005264Y018623D01*
X005152Y018576D01*
X005037Y018461D01*
X004975Y018310D01*
X004975Y018147D01*
X005037Y017997D01*
X005152Y017881D01*
X005264Y017835D01*
X005152Y017789D01*
X005037Y017674D01*
X004975Y017523D01*
X004975Y017360D01*
X005037Y017209D01*
X005152Y017094D01*
X005264Y017048D01*
X005152Y017002D01*
X005037Y016886D01*
X004975Y016736D01*
X004975Y016573D01*
X005037Y016422D01*
X005152Y016307D01*
X005264Y016260D01*
X005152Y016214D01*
X005037Y016099D01*
X004975Y015948D01*
X004975Y015785D01*
X005037Y015634D01*
X005152Y015519D01*
X005264Y015473D01*
X005152Y015427D01*
X005037Y015312D01*
X004975Y015161D01*
X004975Y014998D01*
X005037Y014847D01*
X005152Y014732D01*
X005264Y014686D01*
X005152Y014639D01*
X005037Y014524D01*
X004975Y014373D01*
X004975Y014210D01*
X005037Y014060D01*
X005152Y013944D01*
X005264Y013898D01*
X005152Y013852D01*
X005037Y013737D01*
X004975Y013586D01*
X004975Y013423D01*
X005037Y013272D01*
X005152Y013157D01*
X005303Y013094D01*
X005466Y013094D01*
X005617Y013157D01*
X005732Y013272D01*
X005795Y013423D01*
X005795Y013586D01*
X005732Y013737D01*
X005617Y013852D01*
X005506Y013898D01*
X005617Y013944D01*
X005732Y014060D01*
X005795Y014210D01*
X005795Y014373D01*
X005732Y014524D01*
X005617Y014639D01*
X005506Y014686D01*
X005617Y014732D01*
X005732Y014847D01*
X005770Y014938D01*
X005809Y014899D01*
X006325Y014383D01*
X006325Y011207D01*
X006198Y011333D01*
X005962Y011431D01*
X005707Y011431D01*
X005471Y011333D01*
X005290Y011152D01*
X005192Y010916D01*
X005192Y010661D01*
X005290Y010425D01*
X005471Y010244D01*
X005707Y010147D01*
X005962Y010147D01*
X006198Y010244D01*
X006325Y010371D01*
X006325Y009087D01*
X006292Y009054D01*
X006245Y008940D01*
X006245Y008817D01*
X006292Y008703D01*
X006379Y008616D01*
X006493Y008569D01*
X006616Y008569D01*
X006730Y008616D01*
X006817Y008703D01*
X006865Y008817D01*
X006865Y008940D01*
X006853Y008969D01*
X006966Y008969D01*
X007080Y009016D01*
X007095Y009030D01*
X007095Y006257D01*
X003888Y003051D01*
X003841Y002937D01*
X003841Y001699D01*
X003748Y001606D01*
X003676Y001431D01*
X003676Y001242D01*
X003748Y001068D01*
X003882Y000934D01*
X003919Y000919D01*
X002277Y000919D01*
X002140Y000928D01*
X001875Y000999D01*
X001638Y001136D01*
X001444Y001330D01*
X001422Y001367D02*
X002311Y001367D01*
X002342Y001354D02*
X002652Y001354D01*
X002939Y001473D01*
X003158Y001692D01*
X003277Y001979D01*
X003277Y002289D01*
X003158Y002576D01*
X002939Y002795D01*
X002652Y002914D01*
X002342Y002914D01*
X002055Y002795D01*
X001836Y002576D01*
X001717Y002289D01*
X001717Y001979D01*
X001836Y001692D01*
X002055Y001473D01*
X002342Y001354D01*
X002073Y001465D02*
X001366Y001465D01*
X001309Y001564D02*
X001964Y001564D01*
X001865Y001662D02*
X001281Y001662D01*
X001255Y001761D02*
X001807Y001761D01*
X001766Y001859D02*
X001234Y001859D01*
X001228Y001958D02*
X001726Y001958D01*
X001717Y002056D02*
X001227Y002056D01*
X001227Y002155D02*
X001717Y002155D01*
X001717Y002253D02*
X001227Y002253D01*
X001227Y002352D02*
X001743Y002352D01*
X001784Y002450D02*
X001227Y002450D01*
X001227Y002549D02*
X001824Y002549D01*
X001907Y002647D02*
X001227Y002647D01*
X001227Y002746D02*
X002006Y002746D01*
X002174Y002844D02*
X001227Y002844D01*
X001227Y002943D02*
X003843Y002943D01*
X003841Y002844D02*
X002820Y002844D01*
X002988Y002746D02*
X003841Y002746D01*
X003841Y002647D02*
X003086Y002647D01*
X003169Y002549D02*
X003841Y002549D01*
X003841Y002450D02*
X003210Y002450D01*
X003251Y002352D02*
X003841Y002352D01*
X003841Y002253D02*
X003277Y002253D01*
X003277Y002155D02*
X003841Y002155D01*
X003841Y002056D02*
X003277Y002056D01*
X003268Y001958D02*
X003841Y001958D01*
X003841Y001859D02*
X003227Y001859D01*
X003186Y001761D02*
X003841Y001761D01*
X003804Y001662D02*
X003128Y001662D01*
X003030Y001564D02*
X003731Y001564D01*
X003690Y001465D02*
X002921Y001465D01*
X002683Y001367D02*
X003676Y001367D01*
X003676Y001268D02*
X001505Y001268D01*
X001604Y001170D02*
X003706Y001170D01*
X003747Y001071D02*
X001749Y001071D01*
X001972Y000973D02*
X003843Y000973D01*
X002277Y000719D02*
X018045Y000719D01*
X018045Y000919D02*
X008595Y000919D01*
X008626Y000950D01*
X008626Y001724D01*
X008538Y001812D01*
X008381Y001812D01*
X008381Y002810D01*
X008835Y003263D01*
X008835Y005183D01*
X008850Y005199D01*
X011250Y005199D01*
X011385Y005333D01*
X011385Y005333D01*
X012035Y005983D01*
X012035Y012133D01*
X012300Y012399D01*
X015726Y012399D01*
X015718Y012390D01*
X015680Y012338D01*
X015651Y012281D01*
X015631Y012220D01*
X015621Y012157D01*
X015621Y012154D01*
X016000Y012154D01*
X016000Y012096D01*
X016057Y012096D01*
X016057Y011717D01*
X016061Y011717D01*
X016124Y011727D01*
X016185Y011747D01*
X016242Y011776D01*
X016294Y011814D01*
X016339Y011859D01*
X016377Y011911D01*
X016406Y011968D01*
X016421Y012014D01*
X016471Y011894D01*
X016585Y011779D01*
X016735Y011717D01*
X016897Y011717D01*
X017047Y011779D01*
X017161Y011894D01*
X017210Y012010D01*
X017258Y011894D01*
X017373Y011779D01*
X017522Y011717D01*
X017684Y011717D01*
X017834Y011779D01*
X017949Y011894D01*
X017983Y011977D01*
X017983Y011805D01*
X018071Y011717D01*
X018710Y011717D01*
X018798Y011805D01*
X018798Y012444D01*
X018710Y012532D01*
X018071Y012532D01*
X017983Y012444D01*
X017983Y012272D01*
X017949Y012356D01*
X017834Y012470D01*
X017684Y012532D01*
X017522Y012532D01*
X017373Y012470D01*
X017258Y012356D01*
X017210Y012239D01*
X017161Y012356D01*
X017047Y012470D01*
X016897Y012532D01*
X016735Y012532D01*
X016585Y012470D01*
X016471Y012356D01*
X016421Y012236D01*
X016406Y012281D01*
X016377Y012338D01*
X016339Y012390D01*
X016294Y012436D01*
X016277Y012448D01*
X016700Y012870D01*
X016835Y013005D01*
X016835Y016169D01*
X016866Y016169D01*
X016980Y016216D01*
X017067Y016303D01*
X017115Y016417D01*
X017115Y016540D01*
X017067Y016654D01*
X016980Y016742D01*
X016866Y016789D01*
X016743Y016789D01*
X016629Y016742D01*
X016542Y016654D01*
X016515Y016589D01*
X016515Y016950D01*
X016733Y017169D01*
X017766Y017169D01*
X017880Y017216D01*
X018380Y017716D01*
X018467Y017803D01*
X018494Y017867D01*
X018518Y017867D01*
X018606Y017954D01*
X018606Y018594D01*
X018518Y018681D01*
X017879Y018681D01*
X017791Y018594D01*
X017791Y018423D01*
X017789Y018430D01*
X017759Y018488D01*
X017722Y018539D01*
X017676Y018585D01*
X017624Y018623D01*
X017567Y018652D01*
X017506Y018671D01*
X017443Y018681D01*
X017440Y018681D01*
X017440Y018303D01*
X017382Y018303D01*
X017382Y018681D01*
X017379Y018681D01*
X017315Y018671D01*
X017254Y018652D01*
X017197Y018623D01*
X017145Y018585D01*
X017100Y018539D01*
X017062Y018488D01*
X017033Y018430D01*
X017013Y018369D01*
X017003Y018306D01*
X017003Y018303D01*
X017382Y018303D01*
X017382Y018245D01*
X017440Y018245D01*
X017440Y017867D01*
X017443Y017867D01*
X017506Y017877D01*
X017567Y017896D01*
X017624Y017926D01*
X017676Y017963D01*
X017722Y018009D01*
X017759Y018060D01*
X017789Y018118D01*
X017791Y018125D01*
X017791Y018003D01*
X017576Y017789D01*
X016543Y017789D01*
X016429Y017742D01*
X016342Y017654D01*
X016081Y017394D01*
X016114Y017472D01*
X016114Y017661D01*
X016042Y017836D01*
X015908Y017970D01*
X015733Y018042D01*
X015544Y018042D01*
X015370Y017970D01*
X015236Y017836D01*
X015164Y017661D01*
X015164Y017472D01*
X015236Y017298D01*
X015370Y017164D01*
X015544Y017092D01*
X015733Y017092D01*
X015904Y017163D01*
X015895Y017140D01*
X015895Y016975D01*
X015733Y017042D01*
X015544Y017042D01*
X015370Y016970D01*
X015236Y016836D01*
X015164Y016661D01*
X015164Y016472D01*
X015236Y016298D01*
X015370Y016164D01*
X015544Y016092D01*
X015733Y016092D01*
X015895Y016159D01*
X015895Y015975D01*
X015733Y016042D01*
X015544Y016042D01*
X015370Y015970D01*
X015236Y015836D01*
X015164Y015661D01*
X015164Y015472D01*
X015236Y015298D01*
X015370Y015164D01*
X015544Y015092D01*
X015733Y015092D01*
X015895Y015159D01*
X015895Y014975D01*
X015733Y015042D01*
X015544Y015042D01*
X015370Y014970D01*
X015236Y014836D01*
X015164Y014661D01*
X015164Y014472D01*
X015236Y014298D01*
X015370Y014164D01*
X015544Y014092D01*
X015733Y014092D01*
X015895Y014159D01*
X015895Y013983D01*
X015836Y014042D01*
X015676Y014042D01*
X015676Y013604D01*
X015601Y013604D01*
X015601Y013529D01*
X015164Y013529D01*
X015164Y013370D01*
X015245Y013289D01*
X014396Y013289D01*
X014397Y013290D01*
X014426Y013347D01*
X014446Y013408D01*
X014456Y013472D01*
X014456Y013474D01*
X014076Y013474D01*
X014076Y013534D01*
X014456Y013534D01*
X014456Y013537D01*
X014446Y013600D01*
X014426Y013662D01*
X014397Y013719D01*
X014359Y013772D01*
X014313Y013817D01*
X014261Y013855D01*
X014203Y013884D01*
X014164Y013897D01*
X014278Y013944D01*
X014394Y014060D01*
X014456Y014210D01*
X014456Y014373D01*
X014394Y014524D01*
X014278Y014639D01*
X014167Y014686D01*
X014278Y014732D01*
X014394Y014847D01*
X014456Y014998D01*
X014456Y015161D01*
X014394Y015312D01*
X014278Y015427D01*
X014167Y015473D01*
X014278Y015519D01*
X014394Y015634D01*
X014456Y015785D01*
X014456Y015948D01*
X014394Y016099D01*
X014278Y016214D01*
X014167Y016260D01*
X014278Y016307D01*
X014394Y016422D01*
X014456Y016573D01*
X014456Y016736D01*
X014394Y016886D01*
X014278Y017002D01*
X014167Y017048D01*
X014278Y017094D01*
X014394Y017209D01*
X014456Y017360D01*
X014456Y017523D01*
X014394Y017674D01*
X014278Y017789D01*
X014167Y017835D01*
X014278Y017881D01*
X014394Y017997D01*
X014456Y018147D01*
X014456Y018310D01*
X014394Y018461D01*
X014278Y018576D01*
X014167Y018623D01*
X014278Y018669D01*
X014394Y018784D01*
X014456Y018935D01*
X014456Y019098D01*
X014394Y019249D01*
X014278Y019364D01*
X014167Y019410D01*
X014278Y019456D01*
X014394Y019571D01*
X014456Y019722D01*
X014456Y019885D01*
X015285Y019885D01*
X015236Y019836D02*
X015164Y019661D01*
X015164Y019472D01*
X015236Y019298D01*
X015370Y019164D01*
X015544Y019092D01*
X015733Y019092D01*
X015908Y019164D01*
X016042Y019298D01*
X016114Y019472D01*
X016114Y019473D01*
X016128Y019451D01*
X016184Y019396D01*
X016250Y019352D01*
X016322Y019322D01*
X016400Y019306D01*
X016677Y019306D01*
X016677Y019694D01*
X016702Y019694D01*
X016702Y019719D01*
X017339Y019719D01*
X017339Y019746D01*
X017324Y019823D01*
X017294Y019896D01*
X017250Y019961D01*
X017194Y020017D01*
X017129Y020061D01*
X017056Y020091D01*
X016979Y020106D01*
X016702Y020106D01*
X016702Y019719D01*
X016677Y019719D01*
X016677Y020106D01*
X016400Y020106D01*
X016322Y020091D01*
X016250Y020061D01*
X016184Y020017D01*
X016128Y019961D01*
X016085Y019896D01*
X016054Y019823D01*
X016052Y019811D01*
X016042Y019836D01*
X015908Y019970D01*
X015733Y020042D01*
X015544Y020042D01*
X015370Y019970D01*
X015236Y019836D01*
X015216Y019786D02*
X014456Y019786D01*
X014442Y019688D02*
X015175Y019688D01*
X015164Y019589D02*
X014401Y019589D01*
X014313Y019491D02*
X015164Y019491D01*
X015197Y019392D02*
X014210Y019392D01*
X014348Y019294D02*
X015240Y019294D01*
X015339Y019195D02*
X014416Y019195D01*
X014456Y019097D02*
X015533Y019097D01*
X015544Y019042D02*
X015370Y018970D01*
X015236Y018836D01*
X015164Y018661D01*
X015164Y018472D01*
X015236Y018298D01*
X015370Y018164D01*
X015544Y018092D01*
X015733Y018092D01*
X015908Y018164D01*
X016042Y018298D01*
X016114Y018472D01*
X016114Y018661D01*
X016042Y018836D01*
X015908Y018970D01*
X015733Y019042D01*
X015544Y019042D01*
X015439Y018998D02*
X014456Y018998D01*
X014442Y018900D02*
X015300Y018900D01*
X015222Y018801D02*
X014401Y018801D01*
X014312Y018703D02*
X015181Y018703D01*
X015164Y018604D02*
X014211Y018604D01*
X014349Y018506D02*
X015164Y018506D01*
X015191Y018407D02*
X014416Y018407D01*
X014456Y018309D02*
X015232Y018309D01*
X015324Y018210D02*
X014456Y018210D01*
X014441Y018112D02*
X015496Y018112D01*
X015475Y018013D02*
X014401Y018013D01*
X014312Y017915D02*
X015315Y017915D01*
X015228Y017816D02*
X014213Y017816D01*
X014350Y017718D02*
X015187Y017718D01*
X015164Y017619D02*
X014416Y017619D01*
X014456Y017521D02*
X015164Y017521D01*
X015185Y017422D02*
X014456Y017422D01*
X014441Y017324D02*
X015225Y017324D01*
X015309Y017225D02*
X014400Y017225D01*
X014311Y017127D02*
X015460Y017127D01*
X015511Y017028D02*
X014214Y017028D01*
X014350Y016930D02*
X015330Y016930D01*
X015234Y016831D02*
X014416Y016831D01*
X014456Y016733D02*
X015193Y016733D01*
X015164Y016634D02*
X014456Y016634D01*
X014441Y016536D02*
X015164Y016536D01*
X015178Y016437D02*
X014400Y016437D01*
X014311Y016339D02*
X015219Y016339D01*
X015294Y016240D02*
X014215Y016240D01*
X014351Y016142D02*
X015424Y016142D01*
X015345Y015945D02*
X014456Y015945D01*
X014456Y015846D02*
X015246Y015846D01*
X015200Y015748D02*
X014441Y015748D01*
X014400Y015649D02*
X015164Y015649D01*
X015164Y015551D02*
X014310Y015551D01*
X014217Y015452D02*
X015172Y015452D01*
X015213Y015354D02*
X014351Y015354D01*
X014417Y015255D02*
X015279Y015255D01*
X015388Y015157D02*
X014456Y015157D01*
X014456Y015058D02*
X015895Y015058D01*
X015890Y015157D02*
X015895Y015157D01*
X015360Y014960D02*
X014440Y014960D01*
X014400Y014861D02*
X015261Y014861D01*
X015206Y014763D02*
X014309Y014763D01*
X014218Y014664D02*
X015165Y014664D01*
X015164Y014566D02*
X014352Y014566D01*
X014417Y014467D02*
X015166Y014467D01*
X015207Y014369D02*
X014456Y014369D01*
X014456Y014270D02*
X015264Y014270D01*
X015362Y014172D02*
X014440Y014172D01*
X014399Y014073D02*
X015895Y014073D01*
X015676Y013975D02*
X015601Y013975D01*
X015601Y014042D02*
X015442Y014042D01*
X015164Y013764D01*
X015164Y013604D01*
X015601Y013604D01*
X015601Y014042D01*
X015601Y013876D02*
X015676Y013876D01*
X015676Y013778D02*
X015601Y013778D01*
X015601Y013679D02*
X015676Y013679D01*
X015601Y013581D02*
X014449Y013581D01*
X014417Y013679D02*
X015164Y013679D01*
X015178Y013778D02*
X014353Y013778D01*
X014219Y013876D02*
X015276Y013876D01*
X015375Y013975D02*
X014309Y013975D01*
X014016Y013534D02*
X014016Y013474D01*
X013647Y013474D01*
X013615Y013507D01*
X013615Y016220D01*
X013633Y016263D01*
X013633Y016394D01*
X013583Y016515D01*
X013490Y016607D01*
X013370Y016657D01*
X013239Y016657D01*
X013119Y016607D01*
X013026Y016515D01*
X012977Y016394D01*
X012977Y016263D01*
X012995Y016220D01*
X012995Y013317D01*
X013042Y013203D01*
X013386Y012859D01*
X012109Y012859D01*
X011709Y012459D01*
X011575Y012324D01*
X011575Y006174D01*
X011059Y005659D01*
X008850Y005659D01*
X008835Y005674D01*
X008835Y014324D01*
X008700Y014459D01*
X008084Y015075D01*
X008178Y015075D01*
X008292Y015122D01*
X008379Y015209D01*
X008426Y015323D01*
X008426Y015446D01*
X008379Y015560D01*
X008292Y015647D01*
X008178Y015695D01*
X008127Y015695D01*
X007810Y016012D01*
X007810Y018745D01*
X007875Y018810D01*
X007875Y016483D01*
X008009Y016349D01*
X008942Y016349D01*
X008932Y016339D01*
X007810Y016339D01*
X007810Y016437D02*
X007921Y016437D01*
X007875Y016536D02*
X007810Y016536D01*
X007810Y016634D02*
X007875Y016634D01*
X007875Y016733D02*
X007810Y016733D01*
X007810Y016831D02*
X007875Y016831D01*
X007875Y016930D02*
X007810Y016930D01*
X007810Y017028D02*
X007875Y017028D01*
X007875Y017127D02*
X007810Y017127D01*
X007810Y017225D02*
X007875Y017225D01*
X007875Y017324D02*
X007810Y017324D01*
X007810Y017422D02*
X007875Y017422D01*
X007875Y017521D02*
X007810Y017521D01*
X007810Y017619D02*
X007875Y017619D01*
X007875Y017718D02*
X007810Y017718D01*
X007810Y017816D02*
X007875Y017816D01*
X007875Y017915D02*
X007810Y017915D01*
X007810Y018013D02*
X007875Y018013D01*
X007875Y018112D02*
X007810Y018112D01*
X007810Y018210D02*
X007875Y018210D01*
X007875Y018309D02*
X007810Y018309D01*
X007810Y018407D02*
X007875Y018407D01*
X007875Y018506D02*
X007810Y018506D01*
X007810Y018604D02*
X007875Y018604D01*
X007875Y018703D02*
X007810Y018703D01*
X007866Y018801D02*
X007875Y018801D01*
X008173Y019109D02*
X008246Y019182D01*
X009616Y019182D01*
X009730Y019229D01*
X009817Y019317D01*
X009865Y019431D01*
X009865Y019554D01*
X009817Y019668D01*
X009730Y019755D01*
X009616Y019802D01*
X008056Y019802D01*
X007942Y019755D01*
X007365Y019177D01*
X007365Y020063D01*
X008820Y021519D01*
X008866Y021519D01*
X008980Y021566D01*
X009067Y021653D01*
X009115Y021767D01*
X009115Y021890D01*
X009067Y022004D01*
X008980Y022092D01*
X008938Y022109D01*
X010127Y023299D01*
X011246Y023299D01*
X011279Y023266D01*
X011393Y023219D01*
X011498Y023219D01*
X011192Y022912D01*
X011145Y022798D01*
X011145Y020717D01*
X011192Y020603D01*
X011279Y020516D01*
X011393Y020469D01*
X011516Y020469D01*
X011605Y020505D01*
X011605Y018112D01*
X010385Y018112D01*
X010385Y018210D02*
X011605Y018210D01*
X011605Y018112D02*
X010385Y016892D01*
X010385Y018974D01*
X010250Y019109D01*
X010059Y019109D01*
X008200Y019109D01*
X008173Y019109D01*
X007777Y019589D02*
X007365Y019589D01*
X007365Y019491D02*
X007678Y019491D01*
X007580Y019392D02*
X007365Y019392D01*
X007365Y019294D02*
X007481Y019294D01*
X007383Y019195D02*
X007365Y019195D01*
X007365Y019688D02*
X007875Y019688D01*
X008018Y019786D02*
X007365Y019786D01*
X007365Y019885D02*
X011605Y019885D01*
X011605Y019983D02*
X007365Y019983D01*
X007383Y020082D02*
X011605Y020082D01*
X011605Y020180D02*
X007481Y020180D01*
X007580Y020279D02*
X011605Y020279D01*
X011605Y020377D02*
X007678Y020377D01*
X007777Y020476D02*
X011376Y020476D01*
X011533Y020476D02*
X011605Y020476D01*
X011221Y020574D02*
X007875Y020574D01*
X007974Y020673D02*
X011163Y020673D01*
X011145Y020771D02*
X008072Y020771D01*
X008171Y020870D02*
X011145Y020870D01*
X011145Y020968D02*
X008269Y020968D01*
X008368Y021067D02*
X011145Y021067D01*
X011145Y021165D02*
X008466Y021165D01*
X008565Y021264D02*
X011145Y021264D01*
X011145Y021362D02*
X008663Y021362D01*
X008762Y021461D02*
X011145Y021461D01*
X011145Y021559D02*
X008964Y021559D01*
X009069Y021658D02*
X011145Y021658D01*
X011145Y021756D02*
X009110Y021756D01*
X009115Y021855D02*
X011145Y021855D01*
X011145Y021953D02*
X009089Y021953D01*
X009020Y022052D02*
X011145Y022052D01*
X011145Y022150D02*
X008979Y022150D01*
X009077Y022249D02*
X011145Y022249D01*
X011145Y022347D02*
X009176Y022347D01*
X009274Y022446D02*
X011145Y022446D01*
X011145Y022544D02*
X009373Y022544D01*
X009471Y022643D02*
X011145Y022643D01*
X011145Y022741D02*
X009570Y022741D01*
X009668Y022840D02*
X011162Y022840D01*
X011218Y022938D02*
X009767Y022938D01*
X009865Y023037D02*
X011316Y023037D01*
X011415Y023135D02*
X009964Y023135D01*
X010062Y023234D02*
X011357Y023234D01*
X011805Y022629D02*
X011805Y018029D01*
X010105Y016329D01*
X009205Y016329D01*
X008955Y016079D01*
X008905Y016079D01*
X008905Y016029D01*
X008678Y016240D02*
X007810Y016240D01*
X007810Y016142D02*
X008616Y016142D01*
X008595Y016090D02*
X008595Y015967D01*
X008642Y015853D01*
X008729Y015766D01*
X008843Y015719D01*
X008966Y015719D01*
X009080Y015766D01*
X009155Y015840D01*
X009229Y015766D01*
X009343Y015719D01*
X009466Y015719D01*
X009580Y015766D01*
X009643Y015829D01*
X009966Y015829D01*
X009942Y015804D01*
X009895Y015690D01*
X009895Y008317D01*
X009942Y008203D01*
X010029Y008116D01*
X010143Y008069D01*
X010266Y008069D01*
X010380Y008116D01*
X010467Y008203D01*
X010515Y008317D01*
X010515Y015500D01*
X010875Y015860D01*
X010875Y008037D01*
X010842Y008004D01*
X010795Y007890D01*
X010795Y007767D01*
X010842Y007653D01*
X010929Y007566D01*
X011043Y007519D01*
X011166Y007519D01*
X011280Y007566D01*
X011367Y007653D01*
X011415Y007767D01*
X011415Y007890D01*
X011367Y008004D01*
X011335Y008037D01*
X011335Y015833D01*
X011645Y016143D01*
X011645Y015367D01*
X011692Y015253D01*
X011779Y015166D01*
X011893Y015119D01*
X012016Y015119D01*
X012130Y015166D01*
X012217Y015253D01*
X012265Y015367D01*
X012265Y016050D01*
X013636Y017422D01*
X013636Y017360D01*
X013698Y017209D01*
X013814Y017094D01*
X013925Y017048D01*
X013814Y017002D01*
X013698Y016886D01*
X013636Y016736D01*
X013636Y016573D01*
X013698Y016422D01*
X013814Y016307D01*
X013925Y016260D01*
X013814Y016214D01*
X013698Y016099D01*
X013636Y015948D01*
X013636Y015785D01*
X013698Y015634D01*
X013814Y015519D01*
X013925Y015473D01*
X013814Y015427D01*
X013698Y015312D01*
X013636Y015161D01*
X013636Y014998D01*
X013698Y014847D01*
X013814Y014732D01*
X013925Y014686D01*
X013814Y014639D01*
X013698Y014524D01*
X013636Y014373D01*
X013636Y014210D01*
X013698Y014060D01*
X013814Y013944D01*
X013928Y013897D01*
X013889Y013884D01*
X013831Y013855D01*
X013779Y013817D01*
X013733Y013772D01*
X013695Y013719D01*
X013666Y013662D01*
X013646Y013600D01*
X013636Y013537D01*
X013636Y013534D01*
X014016Y013534D01*
X014016Y013482D02*
X013639Y013482D01*
X013643Y013581D02*
X013615Y013581D01*
X013615Y013679D02*
X013675Y013679D01*
X013615Y013778D02*
X013739Y013778D01*
X013615Y013876D02*
X013873Y013876D01*
X013783Y013975D02*
X013615Y013975D01*
X013615Y014073D02*
X013693Y014073D01*
X013652Y014172D02*
X013615Y014172D01*
X013615Y014270D02*
X013636Y014270D01*
X013636Y014369D02*
X013615Y014369D01*
X013615Y014467D02*
X013675Y014467D01*
X013615Y014566D02*
X013740Y014566D01*
X013615Y014664D02*
X013874Y014664D01*
X013783Y014763D02*
X013615Y014763D01*
X013615Y014861D02*
X013693Y014861D01*
X013652Y014960D02*
X013615Y014960D01*
X013615Y015058D02*
X013636Y015058D01*
X013636Y015157D02*
X013615Y015157D01*
X013615Y015255D02*
X013675Y015255D01*
X013615Y015354D02*
X013741Y015354D01*
X013615Y015452D02*
X013875Y015452D01*
X013782Y015551D02*
X013615Y015551D01*
X013615Y015649D02*
X013692Y015649D01*
X013652Y015748D02*
X013615Y015748D01*
X013615Y015846D02*
X013636Y015846D01*
X013636Y015945D02*
X013615Y015945D01*
X013615Y016043D02*
X013675Y016043D01*
X013615Y016142D02*
X013741Y016142D01*
X013623Y016240D02*
X013877Y016240D01*
X013782Y016339D02*
X013633Y016339D01*
X013615Y016437D02*
X013692Y016437D01*
X013651Y016536D02*
X013562Y016536D01*
X013636Y016634D02*
X013424Y016634D01*
X013636Y016733D02*
X012947Y016733D01*
X013046Y016831D02*
X013676Y016831D01*
X013742Y016930D02*
X013144Y016930D01*
X013243Y017028D02*
X013878Y017028D01*
X013781Y017127D02*
X013341Y017127D01*
X013440Y017225D02*
X013692Y017225D01*
X013651Y017324D02*
X013538Y017324D01*
X013185Y016634D02*
X012849Y016634D01*
X012750Y016536D02*
X013048Y016536D01*
X012994Y016437D02*
X012652Y016437D01*
X012553Y016339D02*
X012977Y016339D01*
X012986Y016240D02*
X012455Y016240D01*
X012356Y016142D02*
X012995Y016142D01*
X012995Y016043D02*
X012265Y016043D01*
X012265Y015945D02*
X012995Y015945D01*
X012995Y015846D02*
X012265Y015846D01*
X012265Y015748D02*
X012995Y015748D01*
X012995Y015649D02*
X012265Y015649D01*
X012265Y015551D02*
X012995Y015551D01*
X012995Y015452D02*
X012265Y015452D01*
X012259Y015354D02*
X012995Y015354D01*
X012995Y015255D02*
X012218Y015255D01*
X012108Y015157D02*
X012995Y015157D01*
X012995Y015058D02*
X011335Y015058D01*
X011335Y014960D02*
X012995Y014960D01*
X012995Y014861D02*
X011335Y014861D01*
X011335Y014763D02*
X012995Y014763D01*
X012995Y014664D02*
X011335Y014664D01*
X011335Y014566D02*
X012995Y014566D01*
X012995Y014467D02*
X011335Y014467D01*
X011335Y014369D02*
X012995Y014369D01*
X012995Y014270D02*
X011335Y014270D01*
X011335Y014172D02*
X012995Y014172D01*
X012995Y014073D02*
X011335Y014073D01*
X011335Y013975D02*
X012995Y013975D01*
X012995Y013876D02*
X011335Y013876D01*
X011335Y013778D02*
X012995Y013778D01*
X012995Y013679D02*
X011335Y013679D01*
X011335Y013581D02*
X012995Y013581D01*
X012995Y013482D02*
X011335Y013482D01*
X011335Y013384D02*
X012995Y013384D01*
X013008Y013285D02*
X011335Y013285D01*
X011335Y013187D02*
X013058Y013187D01*
X013157Y013088D02*
X011335Y013088D01*
X011335Y012990D02*
X013255Y012990D01*
X013354Y012891D02*
X011335Y012891D01*
X011335Y012793D02*
X012043Y012793D01*
X011945Y012694D02*
X011335Y012694D01*
X011335Y012596D02*
X011846Y012596D01*
X011748Y012497D02*
X011335Y012497D01*
X011335Y012399D02*
X011649Y012399D01*
X011575Y012300D02*
X011335Y012300D01*
X011335Y012202D02*
X011575Y012202D01*
X011575Y012103D02*
X011335Y012103D01*
X011335Y012005D02*
X011575Y012005D01*
X011575Y011906D02*
X011335Y011906D01*
X011335Y011808D02*
X011575Y011808D01*
X011575Y011709D02*
X011335Y011709D01*
X011335Y011611D02*
X011575Y011611D01*
X011575Y011512D02*
X011335Y011512D01*
X011335Y011414D02*
X011575Y011414D01*
X011575Y011315D02*
X011335Y011315D01*
X011335Y011217D02*
X011575Y011217D01*
X011575Y011118D02*
X011335Y011118D01*
X011335Y011020D02*
X011575Y011020D01*
X011575Y010921D02*
X011335Y010921D01*
X011335Y010823D02*
X011575Y010823D01*
X011575Y010724D02*
X011335Y010724D01*
X011335Y010626D02*
X011575Y010626D01*
X011575Y010527D02*
X011335Y010527D01*
X011335Y010429D02*
X011575Y010429D01*
X011575Y010330D02*
X011335Y010330D01*
X011335Y010232D02*
X011575Y010232D01*
X011575Y010133D02*
X011335Y010133D01*
X011335Y010035D02*
X011575Y010035D01*
X011575Y009936D02*
X011335Y009936D01*
X011335Y009838D02*
X011575Y009838D01*
X011575Y009739D02*
X011335Y009739D01*
X011335Y009641D02*
X011575Y009641D01*
X011575Y009542D02*
X011335Y009542D01*
X011335Y009444D02*
X011575Y009444D01*
X011575Y009345D02*
X011335Y009345D01*
X011335Y009247D02*
X011575Y009247D01*
X011575Y009148D02*
X011335Y009148D01*
X011335Y009050D02*
X011575Y009050D01*
X011575Y008951D02*
X011335Y008951D01*
X011335Y008853D02*
X011575Y008853D01*
X011575Y008754D02*
X011335Y008754D01*
X011335Y008656D02*
X011575Y008656D01*
X011575Y008557D02*
X011335Y008557D01*
X011335Y008459D02*
X011575Y008459D01*
X011575Y008360D02*
X011335Y008360D01*
X011335Y008262D02*
X011575Y008262D01*
X011575Y008163D02*
X011335Y008163D01*
X011335Y008065D02*
X011575Y008065D01*
X011575Y007966D02*
X011383Y007966D01*
X011415Y007868D02*
X011575Y007868D01*
X011575Y007769D02*
X011415Y007769D01*
X011375Y007671D02*
X011575Y007671D01*
X011575Y007572D02*
X011287Y007572D01*
X011575Y007474D02*
X008835Y007474D01*
X008835Y007572D02*
X010923Y007572D01*
X010835Y007671D02*
X008835Y007671D01*
X008835Y007769D02*
X010795Y007769D01*
X010795Y007868D02*
X008835Y007868D01*
X008835Y007966D02*
X010826Y007966D01*
X010875Y008065D02*
X008835Y008065D01*
X008835Y008163D02*
X009982Y008163D01*
X009918Y008262D02*
X008835Y008262D01*
X008835Y008360D02*
X009895Y008360D01*
X009895Y008459D02*
X008835Y008459D01*
X008835Y008557D02*
X009895Y008557D01*
X009895Y008656D02*
X008835Y008656D01*
X008835Y008754D02*
X009895Y008754D01*
X009895Y008853D02*
X008835Y008853D01*
X008835Y008951D02*
X009895Y008951D01*
X009895Y009050D02*
X008835Y009050D01*
X008835Y009148D02*
X009895Y009148D01*
X009895Y009247D02*
X008835Y009247D01*
X008835Y009345D02*
X009895Y009345D01*
X009895Y009444D02*
X008835Y009444D01*
X008835Y009542D02*
X009895Y009542D01*
X009895Y009641D02*
X008835Y009641D01*
X008835Y009739D02*
X009895Y009739D01*
X009895Y009838D02*
X008835Y009838D01*
X008835Y009936D02*
X009895Y009936D01*
X009895Y010035D02*
X008835Y010035D01*
X008835Y010133D02*
X009895Y010133D01*
X009895Y010232D02*
X008835Y010232D01*
X008835Y010330D02*
X009895Y010330D01*
X009895Y010429D02*
X008835Y010429D01*
X008835Y010527D02*
X009895Y010527D01*
X009895Y010626D02*
X008835Y010626D01*
X008835Y010724D02*
X009895Y010724D01*
X009895Y010823D02*
X008835Y010823D01*
X008835Y010921D02*
X009895Y010921D01*
X009895Y011020D02*
X008835Y011020D01*
X008835Y011118D02*
X009895Y011118D01*
X009895Y011217D02*
X008835Y011217D01*
X008835Y011315D02*
X009895Y011315D01*
X009895Y011414D02*
X008835Y011414D01*
X008835Y011512D02*
X009895Y011512D01*
X009895Y011611D02*
X008835Y011611D01*
X008835Y011709D02*
X009895Y011709D01*
X009895Y011808D02*
X008835Y011808D01*
X008835Y011906D02*
X009895Y011906D01*
X009895Y012005D02*
X008835Y012005D01*
X008835Y012103D02*
X009895Y012103D01*
X009895Y012202D02*
X008835Y012202D01*
X008835Y012300D02*
X009895Y012300D01*
X009895Y012399D02*
X008835Y012399D01*
X008835Y012497D02*
X009895Y012497D01*
X009895Y012596D02*
X008835Y012596D01*
X008835Y012694D02*
X009895Y012694D01*
X009895Y012793D02*
X008835Y012793D01*
X008835Y012891D02*
X009895Y012891D01*
X009895Y012990D02*
X008835Y012990D01*
X008835Y013088D02*
X009895Y013088D01*
X009895Y013187D02*
X008835Y013187D01*
X008835Y013285D02*
X009895Y013285D01*
X009895Y013384D02*
X008835Y013384D01*
X008835Y013482D02*
X009895Y013482D01*
X009895Y013581D02*
X008835Y013581D01*
X008835Y013679D02*
X009895Y013679D01*
X009895Y013778D02*
X008835Y013778D01*
X008835Y013876D02*
X009895Y013876D01*
X009895Y013975D02*
X008835Y013975D01*
X008835Y014073D02*
X009895Y014073D01*
X009895Y014172D02*
X008835Y014172D01*
X008835Y014270D02*
X009895Y014270D01*
X009895Y014369D02*
X008790Y014369D01*
X008691Y014467D02*
X009895Y014467D01*
X009895Y014566D02*
X008593Y014566D01*
X008494Y014664D02*
X009895Y014664D01*
X009895Y014763D02*
X008396Y014763D01*
X008297Y014861D02*
X009895Y014861D01*
X009895Y014960D02*
X008199Y014960D01*
X008100Y015058D02*
X009895Y015058D01*
X009895Y015157D02*
X008327Y015157D01*
X008398Y015255D02*
X009895Y015255D01*
X009895Y015354D02*
X008426Y015354D01*
X008424Y015452D02*
X009895Y015452D01*
X009895Y015551D02*
X008383Y015551D01*
X008287Y015649D02*
X009895Y015649D01*
X009918Y015748D02*
X009536Y015748D01*
X009273Y015748D02*
X009036Y015748D01*
X008773Y015748D02*
X008074Y015748D01*
X007975Y015846D02*
X008649Y015846D01*
X008604Y015945D02*
X007877Y015945D01*
X007810Y016043D02*
X008595Y016043D01*
X008595Y016090D02*
X008642Y016204D01*
X008729Y016292D01*
X008843Y016339D01*
X008932Y016339D01*
X009405Y016029D02*
X010115Y016029D01*
X012055Y017968D01*
X012055Y022579D01*
X012905Y023429D01*
X013955Y023429D01*
X014134Y023249D01*
X014428Y023249D01*
X014758Y023579D01*
X014984Y023366D02*
X015045Y023305D01*
X015069Y023295D01*
X014614Y022841D01*
X014567Y022727D01*
X014567Y022564D01*
X014614Y022450D01*
X014701Y022363D01*
X014815Y022316D01*
X014939Y022316D01*
X015053Y022363D01*
X015140Y022450D01*
X015164Y022508D01*
X015164Y022472D01*
X015236Y022298D01*
X015370Y022164D01*
X015544Y022092D01*
X015733Y022092D01*
X015908Y022164D01*
X016042Y022298D01*
X016114Y022472D01*
X016114Y022473D01*
X016128Y022451D01*
X016184Y022396D01*
X016250Y022352D01*
X016322Y022322D01*
X016400Y022306D01*
X016677Y022306D01*
X016677Y022694D01*
X016702Y022694D01*
X016702Y022306D01*
X016979Y022306D01*
X017056Y022322D01*
X017109Y022344D01*
X017064Y022298D01*
X016976Y022211D01*
X016929Y022097D01*
X016929Y021974D01*
X016976Y021860D01*
X017064Y021773D01*
X017093Y021761D01*
X017083Y021757D01*
X017006Y021679D01*
X016964Y021578D01*
X016964Y021469D01*
X017006Y021368D01*
X017083Y021290D01*
X017185Y021249D01*
X017294Y021249D01*
X017395Y021290D01*
X017428Y021324D01*
X017720Y021324D01*
X017753Y021290D01*
X017854Y021249D01*
X017963Y021249D01*
X018064Y021290D01*
X018142Y021368D01*
X018184Y021469D01*
X018184Y021578D01*
X018142Y021679D01*
X018064Y021757D01*
X017963Y021799D01*
X017854Y021799D01*
X017753Y021757D01*
X017720Y021724D01*
X017428Y021724D01*
X017395Y021757D01*
X017386Y021761D01*
X017415Y021773D01*
X017502Y021860D01*
X017778Y022135D01*
X017825Y022249D01*
X017825Y022963D01*
X017801Y023020D01*
X017832Y023007D01*
X018025Y023007D01*
X017978Y022961D01*
X017935Y022896D01*
X017904Y022823D01*
X017889Y022746D01*
X017889Y022719D01*
X018527Y022719D01*
X018527Y022694D01*
X018552Y022694D01*
X018552Y022306D01*
X018829Y022306D01*
X018906Y022322D01*
X018979Y022352D01*
X019044Y022396D01*
X019095Y022446D01*
X019095Y019966D01*
X019044Y020017D01*
X018979Y020061D01*
X018906Y020091D01*
X018829Y020106D01*
X018552Y020106D01*
X018552Y019719D01*
X018527Y019719D01*
X018527Y020106D01*
X018250Y020106D01*
X018172Y020091D01*
X018100Y020061D01*
X018034Y020017D01*
X017978Y019961D01*
X017935Y019896D01*
X017904Y019823D01*
X017889Y019746D01*
X017889Y019719D01*
X018527Y019719D01*
X018527Y019694D01*
X018552Y019694D01*
X018552Y019306D01*
X018829Y019306D01*
X018906Y019322D01*
X018979Y019352D01*
X019044Y019396D01*
X019095Y019446D01*
X019095Y019295D01*
X019018Y018833D01*
X018922Y018303D01*
X018919Y018301D01*
X018907Y018222D01*
X018893Y018143D01*
X018895Y018140D01*
X018807Y017566D01*
X018797Y017556D01*
X018795Y017486D01*
X018784Y017417D01*
X018793Y017405D01*
X018776Y016640D01*
X018767Y016628D01*
X018774Y016560D01*
X018773Y016490D01*
X018784Y016479D01*
X018889Y015554D01*
X018879Y015532D01*
X018898Y015474D01*
X018905Y015414D01*
X018924Y015399D01*
X019010Y015149D01*
X019095Y014662D01*
X019095Y001969D01*
X019086Y001832D01*
X019015Y001567D01*
X018878Y001330D01*
X018684Y001136D01*
X018446Y000999D01*
X018182Y000928D01*
X018045Y000919D01*
X018350Y000973D02*
X008626Y000973D01*
X008626Y001071D02*
X018572Y001071D01*
X018718Y001170D02*
X008626Y001170D01*
X008626Y001268D02*
X018816Y001268D01*
X018899Y001367D02*
X018173Y001367D01*
X018142Y001354D02*
X018429Y001473D01*
X018648Y001692D01*
X018767Y001979D01*
X018767Y002289D01*
X018648Y002576D01*
X018429Y002795D01*
X018142Y002914D01*
X017832Y002914D01*
X017546Y002795D01*
X017326Y002576D01*
X017207Y002289D01*
X017207Y001979D01*
X017326Y001692D01*
X017546Y001473D01*
X017832Y001354D01*
X018142Y001354D01*
X018411Y001465D02*
X018956Y001465D01*
X019013Y001564D02*
X018520Y001564D01*
X018619Y001662D02*
X019040Y001662D01*
X019067Y001761D02*
X018677Y001761D01*
X018718Y001859D02*
X019087Y001859D01*
X019094Y001958D02*
X018759Y001958D01*
X018767Y002056D02*
X019095Y002056D01*
X019095Y002155D02*
X018767Y002155D01*
X018767Y002253D02*
X019095Y002253D01*
X019095Y002352D02*
X018741Y002352D01*
X018700Y002450D02*
X019095Y002450D01*
X019095Y002549D02*
X018660Y002549D01*
X018577Y002647D02*
X019095Y002647D01*
X019095Y002746D02*
X018478Y002746D01*
X018310Y002844D02*
X019095Y002844D01*
X019095Y002943D02*
X014347Y002943D01*
X014347Y003041D02*
X019095Y003041D01*
X019095Y003140D02*
X014308Y003140D01*
X014347Y003046D02*
X014249Y003282D01*
X014068Y003463D01*
X013832Y003561D01*
X013577Y003561D01*
X013341Y003463D01*
X013160Y003282D01*
X013062Y003046D01*
X013062Y002791D01*
X013160Y002555D01*
X013341Y002374D01*
X013577Y002277D01*
X013832Y002277D01*
X014068Y002374D01*
X014249Y002555D01*
X014347Y002791D01*
X014347Y003046D01*
X014347Y002844D02*
X017664Y002844D01*
X017496Y002746D02*
X014328Y002746D01*
X014287Y002647D02*
X017398Y002647D01*
X017315Y002549D02*
X014243Y002549D01*
X014144Y002450D02*
X017274Y002450D01*
X017233Y002352D02*
X014014Y002352D01*
X013396Y002352D02*
X008381Y002352D01*
X008381Y002450D02*
X013265Y002450D01*
X013167Y002549D02*
X008381Y002549D01*
X008381Y002647D02*
X013122Y002647D01*
X013081Y002746D02*
X008381Y002746D01*
X008415Y002844D02*
X013062Y002844D01*
X013062Y002943D02*
X008514Y002943D01*
X008612Y003041D02*
X013062Y003041D01*
X013101Y003140D02*
X008711Y003140D01*
X008809Y003238D02*
X013142Y003238D01*
X013215Y003337D02*
X008835Y003337D01*
X008835Y003435D02*
X013313Y003435D01*
X013511Y003534D02*
X008835Y003534D01*
X008835Y003632D02*
X019095Y003632D01*
X019095Y003534D02*
X013898Y003534D01*
X014096Y003435D02*
X019095Y003435D01*
X019095Y003337D02*
X014195Y003337D01*
X014267Y003238D02*
X019095Y003238D01*
X019095Y003731D02*
X008835Y003731D01*
X008835Y003829D02*
X019095Y003829D01*
X019095Y003928D02*
X008835Y003928D01*
X008835Y004026D02*
X019095Y004026D01*
X019095Y004125D02*
X008835Y004125D01*
X008835Y004223D02*
X019095Y004223D01*
X019095Y004322D02*
X008835Y004322D01*
X008835Y004420D02*
X019095Y004420D01*
X019095Y004519D02*
X008835Y004519D01*
X008835Y004617D02*
X019095Y004617D01*
X019095Y004716D02*
X008835Y004716D01*
X008835Y004814D02*
X019095Y004814D01*
X019095Y004913D02*
X008835Y004913D01*
X008835Y005011D02*
X019095Y005011D01*
X019095Y005110D02*
X008835Y005110D01*
X008835Y005701D02*
X011101Y005701D01*
X011200Y005799D02*
X008835Y005799D01*
X008835Y005898D02*
X011298Y005898D01*
X011397Y005996D02*
X008835Y005996D01*
X008835Y006095D02*
X011495Y006095D01*
X011575Y006193D02*
X010243Y006193D01*
X010318Y006224D02*
X010499Y006405D01*
X010597Y006641D01*
X010597Y006896D01*
X010499Y007132D01*
X010318Y007313D01*
X010082Y007411D01*
X009827Y007411D01*
X009591Y007313D01*
X009410Y007132D01*
X009312Y006896D01*
X009312Y006641D01*
X009410Y006405D01*
X009591Y006224D01*
X009827Y006127D01*
X010082Y006127D01*
X010318Y006224D01*
X010386Y006292D02*
X011575Y006292D01*
X011575Y006390D02*
X010484Y006390D01*
X010534Y006489D02*
X011575Y006489D01*
X011575Y006587D02*
X010574Y006587D01*
X010597Y006686D02*
X011575Y006686D01*
X011575Y006784D02*
X010597Y006784D01*
X010597Y006883D02*
X011575Y006883D01*
X011575Y006981D02*
X010562Y006981D01*
X010521Y007080D02*
X011575Y007080D01*
X011575Y007178D02*
X010453Y007178D01*
X010355Y007277D02*
X011575Y007277D01*
X011575Y007375D02*
X010168Y007375D01*
X009741Y007375D02*
X008835Y007375D01*
X008835Y007277D02*
X009555Y007277D01*
X009456Y007178D02*
X008835Y007178D01*
X008835Y007080D02*
X009388Y007080D01*
X009348Y006981D02*
X008835Y006981D01*
X008835Y006883D02*
X009312Y006883D01*
X009312Y006784D02*
X008835Y006784D01*
X008835Y006686D02*
X009312Y006686D01*
X009335Y006587D02*
X008835Y006587D01*
X008835Y006489D02*
X009376Y006489D01*
X009425Y006390D02*
X008835Y006390D01*
X008835Y006292D02*
X009524Y006292D01*
X009666Y006193D02*
X008835Y006193D01*
X007095Y006292D02*
X002334Y006292D01*
X002388Y006314D02*
X002569Y006495D01*
X002667Y006731D01*
X002667Y006986D01*
X002569Y007222D01*
X002388Y007403D01*
X002152Y007501D01*
X001897Y007501D01*
X001661Y007403D01*
X001480Y007222D01*
X001382Y006986D01*
X001382Y006731D01*
X001480Y006495D01*
X001661Y006314D01*
X001897Y006217D01*
X002152Y006217D01*
X002388Y006314D01*
X002464Y006390D02*
X007095Y006390D01*
X007095Y006489D02*
X002563Y006489D01*
X002607Y006587D02*
X007095Y006587D01*
X007095Y006686D02*
X002648Y006686D01*
X002667Y006784D02*
X007095Y006784D01*
X007095Y006883D02*
X002667Y006883D01*
X002667Y006981D02*
X007095Y006981D01*
X007095Y007080D02*
X002628Y007080D01*
X002587Y007178D02*
X007095Y007178D01*
X007095Y007277D02*
X002515Y007277D01*
X002416Y007375D02*
X007095Y007375D01*
X007095Y007474D02*
X002218Y007474D01*
X001831Y007474D02*
X001227Y007474D01*
X001227Y007572D02*
X007095Y007572D01*
X007095Y007671D02*
X001227Y007671D01*
X001227Y007769D02*
X007095Y007769D01*
X007095Y007868D02*
X001227Y007868D01*
X001227Y007966D02*
X007095Y007966D01*
X007095Y008065D02*
X001227Y008065D01*
X001227Y008163D02*
X007095Y008163D01*
X007095Y008262D02*
X001227Y008262D01*
X001227Y008360D02*
X007095Y008360D01*
X007095Y008459D02*
X001227Y008459D01*
X001227Y008557D02*
X007095Y008557D01*
X007095Y008656D02*
X006770Y008656D01*
X006839Y008754D02*
X007095Y008754D01*
X007095Y008853D02*
X006865Y008853D01*
X006860Y008951D02*
X007095Y008951D01*
X006325Y009148D02*
X001227Y009148D01*
X001227Y009050D02*
X006290Y009050D01*
X006249Y008951D02*
X001227Y008951D01*
X001227Y008853D02*
X006245Y008853D01*
X006271Y008754D02*
X001227Y008754D01*
X001227Y008656D02*
X006339Y008656D01*
X006325Y009247D02*
X001227Y009247D01*
X001227Y009345D02*
X006325Y009345D01*
X006325Y009444D02*
X001227Y009444D01*
X001227Y009542D02*
X006325Y009542D01*
X006325Y009641D02*
X001227Y009641D01*
X001227Y009739D02*
X006325Y009739D01*
X006325Y009838D02*
X001227Y009838D01*
X001227Y009936D02*
X006325Y009936D01*
X006325Y010035D02*
X001227Y010035D01*
X001227Y010133D02*
X006325Y010133D01*
X006325Y010232D02*
X006168Y010232D01*
X006284Y010330D02*
X006325Y010330D01*
X005501Y010232D02*
X001227Y010232D01*
X001227Y010330D02*
X005385Y010330D01*
X005289Y010429D02*
X001227Y010429D01*
X001227Y010527D02*
X005248Y010527D01*
X005207Y010626D02*
X001227Y010626D01*
X001227Y010724D02*
X005192Y010724D01*
X005192Y010823D02*
X001227Y010823D01*
X001227Y010921D02*
X005194Y010921D01*
X005235Y011020D02*
X001227Y011020D01*
X001227Y011118D02*
X005276Y011118D01*
X005355Y011217D02*
X001227Y011217D01*
X001227Y011315D02*
X005453Y011315D01*
X005666Y011414D02*
X001227Y011414D01*
X001227Y011512D02*
X006325Y011512D01*
X006325Y011414D02*
X006004Y011414D01*
X006216Y011315D02*
X006325Y011315D01*
X006315Y011217D02*
X006325Y011217D01*
X006325Y011611D02*
X001227Y011611D01*
X001227Y011709D02*
X006325Y011709D01*
X006325Y011808D02*
X001227Y011808D01*
X001227Y011906D02*
X001796Y011906D01*
X001813Y011894D02*
X001870Y011864D01*
X001931Y011845D01*
X001995Y011835D01*
X001998Y011835D01*
X001998Y012213D01*
X001619Y012213D01*
X001619Y012210D01*
X001629Y012147D01*
X001649Y012086D01*
X001678Y012029D01*
X001716Y011977D01*
X001761Y011931D01*
X001813Y011894D01*
X001695Y012005D02*
X001227Y012005D01*
X001227Y012103D02*
X001643Y012103D01*
X001620Y012202D02*
X001227Y012202D01*
X001227Y012300D02*
X001623Y012300D01*
X001823Y012596D02*
X001227Y012596D01*
X001227Y012694D02*
X001786Y012694D01*
X001687Y012793D02*
X001227Y012793D01*
X001227Y012891D02*
X001643Y012891D01*
X001619Y012990D02*
X001227Y012990D01*
X001227Y013088D02*
X001619Y013088D01*
X001651Y013187D02*
X001227Y013187D01*
X001227Y013285D02*
X001706Y013285D01*
X001817Y013384D02*
X001227Y013384D01*
X001227Y013482D02*
X001785Y013482D01*
X001687Y013581D02*
X001227Y013581D01*
X001227Y013679D02*
X001643Y013679D01*
X001619Y013778D02*
X001227Y013778D01*
X001227Y013876D02*
X001619Y013876D01*
X001651Y013975D02*
X001227Y013975D01*
X001227Y014073D02*
X001707Y014073D01*
X001819Y014172D02*
X001227Y014172D01*
X001227Y014270D02*
X001634Y014270D01*
X001619Y014369D02*
X001227Y014369D01*
X001227Y014467D02*
X001619Y014467D01*
X001619Y014566D02*
X001227Y014566D01*
X001227Y014664D02*
X001619Y014664D01*
X001619Y014763D02*
X001227Y014763D01*
X001227Y014861D02*
X001619Y014861D01*
X001655Y014960D02*
X001227Y014960D01*
X001227Y015058D02*
X002625Y015058D01*
X002625Y014960D02*
X002398Y014960D01*
X002434Y014861D02*
X002625Y014861D01*
X002625Y014763D02*
X002434Y014763D01*
X002434Y014664D02*
X002625Y014664D01*
X002625Y014566D02*
X002434Y014566D01*
X002434Y014467D02*
X002568Y014467D01*
X002469Y014369D02*
X002434Y014369D01*
X002824Y014073D02*
X003685Y014073D01*
X003632Y014095D02*
X003806Y014023D01*
X003995Y014023D01*
X004170Y014095D01*
X004303Y014229D01*
X004376Y014404D01*
X004376Y014593D01*
X004303Y014767D01*
X004170Y014901D01*
X003995Y014973D01*
X003806Y014973D01*
X003632Y014901D01*
X003498Y014767D01*
X003426Y014593D01*
X003426Y014404D01*
X003498Y014229D01*
X003632Y014095D01*
X003555Y014172D02*
X002923Y014172D01*
X003021Y014270D02*
X003481Y014270D01*
X003440Y014369D02*
X003085Y014369D01*
X003085Y014467D02*
X003426Y014467D01*
X003426Y014566D02*
X003085Y014566D01*
X003085Y014664D02*
X003455Y014664D01*
X003496Y014763D02*
X003085Y014763D01*
X003085Y014861D02*
X003592Y014861D01*
X003774Y014960D02*
X003085Y014960D01*
X003085Y015058D02*
X003721Y015058D01*
X003806Y015023D02*
X003632Y015095D01*
X003498Y015229D01*
X003426Y015404D01*
X003426Y015593D01*
X003498Y015767D01*
X003632Y015901D01*
X003806Y015973D01*
X003995Y015973D01*
X004170Y015901D01*
X004303Y015767D01*
X004376Y015593D01*
X004376Y015404D01*
X004303Y015229D01*
X004170Y015095D01*
X003995Y015023D01*
X003806Y015023D01*
X004027Y014960D02*
X004990Y014960D01*
X004975Y015058D02*
X004080Y015058D01*
X004231Y015157D02*
X004975Y015157D01*
X005014Y015255D02*
X004314Y015255D01*
X004355Y015354D02*
X005079Y015354D01*
X005214Y015452D02*
X004376Y015452D01*
X004376Y015551D02*
X005121Y015551D01*
X005031Y015649D02*
X004352Y015649D01*
X004311Y015748D02*
X004990Y015748D01*
X004975Y015846D02*
X004224Y015846D01*
X004063Y015945D02*
X004975Y015945D01*
X005014Y016043D02*
X004044Y016043D01*
X003995Y016023D02*
X004170Y016095D01*
X004303Y016229D01*
X004376Y016404D01*
X004376Y016593D01*
X004303Y016767D01*
X004170Y016901D01*
X003995Y016973D01*
X003806Y016973D01*
X003632Y016901D01*
X003498Y016767D01*
X003426Y016593D01*
X003426Y016404D01*
X003498Y016229D01*
X003632Y016095D01*
X003806Y016023D01*
X003995Y016023D01*
X003757Y016043D02*
X003085Y016043D01*
X003085Y015945D02*
X003738Y015945D01*
X003577Y015846D02*
X003085Y015846D01*
X003085Y015748D02*
X003490Y015748D01*
X003449Y015649D02*
X003085Y015649D01*
X003085Y015551D02*
X003426Y015551D01*
X003426Y015452D02*
X003085Y015452D01*
X003085Y015354D02*
X003446Y015354D01*
X003487Y015255D02*
X003085Y015255D01*
X003085Y015157D02*
X003570Y015157D01*
X004209Y014861D02*
X005031Y014861D01*
X005121Y014763D02*
X004305Y014763D01*
X004346Y014664D02*
X005212Y014664D01*
X005079Y014566D02*
X004376Y014566D01*
X004376Y014467D02*
X005013Y014467D01*
X004975Y014369D02*
X004361Y014369D01*
X004320Y014270D02*
X004975Y014270D01*
X004991Y014172D02*
X004246Y014172D01*
X004116Y014073D02*
X005031Y014073D01*
X005122Y013975D02*
X002726Y013975D01*
X002627Y013876D02*
X003607Y013876D01*
X003632Y013901D02*
X003498Y013767D01*
X003426Y013593D01*
X003426Y013404D01*
X003498Y013229D01*
X003632Y013095D01*
X003806Y013023D01*
X003995Y013023D01*
X004170Y013095D01*
X004303Y013229D01*
X004376Y013404D01*
X004376Y013593D01*
X004303Y013767D01*
X004170Y013901D01*
X003995Y013973D01*
X003806Y013973D01*
X003632Y013901D01*
X003509Y013778D02*
X002529Y013778D01*
X002430Y013679D02*
X003462Y013679D01*
X003426Y013581D02*
X002367Y013581D01*
X002268Y013482D02*
X003426Y013482D01*
X003434Y013384D02*
X002236Y013384D01*
X002347Y013285D02*
X003475Y013285D01*
X003540Y013187D02*
X002403Y013187D01*
X002434Y013088D02*
X003649Y013088D01*
X004153Y013088D02*
X006325Y013088D01*
X006325Y012990D02*
X002434Y012990D01*
X002410Y012891D02*
X006325Y012891D01*
X006325Y012793D02*
X002366Y012793D01*
X002268Y012694D02*
X006325Y012694D01*
X006325Y012596D02*
X002230Y012596D01*
X002337Y012508D02*
X002375Y012456D01*
X002404Y012399D01*
X002430Y012300D02*
X006325Y012300D01*
X006325Y012202D02*
X002433Y012202D01*
X002410Y012103D02*
X006325Y012103D01*
X006325Y012005D02*
X002358Y012005D01*
X002258Y011906D02*
X006325Y011906D01*
X006325Y013187D02*
X005647Y013187D01*
X005738Y013285D02*
X006325Y013285D01*
X006325Y013384D02*
X005778Y013384D01*
X005795Y013482D02*
X006325Y013482D01*
X006325Y013581D02*
X005795Y013581D01*
X005756Y013679D02*
X006325Y013679D01*
X006325Y013778D02*
X005691Y013778D01*
X005558Y013876D02*
X006325Y013876D01*
X006325Y013975D02*
X005647Y013975D01*
X005738Y014073D02*
X006325Y014073D01*
X006325Y014172D02*
X005779Y014172D01*
X005795Y014270D02*
X006325Y014270D01*
X006325Y014369D02*
X005795Y014369D01*
X005756Y014467D02*
X006241Y014467D01*
X006142Y014566D02*
X005691Y014566D01*
X005557Y014664D02*
X006044Y014664D01*
X005945Y014763D02*
X005648Y014763D01*
X005738Y014861D02*
X005847Y014861D01*
X005211Y013876D02*
X004194Y013876D01*
X004293Y013778D02*
X005078Y013778D01*
X005013Y013679D02*
X004340Y013679D01*
X004376Y013581D02*
X004975Y013581D01*
X004975Y013482D02*
X004376Y013482D01*
X004367Y013384D02*
X004991Y013384D01*
X005032Y013285D02*
X004327Y013285D01*
X004261Y013187D02*
X005123Y013187D01*
X002625Y015157D02*
X001227Y015157D01*
X001227Y015255D02*
X002625Y015255D01*
X002625Y015354D02*
X001227Y015354D01*
X001227Y015452D02*
X002625Y015452D01*
X002625Y015551D02*
X001227Y015551D01*
X001227Y015649D02*
X002625Y015649D01*
X002625Y015748D02*
X001227Y015748D01*
X001227Y015846D02*
X002625Y015846D01*
X002625Y015945D02*
X001227Y015945D01*
X001227Y016043D02*
X002625Y016043D01*
X002625Y016142D02*
X001227Y016142D01*
X001227Y016240D02*
X002625Y016240D01*
X002625Y016339D02*
X001227Y016339D01*
X001227Y016437D02*
X002625Y016437D01*
X002625Y016536D02*
X001227Y016536D01*
X001227Y016634D02*
X002625Y016634D01*
X002625Y016733D02*
X001227Y016733D01*
X001227Y016831D02*
X002625Y016831D01*
X002625Y016930D02*
X001227Y016930D01*
X001227Y017028D02*
X002625Y017028D01*
X002625Y017127D02*
X001227Y017127D01*
X001227Y017225D02*
X002625Y017225D01*
X002625Y017324D02*
X001227Y017324D01*
X001227Y017422D02*
X002625Y017422D01*
X002625Y017521D02*
X001227Y017521D01*
X001227Y017619D02*
X002625Y017619D01*
X002625Y017718D02*
X001227Y017718D01*
X001227Y017816D02*
X002625Y017816D01*
X002625Y017915D02*
X001227Y017915D01*
X001227Y018013D02*
X002625Y018013D01*
X002625Y018112D02*
X001227Y018112D01*
X001227Y018210D02*
X002625Y018210D01*
X002625Y018309D02*
X001227Y018309D01*
X001227Y018407D02*
X002625Y018407D01*
X002625Y018506D02*
X001227Y018506D01*
X001227Y018604D02*
X002625Y018604D01*
X002625Y018703D02*
X001227Y018703D01*
X001227Y018801D02*
X002625Y018801D01*
X002625Y018900D02*
X001227Y018900D01*
X001227Y018998D02*
X002625Y018998D01*
X002625Y019097D02*
X001227Y019097D01*
X001227Y019195D02*
X002625Y019195D01*
X002625Y019294D02*
X001227Y019294D01*
X001227Y019392D02*
X002625Y019392D01*
X002625Y019491D02*
X001227Y019491D01*
X001227Y019589D02*
X002667Y019589D01*
X002765Y019688D02*
X001227Y019688D01*
X001227Y019786D02*
X002864Y019786D01*
X002962Y019885D02*
X001227Y019885D01*
X001227Y019983D02*
X003061Y019983D01*
X003159Y020082D02*
X001227Y020082D01*
X001227Y020180D02*
X003258Y020180D01*
X003356Y020279D02*
X001227Y020279D01*
X001227Y020377D02*
X003437Y020377D01*
X003426Y020476D02*
X001227Y020476D01*
X001227Y020574D02*
X003426Y020574D01*
X003459Y020673D02*
X001227Y020673D01*
X001227Y020771D02*
X003502Y020771D01*
X003601Y020870D02*
X001227Y020870D01*
X001227Y020968D02*
X003795Y020968D01*
X003806Y021023D02*
X003995Y021023D01*
X004170Y021095D01*
X004303Y021229D01*
X004376Y021404D01*
X004376Y021593D01*
X004303Y021767D01*
X004170Y021901D01*
X003995Y021973D01*
X003806Y021973D01*
X003632Y021901D01*
X003498Y021767D01*
X003426Y021593D01*
X003426Y021404D01*
X003498Y021229D01*
X003632Y021095D01*
X003806Y021023D01*
X003701Y021067D02*
X001227Y021067D01*
X001227Y021165D02*
X003562Y021165D01*
X003484Y021264D02*
X001227Y021264D01*
X001227Y021362D02*
X003443Y021362D01*
X003426Y021461D02*
X001227Y021461D01*
X001227Y021559D02*
X003426Y021559D01*
X003453Y021658D02*
X001227Y021658D01*
X001227Y021756D02*
X003494Y021756D01*
X003586Y021855D02*
X001227Y021855D01*
X001227Y021953D02*
X003759Y021953D01*
X003704Y022023D02*
X004097Y022023D01*
X004376Y022301D01*
X004376Y022695D01*
X004097Y022973D01*
X003704Y022973D01*
X003426Y022695D01*
X003426Y022301D01*
X003704Y022023D01*
X003675Y022052D02*
X001227Y022052D01*
X001227Y022150D02*
X003577Y022150D01*
X003478Y022249D02*
X001227Y022249D01*
X001227Y022347D02*
X003426Y022347D01*
X003426Y022446D02*
X001227Y022446D01*
X001227Y022544D02*
X003426Y022544D01*
X003426Y022643D02*
X001227Y022643D01*
X001227Y022741D02*
X003472Y022741D01*
X003571Y022840D02*
X001227Y022840D01*
X001227Y022938D02*
X003669Y022938D01*
X004132Y022938D02*
X008672Y022938D01*
X008573Y022840D02*
X004231Y022840D01*
X004329Y022741D02*
X007629Y022741D01*
X007542Y022654D02*
X007542Y022654D01*
X007530Y022643D02*
X004376Y022643D01*
X004376Y022544D02*
X007432Y022544D01*
X007333Y022446D02*
X004376Y022446D01*
X004376Y022347D02*
X007235Y022347D01*
X007136Y022249D02*
X004323Y022249D01*
X004225Y022150D02*
X007038Y022150D01*
X007194Y021461D02*
X004376Y021461D01*
X004376Y021559D02*
X006035Y021559D01*
X005969Y021658D02*
X004349Y021658D01*
X004308Y021756D02*
X005945Y021756D01*
X005951Y021855D02*
X004216Y021855D01*
X004043Y021953D02*
X005992Y021953D01*
X006106Y022052D02*
X004126Y022052D01*
X004359Y021362D02*
X007096Y021362D01*
X006997Y021264D02*
X004318Y021264D01*
X004240Y021165D02*
X006899Y021165D01*
X006800Y021067D02*
X004101Y021067D01*
X004007Y020968D02*
X005224Y020968D01*
X005083Y020870D02*
X004201Y020870D01*
X004299Y020771D02*
X005015Y020771D01*
X004975Y020673D02*
X004975Y020510D01*
X004989Y020476D02*
X004376Y020476D01*
X004365Y020377D02*
X005029Y020377D01*
X005117Y020279D02*
X004324Y020279D01*
X004255Y020180D02*
X005222Y020180D01*
X005083Y020082D02*
X004137Y020082D01*
X004336Y019688D02*
X004989Y019688D01*
X004975Y019722D02*
X004975Y019885D01*
X005015Y019983D02*
X003711Y019983D01*
X003616Y019885D02*
X003613Y019885D01*
X003517Y019786D02*
X003514Y019786D01*
X003465Y019688D02*
X003416Y019688D01*
X003426Y019589D02*
X003317Y019589D01*
X003219Y019491D02*
X003426Y019491D01*
X003430Y019392D02*
X003120Y019392D01*
X003085Y019294D02*
X003471Y019294D01*
X003532Y019195D02*
X003085Y019195D01*
X003085Y019097D02*
X003630Y019097D01*
X003632Y018901D02*
X003498Y018767D01*
X003426Y018593D01*
X003426Y018404D01*
X003498Y018229D01*
X003632Y018095D01*
X003806Y018023D01*
X003995Y018023D01*
X004170Y018095D01*
X004303Y018229D01*
X004376Y018404D01*
X004376Y018593D01*
X004303Y018767D01*
X004170Y018901D01*
X003995Y018973D01*
X003806Y018973D01*
X003632Y018901D01*
X003631Y018900D02*
X003085Y018900D01*
X003085Y018998D02*
X004975Y018998D01*
X004975Y019097D02*
X004171Y019097D01*
X004270Y019195D02*
X005015Y019195D01*
X005082Y019294D02*
X004330Y019294D01*
X004371Y019392D02*
X005221Y019392D01*
X005118Y019491D02*
X004376Y019491D01*
X004376Y019589D02*
X005030Y019589D01*
X004989Y018900D02*
X004171Y018900D01*
X004269Y018801D02*
X005030Y018801D01*
X005118Y018703D02*
X004330Y018703D01*
X004371Y018604D02*
X005220Y018604D01*
X005082Y018506D02*
X004376Y018506D01*
X004376Y018407D02*
X005015Y018407D01*
X004975Y018309D02*
X004336Y018309D01*
X004285Y018210D02*
X004975Y018210D01*
X004989Y018112D02*
X004186Y018112D01*
X004136Y017915D02*
X005119Y017915D01*
X005030Y018013D02*
X003085Y018013D01*
X003085Y017915D02*
X003666Y017915D01*
X003632Y017901D02*
X003498Y017767D01*
X003426Y017593D01*
X003426Y017404D01*
X003498Y017229D01*
X003632Y017095D01*
X003806Y017023D01*
X003995Y017023D01*
X004170Y017095D01*
X004303Y017229D01*
X004376Y017404D01*
X004376Y017593D01*
X004303Y017767D01*
X004170Y017901D01*
X003995Y017973D01*
X003806Y017973D01*
X003632Y017901D01*
X003547Y017816D02*
X003085Y017816D01*
X003085Y017718D02*
X003478Y017718D01*
X003437Y017619D02*
X003085Y017619D01*
X003085Y017521D02*
X003426Y017521D01*
X003426Y017422D02*
X003085Y017422D01*
X003085Y017324D02*
X003459Y017324D01*
X003502Y017225D02*
X003085Y017225D01*
X003085Y017127D02*
X003600Y017127D01*
X003794Y017028D02*
X003085Y017028D01*
X003085Y016930D02*
X003702Y016930D01*
X003562Y016831D02*
X003085Y016831D01*
X003085Y016733D02*
X003484Y016733D01*
X003443Y016634D02*
X003085Y016634D01*
X003085Y016536D02*
X003426Y016536D01*
X003426Y016437D02*
X003085Y016437D01*
X003085Y016339D02*
X003453Y016339D01*
X003493Y016240D02*
X003085Y016240D01*
X003085Y016142D02*
X003585Y016142D01*
X004216Y016142D02*
X005080Y016142D01*
X005215Y016240D02*
X004308Y016240D01*
X004349Y016339D02*
X005120Y016339D01*
X005031Y016437D02*
X004376Y016437D01*
X004376Y016536D02*
X004990Y016536D01*
X004975Y016634D02*
X004358Y016634D01*
X004318Y016733D02*
X004975Y016733D01*
X005014Y016831D02*
X004239Y016831D01*
X004100Y016930D02*
X005080Y016930D01*
X005217Y017028D02*
X004008Y017028D01*
X004201Y017127D02*
X005120Y017127D01*
X005030Y017225D02*
X004300Y017225D01*
X004343Y017324D02*
X004990Y017324D01*
X004975Y017422D02*
X004376Y017422D01*
X004376Y017521D02*
X004975Y017521D01*
X005014Y017619D02*
X004365Y017619D01*
X004324Y017718D02*
X005081Y017718D01*
X005218Y017816D02*
X004254Y017816D01*
X003615Y018112D02*
X003085Y018112D01*
X003085Y018210D02*
X003517Y018210D01*
X003465Y018309D02*
X003085Y018309D01*
X003085Y018407D02*
X003426Y018407D01*
X003426Y018506D02*
X003085Y018506D01*
X003085Y018604D02*
X003431Y018604D01*
X003471Y018703D02*
X003085Y018703D01*
X003085Y018801D02*
X003532Y018801D01*
X005825Y020476D02*
X006285Y020476D01*
X006285Y020377D02*
X005924Y020377D01*
X006022Y020279D02*
X006285Y020279D01*
X006285Y020180D02*
X006121Y020180D01*
X006219Y020082D02*
X006285Y020082D01*
X006505Y020771D02*
X005754Y020771D01*
X005686Y020870D02*
X006603Y020870D01*
X006702Y020968D02*
X005545Y020968D01*
X007980Y022741D02*
X008475Y022741D01*
X008376Y022643D02*
X008072Y022643D01*
X008113Y022544D02*
X008278Y022544D01*
X008179Y022446D02*
X008115Y022446D01*
X008770Y023037D02*
X002723Y023037D01*
X002652Y023007D02*
X002939Y023126D01*
X003158Y023346D01*
X003277Y023632D01*
X003277Y023943D01*
X003158Y024229D01*
X002939Y024449D01*
X002652Y024567D01*
X002342Y024567D01*
X002055Y024449D01*
X001836Y024229D01*
X001717Y023943D01*
X001717Y023632D01*
X001836Y023346D01*
X002055Y023126D01*
X002342Y023007D01*
X002652Y023007D01*
X002948Y023135D02*
X008869Y023135D01*
X008967Y023234D02*
X003046Y023234D01*
X003145Y023332D02*
X009066Y023332D01*
X009164Y023431D02*
X003193Y023431D01*
X003234Y023529D02*
X009263Y023529D01*
X009361Y023628D02*
X008592Y023628D01*
X008580Y023616D02*
X008667Y023703D01*
X008715Y023817D01*
X008715Y023940D01*
X008667Y024054D01*
X008580Y024142D01*
X008466Y024189D01*
X008343Y024189D01*
X008229Y024142D01*
X008166Y024079D01*
X007293Y024079D01*
X007230Y024142D01*
X007116Y024189D01*
X006993Y024189D01*
X006879Y024142D01*
X006792Y024054D01*
X006745Y023940D01*
X006745Y023817D01*
X006792Y023703D01*
X006879Y023616D01*
X006993Y023569D01*
X007116Y023569D01*
X007230Y023616D01*
X007293Y023679D01*
X008166Y023679D01*
X008229Y023616D01*
X008343Y023569D01*
X008466Y023569D01*
X008580Y023616D01*
X008677Y023726D02*
X009460Y023726D01*
X009558Y023825D02*
X008715Y023825D01*
X008715Y023923D02*
X009657Y023923D01*
X009755Y024022D02*
X008681Y024022D01*
X008601Y024120D02*
X009854Y024120D01*
X008405Y023879D02*
X007055Y023879D01*
X007251Y024120D02*
X007739Y024120D01*
X007870Y024120D02*
X008208Y024120D01*
X008217Y023628D02*
X007242Y023628D01*
X006867Y023628D02*
X003275Y023628D01*
X003277Y023726D02*
X006782Y023726D01*
X006745Y023825D02*
X003277Y023825D01*
X003277Y023923D02*
X006745Y023923D01*
X006778Y024022D02*
X003244Y024022D01*
X003203Y024120D02*
X006858Y024120D01*
X007495Y024416D02*
X002971Y024416D01*
X003070Y024317D02*
X007515Y024317D01*
X007576Y024219D02*
X003162Y024219D01*
X002780Y024514D02*
X007505Y024514D01*
X007550Y024613D02*
X001385Y024613D01*
X001442Y024711D02*
X007677Y024711D01*
X007933Y024711D02*
X018957Y024711D01*
X019013Y024613D02*
X015179Y024613D01*
X015277Y024514D02*
X017704Y024514D01*
X017513Y024416D02*
X015376Y024416D01*
X015450Y024317D02*
X017414Y024317D01*
X017322Y024219D02*
X015450Y024219D01*
X015450Y024120D02*
X017281Y024120D01*
X017240Y024022D02*
X015450Y024022D01*
X015450Y023923D02*
X017207Y023923D01*
X017207Y023825D02*
X015450Y023825D01*
X015490Y023726D02*
X017207Y023726D01*
X017209Y023628D02*
X015530Y023628D01*
X015018Y023332D02*
X014950Y023332D01*
X014933Y023316D02*
X014984Y023366D01*
X014933Y023316D02*
X014819Y023269D01*
X014731Y023269D01*
X014511Y023049D01*
X014061Y023049D01*
X014065Y023040D01*
X014065Y022952D01*
X015220Y021796D01*
X015236Y021836D01*
X015370Y021970D01*
X015544Y022042D01*
X015733Y022042D01*
X015908Y021970D01*
X016042Y021836D01*
X016114Y021661D01*
X016114Y021472D01*
X016042Y021298D01*
X015908Y021164D01*
X015733Y021092D01*
X015544Y021092D01*
X015370Y021164D01*
X015236Y021298D01*
X015208Y021367D01*
X015099Y021367D01*
X015459Y021007D01*
X015544Y021042D01*
X015733Y021042D01*
X015908Y020970D01*
X016042Y020836D01*
X016114Y020661D01*
X016114Y020472D01*
X016042Y020298D01*
X015908Y020164D01*
X015733Y020092D01*
X015544Y020092D01*
X015370Y020164D01*
X015236Y020298D01*
X015164Y020472D01*
X015164Y020661D01*
X015186Y020715D01*
X013232Y022669D01*
X013143Y022669D01*
X013029Y022716D01*
X012942Y022803D01*
X012895Y022917D01*
X012895Y023040D01*
X012942Y023154D01*
X013016Y023229D01*
X012987Y023229D01*
X012255Y022496D01*
X012255Y021017D01*
X012279Y021042D01*
X012393Y021089D01*
X012516Y021089D01*
X012630Y021042D01*
X012717Y020954D01*
X012765Y020840D01*
X012765Y017914D01*
X013175Y018324D01*
X013310Y018459D01*
X013698Y018459D01*
X013698Y018461D01*
X013814Y018576D01*
X013925Y018623D01*
X013814Y018669D01*
X013698Y018784D01*
X013636Y018935D01*
X013636Y019098D01*
X013698Y019249D01*
X013814Y019364D01*
X013925Y019410D01*
X013814Y019456D01*
X013698Y019571D01*
X013636Y019722D01*
X013636Y019885D01*
X012765Y019885D01*
X012765Y019983D02*
X013677Y019983D01*
X013698Y020036D02*
X013636Y019885D01*
X013636Y019786D02*
X012765Y019786D01*
X012765Y019688D02*
X013650Y019688D01*
X013691Y019589D02*
X012765Y019589D01*
X012765Y019491D02*
X013779Y019491D01*
X013882Y019392D02*
X012765Y019392D01*
X012765Y019294D02*
X013744Y019294D01*
X013676Y019195D02*
X012765Y019195D01*
X012765Y019097D02*
X013636Y019097D01*
X013636Y018998D02*
X012765Y018998D01*
X012765Y018900D02*
X013651Y018900D01*
X013691Y018801D02*
X012765Y018801D01*
X012765Y018703D02*
X013780Y018703D01*
X013881Y018604D02*
X012765Y018604D01*
X012765Y018506D02*
X013743Y018506D01*
X013258Y018407D02*
X012765Y018407D01*
X012765Y018309D02*
X013159Y018309D01*
X013061Y018210D02*
X012765Y018210D01*
X012765Y018112D02*
X012962Y018112D01*
X012864Y018013D02*
X012765Y018013D01*
X012765Y017915D02*
X012765Y017915D01*
X011605Y018309D02*
X010385Y018309D01*
X010385Y018407D02*
X011605Y018407D01*
X011605Y018506D02*
X010385Y018506D01*
X010385Y018604D02*
X011605Y018604D01*
X011605Y018703D02*
X010385Y018703D01*
X010385Y018801D02*
X011605Y018801D01*
X011605Y018900D02*
X010385Y018900D01*
X010360Y018998D02*
X011605Y018998D01*
X011605Y019097D02*
X010262Y019097D01*
X009795Y019294D02*
X011605Y019294D01*
X011605Y019392D02*
X009849Y019392D01*
X009865Y019491D02*
X011605Y019491D01*
X011605Y019589D02*
X009850Y019589D01*
X009797Y019688D02*
X011605Y019688D01*
X011605Y019786D02*
X009655Y019786D01*
X009648Y019195D02*
X011605Y019195D01*
X012765Y020082D02*
X013744Y020082D01*
X013698Y020036D02*
X013814Y020151D01*
X013886Y020181D01*
X013724Y020181D01*
X013636Y020269D01*
X013636Y020913D01*
X013724Y021001D01*
X014368Y021001D01*
X014456Y020913D01*
X014456Y020269D01*
X014368Y020181D01*
X014206Y020181D01*
X014278Y020151D01*
X014394Y020036D01*
X014456Y019885D01*
X014415Y019983D02*
X015403Y019983D01*
X015354Y020180D02*
X014208Y020180D01*
X014348Y020082D02*
X016301Y020082D01*
X016150Y019983D02*
X015875Y019983D01*
X015993Y019885D02*
X016080Y019885D01*
X015924Y020180D02*
X019095Y020180D01*
X019095Y020082D02*
X018928Y020082D01*
X019078Y019983D02*
X019095Y019983D01*
X019095Y020279D02*
X016022Y020279D01*
X016074Y020377D02*
X019095Y020377D01*
X019095Y020476D02*
X016114Y020476D01*
X016114Y020574D02*
X019095Y020574D01*
X019095Y020673D02*
X016109Y020673D01*
X016068Y020771D02*
X019095Y020771D01*
X019095Y020870D02*
X016008Y020870D01*
X015909Y020968D02*
X019095Y020968D01*
X019095Y021067D02*
X015399Y021067D01*
X015369Y021165D02*
X015301Y021165D01*
X015270Y021264D02*
X015202Y021264D01*
X015209Y021362D02*
X015104Y021362D01*
X015166Y021567D02*
X013755Y022979D01*
X014065Y023037D02*
X014810Y023037D01*
X014909Y023135D02*
X014597Y023135D01*
X014696Y023234D02*
X015007Y023234D01*
X014712Y022938D02*
X014078Y022938D01*
X014176Y022840D02*
X014614Y022840D01*
X014573Y022741D02*
X014275Y022741D01*
X014373Y022643D02*
X014567Y022643D01*
X014575Y022544D02*
X014472Y022544D01*
X014570Y022446D02*
X014619Y022446D01*
X014669Y022347D02*
X014740Y022347D01*
X014767Y022249D02*
X015285Y022249D01*
X015216Y022347D02*
X015014Y022347D01*
X015135Y022446D02*
X015175Y022446D01*
X015403Y022150D02*
X014866Y022150D01*
X014964Y022052D02*
X016929Y022052D01*
X016938Y021953D02*
X015924Y021953D01*
X016023Y021855D02*
X016981Y021855D01*
X017083Y021756D02*
X016075Y021756D01*
X016114Y021658D02*
X016997Y021658D01*
X016964Y021559D02*
X016114Y021559D01*
X016109Y021461D02*
X016968Y021461D01*
X017012Y021362D02*
X016068Y021362D01*
X016007Y021264D02*
X017148Y021264D01*
X017331Y021264D02*
X017817Y021264D01*
X018000Y021264D02*
X019095Y021264D01*
X019095Y021362D02*
X018136Y021362D01*
X018180Y021461D02*
X019095Y021461D01*
X019095Y021559D02*
X018184Y021559D01*
X018151Y021658D02*
X019095Y021658D01*
X019095Y021756D02*
X018065Y021756D01*
X017909Y021524D02*
X017239Y021524D01*
X017395Y021756D02*
X017752Y021756D01*
X017596Y021953D02*
X019095Y021953D01*
X019095Y021855D02*
X017497Y021855D01*
X017694Y022052D02*
X019095Y022052D01*
X019095Y022150D02*
X017784Y022150D01*
X017825Y022249D02*
X019095Y022249D01*
X019095Y022347D02*
X018968Y022347D01*
X019094Y022446D02*
X019095Y022446D01*
X018552Y022446D02*
X018527Y022446D01*
X018527Y022544D02*
X018552Y022544D01*
X018552Y022643D02*
X018527Y022643D01*
X018527Y022694D02*
X018527Y022306D01*
X018250Y022306D01*
X018172Y022322D01*
X018100Y022352D01*
X018034Y022396D01*
X017978Y022451D01*
X017935Y022517D01*
X017904Y022590D01*
X017889Y022667D01*
X017889Y022694D01*
X018527Y022694D01*
X018527Y022741D02*
X018552Y022741D01*
X018552Y022840D02*
X018527Y022840D01*
X018527Y022938D02*
X018552Y022938D01*
X018552Y023037D02*
X018527Y023037D01*
X018438Y023135D02*
X019095Y023135D01*
X019095Y023037D02*
X019014Y023037D01*
X019095Y023234D02*
X018537Y023234D01*
X018635Y023332D02*
X019095Y023332D01*
X019095Y023431D02*
X018684Y023431D01*
X018725Y023529D02*
X019095Y023529D01*
X019095Y023628D02*
X018765Y023628D01*
X018767Y023726D02*
X019095Y023726D01*
X019095Y023825D02*
X018767Y023825D01*
X018767Y023923D02*
X019095Y023923D01*
X019095Y024022D02*
X018734Y024022D01*
X018694Y024120D02*
X019095Y024120D01*
X019095Y024219D02*
X018653Y024219D01*
X018560Y024317D02*
X019090Y024317D01*
X019077Y024416D02*
X018462Y024416D01*
X018270Y024514D02*
X019045Y024514D01*
X018886Y024810D02*
X001539Y024810D01*
X001638Y024908D02*
X018790Y024908D01*
X018654Y025007D02*
X001809Y025007D01*
X002100Y025105D02*
X018392Y025105D01*
X018228Y025325D02*
X002277Y025325D01*
X002214Y024514D02*
X001328Y024514D01*
X001290Y024416D02*
X002022Y024416D01*
X001924Y024317D02*
X001264Y024317D01*
X001238Y024219D02*
X001831Y024219D01*
X001790Y024120D02*
X001230Y024120D01*
X001227Y024022D02*
X001750Y024022D01*
X001717Y023923D02*
X001227Y023923D01*
X001227Y023825D02*
X001717Y023825D01*
X001717Y023726D02*
X001227Y023726D01*
X001227Y023628D02*
X001719Y023628D01*
X001759Y023529D02*
X001227Y023529D01*
X001227Y023431D02*
X001800Y023431D01*
X001849Y023332D02*
X001227Y023332D01*
X001227Y023234D02*
X001947Y023234D01*
X002046Y023135D02*
X001227Y023135D01*
X001227Y023037D02*
X002271Y023037D01*
X001027Y024075D02*
X001029Y024143D01*
X001034Y024210D01*
X001043Y024277D01*
X001056Y024344D01*
X001073Y024409D01*
X001092Y024474D01*
X001116Y024538D01*
X001143Y024600D01*
X001173Y024661D01*
X001206Y024719D01*
X001242Y024776D01*
X001282Y024831D01*
X001324Y024884D01*
X001370Y024935D01*
X001417Y024982D01*
X001468Y025028D01*
X001521Y025070D01*
X001576Y025110D01*
X001633Y025146D01*
X001691Y025179D01*
X001752Y025209D01*
X001814Y025236D01*
X001878Y025260D01*
X001943Y025279D01*
X002008Y025296D01*
X002075Y025309D01*
X002142Y025318D01*
X002209Y025323D01*
X002277Y025325D01*
X001027Y024075D02*
X001027Y001969D01*
X001227Y003041D02*
X003884Y003041D01*
X003977Y003140D02*
X001227Y003140D01*
X001227Y003238D02*
X004076Y003238D01*
X004174Y003337D02*
X001227Y003337D01*
X001227Y003435D02*
X004273Y003435D01*
X004371Y003534D02*
X001227Y003534D01*
X001227Y003632D02*
X004470Y003632D01*
X004568Y003731D02*
X001227Y003731D01*
X001227Y003829D02*
X004667Y003829D01*
X004765Y003928D02*
X001227Y003928D01*
X001227Y004026D02*
X004864Y004026D01*
X004962Y004125D02*
X001227Y004125D01*
X001227Y004223D02*
X005061Y004223D01*
X005159Y004322D02*
X001227Y004322D01*
X001227Y004420D02*
X005258Y004420D01*
X005356Y004519D02*
X001227Y004519D01*
X001227Y004617D02*
X005455Y004617D01*
X005553Y004716D02*
X001227Y004716D01*
X001227Y004814D02*
X005652Y004814D01*
X005750Y004913D02*
X001227Y004913D01*
X001227Y005011D02*
X005849Y005011D01*
X005947Y005110D02*
X001227Y005110D01*
X001227Y005208D02*
X006046Y005208D01*
X006144Y005307D02*
X001227Y005307D01*
X001227Y005405D02*
X006243Y005405D01*
X006341Y005504D02*
X001227Y005504D01*
X001227Y005602D02*
X006440Y005602D01*
X006538Y005701D02*
X001227Y005701D01*
X001227Y005799D02*
X006637Y005799D01*
X006735Y005898D02*
X001227Y005898D01*
X001227Y005996D02*
X006834Y005996D01*
X006932Y006095D02*
X001227Y006095D01*
X001227Y006193D02*
X007031Y006193D01*
X010428Y008163D02*
X010875Y008163D01*
X010875Y008262D02*
X010492Y008262D01*
X010515Y008360D02*
X010875Y008360D01*
X010875Y008459D02*
X010515Y008459D01*
X010515Y008557D02*
X010875Y008557D01*
X010875Y008656D02*
X010515Y008656D01*
X010515Y008754D02*
X010875Y008754D01*
X010875Y008853D02*
X010515Y008853D01*
X010515Y008951D02*
X010875Y008951D01*
X010875Y009050D02*
X010515Y009050D01*
X010515Y009148D02*
X010875Y009148D01*
X010875Y009247D02*
X010515Y009247D01*
X010515Y009345D02*
X010875Y009345D01*
X010875Y009444D02*
X010515Y009444D01*
X010515Y009542D02*
X010875Y009542D01*
X010875Y009641D02*
X010515Y009641D01*
X010515Y009739D02*
X010875Y009739D01*
X010875Y009838D02*
X010515Y009838D01*
X010515Y009936D02*
X010875Y009936D01*
X010875Y010035D02*
X010515Y010035D01*
X010515Y010133D02*
X010875Y010133D01*
X010875Y010232D02*
X010515Y010232D01*
X010515Y010330D02*
X010875Y010330D01*
X010875Y010429D02*
X010515Y010429D01*
X010515Y010527D02*
X010875Y010527D01*
X010875Y010626D02*
X010515Y010626D01*
X010515Y010724D02*
X010875Y010724D01*
X010875Y010823D02*
X010515Y010823D01*
X010515Y010921D02*
X010875Y010921D01*
X010875Y011020D02*
X010515Y011020D01*
X010515Y011118D02*
X010875Y011118D01*
X010875Y011217D02*
X010515Y011217D01*
X010515Y011315D02*
X010875Y011315D01*
X010875Y011414D02*
X010515Y011414D01*
X010515Y011512D02*
X010875Y011512D01*
X010875Y011611D02*
X010515Y011611D01*
X010515Y011709D02*
X010875Y011709D01*
X010875Y011808D02*
X010515Y011808D01*
X010515Y011906D02*
X010875Y011906D01*
X010875Y012005D02*
X010515Y012005D01*
X010515Y012103D02*
X010875Y012103D01*
X010875Y012202D02*
X010515Y012202D01*
X010515Y012300D02*
X010875Y012300D01*
X010875Y012399D02*
X010515Y012399D01*
X010515Y012497D02*
X010875Y012497D01*
X010875Y012596D02*
X010515Y012596D01*
X010515Y012694D02*
X010875Y012694D01*
X010875Y012793D02*
X010515Y012793D01*
X010515Y012891D02*
X010875Y012891D01*
X010875Y012990D02*
X010515Y012990D01*
X010515Y013088D02*
X010875Y013088D01*
X010875Y013187D02*
X010515Y013187D01*
X010515Y013285D02*
X010875Y013285D01*
X010875Y013384D02*
X010515Y013384D01*
X010515Y013482D02*
X010875Y013482D01*
X010875Y013581D02*
X010515Y013581D01*
X010515Y013679D02*
X010875Y013679D01*
X010875Y013778D02*
X010515Y013778D01*
X010515Y013876D02*
X010875Y013876D01*
X010875Y013975D02*
X010515Y013975D01*
X010515Y014073D02*
X010875Y014073D01*
X010875Y014172D02*
X010515Y014172D01*
X010515Y014270D02*
X010875Y014270D01*
X010875Y014369D02*
X010515Y014369D01*
X010515Y014467D02*
X010875Y014467D01*
X010875Y014566D02*
X010515Y014566D01*
X010515Y014664D02*
X010875Y014664D01*
X010875Y014763D02*
X010515Y014763D01*
X010515Y014861D02*
X010875Y014861D01*
X010875Y014960D02*
X010515Y014960D01*
X010515Y015058D02*
X010875Y015058D01*
X010875Y015157D02*
X010515Y015157D01*
X010515Y015255D02*
X010875Y015255D01*
X010875Y015354D02*
X010515Y015354D01*
X010515Y015452D02*
X010875Y015452D01*
X010875Y015551D02*
X010565Y015551D01*
X010664Y015649D02*
X010875Y015649D01*
X010875Y015748D02*
X010762Y015748D01*
X010861Y015846D02*
X010875Y015846D01*
X011335Y015748D02*
X011645Y015748D01*
X011645Y015846D02*
X011347Y015846D01*
X011446Y015945D02*
X011645Y015945D01*
X011645Y016043D02*
X011544Y016043D01*
X011643Y016142D02*
X011645Y016142D01*
X011645Y015649D02*
X011335Y015649D01*
X011335Y015551D02*
X011645Y015551D01*
X011645Y015452D02*
X011335Y015452D01*
X011335Y015354D02*
X011650Y015354D01*
X011691Y015255D02*
X011335Y015255D01*
X011335Y015157D02*
X011801Y015157D01*
X010423Y016930D02*
X010385Y016930D01*
X010385Y017028D02*
X010521Y017028D01*
X010620Y017127D02*
X010385Y017127D01*
X010385Y017225D02*
X010718Y017225D01*
X010817Y017324D02*
X010385Y017324D01*
X010385Y017422D02*
X010915Y017422D01*
X011014Y017521D02*
X010385Y017521D01*
X010385Y017619D02*
X011112Y017619D01*
X011211Y017718D02*
X010385Y017718D01*
X010385Y017816D02*
X011309Y017816D01*
X011408Y017915D02*
X010385Y017915D01*
X010385Y018013D02*
X011506Y018013D01*
X012765Y020180D02*
X013884Y020180D01*
X013636Y020279D02*
X012765Y020279D01*
X012765Y020377D02*
X013636Y020377D01*
X013636Y020476D02*
X012765Y020476D01*
X012765Y020574D02*
X013636Y020574D01*
X013636Y020673D02*
X012765Y020673D01*
X012765Y020771D02*
X013636Y020771D01*
X013636Y020870D02*
X012752Y020870D01*
X012703Y020968D02*
X013691Y020968D01*
X014401Y020968D02*
X014932Y020968D01*
X015031Y020870D02*
X014456Y020870D01*
X014456Y020771D02*
X015129Y020771D01*
X015169Y020673D02*
X014456Y020673D01*
X014456Y020574D02*
X015164Y020574D01*
X015164Y020476D02*
X014456Y020476D01*
X014456Y020377D02*
X015203Y020377D01*
X015255Y020279D02*
X014456Y020279D01*
X014834Y021067D02*
X012569Y021067D01*
X012340Y021067D02*
X012255Y021067D01*
X012255Y021165D02*
X014735Y021165D01*
X014637Y021264D02*
X012255Y021264D01*
X012255Y021362D02*
X014538Y021362D01*
X014440Y021461D02*
X012255Y021461D01*
X012255Y021559D02*
X014341Y021559D01*
X014243Y021658D02*
X012255Y021658D01*
X012255Y021756D02*
X014144Y021756D01*
X014046Y021855D02*
X012255Y021855D01*
X012255Y021953D02*
X013947Y021953D01*
X013849Y022052D02*
X012255Y022052D01*
X012255Y022150D02*
X013750Y022150D01*
X013652Y022249D02*
X012255Y022249D01*
X012255Y022347D02*
X013553Y022347D01*
X013455Y022446D02*
X012255Y022446D01*
X012303Y022544D02*
X013356Y022544D01*
X013258Y022643D02*
X012402Y022643D01*
X012500Y022741D02*
X013004Y022741D01*
X012927Y022840D02*
X012599Y022840D01*
X012697Y022938D02*
X012895Y022938D01*
X012895Y023037D02*
X012796Y023037D01*
X012894Y023135D02*
X012934Y023135D01*
X013205Y022979D02*
X015616Y020567D01*
X015639Y020567D01*
X015909Y021165D02*
X019095Y021165D01*
X018552Y020082D02*
X018527Y020082D01*
X018527Y019983D02*
X018552Y019983D01*
X018552Y019885D02*
X018527Y019885D01*
X018527Y019786D02*
X018552Y019786D01*
X018527Y019694D02*
X017889Y019694D01*
X017889Y019667D01*
X017904Y019590D01*
X017935Y019517D01*
X017978Y019451D01*
X018034Y019396D01*
X018100Y019352D01*
X018172Y019322D01*
X018250Y019306D01*
X018527Y019306D01*
X018527Y019694D01*
X018527Y019688D02*
X018552Y019688D01*
X018552Y019589D02*
X018527Y019589D01*
X018527Y019491D02*
X018552Y019491D01*
X018552Y019392D02*
X018527Y019392D01*
X019039Y019392D02*
X019095Y019392D01*
X019094Y019294D02*
X016037Y019294D01*
X016081Y019392D02*
X016189Y019392D01*
X015939Y019195D02*
X019078Y019195D01*
X019062Y019097D02*
X015745Y019097D01*
X015839Y018998D02*
X019045Y018998D01*
X019029Y018900D02*
X015978Y018900D01*
X016056Y018801D02*
X019012Y018801D01*
X018994Y018703D02*
X016097Y018703D01*
X016114Y018604D02*
X017172Y018604D01*
X017076Y018506D02*
X016114Y018506D01*
X016087Y018407D02*
X017026Y018407D01*
X017004Y018309D02*
X016046Y018309D01*
X015954Y018210D02*
X017008Y018210D01*
X017013Y018179D02*
X017033Y018118D01*
X017062Y018060D01*
X017100Y018009D01*
X017145Y017963D01*
X017197Y017926D01*
X017254Y017896D01*
X017315Y017877D01*
X017379Y017867D01*
X017382Y017867D01*
X017382Y018245D01*
X017003Y018245D01*
X017003Y018242D01*
X017013Y018179D01*
X017036Y018112D02*
X015781Y018112D01*
X015803Y018013D02*
X017097Y018013D01*
X017218Y017915D02*
X015963Y017915D01*
X016050Y017816D02*
X017604Y017816D01*
X017603Y017915D02*
X017702Y017915D01*
X017725Y018013D02*
X017791Y018013D01*
X017786Y018112D02*
X017791Y018112D01*
X017440Y018112D02*
X017382Y018112D01*
X017382Y018210D02*
X017440Y018210D01*
X017440Y018309D02*
X017382Y018309D01*
X017382Y018407D02*
X017440Y018407D01*
X017440Y018506D02*
X017382Y018506D01*
X017382Y018604D02*
X017440Y018604D01*
X017650Y018604D02*
X017801Y018604D01*
X017791Y018506D02*
X017746Y018506D01*
X017440Y018013D02*
X017382Y018013D01*
X017382Y017915D02*
X017440Y017915D01*
X018087Y017422D02*
X018785Y017422D01*
X018791Y017324D02*
X017988Y017324D01*
X017890Y017225D02*
X018789Y017225D01*
X018787Y017127D02*
X016691Y017127D01*
X016593Y017028D02*
X018785Y017028D01*
X018783Y016930D02*
X016515Y016930D01*
X016515Y016831D02*
X018780Y016831D01*
X018778Y016733D02*
X016989Y016733D01*
X017076Y016634D02*
X018771Y016634D01*
X018774Y016536D02*
X017115Y016536D01*
X017115Y016437D02*
X018788Y016437D01*
X018800Y016339D02*
X017082Y016339D01*
X017005Y016240D02*
X018811Y016240D01*
X018822Y016142D02*
X016835Y016142D01*
X016835Y016043D02*
X018833Y016043D01*
X018845Y015945D02*
X016835Y015945D01*
X016835Y015846D02*
X018856Y015846D01*
X018867Y015748D02*
X018552Y015748D01*
X018518Y015781D02*
X017879Y015781D01*
X017791Y015694D01*
X017791Y015523D01*
X017789Y015530D01*
X017759Y015588D01*
X017722Y015639D01*
X017676Y015685D01*
X017624Y015723D01*
X017567Y015752D01*
X017506Y015771D01*
X017443Y015781D01*
X017440Y015781D01*
X017440Y015403D01*
X017382Y015403D01*
X017382Y015781D01*
X017379Y015781D01*
X017315Y015771D01*
X017254Y015752D01*
X017197Y015723D01*
X017145Y015685D01*
X017100Y015639D01*
X017062Y015588D01*
X017033Y015530D01*
X017013Y015469D01*
X017003Y015406D01*
X017003Y015403D01*
X017382Y015403D01*
X017382Y015345D01*
X017440Y015345D01*
X017440Y014967D01*
X017443Y014967D01*
X017506Y014977D01*
X017567Y014996D01*
X017624Y015026D01*
X017676Y015063D01*
X017722Y015109D01*
X017759Y015160D01*
X017789Y015218D01*
X017791Y015225D01*
X017791Y015054D01*
X017879Y014967D01*
X018518Y014967D01*
X018606Y015054D01*
X018606Y015694D01*
X018518Y015781D01*
X018606Y015649D02*
X018878Y015649D01*
X018888Y015551D02*
X018606Y015551D01*
X018606Y015452D02*
X018901Y015452D01*
X018940Y015354D02*
X018606Y015354D01*
X018606Y015255D02*
X018974Y015255D01*
X019008Y015157D02*
X018606Y015157D01*
X018606Y015058D02*
X019026Y015058D01*
X019043Y014960D02*
X016835Y014960D01*
X016835Y015058D02*
X017152Y015058D01*
X017145Y015063D02*
X017197Y015026D01*
X017254Y014996D01*
X017315Y014977D01*
X017379Y014967D01*
X017382Y014967D01*
X017382Y015345D01*
X017003Y015345D01*
X017003Y015342D01*
X017013Y015279D01*
X017033Y015218D01*
X017062Y015160D01*
X017100Y015109D01*
X017145Y015063D01*
X017065Y015157D02*
X016835Y015157D01*
X016835Y015255D02*
X017021Y015255D01*
X017011Y015452D02*
X016835Y015452D01*
X016835Y015354D02*
X017382Y015354D01*
X017382Y015452D02*
X017440Y015452D01*
X017440Y015551D02*
X017382Y015551D01*
X017382Y015649D02*
X017440Y015649D01*
X017440Y015748D02*
X017382Y015748D01*
X017247Y015748D02*
X016835Y015748D01*
X016835Y015649D02*
X017110Y015649D01*
X017044Y015551D02*
X016835Y015551D01*
X017382Y015255D02*
X017440Y015255D01*
X017440Y015157D02*
X017382Y015157D01*
X017382Y015058D02*
X017440Y015058D01*
X017670Y015058D02*
X017791Y015058D01*
X017791Y015157D02*
X017757Y015157D01*
X017778Y015551D02*
X017791Y015551D01*
X017791Y015649D02*
X017712Y015649D01*
X017845Y015748D02*
X017575Y015748D01*
X016835Y014861D02*
X019060Y014861D01*
X019077Y014763D02*
X016835Y014763D01*
X016835Y014664D02*
X019094Y014664D01*
X019095Y014566D02*
X016835Y014566D01*
X016835Y014467D02*
X019095Y014467D01*
X019095Y014369D02*
X016835Y014369D01*
X016835Y014270D02*
X019095Y014270D01*
X019095Y014172D02*
X016835Y014172D01*
X016835Y014073D02*
X019095Y014073D01*
X019095Y013975D02*
X016835Y013975D01*
X016835Y013876D02*
X019095Y013876D01*
X019095Y013778D02*
X016835Y013778D01*
X016835Y013679D02*
X019095Y013679D01*
X019095Y013581D02*
X016835Y013581D01*
X016835Y013482D02*
X019095Y013482D01*
X019095Y013384D02*
X016835Y013384D01*
X016835Y013285D02*
X019095Y013285D01*
X019095Y013187D02*
X016835Y013187D01*
X016835Y013088D02*
X019095Y013088D01*
X019095Y012990D02*
X016819Y012990D01*
X016721Y012891D02*
X019095Y012891D01*
X019095Y012793D02*
X016622Y012793D01*
X016524Y012694D02*
X019095Y012694D01*
X019095Y012596D02*
X016425Y012596D01*
X016327Y012497D02*
X016650Y012497D01*
X016514Y012399D02*
X016331Y012399D01*
X016397Y012300D02*
X016448Y012300D01*
X016425Y012005D02*
X016418Y012005D01*
X016374Y011906D02*
X016466Y011906D01*
X016557Y011808D02*
X016286Y011808D01*
X016057Y011808D02*
X016000Y011808D01*
X016000Y011717D02*
X016000Y012096D01*
X015621Y012096D01*
X015621Y012093D01*
X015631Y012029D01*
X015651Y011968D01*
X015680Y011911D01*
X015718Y011859D01*
X015763Y011814D01*
X015815Y011776D01*
X015872Y011747D01*
X015933Y011727D01*
X015997Y011717D01*
X016000Y011717D01*
X016000Y011906D02*
X016057Y011906D01*
X016057Y012005D02*
X016000Y012005D01*
X016000Y012103D02*
X012035Y012103D01*
X012035Y012005D02*
X015639Y012005D01*
X015684Y011906D02*
X012035Y011906D01*
X012035Y011808D02*
X015772Y011808D01*
X015628Y012202D02*
X012103Y012202D01*
X012201Y012300D02*
X015661Y012300D01*
X015164Y013384D02*
X014438Y013384D01*
X014076Y013482D02*
X015164Y013482D01*
X016982Y012497D02*
X017438Y012497D01*
X017301Y012399D02*
X017118Y012399D01*
X017184Y012300D02*
X017235Y012300D01*
X017212Y012005D02*
X017207Y012005D01*
X017167Y011906D02*
X017253Y011906D01*
X017344Y011808D02*
X017075Y011808D01*
X017863Y011808D02*
X017983Y011808D01*
X017983Y011906D02*
X017954Y011906D01*
X017972Y012300D02*
X017983Y012300D01*
X017983Y012399D02*
X017906Y012399D01*
X018036Y012497D02*
X017769Y012497D01*
X018745Y012497D02*
X019095Y012497D01*
X019095Y012399D02*
X018798Y012399D01*
X018798Y012300D02*
X019095Y012300D01*
X019095Y012202D02*
X018798Y012202D01*
X018798Y012103D02*
X019095Y012103D01*
X019095Y012005D02*
X018798Y012005D01*
X018798Y011906D02*
X019095Y011906D01*
X019095Y011808D02*
X018798Y011808D01*
X019095Y011709D02*
X012762Y011709D01*
X012730Y011742D02*
X012616Y011789D01*
X012493Y011789D01*
X012379Y011742D01*
X012292Y011654D01*
X012245Y011540D01*
X012245Y011417D01*
X012245Y008440D01*
X012245Y008317D01*
X012292Y008203D01*
X012379Y008116D01*
X012493Y008069D01*
X012616Y008069D01*
X012730Y008116D01*
X012817Y008203D01*
X012865Y008317D01*
X012865Y011540D01*
X012817Y011654D01*
X012730Y011742D01*
X012835Y011611D02*
X019095Y011611D01*
X019095Y011512D02*
X012865Y011512D01*
X012865Y011414D02*
X013487Y011414D01*
X013577Y011451D02*
X013341Y011353D01*
X013160Y011172D01*
X013062Y010936D01*
X013062Y010681D01*
X013160Y010445D01*
X013341Y010264D01*
X013577Y010167D01*
X013832Y010167D01*
X014068Y010264D01*
X014249Y010445D01*
X014347Y010681D01*
X014347Y010936D01*
X014249Y011172D01*
X014068Y011353D01*
X013832Y011451D01*
X013577Y011451D01*
X013303Y011315D02*
X012865Y011315D01*
X012865Y011217D02*
X013205Y011217D01*
X013138Y011118D02*
X012865Y011118D01*
X012865Y011020D02*
X013097Y011020D01*
X013062Y010921D02*
X012865Y010921D01*
X012865Y010823D02*
X013062Y010823D01*
X013062Y010724D02*
X012865Y010724D01*
X012865Y010626D02*
X013085Y010626D01*
X013126Y010527D02*
X012865Y010527D01*
X012865Y010429D02*
X013176Y010429D01*
X013275Y010330D02*
X012865Y010330D01*
X012865Y010232D02*
X013420Y010232D01*
X013990Y010232D02*
X018173Y010232D01*
X018148Y010292D02*
X018216Y010128D01*
X018342Y010002D01*
X018378Y009987D01*
X018342Y009973D01*
X018216Y009847D01*
X018148Y009683D01*
X018148Y009505D01*
X018216Y009341D01*
X018342Y009215D01*
X018378Y009200D01*
X018342Y009185D01*
X018216Y009059D01*
X018148Y008895D01*
X018148Y008717D01*
X018216Y008553D01*
X018342Y008427D01*
X018506Y008359D01*
X018684Y008359D01*
X018848Y008427D01*
X018974Y008553D01*
X019042Y008717D01*
X019042Y008895D01*
X018974Y009059D01*
X018848Y009185D01*
X018812Y009200D01*
X018848Y009215D01*
X018974Y009341D01*
X019042Y009505D01*
X019042Y009683D01*
X018974Y009847D01*
X018848Y009973D01*
X018812Y009987D01*
X018848Y010002D01*
X018974Y010128D01*
X019042Y010292D01*
X019042Y010470D01*
X018974Y010634D01*
X018848Y010760D01*
X018684Y010828D01*
X018506Y010828D01*
X018342Y010760D01*
X018216Y010634D01*
X018148Y010470D01*
X018148Y010292D01*
X018148Y010330D02*
X014134Y010330D01*
X014233Y010429D02*
X018148Y010429D01*
X018172Y010527D02*
X014283Y010527D01*
X014324Y010626D02*
X018212Y010626D01*
X018306Y010724D02*
X014347Y010724D01*
X014347Y010823D02*
X018493Y010823D01*
X018696Y010823D02*
X019095Y010823D01*
X019095Y010921D02*
X014347Y010921D01*
X014312Y011020D02*
X019095Y011020D01*
X019095Y011118D02*
X014271Y011118D01*
X014205Y011217D02*
X019095Y011217D01*
X019095Y011315D02*
X014106Y011315D01*
X013922Y011414D02*
X019095Y011414D01*
X019095Y010724D02*
X018884Y010724D01*
X018977Y010626D02*
X019095Y010626D01*
X019095Y010527D02*
X019018Y010527D01*
X019042Y010429D02*
X019095Y010429D01*
X019095Y010330D02*
X019042Y010330D01*
X019017Y010232D02*
X019095Y010232D01*
X019095Y010133D02*
X018976Y010133D01*
X018880Y010035D02*
X019095Y010035D01*
X019095Y009936D02*
X018884Y009936D01*
X018977Y009838D02*
X019095Y009838D01*
X019095Y009739D02*
X019018Y009739D01*
X019042Y009641D02*
X019095Y009641D01*
X019095Y009542D02*
X019042Y009542D01*
X019016Y009444D02*
X019095Y009444D01*
X019095Y009345D02*
X018976Y009345D01*
X018880Y009247D02*
X019095Y009247D01*
X019095Y009148D02*
X018885Y009148D01*
X018978Y009050D02*
X019095Y009050D01*
X019095Y008951D02*
X019018Y008951D01*
X019042Y008853D02*
X019095Y008853D01*
X019095Y008754D02*
X019042Y008754D01*
X019016Y008656D02*
X019095Y008656D01*
X019095Y008557D02*
X018975Y008557D01*
X018879Y008459D02*
X019095Y008459D01*
X019095Y008360D02*
X018686Y008360D01*
X018504Y008360D02*
X012865Y008360D01*
X012865Y008459D02*
X018310Y008459D01*
X018214Y008557D02*
X012865Y008557D01*
X012865Y008656D02*
X018173Y008656D01*
X018148Y008754D02*
X012865Y008754D01*
X012865Y008853D02*
X018148Y008853D01*
X018171Y008951D02*
X012865Y008951D01*
X012865Y009050D02*
X018212Y009050D01*
X018305Y009148D02*
X012865Y009148D01*
X012865Y009247D02*
X018310Y009247D01*
X018214Y009345D02*
X012865Y009345D01*
X012865Y009444D02*
X018173Y009444D01*
X018148Y009542D02*
X012865Y009542D01*
X012865Y009641D02*
X018148Y009641D01*
X018171Y009739D02*
X012865Y009739D01*
X012865Y009838D02*
X018212Y009838D01*
X018305Y009936D02*
X012865Y009936D01*
X012865Y010035D02*
X018309Y010035D01*
X018214Y010133D02*
X012865Y010133D01*
X012245Y010133D02*
X012035Y010133D01*
X012035Y010035D02*
X012245Y010035D01*
X012245Y009936D02*
X012035Y009936D01*
X012035Y009838D02*
X012245Y009838D01*
X012245Y009739D02*
X012035Y009739D01*
X012035Y009641D02*
X012245Y009641D01*
X012245Y009542D02*
X012035Y009542D01*
X012035Y009444D02*
X012245Y009444D01*
X012245Y009345D02*
X012035Y009345D01*
X012035Y009247D02*
X012245Y009247D01*
X012245Y009148D02*
X012035Y009148D01*
X012035Y009050D02*
X012245Y009050D01*
X012245Y008951D02*
X012035Y008951D01*
X012035Y008853D02*
X012245Y008853D01*
X012245Y008754D02*
X012035Y008754D01*
X012035Y008656D02*
X012245Y008656D01*
X012245Y008557D02*
X012035Y008557D01*
X012035Y008459D02*
X012245Y008459D01*
X012245Y008360D02*
X012035Y008360D01*
X012035Y008262D02*
X012268Y008262D01*
X012332Y008163D02*
X012035Y008163D01*
X012035Y008065D02*
X019095Y008065D01*
X019095Y008163D02*
X012778Y008163D01*
X012842Y008262D02*
X019095Y008262D01*
X019095Y007966D02*
X012035Y007966D01*
X012035Y007868D02*
X019095Y007868D01*
X019095Y007769D02*
X012035Y007769D01*
X012035Y007671D02*
X019095Y007671D01*
X019095Y007572D02*
X012035Y007572D01*
X012035Y007474D02*
X017451Y007474D01*
X017517Y007501D02*
X017281Y007403D01*
X017100Y007222D01*
X017002Y006986D01*
X017002Y006731D01*
X017100Y006495D01*
X017281Y006314D01*
X017517Y006217D01*
X017772Y006217D01*
X018008Y006314D01*
X018189Y006495D01*
X018287Y006731D01*
X018287Y006986D01*
X018189Y007222D01*
X018008Y007403D01*
X017772Y007501D01*
X017517Y007501D01*
X017253Y007375D02*
X012035Y007375D01*
X012035Y007277D02*
X017155Y007277D01*
X017082Y007178D02*
X012035Y007178D01*
X012035Y007080D02*
X017041Y007080D01*
X017002Y006981D02*
X012035Y006981D01*
X012035Y006883D02*
X017002Y006883D01*
X017002Y006784D02*
X012035Y006784D01*
X012035Y006686D02*
X017021Y006686D01*
X017062Y006587D02*
X012035Y006587D01*
X012035Y006489D02*
X017106Y006489D01*
X017205Y006390D02*
X012035Y006390D01*
X012035Y006292D02*
X017335Y006292D01*
X017954Y006292D02*
X019095Y006292D01*
X019095Y006390D02*
X018084Y006390D01*
X018183Y006489D02*
X019095Y006489D01*
X019095Y006587D02*
X018227Y006587D01*
X018268Y006686D02*
X019095Y006686D01*
X019095Y006784D02*
X018287Y006784D01*
X018287Y006883D02*
X019095Y006883D01*
X019095Y006981D02*
X018287Y006981D01*
X018248Y007080D02*
X019095Y007080D01*
X019095Y007178D02*
X018207Y007178D01*
X018135Y007277D02*
X019095Y007277D01*
X019095Y007375D02*
X018036Y007375D01*
X017838Y007474D02*
X019095Y007474D01*
X019095Y006193D02*
X012035Y006193D01*
X012035Y006095D02*
X019095Y006095D01*
X019095Y005996D02*
X012035Y005996D01*
X011949Y005898D02*
X019095Y005898D01*
X019095Y005799D02*
X011850Y005799D01*
X011752Y005701D02*
X019095Y005701D01*
X019095Y005602D02*
X011653Y005602D01*
X011555Y005504D02*
X019095Y005504D01*
X019095Y005405D02*
X011456Y005405D01*
X011358Y005307D02*
X019095Y005307D01*
X019095Y005208D02*
X011259Y005208D01*
X008381Y002253D02*
X017207Y002253D01*
X017207Y002155D02*
X008381Y002155D01*
X008381Y002056D02*
X017207Y002056D01*
X017216Y001958D02*
X008381Y001958D01*
X008381Y001859D02*
X017257Y001859D01*
X017298Y001761D02*
X008589Y001761D01*
X008626Y001662D02*
X017356Y001662D01*
X017454Y001564D02*
X008626Y001564D01*
X008626Y001465D02*
X017563Y001465D01*
X017801Y001367D02*
X008626Y001367D01*
X007921Y001812D02*
X007764Y001812D01*
X007676Y001724D01*
X007676Y000950D01*
X007707Y000919D01*
X007376Y000919D01*
X007400Y000931D01*
X007460Y000975D01*
X007513Y001027D01*
X007557Y001088D01*
X007591Y001155D01*
X007614Y001226D01*
X007626Y001299D01*
X007188Y001299D01*
X007188Y001374D01*
X007626Y001374D01*
X007614Y001448D01*
X007591Y001519D01*
X007557Y001586D01*
X007513Y001646D01*
X007460Y001699D01*
X007400Y001743D01*
X007333Y001777D01*
X007262Y001800D01*
X007188Y001812D01*
X007188Y001374D01*
X007113Y001374D01*
X007113Y001299D01*
X006676Y001299D01*
X006688Y001226D01*
X006711Y001155D01*
X006745Y001088D01*
X006789Y001027D01*
X006841Y000975D01*
X006902Y000931D01*
X006925Y000919D01*
X006382Y000919D01*
X006420Y000934D01*
X006554Y001068D01*
X006626Y001242D01*
X006626Y001431D01*
X006610Y001470D01*
X007921Y002782D01*
X007921Y001812D01*
X007921Y001859D02*
X006998Y001859D01*
X007040Y001800D02*
X006969Y001777D01*
X006902Y001743D01*
X006841Y001699D01*
X006789Y001646D01*
X006745Y001586D01*
X006711Y001519D01*
X006688Y001448D01*
X006676Y001374D01*
X007113Y001374D01*
X007113Y001812D01*
X007040Y001800D01*
X007113Y001761D02*
X007188Y001761D01*
X007188Y001662D02*
X007113Y001662D01*
X007113Y001564D02*
X007188Y001564D01*
X007188Y001465D02*
X007113Y001465D01*
X007113Y001367D02*
X006626Y001367D01*
X006626Y001268D02*
X006681Y001268D01*
X006706Y001170D02*
X006596Y001170D01*
X006555Y001071D02*
X006757Y001071D01*
X006844Y000973D02*
X006458Y000973D01*
X006612Y001465D02*
X006693Y001465D01*
X006703Y001564D02*
X006733Y001564D01*
X006801Y001662D02*
X006804Y001662D01*
X006900Y001761D02*
X006936Y001761D01*
X007097Y001958D02*
X007921Y001958D01*
X007921Y002056D02*
X007195Y002056D01*
X007294Y002155D02*
X007921Y002155D01*
X007921Y002253D02*
X007392Y002253D01*
X007491Y002352D02*
X007921Y002352D01*
X007921Y002450D02*
X007589Y002450D01*
X007688Y002549D02*
X007921Y002549D01*
X007921Y002647D02*
X007786Y002647D01*
X007885Y002746D02*
X007921Y002746D01*
X007713Y001761D02*
X007365Y001761D01*
X007497Y001662D02*
X007676Y001662D01*
X007676Y001564D02*
X007568Y001564D01*
X007609Y001465D02*
X007676Y001465D01*
X007676Y001367D02*
X007188Y001367D01*
X007621Y001268D02*
X007676Y001268D01*
X007676Y001170D02*
X007596Y001170D01*
X007545Y001071D02*
X007676Y001071D01*
X007676Y000973D02*
X007458Y000973D01*
X002277Y000719D02*
X002209Y000721D01*
X002142Y000726D01*
X002075Y000735D01*
X002008Y000748D01*
X001943Y000765D01*
X001878Y000784D01*
X001814Y000808D01*
X001752Y000835D01*
X001691Y000865D01*
X001633Y000898D01*
X001576Y000934D01*
X001521Y000974D01*
X001468Y001016D01*
X001417Y001062D01*
X001370Y001109D01*
X001324Y001160D01*
X001282Y001213D01*
X001242Y001268D01*
X001206Y001325D01*
X001173Y001383D01*
X001143Y001444D01*
X001116Y001506D01*
X001092Y001570D01*
X001073Y001635D01*
X001056Y001700D01*
X001043Y001767D01*
X001034Y001834D01*
X001029Y001901D01*
X001027Y001969D01*
X001227Y006292D02*
X001715Y006292D01*
X001585Y006390D02*
X001227Y006390D01*
X001227Y006489D02*
X001486Y006489D01*
X001442Y006587D02*
X001227Y006587D01*
X001227Y006686D02*
X001401Y006686D01*
X001382Y006784D02*
X001227Y006784D01*
X001227Y006883D02*
X001382Y006883D01*
X001382Y006981D02*
X001227Y006981D01*
X001227Y007080D02*
X001421Y007080D01*
X001462Y007178D02*
X001227Y007178D01*
X001227Y007277D02*
X001535Y007277D01*
X001633Y007375D02*
X001227Y007375D01*
X001998Y011906D02*
X002055Y011906D01*
X002055Y012005D02*
X001998Y012005D01*
X001998Y012103D02*
X002055Y012103D01*
X002055Y012202D02*
X001998Y012202D01*
X012035Y011709D02*
X012347Y011709D01*
X012274Y011611D02*
X012035Y011611D01*
X012035Y011512D02*
X012245Y011512D01*
X012245Y011414D02*
X012035Y011414D01*
X012035Y011315D02*
X012245Y011315D01*
X012245Y011217D02*
X012035Y011217D01*
X012035Y011118D02*
X012245Y011118D01*
X012245Y011020D02*
X012035Y011020D01*
X012035Y010921D02*
X012245Y010921D01*
X012245Y010823D02*
X012035Y010823D01*
X012035Y010724D02*
X012245Y010724D01*
X012245Y010626D02*
X012035Y010626D01*
X012035Y010527D02*
X012245Y010527D01*
X012245Y010429D02*
X012035Y010429D01*
X012035Y010330D02*
X012245Y010330D01*
X012245Y010232D02*
X012035Y010232D01*
X014417Y016043D02*
X015895Y016043D01*
X015895Y016142D02*
X015854Y016142D01*
X016515Y016634D02*
X016534Y016634D01*
X016515Y016733D02*
X016620Y016733D01*
X015895Y017028D02*
X015766Y017028D01*
X015817Y017127D02*
X015895Y017127D01*
X016093Y017422D02*
X016110Y017422D01*
X016114Y017521D02*
X016208Y017521D01*
X016114Y017619D02*
X016307Y017619D01*
X016405Y017718D02*
X016091Y017718D01*
X016702Y019306D02*
X016979Y019306D01*
X017056Y019322D01*
X017129Y019352D01*
X017194Y019396D01*
X017250Y019451D01*
X017294Y019517D01*
X017324Y019590D01*
X017339Y019667D01*
X017339Y019694D01*
X016702Y019694D01*
X016702Y019306D01*
X016702Y019392D02*
X016677Y019392D01*
X016677Y019491D02*
X016702Y019491D01*
X016702Y019589D02*
X016677Y019589D01*
X016677Y019688D02*
X016702Y019688D01*
X016702Y019786D02*
X016677Y019786D01*
X016677Y019885D02*
X016702Y019885D01*
X016702Y019983D02*
X016677Y019983D01*
X016677Y020082D02*
X016702Y020082D01*
X017078Y020082D02*
X018151Y020082D01*
X018000Y019983D02*
X017228Y019983D01*
X017298Y019885D02*
X017930Y019885D01*
X017897Y019786D02*
X017331Y019786D01*
X017339Y019688D02*
X017889Y019688D01*
X017905Y019589D02*
X017324Y019589D01*
X017276Y019491D02*
X017952Y019491D01*
X018039Y019392D02*
X017189Y019392D01*
X018595Y018604D02*
X018976Y018604D01*
X018959Y018506D02*
X018606Y018506D01*
X018606Y018407D02*
X018941Y018407D01*
X018923Y018309D02*
X018606Y018309D01*
X018606Y018210D02*
X018905Y018210D01*
X018891Y018112D02*
X018606Y018112D01*
X018606Y018013D02*
X018875Y018013D01*
X018860Y017915D02*
X018566Y017915D01*
X018473Y017816D02*
X018845Y017816D01*
X018830Y017718D02*
X018382Y017718D01*
X018284Y017619D02*
X018815Y017619D01*
X018796Y017521D02*
X018185Y017521D01*
X018995Y017469D02*
X019105Y018189D01*
X019215Y018799D01*
X019295Y019279D01*
X019295Y024259D01*
X019294Y024259D02*
X019292Y024323D01*
X019286Y024387D01*
X019277Y024451D01*
X019263Y024514D01*
X019246Y024576D01*
X019225Y024637D01*
X019200Y024697D01*
X019172Y024754D01*
X019140Y024810D01*
X019105Y024865D01*
X019067Y024916D01*
X019026Y024966D01*
X018982Y025013D01*
X018935Y025057D01*
X018885Y025098D01*
X018834Y025136D01*
X018779Y025171D01*
X018723Y025203D01*
X018666Y025231D01*
X018606Y025256D01*
X018545Y025277D01*
X018483Y025294D01*
X018420Y025308D01*
X018356Y025317D01*
X018292Y025323D01*
X018228Y025325D01*
X017963Y022938D02*
X017825Y022938D01*
X017825Y022840D02*
X017911Y022840D01*
X017889Y022741D02*
X017825Y022741D01*
X017825Y022643D02*
X017894Y022643D01*
X017923Y022544D02*
X017825Y022544D01*
X017825Y022446D02*
X017984Y022446D01*
X018110Y022347D02*
X017825Y022347D01*
X018527Y022347D02*
X018552Y022347D01*
X017014Y022249D02*
X015992Y022249D01*
X016062Y022347D02*
X016260Y022347D01*
X016134Y022446D02*
X016103Y022446D01*
X015874Y022150D02*
X016951Y022150D01*
X016702Y022347D02*
X016677Y022347D01*
X016677Y022446D02*
X016702Y022446D01*
X016702Y022544D02*
X016677Y022544D01*
X016677Y022643D02*
X016702Y022643D01*
X015639Y021567D02*
X015166Y021567D01*
X015161Y021855D02*
X015255Y021855D01*
X015353Y021953D02*
X015063Y021953D01*
X014305Y023579D02*
X014255Y023629D01*
X012805Y023629D01*
X011805Y022629D01*
X018995Y017469D02*
X018975Y016569D01*
X019095Y015519D01*
X019205Y015199D01*
X019295Y014679D01*
X019295Y014669D02*
X019295Y001969D01*
X019293Y001901D01*
X019288Y001834D01*
X019279Y001767D01*
X019266Y001700D01*
X019249Y001635D01*
X019230Y001570D01*
X019206Y001506D01*
X019179Y001444D01*
X019149Y001383D01*
X019116Y001325D01*
X019080Y001268D01*
X019040Y001213D01*
X018998Y001160D01*
X018952Y001109D01*
X018905Y001062D01*
X018854Y001016D01*
X018801Y000974D01*
X018746Y000934D01*
X018689Y000898D01*
X018631Y000865D01*
X018570Y000835D01*
X018508Y000808D01*
X018444Y000784D01*
X018379Y000765D01*
X018314Y000748D01*
X018247Y000735D01*
X018180Y000726D01*
X018113Y000721D01*
X018045Y000719D01*
D11*
X018245Y000709D02*
X018316Y000730D01*
X018386Y000755D01*
X018454Y000783D01*
X018521Y000815D01*
X018586Y000851D01*
X018649Y000889D01*
X018710Y000931D01*
X018769Y000975D01*
X018826Y001023D01*
X018880Y001074D01*
X018932Y001127D01*
X018981Y001182D01*
X019027Y001241D01*
X019070Y001301D01*
X019109Y001363D01*
X019146Y001428D01*
X019179Y001494D01*
X019209Y001562D01*
X019235Y001631D01*
X019258Y001701D01*
X019277Y001773D01*
X019293Y001845D01*
X019305Y001918D01*
X017357Y002134D02*
X017359Y002184D01*
X017365Y002234D01*
X017375Y002283D01*
X017389Y002331D01*
X017406Y002378D01*
X017427Y002423D01*
X017452Y002467D01*
X017480Y002508D01*
X017512Y002547D01*
X017546Y002584D01*
X017583Y002618D01*
X017623Y002648D01*
X017665Y002675D01*
X017709Y002699D01*
X017755Y002720D01*
X017802Y002736D01*
X017850Y002749D01*
X017900Y002758D01*
X017949Y002763D01*
X018000Y002764D01*
X018050Y002761D01*
X018099Y002754D01*
X018148Y002743D01*
X018196Y002728D01*
X018242Y002710D01*
X018287Y002688D01*
X018330Y002662D01*
X018371Y002633D01*
X018410Y002601D01*
X018446Y002566D01*
X018478Y002528D01*
X018508Y002488D01*
X018535Y002445D01*
X018558Y002401D01*
X018577Y002355D01*
X018593Y002307D01*
X018605Y002258D01*
X018613Y002209D01*
X018617Y002159D01*
X018617Y002109D01*
X018613Y002059D01*
X018605Y002010D01*
X018593Y001961D01*
X018577Y001913D01*
X018558Y001867D01*
X018535Y001823D01*
X018508Y001780D01*
X018478Y001740D01*
X018446Y001702D01*
X018410Y001667D01*
X018371Y001635D01*
X018330Y001606D01*
X018287Y001580D01*
X018242Y001558D01*
X018196Y001540D01*
X018148Y001525D01*
X018099Y001514D01*
X018050Y001507D01*
X018000Y001504D01*
X017949Y001505D01*
X017900Y001510D01*
X017850Y001519D01*
X017802Y001532D01*
X017755Y001548D01*
X017709Y001569D01*
X017665Y001593D01*
X017623Y001620D01*
X017583Y001650D01*
X017546Y001684D01*
X017512Y001721D01*
X017480Y001760D01*
X017452Y001801D01*
X017427Y001845D01*
X017406Y001890D01*
X017389Y001937D01*
X017375Y001985D01*
X017365Y002034D01*
X017359Y002084D01*
X017357Y002134D01*
X013213Y002919D02*
X013215Y002963D01*
X013221Y003007D01*
X013231Y003050D01*
X013244Y003092D01*
X013262Y003132D01*
X013283Y003171D01*
X013307Y003208D01*
X013334Y003243D01*
X013365Y003275D01*
X013398Y003304D01*
X013434Y003330D01*
X013472Y003352D01*
X013512Y003371D01*
X013553Y003387D01*
X013596Y003399D01*
X013639Y003407D01*
X013683Y003411D01*
X013727Y003411D01*
X013771Y003407D01*
X013814Y003399D01*
X013857Y003387D01*
X013898Y003371D01*
X013938Y003352D01*
X013976Y003330D01*
X014012Y003304D01*
X014045Y003275D01*
X014076Y003243D01*
X014103Y003208D01*
X014127Y003171D01*
X014148Y003132D01*
X014166Y003092D01*
X014179Y003050D01*
X014189Y003007D01*
X014195Y002963D01*
X014197Y002919D01*
X014195Y002875D01*
X014189Y002831D01*
X014179Y002788D01*
X014166Y002746D01*
X014148Y002706D01*
X014127Y002667D01*
X014103Y002630D01*
X014076Y002595D01*
X014045Y002563D01*
X014012Y002534D01*
X013976Y002508D01*
X013938Y002486D01*
X013898Y002467D01*
X013857Y002451D01*
X013814Y002439D01*
X013771Y002431D01*
X013727Y002427D01*
X013683Y002427D01*
X013639Y002431D01*
X013596Y002439D01*
X013553Y002451D01*
X013512Y002467D01*
X013472Y002486D01*
X013434Y002508D01*
X013398Y002534D01*
X013365Y002563D01*
X013334Y002595D01*
X013307Y002630D01*
X013283Y002667D01*
X013262Y002706D01*
X013244Y002746D01*
X013231Y002788D01*
X013221Y002831D01*
X013215Y002875D01*
X013213Y002919D01*
X009463Y006769D02*
X009465Y006813D01*
X009471Y006857D01*
X009481Y006900D01*
X009494Y006942D01*
X009512Y006982D01*
X009533Y007021D01*
X009557Y007058D01*
X009584Y007093D01*
X009615Y007125D01*
X009648Y007154D01*
X009684Y007180D01*
X009722Y007202D01*
X009762Y007221D01*
X009803Y007237D01*
X009846Y007249D01*
X009889Y007257D01*
X009933Y007261D01*
X009977Y007261D01*
X010021Y007257D01*
X010064Y007249D01*
X010107Y007237D01*
X010148Y007221D01*
X010188Y007202D01*
X010226Y007180D01*
X010262Y007154D01*
X010295Y007125D01*
X010326Y007093D01*
X010353Y007058D01*
X010377Y007021D01*
X010398Y006982D01*
X010416Y006942D01*
X010429Y006900D01*
X010439Y006857D01*
X010445Y006813D01*
X010447Y006769D01*
X010445Y006725D01*
X010439Y006681D01*
X010429Y006638D01*
X010416Y006596D01*
X010398Y006556D01*
X010377Y006517D01*
X010353Y006480D01*
X010326Y006445D01*
X010295Y006413D01*
X010262Y006384D01*
X010226Y006358D01*
X010188Y006336D01*
X010148Y006317D01*
X010107Y006301D01*
X010064Y006289D01*
X010021Y006281D01*
X009977Y006277D01*
X009933Y006277D01*
X009889Y006281D01*
X009846Y006289D01*
X009803Y006301D01*
X009762Y006317D01*
X009722Y006336D01*
X009684Y006358D01*
X009648Y006384D01*
X009615Y006413D01*
X009584Y006445D01*
X009557Y006480D01*
X009533Y006517D01*
X009512Y006556D01*
X009494Y006596D01*
X009481Y006638D01*
X009471Y006681D01*
X009465Y006725D01*
X009463Y006769D01*
X005343Y002919D02*
X005345Y002963D01*
X005351Y003007D01*
X005361Y003050D01*
X005374Y003092D01*
X005392Y003132D01*
X005413Y003171D01*
X005437Y003208D01*
X005464Y003243D01*
X005495Y003275D01*
X005528Y003304D01*
X005564Y003330D01*
X005602Y003352D01*
X005642Y003371D01*
X005683Y003387D01*
X005726Y003399D01*
X005769Y003407D01*
X005813Y003411D01*
X005857Y003411D01*
X005901Y003407D01*
X005944Y003399D01*
X005987Y003387D01*
X006028Y003371D01*
X006068Y003352D01*
X006106Y003330D01*
X006142Y003304D01*
X006175Y003275D01*
X006206Y003243D01*
X006233Y003208D01*
X006257Y003171D01*
X006278Y003132D01*
X006296Y003092D01*
X006309Y003050D01*
X006319Y003007D01*
X006325Y002963D01*
X006327Y002919D01*
X006325Y002875D01*
X006319Y002831D01*
X006309Y002788D01*
X006296Y002746D01*
X006278Y002706D01*
X006257Y002667D01*
X006233Y002630D01*
X006206Y002595D01*
X006175Y002563D01*
X006142Y002534D01*
X006106Y002508D01*
X006068Y002486D01*
X006028Y002467D01*
X005987Y002451D01*
X005944Y002439D01*
X005901Y002431D01*
X005857Y002427D01*
X005813Y002427D01*
X005769Y002431D01*
X005726Y002439D01*
X005683Y002451D01*
X005642Y002467D01*
X005602Y002486D01*
X005564Y002508D01*
X005528Y002534D01*
X005495Y002563D01*
X005464Y002595D01*
X005437Y002630D01*
X005413Y002667D01*
X005392Y002706D01*
X005374Y002746D01*
X005361Y002788D01*
X005351Y002831D01*
X005345Y002875D01*
X005343Y002919D01*
X001867Y002134D02*
X001869Y002184D01*
X001875Y002234D01*
X001885Y002283D01*
X001899Y002331D01*
X001916Y002378D01*
X001937Y002423D01*
X001962Y002467D01*
X001990Y002508D01*
X002022Y002547D01*
X002056Y002584D01*
X002093Y002618D01*
X002133Y002648D01*
X002175Y002675D01*
X002219Y002699D01*
X002265Y002720D01*
X002312Y002736D01*
X002360Y002749D01*
X002410Y002758D01*
X002459Y002763D01*
X002510Y002764D01*
X002560Y002761D01*
X002609Y002754D01*
X002658Y002743D01*
X002706Y002728D01*
X002752Y002710D01*
X002797Y002688D01*
X002840Y002662D01*
X002881Y002633D01*
X002920Y002601D01*
X002956Y002566D01*
X002988Y002528D01*
X003018Y002488D01*
X003045Y002445D01*
X003068Y002401D01*
X003087Y002355D01*
X003103Y002307D01*
X003115Y002258D01*
X003123Y002209D01*
X003127Y002159D01*
X003127Y002109D01*
X003123Y002059D01*
X003115Y002010D01*
X003103Y001961D01*
X003087Y001913D01*
X003068Y001867D01*
X003045Y001823D01*
X003018Y001780D01*
X002988Y001740D01*
X002956Y001702D01*
X002920Y001667D01*
X002881Y001635D01*
X002840Y001606D01*
X002797Y001580D01*
X002752Y001558D01*
X002706Y001540D01*
X002658Y001525D01*
X002609Y001514D01*
X002560Y001507D01*
X002510Y001504D01*
X002459Y001505D01*
X002410Y001510D01*
X002360Y001519D01*
X002312Y001532D01*
X002265Y001548D01*
X002219Y001569D01*
X002175Y001593D01*
X002133Y001620D01*
X002093Y001650D01*
X002056Y001684D01*
X002022Y001721D01*
X001990Y001760D01*
X001962Y001801D01*
X001937Y001845D01*
X001916Y001890D01*
X001899Y001937D01*
X001885Y001985D01*
X001875Y002034D01*
X001869Y002084D01*
X001867Y002134D01*
X001015Y001769D02*
X001036Y001698D01*
X001061Y001628D01*
X001089Y001560D01*
X001121Y001493D01*
X001157Y001428D01*
X001195Y001365D01*
X001237Y001304D01*
X001281Y001245D01*
X001329Y001188D01*
X001380Y001134D01*
X001433Y001082D01*
X001488Y001033D01*
X001547Y000987D01*
X001607Y000944D01*
X001669Y000905D01*
X001734Y000868D01*
X001800Y000835D01*
X001868Y000805D01*
X001937Y000779D01*
X002007Y000756D01*
X002079Y000737D01*
X002151Y000721D01*
X002224Y000709D01*
X001533Y006859D02*
X001535Y006903D01*
X001541Y006947D01*
X001551Y006990D01*
X001564Y007032D01*
X001582Y007072D01*
X001603Y007111D01*
X001627Y007148D01*
X001654Y007183D01*
X001685Y007215D01*
X001718Y007244D01*
X001754Y007270D01*
X001792Y007292D01*
X001832Y007311D01*
X001873Y007327D01*
X001916Y007339D01*
X001959Y007347D01*
X002003Y007351D01*
X002047Y007351D01*
X002091Y007347D01*
X002134Y007339D01*
X002177Y007327D01*
X002218Y007311D01*
X002258Y007292D01*
X002296Y007270D01*
X002332Y007244D01*
X002365Y007215D01*
X002396Y007183D01*
X002423Y007148D01*
X002447Y007111D01*
X002468Y007072D01*
X002486Y007032D01*
X002499Y006990D01*
X002509Y006947D01*
X002515Y006903D01*
X002517Y006859D01*
X002515Y006815D01*
X002509Y006771D01*
X002499Y006728D01*
X002486Y006686D01*
X002468Y006646D01*
X002447Y006607D01*
X002423Y006570D01*
X002396Y006535D01*
X002365Y006503D01*
X002332Y006474D01*
X002296Y006448D01*
X002258Y006426D01*
X002218Y006407D01*
X002177Y006391D01*
X002134Y006379D01*
X002091Y006371D01*
X002047Y006367D01*
X002003Y006367D01*
X001959Y006371D01*
X001916Y006379D01*
X001873Y006391D01*
X001832Y006407D01*
X001792Y006426D01*
X001754Y006448D01*
X001718Y006474D01*
X001685Y006503D01*
X001654Y006535D01*
X001627Y006570D01*
X001603Y006607D01*
X001582Y006646D01*
X001564Y006686D01*
X001551Y006728D01*
X001541Y006771D01*
X001535Y006815D01*
X001533Y006859D01*
X005343Y010789D02*
X005345Y010833D01*
X005351Y010877D01*
X005361Y010920D01*
X005374Y010962D01*
X005392Y011002D01*
X005413Y011041D01*
X005437Y011078D01*
X005464Y011113D01*
X005495Y011145D01*
X005528Y011174D01*
X005564Y011200D01*
X005602Y011222D01*
X005642Y011241D01*
X005683Y011257D01*
X005726Y011269D01*
X005769Y011277D01*
X005813Y011281D01*
X005857Y011281D01*
X005901Y011277D01*
X005944Y011269D01*
X005987Y011257D01*
X006028Y011241D01*
X006068Y011222D01*
X006106Y011200D01*
X006142Y011174D01*
X006175Y011145D01*
X006206Y011113D01*
X006233Y011078D01*
X006257Y011041D01*
X006278Y011002D01*
X006296Y010962D01*
X006309Y010920D01*
X006319Y010877D01*
X006325Y010833D01*
X006327Y010789D01*
X006325Y010745D01*
X006319Y010701D01*
X006309Y010658D01*
X006296Y010616D01*
X006278Y010576D01*
X006257Y010537D01*
X006233Y010500D01*
X006206Y010465D01*
X006175Y010433D01*
X006142Y010404D01*
X006106Y010378D01*
X006068Y010356D01*
X006028Y010337D01*
X005987Y010321D01*
X005944Y010309D01*
X005901Y010301D01*
X005857Y010297D01*
X005813Y010297D01*
X005769Y010301D01*
X005726Y010309D01*
X005683Y010321D01*
X005642Y010337D01*
X005602Y010356D01*
X005564Y010378D01*
X005528Y010404D01*
X005495Y010433D01*
X005464Y010465D01*
X005437Y010500D01*
X005413Y010537D01*
X005392Y010576D01*
X005374Y010616D01*
X005361Y010658D01*
X005351Y010701D01*
X005345Y010745D01*
X005343Y010789D01*
X013213Y010809D02*
X013215Y010853D01*
X013221Y010897D01*
X013231Y010940D01*
X013244Y010982D01*
X013262Y011022D01*
X013283Y011061D01*
X013307Y011098D01*
X013334Y011133D01*
X013365Y011165D01*
X013398Y011194D01*
X013434Y011220D01*
X013472Y011242D01*
X013512Y011261D01*
X013553Y011277D01*
X013596Y011289D01*
X013639Y011297D01*
X013683Y011301D01*
X013727Y011301D01*
X013771Y011297D01*
X013814Y011289D01*
X013857Y011277D01*
X013898Y011261D01*
X013938Y011242D01*
X013976Y011220D01*
X014012Y011194D01*
X014045Y011165D01*
X014076Y011133D01*
X014103Y011098D01*
X014127Y011061D01*
X014148Y011022D01*
X014166Y010982D01*
X014179Y010940D01*
X014189Y010897D01*
X014195Y010853D01*
X014197Y010809D01*
X014195Y010765D01*
X014189Y010721D01*
X014179Y010678D01*
X014166Y010636D01*
X014148Y010596D01*
X014127Y010557D01*
X014103Y010520D01*
X014076Y010485D01*
X014045Y010453D01*
X014012Y010424D01*
X013976Y010398D01*
X013938Y010376D01*
X013898Y010357D01*
X013857Y010341D01*
X013814Y010329D01*
X013771Y010321D01*
X013727Y010317D01*
X013683Y010317D01*
X013639Y010321D01*
X013596Y010329D01*
X013553Y010341D01*
X013512Y010357D01*
X013472Y010376D01*
X013434Y010398D01*
X013398Y010424D01*
X013365Y010453D01*
X013334Y010485D01*
X013307Y010520D01*
X013283Y010557D01*
X013262Y010596D01*
X013244Y010636D01*
X013231Y010678D01*
X013221Y010721D01*
X013215Y010765D01*
X013213Y010809D01*
X017153Y006859D02*
X017155Y006903D01*
X017161Y006947D01*
X017171Y006990D01*
X017184Y007032D01*
X017202Y007072D01*
X017223Y007111D01*
X017247Y007148D01*
X017274Y007183D01*
X017305Y007215D01*
X017338Y007244D01*
X017374Y007270D01*
X017412Y007292D01*
X017452Y007311D01*
X017493Y007327D01*
X017536Y007339D01*
X017579Y007347D01*
X017623Y007351D01*
X017667Y007351D01*
X017711Y007347D01*
X017754Y007339D01*
X017797Y007327D01*
X017838Y007311D01*
X017878Y007292D01*
X017916Y007270D01*
X017952Y007244D01*
X017985Y007215D01*
X018016Y007183D01*
X018043Y007148D01*
X018067Y007111D01*
X018088Y007072D01*
X018106Y007032D01*
X018119Y006990D01*
X018129Y006947D01*
X018135Y006903D01*
X018137Y006859D01*
X018135Y006815D01*
X018129Y006771D01*
X018119Y006728D01*
X018106Y006686D01*
X018088Y006646D01*
X018067Y006607D01*
X018043Y006570D01*
X018016Y006535D01*
X017985Y006503D01*
X017952Y006474D01*
X017916Y006448D01*
X017878Y006426D01*
X017838Y006407D01*
X017797Y006391D01*
X017754Y006379D01*
X017711Y006371D01*
X017667Y006367D01*
X017623Y006367D01*
X017579Y006371D01*
X017536Y006379D01*
X017493Y006391D01*
X017452Y006407D01*
X017412Y006426D01*
X017374Y006448D01*
X017338Y006474D01*
X017305Y006503D01*
X017274Y006535D01*
X017247Y006570D01*
X017223Y006607D01*
X017202Y006646D01*
X017184Y006686D01*
X017171Y006728D01*
X017161Y006771D01*
X017155Y006815D01*
X017153Y006859D01*
X019295Y014669D02*
X019115Y015689D01*
X019265Y019189D02*
X019295Y019279D01*
X017357Y023787D02*
X017359Y023837D01*
X017365Y023887D01*
X017375Y023936D01*
X017389Y023984D01*
X017406Y024031D01*
X017427Y024076D01*
X017452Y024120D01*
X017480Y024161D01*
X017512Y024200D01*
X017546Y024237D01*
X017583Y024271D01*
X017623Y024301D01*
X017665Y024328D01*
X017709Y024352D01*
X017755Y024373D01*
X017802Y024389D01*
X017850Y024402D01*
X017900Y024411D01*
X017949Y024416D01*
X018000Y024417D01*
X018050Y024414D01*
X018099Y024407D01*
X018148Y024396D01*
X018196Y024381D01*
X018242Y024363D01*
X018287Y024341D01*
X018330Y024315D01*
X018371Y024286D01*
X018410Y024254D01*
X018446Y024219D01*
X018478Y024181D01*
X018508Y024141D01*
X018535Y024098D01*
X018558Y024054D01*
X018577Y024008D01*
X018593Y023960D01*
X018605Y023911D01*
X018613Y023862D01*
X018617Y023812D01*
X018617Y023762D01*
X018613Y023712D01*
X018605Y023663D01*
X018593Y023614D01*
X018577Y023566D01*
X018558Y023520D01*
X018535Y023476D01*
X018508Y023433D01*
X018478Y023393D01*
X018446Y023355D01*
X018410Y023320D01*
X018371Y023288D01*
X018330Y023259D01*
X018287Y023233D01*
X018242Y023211D01*
X018196Y023193D01*
X018148Y023178D01*
X018099Y023167D01*
X018050Y023160D01*
X018000Y023157D01*
X017949Y023158D01*
X017900Y023163D01*
X017850Y023172D01*
X017802Y023185D01*
X017755Y023201D01*
X017709Y023222D01*
X017665Y023246D01*
X017623Y023273D01*
X017583Y023303D01*
X017546Y023337D01*
X017512Y023374D01*
X017480Y023413D01*
X017452Y023454D01*
X017427Y023498D01*
X017406Y023543D01*
X017389Y023590D01*
X017375Y023638D01*
X017365Y023687D01*
X017359Y023737D01*
X017357Y023787D01*
X001867Y023787D02*
X001869Y023837D01*
X001875Y023887D01*
X001885Y023936D01*
X001899Y023984D01*
X001916Y024031D01*
X001937Y024076D01*
X001962Y024120D01*
X001990Y024161D01*
X002022Y024200D01*
X002056Y024237D01*
X002093Y024271D01*
X002133Y024301D01*
X002175Y024328D01*
X002219Y024352D01*
X002265Y024373D01*
X002312Y024389D01*
X002360Y024402D01*
X002410Y024411D01*
X002459Y024416D01*
X002510Y024417D01*
X002560Y024414D01*
X002609Y024407D01*
X002658Y024396D01*
X002706Y024381D01*
X002752Y024363D01*
X002797Y024341D01*
X002840Y024315D01*
X002881Y024286D01*
X002920Y024254D01*
X002956Y024219D01*
X002988Y024181D01*
X003018Y024141D01*
X003045Y024098D01*
X003068Y024054D01*
X003087Y024008D01*
X003103Y023960D01*
X003115Y023911D01*
X003123Y023862D01*
X003127Y023812D01*
X003127Y023762D01*
X003123Y023712D01*
X003115Y023663D01*
X003103Y023614D01*
X003087Y023566D01*
X003068Y023520D01*
X003045Y023476D01*
X003018Y023433D01*
X002988Y023393D01*
X002956Y023355D01*
X002920Y023320D01*
X002881Y023288D01*
X002840Y023259D01*
X002797Y023233D01*
X002752Y023211D01*
X002706Y023193D01*
X002658Y023178D01*
X002609Y023167D01*
X002560Y023160D01*
X002510Y023157D01*
X002459Y023158D01*
X002410Y023163D01*
X002360Y023172D01*
X002312Y023185D01*
X002265Y023201D01*
X002219Y023222D01*
X002175Y023246D01*
X002133Y023273D01*
X002093Y023303D01*
X002056Y023337D01*
X002022Y023374D01*
X001990Y023413D01*
X001962Y023454D01*
X001937Y023498D01*
X001916Y023543D01*
X001899Y023590D01*
X001885Y023638D01*
X001875Y023687D01*
X001869Y023737D01*
X001867Y023787D01*
X001005Y024119D02*
X001017Y024192D01*
X001033Y024264D01*
X001052Y024336D01*
X001075Y024406D01*
X001101Y024475D01*
X001131Y024543D01*
X001164Y024609D01*
X001201Y024674D01*
X001240Y024736D01*
X001283Y024796D01*
X001329Y024855D01*
X001378Y024910D01*
X001430Y024963D01*
X001484Y025014D01*
X001541Y025062D01*
X001600Y025106D01*
X001661Y025148D01*
X001724Y025186D01*
X001789Y025222D01*
X001856Y025254D01*
X001924Y025282D01*
X001994Y025307D01*
X002065Y025328D01*
D12*
X008151Y001337D03*
D13*
X007151Y001337D03*
X006151Y001337D03*
X005151Y001337D03*
X004151Y001337D03*
X003901Y013498D03*
X003901Y014498D03*
X003901Y015498D03*
X003901Y016498D03*
X003901Y017498D03*
X003901Y018498D03*
X003901Y019498D03*
X003901Y020498D03*
X003901Y021498D03*
X015639Y021567D03*
X015639Y022567D03*
X015639Y020567D03*
X015639Y019567D03*
X015639Y018567D03*
X015639Y017567D03*
X015639Y016567D03*
X015639Y015567D03*
X015639Y014567D03*
D14*
X018595Y010381D03*
X018595Y009594D03*
X018595Y008806D03*
D15*
X018789Y019706D02*
X018289Y019706D01*
X016939Y019706D02*
X016439Y019706D01*
X016439Y022706D02*
X016939Y022706D01*
X018289Y022706D02*
X018789Y022706D01*
D16*
X018198Y018274D03*
X018198Y015374D03*
X018391Y012125D03*
X002027Y014604D03*
D17*
X002027Y013817D03*
X002027Y013030D03*
X002027Y012242D03*
X016029Y012125D03*
X016816Y012125D03*
X017603Y012125D03*
X017411Y015374D03*
X017411Y018274D03*
D18*
X014046Y020591D03*
D19*
X014046Y019804D03*
X014046Y019016D03*
X014046Y018229D03*
X014046Y017441D03*
X014046Y016654D03*
X014046Y015867D03*
X014046Y015079D03*
X014046Y014292D03*
X014046Y013504D03*
X005385Y013504D03*
X005385Y014292D03*
X005385Y015079D03*
X005385Y015867D03*
X005385Y016654D03*
X005385Y017441D03*
X005385Y018229D03*
X005385Y019016D03*
X005385Y019804D03*
X005385Y020591D03*
D20*
X003901Y022498D03*
X015639Y013567D03*
D21*
X016133Y012629D02*
X016605Y013100D01*
X016605Y016279D01*
X016805Y016479D01*
X014046Y018229D02*
X013405Y018229D01*
X011105Y015929D01*
X011105Y007829D01*
X011805Y006079D02*
X011155Y005429D01*
X008755Y005429D01*
X008605Y005279D01*
X008605Y003359D01*
X008151Y002905D01*
X008151Y001337D01*
X006151Y001337D02*
X008305Y003491D01*
X008305Y014079D01*
X006831Y015553D01*
X006831Y020327D01*
X010032Y023529D01*
X011455Y023529D01*
X010205Y024029D02*
X010088Y024029D01*
X006515Y020456D01*
X006515Y015419D01*
X008005Y013929D01*
X008005Y003779D01*
X006155Y001929D01*
X005743Y001929D01*
X005151Y001337D01*
X008605Y005279D02*
X008605Y005429D01*
X008755Y005429D01*
X008605Y005579D01*
X008605Y014229D01*
X007135Y015699D01*
X007135Y020159D01*
X008805Y021829D01*
X006205Y019771D02*
X005385Y020591D01*
X005385Y019804D02*
X005905Y019284D01*
X005905Y015129D01*
X006555Y014479D01*
X006555Y008879D01*
X006905Y009279D02*
X006905Y014579D01*
X006205Y015279D01*
X006205Y019771D01*
X008105Y018879D02*
X008105Y018060D01*
X008193Y017971D01*
X008245Y017846D01*
X008245Y017711D01*
X008193Y017586D01*
X008135Y017529D01*
X008193Y017471D01*
X008245Y017346D01*
X008245Y017211D01*
X008193Y017086D01*
X008105Y016998D01*
X008105Y016579D01*
X010029Y016579D01*
X010155Y016704D01*
X010155Y018879D01*
X008105Y018879D01*
X008105Y018806D02*
X010155Y018806D01*
X010155Y018648D02*
X008105Y018648D01*
X008105Y018489D02*
X010155Y018489D01*
X010155Y018331D02*
X008105Y018331D01*
X008105Y018172D02*
X010155Y018172D01*
X010155Y018014D02*
X008150Y018014D01*
X008241Y017855D02*
X010155Y017855D01*
X010155Y017697D02*
X008239Y017697D01*
X008145Y017538D02*
X010155Y017538D01*
X010155Y017380D02*
X008231Y017380D01*
X008245Y017221D02*
X010155Y017221D01*
X010155Y017063D02*
X008169Y017063D01*
X008105Y016904D02*
X010155Y016904D01*
X010155Y016746D02*
X008105Y016746D01*
X008105Y016587D02*
X010038Y016587D01*
X012205Y012629D02*
X011805Y012229D01*
X011805Y006079D01*
X008605Y005579D02*
X008605Y005429D01*
X012205Y012629D02*
X016133Y012629D01*
X015220Y023568D02*
X015220Y024246D01*
X015037Y024429D01*
X007805Y024429D01*
X003901Y020498D02*
X002855Y019452D01*
X002855Y014429D01*
X002243Y013817D01*
X002027Y013817D01*
D22*
X006905Y009279D03*
X006555Y008879D03*
X009605Y011679D03*
X007405Y013679D03*
X008116Y015385D03*
X008005Y016079D03*
X008905Y016029D03*
X009405Y016029D03*
X009155Y017229D03*
X009155Y017779D03*
X009905Y017779D03*
X009905Y017229D03*
X008405Y017279D03*
X008405Y017779D03*
X007905Y017779D03*
X007905Y017279D03*
X007505Y019479D03*
X008805Y021129D03*
X008805Y021829D03*
X009605Y021129D03*
X009555Y019492D03*
X010855Y019129D03*
X011455Y020779D03*
X012455Y020779D03*
X013105Y018679D03*
X013505Y017729D03*
X011955Y015429D03*
X010205Y014579D03*
X012555Y011479D03*
X012555Y008379D03*
X011105Y007829D03*
X010205Y008379D03*
X016805Y016479D03*
X017239Y022035D03*
X015220Y023568D03*
X014758Y023579D03*
X014305Y023579D03*
X013755Y022979D03*
X013205Y022979D03*
X013105Y023979D03*
X011455Y023529D03*
X010205Y024029D03*
X008405Y023879D03*
X007805Y024429D03*
X007055Y023879D03*
X007805Y022479D03*
X006255Y021778D03*
X004805Y021729D03*
X014877Y022626D03*
D23*
X014877Y022665D01*
X015507Y023295D01*
X017121Y023295D01*
X017515Y022902D01*
X017515Y022311D01*
X017239Y022035D01*
X018198Y018274D02*
X018205Y018268D01*
X018205Y017979D01*
X017705Y017479D01*
X016605Y017479D01*
X016205Y017079D01*
X016205Y013279D01*
X015905Y012979D01*
X013705Y012979D01*
X013305Y013379D01*
X013305Y016329D01*
X011955Y016179D02*
X011955Y015429D01*
X011955Y016179D02*
X013505Y017729D01*
X012455Y017879D02*
X012455Y020779D01*
X011455Y020779D02*
X011455Y022737D01*
X012697Y023979D01*
X013105Y023979D01*
X009555Y019492D02*
X008118Y019492D01*
X007500Y018874D01*
X007500Y015884D01*
X007999Y015385D01*
X008116Y015385D01*
X007405Y013679D02*
X007405Y006129D01*
X004151Y002875D01*
X004151Y001337D01*
X010205Y008379D02*
X010205Y014579D01*
X010205Y015629D01*
X012455Y017879D01*
X007805Y022479D02*
X007104Y021778D01*
X006255Y021778D01*
X012555Y011479D02*
X012555Y008379D01*
D24*
X013305Y016329D03*
D25*
X017239Y021524D03*
X017909Y021524D03*
M02*
