G75*
G70*
%OFA0B0*%
%FSLAX24Y24*%
%IPPOS*%
%LPD*%
%AMOC8*
5,1,8,0,0,1.08239X$1,22.5*
%
%ADD10C,0.1300*%
%ADD11C,0.1024*%
%ADD12R,0.0440X0.0490*%
%ADD13R,0.0690X0.0690*%
%ADD14C,0.0690*%
%ADD15R,0.0290X0.0540*%
%ADD16R,0.1290X0.1040*%
%ADD17C,0.0110*%
%ADD18R,0.0640X0.0840*%
%ADD19R,0.0840X0.0640*%
%ADD20C,0.0098*%
%ADD21R,0.0490X0.0940*%
%ADD22C,0.0085*%
%ADD23C,0.0634*%
%ADD24R,0.0540X0.0540*%
%ADD25C,0.0540*%
%ADD26R,0.0840X0.0200*%
%ADD27R,0.0257X0.0512*%
%ADD28R,0.0197X0.0631*%
%ADD29R,0.0490X0.0440*%
%ADD30R,0.0640X0.0440*%
%ADD31R,0.0555X0.0555*%
%ADD32C,0.0555*%
%ADD33R,0.0560X0.0560*%
%ADD34C,0.0560*%
%ADD35OC8,0.0690*%
%ADD36C,0.0500*%
%ADD37C,0.0360*%
%ADD38C,0.0396*%
%ADD39C,0.0290*%
D10*
X002497Y002134D03*
X017987Y002134D03*
X017987Y023787D03*
X002497Y023787D03*
D11*
X005835Y010789D03*
X002025Y006859D03*
X005835Y002919D03*
X009955Y006769D03*
X013705Y002919D03*
X017645Y006859D03*
X013705Y010809D03*
D12*
X009201Y012941D03*
X008501Y012941D03*
X008851Y012141D03*
X007626Y012909D03*
X006926Y012909D03*
X007276Y012109D03*
D13*
X008151Y001337D03*
D14*
X007151Y001337D03*
X006151Y001337D03*
X005151Y001337D03*
X004151Y001337D03*
X003901Y013498D03*
X003901Y014498D03*
X003901Y015498D03*
X003901Y016498D03*
X003901Y017498D03*
X003901Y018498D03*
X003901Y019498D03*
X003901Y020498D03*
X003901Y021498D03*
X015639Y021567D03*
X015639Y022567D03*
X015639Y020567D03*
X015639Y019567D03*
X015639Y018567D03*
X015639Y017567D03*
X015639Y016567D03*
X015639Y015567D03*
X015639Y014567D03*
D15*
X009910Y016496D03*
X009410Y016496D03*
X008910Y016496D03*
X008410Y016496D03*
X008410Y018596D03*
X008910Y018596D03*
X009410Y018596D03*
X009910Y018596D03*
D16*
X009160Y017546D03*
D17*
X007506Y017367D02*
X007506Y017037D01*
X007026Y017037D01*
X007026Y017367D01*
X007506Y017367D01*
X007506Y017146D02*
X007026Y017146D01*
X007026Y017255D02*
X007506Y017255D01*
X007506Y017364D02*
X007026Y017364D01*
X007506Y016667D02*
X007506Y016337D01*
X007026Y016337D01*
X007026Y016667D01*
X007506Y016667D01*
X007506Y016446D02*
X007026Y016446D01*
X007026Y016555D02*
X007506Y016555D01*
X007506Y016664D02*
X007026Y016664D01*
X011823Y014413D02*
X012153Y014413D01*
X011823Y014413D02*
X011823Y014893D01*
X012153Y014893D01*
X012153Y014413D01*
X012153Y014522D02*
X011823Y014522D01*
X011823Y014631D02*
X012153Y014631D01*
X012153Y014740D02*
X011823Y014740D01*
X011823Y014849D02*
X012153Y014849D01*
X012523Y014413D02*
X012853Y014413D01*
X012523Y014413D02*
X012523Y014893D01*
X012853Y014893D01*
X012853Y014413D01*
X012853Y014522D02*
X012523Y014522D01*
X012523Y014631D02*
X012853Y014631D01*
X012853Y014740D02*
X012523Y014740D01*
X012523Y014849D02*
X012853Y014849D01*
X012847Y013166D02*
X012847Y012836D01*
X012367Y012836D01*
X012367Y013166D01*
X012847Y013166D01*
X012847Y012945D02*
X012367Y012945D01*
X012367Y013054D02*
X012847Y013054D01*
X012847Y013163D02*
X012367Y013163D01*
X012847Y012466D02*
X012847Y012136D01*
X012367Y012136D01*
X012367Y012466D01*
X012847Y012466D01*
X012847Y012245D02*
X012367Y012245D01*
X012367Y012354D02*
X012847Y012354D01*
X012847Y012463D02*
X012367Y012463D01*
D18*
X012581Y015633D03*
X012628Y017238D03*
X010928Y017238D03*
X010881Y015633D03*
D19*
X011453Y020221D03*
X012750Y020220D03*
X012750Y021920D03*
X011453Y021921D03*
D20*
X013527Y023761D02*
X013527Y024053D01*
X013819Y024053D01*
X013819Y023761D01*
X013527Y023761D01*
X013527Y023858D02*
X013819Y023858D01*
X013819Y023955D02*
X013527Y023955D01*
X013527Y024052D02*
X013819Y024052D01*
X013527Y024361D02*
X013527Y024653D01*
X013819Y024653D01*
X013819Y024361D01*
X013527Y024361D01*
X013527Y024458D02*
X013819Y024458D01*
X013819Y024555D02*
X013527Y024555D01*
X013527Y024652D02*
X013819Y024652D01*
X015927Y024660D02*
X015927Y024368D01*
X015485Y024368D01*
X015485Y024660D01*
X015927Y024660D01*
X015927Y024465D02*
X015485Y024465D01*
X015485Y024562D02*
X015927Y024562D01*
X015927Y024659D02*
X015485Y024659D01*
X015927Y023960D02*
X015927Y023668D01*
X015485Y023668D01*
X015485Y023960D01*
X015927Y023960D01*
X015927Y023765D02*
X015485Y023765D01*
X015485Y023862D02*
X015927Y023862D01*
X015927Y023959D02*
X015485Y023959D01*
X016612Y024077D02*
X016612Y023785D01*
X016320Y023785D01*
X016320Y024077D01*
X016612Y024077D01*
X016612Y023882D02*
X016320Y023882D01*
X016320Y023979D02*
X016612Y023979D01*
X016612Y024076D02*
X016320Y024076D01*
X016612Y024385D02*
X016612Y024677D01*
X016612Y024385D02*
X016320Y024385D01*
X016320Y024677D01*
X016612Y024677D01*
X016612Y024482D02*
X016320Y024482D01*
X016320Y024579D02*
X016612Y024579D01*
X016612Y024676D02*
X016320Y024676D01*
X011319Y024796D02*
X011319Y024504D01*
X011319Y024796D02*
X011611Y024796D01*
X011611Y024504D01*
X011319Y024504D01*
X011319Y024601D02*
X011611Y024601D01*
X011611Y024698D02*
X011319Y024698D01*
X011319Y024795D02*
X011611Y024795D01*
X011319Y024196D02*
X011319Y023904D01*
X011319Y024196D02*
X011611Y024196D01*
X011611Y023904D01*
X011319Y023904D01*
X011319Y024001D02*
X011611Y024001D01*
X011611Y024098D02*
X011319Y024098D01*
X011319Y024195D02*
X011611Y024195D01*
X010497Y024172D02*
X010497Y023880D01*
X010497Y024172D02*
X010789Y024172D01*
X010789Y023880D01*
X010497Y023880D01*
X010497Y023977D02*
X010789Y023977D01*
X010789Y024074D02*
X010497Y024074D01*
X010497Y024171D02*
X010789Y024171D01*
X010497Y024480D02*
X010497Y024772D01*
X010789Y024772D01*
X010789Y024480D01*
X010497Y024480D01*
X010497Y024577D02*
X010789Y024577D01*
X010789Y024674D02*
X010497Y024674D01*
X010497Y024771D02*
X010789Y024771D01*
X005842Y022890D02*
X005842Y022598D01*
X005842Y022890D02*
X006134Y022890D01*
X006134Y022598D01*
X005842Y022598D01*
X005842Y022695D02*
X006134Y022695D01*
X006134Y022792D02*
X005842Y022792D01*
X005842Y022889D02*
X006134Y022889D01*
X005252Y022905D02*
X005252Y022613D01*
X005252Y022905D02*
X005544Y022905D01*
X005544Y022613D01*
X005252Y022613D01*
X005252Y022710D02*
X005544Y022710D01*
X005544Y022807D02*
X005252Y022807D01*
X005252Y022904D02*
X005544Y022904D01*
X005252Y022305D02*
X005252Y022013D01*
X005252Y022305D02*
X005544Y022305D01*
X005544Y022013D01*
X005252Y022013D01*
X005252Y022110D02*
X005544Y022110D01*
X005544Y022207D02*
X005252Y022207D01*
X005252Y022304D02*
X005544Y022304D01*
X005842Y022290D02*
X005842Y021998D01*
X005842Y022290D02*
X006134Y022290D01*
X006134Y021998D01*
X005842Y021998D01*
X005842Y022095D02*
X006134Y022095D01*
X006134Y022192D02*
X005842Y022192D01*
X005842Y022289D02*
X006134Y022289D01*
X004848Y022285D02*
X004848Y021993D01*
X004556Y021993D01*
X004556Y022285D01*
X004848Y022285D01*
X004848Y022090D02*
X004556Y022090D01*
X004556Y022187D02*
X004848Y022187D01*
X004848Y022284D02*
X004556Y022284D01*
X004848Y022593D02*
X004848Y022885D01*
X004848Y022593D02*
X004556Y022593D01*
X004556Y022885D01*
X004848Y022885D01*
X004848Y022690D02*
X004556Y022690D01*
X004556Y022787D02*
X004848Y022787D01*
X004848Y022884D02*
X004556Y022884D01*
X008332Y019396D02*
X008624Y019396D01*
X008332Y019396D02*
X008332Y019688D01*
X008624Y019688D01*
X008624Y019396D01*
X008624Y019493D02*
X008332Y019493D01*
X008332Y019590D02*
X008624Y019590D01*
X008624Y019687D02*
X008332Y019687D01*
X008932Y019396D02*
X009224Y019396D01*
X008932Y019396D02*
X008932Y019688D01*
X009224Y019688D01*
X009224Y019396D01*
X009224Y019493D02*
X008932Y019493D01*
X008932Y019590D02*
X009224Y019590D01*
X009224Y019687D02*
X008932Y019687D01*
X007537Y018767D02*
X007537Y018475D01*
X007245Y018475D01*
X007245Y018767D01*
X007537Y018767D01*
X007537Y018572D02*
X007245Y018572D01*
X007245Y018669D02*
X007537Y018669D01*
X007537Y018766D02*
X007245Y018766D01*
X007537Y018167D02*
X007537Y017875D01*
X007245Y017875D01*
X007245Y018167D01*
X007537Y018167D01*
X007537Y017972D02*
X007245Y017972D01*
X007245Y018069D02*
X007537Y018069D01*
X007537Y018166D02*
X007245Y018166D01*
X007113Y014189D02*
X006821Y014189D01*
X006821Y014481D01*
X007113Y014481D01*
X007113Y014189D01*
X007113Y014286D02*
X006821Y014286D01*
X006821Y014383D02*
X007113Y014383D01*
X007113Y014480D02*
X006821Y014480D01*
X007421Y014189D02*
X007713Y014189D01*
X007421Y014189D02*
X007421Y014481D01*
X007713Y014481D01*
X007713Y014189D01*
X007713Y014286D02*
X007421Y014286D01*
X007421Y014383D02*
X007713Y014383D01*
X007713Y014480D02*
X007421Y014480D01*
X010100Y012992D02*
X010100Y012700D01*
X010100Y012992D02*
X010392Y012992D01*
X010392Y012700D01*
X010100Y012700D01*
X010100Y012797D02*
X010392Y012797D01*
X010392Y012894D02*
X010100Y012894D01*
X010100Y012991D02*
X010392Y012991D01*
X010100Y012392D02*
X010100Y012100D01*
X010100Y012392D02*
X010392Y012392D01*
X010392Y012100D01*
X010100Y012100D01*
X010100Y012197D02*
X010392Y012197D01*
X010392Y012294D02*
X010100Y012294D01*
X010100Y012391D02*
X010392Y012391D01*
D21*
X011496Y018784D03*
X012646Y018784D03*
D22*
X014174Y023819D02*
X014174Y024075D01*
X014480Y024075D01*
X014480Y023819D01*
X014174Y023819D01*
X014174Y023903D02*
X014480Y023903D01*
X014480Y023987D02*
X014174Y023987D01*
X014174Y024071D02*
X014480Y024071D01*
X014174Y024419D02*
X014174Y024675D01*
X014480Y024675D01*
X014480Y024419D01*
X014174Y024419D01*
X014174Y024503D02*
X014480Y024503D01*
X014480Y024587D02*
X014174Y024587D01*
X014174Y024671D02*
X014480Y024671D01*
X014815Y024674D02*
X014815Y024418D01*
X014815Y024674D02*
X015121Y024674D01*
X015121Y024418D01*
X014815Y024418D01*
X014815Y024502D02*
X015121Y024502D01*
X015121Y024586D02*
X014815Y024586D01*
X014815Y024670D02*
X015121Y024670D01*
X014815Y024074D02*
X014815Y023818D01*
X014815Y024074D02*
X015121Y024074D01*
X015121Y023818D01*
X014815Y023818D01*
X014815Y023902D02*
X015121Y023902D01*
X015121Y023986D02*
X014815Y023986D01*
X014815Y024070D02*
X015121Y024070D01*
X005401Y023989D02*
X005401Y023733D01*
X005095Y023733D01*
X005095Y023989D01*
X005401Y023989D01*
X005401Y023817D02*
X005095Y023817D01*
X005095Y023901D02*
X005401Y023901D01*
X005401Y023985D02*
X005095Y023985D01*
X005401Y024333D02*
X005401Y024589D01*
X005401Y024333D02*
X005095Y024333D01*
X005095Y024589D01*
X005401Y024589D01*
X005401Y024417D02*
X005095Y024417D01*
X005095Y024501D02*
X005401Y024501D01*
X005401Y024585D02*
X005095Y024585D01*
X004704Y024590D02*
X004704Y024334D01*
X004398Y024334D01*
X004398Y024590D01*
X004704Y024590D01*
X004704Y024418D02*
X004398Y024418D01*
X004398Y024502D02*
X004704Y024502D01*
X004704Y024586D02*
X004398Y024586D01*
X003701Y024587D02*
X003701Y024331D01*
X003701Y024587D02*
X004007Y024587D01*
X004007Y024331D01*
X003701Y024331D01*
X003701Y024415D02*
X004007Y024415D01*
X004007Y024499D02*
X003701Y024499D01*
X003701Y024583D02*
X004007Y024583D01*
X003701Y023987D02*
X003701Y023731D01*
X003701Y023987D02*
X004007Y023987D01*
X004007Y023731D01*
X003701Y023731D01*
X003701Y023815D02*
X004007Y023815D01*
X004007Y023899D02*
X003701Y023899D01*
X003701Y023983D02*
X004007Y023983D01*
X004704Y023990D02*
X004704Y023734D01*
X004398Y023734D01*
X004398Y023990D01*
X004704Y023990D01*
X004704Y023818D02*
X004398Y023818D01*
X004398Y023902D02*
X004704Y023902D01*
X004704Y023986D02*
X004398Y023986D01*
D23*
X018595Y010381D03*
X018595Y009594D03*
X018595Y008806D03*
D24*
X012654Y013813D03*
X011654Y013813D03*
D25*
X016439Y019706D02*
X016939Y019706D01*
X018289Y019706D02*
X018789Y019706D01*
X018789Y022706D02*
X018289Y022706D01*
X016939Y022706D02*
X016439Y022706D01*
D26*
X016589Y021826D03*
X016589Y021516D03*
X016589Y021206D03*
X016589Y020896D03*
X016589Y020586D03*
D27*
X011721Y013078D03*
X010973Y013078D03*
X010973Y012054D03*
X011347Y012054D03*
X011721Y012054D03*
D28*
X010358Y020272D03*
X010102Y020272D03*
X009846Y020272D03*
X009590Y020272D03*
X009334Y020272D03*
X009078Y020272D03*
X008823Y020272D03*
X008567Y020272D03*
X008311Y020272D03*
X008055Y020272D03*
X007799Y020272D03*
X007543Y020272D03*
X007287Y020272D03*
X007031Y020272D03*
X007031Y023126D03*
X007287Y023126D03*
X007543Y023126D03*
X007799Y023126D03*
X008055Y023126D03*
X008311Y023126D03*
X008567Y023126D03*
X008823Y023126D03*
X009078Y023126D03*
X009334Y023126D03*
X009590Y023126D03*
X009846Y023126D03*
X010102Y023126D03*
X010358Y023126D03*
D29*
X008604Y014944D03*
X008604Y014244D03*
X009404Y014594D03*
D30*
X009645Y002550D03*
X009645Y001050D03*
X012145Y001050D03*
X012145Y002550D03*
D31*
X018391Y012125D03*
X018198Y015374D03*
X018198Y018274D03*
X002027Y014604D03*
D32*
X002027Y013817D03*
X002027Y013030D03*
X002027Y012242D03*
X016029Y012125D03*
X016816Y012125D03*
X017603Y012125D03*
X017411Y015374D03*
X017411Y018274D03*
D33*
X014046Y020591D03*
D34*
X014046Y019804D03*
X014046Y019016D03*
X014046Y018229D03*
X014046Y017441D03*
X014046Y016654D03*
X014046Y015867D03*
X014046Y015079D03*
X014046Y014292D03*
X014046Y013504D03*
X005385Y013504D03*
X005385Y014292D03*
X005385Y015079D03*
X005385Y015867D03*
X005385Y016654D03*
X005385Y017441D03*
X005385Y018229D03*
X005385Y019016D03*
X005385Y019804D03*
X005385Y020591D03*
D35*
X003901Y022498D03*
X015639Y013567D03*
D36*
X012655Y024579D03*
X003905Y002579D03*
D37*
X006555Y008879D03*
X006905Y009279D03*
X009605Y011679D03*
X007405Y013679D03*
X008116Y015385D03*
X008005Y016079D03*
X008905Y016029D03*
X009405Y016029D03*
X009155Y017229D03*
X009155Y017779D03*
X009905Y017779D03*
X009905Y017229D03*
X008405Y017279D03*
X008405Y017779D03*
X007905Y017779D03*
X007905Y017279D03*
X007505Y019479D03*
X008805Y021129D03*
X008805Y021829D03*
X009605Y021129D03*
X009555Y019492D03*
X010855Y019129D03*
X011455Y020779D03*
X012455Y020779D03*
X013105Y018679D03*
X013505Y017729D03*
X011955Y015429D03*
X010205Y014579D03*
X012555Y011479D03*
X012555Y008379D03*
X011105Y007829D03*
X010205Y008379D03*
X016805Y016479D03*
X017239Y022035D03*
X015220Y023568D03*
X014758Y023579D03*
X014305Y023579D03*
X013755Y022979D03*
X013205Y022979D03*
X013105Y023979D03*
X011455Y023529D03*
X010205Y024029D03*
X008405Y023879D03*
X007805Y024429D03*
X007055Y023879D03*
X007805Y022479D03*
X006255Y021778D03*
X004805Y021729D03*
X014877Y022626D03*
D38*
X013305Y016329D03*
D39*
X017239Y021524D03*
X017909Y021524D03*
M02*
