G75*
G70*
%OFA0B0*%
%FSLAX24Y24*%
%IPPOS*%
%LPD*%
%AMOC8*
5,1,8,0,0,1.08239X$1,22.5*
%
%ADD10C,0.0030*%
%ADD11C,0.0060*%
%ADD12C,0.0050*%
%ADD13C,0.0000*%
%ADD14C,0.0040*%
%ADD15C,0.0080*%
%ADD16C,0.0100*%
D10*
X003757Y001992D02*
X003805Y001944D01*
X003902Y001944D01*
X003950Y001992D01*
X004051Y002040D02*
X004051Y002234D01*
X003950Y002186D02*
X003902Y002234D01*
X003805Y002234D01*
X003757Y002186D01*
X003757Y002137D01*
X003805Y002089D01*
X003757Y002040D01*
X003757Y001992D01*
X003805Y002089D02*
X003854Y002089D01*
X004051Y002040D02*
X004148Y001944D01*
X004245Y002040D01*
X004245Y002234D01*
X004346Y002186D02*
X004346Y002137D01*
X004394Y002089D01*
X004346Y002040D01*
X004346Y001992D01*
X004394Y001944D01*
X004491Y001944D01*
X004540Y001992D01*
X004443Y002089D02*
X004394Y002089D01*
X004346Y002186D02*
X004394Y002234D01*
X004491Y002234D01*
X004540Y002186D01*
X004764Y002224D02*
X004957Y001934D01*
X005059Y001934D02*
X005155Y002030D01*
X005107Y002030D02*
X005252Y002030D01*
X005252Y001934D02*
X005252Y002224D01*
X005107Y002224D01*
X005059Y002176D01*
X005059Y002079D01*
X005107Y002030D01*
X004957Y002224D02*
X004764Y001934D01*
X006351Y001933D02*
X006545Y002223D01*
X006646Y002223D02*
X006840Y002223D01*
X006743Y002223D02*
X006743Y001933D01*
X006932Y001982D02*
X006932Y002176D01*
X006981Y002224D01*
X007126Y002224D01*
X007126Y001934D01*
X006981Y001934D01*
X006932Y001982D01*
X007227Y001934D02*
X007227Y002224D01*
X007421Y002224D02*
X007227Y001934D01*
X007421Y001934D02*
X007421Y002224D01*
X007522Y002176D02*
X007570Y002224D01*
X007667Y002224D01*
X007715Y002176D01*
X007715Y001982D01*
X007667Y001934D01*
X007570Y001934D01*
X007522Y001982D01*
X007522Y002079D01*
X007618Y002079D01*
X007884Y002078D02*
X007932Y002030D01*
X008077Y002030D01*
X007980Y002030D02*
X007884Y001933D01*
X007884Y002078D02*
X007884Y002175D01*
X007932Y002223D01*
X008077Y002223D01*
X008077Y001933D01*
X008275Y001933D02*
X008275Y002223D01*
X008372Y002223D02*
X008178Y002223D01*
X008473Y002175D02*
X008473Y001981D01*
X008521Y001933D01*
X008666Y001933D01*
X008666Y002223D01*
X008521Y002223D01*
X008473Y002175D01*
X009020Y001556D02*
X008826Y001363D01*
X008778Y001363D01*
X008826Y001213D02*
X009068Y001213D01*
X009068Y001165D02*
X009068Y001262D01*
X009068Y001363D02*
X009068Y001556D01*
X009020Y001556D01*
X008826Y001213D02*
X008778Y001165D01*
X008778Y001117D01*
X008826Y001068D01*
X006545Y001933D02*
X006351Y002223D01*
X012400Y001602D02*
X012594Y001602D01*
X012497Y001602D02*
X012497Y001893D01*
X012594Y001796D01*
X012695Y001893D02*
X012888Y001699D01*
X012840Y001748D02*
X012695Y001602D01*
X012888Y001602D02*
X012888Y001893D01*
X018673Y006909D02*
X018673Y007199D01*
X018866Y007199D02*
X018866Y006909D01*
X018769Y007006D01*
X018673Y006909D01*
X018967Y006957D02*
X019016Y006909D01*
X019113Y006909D01*
X019161Y006957D01*
X019113Y007054D02*
X019016Y007054D01*
X018967Y007006D01*
X018967Y006957D01*
X019113Y007054D02*
X019161Y007103D01*
X019161Y007151D01*
X019113Y007199D01*
X019016Y007199D01*
X018967Y007151D01*
X018028Y008144D02*
X017781Y008144D01*
X017720Y008205D01*
X017720Y008329D01*
X017781Y008391D01*
X018028Y008391D01*
X018090Y008329D01*
X018090Y008205D01*
X018028Y008144D01*
X018090Y008512D02*
X017720Y008512D01*
X017720Y008759D02*
X018090Y008759D01*
X018090Y008512D02*
X017720Y008759D01*
X017781Y009544D02*
X017720Y009605D01*
X017720Y009729D01*
X017781Y009791D01*
X018028Y009791D01*
X018090Y009729D01*
X018090Y009605D01*
X018028Y009544D01*
X017781Y009544D01*
X017720Y009912D02*
X018090Y009912D01*
X018090Y010159D01*
X018090Y010280D02*
X017720Y010280D01*
X017905Y010280D02*
X017905Y010404D01*
X018090Y010280D02*
X018090Y010527D01*
X017905Y010035D02*
X017905Y009912D01*
X015090Y011708D02*
X015041Y011660D01*
X014848Y011660D01*
X014800Y011708D01*
X014800Y011805D01*
X014848Y011853D01*
X014945Y011853D01*
X014945Y011757D01*
X015041Y011853D02*
X015090Y011805D01*
X015090Y011708D01*
X015090Y011954D02*
X014800Y011954D01*
X014800Y012148D02*
X015090Y012148D01*
X015090Y012249D02*
X015090Y012394D01*
X015041Y012443D01*
X014848Y012443D01*
X014800Y012394D01*
X014800Y012249D01*
X015090Y012249D01*
X015090Y011954D02*
X014800Y012148D01*
X016291Y013172D02*
X016339Y013124D01*
X016436Y013124D01*
X016484Y013172D01*
X016484Y013366D01*
X016436Y013414D01*
X016339Y013414D01*
X016291Y013366D01*
X016585Y013366D02*
X016634Y013414D01*
X016731Y013414D01*
X016779Y013366D01*
X016779Y013172D01*
X016731Y013124D01*
X016634Y013124D01*
X016585Y013172D01*
X016880Y013220D02*
X016880Y013414D01*
X016880Y013220D02*
X016977Y013124D01*
X017074Y013220D01*
X017074Y013414D01*
X017291Y013317D02*
X017291Y013124D01*
X017291Y013269D02*
X017484Y013269D01*
X017484Y013317D02*
X017484Y013124D01*
X017585Y013172D02*
X017585Y013366D01*
X017634Y013414D01*
X017779Y013414D01*
X017779Y013124D01*
X017634Y013124D01*
X017585Y013172D01*
X017484Y013317D02*
X017388Y013414D01*
X017291Y013317D01*
X017281Y012838D02*
X017378Y012838D01*
X017329Y012838D02*
X017329Y012596D01*
X017378Y012547D01*
X017426Y012547D01*
X017474Y012596D01*
X017180Y012596D02*
X017180Y012644D01*
X017131Y012692D01*
X017034Y012692D01*
X016986Y012644D01*
X016986Y012596D01*
X017034Y012547D01*
X017131Y012547D01*
X017180Y012596D01*
X017131Y012692D02*
X017180Y012741D01*
X017180Y012789D01*
X017131Y012838D01*
X017034Y012838D01*
X016986Y012789D01*
X016986Y012741D01*
X017034Y012692D01*
X017880Y013172D02*
X017928Y013124D01*
X018025Y013124D01*
X018074Y013172D01*
X018141Y013124D02*
X018334Y013124D01*
X018334Y013414D01*
X018435Y013366D02*
X018484Y013414D01*
X018581Y013414D01*
X018629Y013366D01*
X018629Y013172D01*
X018581Y013124D01*
X018484Y013124D01*
X018435Y013172D01*
X018730Y013172D02*
X018778Y013124D01*
X018875Y013124D01*
X018924Y013172D01*
X018875Y013269D02*
X018778Y013269D01*
X018730Y013220D01*
X018730Y013172D01*
X018875Y013269D02*
X018924Y013317D01*
X018924Y013366D01*
X018875Y013414D01*
X018778Y013414D01*
X018730Y013366D01*
X018074Y013366D02*
X018074Y013317D01*
X018025Y013269D01*
X017928Y013269D01*
X017880Y013220D01*
X017880Y013172D01*
X017880Y013366D02*
X017928Y013414D01*
X018025Y013414D01*
X018074Y013366D01*
X017931Y014274D02*
X017882Y014274D01*
X017834Y014322D01*
X017834Y014564D01*
X017882Y014564D02*
X017785Y014564D01*
X017684Y014564D02*
X017684Y014419D01*
X017588Y014467D01*
X017539Y014467D01*
X017491Y014419D01*
X017491Y014322D01*
X017539Y014274D01*
X017636Y014274D01*
X017684Y014322D01*
X017684Y014564D02*
X017491Y014564D01*
X017931Y014274D02*
X017979Y014322D01*
X016540Y014294D02*
X016540Y014479D01*
X016478Y014541D01*
X016416Y014541D01*
X016355Y014479D01*
X016355Y014294D01*
X016355Y014479D02*
X016293Y014541D01*
X016231Y014541D01*
X016170Y014479D01*
X016170Y014294D01*
X016540Y014294D01*
X016416Y014662D02*
X016170Y014662D01*
X016355Y014662D02*
X016355Y014909D01*
X016416Y014909D02*
X016170Y014909D01*
X016170Y015154D02*
X016540Y015154D01*
X016540Y015277D02*
X016540Y015030D01*
X016416Y014909D02*
X016540Y014785D01*
X016416Y014662D01*
X016478Y016744D02*
X016231Y016744D01*
X016170Y016805D01*
X016170Y016929D01*
X016231Y016991D01*
X016170Y017112D02*
X016540Y017112D01*
X016478Y016991D02*
X016540Y016929D01*
X016540Y016805D01*
X016478Y016744D01*
X016355Y017112D02*
X016355Y017359D01*
X016355Y017480D02*
X016355Y017727D01*
X016416Y017727D02*
X016170Y017727D01*
X016170Y017849D02*
X016540Y017849D01*
X016540Y018034D01*
X016478Y018096D01*
X016355Y018096D01*
X016293Y018034D01*
X016293Y017849D01*
X016293Y017972D02*
X016170Y018096D01*
X016231Y018217D02*
X016170Y018279D01*
X016170Y018402D01*
X016231Y018464D01*
X016355Y018464D01*
X016355Y018340D01*
X016478Y018217D02*
X016231Y018217D01*
X016478Y018217D02*
X016540Y018279D01*
X016540Y018402D01*
X016478Y018464D01*
X016540Y018585D02*
X016170Y018585D01*
X016170Y018832D01*
X016170Y018954D02*
X016540Y018954D01*
X016540Y019139D01*
X016478Y019201D01*
X016355Y019201D01*
X016293Y019139D01*
X016293Y018954D01*
X016293Y019077D02*
X016170Y019201D01*
X016540Y018832D02*
X016540Y018585D01*
X016355Y018585D02*
X016355Y018709D01*
X016416Y017727D02*
X016540Y017604D01*
X016416Y017480D01*
X016170Y017480D01*
X016170Y017359D02*
X016540Y017359D01*
X017491Y017472D02*
X017539Y017424D01*
X017636Y017424D01*
X017684Y017472D01*
X017491Y017666D01*
X017491Y017472D01*
X017684Y017472D02*
X017684Y017666D01*
X017636Y017714D01*
X017539Y017714D01*
X017491Y017666D01*
X017785Y017424D02*
X017979Y017424D01*
X017882Y017424D02*
X017882Y017714D01*
X017979Y017617D01*
X018080Y017714D02*
X018177Y017714D01*
X018128Y017714D02*
X018128Y017472D01*
X018177Y017424D01*
X018225Y017424D01*
X018274Y017472D01*
X017452Y020951D02*
X017403Y021000D01*
X017403Y021048D01*
X017452Y021096D01*
X017694Y021096D01*
X017694Y021048D02*
X017694Y021145D01*
X017549Y021246D02*
X017549Y021391D01*
X017500Y021439D01*
X017452Y021439D01*
X017403Y021391D01*
X017403Y021294D01*
X017452Y021246D01*
X017549Y021246D01*
X017645Y021343D01*
X017694Y021439D01*
X017125Y023174D02*
X017028Y023174D01*
X016980Y023222D01*
X016980Y023464D01*
X016879Y023416D02*
X016879Y023367D01*
X016831Y023319D01*
X016734Y023319D01*
X016685Y023270D01*
X016685Y023222D01*
X016734Y023174D01*
X016831Y023174D01*
X016879Y023222D01*
X016879Y023416D02*
X016831Y023464D01*
X016734Y023464D01*
X016685Y023416D01*
X016584Y023464D02*
X016584Y023174D01*
X016439Y023174D01*
X016391Y023222D01*
X016391Y023270D01*
X016439Y023319D01*
X016584Y023319D01*
X016439Y023319D02*
X016391Y023367D01*
X016391Y023416D01*
X016439Y023464D01*
X016584Y023464D01*
X017125Y023174D02*
X017174Y023222D01*
X017174Y023464D01*
X015863Y023210D02*
X015815Y023162D01*
X015766Y023162D01*
X015718Y023210D01*
X015718Y023452D01*
X015766Y023452D02*
X015670Y023452D01*
X015569Y023404D02*
X015520Y023452D01*
X015423Y023452D01*
X015375Y023404D01*
X015375Y023355D01*
X015569Y023162D01*
X015375Y023162D01*
X015326Y024852D02*
X015423Y024949D01*
X015374Y024949D02*
X015520Y024949D01*
X015520Y024852D02*
X015520Y025142D01*
X015374Y025142D01*
X015326Y025094D01*
X015326Y024997D01*
X015374Y024949D01*
X015177Y024908D02*
X015177Y025102D01*
X015129Y025150D01*
X015032Y025150D01*
X014983Y025102D01*
X014983Y024908D01*
X015032Y024860D01*
X015129Y024860D01*
X015177Y024908D01*
X014882Y024860D02*
X014882Y025150D01*
X014834Y025005D02*
X014689Y024860D01*
X014538Y024920D02*
X014489Y024872D01*
X014393Y024872D01*
X014344Y024920D01*
X014243Y024872D02*
X014243Y025162D01*
X014344Y025114D02*
X014393Y025162D01*
X014489Y025162D01*
X014538Y025114D01*
X014538Y024920D01*
X014689Y025150D02*
X014882Y024957D01*
X014243Y025017D02*
X014050Y025017D01*
X014050Y025162D02*
X014050Y024872D01*
X013818Y024876D02*
X013818Y025166D01*
X013672Y025166D01*
X013624Y025118D01*
X013624Y025021D01*
X013672Y024973D01*
X013818Y024973D01*
X013721Y024973D02*
X013624Y024876D01*
X013523Y025021D02*
X013329Y025021D01*
X013378Y025166D02*
X013523Y025021D01*
X013378Y024876D02*
X013378Y025166D01*
X012100Y024613D02*
X012051Y024661D01*
X012003Y024661D01*
X011955Y024613D01*
X011906Y024661D01*
X011858Y024661D01*
X011810Y024613D01*
X011810Y024516D01*
X011858Y024468D01*
X011810Y024366D02*
X011906Y024270D01*
X011906Y024318D02*
X011906Y024173D01*
X011810Y024173D02*
X012100Y024173D01*
X012100Y024318D01*
X012051Y024366D01*
X011955Y024366D01*
X011906Y024318D01*
X012051Y024468D02*
X012100Y024516D01*
X012100Y024613D01*
X011955Y024613D02*
X011955Y024564D01*
X010278Y024593D02*
X009988Y024593D01*
X009988Y024497D02*
X009988Y024690D01*
X010181Y024497D02*
X010278Y024593D01*
X010230Y024396D02*
X010133Y024396D01*
X010085Y024347D01*
X010085Y024202D01*
X010085Y024299D02*
X009988Y024396D01*
X009988Y024202D02*
X010278Y024202D01*
X010278Y024347D01*
X010230Y024396D01*
X011242Y022696D02*
X011339Y022696D01*
X011387Y022647D01*
X011488Y022647D02*
X011537Y022696D01*
X011682Y022696D01*
X011682Y022406D01*
X011537Y022406D01*
X011488Y022454D01*
X011488Y022647D01*
X011242Y022696D02*
X011194Y022647D01*
X011194Y022599D01*
X011387Y022406D01*
X011194Y022406D01*
X012453Y022398D02*
X012646Y022398D01*
X012549Y022398D02*
X012549Y022688D01*
X012646Y022592D01*
X012747Y022640D02*
X012796Y022688D01*
X012941Y022688D01*
X012941Y022398D01*
X012796Y022398D01*
X012747Y022447D01*
X012747Y022640D01*
X012255Y019708D02*
X012303Y019660D01*
X012303Y019467D01*
X012255Y019418D01*
X012158Y019418D01*
X012110Y019467D01*
X012009Y019467D02*
X012009Y019515D01*
X011960Y019563D01*
X011864Y019563D01*
X011815Y019515D01*
X011815Y019467D01*
X011864Y019418D01*
X011960Y019418D01*
X012009Y019467D01*
X011960Y019563D02*
X012009Y019612D01*
X012009Y019660D01*
X011960Y019708D01*
X011864Y019708D01*
X011815Y019660D01*
X011815Y019612D01*
X011864Y019563D01*
X012110Y019660D02*
X012158Y019708D01*
X012255Y019708D01*
X010793Y018388D02*
X010744Y018437D01*
X010696Y018437D01*
X010647Y018388D01*
X010599Y018437D01*
X010551Y018437D01*
X010502Y018388D01*
X010502Y018292D01*
X010551Y018243D01*
X010551Y018142D02*
X010793Y018142D01*
X010744Y018243D02*
X010793Y018292D01*
X010793Y018388D01*
X010647Y018388D02*
X010647Y018340D01*
X010551Y018142D02*
X010502Y018094D01*
X010502Y017997D01*
X010551Y017949D01*
X010793Y017949D01*
X011807Y017940D02*
X012001Y017940D01*
X011855Y018085D01*
X011855Y017794D01*
X012102Y017843D02*
X012102Y018036D01*
X012150Y018085D01*
X012295Y018085D01*
X012295Y017794D01*
X012150Y017794D01*
X012102Y017843D01*
X012171Y016538D02*
X012316Y016538D01*
X012316Y016248D01*
X012171Y016248D01*
X012122Y016296D01*
X012122Y016490D01*
X012171Y016538D01*
X012021Y016490D02*
X011973Y016538D01*
X011876Y016538D01*
X011828Y016490D01*
X011828Y016442D01*
X011876Y016393D01*
X011828Y016345D01*
X011828Y016296D01*
X011876Y016248D01*
X011973Y016248D01*
X012021Y016296D01*
X011925Y016393D02*
X011876Y016393D01*
X011174Y014768D02*
X011222Y014720D01*
X011222Y014526D01*
X011174Y014478D01*
X011077Y014478D01*
X011029Y014526D01*
X010928Y014623D02*
X010734Y014623D01*
X010782Y014478D02*
X010782Y014768D01*
X010928Y014623D01*
X011029Y014720D02*
X011077Y014768D01*
X011174Y014768D01*
X011172Y013883D02*
X011221Y013835D01*
X011221Y013641D01*
X011172Y013593D01*
X011076Y013593D01*
X011027Y013641D01*
X010926Y013593D02*
X010732Y013593D01*
X010829Y013593D02*
X010829Y013883D01*
X010926Y013786D01*
X011027Y013835D02*
X011076Y013883D01*
X011172Y013883D01*
X010631Y013883D02*
X010438Y013883D01*
X010438Y013835D01*
X010631Y013641D01*
X010631Y013593D01*
X009833Y012759D02*
X009881Y012711D01*
X009881Y012614D01*
X009833Y012566D01*
X009833Y012465D02*
X009881Y012416D01*
X009881Y012320D01*
X009833Y012271D01*
X009640Y012271D01*
X009591Y012320D01*
X009591Y012416D01*
X009640Y012465D01*
X009591Y012566D02*
X009785Y012759D01*
X009833Y012759D01*
X009591Y012759D02*
X009591Y012566D01*
X009062Y011648D02*
X008966Y011648D01*
X008917Y011599D01*
X008917Y011406D01*
X008966Y011358D01*
X009062Y011358D01*
X009111Y011406D01*
X009111Y011599D01*
X009062Y011648D01*
X009014Y011454D02*
X008917Y011358D01*
X008816Y011406D02*
X008768Y011358D01*
X008671Y011358D01*
X008623Y011406D01*
X008623Y011454D01*
X008671Y011503D01*
X008719Y011503D01*
X008671Y011503D02*
X008623Y011551D01*
X008623Y011599D01*
X008671Y011648D01*
X008768Y011648D01*
X008816Y011599D01*
X007501Y011596D02*
X007501Y011402D01*
X007452Y011354D01*
X007355Y011354D01*
X007307Y011402D01*
X007307Y011596D01*
X007355Y011644D01*
X007452Y011644D01*
X007501Y011596D01*
X007404Y011450D02*
X007307Y011354D01*
X007206Y011354D02*
X007012Y011547D01*
X007012Y011596D01*
X007061Y011644D01*
X007158Y011644D01*
X007206Y011596D01*
X007206Y011354D02*
X007012Y011354D01*
X008637Y013543D02*
X008830Y013543D01*
X008733Y013543D02*
X008733Y013833D01*
X008830Y013736D01*
X008931Y013785D02*
X008980Y013833D01*
X009076Y013833D01*
X009125Y013785D01*
X009125Y013591D01*
X009076Y013543D01*
X008980Y013543D01*
X008931Y013591D01*
X008931Y013785D01*
X009028Y013640D02*
X008931Y013543D01*
X007636Y014740D02*
X007636Y015030D01*
X007491Y015030D01*
X007443Y014982D01*
X007443Y014885D01*
X007491Y014836D01*
X007636Y014836D01*
X007539Y014836D02*
X007443Y014740D01*
X007342Y014740D02*
X007148Y014740D01*
X007245Y014740D02*
X007245Y015030D01*
X007342Y014933D01*
X007047Y014982D02*
X007047Y014788D01*
X006853Y014982D01*
X006853Y014788D01*
X006902Y014740D01*
X006998Y014740D01*
X007047Y014788D01*
X007047Y014982D02*
X006998Y015030D01*
X006902Y015030D01*
X006853Y014982D01*
X006730Y016487D02*
X006537Y016487D01*
X006489Y016535D01*
X006489Y016632D01*
X006537Y016680D01*
X006489Y016781D02*
X006489Y016975D01*
X006489Y016878D02*
X006779Y016878D01*
X006682Y016781D01*
X006730Y016680D02*
X006779Y016632D01*
X006779Y016535D01*
X006730Y016487D01*
X006634Y017076D02*
X006634Y017221D01*
X006585Y017269D01*
X006537Y017269D01*
X006489Y017221D01*
X006489Y017124D01*
X006537Y017076D01*
X006634Y017076D01*
X006730Y017173D01*
X006779Y017269D01*
X006806Y018096D02*
X006516Y018096D01*
X006612Y018096D02*
X006612Y018241D01*
X006661Y018289D01*
X006757Y018289D01*
X006806Y018241D01*
X006806Y018096D01*
X006612Y018192D02*
X006516Y018289D01*
X006564Y018390D02*
X006612Y018390D01*
X006661Y018439D01*
X006661Y018535D01*
X006612Y018584D01*
X006564Y018584D01*
X006516Y018535D01*
X006516Y018439D01*
X006564Y018390D01*
X006661Y018439D02*
X006709Y018390D01*
X006757Y018390D01*
X006806Y018439D01*
X006806Y018535D01*
X006757Y018584D01*
X006709Y018584D01*
X006661Y018535D01*
X007856Y019356D02*
X007856Y019452D01*
X007905Y019501D01*
X007905Y019602D02*
X007856Y019650D01*
X007856Y019747D01*
X007905Y019796D01*
X007953Y019796D01*
X008001Y019747D01*
X008001Y019699D01*
X008001Y019747D02*
X008050Y019796D01*
X008098Y019796D01*
X008146Y019747D01*
X008146Y019650D01*
X008098Y019602D01*
X008098Y019501D02*
X008146Y019452D01*
X008146Y019356D01*
X008098Y019307D01*
X007905Y019307D01*
X007856Y019356D01*
X009355Y021560D02*
X009355Y021850D01*
X009500Y021705D01*
X009307Y021705D01*
X009602Y021608D02*
X009602Y021850D01*
X009795Y021850D02*
X009795Y021608D01*
X009747Y021560D01*
X009650Y021560D01*
X009602Y021608D01*
X006205Y023160D02*
X006205Y023450D01*
X006060Y023450D01*
X006011Y023402D01*
X006011Y023305D01*
X006060Y023257D01*
X006205Y023257D01*
X006108Y023257D02*
X006011Y023160D01*
X005910Y023208D02*
X005862Y023160D01*
X005765Y023160D01*
X005717Y023208D01*
X005717Y023402D01*
X005765Y023450D01*
X005862Y023450D01*
X005910Y023402D01*
X005910Y023353D01*
X005862Y023305D01*
X005717Y023305D01*
X005570Y023247D02*
X005424Y023247D01*
X005376Y023295D01*
X005376Y023392D01*
X005424Y023440D01*
X005570Y023440D01*
X005570Y023150D01*
X005473Y023247D02*
X005376Y023150D01*
X005275Y023150D02*
X005275Y023198D01*
X005081Y023392D01*
X005081Y023440D01*
X005275Y023440D01*
X004880Y023482D02*
X004880Y023191D01*
X004880Y023288D02*
X004735Y023288D01*
X004686Y023337D01*
X004686Y023433D01*
X004735Y023482D01*
X004880Y023482D01*
X004783Y023288D02*
X004686Y023191D01*
X004585Y023191D02*
X004392Y023191D01*
X004488Y023191D02*
X004488Y023482D01*
X004585Y023385D01*
X004290Y023385D02*
X004194Y023482D01*
X004194Y023191D01*
X004290Y023191D02*
X004097Y023191D01*
X003986Y023211D02*
X003937Y023163D01*
X003889Y023163D01*
X003841Y023211D01*
X003841Y023453D01*
X003889Y023453D02*
X003792Y023453D01*
X003691Y023405D02*
X003643Y023453D01*
X003546Y023453D01*
X003498Y023405D01*
X003498Y023357D01*
X003546Y023308D01*
X003498Y023260D01*
X003498Y023211D01*
X003546Y023163D01*
X003643Y023163D01*
X003691Y023211D01*
X003594Y023308D02*
X003546Y023308D01*
X003620Y024834D02*
X003717Y024834D01*
X003765Y024882D01*
X003717Y024979D02*
X003765Y025028D01*
X003765Y025076D01*
X003717Y025124D01*
X003620Y025124D01*
X003571Y025076D01*
X003470Y025076D02*
X003470Y025028D01*
X003422Y024979D01*
X003325Y024979D01*
X003277Y024931D01*
X003277Y024882D01*
X003325Y024834D01*
X003422Y024834D01*
X003470Y024882D01*
X003571Y024882D02*
X003620Y024834D01*
X003571Y024882D02*
X003571Y024931D01*
X003620Y024979D01*
X003717Y024979D01*
X003866Y024979D02*
X004060Y024979D01*
X004060Y025028D02*
X004060Y024834D01*
X004060Y025028D02*
X003963Y025124D01*
X003866Y025028D01*
X003866Y024834D01*
X004324Y024827D02*
X004517Y025118D01*
X004618Y025118D02*
X004812Y025118D01*
X004715Y025118D02*
X004715Y024827D01*
X004517Y024827D02*
X004324Y025118D01*
X004993Y025110D02*
X005186Y024820D01*
X005287Y024820D02*
X005384Y024917D01*
X005336Y024917D02*
X005481Y024917D01*
X005481Y024820D02*
X005481Y025110D01*
X005336Y025110D01*
X005287Y025062D01*
X005287Y024965D01*
X005336Y024917D01*
X005186Y025110D02*
X004993Y024820D01*
X003470Y025076D02*
X003422Y025124D01*
X003325Y025124D01*
X003277Y025076D01*
X003176Y025076D02*
X003176Y024882D01*
X003127Y024834D01*
X003031Y024834D01*
X002982Y024882D01*
X002982Y025076D01*
X003031Y025124D01*
X003127Y025124D01*
X003176Y025076D01*
X002881Y025076D02*
X002881Y024882D01*
X002833Y024834D01*
X002736Y024834D01*
X002688Y024882D01*
X002688Y025076D02*
X002736Y025124D01*
X002833Y025124D01*
X002881Y025076D01*
X003050Y014588D02*
X003002Y014540D01*
X003002Y014443D01*
X003050Y014395D01*
X003147Y014395D02*
X003195Y014491D01*
X003195Y014540D01*
X003147Y014588D01*
X003050Y014588D01*
X003147Y014395D02*
X003292Y014395D01*
X003292Y014588D01*
X003243Y014294D02*
X003050Y014294D01*
X003002Y014245D01*
X003002Y014100D01*
X003292Y014100D01*
X003292Y014245D01*
X003243Y014294D01*
X003292Y013970D02*
X003243Y013873D01*
X003147Y013777D01*
X003147Y013922D01*
X003098Y013970D01*
X003050Y013970D01*
X003002Y013922D01*
X003002Y013825D01*
X003050Y013777D01*
X003147Y013777D01*
X003050Y013675D02*
X003243Y013675D01*
X003292Y013627D01*
X003292Y013482D01*
X003002Y013482D01*
X003002Y013627D01*
X003050Y013675D01*
X003050Y013262D02*
X003002Y013213D01*
X003002Y013116D01*
X003050Y013068D01*
X003243Y013068D01*
X003292Y013116D01*
X003292Y013213D01*
X003243Y013262D01*
X003243Y012967D02*
X003292Y012919D01*
X003292Y012822D01*
X003243Y012773D01*
X003050Y012773D01*
X003002Y012822D01*
X003002Y012919D01*
X003050Y012967D01*
X003098Y012672D02*
X003292Y012672D01*
X003292Y012479D02*
X003098Y012479D01*
X003002Y012576D01*
X003098Y012672D01*
X001696Y013239D02*
X001696Y013336D01*
X001696Y013288D02*
X001454Y013288D01*
X001406Y013239D01*
X001406Y013191D01*
X001454Y013143D01*
X001454Y013437D02*
X001406Y013486D01*
X001406Y013582D01*
X001454Y013631D01*
X001647Y013631D01*
X001696Y013582D01*
X001696Y013486D01*
X001647Y013437D01*
X001599Y013437D01*
X001551Y013486D01*
X001551Y013631D01*
X001692Y011332D02*
X001837Y011332D01*
X001837Y011042D01*
X001692Y011042D01*
X001644Y011090D01*
X001644Y011284D01*
X001692Y011332D01*
X001939Y011332D02*
X001939Y011042D01*
X002132Y011332D01*
X002132Y011042D01*
X002233Y011090D02*
X002233Y011187D01*
X002330Y011187D01*
X002427Y011284D02*
X002378Y011332D01*
X002282Y011332D01*
X002233Y011284D01*
X002427Y011284D02*
X002427Y011090D01*
X002378Y011042D01*
X002282Y011042D01*
X002233Y011090D01*
X011128Y011367D02*
X011322Y011367D01*
X011128Y011560D01*
X011128Y011609D01*
X011177Y011657D01*
X011273Y011657D01*
X011322Y011609D01*
X011423Y011657D02*
X011423Y011415D01*
X011471Y011367D01*
X011568Y011367D01*
X011616Y011415D01*
X011616Y011657D01*
X013098Y012320D02*
X013098Y012417D01*
X013146Y012465D01*
X013098Y012566D02*
X013098Y012760D01*
X013098Y012663D02*
X013388Y012663D01*
X013291Y012566D01*
X013339Y012465D02*
X013388Y012417D01*
X013388Y012320D01*
X013339Y012272D01*
X013146Y012272D01*
X013098Y012320D01*
X015621Y024852D02*
X015621Y025142D01*
X015814Y025142D02*
X015814Y024852D01*
X015717Y024949D01*
X015621Y024852D01*
X015915Y024997D02*
X015915Y025094D01*
X015964Y025142D01*
X016109Y025142D01*
X016109Y024852D01*
X016109Y024949D02*
X015964Y024949D01*
X015915Y024997D01*
X016294Y025008D02*
X016342Y025056D01*
X016390Y025056D01*
X016487Y025008D01*
X016487Y025153D01*
X016294Y025153D01*
X016294Y025008D02*
X016294Y024911D01*
X016342Y024863D01*
X016439Y024863D01*
X016487Y024911D01*
X016588Y024863D02*
X016685Y024959D01*
X016637Y024959D02*
X016782Y024959D01*
X016782Y024863D02*
X016782Y025153D01*
X016637Y025153D01*
X016588Y025105D01*
X016588Y025008D01*
X016637Y024959D01*
D11*
X017198Y019179D02*
X017625Y019179D01*
X018198Y019179D02*
X018625Y019179D01*
X018411Y019393D02*
X018411Y018965D01*
X018411Y016643D02*
X018411Y016215D01*
X018198Y016429D02*
X018625Y016429D01*
X017625Y016429D02*
X017198Y016429D01*
X011907Y012885D02*
X011907Y012247D01*
X011870Y012247D01*
X011553Y012247D02*
X011515Y012247D01*
X011179Y012247D02*
X011141Y012247D01*
X010824Y012247D02*
X010787Y012247D01*
X010787Y012885D01*
X010824Y012885D01*
X011141Y012885D02*
X011553Y012885D01*
X011870Y012885D02*
X011907Y012885D01*
D12*
X012257Y013301D02*
X012257Y012001D01*
X012957Y012001D01*
X012957Y013301D01*
X012257Y013301D01*
X012079Y013713D02*
X012079Y013913D01*
X011979Y013813D02*
X012179Y013813D01*
X011688Y014303D02*
X012988Y014303D01*
X012988Y015003D01*
X011688Y015003D01*
X011688Y014303D01*
X011329Y014138D02*
X011329Y013488D01*
X012979Y013488D01*
X012979Y014138D01*
X011329Y014138D01*
X011931Y015233D02*
X011931Y016033D01*
X011881Y015983D01*
X011881Y015283D01*
X011831Y015333D01*
X011831Y015933D01*
X011781Y015883D01*
X011781Y015383D01*
X011731Y015433D01*
X011731Y015833D01*
X011681Y015783D01*
X011681Y015483D01*
X011631Y015533D01*
X011631Y015733D01*
X011581Y015683D01*
X011581Y015583D01*
X011631Y015533D01*
X011681Y015483D02*
X011731Y015433D01*
X011781Y015383D02*
X011831Y015333D01*
X011881Y015283D02*
X011931Y015233D01*
X011581Y015583D02*
X011531Y015633D01*
X011581Y015683D01*
X011631Y015733D02*
X011681Y015783D01*
X011731Y015833D02*
X011781Y015883D01*
X011831Y015933D02*
X011881Y015983D01*
X011978Y016838D02*
X011978Y017638D01*
X011928Y017588D01*
X011928Y016888D01*
X011878Y016938D01*
X011878Y017538D01*
X011828Y017488D01*
X011828Y016988D01*
X011778Y017038D01*
X011778Y017438D01*
X011728Y017388D01*
X011728Y017088D01*
X011678Y017138D01*
X011678Y017338D01*
X011628Y017288D01*
X011628Y017188D01*
X011678Y017138D01*
X011628Y017188D02*
X011578Y017238D01*
X011628Y017288D01*
X011678Y017338D02*
X011728Y017388D01*
X011778Y017438D02*
X011828Y017488D01*
X011878Y017538D02*
X011928Y017588D01*
X011728Y017088D02*
X011778Y017038D01*
X011828Y016988D02*
X011878Y016938D01*
X011928Y016888D02*
X011978Y016838D01*
X013028Y016738D02*
X013028Y017738D01*
X010528Y017738D01*
X010528Y016738D01*
X013028Y016738D01*
X012981Y016133D02*
X010481Y016133D01*
X010481Y015133D01*
X012981Y015133D01*
X012981Y016133D01*
X011896Y018684D02*
X011896Y018884D01*
X011796Y018784D02*
X011996Y018784D01*
X011953Y019821D02*
X010953Y019821D01*
X010953Y022321D01*
X011953Y022321D01*
X011953Y019821D01*
X012250Y019820D02*
X012250Y022320D01*
X013250Y022320D01*
X013250Y019820D01*
X012250Y019820D01*
X012750Y020870D02*
X012800Y020920D01*
X012700Y020920D01*
X012650Y020970D01*
X012850Y020970D01*
X012900Y021020D01*
X012600Y021020D01*
X012550Y021070D01*
X012950Y021070D01*
X013000Y021120D01*
X012500Y021120D01*
X012450Y021170D01*
X013050Y021170D01*
X013100Y021220D01*
X012400Y021220D01*
X012350Y021270D01*
X013150Y021270D01*
X013100Y021220D01*
X013050Y021170D02*
X013000Y021120D01*
X012950Y021070D02*
X012900Y021020D01*
X012850Y020970D02*
X012800Y020920D01*
X012750Y020870D02*
X012700Y020920D01*
X012650Y020970D02*
X012600Y021020D01*
X012550Y021070D02*
X012500Y021120D01*
X012450Y021170D02*
X012400Y021220D01*
X011853Y021271D02*
X011053Y021271D01*
X011103Y021221D01*
X011803Y021221D01*
X011753Y021171D01*
X011153Y021171D01*
X011203Y021121D01*
X011703Y021121D01*
X011653Y021071D01*
X011253Y021071D01*
X011303Y021021D01*
X011603Y021021D01*
X011553Y020971D01*
X011353Y020971D01*
X011403Y020921D01*
X011503Y020921D01*
X011553Y020971D01*
X011603Y021021D02*
X011653Y021071D01*
X011703Y021121D02*
X011753Y021171D01*
X011803Y021221D02*
X011853Y021271D01*
X011503Y020921D02*
X011453Y020871D01*
X011403Y020921D01*
X011353Y020971D02*
X011303Y021021D01*
X011253Y021071D02*
X011203Y021121D01*
X011153Y021171D02*
X011103Y021221D01*
X009328Y019792D02*
X008228Y019792D01*
X008228Y019292D01*
X009328Y019292D01*
X009328Y019792D01*
X010110Y018296D02*
X008210Y018296D01*
X008210Y016796D01*
X010110Y016796D01*
X010110Y018296D01*
X007730Y018296D02*
X007732Y018322D01*
X007738Y018348D01*
X007747Y018372D01*
X007760Y018395D01*
X007776Y018416D01*
X007795Y018434D01*
X007816Y018450D01*
X007840Y018462D01*
X007864Y018470D01*
X007890Y018475D01*
X007917Y018476D01*
X007943Y018473D01*
X007968Y018466D01*
X007992Y018456D01*
X008015Y018442D01*
X008035Y018426D01*
X008052Y018406D01*
X008067Y018384D01*
X008078Y018360D01*
X008086Y018335D01*
X008090Y018309D01*
X008090Y018283D01*
X008086Y018257D01*
X008078Y018232D01*
X008067Y018208D01*
X008052Y018186D01*
X008035Y018166D01*
X008015Y018150D01*
X007992Y018136D01*
X007968Y018126D01*
X007943Y018119D01*
X007917Y018116D01*
X007890Y018117D01*
X007864Y018122D01*
X007840Y018130D01*
X007816Y018142D01*
X007795Y018158D01*
X007776Y018176D01*
X007760Y018197D01*
X007747Y018220D01*
X007738Y018244D01*
X007732Y018270D01*
X007730Y018296D01*
X007641Y017771D02*
X007141Y017771D01*
X007141Y018871D01*
X007641Y018871D01*
X007641Y017771D01*
X007616Y017502D02*
X007616Y016202D01*
X006916Y016202D01*
X006916Y017502D01*
X007616Y017502D01*
X008904Y015169D02*
X009254Y015169D01*
X009254Y014869D01*
X008754Y014669D02*
X008754Y014519D01*
X008904Y014019D02*
X009254Y014019D01*
X009254Y014319D01*
X009996Y013096D02*
X010496Y013096D01*
X010496Y011996D01*
X009996Y011996D01*
X009996Y013096D01*
X009426Y012641D02*
X009426Y012291D01*
X009126Y012291D01*
X008926Y012791D02*
X008776Y012791D01*
X008276Y012641D02*
X008276Y012291D01*
X008576Y012291D01*
X007851Y012259D02*
X007551Y012259D01*
X007851Y012259D02*
X007851Y012609D01*
X007351Y012759D02*
X007201Y012759D01*
X007001Y012259D02*
X006701Y012259D01*
X006701Y012609D01*
X006717Y014085D02*
X006717Y014585D01*
X007817Y014585D01*
X007817Y014085D01*
X006717Y014085D01*
X004401Y012998D02*
X004401Y022998D01*
X003401Y022998D01*
X003401Y012998D01*
X004401Y012998D01*
X002420Y015392D02*
X001633Y015392D01*
X004452Y021889D02*
X004952Y021889D01*
X004952Y022989D01*
X004452Y022989D01*
X004452Y021889D01*
X005148Y021909D02*
X005648Y021909D01*
X005648Y023009D01*
X005148Y023009D01*
X005148Y021909D01*
X005738Y021894D02*
X006238Y021894D01*
X006238Y022994D01*
X005738Y022994D01*
X005738Y021894D01*
X006321Y022899D02*
X006323Y022928D01*
X006329Y022957D01*
X006338Y022985D01*
X006351Y023011D01*
X006367Y023035D01*
X006387Y023057D01*
X006409Y023077D01*
X006433Y023093D01*
X006459Y023106D01*
X006487Y023115D01*
X006516Y023121D01*
X006545Y023123D01*
X006574Y023121D01*
X006603Y023115D01*
X006631Y023106D01*
X006657Y023093D01*
X006681Y023077D01*
X006703Y023057D01*
X006723Y023035D01*
X006739Y023011D01*
X006752Y022985D01*
X006761Y022957D01*
X006767Y022928D01*
X006769Y022899D01*
X006767Y022870D01*
X006761Y022841D01*
X006752Y022813D01*
X006739Y022787D01*
X006723Y022763D01*
X006703Y022741D01*
X006681Y022721D01*
X006657Y022705D01*
X006631Y022692D01*
X006603Y022683D01*
X006574Y022677D01*
X006545Y022675D01*
X006516Y022677D01*
X006487Y022683D01*
X006459Y022692D01*
X006433Y022705D01*
X006409Y022721D01*
X006387Y022741D01*
X006367Y022763D01*
X006351Y022787D01*
X006338Y022813D01*
X006329Y022841D01*
X006323Y022870D01*
X006321Y022899D01*
X005498Y023636D02*
X004998Y023636D01*
X004998Y024686D01*
X005498Y024686D01*
X005498Y023636D01*
X005398Y024111D02*
X005323Y024161D01*
X005173Y024161D01*
X005248Y024211D01*
X005323Y024161D01*
X005348Y024136D02*
X005148Y024136D01*
X005173Y024161D02*
X005098Y024111D01*
X005398Y024111D01*
X004701Y024112D02*
X004626Y024162D01*
X004476Y024162D01*
X004551Y024212D01*
X004626Y024162D01*
X004651Y024137D02*
X004451Y024137D01*
X004476Y024162D02*
X004401Y024112D01*
X004701Y024112D01*
X004801Y023637D02*
X004301Y023637D01*
X004301Y024687D01*
X004801Y024687D01*
X004801Y023637D01*
X004104Y023634D02*
X004104Y024684D01*
X003604Y024684D01*
X003604Y023634D01*
X004104Y023634D01*
X003854Y024109D02*
X003779Y024159D01*
X003929Y024159D01*
X003854Y024109D01*
X003779Y024159D02*
X003704Y024209D01*
X004004Y024209D01*
X003929Y024159D01*
X003954Y024184D02*
X003754Y024184D01*
X010393Y023776D02*
X010893Y023776D01*
X010893Y024876D01*
X010393Y024876D01*
X010393Y023776D01*
X011215Y023800D02*
X011715Y023800D01*
X011715Y024900D01*
X011215Y024900D01*
X011215Y023800D01*
X013423Y023657D02*
X013923Y023657D01*
X013923Y024757D01*
X013423Y024757D01*
X013423Y023657D01*
X014077Y023722D02*
X014577Y023722D01*
X014577Y024772D01*
X014077Y024772D01*
X014077Y023722D01*
X014327Y024197D02*
X014252Y024247D01*
X014402Y024247D01*
X014327Y024197D01*
X014402Y024247D02*
X014477Y024297D01*
X014177Y024297D01*
X014252Y024247D01*
X014227Y024272D02*
X014427Y024272D01*
X014818Y024296D02*
X014893Y024246D01*
X015043Y024246D01*
X014968Y024196D01*
X014893Y024246D01*
X014868Y024271D02*
X015068Y024271D01*
X015043Y024246D02*
X015118Y024296D01*
X014818Y024296D01*
X014718Y024771D02*
X015218Y024771D01*
X015218Y023721D01*
X014718Y023721D01*
X014718Y024771D01*
X015356Y024789D02*
X015356Y023539D01*
X016056Y023539D01*
X016056Y024789D01*
X015356Y024789D01*
X015706Y024239D02*
X015906Y024089D01*
X015681Y024214D01*
X015806Y024089D01*
X015656Y024189D01*
X015706Y024089D01*
X015606Y024164D01*
X015606Y024089D01*
X015506Y024089D01*
X015606Y024164D01*
X015706Y024239D01*
X015706Y024089D02*
X015606Y024089D01*
X015706Y024089D02*
X015806Y024089D01*
X015906Y024089D01*
X016216Y023681D02*
X016716Y023681D01*
X016716Y024781D01*
X016216Y024781D01*
X016216Y023681D01*
X016139Y023067D02*
X015139Y023067D01*
X015139Y013067D01*
X016139Y013067D01*
X016139Y023067D01*
X016439Y022706D02*
X016439Y019706D01*
X020039Y019706D01*
X020039Y022706D01*
X016439Y022706D01*
X016624Y018904D02*
X016624Y017054D01*
X018986Y017054D01*
X018986Y018904D01*
X016624Y018904D01*
X016624Y016004D02*
X016624Y014154D01*
X018986Y014154D01*
X018986Y016004D01*
X016624Y016004D01*
X019178Y012519D02*
X019178Y011731D01*
X019189Y010913D02*
X018189Y010913D01*
X018189Y007487D01*
X019189Y007487D01*
X019189Y010913D01*
X011995Y002750D02*
X011995Y000850D01*
X009795Y000850D01*
X009795Y002750D01*
X011995Y002750D01*
X008651Y001837D02*
X008651Y000837D01*
X003651Y000837D01*
X003651Y001837D01*
X008651Y001837D01*
D13*
X003949Y002916D02*
X002216Y002916D01*
X002217Y002916D02*
X003792Y002916D01*
X004658Y002916D01*
X004579Y002916D01*
X004658Y002916D02*
X004855Y002916D01*
X004973Y002916D01*
X004855Y002916D01*
X004973Y002917D02*
X004985Y002914D01*
X004996Y002908D01*
X005004Y002900D01*
X005010Y002889D01*
X005013Y002877D01*
X005015Y002823D01*
X005020Y002770D01*
X005029Y002717D01*
X005042Y002665D01*
X005058Y002613D01*
X005078Y002563D01*
X005101Y002515D01*
X005128Y002468D01*
X005157Y002423D01*
X005190Y002380D01*
X005225Y002340D01*
X005263Y002302D01*
X005303Y002267D01*
X005346Y002234D01*
X005391Y002205D01*
X005438Y002178D01*
X005486Y002155D01*
X005536Y002135D01*
X005588Y002119D01*
X005640Y002106D01*
X005693Y002097D01*
X005746Y002092D01*
X005800Y002090D01*
X005839Y002090D01*
X005879Y002090D01*
X005933Y002092D01*
X005986Y002097D01*
X006039Y002106D01*
X006091Y002119D01*
X006143Y002135D01*
X006193Y002155D01*
X006241Y002178D01*
X006288Y002205D01*
X006333Y002234D01*
X006376Y002267D01*
X006416Y002302D01*
X006454Y002340D01*
X006489Y002380D01*
X006522Y002423D01*
X006551Y002468D01*
X006578Y002515D01*
X006601Y002563D01*
X006621Y002613D01*
X006637Y002665D01*
X006650Y002717D01*
X006659Y002770D01*
X006664Y002823D01*
X006666Y002877D01*
X006667Y002887D01*
X006671Y002896D01*
X006677Y002905D01*
X006686Y002911D01*
X006695Y002915D01*
X006705Y002916D01*
X007033Y002916D01*
X007038Y002916D01*
X007073Y002916D01*
X007060Y002916D01*
X007038Y002916D01*
X007033Y002916D01*
X007038Y002916D02*
X010476Y002916D01*
X012739Y002916D01*
X012764Y002918D02*
X012842Y002918D01*
X012842Y002919D02*
X012852Y002920D01*
X012861Y002924D01*
X012870Y002930D01*
X012876Y002938D01*
X012880Y002948D01*
X012881Y002958D01*
X012764Y002918D02*
X012449Y002918D01*
X012882Y002958D02*
X012884Y003013D01*
X012890Y003069D01*
X012900Y003123D01*
X012913Y003177D01*
X012930Y003230D01*
X012951Y003281D01*
X012976Y003331D01*
X013004Y003379D01*
X013035Y003425D01*
X013069Y003468D01*
X013107Y003509D01*
X013147Y003547D01*
X013190Y003583D01*
X013235Y003615D01*
X013282Y003644D01*
X013331Y003670D01*
X013382Y003692D01*
X013435Y003710D01*
X013488Y003725D01*
X013543Y003736D01*
X013598Y003743D01*
X013653Y003746D01*
X013708Y003745D01*
X013709Y003745D02*
X013748Y003745D01*
X013802Y003743D01*
X013855Y003738D01*
X013908Y003729D01*
X013960Y003716D01*
X014012Y003700D01*
X014062Y003680D01*
X014110Y003657D01*
X014157Y003630D01*
X014202Y003601D01*
X014245Y003568D01*
X014285Y003533D01*
X014323Y003495D01*
X014358Y003455D01*
X014391Y003412D01*
X014420Y003367D01*
X014447Y003320D01*
X014470Y003272D01*
X014490Y003222D01*
X014506Y003170D01*
X014519Y003118D01*
X014528Y003065D01*
X014533Y003012D01*
X014535Y002958D01*
X014538Y002946D01*
X014544Y002935D01*
X014552Y002927D01*
X014563Y002921D01*
X014575Y002918D01*
X014653Y002918D01*
X014968Y002918D01*
X014875Y002919D02*
X017355Y002919D01*
X017331Y002916D02*
X017364Y002918D01*
X017396Y002923D01*
X017428Y002931D01*
X017459Y002943D01*
X017488Y002958D01*
X017516Y002976D01*
X017542Y002997D01*
X017565Y003020D01*
X017586Y003046D01*
X017604Y003073D01*
X017619Y003103D01*
X017631Y003134D01*
X017639Y003166D01*
X017644Y003198D01*
X017646Y003231D01*
X017645Y003231D02*
X017645Y005744D01*
X017646Y005674D02*
X017646Y005596D01*
X017646Y005674D02*
X017646Y005871D01*
X017646Y005989D01*
X017646Y005871D01*
X017645Y005989D02*
X017648Y006001D01*
X017654Y006012D01*
X017662Y006020D01*
X017673Y006026D01*
X017685Y006029D01*
X017739Y006031D01*
X017792Y006036D01*
X017845Y006045D01*
X017897Y006058D01*
X017949Y006074D01*
X017999Y006094D01*
X018047Y006117D01*
X018094Y006144D01*
X018139Y006173D01*
X018182Y006206D01*
X018222Y006241D01*
X018260Y006279D01*
X018295Y006319D01*
X018328Y006362D01*
X018357Y006407D01*
X018384Y006454D01*
X018407Y006502D01*
X018427Y006552D01*
X018443Y006604D01*
X018456Y006656D01*
X018465Y006709D01*
X018470Y006762D01*
X018472Y006816D01*
X018472Y006855D01*
X018472Y006895D01*
X018470Y006949D01*
X018465Y007002D01*
X018456Y007055D01*
X018443Y007107D01*
X018427Y007159D01*
X018407Y007209D01*
X018384Y007257D01*
X018357Y007304D01*
X018328Y007349D01*
X018295Y007392D01*
X018260Y007432D01*
X018222Y007470D01*
X018182Y007505D01*
X018139Y007538D01*
X018094Y007567D01*
X018047Y007594D01*
X017999Y007617D01*
X017949Y007637D01*
X017897Y007653D01*
X017845Y007666D01*
X017792Y007675D01*
X017739Y007680D01*
X017685Y007682D01*
X017675Y007683D01*
X017666Y007687D01*
X017657Y007693D01*
X017651Y007701D01*
X017647Y007711D01*
X017646Y007721D01*
X017646Y008076D01*
X017646Y008115D01*
X017645Y008003D02*
X017645Y010475D01*
X017646Y010477D02*
X017646Y008824D01*
X017646Y008745D01*
X017646Y010475D02*
X017644Y010508D01*
X017639Y010540D01*
X017631Y010572D01*
X017619Y010603D01*
X017604Y010632D01*
X017586Y010660D01*
X017565Y010686D01*
X017542Y010709D01*
X017516Y010730D01*
X017488Y010748D01*
X017459Y010763D01*
X017428Y010775D01*
X017396Y010783D01*
X017364Y010788D01*
X017331Y010790D01*
X014558Y010790D01*
X014575Y010792D02*
X014565Y010791D01*
X014556Y010787D01*
X014547Y010781D01*
X014541Y010772D01*
X014537Y010763D01*
X014536Y010753D01*
X014538Y011182D02*
X004892Y011182D01*
X004892Y020808D01*
X007845Y023760D01*
X011585Y023760D01*
X014538Y020808D01*
X014538Y011182D01*
X014535Y010753D02*
X014533Y010699D01*
X014528Y010646D01*
X014519Y010593D01*
X014506Y010541D01*
X014490Y010489D01*
X014470Y010439D01*
X014447Y010391D01*
X014420Y010344D01*
X014391Y010299D01*
X014358Y010256D01*
X014323Y010216D01*
X014285Y010178D01*
X014245Y010143D01*
X014202Y010110D01*
X014157Y010081D01*
X014110Y010054D01*
X014062Y010031D01*
X014012Y010011D01*
X013960Y009995D01*
X013908Y009982D01*
X013855Y009973D01*
X013802Y009968D01*
X013748Y009966D01*
X013709Y009966D01*
X013669Y009966D01*
X013615Y009968D01*
X013562Y009973D01*
X013509Y009982D01*
X013457Y009995D01*
X013405Y010011D01*
X013355Y010031D01*
X013307Y010054D01*
X013260Y010081D01*
X013215Y010110D01*
X013172Y010143D01*
X013132Y010178D01*
X013094Y010216D01*
X013059Y010256D01*
X013026Y010299D01*
X012997Y010344D01*
X012970Y010391D01*
X012947Y010439D01*
X012927Y010489D01*
X012911Y010541D01*
X012898Y010593D01*
X012889Y010646D01*
X012884Y010699D01*
X012882Y010753D01*
X012881Y010753D02*
X012880Y010763D01*
X012876Y010772D01*
X012870Y010781D01*
X012862Y010787D01*
X012852Y010791D01*
X012842Y010792D01*
X012859Y010790D02*
X008413Y010790D01*
X006768Y010790D01*
X006705Y010790D01*
X006705Y010791D02*
X006695Y010792D01*
X006686Y010796D01*
X006677Y010802D01*
X006671Y010810D01*
X006667Y010820D01*
X006666Y010830D01*
X006768Y010790D02*
X007020Y010790D01*
X007099Y010790D01*
X006666Y010830D02*
X006664Y010884D01*
X006659Y010937D01*
X006650Y010990D01*
X006637Y011042D01*
X006621Y011094D01*
X006601Y011144D01*
X006578Y011192D01*
X006551Y011239D01*
X006522Y011284D01*
X006489Y011327D01*
X006454Y011367D01*
X006416Y011405D01*
X006376Y011440D01*
X006333Y011473D01*
X006288Y011502D01*
X006241Y011529D01*
X006193Y011552D01*
X006143Y011572D01*
X006091Y011588D01*
X006039Y011601D01*
X005986Y011610D01*
X005933Y011615D01*
X005879Y011617D01*
X005800Y011617D01*
X005746Y011615D01*
X005693Y011610D01*
X005640Y011601D01*
X005588Y011588D01*
X005536Y011572D01*
X005486Y011552D01*
X005438Y011529D01*
X005391Y011502D01*
X005346Y011473D01*
X005303Y011440D01*
X005263Y011405D01*
X005225Y011367D01*
X005190Y011327D01*
X005157Y011284D01*
X005128Y011239D01*
X005101Y011192D01*
X005078Y011144D01*
X005058Y011094D01*
X005042Y011042D01*
X005029Y010990D01*
X005020Y010937D01*
X005015Y010884D01*
X005013Y010830D01*
X005012Y010830D02*
X005011Y010820D01*
X005007Y010810D01*
X005001Y010802D01*
X004992Y010796D01*
X004983Y010792D01*
X004973Y010791D01*
X004973Y010790D02*
X004816Y010790D01*
X004661Y010790D01*
X004579Y010790D01*
X004661Y010790D02*
X003950Y010790D01*
X002217Y010790D01*
X002216Y010790D02*
X003949Y010790D01*
X003950Y010790D02*
X004661Y010790D01*
X004816Y010790D02*
X004973Y010790D01*
X002217Y010790D02*
X002184Y010788D01*
X002152Y010783D01*
X002120Y010775D01*
X002089Y010763D01*
X002060Y010748D01*
X002032Y010730D01*
X002006Y010709D01*
X001983Y010686D01*
X001962Y010660D01*
X001944Y010632D01*
X001929Y010603D01*
X001917Y010572D01*
X001909Y010540D01*
X001904Y010508D01*
X001902Y010475D01*
X001902Y009373D01*
X001902Y008743D01*
X001902Y008113D02*
X001902Y007798D01*
X001902Y007720D01*
X001903Y007720D02*
X001904Y007710D01*
X001908Y007700D01*
X001914Y007692D01*
X001923Y007686D01*
X001932Y007682D01*
X001942Y007681D01*
X001901Y007993D02*
X001901Y010475D01*
X001942Y007680D02*
X001997Y007678D01*
X002053Y007672D01*
X002107Y007662D01*
X002161Y007649D01*
X002214Y007632D01*
X002265Y007611D01*
X002315Y007586D01*
X002363Y007558D01*
X002409Y007527D01*
X002452Y007493D01*
X002493Y007455D01*
X002531Y007415D01*
X002567Y007372D01*
X002599Y007327D01*
X002628Y007280D01*
X002654Y007231D01*
X002676Y007180D01*
X002694Y007127D01*
X002709Y007074D01*
X002720Y007019D01*
X002727Y006964D01*
X002730Y006909D01*
X002729Y006854D01*
X002729Y006853D02*
X002729Y006814D01*
X002727Y006760D01*
X002722Y006707D01*
X002713Y006654D01*
X002700Y006602D01*
X002684Y006550D01*
X002664Y006500D01*
X002641Y006452D01*
X002614Y006405D01*
X002585Y006360D01*
X002552Y006317D01*
X002517Y006277D01*
X002479Y006239D01*
X002439Y006204D01*
X002396Y006171D01*
X002351Y006142D01*
X002304Y006115D01*
X002256Y006092D01*
X002206Y006072D01*
X002154Y006056D01*
X002102Y006043D01*
X002049Y006034D01*
X001996Y006029D01*
X001942Y006027D01*
X001930Y006024D01*
X001919Y006018D01*
X001911Y006010D01*
X001905Y005999D01*
X001902Y005987D01*
X001902Y005909D01*
X001902Y005594D01*
X001902Y004727D01*
X001902Y004964D01*
X001901Y004964D02*
X001901Y003231D01*
X001902Y003231D02*
X001902Y004727D01*
X001902Y005909D02*
X001902Y005987D01*
X001902Y003231D02*
X001904Y003198D01*
X001909Y003166D01*
X001917Y003134D01*
X001929Y003103D01*
X001944Y003073D01*
X001962Y003046D01*
X001983Y003020D01*
X002006Y002997D01*
X002032Y002976D01*
X002060Y002958D01*
X002089Y002943D01*
X002120Y002931D01*
X002152Y002923D01*
X002184Y002918D01*
X002217Y002916D01*
X003792Y002916D02*
X003950Y002916D01*
X007729Y002916D02*
X007808Y002916D01*
X010183Y002916D02*
X010476Y002916D01*
X014575Y002918D02*
X014653Y002918D01*
X017646Y003233D02*
X017646Y004808D01*
X017646Y004966D01*
X009396Y010790D02*
X008413Y010790D01*
D14*
X011196Y018234D02*
X011196Y019334D01*
X012946Y019334D01*
X012946Y018234D01*
X011196Y018234D01*
D15*
X010702Y020675D02*
X006687Y020675D01*
X006687Y022722D01*
X010702Y022722D01*
X010702Y020675D01*
D16*
X003129Y015392D02*
X003129Y014683D01*
X002893Y014683D01*
X002893Y014132D01*
X002893Y012715D01*
X002893Y012163D01*
X003129Y012163D01*
X003129Y011455D01*
X002893Y011455D01*
X001161Y011455D01*
X001161Y015392D01*
X002893Y015392D01*
X003129Y015392D01*
X002893Y015392D02*
X002893Y014683D01*
X002893Y012163D02*
X002893Y011455D01*
X002617Y011455D02*
X001436Y011455D01*
X015241Y011534D02*
X015241Y012715D01*
X015241Y012991D02*
X019178Y012991D01*
X019178Y011259D01*
X019178Y011022D01*
X018470Y011022D01*
X018470Y011259D01*
X017918Y011259D01*
X016501Y011259D01*
X015950Y011259D01*
X015950Y011022D01*
X015241Y011022D01*
X015241Y011259D01*
X015241Y012991D01*
X015241Y011259D02*
X015950Y011259D01*
X018470Y011259D02*
X019178Y011259D01*
M02*
