%
M48
M72
T01C0.0120
T02C0.0150
T03C0.0236
T04C0.0250
T05C0.0315
T06C0.0320
T07C0.0350
T08C0.0394
T09C0.0984
T10C0.1260
%
T01
X17239Y21524
X17909Y21524
T02
X17239Y22035
X15220Y23568
X14758Y23579
X14305Y23579
X13755Y22979
X13205Y22979
X13105Y23979
X11455Y23529
X10205Y24029
X8405Y23879
X7805Y24429
X7055Y23879
X7805Y22479
X8805Y21829
X8805Y21129
X9605Y21129
X9555Y19492
X10855Y19129
X9905Y17779
X9905Y17229
X9155Y17229
X9155Y17779
X8405Y17779
X8405Y17279
X7905Y17279
X7905Y17779
X8005Y16079
X8116Y15385
X8905Y16029
X9405Y16029
X10205Y14579
X11955Y15429
X13505Y17729
X13105Y18679
X12455Y20779
X11455Y20779
X14877Y22626
X16805Y16479
X12555Y11479
X9605Y11679
X7405Y13679
X6905Y9279
X6555Y8879
X10205Y8379
X11105Y7829
X12555Y8379
X7505Y19479
X6255Y21778
X4805Y21729
T03
X13305Y16329
T04
X16689Y19706
X18539Y19706
X18539Y22706
X16689Y22706
T05
X17411Y18274
X18198Y18274
X18198Y15374
X17411Y15374
X17603Y12125
X16816Y12125
X16029Y12125
X18391Y12125
X2027Y12242
X2027Y13030
X2027Y13817
X2027Y14604
T06
X5385Y14292
X5385Y13504
X5385Y15079
X5385Y15867
X5385Y16654
X5385Y17441
X5385Y18229
X5385Y19016
X5385Y19804
X5385Y20591
X14046Y20591
X14046Y19804
X14046Y19016
X14046Y18229
X14046Y17441
X14046Y16654
X14046Y15867
X14046Y15079
X14046Y14292
X14046Y13504
T07
X15639Y13567
X15639Y14567
X15639Y15567
X15639Y16567
X15639Y17567
X15639Y18567
X15639Y19567
X15639Y20567
X15639Y21567
X15639Y22567
X3901Y22498
X3901Y21498
X3901Y20498
X3901Y19498
X3901Y18498
X3901Y17498
X3901Y16498
X3901Y15498
X3901Y14498
X3901Y13498
X4151Y1337
X5151Y1337
X6151Y1337
X7151Y1337
X8151Y1337
T08
X18595Y8806
X18595Y9594
X18595Y10381
T09
X17645Y6859
X13705Y2919
X9955Y6769
X13705Y10809
X5835Y10789
X2025Y6859
X5835Y2919
T10
X2497Y2134
X17987Y2134
X17987Y23787
X2497Y23787
M30
