G75*
G70*
%OFA0B0*%
%FSLAX24Y24*%
%IPPOS*%
%LPD*%
%AMOC8*
5,1,8,0,0,1.08239X$1,22.5*
%
%ADD10C,0.0050*%
%ADD11C,0.0030*%
%ADD12C,0.0059*%
%ADD13C,0.0125*%
%ADD14C,0.0150*%
%ADD15OC8,0.0520*%
%ADD16C,0.0520*%
%ADD17R,0.0450X0.0600*%
%ADD18C,0.0250*%
%ADD19R,0.0354X0.0276*%
%ADD20R,0.0276X0.0354*%
%ADD21R,0.0990X0.0990*%
%ADD22C,0.0116*%
%ADD23C,0.0175*%
%ADD24R,0.0984X0.0472*%
%ADD25C,0.0080*%
%ADD26C,0.0240*%
%ADD27C,0.0240*%
%ADD28C,0.0100*%
%ADD29C,0.0120*%
%ADD30C,0.0160*%
D10*
X002963Y001875D02*
X013588Y001875D01*
X013588Y011688D01*
X010150Y014275D01*
X006388Y014275D01*
X002963Y011700D01*
X002963Y001875D01*
D11*
X010273Y013178D02*
X010343Y013318D01*
X010423Y013318D02*
X010494Y013388D01*
X010494Y013178D01*
X010564Y013178D02*
X010423Y013178D01*
X010273Y013178D02*
X010203Y013318D01*
X010644Y013213D02*
X010680Y013213D01*
X010680Y013178D01*
X010644Y013178D01*
X010644Y013213D01*
X010755Y013178D02*
X010895Y013178D01*
X010825Y013178D02*
X010825Y013388D01*
X010755Y013318D01*
D12*
X008994Y004722D02*
X008934Y004722D01*
X008994Y004722D02*
X008994Y004504D01*
X008934Y004504D01*
X008934Y004722D01*
X008934Y004562D02*
X008994Y004562D01*
X008994Y004620D02*
X008934Y004620D01*
X008934Y004678D02*
X008994Y004678D01*
X008797Y004722D02*
X008737Y004722D01*
X008797Y004722D02*
X008797Y004504D01*
X008737Y004504D01*
X008737Y004722D01*
X008737Y004562D02*
X008797Y004562D01*
X008797Y004620D02*
X008737Y004620D01*
X008737Y004678D02*
X008797Y004678D01*
X008600Y004722D02*
X008540Y004722D01*
X008600Y004722D02*
X008600Y004504D01*
X008540Y004504D01*
X008540Y004722D01*
X008540Y004562D02*
X008600Y004562D01*
X008600Y004620D02*
X008540Y004620D01*
X008540Y004678D02*
X008600Y004678D01*
X008403Y004722D02*
X008343Y004722D01*
X008403Y004722D02*
X008403Y004504D01*
X008343Y004504D01*
X008343Y004722D01*
X008343Y004562D02*
X008403Y004562D01*
X008403Y004620D02*
X008343Y004620D01*
X008343Y004678D02*
X008403Y004678D01*
X008207Y004722D02*
X008147Y004722D01*
X008207Y004722D02*
X008207Y004504D01*
X008147Y004504D01*
X008147Y004722D01*
X008147Y004562D02*
X008207Y004562D01*
X008207Y004620D02*
X008147Y004620D01*
X008147Y004678D02*
X008207Y004678D01*
X008010Y004722D02*
X007950Y004722D01*
X008010Y004722D02*
X008010Y004504D01*
X007950Y004504D01*
X007950Y004722D01*
X007950Y004562D02*
X008010Y004562D01*
X008010Y004620D02*
X007950Y004620D01*
X007950Y004678D02*
X008010Y004678D01*
X007813Y004722D02*
X007753Y004722D01*
X007813Y004722D02*
X007813Y004504D01*
X007753Y004504D01*
X007753Y004722D01*
X007753Y004562D02*
X007813Y004562D01*
X007813Y004620D02*
X007753Y004620D01*
X007753Y004678D02*
X007813Y004678D01*
X007616Y004722D02*
X007556Y004722D01*
X007616Y004722D02*
X007616Y004504D01*
X007556Y004504D01*
X007556Y004722D01*
X007556Y004562D02*
X007616Y004562D01*
X007616Y004620D02*
X007556Y004620D01*
X007556Y004678D02*
X007616Y004678D01*
X007459Y004406D02*
X007241Y004406D01*
X007459Y004406D02*
X007459Y004346D01*
X007241Y004346D01*
X007241Y004406D01*
X007241Y004404D02*
X007459Y004404D01*
X007459Y004210D02*
X007241Y004210D01*
X007459Y004210D02*
X007459Y004150D01*
X007241Y004150D01*
X007241Y004210D01*
X007241Y004208D02*
X007459Y004208D01*
X007459Y004013D02*
X007241Y004013D01*
X007459Y004013D02*
X007459Y003953D01*
X007241Y003953D01*
X007241Y004013D01*
X007241Y004011D02*
X007459Y004011D01*
X007459Y003816D02*
X007241Y003816D01*
X007459Y003816D02*
X007459Y003756D01*
X007241Y003756D01*
X007241Y003816D01*
X007241Y003814D02*
X007459Y003814D01*
X007459Y003619D02*
X007241Y003619D01*
X007459Y003619D02*
X007459Y003559D01*
X007241Y003559D01*
X007241Y003619D01*
X007241Y003617D02*
X007459Y003617D01*
X007459Y003422D02*
X007241Y003422D01*
X007459Y003422D02*
X007459Y003362D01*
X007241Y003362D01*
X007241Y003422D01*
X007241Y003420D02*
X007459Y003420D01*
X007459Y003225D02*
X007241Y003225D01*
X007459Y003225D02*
X007459Y003165D01*
X007241Y003165D01*
X007241Y003225D01*
X007241Y003223D02*
X007459Y003223D01*
X007459Y003029D02*
X007241Y003029D01*
X007459Y003029D02*
X007459Y002969D01*
X007241Y002969D01*
X007241Y003029D01*
X007241Y003027D02*
X007459Y003027D01*
X007556Y002871D02*
X007616Y002871D01*
X007616Y002653D01*
X007556Y002653D01*
X007556Y002871D01*
X007556Y002711D02*
X007616Y002711D01*
X007616Y002769D02*
X007556Y002769D01*
X007556Y002827D02*
X007616Y002827D01*
X007753Y002871D02*
X007813Y002871D01*
X007813Y002653D01*
X007753Y002653D01*
X007753Y002871D01*
X007753Y002711D02*
X007813Y002711D01*
X007813Y002769D02*
X007753Y002769D01*
X007753Y002827D02*
X007813Y002827D01*
X007950Y002871D02*
X008010Y002871D01*
X008010Y002653D01*
X007950Y002653D01*
X007950Y002871D01*
X007950Y002711D02*
X008010Y002711D01*
X008010Y002769D02*
X007950Y002769D01*
X007950Y002827D02*
X008010Y002827D01*
X008147Y002871D02*
X008207Y002871D01*
X008207Y002653D01*
X008147Y002653D01*
X008147Y002871D01*
X008147Y002711D02*
X008207Y002711D01*
X008207Y002769D02*
X008147Y002769D01*
X008147Y002827D02*
X008207Y002827D01*
X008343Y002871D02*
X008403Y002871D01*
X008403Y002653D01*
X008343Y002653D01*
X008343Y002871D01*
X008343Y002711D02*
X008403Y002711D01*
X008403Y002769D02*
X008343Y002769D01*
X008343Y002827D02*
X008403Y002827D01*
X008540Y002871D02*
X008600Y002871D01*
X008600Y002653D01*
X008540Y002653D01*
X008540Y002871D01*
X008540Y002711D02*
X008600Y002711D01*
X008600Y002769D02*
X008540Y002769D01*
X008540Y002827D02*
X008600Y002827D01*
X008737Y002871D02*
X008797Y002871D01*
X008797Y002653D01*
X008737Y002653D01*
X008737Y002871D01*
X008737Y002711D02*
X008797Y002711D01*
X008797Y002769D02*
X008737Y002769D01*
X008737Y002827D02*
X008797Y002827D01*
X008934Y002871D02*
X008994Y002871D01*
X008994Y002653D01*
X008934Y002653D01*
X008934Y002871D01*
X008934Y002711D02*
X008994Y002711D01*
X008994Y002769D02*
X008934Y002769D01*
X008934Y002827D02*
X008994Y002827D01*
X009091Y003029D02*
X009309Y003029D01*
X009309Y002969D01*
X009091Y002969D01*
X009091Y003029D01*
X009091Y003027D02*
X009309Y003027D01*
X009309Y003225D02*
X009091Y003225D01*
X009309Y003225D02*
X009309Y003165D01*
X009091Y003165D01*
X009091Y003225D01*
X009091Y003223D02*
X009309Y003223D01*
X009309Y003422D02*
X009091Y003422D01*
X009309Y003422D02*
X009309Y003362D01*
X009091Y003362D01*
X009091Y003422D01*
X009091Y003420D02*
X009309Y003420D01*
X009309Y003619D02*
X009091Y003619D01*
X009309Y003619D02*
X009309Y003559D01*
X009091Y003559D01*
X009091Y003619D01*
X009091Y003617D02*
X009309Y003617D01*
X009309Y003816D02*
X009091Y003816D01*
X009309Y003816D02*
X009309Y003756D01*
X009091Y003756D01*
X009091Y003816D01*
X009091Y003814D02*
X009309Y003814D01*
X009309Y004013D02*
X009091Y004013D01*
X009309Y004013D02*
X009309Y003953D01*
X009091Y003953D01*
X009091Y004013D01*
X009091Y004011D02*
X009309Y004011D01*
X009309Y004210D02*
X009091Y004210D01*
X009309Y004210D02*
X009309Y004150D01*
X009091Y004150D01*
X009091Y004210D01*
X009091Y004208D02*
X009309Y004208D01*
X009309Y004406D02*
X009091Y004406D01*
X009309Y004406D02*
X009309Y004346D01*
X009091Y004346D01*
X009091Y004406D01*
X009091Y004404D02*
X009309Y004404D01*
D13*
X008838Y004251D02*
X007712Y004251D01*
X008838Y004251D02*
X008838Y003125D01*
X007712Y003125D01*
X007712Y004251D01*
X007712Y003249D02*
X008838Y003249D01*
X008838Y003373D02*
X007712Y003373D01*
X007712Y003497D02*
X008838Y003497D01*
X008838Y003621D02*
X007712Y003621D01*
X007712Y003745D02*
X008838Y003745D01*
X008838Y003869D02*
X007712Y003869D01*
X007712Y003993D02*
X008838Y003993D01*
X008838Y004117D02*
X007712Y004117D01*
X007712Y004241D02*
X008838Y004241D01*
D14*
X010450Y004263D02*
X010450Y004413D01*
X010450Y004263D02*
X009900Y004263D01*
X009900Y004413D01*
X010450Y004413D01*
X010450Y004412D02*
X009900Y004412D01*
X010450Y004763D02*
X010450Y004913D01*
X010450Y004763D02*
X009900Y004763D01*
X009900Y004913D01*
X010450Y004913D01*
X010450Y004912D02*
X009900Y004912D01*
X010450Y003913D02*
X010450Y003763D01*
X009900Y003763D01*
X009900Y003913D01*
X010450Y003913D01*
X010450Y003912D02*
X009900Y003912D01*
X011500Y003088D02*
X011650Y003088D01*
X011650Y002888D01*
X011500Y002888D01*
X011500Y003088D01*
X011500Y003037D02*
X011650Y003037D01*
X012100Y003088D02*
X012250Y003088D01*
X012250Y002888D01*
X012100Y002888D01*
X012100Y003088D01*
X012100Y003037D02*
X012250Y003037D01*
X012250Y002588D02*
X012100Y002588D01*
X012250Y002588D02*
X012250Y002388D01*
X012100Y002388D01*
X012100Y002588D01*
X012100Y002537D02*
X012250Y002537D01*
X011650Y002588D02*
X011500Y002588D01*
X011650Y002588D02*
X011650Y002388D01*
X011500Y002388D01*
X011500Y002588D01*
X011500Y002537D02*
X011650Y002537D01*
D15*
X005433Y003388D03*
D16*
X004633Y003388D03*
X003833Y003388D03*
X003833Y002588D03*
X004633Y002588D03*
X005433Y002588D03*
D17*
X010250Y010125D03*
X011050Y010125D03*
D18*
X011823Y009829D02*
X012359Y009829D01*
X012359Y009579D01*
X011823Y009579D01*
X011823Y009829D01*
X011823Y009828D02*
X012359Y009828D01*
X012847Y010616D02*
X013383Y010616D01*
X013383Y010366D01*
X012847Y010366D01*
X012847Y010616D01*
X012847Y010615D02*
X013383Y010615D01*
X012359Y011403D02*
X011823Y011403D01*
X012359Y011403D02*
X012359Y011153D01*
X011823Y011153D01*
X011823Y011403D01*
X011823Y011402D02*
X012359Y011402D01*
X012847Y009041D02*
X013383Y009041D01*
X013383Y008791D01*
X012847Y008791D01*
X012847Y009041D01*
X012847Y009040D02*
X013383Y009040D01*
X012359Y008254D02*
X011823Y008254D01*
X012359Y008254D02*
X012359Y008004D01*
X011823Y008004D01*
X011823Y008254D01*
X011823Y008253D02*
X012359Y008253D01*
X012847Y007466D02*
X013383Y007466D01*
X013383Y007216D01*
X012847Y007216D01*
X012847Y007466D01*
X012847Y007465D02*
X013383Y007465D01*
X012359Y006679D02*
X011823Y006679D01*
X012359Y006679D02*
X012359Y006429D01*
X011823Y006429D01*
X011823Y006679D01*
X011823Y006678D02*
X012359Y006678D01*
X012847Y005891D02*
X013383Y005891D01*
X013383Y005641D01*
X012847Y005641D01*
X012847Y005891D01*
X012847Y005890D02*
X013383Y005890D01*
X012359Y005104D02*
X011823Y005104D01*
X012359Y005104D02*
X012359Y004854D01*
X011823Y004854D01*
X011823Y005104D01*
X011823Y005103D02*
X012359Y005103D01*
X012847Y004317D02*
X013383Y004317D01*
X013383Y004067D01*
X012847Y004067D01*
X012847Y004317D01*
X012847Y004316D02*
X013383Y004316D01*
X004722Y004317D02*
X004186Y004317D01*
X004722Y004317D02*
X004722Y004067D01*
X004186Y004067D01*
X004186Y004317D01*
X004186Y004316D02*
X004722Y004316D01*
X003698Y005104D02*
X003162Y005104D01*
X003698Y005104D02*
X003698Y004854D01*
X003162Y004854D01*
X003162Y005104D01*
X003162Y005103D02*
X003698Y005103D01*
X004186Y005891D02*
X004722Y005891D01*
X004722Y005641D01*
X004186Y005641D01*
X004186Y005891D01*
X004186Y005890D02*
X004722Y005890D01*
X003698Y006679D02*
X003162Y006679D01*
X003698Y006679D02*
X003698Y006429D01*
X003162Y006429D01*
X003162Y006679D01*
X003162Y006678D02*
X003698Y006678D01*
X004186Y007466D02*
X004722Y007466D01*
X004722Y007216D01*
X004186Y007216D01*
X004186Y007466D01*
X004186Y007465D02*
X004722Y007465D01*
X003698Y008254D02*
X003162Y008254D01*
X003698Y008254D02*
X003698Y008004D01*
X003162Y008004D01*
X003162Y008254D01*
X003162Y008253D02*
X003698Y008253D01*
X004186Y009041D02*
X004722Y009041D01*
X004722Y008791D01*
X004186Y008791D01*
X004186Y009041D01*
X004186Y009040D02*
X004722Y009040D01*
X003698Y009829D02*
X003162Y009829D01*
X003698Y009829D02*
X003698Y009579D01*
X003162Y009579D01*
X003162Y009829D01*
X003162Y009828D02*
X003698Y009828D01*
X004186Y010616D02*
X004722Y010616D01*
X004722Y010366D01*
X004186Y010366D01*
X004186Y010616D01*
X004186Y010615D02*
X004722Y010615D01*
X003698Y011403D02*
X003162Y011403D01*
X003698Y011403D02*
X003698Y011153D01*
X003162Y011153D01*
X003162Y011403D01*
X003162Y011402D02*
X003698Y011402D01*
D19*
X007138Y009256D03*
X007625Y009256D03*
X008113Y009393D03*
X008113Y009882D03*
X008113Y010393D03*
X008113Y008882D03*
X007625Y008744D03*
X007138Y008744D03*
X006900Y007868D03*
X006400Y007868D03*
X006400Y007357D03*
X006900Y007357D03*
X006900Y006781D03*
X006400Y006781D03*
X006400Y006269D03*
X006900Y006269D03*
X009650Y006982D03*
X009650Y007493D03*
D20*
X010394Y008363D03*
X010181Y008900D03*
X009669Y008900D03*
X009181Y008900D03*
X008669Y008900D03*
X008643Y008288D03*
X008132Y008288D03*
X007618Y009750D03*
X007107Y009750D03*
X007132Y010375D03*
X007643Y010375D03*
X009669Y009400D03*
X010181Y009400D03*
X010906Y008363D03*
X010906Y006113D03*
X010394Y006113D03*
D21*
X008275Y006988D03*
D22*
X008275Y007669D02*
X008275Y007823D01*
X008469Y007823D02*
X008469Y007669D01*
X008663Y007669D02*
X008663Y007823D01*
X008956Y007376D02*
X009110Y007376D01*
X009110Y007182D02*
X008956Y007182D01*
X008956Y006988D02*
X009110Y006988D01*
X009110Y006793D02*
X008956Y006793D01*
X008956Y006599D02*
X009110Y006599D01*
X008663Y006306D02*
X008663Y006152D01*
X008469Y006152D02*
X008469Y006306D01*
X008275Y006306D02*
X008275Y006152D01*
X008081Y006152D02*
X008081Y006306D01*
X007887Y006306D02*
X007887Y006152D01*
X007594Y006599D02*
X007440Y006599D01*
X007440Y006793D02*
X007594Y006793D01*
X007594Y006988D02*
X007440Y006988D01*
X007440Y007182D02*
X007594Y007182D01*
X007594Y007376D02*
X007440Y007376D01*
X007887Y007669D02*
X007887Y007823D01*
X008081Y007823D02*
X008081Y007669D01*
D23*
X010338Y007600D02*
X010338Y007876D01*
X010338Y007600D02*
X010162Y007600D01*
X010162Y007876D01*
X010338Y007876D01*
X010338Y007774D02*
X010162Y007774D01*
X011138Y007876D02*
X011138Y007600D01*
X010962Y007600D01*
X010962Y007876D01*
X011138Y007876D01*
X011138Y007774D02*
X010962Y007774D01*
X011138Y006876D02*
X011138Y006600D01*
X010962Y006600D01*
X010962Y006876D01*
X011138Y006876D01*
X011138Y006774D02*
X010962Y006774D01*
X010338Y006876D02*
X010338Y006600D01*
X010162Y006600D01*
X010162Y006876D01*
X010338Y006876D01*
X010338Y006774D02*
X010162Y006774D01*
D24*
X005925Y008700D03*
X005925Y010000D03*
D25*
X005965Y010014D02*
X006858Y010014D01*
X006857Y010013D02*
X006838Y009981D01*
X006829Y009946D01*
X006829Y009779D01*
X007078Y009779D01*
X007078Y010058D01*
X007103Y010058D01*
X007103Y010346D01*
X007160Y010346D01*
X007160Y010067D01*
X007135Y010067D01*
X007135Y009779D01*
X007078Y009779D01*
X007078Y009721D01*
X006829Y009721D01*
X006829Y009705D01*
X006768Y009730D01*
X006657Y009730D01*
X006554Y009687D01*
X006475Y009609D01*
X006433Y009506D01*
X006433Y009394D01*
X006475Y009291D01*
X006554Y009213D01*
X006657Y009170D01*
X006710Y009170D01*
X006800Y009079D01*
X006800Y009052D01*
X006866Y008986D01*
X006848Y008968D01*
X006830Y008936D01*
X006820Y008900D01*
X006820Y008773D01*
X007109Y008773D01*
X007109Y008715D01*
X007166Y008715D01*
X007166Y008466D01*
X007333Y008466D01*
X007356Y008472D01*
X007382Y008446D01*
X007405Y008446D01*
X007405Y007971D01*
X007445Y007931D01*
X007445Y007907D01*
X007488Y007804D01*
X007566Y007725D01*
X007667Y007684D01*
X007667Y007654D01*
X007669Y007652D01*
X007669Y007594D01*
X007525Y007594D01*
X007525Y007595D01*
X007425Y007695D01*
X007237Y007883D01*
X007237Y008072D01*
X007143Y008166D01*
X006657Y008166D01*
X006628Y008138D01*
X006596Y008146D01*
X006429Y008146D01*
X006429Y007897D01*
X006371Y007897D01*
X006371Y008146D01*
X006204Y008146D01*
X006203Y008146D01*
X006217Y008182D01*
X006217Y008293D01*
X006213Y008304D01*
X006483Y008304D01*
X006577Y008398D01*
X006577Y009003D01*
X006483Y009097D01*
X005367Y009097D01*
X005273Y009003D01*
X005273Y008398D01*
X005367Y008304D01*
X005662Y008304D01*
X005658Y008293D01*
X005658Y008182D01*
X005688Y008108D01*
X005646Y008150D01*
X005543Y008192D01*
X005432Y008192D01*
X005329Y008150D01*
X005250Y008071D01*
X005208Y007968D01*
X005208Y007857D01*
X005250Y007754D01*
X005329Y007675D01*
X005432Y007633D01*
X005485Y007633D01*
X005513Y007605D01*
X005513Y006992D01*
X005775Y006730D01*
X005775Y006358D01*
X005738Y006321D01*
X005695Y006218D01*
X005695Y006107D01*
X005698Y006100D01*
X005542Y006100D01*
X005425Y005983D01*
X005253Y005811D01*
X005250Y005810D01*
X005250Y006308D01*
X004921Y006637D01*
X004804Y006754D01*
X003976Y006754D01*
X003940Y006840D01*
X003860Y006921D01*
X003755Y006964D01*
X003147Y006964D01*
X003147Y007719D01*
X003755Y007719D01*
X003860Y007762D01*
X003940Y007842D01*
X003984Y007947D01*
X003984Y008310D01*
X003940Y008415D01*
X003860Y008495D01*
X003755Y008539D01*
X003147Y008539D01*
X003147Y009294D01*
X003755Y009294D01*
X003860Y009337D01*
X003940Y009417D01*
X003976Y009504D01*
X004777Y009504D01*
X004813Y009416D01*
X004891Y009338D01*
X004994Y009295D01*
X005106Y009295D01*
X005209Y009338D01*
X005287Y009416D01*
X005330Y009519D01*
X005330Y009631D01*
X005287Y009734D01*
X005209Y009812D01*
X005106Y009855D01*
X005053Y009855D01*
X005004Y009904D01*
X003976Y009904D01*
X003940Y009990D01*
X003860Y010070D01*
X003755Y010114D01*
X003147Y010114D01*
X003147Y010619D01*
X003191Y010575D01*
X003294Y010533D01*
X003406Y010533D01*
X003509Y010575D01*
X003513Y010580D01*
X003483Y010506D01*
X003483Y010394D01*
X003525Y010291D01*
X003604Y010213D01*
X003707Y010170D01*
X003818Y010170D01*
X003921Y010213D01*
X003934Y010226D01*
X003943Y010204D01*
X004023Y010124D01*
X004128Y010081D01*
X004779Y010081D01*
X004884Y010124D01*
X004964Y010204D01*
X005007Y010309D01*
X005007Y010673D01*
X004964Y010777D01*
X004884Y010858D01*
X004779Y010901D01*
X004128Y010901D01*
X004023Y010858D01*
X003943Y010777D01*
X003908Y010693D01*
X003818Y010730D01*
X003707Y010730D01*
X003604Y010687D01*
X003599Y010683D01*
X003630Y010757D01*
X003630Y010868D01*
X003630Y010868D01*
X003630Y010868D01*
X003755Y010868D01*
X003860Y010912D01*
X003940Y010992D01*
X003984Y011097D01*
X003984Y011460D01*
X003952Y011536D01*
X009933Y011529D01*
X009908Y011468D01*
X009908Y011357D01*
X009950Y011254D01*
X009955Y011249D01*
X009889Y011045D01*
X009741Y010840D01*
X009536Y010692D01*
X009295Y010613D01*
X009168Y010603D01*
X008444Y010603D01*
X008356Y010691D01*
X007869Y010691D01*
X007869Y010691D01*
X007847Y010712D01*
X007439Y010712D01*
X007373Y010646D01*
X007355Y010664D01*
X007323Y010683D01*
X007288Y010692D01*
X007160Y010692D01*
X007160Y010404D01*
X007103Y010404D01*
X007103Y010692D01*
X006975Y010692D01*
X006940Y010683D01*
X006908Y010664D01*
X006882Y010638D01*
X006863Y010606D01*
X006854Y010571D01*
X006854Y010404D01*
X007103Y010404D01*
X007103Y010346D01*
X006854Y010346D01*
X006854Y010179D01*
X006863Y010144D01*
X006882Y010112D01*
X006908Y010086D01*
X006940Y010067D01*
X006945Y010066D01*
X006915Y010058D01*
X006883Y010039D01*
X006857Y010013D01*
X006829Y009936D02*
X006557Y009936D01*
X006557Y009960D02*
X005965Y009960D01*
X005965Y010040D01*
X005885Y010040D01*
X005885Y010376D01*
X005414Y010376D01*
X005379Y010366D01*
X005347Y010348D01*
X005321Y010322D01*
X005302Y010290D01*
X005293Y010254D01*
X005293Y010040D01*
X005885Y010040D01*
X005885Y009960D01*
X005293Y009960D01*
X005293Y009745D01*
X005302Y009709D01*
X005321Y009677D01*
X005347Y009651D01*
X005379Y009633D01*
X005414Y009623D01*
X005885Y009623D01*
X005885Y009960D01*
X005965Y009960D01*
X005965Y009623D01*
X006436Y009623D01*
X006471Y009633D01*
X006503Y009651D01*
X006529Y009677D01*
X006548Y009709D01*
X006557Y009745D01*
X006557Y009960D01*
X006557Y010040D02*
X006557Y010254D01*
X006548Y010290D01*
X006529Y010322D01*
X006503Y010348D01*
X006471Y010366D01*
X006436Y010376D01*
X005965Y010376D01*
X005965Y010040D01*
X006557Y010040D01*
X006557Y010093D02*
X006901Y010093D01*
X006856Y010171D02*
X006557Y010171D01*
X006557Y010250D02*
X006854Y010250D01*
X006854Y010328D02*
X006523Y010328D01*
X006854Y010407D02*
X005007Y010407D01*
X005007Y010485D02*
X006854Y010485D01*
X006854Y010564D02*
X005007Y010564D01*
X005007Y010642D02*
X006886Y010642D01*
X007103Y010642D02*
X007160Y010642D01*
X007160Y010564D02*
X007103Y010564D01*
X007103Y010485D02*
X007160Y010485D01*
X007160Y010407D02*
X007103Y010407D01*
X007103Y010328D02*
X007160Y010328D01*
X007160Y010250D02*
X007103Y010250D01*
X007103Y010171D02*
X007160Y010171D01*
X007160Y010093D02*
X007103Y010093D01*
X007078Y010014D02*
X007135Y010014D01*
X007135Y009936D02*
X007078Y009936D01*
X007078Y009857D02*
X007135Y009857D01*
X007078Y009779D02*
X006557Y009779D01*
X006557Y009857D02*
X006829Y009857D01*
X006584Y009700D02*
X006542Y009700D01*
X006488Y009622D02*
X005330Y009622D01*
X005330Y009543D02*
X006448Y009543D01*
X006433Y009465D02*
X005307Y009465D01*
X005257Y009386D02*
X006436Y009386D01*
X006468Y009308D02*
X005136Y009308D01*
X004964Y009203D02*
X005005Y009104D01*
X005062Y009046D01*
X005105Y008943D01*
X005105Y008832D01*
X005062Y008729D01*
X004984Y008650D01*
X004970Y008645D01*
X004964Y008630D01*
X004884Y008549D01*
X004779Y008506D01*
X004128Y008506D01*
X004023Y008549D01*
X003943Y008630D01*
X003900Y008734D01*
X003900Y009098D01*
X003943Y009203D01*
X004023Y009283D01*
X004128Y009326D01*
X004779Y009326D01*
X004884Y009283D01*
X004964Y009203D01*
X004937Y009229D02*
X006538Y009229D01*
X006508Y009072D02*
X006800Y009072D01*
X006859Y008994D02*
X006577Y008994D01*
X006577Y008915D02*
X006824Y008915D01*
X006820Y008837D02*
X006577Y008837D01*
X006577Y008758D02*
X007109Y008758D01*
X007109Y008715D02*
X006820Y008715D01*
X006820Y008588D01*
X006830Y008552D01*
X006848Y008520D01*
X006874Y008494D01*
X006906Y008476D01*
X006942Y008466D01*
X007109Y008466D01*
X007109Y008715D01*
X007109Y008680D02*
X007166Y008680D01*
X007166Y008601D02*
X007109Y008601D01*
X007109Y008523D02*
X007166Y008523D01*
X007405Y008444D02*
X006577Y008444D01*
X006577Y008523D02*
X006847Y008523D01*
X006820Y008601D02*
X006577Y008601D01*
X006577Y008680D02*
X006820Y008680D01*
X006545Y008366D02*
X007405Y008366D01*
X007405Y008287D02*
X006217Y008287D01*
X006217Y008209D02*
X007405Y008209D01*
X007405Y008130D02*
X007180Y008130D01*
X007237Y008052D02*
X007405Y008052D01*
X007405Y007973D02*
X007237Y007973D01*
X007237Y007895D02*
X007450Y007895D01*
X007483Y007816D02*
X007304Y007816D01*
X007383Y007738D02*
X007554Y007738D01*
X007461Y007659D02*
X007667Y007659D01*
X007517Y007376D02*
X007362Y007376D01*
X007325Y007413D01*
X007325Y007513D01*
X007225Y007613D01*
X006969Y007868D01*
X006900Y007868D01*
X006429Y007973D02*
X006371Y007973D01*
X006371Y008052D02*
X006429Y008052D01*
X006429Y008130D02*
X006371Y008130D01*
X005938Y008238D02*
X005938Y008543D01*
X005658Y008287D02*
X003984Y008287D01*
X003984Y008209D02*
X005658Y008209D01*
X005666Y008130D02*
X005679Y008130D01*
X005488Y007913D02*
X005713Y007688D01*
X005713Y007075D01*
X005975Y006813D01*
X005975Y006163D01*
X005695Y006167D02*
X005250Y006167D01*
X005250Y006089D02*
X005531Y006089D01*
X005453Y006010D02*
X005250Y006010D01*
X005250Y005932D02*
X005374Y005932D01*
X005296Y005853D02*
X005250Y005853D01*
X005325Y005600D02*
X005325Y005538D01*
X005325Y005388D01*
X005575Y005138D01*
X006000Y005138D01*
X006500Y004638D01*
X007025Y004638D01*
X007286Y004376D01*
X007350Y004376D01*
X007350Y004180D02*
X007120Y004180D01*
X006938Y004363D01*
X006625Y004288D02*
X006625Y004125D01*
X006625Y003838D01*
X006675Y003788D01*
X006800Y003663D01*
X007000Y003663D01*
X007123Y003786D01*
X007350Y003786D01*
X007342Y003975D02*
X006950Y003975D01*
X006913Y004013D01*
X006625Y004288D02*
X005925Y004988D01*
X005475Y004988D01*
X005050Y005413D01*
X005050Y006225D01*
X004721Y006554D01*
X003430Y006554D01*
X003783Y006952D02*
X004077Y006952D01*
X004128Y006931D02*
X004779Y006931D01*
X004884Y006975D01*
X004964Y007055D01*
X005007Y007160D01*
X005007Y007523D01*
X004964Y007628D01*
X004884Y007708D01*
X004779Y007751D01*
X004128Y007751D01*
X004023Y007708D01*
X003943Y007628D01*
X003900Y007523D01*
X003900Y007160D01*
X003943Y007055D01*
X004023Y006975D01*
X004128Y006931D01*
X003967Y007031D02*
X003147Y007031D01*
X003147Y007109D02*
X003921Y007109D01*
X003900Y007188D02*
X003147Y007188D01*
X003147Y007266D02*
X003900Y007266D01*
X003900Y007345D02*
X003147Y007345D01*
X003147Y007423D02*
X003900Y007423D01*
X003900Y007502D02*
X003147Y007502D01*
X003147Y007580D02*
X003924Y007580D01*
X003975Y007659D02*
X003147Y007659D01*
X003509Y008050D02*
X003430Y008129D01*
X003509Y008050D02*
X003688Y008050D01*
X003984Y008052D02*
X005242Y008052D01*
X005209Y007973D02*
X003984Y007973D01*
X003962Y007895D02*
X005208Y007895D01*
X005224Y007816D02*
X003914Y007816D01*
X003801Y007738D02*
X004095Y007738D01*
X003984Y008130D02*
X005309Y008130D01*
X005305Y008366D02*
X003961Y008366D01*
X003911Y008444D02*
X005273Y008444D01*
X005273Y008523D02*
X004819Y008523D01*
X004935Y008601D02*
X005273Y008601D01*
X005273Y008680D02*
X005013Y008680D01*
X005074Y008758D02*
X005273Y008758D01*
X005273Y008837D02*
X005105Y008837D01*
X005105Y008915D02*
X005273Y008915D01*
X005273Y008994D02*
X005084Y008994D01*
X005036Y009072D02*
X005342Y009072D01*
X004985Y009151D02*
X006729Y009151D01*
X006907Y009256D02*
X007138Y009256D01*
X006907Y009256D02*
X006713Y009450D01*
X005965Y009700D02*
X005885Y009700D01*
X005885Y009779D02*
X005965Y009779D01*
X005965Y009857D02*
X005885Y009857D01*
X005885Y009936D02*
X005965Y009936D01*
X005885Y010014D02*
X003916Y010014D01*
X003963Y009936D02*
X005293Y009936D01*
X005293Y009857D02*
X005051Y009857D01*
X004921Y009704D02*
X005050Y009575D01*
X004921Y009704D02*
X004684Y009704D01*
X004359Y009704D01*
X003430Y009704D01*
X003789Y009308D02*
X004083Y009308D01*
X003970Y009229D02*
X003147Y009229D01*
X003147Y009151D02*
X003922Y009151D01*
X003900Y009072D02*
X003147Y009072D01*
X003147Y008994D02*
X003900Y008994D01*
X003900Y008915D02*
X003147Y008915D01*
X003147Y008837D02*
X003900Y008837D01*
X003900Y008758D02*
X003147Y008758D01*
X003147Y008680D02*
X003923Y008680D01*
X003972Y008601D02*
X003147Y008601D01*
X003794Y008523D02*
X004089Y008523D01*
X004454Y008916D02*
X004791Y008916D01*
X004794Y008919D01*
X004825Y008888D01*
X004824Y009308D02*
X004964Y009308D01*
X004843Y009386D02*
X003909Y009386D01*
X003960Y009465D02*
X004793Y009465D01*
X005242Y009779D02*
X005293Y009779D01*
X005301Y009700D02*
X005308Y009700D01*
X005293Y010093D02*
X004807Y010093D01*
X004930Y010171D02*
X005293Y010171D01*
X005293Y010250D02*
X004983Y010250D01*
X005007Y010328D02*
X005327Y010328D01*
X004987Y010721D02*
X009576Y010721D01*
X009684Y010799D02*
X004942Y010799D01*
X004835Y010878D02*
X009767Y010878D01*
X009825Y010956D02*
X003904Y010956D01*
X003958Y011035D02*
X009882Y011035D01*
X009911Y011113D02*
X003984Y011113D01*
X003984Y011192D02*
X009937Y011192D01*
X009943Y011270D02*
X003984Y011270D01*
X003984Y011349D02*
X009911Y011349D01*
X009908Y011427D02*
X003984Y011427D01*
X003965Y011506D02*
X009923Y011506D01*
X010397Y011227D02*
X010425Y011254D01*
X010467Y011357D01*
X010467Y011468D01*
X010442Y011529D01*
X011566Y011527D01*
X011538Y011460D01*
X011538Y011121D01*
X011238Y010821D01*
X011195Y010718D01*
X011195Y010585D01*
X010759Y010585D01*
X010665Y010491D01*
X010665Y009759D01*
X010759Y009665D01*
X011195Y009665D01*
X011195Y008095D01*
X011167Y008102D01*
X011158Y008102D01*
X011174Y008131D01*
X011184Y008167D01*
X011184Y008334D01*
X010935Y008334D01*
X010935Y008391D01*
X011184Y008391D01*
X011184Y008558D01*
X011174Y008594D01*
X011156Y008626D01*
X011130Y008652D01*
X011098Y008670D01*
X011062Y008680D01*
X010935Y008680D01*
X010935Y008391D01*
X010877Y008391D01*
X010877Y008680D01*
X010750Y008680D01*
X010714Y008670D01*
X010682Y008652D01*
X010664Y008634D01*
X010598Y008700D01*
X010457Y008700D01*
X010459Y008704D01*
X010459Y008871D01*
X010210Y008871D01*
X010210Y008929D01*
X010459Y008929D01*
X010459Y009096D01*
X010449Y009131D01*
X010438Y009150D01*
X010449Y009169D01*
X010459Y009204D01*
X010459Y009371D01*
X010210Y009371D01*
X010210Y009429D01*
X010459Y009429D01*
X010459Y009596D01*
X010449Y009631D01*
X010431Y009663D01*
X010409Y009685D01*
X010493Y009685D01*
X010529Y009695D01*
X010561Y009713D01*
X010587Y009739D01*
X010605Y009771D01*
X010615Y009807D01*
X010615Y010085D01*
X010290Y010085D01*
X010290Y010165D01*
X010210Y010165D01*
X010210Y010565D01*
X010072Y010565D01*
X010277Y010848D01*
X010397Y011218D01*
X010397Y011227D01*
X010389Y011192D02*
X011538Y011192D01*
X011538Y011270D02*
X010432Y011270D01*
X010464Y011349D02*
X011538Y011349D01*
X011538Y011427D02*
X010467Y011427D01*
X010452Y011506D02*
X011557Y011506D01*
X011530Y011113D02*
X010363Y011113D01*
X010338Y011035D02*
X011452Y011035D01*
X011373Y010956D02*
X010312Y010956D01*
X010287Y010878D02*
X011295Y010878D01*
X011229Y010799D02*
X010242Y010799D01*
X010277Y010848D02*
X010277Y010848D01*
X010185Y010721D02*
X011196Y010721D01*
X011195Y010642D02*
X010128Y010642D01*
X010210Y010564D02*
X010290Y010564D01*
X010290Y010565D02*
X010290Y010165D01*
X010615Y010165D01*
X010615Y010443D01*
X010605Y010479D01*
X010587Y010511D01*
X010561Y010537D01*
X010529Y010555D01*
X010493Y010565D01*
X010290Y010565D01*
X010290Y010485D02*
X010210Y010485D01*
X010210Y010407D02*
X010290Y010407D01*
X010290Y010328D02*
X010210Y010328D01*
X010210Y010250D02*
X010290Y010250D01*
X010290Y010171D02*
X010210Y010171D01*
X010210Y010165D02*
X010210Y010085D01*
X009885Y010085D01*
X009885Y009807D01*
X009895Y009771D01*
X009913Y009739D01*
X009939Y009713D01*
X009969Y009696D01*
X009957Y009689D01*
X009939Y009671D01*
X009873Y009737D01*
X009465Y009737D01*
X009371Y009643D01*
X009371Y009237D01*
X008977Y009237D01*
X008925Y009185D01*
X008873Y009237D01*
X008465Y009237D01*
X008450Y009222D01*
X008450Y009597D01*
X008410Y009637D01*
X008450Y009678D01*
X008450Y010086D01*
X008398Y010137D01*
X008444Y010183D01*
X009363Y010183D01*
X009733Y010304D01*
X009733Y010304D01*
X009885Y010414D01*
X009885Y010165D01*
X010210Y010165D01*
X010210Y010093D02*
X008443Y010093D01*
X008431Y010171D02*
X009885Y010171D01*
X009885Y010250D02*
X009567Y010250D01*
X009767Y010328D02*
X009885Y010328D01*
X009875Y010407D02*
X009885Y010407D01*
X009885Y010014D02*
X008450Y010014D01*
X008450Y009936D02*
X009885Y009936D01*
X009885Y009857D02*
X008450Y009857D01*
X008450Y009779D02*
X009893Y009779D01*
X009910Y009700D02*
X009961Y009700D01*
X010152Y009371D02*
X010210Y009371D01*
X010210Y009083D01*
X010210Y008929D01*
X010152Y008929D01*
X010152Y009371D01*
X010210Y009386D02*
X011195Y009386D01*
X011195Y009308D02*
X010459Y009308D01*
X010459Y009229D02*
X011195Y009229D01*
X011195Y009151D02*
X010439Y009151D01*
X010459Y009072D02*
X011195Y009072D01*
X011195Y008994D02*
X010459Y008994D01*
X010459Y008837D02*
X011195Y008837D01*
X011195Y008915D02*
X010210Y008915D01*
X010210Y008994D02*
X010152Y008994D01*
X010152Y009072D02*
X010210Y009072D01*
X010210Y009151D02*
X010152Y009151D01*
X010152Y009229D02*
X010210Y009229D01*
X010210Y009308D02*
X010152Y009308D01*
X010459Y009465D02*
X011195Y009465D01*
X011195Y009543D02*
X010459Y009543D01*
X010452Y009622D02*
X011195Y009622D01*
X010724Y009700D02*
X010539Y009700D01*
X010607Y009779D02*
X010665Y009779D01*
X010665Y009857D02*
X010615Y009857D01*
X010615Y009936D02*
X010665Y009936D01*
X010665Y010014D02*
X010615Y010014D01*
X010665Y010093D02*
X010290Y010093D01*
X010615Y010171D02*
X010665Y010171D01*
X010665Y010250D02*
X010615Y010250D01*
X010615Y010328D02*
X010665Y010328D01*
X010665Y010407D02*
X010615Y010407D01*
X010602Y010485D02*
X010665Y010485D01*
X010737Y010564D02*
X010499Y010564D01*
X009383Y010642D02*
X008405Y010642D01*
X008450Y009700D02*
X009428Y009700D01*
X009371Y009622D02*
X008426Y009622D01*
X008450Y009543D02*
X009371Y009543D01*
X009371Y009465D02*
X008450Y009465D01*
X008450Y009386D02*
X009371Y009386D01*
X009371Y009308D02*
X008450Y009308D01*
X008450Y009229D02*
X008457Y009229D01*
X008669Y008900D02*
X008669Y008313D01*
X008643Y008288D01*
X008469Y008113D01*
X008469Y007746D01*
X008275Y007746D02*
X008275Y008144D01*
X008132Y008288D01*
X008113Y008307D01*
X008113Y008882D01*
X008881Y009229D02*
X008969Y009229D01*
X009181Y008900D02*
X009181Y008263D01*
X008663Y007746D01*
X008315Y007451D02*
X008315Y007028D01*
X008235Y007028D01*
X008235Y007451D01*
X008315Y007451D01*
X008315Y007423D02*
X008235Y007423D01*
X008235Y007345D02*
X008315Y007345D01*
X008315Y007266D02*
X008235Y007266D01*
X008235Y007188D02*
X008315Y007188D01*
X008315Y007109D02*
X008235Y007109D01*
X008235Y007031D02*
X008315Y007031D01*
X008315Y007027D02*
X008762Y007027D01*
X008758Y007014D01*
X008758Y006988D01*
X008842Y006988D01*
X008842Y006988D01*
X008842Y006987D01*
X008758Y006987D01*
X008758Y006961D01*
X008762Y006948D01*
X008315Y006948D01*
X008315Y007027D01*
X008315Y006952D02*
X008760Y006952D01*
X009033Y006988D02*
X008425Y006988D01*
X008425Y007238D01*
X008315Y006947D02*
X008235Y006947D01*
X008235Y006524D01*
X008315Y006524D01*
X008315Y006947D01*
X008315Y006874D02*
X008235Y006874D01*
X008235Y006795D02*
X008315Y006795D01*
X008315Y006717D02*
X008235Y006717D01*
X008235Y006638D02*
X008315Y006638D01*
X008315Y006560D02*
X008235Y006560D01*
X008425Y006599D02*
X008425Y006738D01*
X008475Y006738D01*
X009325Y005888D01*
X009255Y005988D02*
X009518Y005988D01*
X009633Y005872D01*
X009579Y005850D01*
X009500Y005771D01*
X009458Y005668D01*
X009458Y005557D01*
X009500Y005454D01*
X009538Y005417D01*
X009538Y005392D01*
X009655Y005275D01*
X009725Y005205D01*
X009792Y005137D01*
X009757Y005102D01*
X009734Y005125D01*
X009631Y005167D01*
X009519Y005167D01*
X009416Y005125D01*
X009400Y005108D01*
X009384Y005125D01*
X009281Y005167D01*
X009169Y005167D01*
X009066Y005125D01*
X009029Y005087D01*
X008955Y005087D01*
X008955Y005093D01*
X008912Y005196D01*
X008834Y005275D01*
X008731Y005317D01*
X008619Y005317D01*
X008516Y005275D01*
X008512Y005271D01*
X008509Y005275D01*
X008406Y005317D01*
X008388Y005317D01*
X008462Y005392D01*
X008863Y005793D01*
X008863Y006044D01*
X008881Y006062D01*
X008881Y006381D01*
X008938Y006381D01*
X008938Y006305D01*
X009055Y006188D01*
X009255Y005988D01*
X009232Y006010D02*
X008863Y006010D01*
X008863Y005932D02*
X009573Y005932D01*
X009588Y005853D02*
X008863Y005853D01*
X008845Y005775D02*
X009504Y005775D01*
X009469Y005696D02*
X008767Y005696D01*
X008688Y005618D02*
X009458Y005618D01*
X009465Y005539D02*
X008610Y005539D01*
X008531Y005461D02*
X009497Y005461D01*
X009547Y005382D02*
X008453Y005382D01*
X008438Y005304D02*
X008587Y005304D01*
X008763Y005304D02*
X009626Y005304D01*
X009704Y005225D02*
X008883Y005225D01*
X008933Y005147D02*
X009120Y005147D01*
X009330Y005147D02*
X009470Y005147D01*
X009680Y005147D02*
X009783Y005147D01*
X009925Y005288D02*
X010525Y005288D01*
X011000Y005288D01*
X011200Y005088D01*
X011200Y004113D01*
X010675Y003588D01*
X010086Y002999D01*
X009200Y002999D01*
X009200Y003195D02*
X009883Y003195D01*
X009975Y003288D01*
X009575Y003689D02*
X009575Y003883D01*
X009475Y003983D01*
X009200Y003983D01*
X009200Y003786D02*
X008373Y003786D01*
X008275Y003688D01*
X008625Y004038D01*
X008625Y004088D01*
X008275Y003688D02*
X008625Y003338D01*
X008625Y003288D01*
X008570Y003392D02*
X008275Y003688D01*
X008177Y003589D01*
X007350Y003589D01*
X007350Y003392D02*
X006945Y003392D01*
X006875Y003463D01*
X006725Y003463D01*
X006663Y003525D01*
X006463Y003725D01*
X006463Y004200D01*
X005825Y004838D01*
X005325Y004838D01*
X005063Y005100D01*
X004800Y005363D01*
X004263Y005363D01*
X003838Y005363D01*
X003625Y005575D01*
X003430Y004979D02*
X003822Y004588D01*
X004813Y004588D01*
X005013Y004388D01*
X005050Y004350D01*
X005450Y004350D01*
X006000Y003800D01*
X006000Y003425D01*
X006038Y003388D01*
X006588Y002838D01*
X006738Y002838D01*
X006938Y002838D01*
X007075Y002700D01*
X007585Y002700D01*
X007586Y002699D01*
X007586Y002762D01*
X007350Y002999D02*
X007236Y002999D01*
X007210Y003025D01*
X006763Y003025D01*
X006663Y003025D01*
X006663Y003038D01*
X006150Y003550D01*
X006150Y003975D01*
X006138Y003975D01*
X005613Y004500D01*
X005213Y004500D01*
X005175Y004538D01*
X004900Y004813D01*
X004675Y004813D01*
X004625Y004813D01*
X004550Y004888D01*
X004375Y005175D02*
X004188Y004988D01*
X004188Y004938D01*
X004375Y005175D02*
X004763Y005175D01*
X004988Y004950D01*
X005250Y004688D01*
X005275Y004663D01*
X005738Y004663D01*
X006288Y004113D01*
X006300Y004113D01*
X006300Y003675D01*
X006767Y003208D01*
X006767Y003195D01*
X006830Y003195D01*
X007350Y003195D01*
X007783Y002762D02*
X007783Y002595D01*
X007675Y002488D01*
X006950Y002488D01*
X006688Y002488D01*
X005950Y003225D01*
X005850Y003325D01*
X005850Y003625D01*
X005283Y004192D01*
X005121Y004192D01*
X004454Y004192D01*
X004487Y003782D02*
X004128Y003782D01*
X004023Y003825D01*
X003943Y003905D01*
X003900Y004010D01*
X003900Y004373D01*
X003906Y004388D01*
X003739Y004388D01*
X003557Y004569D01*
X003147Y004569D01*
X003147Y002060D01*
X004295Y002060D01*
X004142Y002213D01*
X004142Y002213D01*
X004082Y002273D01*
X004022Y002233D01*
X003949Y002203D01*
X003872Y002188D01*
X003872Y002547D01*
X003793Y002547D01*
X003793Y002188D01*
X003716Y002203D01*
X003643Y002233D01*
X003578Y002277D01*
X003522Y002333D01*
X003478Y002398D01*
X003448Y002471D01*
X003433Y002548D01*
X003792Y002548D01*
X003792Y002627D01*
X003433Y002627D01*
X003448Y002704D01*
X003478Y002777D01*
X003522Y002842D01*
X003578Y002898D01*
X003643Y002942D01*
X003716Y002972D01*
X003731Y002975D01*
X003595Y003031D01*
X003476Y003150D01*
X003413Y003304D01*
X003413Y003471D01*
X003476Y003625D01*
X003595Y003744D01*
X003749Y003807D01*
X003916Y003807D01*
X004070Y003744D01*
X004189Y003625D01*
X004233Y003519D01*
X004276Y003625D01*
X004395Y003744D01*
X004487Y003782D01*
X004385Y003734D02*
X004080Y003734D01*
X004054Y003812D02*
X003147Y003812D01*
X003147Y003734D02*
X003585Y003734D01*
X003507Y003655D02*
X003147Y003655D01*
X003147Y003577D02*
X003456Y003577D01*
X003424Y003498D02*
X003147Y003498D01*
X003147Y003420D02*
X003413Y003420D01*
X003413Y003341D02*
X003147Y003341D01*
X003147Y003263D02*
X003429Y003263D01*
X003462Y003184D02*
X003147Y003184D01*
X003147Y003106D02*
X003520Y003106D01*
X003604Y003027D02*
X003147Y003027D01*
X003147Y002949D02*
X003660Y002949D01*
X003550Y002870D02*
X003147Y002870D01*
X003147Y002792D02*
X003488Y002792D01*
X003452Y002713D02*
X003147Y002713D01*
X003147Y002635D02*
X003434Y002635D01*
X003446Y002478D02*
X003147Y002478D01*
X003147Y002556D02*
X003792Y002556D01*
X003793Y002478D02*
X003872Y002478D01*
X003872Y002399D02*
X003793Y002399D01*
X003793Y002321D02*
X003872Y002321D01*
X003872Y002242D02*
X003793Y002242D01*
X003629Y002242D02*
X003147Y002242D01*
X003147Y002164D02*
X004191Y002164D01*
X004269Y002085D02*
X003147Y002085D01*
X003147Y002321D02*
X003533Y002321D01*
X003477Y002399D02*
X003147Y002399D01*
X004036Y002242D02*
X004112Y002242D01*
X004225Y002413D02*
X004600Y002038D01*
X008375Y002038D01*
X008525Y002038D01*
X010025Y002038D01*
X010975Y002988D01*
X011575Y002988D01*
X011575Y003175D01*
X011750Y003350D01*
X011575Y002988D02*
X011575Y002488D01*
X011265Y002478D02*
X010748Y002478D01*
X010670Y002399D02*
X011265Y002399D01*
X011265Y002321D02*
X010591Y002321D01*
X010513Y002242D02*
X011313Y002242D01*
X011265Y002290D02*
X011403Y002153D01*
X011747Y002153D01*
X011875Y002280D01*
X012003Y002153D01*
X012347Y002153D01*
X012407Y002212D01*
X012419Y002208D01*
X012531Y002208D01*
X012634Y002250D01*
X012712Y002329D01*
X012755Y002432D01*
X012755Y002543D01*
X012712Y002646D01*
X012634Y002725D01*
X012531Y002767D01*
X012462Y002767D01*
X012485Y002790D01*
X012485Y003185D01*
X012375Y003295D01*
X012375Y004569D01*
X012417Y004569D01*
X012522Y004612D01*
X012602Y004693D01*
X012645Y004797D01*
X012645Y004948D01*
X012682Y004933D01*
X012793Y004933D01*
X012896Y004975D01*
X012975Y005054D01*
X013017Y005157D01*
X013017Y005268D01*
X012981Y005356D01*
X013403Y005356D01*
X013403Y004582D01*
X013155Y004582D01*
X013155Y004232D01*
X013075Y004232D01*
X013075Y004582D01*
X012820Y004582D01*
X012769Y004572D01*
X012721Y004552D01*
X012677Y004523D01*
X012640Y004486D01*
X012611Y004442D01*
X012592Y004394D01*
X012581Y004343D01*
X012581Y004232D01*
X013075Y004232D01*
X013075Y004152D01*
X012581Y004152D01*
X012581Y004041D01*
X012592Y003989D01*
X012611Y003941D01*
X012640Y003898D01*
X012677Y003861D01*
X012721Y003832D01*
X012769Y003812D01*
X012820Y003802D01*
X013075Y003802D01*
X013075Y004152D01*
X013155Y004152D01*
X013155Y003802D01*
X013403Y003802D01*
X013403Y002060D01*
X010330Y002060D01*
X011058Y002788D01*
X011268Y002788D01*
X011318Y002737D01*
X011265Y002685D01*
X011265Y002290D01*
X011391Y002164D02*
X010434Y002164D01*
X010356Y002085D02*
X013403Y002085D01*
X013403Y002164D02*
X012359Y002164D01*
X012615Y002242D02*
X013403Y002242D01*
X013403Y002321D02*
X012704Y002321D01*
X012742Y002399D02*
X013403Y002399D01*
X013403Y002478D02*
X012755Y002478D01*
X012749Y002556D02*
X013403Y002556D01*
X013403Y002635D02*
X012717Y002635D01*
X012645Y002713D02*
X013403Y002713D01*
X013403Y002792D02*
X012485Y002792D01*
X012485Y002870D02*
X013403Y002870D01*
X013403Y002949D02*
X012485Y002949D01*
X012485Y003027D02*
X013403Y003027D01*
X013403Y003106D02*
X012485Y003106D01*
X012485Y003184D02*
X013403Y003184D01*
X013403Y003263D02*
X012407Y003263D01*
X012375Y003341D02*
X013403Y003341D01*
X013403Y003420D02*
X012375Y003420D01*
X012375Y003498D02*
X013403Y003498D01*
X013403Y003577D02*
X012375Y003577D01*
X012375Y003655D02*
X013403Y003655D01*
X013403Y003734D02*
X012375Y003734D01*
X012375Y003812D02*
X012768Y003812D01*
X012647Y003891D02*
X012375Y003891D01*
X012375Y003969D02*
X012600Y003969D01*
X012581Y004048D02*
X012375Y004048D01*
X012375Y004126D02*
X012581Y004126D01*
X012581Y004283D02*
X012375Y004283D01*
X012375Y004205D02*
X013075Y004205D01*
X013075Y004283D02*
X013155Y004283D01*
X013155Y004362D02*
X013075Y004362D01*
X013075Y004440D02*
X013155Y004440D01*
X013155Y004519D02*
X013075Y004519D01*
X013403Y004597D02*
X012485Y004597D01*
X012585Y004676D02*
X013403Y004676D01*
X013403Y004754D02*
X012627Y004754D01*
X012645Y004833D02*
X013403Y004833D01*
X013403Y004911D02*
X012645Y004911D01*
X012911Y004990D02*
X013403Y004990D01*
X013403Y005068D02*
X012981Y005068D01*
X013013Y005147D02*
X013403Y005147D01*
X013403Y005225D02*
X013017Y005225D01*
X013003Y005304D02*
X013403Y005304D01*
X013115Y005766D02*
X012084Y005766D01*
X011921Y005766D01*
X011850Y005838D01*
X011713Y005400D02*
X012138Y005400D01*
X012550Y005400D01*
X012738Y005213D01*
X012175Y004979D02*
X012091Y004979D01*
X012175Y004979D02*
X012175Y002988D01*
X012175Y002488D02*
X012475Y002488D01*
X011991Y002164D02*
X011759Y002164D01*
X011837Y002242D02*
X011913Y002242D01*
X011265Y002556D02*
X010827Y002556D01*
X010905Y002635D02*
X011265Y002635D01*
X011294Y002713D02*
X010984Y002713D01*
X010825Y003513D02*
X011375Y004063D01*
X011375Y005350D01*
X011131Y005594D01*
X010194Y005594D01*
X009600Y006188D01*
X009338Y006188D01*
X009138Y006388D01*
X009138Y006495D01*
X009033Y006599D01*
X008938Y006324D02*
X008881Y006324D01*
X008881Y006246D02*
X008996Y006246D01*
X009075Y006167D02*
X008881Y006167D01*
X008881Y006089D02*
X009153Y006089D01*
X008663Y006229D02*
X008663Y005876D01*
X008263Y005475D01*
X007700Y005475D01*
X007638Y005413D01*
X007488Y005413D01*
X007438Y005363D01*
X007138Y005363D01*
X007063Y005363D01*
X006875Y005550D01*
X006675Y005550D01*
X006488Y005788D02*
X006288Y005788D01*
X006063Y005563D01*
X006063Y005538D01*
X006313Y005288D01*
X006338Y005288D01*
X006863Y005288D01*
X007175Y004975D01*
X007250Y004975D01*
X007338Y004888D01*
X007675Y004888D01*
X007783Y004780D01*
X007783Y004613D01*
X007980Y004613D02*
X007980Y004833D01*
X007675Y005138D01*
X007675Y005175D01*
X008025Y005188D02*
X008025Y005013D01*
X008177Y004861D01*
X008177Y004613D01*
X008373Y004613D02*
X008373Y005014D01*
X008350Y005038D01*
X008570Y004883D02*
X008570Y004613D01*
X008767Y004613D02*
X008767Y004780D01*
X008875Y004888D01*
X009225Y004888D01*
X009350Y004613D02*
X009575Y004838D01*
X009575Y004888D01*
X009350Y004613D02*
X008964Y004613D01*
X009200Y004376D02*
X009464Y004376D01*
X009925Y004838D01*
X010175Y004838D01*
X010210Y004373D02*
X010665Y004373D01*
X010665Y004441D01*
X010650Y004495D01*
X010622Y004545D01*
X010593Y004573D01*
X010685Y004665D01*
X010685Y005010D01*
X010607Y005088D01*
X010917Y005088D01*
X011000Y005005D01*
X011000Y004195D01*
X010685Y003880D01*
X010685Y004010D01*
X010593Y004102D01*
X010622Y004130D01*
X010650Y004180D01*
X010665Y004234D01*
X010665Y004302D01*
X010210Y004302D01*
X010210Y004373D01*
X010210Y004362D02*
X011000Y004362D01*
X011000Y004440D02*
X010665Y004440D01*
X010637Y004519D02*
X011000Y004519D01*
X011000Y004597D02*
X010617Y004597D01*
X010685Y004676D02*
X011000Y004676D01*
X011000Y004754D02*
X010685Y004754D01*
X010685Y004833D02*
X011000Y004833D01*
X011000Y004911D02*
X010685Y004911D01*
X010685Y004990D02*
X011000Y004990D01*
X010936Y005068D02*
X010626Y005068D01*
X010683Y005794D02*
X010277Y005794D01*
X010275Y005795D01*
X010365Y005795D01*
X010365Y006084D01*
X010116Y006084D01*
X010116Y005954D01*
X009800Y006270D01*
X009800Y006270D01*
X009694Y006376D01*
X009717Y006432D01*
X009717Y006543D01*
X009675Y006646D01*
X009649Y006672D01*
X009649Y006684D01*
X009893Y006684D01*
X009987Y006777D01*
X010210Y006777D01*
X010210Y006698D01*
X009935Y006698D01*
X009935Y006570D01*
X009951Y006512D01*
X009980Y006460D01*
X010023Y006418D01*
X010075Y006388D01*
X010133Y006373D01*
X010142Y006373D01*
X010126Y006344D01*
X010116Y006308D01*
X010116Y006141D01*
X010365Y006141D01*
X010365Y006084D01*
X010423Y006084D01*
X010423Y005795D01*
X010550Y005795D01*
X010586Y005805D01*
X010618Y005823D01*
X010636Y005841D01*
X010683Y005794D01*
X010423Y005853D02*
X010365Y005853D01*
X010365Y005932D02*
X010423Y005932D01*
X010423Y006010D02*
X010365Y006010D01*
X010365Y006089D02*
X009982Y006089D01*
X010060Y006010D02*
X010116Y006010D01*
X010116Y006167D02*
X009903Y006167D01*
X009825Y006246D02*
X010116Y006246D01*
X010121Y006324D02*
X009746Y006324D01*
X009706Y006403D02*
X010049Y006403D01*
X009968Y006481D02*
X009717Y006481D01*
X009711Y006560D02*
X009938Y006560D01*
X009935Y006638D02*
X009678Y006638D01*
X009927Y006717D02*
X010210Y006717D01*
X010250Y006738D02*
X010394Y006738D01*
X010394Y006113D01*
X010489Y006430D02*
X010520Y006460D01*
X010549Y006512D01*
X010565Y006570D01*
X010565Y006698D01*
X010290Y006698D01*
X010290Y006777D01*
X010565Y006777D01*
X010565Y006905D01*
X010552Y006952D01*
X010706Y006799D01*
X010706Y006655D01*
X010706Y006450D01*
X010702Y006450D01*
X010636Y006384D01*
X010618Y006402D01*
X010586Y006420D01*
X010550Y006430D01*
X010489Y006430D01*
X010532Y006481D02*
X010706Y006481D01*
X010706Y006560D02*
X010562Y006560D01*
X010565Y006638D02*
X010706Y006638D01*
X010706Y006717D02*
X010290Y006717D01*
X010565Y006795D02*
X010706Y006795D01*
X010631Y006874D02*
X010565Y006874D01*
X010550Y007238D02*
X010025Y007238D01*
X009769Y006982D01*
X009650Y006982D01*
X009450Y007182D01*
X009033Y007182D01*
X009033Y007376D02*
X009151Y007493D01*
X009650Y007493D01*
X010006Y007493D01*
X010250Y007738D01*
X010394Y007738D01*
X010394Y008363D01*
X010096Y008366D02*
X009381Y008366D01*
X009381Y008444D02*
X010096Y008444D01*
X010096Y008523D02*
X009381Y008523D01*
X009381Y008563D02*
X009385Y008563D01*
X009425Y008603D01*
X009465Y008563D01*
X009873Y008563D01*
X009939Y008629D01*
X009957Y008611D01*
X009989Y008592D01*
X010025Y008583D01*
X010096Y008583D01*
X010096Y008119D01*
X010099Y008117D01*
X010022Y008085D01*
X009953Y008015D01*
X009915Y007924D01*
X009915Y007770D01*
X009893Y007791D01*
X009692Y007791D01*
X009730Y007882D01*
X009730Y007993D01*
X009687Y008096D01*
X009609Y008175D01*
X009506Y008217D01*
X009394Y008217D01*
X009381Y008212D01*
X009381Y008563D01*
X009423Y008601D02*
X009427Y008601D01*
X009381Y008287D02*
X010096Y008287D01*
X010096Y008209D02*
X009527Y008209D01*
X009653Y008130D02*
X010096Y008130D01*
X009989Y008052D02*
X009706Y008052D01*
X009730Y007973D02*
X009935Y007973D01*
X009915Y007895D02*
X009730Y007895D01*
X009703Y007816D02*
X009915Y007816D01*
X010250Y007738D02*
X010394Y007882D01*
X010594Y007895D02*
X010735Y007895D01*
X010735Y007905D02*
X010735Y007777D01*
X011010Y007777D01*
X011010Y007698D01*
X010735Y007698D01*
X010735Y007570D01*
X010751Y007512D01*
X010780Y007460D01*
X010823Y007418D01*
X010875Y007388D01*
X010933Y007373D01*
X011010Y007373D01*
X011010Y007697D01*
X011090Y007697D01*
X011090Y007372D01*
X011167Y007373D01*
X011195Y007380D01*
X011195Y007119D01*
X011187Y007122D01*
X010948Y007122D01*
X010633Y007437D01*
X010525Y007437D01*
X010547Y007460D01*
X010585Y007551D01*
X010585Y007646D01*
X010594Y007655D01*
X010594Y008025D01*
X010598Y008025D01*
X010664Y008091D01*
X010682Y008073D01*
X010714Y008055D01*
X010750Y008045D01*
X010811Y008045D01*
X010780Y008015D01*
X010751Y007963D01*
X010735Y007905D01*
X010756Y007973D02*
X010594Y007973D01*
X010624Y008052D02*
X010727Y008052D01*
X010735Y007816D02*
X010594Y007816D01*
X010594Y007738D02*
X011010Y007738D01*
X011010Y007659D02*
X011090Y007659D01*
X011090Y007580D02*
X011010Y007580D01*
X011010Y007502D02*
X011090Y007502D01*
X011090Y007423D02*
X011010Y007423D01*
X010817Y007423D02*
X010647Y007423D01*
X010725Y007345D02*
X011195Y007345D01*
X011195Y007266D02*
X010804Y007266D01*
X010882Y007188D02*
X011195Y007188D01*
X011050Y006738D02*
X010906Y006738D01*
X010906Y006113D01*
X010655Y006403D02*
X010616Y006403D01*
X011050Y006738D02*
X010550Y007238D01*
X010565Y007502D02*
X010756Y007502D01*
X010735Y007580D02*
X010585Y007580D01*
X010594Y007659D02*
X010735Y007659D01*
X011173Y008130D02*
X011195Y008130D01*
X011184Y008209D02*
X011195Y008209D01*
X011184Y008287D02*
X011195Y008287D01*
X011195Y008366D02*
X010935Y008366D01*
X010935Y008444D02*
X010877Y008444D01*
X010877Y008523D02*
X010935Y008523D01*
X010935Y008601D02*
X010877Y008601D01*
X010877Y008680D02*
X010935Y008680D01*
X011063Y008680D02*
X011195Y008680D01*
X011195Y008758D02*
X010459Y008758D01*
X010618Y008680D02*
X010749Y008680D01*
X011170Y008601D02*
X011195Y008601D01*
X011184Y008523D02*
X011195Y008523D01*
X011184Y008444D02*
X011195Y008444D01*
X012091Y008129D02*
X012108Y008113D01*
X012588Y008113D01*
X012475Y008750D02*
X012641Y008916D01*
X013115Y008916D01*
X012200Y009313D02*
X012091Y009421D01*
X012091Y009704D01*
X012963Y009950D02*
X013115Y010103D01*
X013115Y010491D01*
X009974Y008601D02*
X009911Y008601D01*
X009669Y008900D02*
X009669Y009400D01*
X009669Y008900D02*
X009181Y008900D01*
X008081Y007746D02*
X008081Y007393D01*
X007925Y007238D01*
X007925Y007182D01*
X007517Y007182D01*
X007293Y007182D01*
X007163Y007313D01*
X006944Y007313D01*
X006900Y007357D01*
X007138Y007063D02*
X006400Y007063D01*
X006400Y007357D01*
X006400Y007063D02*
X006400Y006988D01*
X006400Y006781D01*
X006900Y006781D02*
X006905Y006788D01*
X006912Y006793D01*
X006920Y006796D01*
X006929Y006796D01*
X006938Y006793D01*
X006937Y006793D02*
X007517Y006793D01*
X007517Y006988D02*
X007213Y006988D01*
X007138Y007063D01*
X007237Y006593D02*
X007332Y006593D01*
X007350Y006576D01*
X007640Y006576D01*
X007640Y006542D01*
X007582Y006542D01*
X007479Y006500D01*
X007400Y006421D01*
X007358Y006318D01*
X007358Y006305D01*
X007269Y006305D01*
X007166Y006262D01*
X007144Y006240D01*
X006929Y006240D01*
X006929Y006175D01*
X006871Y006175D01*
X006871Y006240D01*
X006929Y006240D01*
X006929Y006298D01*
X007217Y006298D01*
X007217Y006425D01*
X007208Y006461D01*
X007189Y006493D01*
X007171Y006511D01*
X007237Y006577D01*
X007237Y006593D01*
X007220Y006560D02*
X007640Y006560D01*
X007517Y006599D02*
X007155Y006238D01*
X006900Y006238D01*
X006900Y006269D01*
X006400Y006269D01*
X006429Y006246D02*
X006871Y006246D01*
X006871Y006240D02*
X006429Y006240D01*
X006429Y006298D01*
X006583Y006298D01*
X006871Y006298D01*
X006871Y006240D01*
X006875Y006238D02*
X006888Y006250D01*
X006925Y006250D01*
X006913Y006238D01*
X006900Y006238D01*
X006875Y006238D01*
X006929Y006246D02*
X007150Y006246D01*
X007217Y006324D02*
X007360Y006324D01*
X007393Y006403D02*
X007217Y006403D01*
X007196Y006481D02*
X007461Y006481D01*
X007517Y006599D02*
X008425Y006599D01*
X008469Y006229D02*
X008469Y005919D01*
X008188Y005638D01*
X007600Y005638D01*
X007538Y005575D01*
X007125Y005575D01*
X006875Y005825D01*
X006525Y005825D01*
X006488Y005788D01*
X006225Y005975D02*
X006150Y005900D01*
X005625Y005900D01*
X005325Y005600D01*
X005713Y005400D02*
X005825Y005288D01*
X006075Y005288D01*
X006575Y004788D01*
X006675Y004788D01*
X006713Y004825D01*
X006713Y005013D01*
X006675Y004788D02*
X007125Y004788D01*
X007300Y004613D01*
X007586Y004613D01*
X007350Y003983D02*
X007349Y003979D01*
X007346Y003976D01*
X007342Y003975D01*
X008570Y003392D02*
X009200Y003392D01*
X009200Y003589D02*
X009475Y003589D01*
X009575Y003689D01*
X009925Y003838D02*
X010175Y003838D01*
X009925Y003838D02*
X009583Y004180D01*
X009200Y004180D01*
X008570Y004883D02*
X008675Y004988D01*
X008675Y005038D01*
X008113Y005788D02*
X007500Y005788D01*
X007450Y005738D01*
X007200Y005738D01*
X007200Y005750D02*
X006975Y005975D01*
X006225Y005975D01*
X005775Y006403D02*
X005155Y006403D01*
X005233Y006324D02*
X005741Y006324D01*
X005707Y006246D02*
X005250Y006246D01*
X005076Y006481D02*
X005775Y006481D01*
X005775Y006560D02*
X004998Y006560D01*
X004921Y006637D02*
X004921Y006637D01*
X004919Y006638D02*
X005775Y006638D01*
X005775Y006717D02*
X004841Y006717D01*
X004830Y006952D02*
X005552Y006952D01*
X005513Y007031D02*
X004940Y007031D01*
X004987Y007109D02*
X005513Y007109D01*
X005513Y007188D02*
X005007Y007188D01*
X005007Y007266D02*
X005513Y007266D01*
X005513Y007345D02*
X005007Y007345D01*
X005007Y007423D02*
X005513Y007423D01*
X005513Y007502D02*
X005007Y007502D01*
X004983Y007580D02*
X005513Y007580D01*
X005368Y007659D02*
X004933Y007659D01*
X004812Y007738D02*
X005267Y007738D01*
X004454Y007341D02*
X004391Y007341D01*
X004275Y007225D01*
X003907Y006874D02*
X005631Y006874D01*
X005709Y006795D02*
X003959Y006795D01*
X004454Y005766D02*
X004375Y005688D01*
X004263Y005688D01*
X003607Y004519D02*
X003147Y004519D01*
X003147Y004440D02*
X003686Y004440D01*
X003900Y004362D02*
X003147Y004362D01*
X003147Y004283D02*
X003900Y004283D01*
X003900Y004205D02*
X003147Y004205D01*
X003147Y004126D02*
X003900Y004126D01*
X003900Y004048D02*
X003147Y004048D01*
X003147Y003969D02*
X003917Y003969D01*
X003958Y003891D02*
X003147Y003891D01*
X003833Y003388D02*
X003945Y003388D01*
X004225Y003108D01*
X004225Y002413D01*
X005025Y003150D02*
X005213Y002963D01*
X006000Y002963D01*
X006388Y002575D01*
X006625Y002338D01*
X007775Y002338D01*
X007980Y002542D01*
X007980Y002762D01*
X008177Y002762D02*
X008177Y002489D01*
X007875Y002188D01*
X006325Y002188D01*
X006175Y002338D01*
X005025Y003150D02*
X005025Y003925D01*
X004307Y003655D02*
X004158Y003655D01*
X004209Y003577D02*
X004256Y003577D01*
X007325Y006025D02*
X007388Y005963D01*
X007963Y005963D01*
X008081Y006081D01*
X008081Y006229D01*
X008275Y006229D02*
X008275Y005950D01*
X008113Y005788D01*
X007887Y006229D02*
X007854Y006263D01*
X007638Y006263D01*
X009738Y005613D02*
X009738Y005475D01*
X009925Y005288D01*
X010665Y004283D02*
X011000Y004283D01*
X011000Y004205D02*
X010657Y004205D01*
X010618Y004126D02*
X010931Y004126D01*
X010853Y004048D02*
X010647Y004048D01*
X010685Y003969D02*
X010774Y003969D01*
X010696Y003891D02*
X010685Y003891D01*
X010825Y003513D02*
X009800Y002488D01*
X009075Y002488D01*
X008964Y002599D01*
X008964Y002762D01*
X008767Y002762D02*
X008767Y002545D01*
X008925Y002388D01*
X008975Y002338D01*
X009863Y002338D01*
X011575Y004050D01*
X011575Y005263D01*
X011713Y005400D01*
X012375Y004519D02*
X012674Y004519D01*
X012611Y004440D02*
X012375Y004440D01*
X012375Y004362D02*
X012585Y004362D01*
X013075Y004126D02*
X013155Y004126D01*
X013155Y004048D02*
X013075Y004048D01*
X013075Y003969D02*
X013155Y003969D01*
X013155Y003891D02*
X013075Y003891D01*
X013075Y003812D02*
X013155Y003812D01*
X011838Y004075D02*
X011838Y004375D01*
X011888Y004425D01*
X011838Y004075D02*
X009950Y002188D01*
X008875Y002188D01*
X008570Y002492D01*
X008570Y002762D01*
X008373Y002762D02*
X008373Y002139D01*
X008375Y002138D01*
X008325Y002088D01*
X008425Y002088D01*
X008375Y002038D01*
X008373Y002039D01*
X008375Y002138D02*
X008375Y002188D01*
X008525Y002038D01*
X008375Y002188D02*
X008225Y002038D01*
X008175Y002038D01*
X011859Y006554D02*
X012091Y006554D01*
X011859Y006554D02*
X011850Y006563D01*
X011863Y007325D02*
X013099Y007325D01*
X013115Y007341D01*
X005965Y010093D02*
X005885Y010093D01*
X005885Y010171D02*
X005965Y010171D01*
X005965Y010250D02*
X005885Y010250D01*
X005885Y010328D02*
X005965Y010328D01*
X004454Y010491D02*
X003803Y010491D01*
X003763Y010450D01*
X003567Y010250D02*
X003147Y010250D01*
X003147Y010328D02*
X003510Y010328D01*
X003483Y010407D02*
X003147Y010407D01*
X003147Y010485D02*
X003483Y010485D01*
X003481Y010564D02*
X003506Y010564D01*
X003615Y010721D02*
X003684Y010721D01*
X003630Y010799D02*
X003965Y010799D01*
X003920Y010721D02*
X003841Y010721D01*
X003778Y010878D02*
X004072Y010878D01*
X003430Y010892D02*
X003430Y011278D01*
X003430Y010892D02*
X003350Y010813D01*
X003219Y010564D02*
X003147Y010564D01*
X003147Y010171D02*
X003704Y010171D01*
X003821Y010171D02*
X003977Y010171D01*
X004100Y010093D02*
X003806Y010093D01*
D26*
X011050Y010125D02*
X011363Y010125D01*
X011383Y010127D01*
X011402Y010132D01*
X011420Y010140D01*
X011436Y010151D01*
X011450Y010165D01*
X011461Y010182D01*
X011469Y010199D01*
X011474Y010218D01*
X011476Y010238D01*
X011475Y010238D02*
X011475Y010325D01*
X011475Y010662D01*
X012091Y011278D01*
X011475Y010238D02*
X011475Y009688D01*
X011475Y007938D01*
X011475Y005675D01*
D27*
X011475Y005675D03*
X011850Y005838D03*
X011850Y006563D03*
X011863Y007325D03*
X011475Y007938D03*
X011075Y007238D03*
X009825Y006513D03*
X009438Y006488D03*
X009325Y005888D03*
X009063Y005663D03*
X009738Y005613D03*
X009575Y004888D03*
X009225Y004888D03*
X008675Y005038D03*
X008350Y005038D03*
X008025Y005188D03*
X007675Y005175D03*
X006938Y004363D03*
X006913Y004013D03*
X007925Y004088D03*
X008625Y004088D03*
X008625Y003288D03*
X007925Y003288D03*
X009575Y003689D03*
X009975Y003288D03*
X010950Y002175D03*
X011750Y003350D03*
X012738Y003425D03*
X013225Y003425D03*
X013088Y002575D03*
X013088Y002213D03*
X012475Y002488D03*
X011888Y004425D03*
X012738Y005213D03*
X013263Y004938D03*
X010863Y004875D03*
X010838Y004350D03*
X008425Y006738D03*
X008425Y007238D03*
X007925Y007238D03*
X007725Y007963D03*
X006675Y008550D03*
X006675Y008863D03*
X006713Y009450D03*
X006213Y009438D03*
X005638Y009438D03*
X005050Y009575D03*
X004825Y008888D03*
X005488Y007913D03*
X005938Y008238D03*
X005150Y006725D03*
X005363Y006113D03*
X005325Y005538D03*
X005713Y005400D03*
X006063Y005538D03*
X006675Y005550D03*
X006713Y005013D03*
X007325Y006025D03*
X007638Y006263D03*
X005975Y006163D03*
X004550Y004888D03*
X004188Y004938D03*
X003625Y005575D03*
X004263Y005688D03*
X003425Y004250D03*
X005025Y003925D03*
X006175Y002338D03*
X004275Y007225D03*
X003688Y008050D03*
X003375Y008938D03*
X003763Y010450D03*
X003350Y010813D03*
X004125Y011450D03*
X005125Y010813D03*
X005138Y011425D03*
X006063Y011438D03*
X006088Y010850D03*
X006550Y010888D03*
X007038Y010900D03*
X007600Y010913D03*
X008100Y010875D03*
X008550Y010800D03*
X008975Y010775D03*
X009425Y010838D03*
X009750Y011088D03*
X009538Y011438D03*
X010188Y011413D03*
X010188Y011775D03*
X010463Y011088D03*
X010263Y010688D03*
X009750Y010275D03*
X009100Y010125D03*
X008688Y010138D03*
X008688Y009713D03*
X008700Y009338D03*
X009125Y009325D03*
X009113Y009700D03*
X009800Y008375D03*
X009450Y007938D03*
X010725Y009313D03*
X011075Y008988D03*
X012200Y009313D03*
X012475Y008750D03*
X012588Y008113D03*
X012963Y009950D03*
X011388Y011425D03*
X010925Y011425D03*
X010913Y010850D03*
X008663Y011450D03*
X007750Y011450D03*
X006913Y011438D03*
D28*
X007662Y010393D02*
X008113Y010393D01*
X009168Y010393D01*
X008113Y009882D02*
X008113Y009393D01*
X007625Y009256D02*
X007618Y009263D01*
X007618Y009750D01*
X007643Y010375D02*
X007662Y010393D01*
X009168Y010394D02*
X009230Y010396D01*
X009291Y010401D01*
X009352Y010411D01*
X009412Y010424D01*
X009471Y010440D01*
X009529Y010460D01*
X009586Y010484D01*
X009642Y010511D01*
X009695Y010541D01*
X009747Y010574D01*
X009796Y010611D01*
X009844Y010650D01*
X009889Y010692D01*
X009931Y010737D01*
X009970Y010785D01*
X010007Y010834D01*
X010040Y010886D01*
X010070Y010939D01*
X010097Y010995D01*
X010121Y011052D01*
X010141Y011110D01*
X010157Y011169D01*
X010170Y011229D01*
X010180Y011290D01*
X010185Y011351D01*
X010187Y011413D01*
X010188Y011413D02*
X010188Y011775D01*
X009333Y006793D02*
X009033Y006793D01*
X009333Y006793D02*
X009439Y006687D01*
X009439Y006489D01*
X009438Y006488D01*
D29*
X007887Y007746D02*
X007887Y007801D01*
X007725Y007963D01*
X007625Y008063D01*
X007625Y008744D01*
X007625Y009256D02*
X007138Y009256D01*
D30*
X005938Y008688D02*
X005938Y008238D01*
X005938Y007238D01*
X006113Y007063D01*
X006400Y007063D01*
X007925Y007182D02*
X008081Y007182D01*
X008275Y006988D01*
X008425Y006988D01*
X008275Y006988D02*
X008275Y006888D01*
X008425Y006738D01*
X005938Y008688D02*
X005925Y008700D01*
M02*
