G75*
G70*
%OFA0B0*%
%FSLAX24Y24*%
%IPPOS*%
%LPD*%
%AMOC8*
5,1,8,0,0,1.08239X$1,22.5*
%
%ADD10C,0.0030*%
%ADD11C,0.0080*%
%ADD12C,0.0040*%
%ADD13C,0.0070*%
%ADD14C,0.0050*%
%ADD15C,0.0160*%
%ADD16R,0.0280X0.0160*%
%ADD17R,0.0048X0.0006*%
%ADD18R,0.0048X0.0006*%
%ADD19R,0.0042X0.0006*%
%ADD20R,0.0042X0.0006*%
%ADD21R,0.0042X0.0006*%
%ADD22R,0.0042X0.0006*%
%ADD23R,0.0090X0.0006*%
%ADD24R,0.0066X0.0006*%
%ADD25R,0.0048X0.0006*%
%ADD26R,0.0162X0.0006*%
%ADD27R,0.0054X0.0006*%
%ADD28R,0.0048X0.0006*%
%ADD29R,0.0156X0.0006*%
%ADD30R,0.0072X0.0006*%
%ADD31R,0.0108X0.0006*%
%ADD32R,0.0198X0.0006*%
%ADD33R,0.0054X0.0006*%
%ADD34R,0.0180X0.0006*%
%ADD35R,0.0192X0.0006*%
%ADD36R,0.0198X0.0006*%
%ADD37R,0.0108X0.0006*%
%ADD38R,0.0066X0.0006*%
%ADD39R,0.0192X0.0006*%
%ADD40R,0.0204X0.0006*%
%ADD41R,0.0084X0.0006*%
%ADD42R,0.0072X0.0006*%
%ADD43R,0.0078X0.0006*%
%ADD44R,0.0072X0.0006*%
%ADD45R,0.0036X0.0006*%
%ADD46R,0.0036X0.0006*%
%ADD47R,0.0036X0.0006*%
%ADD48R,0.0126X0.0006*%
%ADD49R,0.0228X0.0006*%
%ADD50R,0.0186X0.0006*%
%ADD51R,0.0198X0.0006*%
%ADD52R,0.0252X0.0006*%
%ADD53R,0.0306X0.0006*%
%ADD54R,0.0318X0.0006*%
%ADD55R,0.0342X0.0006*%
%ADD56R,0.0354X0.0006*%
%ADD57R,0.0384X0.0006*%
%ADD58R,0.0402X0.0006*%
%ADD59R,0.0420X0.0006*%
%ADD60R,0.0150X0.0006*%
%ADD61R,0.0432X0.0006*%
%ADD62R,0.0450X0.0006*%
%ADD63R,0.0150X0.0006*%
%ADD64R,0.0054X0.0006*%
%ADD65R,0.0060X0.0006*%
%ADD66R,0.0162X0.0006*%
%ADD67R,0.0462X0.0006*%
%ADD68R,0.0480X0.0006*%
%ADD69R,0.0486X0.0006*%
%ADD70R,0.0492X0.0006*%
%ADD71R,0.0504X0.0006*%
%ADD72R,0.0516X0.0006*%
%ADD73R,0.0534X0.0006*%
%ADD74R,0.0540X0.0006*%
%ADD75R,0.0552X0.0006*%
%ADD76R,0.0552X0.0006*%
%ADD77R,0.0564X0.0006*%
%ADD78R,0.0570X0.0006*%
%ADD79R,0.0576X0.0006*%
%ADD80R,0.0582X0.0006*%
%ADD81R,0.0006X0.0006*%
%ADD82R,0.0594X0.0006*%
%ADD83R,0.0084X0.0006*%
%ADD84R,0.0600X0.0006*%
%ADD85R,0.0612X0.0006*%
%ADD86R,0.0012X0.0006*%
%ADD87R,0.0246X0.0006*%
%ADD88R,0.0300X0.0006*%
%ADD89R,0.0618X0.0006*%
%ADD90R,0.0324X0.0006*%
%ADD91R,0.0624X0.0006*%
%ADD92R,0.0330X0.0006*%
%ADD93R,0.0630X0.0006*%
%ADD94R,0.0348X0.0006*%
%ADD95R,0.0360X0.0006*%
%ADD96R,0.0642X0.0006*%
%ADD97R,0.0378X0.0006*%
%ADD98R,0.0648X0.0006*%
%ADD99R,0.0396X0.0006*%
%ADD100R,0.0648X0.0006*%
%ADD101R,0.0396X0.0006*%
%ADD102R,0.0660X0.0006*%
%ADD103R,0.0408X0.0006*%
%ADD104R,0.0666X0.0006*%
%ADD105R,0.0414X0.0006*%
%ADD106R,0.0672X0.0006*%
%ADD107R,0.0672X0.0006*%
%ADD108R,0.0420X0.0006*%
%ADD109R,0.0678X0.0006*%
%ADD110R,0.0426X0.0006*%
%ADD111R,0.0312X0.0006*%
%ADD112R,0.0294X0.0006*%
%ADD113R,0.0084X0.0006*%
%ADD114R,0.0078X0.0006*%
%ADD115R,0.0102X0.0006*%
%ADD116R,0.0390X0.0006*%
%ADD117R,0.0096X0.0006*%
%ADD118R,0.0138X0.0006*%
%ADD119R,0.0684X0.0006*%
%ADD120R,0.0432X0.0006*%
%ADD121R,0.0354X0.0006*%
%ADD122R,0.0090X0.0006*%
%ADD123R,0.0138X0.0006*%
%ADD124R,0.0438X0.0006*%
%ADD125R,0.0696X0.0006*%
%ADD126R,0.0444X0.0006*%
%ADD127R,0.0408X0.0006*%
%ADD128R,0.0390X0.0006*%
%ADD129R,0.0084X0.0006*%
%ADD130R,0.0078X0.0006*%
%ADD131R,0.0432X0.0006*%
%ADD132R,0.0102X0.0006*%
%ADD133R,0.0096X0.0006*%
%ADD134R,0.0132X0.0006*%
%ADD135R,0.0696X0.0006*%
%ADD136R,0.0450X0.0006*%
%ADD137R,0.0438X0.0006*%
%ADD138R,0.0702X0.0006*%
%ADD139R,0.0444X0.0006*%
%ADD140R,0.0102X0.0006*%
%ADD141R,0.0708X0.0006*%
%ADD142R,0.0456X0.0006*%
%ADD143R,0.0114X0.0006*%
%ADD144R,0.0462X0.0006*%
%ADD145R,0.0096X0.0006*%
%ADD146R,0.0132X0.0006*%
%ADD147R,0.0708X0.0006*%
%ADD148R,0.0456X0.0006*%
%ADD149R,0.0456X0.0006*%
%ADD150R,0.0120X0.0006*%
%ADD151R,0.0462X0.0006*%
%ADD152R,0.0102X0.0006*%
%ADD153R,0.0138X0.0006*%
%ADD154R,0.0426X0.0006*%
%ADD155R,0.0468X0.0006*%
%ADD156R,0.0468X0.0006*%
%ADD157R,0.0132X0.0006*%
%ADD158R,0.0168X0.0006*%
%ADD159R,0.0474X0.0006*%
%ADD160R,0.0456X0.0006*%
%ADD161R,0.0162X0.0006*%
%ADD162R,0.0144X0.0006*%
%ADD163R,0.0444X0.0006*%
%ADD164R,0.0474X0.0006*%
%ADD165R,0.0486X0.0006*%
%ADD166R,0.0138X0.0006*%
%ADD167R,0.0144X0.0006*%
%ADD168R,0.0336X0.0006*%
%ADD169R,0.0498X0.0006*%
%ADD170R,0.0168X0.0006*%
%ADD171R,0.0330X0.0006*%
%ADD172R,0.0174X0.0006*%
%ADD173R,0.0288X0.0006*%
%ADD174R,0.0126X0.0006*%
%ADD175R,0.0486X0.0006*%
%ADD176R,0.0402X0.0006*%
%ADD177R,0.0132X0.0006*%
%ADD178R,0.0252X0.0006*%
%ADD179R,0.0120X0.0006*%
%ADD180R,0.0492X0.0006*%
%ADD181R,0.0240X0.0006*%
%ADD182R,0.0114X0.0006*%
%ADD183R,0.0228X0.0006*%
%ADD184R,0.0204X0.0006*%
%ADD185R,0.0126X0.0006*%
%ADD186R,0.0216X0.0006*%
%ADD187R,0.0378X0.0006*%
%ADD188R,0.0198X0.0006*%
%ADD189R,0.0492X0.0006*%
%ADD190R,0.0366X0.0006*%
%ADD191R,0.0366X0.0006*%
%ADD192R,0.0156X0.0006*%
%ADD193R,0.0348X0.0006*%
%ADD194R,0.0498X0.0006*%
%ADD195R,0.0108X0.0006*%
%ADD196R,0.0264X0.0006*%
%ADD197R,0.0222X0.0006*%
%ADD198R,0.0504X0.0006*%
%ADD199R,0.0264X0.0006*%
%ADD200R,0.0060X0.0006*%
%ADD201R,0.0510X0.0006*%
%ADD202R,0.0066X0.0006*%
%ADD203R,0.0054X0.0006*%
%ADD204R,0.0510X0.0006*%
%ADD205R,0.0108X0.0006*%
%ADD206R,0.0192X0.0006*%
%ADD207R,0.0288X0.0006*%
%ADD208R,0.0030X0.0006*%
%ADD209R,0.0180X0.0006*%
%ADD210R,0.0270X0.0006*%
%ADD211R,0.0480X0.0006*%
%ADD212R,0.0078X0.0006*%
%ADD213R,0.0114X0.0006*%
%ADD214R,0.0024X0.0006*%
%ADD215R,0.0174X0.0006*%
%ADD216R,0.0018X0.0006*%
%ADD217R,0.0210X0.0006*%
%ADD218R,0.0258X0.0006*%
%ADD219R,0.0234X0.0006*%
%ADD220R,0.0252X0.0006*%
%ADD221R,0.0012X0.0006*%
%ADD222R,0.0258X0.0006*%
%ADD223R,0.0270X0.0006*%
%ADD224R,0.0012X0.0006*%
%ADD225R,0.0282X0.0006*%
%ADD226R,0.0186X0.0006*%
%ADD227R,0.0312X0.0006*%
%ADD228R,0.0360X0.0006*%
%ADD229R,0.0276X0.0006*%
%ADD230R,0.0468X0.0006*%
%ADD231R,0.0282X0.0006*%
%ADD232R,0.0144X0.0006*%
%ADD233R,0.0474X0.0006*%
%ADD234R,0.0438X0.0006*%
%ADD235R,0.0126X0.0006*%
%ADD236R,0.0486X0.0006*%
%ADD237R,0.0528X0.0006*%
%ADD238R,0.0534X0.0006*%
%ADD239R,0.0516X0.0006*%
%ADD240R,0.0306X0.0006*%
%ADD241R,0.0492X0.0006*%
%ADD242R,0.0546X0.0006*%
%ADD243R,0.0522X0.0006*%
%ADD244R,0.0306X0.0006*%
%ADD245R,0.0534X0.0006*%
%ADD246R,0.0558X0.0006*%
%ADD247R,0.0570X0.0006*%
%ADD248R,0.0540X0.0006*%
%ADD249R,0.0318X0.0006*%
%ADD250R,0.0546X0.0006*%
%ADD251R,0.0324X0.0006*%
%ADD252R,0.0588X0.0006*%
%ADD253R,0.0600X0.0006*%
%ADD254R,0.0558X0.0006*%
%ADD255R,0.0324X0.0006*%
%ADD256R,0.0462X0.0006*%
%ADD257R,0.0612X0.0006*%
%ADD258R,0.0366X0.0006*%
%ADD259R,0.0588X0.0006*%
%ADD260R,0.0576X0.0006*%
%ADD261R,0.0246X0.0006*%
%ADD262R,0.0234X0.0006*%
%ADD263R,0.0006X0.0006*%
%ADD264R,0.0552X0.0006*%
%ADD265R,0.0222X0.0006*%
%ADD266R,0.0234X0.0006*%
%ADD267R,0.0024X0.0006*%
%ADD268R,0.0336X0.0006*%
%ADD269R,0.0504X0.0006*%
%ADD270R,0.0228X0.0006*%
%ADD271R,0.0216X0.0006*%
%ADD272R,0.0336X0.0006*%
%ADD273R,0.0498X0.0006*%
%ADD274R,0.0228X0.0006*%
%ADD275R,0.0030X0.0006*%
%ADD276R,0.0222X0.0006*%
%ADD277R,0.0024X0.0006*%
%ADD278R,0.0396X0.0006*%
%ADD279R,0.0384X0.0006*%
%ADD280R,0.0498X0.0006*%
%ADD281R,0.0372X0.0006*%
%ADD282R,0.0318X0.0006*%
%ADD283R,0.0306X0.0006*%
%ADD284R,0.0534X0.0006*%
%ADD285R,0.0528X0.0006*%
%ADD286R,0.0522X0.0006*%
%ADD287R,0.0282X0.0006*%
%ADD288R,0.0300X0.0006*%
%ADD289R,0.0024X0.0006*%
%ADD290R,0.0186X0.0006*%
%ADD291R,0.0216X0.0006*%
%ADD292R,0.0414X0.0006*%
%ADD293R,0.0012X0.0006*%
%ADD294R,0.0240X0.0006*%
%ADD295R,0.0408X0.0006*%
%ADD296R,0.0276X0.0006*%
%ADD297R,0.0378X0.0006*%
%ADD298R,0.0372X0.0006*%
%ADD299R,0.0342X0.0006*%
%ADD300R,0.0018X0.0006*%
%ADD301R,0.0342X0.0006*%
%ADD302R,0.0438X0.0006*%
%ADD303R,0.0402X0.0006*%
%ADD304R,0.0366X0.0006*%
%ADD305R,0.0174X0.0006*%
%ADD306R,0.0324X0.0006*%
%ADD307R,0.0156X0.0006*%
%ADD308R,0.0294X0.0006*%
%ADD309R,0.0162X0.0006*%
%ADD310R,0.0288X0.0006*%
%ADD311R,0.0186X0.0006*%
%ADD312R,0.0258X0.0006*%
%ADD313R,0.0264X0.0006*%
%ADD314R,0.0522X0.0006*%
%ADD315R,0.0204X0.0006*%
%ADD316R,0.0432X0.0006*%
%ADD317R,0.0216X0.0006*%
%ADD318R,0.0222X0.0006*%
%ADD319R,0.0156X0.0006*%
%ADD320R,0.0168X0.0006*%
%ADD321R,0.0468X0.0006*%
%ADD322R,0.0258X0.0006*%
%ADD323R,0.0160X0.0280*%
D10*
X003057Y002628D02*
X003057Y002724D01*
X003057Y002676D02*
X003348Y002676D01*
X003348Y002628D02*
X003348Y002724D01*
X003299Y002824D02*
X003348Y002872D01*
X003348Y002969D01*
X003299Y003017D01*
X003251Y003017D01*
X003202Y002969D01*
X003202Y002872D01*
X003154Y002824D01*
X003106Y002824D01*
X003057Y002872D01*
X003057Y002969D01*
X003106Y003017D01*
X003057Y003119D02*
X003057Y003264D01*
X003106Y003312D01*
X003202Y003312D01*
X003251Y003264D01*
X003251Y003119D01*
X003348Y003119D02*
X003057Y003119D01*
X003065Y004053D02*
X003065Y004343D01*
X003210Y004343D01*
X003258Y004294D01*
X003258Y004198D01*
X003210Y004149D01*
X003065Y004149D01*
X003360Y004101D02*
X003408Y004053D01*
X003505Y004053D01*
X003553Y004101D01*
X003654Y004101D02*
X003703Y004053D01*
X003799Y004053D01*
X003848Y004101D01*
X003848Y004149D01*
X003799Y004198D01*
X003751Y004198D01*
X003799Y004198D02*
X003848Y004246D01*
X003848Y004294D01*
X003799Y004343D01*
X003703Y004343D01*
X003654Y004294D01*
X003553Y004294D02*
X003505Y004343D01*
X003408Y004343D01*
X003360Y004294D01*
X003360Y004101D01*
X004015Y004815D02*
X004015Y005105D01*
X004160Y005105D01*
X004208Y005057D01*
X004208Y004960D01*
X004160Y004912D01*
X004015Y004912D01*
X004310Y004863D02*
X004358Y004815D01*
X004455Y004815D01*
X004503Y004863D01*
X004604Y004815D02*
X004798Y005008D01*
X004798Y005057D01*
X004749Y005105D01*
X004653Y005105D01*
X004604Y005057D01*
X004503Y005057D02*
X004455Y005105D01*
X004358Y005105D01*
X004310Y005057D01*
X004310Y004863D01*
X004604Y004815D02*
X004798Y004815D01*
X003848Y005603D02*
X003654Y005603D01*
X003751Y005603D02*
X003751Y005893D01*
X003654Y005796D01*
X003553Y005844D02*
X003505Y005893D01*
X003408Y005893D01*
X003360Y005844D01*
X003360Y005651D01*
X003408Y005603D01*
X003505Y005603D01*
X003553Y005651D01*
X003258Y005748D02*
X003210Y005699D01*
X003065Y005699D01*
X003065Y005603D02*
X003065Y005893D01*
X003210Y005893D01*
X003258Y005844D01*
X003258Y005748D01*
X004015Y006178D02*
X004015Y006468D01*
X004160Y006468D01*
X004208Y006419D01*
X004208Y006323D01*
X004160Y006274D01*
X004015Y006274D01*
X004112Y006274D02*
X004208Y006178D01*
X004310Y006178D02*
X004503Y006178D01*
X004604Y006178D02*
X004604Y006468D01*
X004798Y006468D01*
X004701Y006323D02*
X004604Y006323D01*
X004503Y006468D02*
X004310Y006468D01*
X004310Y006178D01*
X004310Y006323D02*
X004406Y006323D01*
X004406Y006658D02*
X004310Y006754D01*
X004310Y006948D01*
X004503Y006948D02*
X004503Y006754D01*
X004406Y006658D01*
X003848Y007238D02*
X003799Y007190D01*
X003703Y007190D01*
X003654Y007238D01*
X003848Y007432D01*
X003848Y007238D01*
X003654Y007238D02*
X003654Y007432D01*
X003703Y007480D01*
X003799Y007480D01*
X003848Y007432D01*
X003553Y007432D02*
X003505Y007480D01*
X003408Y007480D01*
X003360Y007432D01*
X003360Y007238D01*
X003408Y007190D01*
X003505Y007190D01*
X003553Y007238D01*
X003258Y007335D02*
X003210Y007287D01*
X003065Y007287D01*
X003065Y007190D02*
X003065Y007480D01*
X003210Y007480D01*
X003258Y007432D01*
X003258Y007335D01*
X004015Y007965D02*
X004015Y008158D01*
X004112Y008255D01*
X004208Y008158D01*
X004208Y007965D01*
X004310Y007965D02*
X004455Y007965D01*
X004503Y008013D01*
X004503Y008207D01*
X004455Y008255D01*
X004310Y008255D01*
X004310Y007965D01*
X004208Y008110D02*
X004015Y008110D01*
X004604Y008013D02*
X004604Y007965D01*
X004604Y008013D02*
X004798Y008207D01*
X004798Y008255D01*
X004604Y008255D01*
X003848Y008813D02*
X003799Y008765D01*
X003703Y008765D01*
X003654Y008813D01*
X003654Y008910D02*
X003751Y008958D01*
X003799Y008958D01*
X003848Y008910D01*
X003848Y008813D01*
X003654Y008910D02*
X003654Y009055D01*
X003848Y009055D01*
X003553Y009007D02*
X003553Y008813D01*
X003505Y008765D01*
X003360Y008765D01*
X003360Y009055D01*
X003505Y009055D01*
X003553Y009007D01*
X003258Y009007D02*
X003258Y008910D01*
X003210Y008862D01*
X003065Y008862D01*
X003065Y008765D02*
X003065Y009055D01*
X003210Y009055D01*
X003258Y009007D01*
X004015Y009565D02*
X004015Y009855D01*
X004160Y009855D01*
X004208Y009807D01*
X004208Y009710D01*
X004160Y009662D01*
X004015Y009662D01*
X004310Y009565D02*
X004455Y009565D01*
X004503Y009613D01*
X004503Y009807D01*
X004455Y009855D01*
X004310Y009855D01*
X004310Y009565D01*
X004604Y009613D02*
X004653Y009565D01*
X004749Y009565D01*
X004798Y009613D01*
X004798Y009662D01*
X004749Y009710D01*
X004604Y009710D01*
X004604Y009613D01*
X004604Y009710D02*
X004701Y009807D01*
X004798Y009855D01*
X003848Y010340D02*
X003654Y010340D01*
X003654Y010630D01*
X003553Y010582D02*
X003505Y010630D01*
X003408Y010630D01*
X003360Y010582D01*
X003360Y010388D01*
X003408Y010340D01*
X003505Y010340D01*
X003553Y010388D01*
X003258Y010388D02*
X003210Y010340D01*
X003113Y010340D01*
X003065Y010388D01*
X003113Y010485D02*
X003065Y010533D01*
X003065Y010582D01*
X003113Y010630D01*
X003210Y010630D01*
X003258Y010582D01*
X003210Y010485D02*
X003258Y010437D01*
X003258Y010388D01*
X003210Y010485D02*
X003113Y010485D01*
X004015Y011188D02*
X004063Y011140D01*
X004160Y011140D01*
X004208Y011188D01*
X004208Y011237D01*
X004160Y011285D01*
X004063Y011285D01*
X004015Y011333D01*
X004015Y011382D01*
X004063Y011430D01*
X004160Y011430D01*
X004208Y011382D01*
X004310Y011430D02*
X004455Y011430D01*
X004503Y011382D01*
X004503Y011188D01*
X004455Y011140D01*
X004310Y011140D01*
X004310Y011430D01*
X004604Y011333D02*
X004604Y011140D01*
X004604Y011285D02*
X004798Y011285D01*
X004798Y011333D02*
X004798Y011140D01*
X004798Y011333D02*
X004701Y011430D01*
X004604Y011333D01*
X011740Y009068D02*
X011740Y008778D01*
X011740Y008874D02*
X011885Y008874D01*
X011933Y008923D01*
X011933Y009019D01*
X011885Y009068D01*
X011740Y009068D01*
X012035Y009068D02*
X012035Y008778D01*
X012180Y008778D01*
X012228Y008826D01*
X012228Y009019D01*
X012180Y009068D01*
X012035Y009068D01*
X012329Y008923D02*
X012523Y008923D01*
X012474Y008778D02*
X012474Y009068D01*
X012329Y008923D01*
X012663Y008328D02*
X013546Y008328D01*
X013460Y008268D02*
X013267Y008268D01*
X013364Y008268D02*
X013364Y007978D01*
X013166Y008026D02*
X013166Y008074D01*
X013117Y008123D01*
X013021Y008123D01*
X012972Y008171D01*
X012972Y008219D01*
X013021Y008268D01*
X013117Y008268D01*
X013166Y008219D01*
X013166Y008026D02*
X013117Y007978D01*
X013021Y007978D01*
X012972Y008026D01*
X012871Y007978D02*
X012774Y008074D01*
X012823Y008074D02*
X012678Y008074D01*
X012678Y007978D02*
X012678Y008268D01*
X012823Y008268D01*
X012871Y008219D01*
X012871Y008123D01*
X012823Y008074D01*
X012474Y007493D02*
X012378Y007493D01*
X012329Y007444D01*
X012228Y007444D02*
X012228Y007251D01*
X012180Y007203D01*
X012035Y007203D01*
X012035Y007493D01*
X012180Y007493D01*
X012228Y007444D01*
X012329Y007251D02*
X012378Y007203D01*
X012474Y007203D01*
X012523Y007251D01*
X012523Y007299D01*
X012474Y007348D01*
X012426Y007348D01*
X012474Y007348D02*
X012523Y007396D01*
X012523Y007444D01*
X012474Y007493D01*
X011933Y007444D02*
X011933Y007348D01*
X011885Y007299D01*
X011740Y007299D01*
X011740Y007203D02*
X011740Y007493D01*
X011885Y007493D01*
X011933Y007444D01*
X012703Y006705D02*
X012848Y006705D01*
X012896Y006657D01*
X012896Y006560D01*
X012848Y006512D01*
X012703Y006512D01*
X012703Y006415D02*
X012703Y006705D01*
X012997Y006705D02*
X012997Y006415D01*
X013142Y006415D01*
X013191Y006463D01*
X013191Y006512D01*
X013142Y006560D01*
X012997Y006560D01*
X012997Y006705D02*
X013142Y006705D01*
X013191Y006657D01*
X013191Y006608D01*
X013142Y006560D01*
X013292Y006463D02*
X013485Y006657D01*
X013485Y006463D01*
X013437Y006415D01*
X013340Y006415D01*
X013292Y006463D01*
X013292Y006657D01*
X013340Y006705D01*
X013437Y006705D01*
X013485Y006657D01*
X012523Y005905D02*
X012523Y005857D01*
X012329Y005663D01*
X012329Y005615D01*
X012228Y005663D02*
X012228Y005857D01*
X012180Y005905D01*
X012035Y005905D01*
X012035Y005615D01*
X012180Y005615D01*
X012228Y005663D01*
X012329Y005905D02*
X012523Y005905D01*
X011933Y005857D02*
X011933Y005760D01*
X011885Y005712D01*
X011740Y005712D01*
X011740Y005615D02*
X011740Y005905D01*
X011885Y005905D01*
X011933Y005857D01*
X012703Y005118D02*
X012848Y005118D01*
X012896Y005069D01*
X012896Y004876D01*
X012848Y004828D01*
X012703Y004828D01*
X012703Y005118D01*
X012997Y005118D02*
X013191Y005118D01*
X013094Y005118D02*
X013094Y004828D01*
X013292Y004828D02*
X013292Y005118D01*
X013437Y005118D01*
X013485Y005069D01*
X013485Y004973D01*
X013437Y004924D01*
X013292Y004924D01*
X013389Y004924D02*
X013485Y004828D01*
X012523Y004307D02*
X012523Y004113D01*
X012474Y004065D01*
X012329Y004065D01*
X012329Y004355D01*
X012474Y004355D01*
X012523Y004307D01*
X012228Y004355D02*
X012228Y004065D01*
X012035Y004355D01*
X012035Y004065D01*
X011933Y004113D02*
X011933Y004210D01*
X011837Y004210D01*
X011933Y004113D02*
X011885Y004065D01*
X011788Y004065D01*
X011740Y004113D01*
X011740Y004307D01*
X011788Y004355D01*
X011885Y004355D01*
X011933Y004307D01*
X012703Y009578D02*
X012703Y009868D01*
X012848Y009868D01*
X012896Y009819D01*
X012896Y009723D01*
X012848Y009674D01*
X012703Y009674D01*
X012799Y009674D02*
X012896Y009578D01*
X012997Y009578D02*
X013191Y009868D01*
X013292Y009868D02*
X013437Y009868D01*
X013485Y009819D01*
X013485Y009626D01*
X013437Y009578D01*
X013292Y009578D01*
X013292Y009868D01*
X012997Y009868D02*
X013191Y009578D01*
X012353Y010340D02*
X012160Y010630D01*
X012058Y010630D02*
X011865Y010630D01*
X011962Y010630D02*
X011962Y010340D01*
X012160Y010340D02*
X012353Y010630D01*
X012751Y011153D02*
X012703Y011201D01*
X012751Y011153D02*
X012848Y011153D01*
X012896Y011201D01*
X012896Y011249D01*
X012848Y011298D01*
X012799Y011298D01*
X012848Y011298D02*
X012896Y011346D01*
X012896Y011394D01*
X012848Y011443D01*
X012751Y011443D01*
X012703Y011394D01*
X012997Y011443D02*
X012997Y011249D01*
X013094Y011153D01*
X013191Y011249D01*
X013191Y011443D01*
X013292Y011394D02*
X013340Y011443D01*
X013437Y011443D01*
X013485Y011394D01*
X013485Y011346D01*
X013437Y011298D01*
X013485Y011249D01*
X013485Y011201D01*
X013437Y011153D01*
X013340Y011153D01*
X013292Y011201D01*
X013389Y011298D02*
X013437Y011298D01*
D11*
X010063Y013240D02*
X009676Y013240D01*
X009676Y013820D01*
X010063Y013820D01*
X009870Y013530D02*
X009676Y013530D01*
X009455Y013240D02*
X009068Y013240D01*
X009068Y013820D01*
X009455Y013820D01*
X009262Y013530D02*
X009068Y013530D01*
X008848Y013433D02*
X008848Y013337D01*
X008751Y013240D01*
X008461Y013240D01*
X008461Y013820D01*
X008751Y013820D01*
X008848Y013724D01*
X008848Y013627D01*
X008751Y013530D01*
X008461Y013530D01*
X008751Y013530D02*
X008848Y013433D01*
X008240Y013820D02*
X007853Y013820D01*
X008046Y013820D02*
X008046Y013240D01*
X007632Y013337D02*
X007632Y013724D01*
X007535Y013820D01*
X007342Y013820D01*
X007245Y013724D01*
X007245Y013337D01*
X007342Y013240D01*
X007535Y013240D01*
X007632Y013337D01*
X007033Y013240D02*
X006840Y013240D01*
X006937Y013240D02*
X006937Y013820D01*
X007033Y013820D02*
X006840Y013820D01*
X006535Y010374D02*
X005295Y010374D01*
X005295Y009704D01*
X005419Y009110D02*
X006441Y009110D01*
X006535Y008956D02*
X006535Y008484D01*
X006535Y008956D01*
X006535Y008484D02*
X006417Y008326D01*
X005453Y008326D01*
X005315Y008484D01*
X005315Y008956D01*
X006535Y009704D02*
X006535Y010374D01*
X007488Y006397D02*
X007684Y006200D01*
D12*
X007688Y012783D02*
X007641Y012783D01*
X007641Y012829D01*
X007688Y012829D01*
X007688Y012783D01*
X007789Y012829D02*
X007789Y012923D01*
X007835Y012969D01*
X007976Y012969D01*
X007976Y013063D02*
X007976Y012783D01*
X007835Y012783D01*
X007789Y012829D01*
X007534Y012829D02*
X007487Y012783D01*
X007440Y012829D01*
X007394Y012783D01*
X007347Y012829D01*
X007347Y012969D01*
X007239Y012969D02*
X007239Y012829D01*
X007192Y012783D01*
X007146Y012829D01*
X007099Y012783D01*
X007052Y012829D01*
X007052Y012969D01*
X006944Y012969D02*
X006944Y012829D01*
X006898Y012783D01*
X006851Y012829D01*
X006804Y012783D01*
X006758Y012829D01*
X006758Y012969D01*
X007534Y012969D02*
X007534Y012829D01*
X008083Y012829D02*
X008130Y012783D01*
X008270Y012783D01*
X008270Y012969D01*
X008378Y012969D02*
X008425Y012969D01*
X008425Y012783D01*
X008471Y012783D02*
X008378Y012783D01*
X008083Y012829D02*
X008083Y012969D01*
X008425Y013063D02*
X008425Y013109D01*
X008575Y012969D02*
X008715Y012969D01*
X008761Y012923D01*
X008761Y012783D01*
X008869Y012829D02*
X008916Y012783D01*
X009009Y012783D01*
X009056Y012829D01*
X009056Y012923D01*
X009009Y012969D01*
X008916Y012969D01*
X008869Y012923D01*
X008869Y012829D01*
X009164Y012783D02*
X009304Y012783D01*
X009351Y012829D01*
X009351Y012923D01*
X009304Y012969D01*
X009164Y012969D01*
X009164Y012689D01*
X009458Y012829D02*
X009458Y012923D01*
X009505Y012969D01*
X009599Y012969D01*
X009645Y012923D01*
X009645Y012876D01*
X009458Y012876D01*
X009458Y012829D02*
X009505Y012783D01*
X009599Y012783D01*
X009753Y012829D02*
X009800Y012876D01*
X009940Y012876D01*
X009940Y012923D02*
X009940Y012783D01*
X009800Y012783D01*
X009753Y012829D01*
X009800Y012969D02*
X009893Y012969D01*
X009940Y012923D01*
X010048Y012876D02*
X010188Y012969D01*
X010048Y012876D02*
X010188Y012783D01*
X010293Y012783D02*
X010293Y012829D01*
X010340Y012829D01*
X010340Y012783D01*
X010293Y012783D01*
X010441Y012829D02*
X010487Y012783D01*
X010627Y012783D01*
X010735Y012829D02*
X010782Y012783D01*
X010875Y012783D01*
X010922Y012829D01*
X010922Y012923D01*
X010875Y012969D01*
X010782Y012969D01*
X010735Y012923D01*
X010735Y012829D01*
X010627Y012969D02*
X010487Y012969D01*
X010441Y012923D01*
X010441Y012829D01*
X010048Y012783D02*
X010048Y013063D01*
X011030Y012969D02*
X011030Y012783D01*
X011123Y012783D02*
X011123Y012923D01*
X011170Y012969D01*
X011217Y012923D01*
X011217Y012783D01*
X011123Y012923D02*
X011077Y012969D01*
X011030Y012969D01*
X008575Y012969D02*
X008575Y012783D01*
D13*
X009082Y004613D02*
X009200Y004495D01*
X009200Y002880D02*
X009082Y002762D01*
X007468Y002762D02*
X007350Y002880D01*
X007350Y004495D02*
X007468Y004613D01*
D14*
X002998Y001873D02*
X002998Y011673D01*
X002997Y011672D02*
X006461Y014243D01*
X010084Y014243D01*
X013548Y011672D01*
X012603Y011672D01*
X012603Y003798D01*
X013548Y003798D01*
X013548Y003385D01*
X012603Y003798D02*
X011658Y003798D01*
X011658Y011278D01*
X011658Y011672D01*
X012603Y011672D01*
X013548Y011673D02*
X013548Y001873D01*
X002998Y001873D01*
X003433Y002188D02*
X003433Y003788D01*
X005833Y003788D01*
X005833Y002188D01*
X003433Y002188D01*
X002997Y003385D02*
X002997Y003798D01*
X003942Y003798D01*
X003942Y011672D01*
X002997Y011672D01*
X003942Y011672D02*
X004887Y011672D01*
X004887Y011278D01*
X004887Y003798D01*
X003942Y003798D01*
X009413Y002788D02*
X009415Y002809D01*
X009421Y002828D01*
X009430Y002847D01*
X009442Y002863D01*
X009458Y002877D01*
X009475Y002888D01*
X009494Y002896D01*
X009515Y002900D01*
X009535Y002900D01*
X009556Y002896D01*
X009575Y002888D01*
X009592Y002877D01*
X009608Y002863D01*
X009620Y002847D01*
X009629Y002828D01*
X009635Y002809D01*
X009637Y002788D01*
X009635Y002767D01*
X009629Y002748D01*
X009620Y002729D01*
X009608Y002713D01*
X009592Y002699D01*
X009575Y002688D01*
X009556Y002680D01*
X009535Y002676D01*
X009515Y002676D01*
X009494Y002680D01*
X009475Y002688D01*
X009458Y002699D01*
X009442Y002713D01*
X009430Y002729D01*
X009421Y002748D01*
X009415Y002767D01*
X009413Y002788D01*
X009725Y003588D02*
X010625Y003588D01*
X010625Y005088D01*
X009725Y005088D01*
X009725Y003588D01*
X011375Y003213D02*
X011375Y002763D01*
X012375Y002763D01*
X012375Y003213D01*
X011375Y003213D01*
X011375Y002713D02*
X012375Y002713D01*
X012375Y002263D01*
X011375Y002263D01*
X011375Y002713D01*
X011142Y006608D02*
X010158Y006608D01*
X010158Y007867D01*
X011142Y007867D01*
X011142Y006608D01*
X011350Y009750D02*
X009950Y009750D01*
X009950Y010500D01*
X011350Y010500D01*
X011350Y009750D01*
D15*
X010650Y008375D02*
X010650Y008350D01*
X009925Y008888D02*
X009925Y008912D01*
X009925Y009388D02*
X009925Y009412D01*
X008125Y010138D02*
X008100Y010138D01*
X007388Y010363D02*
X007388Y010387D01*
X007150Y009000D02*
X007125Y009000D01*
X006412Y007613D02*
X006388Y007613D01*
X006388Y006525D02*
X006412Y006525D01*
X006888Y006525D02*
X006912Y006525D01*
X010650Y006125D02*
X010650Y006100D01*
D16*
X009650Y007238D03*
X007625Y009000D03*
X006900Y007613D03*
D17*
X007064Y011656D03*
X007088Y011692D03*
X007154Y011788D03*
X007171Y011818D03*
X007178Y011824D03*
X007021Y011818D03*
X008371Y011794D03*
X008371Y011788D03*
X008371Y011782D03*
X008371Y011776D03*
X008371Y011764D03*
X008371Y011758D03*
X008371Y011752D03*
X008371Y011746D03*
X008528Y011746D03*
X008528Y011752D03*
X008528Y011758D03*
X008528Y011764D03*
X008528Y011776D03*
X008528Y011782D03*
X008528Y011788D03*
X008528Y011794D03*
X008528Y011806D03*
X008528Y011812D03*
X008528Y011836D03*
X008528Y011842D03*
X008528Y011848D03*
X008528Y011854D03*
X008528Y011866D03*
X008528Y011872D03*
X008528Y011878D03*
X008528Y011884D03*
X008528Y011896D03*
X008528Y011902D03*
X008528Y011908D03*
X008528Y011734D03*
X009361Y011734D03*
X009361Y011728D03*
X009361Y011722D03*
X009361Y011716D03*
X009361Y011746D03*
X009361Y011752D03*
X009361Y011758D03*
X009361Y011764D03*
X009361Y011776D03*
X009361Y011782D03*
X009361Y011788D03*
X009361Y011794D03*
X009361Y011806D03*
X009361Y011812D03*
X009361Y011818D03*
X009361Y011824D03*
X009361Y011866D03*
X009361Y011872D03*
X009361Y011878D03*
X009361Y011884D03*
X011198Y011884D03*
X011198Y011878D03*
X011198Y011872D03*
X011198Y011866D03*
X011198Y011854D03*
X011198Y011848D03*
X011198Y011842D03*
X011198Y011836D03*
X011198Y011824D03*
X011198Y011818D03*
X011198Y011812D03*
X011198Y011806D03*
X011198Y011794D03*
X011198Y011788D03*
X011198Y011782D03*
X011198Y011776D03*
X011198Y011764D03*
X011198Y011758D03*
X011198Y011752D03*
X011198Y011746D03*
X011198Y011734D03*
X011198Y011728D03*
X011198Y011722D03*
X011198Y011716D03*
X011198Y011896D03*
X011198Y011902D03*
X011198Y011908D03*
X011498Y011824D03*
X011504Y011818D03*
X011648Y011806D03*
X011654Y011818D03*
X011558Y011674D03*
X011551Y011662D03*
X005551Y012256D03*
D18*
X005785Y012256D03*
X005785Y012262D03*
X005785Y012268D03*
X005785Y012274D03*
X005485Y012898D03*
X005719Y013132D03*
X005935Y012994D03*
X007015Y011824D03*
X007165Y011806D03*
X007075Y011674D03*
X007069Y011662D03*
X008245Y011716D03*
X008245Y011722D03*
X008245Y011728D03*
X008245Y011734D03*
X008245Y011746D03*
X008245Y011752D03*
X008245Y011758D03*
X008245Y011764D03*
X008245Y011776D03*
X008245Y011782D03*
X008245Y011788D03*
X008245Y011794D03*
X008245Y011806D03*
X008245Y011812D03*
X008245Y011818D03*
X008245Y011824D03*
X008245Y011866D03*
X008245Y011872D03*
X008245Y011878D03*
X008245Y011884D03*
X008935Y011812D03*
X008935Y011806D03*
X008929Y011758D03*
X008929Y011752D03*
X008929Y011746D03*
X008929Y011734D03*
X008929Y011728D03*
X009085Y011734D03*
X009085Y011746D03*
X009085Y011752D03*
X009085Y011758D03*
X009085Y011782D03*
X009085Y011788D03*
X009085Y011794D03*
X009085Y011806D03*
X009085Y011812D03*
X010909Y011758D03*
X010909Y011752D03*
X010909Y011746D03*
X010909Y011734D03*
X010909Y011728D03*
X010915Y011806D03*
X010915Y011812D03*
X011065Y011812D03*
X011065Y011806D03*
X011065Y011794D03*
X011065Y011788D03*
X011065Y011782D03*
X011065Y011758D03*
X011065Y011752D03*
X011065Y011746D03*
X011065Y011734D03*
X011545Y011656D03*
X011569Y011692D03*
X011635Y011788D03*
X011659Y011824D03*
D19*
X011639Y011794D03*
X011633Y011782D03*
X011626Y011776D03*
X011609Y011746D03*
X011579Y011704D03*
X011573Y011698D03*
X011566Y011686D03*
X011549Y011746D03*
X011543Y011758D03*
X011536Y011764D03*
X011519Y011794D03*
X011513Y011806D03*
X011506Y011812D03*
X010786Y011812D03*
X010786Y011806D03*
X010786Y011794D03*
X010786Y011788D03*
X010786Y011746D03*
X010786Y011734D03*
X010786Y011728D03*
X010636Y011728D03*
X010636Y011734D03*
X010636Y011746D03*
X010636Y011752D03*
X010636Y011758D03*
X010636Y011764D03*
X010636Y011788D03*
X010636Y011794D03*
X010636Y011806D03*
X010636Y011812D03*
X010529Y011812D03*
X010529Y011806D03*
X010529Y011794D03*
X009646Y011794D03*
X009646Y011788D03*
X009646Y011782D03*
X009646Y011776D03*
X009646Y011764D03*
X009646Y011758D03*
X009646Y011752D03*
X009646Y011746D03*
X009646Y011734D03*
X009646Y011728D03*
X009646Y011722D03*
X009646Y011716D03*
X009646Y011806D03*
X009646Y011812D03*
X008806Y011812D03*
X008806Y011806D03*
X008806Y011794D03*
X008806Y011788D03*
X008806Y011746D03*
X008806Y011734D03*
X008806Y011728D03*
X008656Y011728D03*
X008656Y011734D03*
X008656Y011746D03*
X008656Y011752D03*
X008656Y011758D03*
X008656Y011764D03*
X008656Y011788D03*
X008656Y011794D03*
X008656Y011806D03*
X008656Y011812D03*
X007853Y011806D03*
X007853Y011794D03*
X007853Y011788D03*
X007853Y011782D03*
X007853Y011776D03*
X007853Y011764D03*
X007853Y011758D03*
X007853Y011752D03*
X007853Y011746D03*
X007853Y011734D03*
X007853Y011728D03*
X007853Y011722D03*
X007853Y011716D03*
X007726Y011734D03*
X007726Y011746D03*
X007726Y011752D03*
X007726Y011758D03*
X007726Y011764D03*
X007726Y011776D03*
X007726Y011782D03*
X007726Y011788D03*
X007726Y011794D03*
X007726Y011806D03*
X007726Y011812D03*
X007726Y011818D03*
X007726Y011824D03*
X007289Y011812D03*
X007289Y011806D03*
X007289Y011794D03*
X007289Y011788D03*
X007289Y011782D03*
X007289Y011776D03*
X007289Y011764D03*
X007289Y011758D03*
X007289Y011752D03*
X007289Y011746D03*
X007289Y011734D03*
X007289Y011728D03*
X007169Y011812D03*
X007156Y011794D03*
X007139Y011764D03*
X007133Y011758D03*
X007126Y011746D03*
X007096Y011704D03*
X007073Y011668D03*
X007066Y011746D03*
X007049Y011776D03*
X007043Y011782D03*
X007043Y011788D03*
X007036Y011794D03*
X006599Y011794D03*
X006599Y011788D03*
X006599Y011782D03*
X006599Y011776D03*
X006599Y011764D03*
X006599Y011758D03*
X006599Y011752D03*
X006599Y011746D03*
X006599Y011734D03*
X006599Y011728D03*
X006599Y011722D03*
X006599Y011716D03*
X006599Y011806D03*
X006353Y011806D03*
X006353Y011794D03*
X006353Y011788D03*
X006353Y011782D03*
X006353Y011776D03*
X006353Y011764D03*
X006353Y011758D03*
X006353Y011752D03*
X006353Y011746D03*
X006353Y011734D03*
X006353Y011728D03*
X006353Y011722D03*
X006353Y011716D03*
X006226Y011734D03*
X006226Y011746D03*
X006226Y011752D03*
X006226Y011758D03*
X006226Y011764D03*
X006226Y011776D03*
X006226Y011782D03*
X006226Y011788D03*
X006226Y011794D03*
X006226Y011806D03*
X006226Y011812D03*
X006226Y011818D03*
X006226Y011824D03*
X005903Y011836D03*
X005903Y011842D03*
X005903Y011848D03*
X005903Y011854D03*
X005903Y011866D03*
X005903Y011872D03*
X005903Y011812D03*
X005903Y011806D03*
X005903Y011794D03*
X005903Y011788D03*
X005903Y011782D03*
X005903Y011776D03*
X005903Y011764D03*
X005903Y011758D03*
X005903Y011752D03*
X005903Y011746D03*
X005903Y011734D03*
X005903Y011728D03*
X005489Y012892D03*
X005716Y013126D03*
X005926Y012988D03*
D20*
X005920Y012982D03*
X005554Y012268D03*
X005554Y012262D03*
X006070Y011824D03*
X006070Y011818D03*
X006070Y011812D03*
X006070Y011806D03*
X006070Y011794D03*
X006070Y011788D03*
X006070Y011782D03*
X006070Y011776D03*
X006070Y011764D03*
X006070Y011758D03*
X006070Y011752D03*
X006070Y011746D03*
X006070Y011734D03*
X006070Y011728D03*
X006490Y011794D03*
X006490Y011806D03*
X006490Y011812D03*
X006754Y011812D03*
X006754Y011806D03*
X006754Y011794D03*
X006754Y011788D03*
X006754Y011782D03*
X006754Y011776D03*
X006754Y011764D03*
X006754Y011758D03*
X006754Y011752D03*
X006754Y011746D03*
X006754Y011734D03*
X006754Y011728D03*
X006754Y011722D03*
X006754Y011716D03*
X007024Y011812D03*
X007030Y011806D03*
X007054Y011764D03*
X007060Y011758D03*
X007090Y011698D03*
X007084Y011686D03*
X007144Y011776D03*
X007150Y011782D03*
X007444Y011782D03*
X007444Y011788D03*
X007444Y011794D03*
X007444Y011806D03*
X007444Y011812D03*
X007444Y011776D03*
X007444Y011764D03*
X007444Y011758D03*
X007444Y011752D03*
X007444Y011746D03*
X007444Y011734D03*
X007444Y011728D03*
X007570Y011728D03*
X007570Y011734D03*
X007570Y011746D03*
X007570Y011752D03*
X007570Y011758D03*
X007570Y011764D03*
X007570Y011776D03*
X007570Y011782D03*
X007570Y011788D03*
X007570Y011794D03*
X007570Y011806D03*
X007570Y011812D03*
X007570Y011818D03*
X007570Y011824D03*
X007990Y011812D03*
X007990Y011806D03*
X007990Y011794D03*
X008374Y011806D03*
X008374Y011734D03*
X009490Y011734D03*
X009490Y011728D03*
X009490Y011722D03*
X009490Y011716D03*
X009490Y011746D03*
X009490Y011752D03*
X009490Y011758D03*
X009490Y011764D03*
X009490Y011776D03*
X009490Y011782D03*
X009490Y011788D03*
X009490Y011794D03*
X009490Y011806D03*
X009790Y011806D03*
X009790Y011812D03*
X009790Y011794D03*
X009790Y011788D03*
X009790Y011782D03*
X009790Y011776D03*
X009790Y011764D03*
X009790Y011758D03*
X009790Y011752D03*
X009790Y011746D03*
X009790Y011734D03*
X009790Y011728D03*
X009790Y011836D03*
X009790Y011842D03*
X009790Y011848D03*
X009790Y011854D03*
X009790Y011866D03*
X009790Y011872D03*
X009964Y011812D03*
X009964Y011806D03*
X009964Y011794D03*
X009964Y011788D03*
X009964Y011782D03*
X009964Y011776D03*
X009964Y011764D03*
X009964Y011758D03*
X009964Y011752D03*
X009964Y011746D03*
X009964Y011734D03*
X009964Y011728D03*
X010120Y011728D03*
X010120Y011734D03*
X010120Y011746D03*
X010120Y011752D03*
X010120Y011758D03*
X010120Y011764D03*
X010120Y011776D03*
X010120Y011782D03*
X010120Y011788D03*
X010120Y011794D03*
X010120Y011806D03*
X010120Y011812D03*
X010390Y011806D03*
X010390Y011794D03*
X010390Y011788D03*
X010390Y011782D03*
X010390Y011776D03*
X010390Y011764D03*
X010390Y011758D03*
X010390Y011752D03*
X010390Y011746D03*
X010390Y011734D03*
X010390Y011728D03*
X010390Y011722D03*
X010390Y011716D03*
X011344Y011728D03*
X011344Y011734D03*
X011344Y011746D03*
X011344Y011752D03*
X011344Y011758D03*
X011344Y011764D03*
X011344Y011776D03*
X011344Y011782D03*
X011344Y011788D03*
X011344Y011794D03*
X011344Y011806D03*
X011344Y011812D03*
X011344Y011836D03*
X011344Y011842D03*
X011344Y011848D03*
X011344Y011854D03*
X011344Y011866D03*
X011344Y011872D03*
X011524Y011788D03*
X011524Y011782D03*
X011530Y011776D03*
X011614Y011758D03*
X011620Y011764D03*
X011650Y011812D03*
X011554Y011668D03*
D21*
X011536Y011770D03*
X011626Y011770D03*
X011663Y011830D03*
X010786Y011800D03*
X010786Y011740D03*
X010636Y011740D03*
X010636Y011800D03*
X010529Y011800D03*
X009646Y011800D03*
X009646Y011770D03*
X009646Y011740D03*
X009646Y011710D03*
X008806Y011740D03*
X008806Y011800D03*
X008656Y011800D03*
X008656Y011740D03*
X007853Y011740D03*
X007853Y011770D03*
X007853Y011800D03*
X007853Y011830D03*
X007853Y011710D03*
X007726Y011710D03*
X007726Y011740D03*
X007726Y011770D03*
X007726Y011800D03*
X007726Y011830D03*
X007289Y011800D03*
X007289Y011770D03*
X007289Y011740D03*
X007163Y011800D03*
X007079Y011680D03*
X006599Y011710D03*
X006599Y011740D03*
X006599Y011770D03*
X006599Y011800D03*
X006599Y011830D03*
X006353Y011830D03*
X006353Y011800D03*
X006353Y011770D03*
X006353Y011740D03*
X006353Y011710D03*
X006226Y011710D03*
X006226Y011740D03*
X006226Y011770D03*
X006226Y011800D03*
X006226Y011830D03*
X005903Y011800D03*
X005903Y011770D03*
X005903Y011740D03*
X005903Y011860D03*
D22*
X006070Y011830D03*
X006070Y011800D03*
X006070Y011770D03*
X006070Y011740D03*
X006490Y011800D03*
X006754Y011800D03*
X006754Y011770D03*
X006754Y011740D03*
X006754Y011710D03*
X007054Y011770D03*
X007144Y011770D03*
X007180Y011830D03*
X007444Y011800D03*
X007444Y011770D03*
X007444Y011740D03*
X007570Y011740D03*
X007570Y011770D03*
X007570Y011800D03*
X007570Y011830D03*
X007990Y011800D03*
X009490Y011800D03*
X009490Y011770D03*
X009490Y011740D03*
X009490Y011710D03*
X009490Y011830D03*
X009790Y011800D03*
X009790Y011770D03*
X009790Y011740D03*
X009790Y011860D03*
X009964Y011800D03*
X009964Y011770D03*
X009964Y011740D03*
X010120Y011740D03*
X010120Y011770D03*
X010120Y011800D03*
X010390Y011800D03*
X010390Y011770D03*
X010390Y011740D03*
X010390Y011710D03*
X010390Y011830D03*
X011344Y011800D03*
X011344Y011770D03*
X011344Y011740D03*
X011344Y011860D03*
X011560Y011680D03*
X011644Y011800D03*
X005074Y013030D03*
D23*
X005530Y012220D03*
X005945Y011710D03*
X006509Y012790D03*
X008243Y012400D03*
X008849Y012340D03*
X008849Y012310D03*
X008849Y012280D03*
X008849Y012250D03*
X008849Y012220D03*
X008849Y012190D03*
X008849Y012160D03*
X008849Y012130D03*
X008849Y012100D03*
X009233Y012130D03*
X009233Y012160D03*
X009233Y012190D03*
X009233Y012220D03*
X009233Y012250D03*
X009233Y012280D03*
X009233Y012310D03*
X009233Y012340D03*
X009833Y011710D03*
X010595Y012040D03*
X010613Y012070D03*
X010889Y012250D03*
X010876Y012280D03*
X010859Y012310D03*
X010906Y012220D03*
X011386Y011710D03*
D24*
X007600Y011710D03*
X006100Y011710D03*
X005776Y012220D03*
D25*
X007015Y011830D03*
X007099Y011710D03*
X008245Y011710D03*
X008245Y011740D03*
X008245Y011770D03*
X008245Y011800D03*
X008245Y011830D03*
X008929Y011740D03*
X008935Y011800D03*
X009085Y011800D03*
X009085Y011740D03*
X009085Y011710D03*
X010909Y011740D03*
X010915Y011800D03*
X011065Y011800D03*
X011065Y011740D03*
X011065Y011710D03*
X011515Y011800D03*
D26*
X010043Y011830D03*
X010043Y011710D03*
X007366Y011710D03*
X007366Y011830D03*
D27*
X008423Y011710D03*
X005783Y012250D03*
D28*
X005551Y012250D03*
X007034Y011800D03*
X008371Y011800D03*
X008371Y011770D03*
X008371Y011740D03*
X008528Y011740D03*
X008528Y011770D03*
X008528Y011800D03*
X008528Y011860D03*
X008528Y011890D03*
X008528Y011710D03*
X009361Y011710D03*
X009361Y011740D03*
X009361Y011770D03*
X009361Y011800D03*
X009361Y011830D03*
X011198Y011830D03*
X011198Y011860D03*
X011198Y011890D03*
X011198Y011800D03*
X011198Y011770D03*
X011198Y011740D03*
X011198Y011710D03*
X011498Y011830D03*
X011581Y011710D03*
D29*
X010711Y011710D03*
X010711Y011830D03*
X008731Y011830D03*
X008731Y011710D03*
X008473Y011830D03*
X008275Y012340D03*
D30*
X008959Y011710D03*
X010939Y011710D03*
D31*
X009889Y012316D03*
X009889Y012322D03*
X009889Y012328D03*
X009889Y012334D03*
X009889Y012346D03*
X009889Y012352D03*
X009889Y012358D03*
X009889Y012364D03*
X009889Y012376D03*
X009889Y012382D03*
X009889Y012388D03*
X009889Y012394D03*
X009889Y012406D03*
X009889Y012412D03*
X009889Y012418D03*
X007135Y012316D03*
X007135Y012304D03*
X007135Y012298D03*
X007135Y012292D03*
X007135Y012286D03*
X007135Y012274D03*
X007135Y012268D03*
X007135Y012262D03*
X007135Y012256D03*
X007135Y012244D03*
X007135Y012238D03*
X007135Y012232D03*
X007129Y012214D03*
X007129Y012208D03*
X007129Y012202D03*
X007129Y012334D03*
X007129Y012346D03*
X006085Y012316D03*
X005755Y012154D03*
X005755Y012148D03*
X005935Y011722D03*
X005935Y011716D03*
X005455Y012946D03*
D32*
X005806Y012298D03*
X006136Y012274D03*
X006676Y011824D03*
X006676Y011818D03*
X007049Y012118D03*
X007366Y011824D03*
X007366Y011818D03*
X007366Y011722D03*
X007366Y011716D03*
X007649Y011716D03*
X007649Y011722D03*
X008296Y012304D03*
X008549Y012142D03*
X009569Y011824D03*
X009569Y011818D03*
X010043Y011818D03*
X010043Y011824D03*
X010043Y011722D03*
X010043Y011716D03*
X006149Y011716D03*
X006149Y011722D03*
D33*
X007096Y011716D03*
X008380Y011728D03*
X008380Y011812D03*
X011578Y011716D03*
D34*
X011245Y012232D03*
X011245Y012238D03*
X011245Y012244D03*
X011000Y011776D03*
X010460Y011818D03*
X010460Y011824D03*
X009020Y011776D03*
X008558Y012124D03*
X008461Y011824D03*
X008461Y011716D03*
X007921Y011818D03*
X007921Y011824D03*
X008288Y012322D03*
X006421Y011824D03*
X006421Y011818D03*
X006031Y013054D03*
X005731Y013246D03*
X005425Y013048D03*
X005425Y013042D03*
D35*
X005828Y012874D03*
X006164Y011926D03*
X008551Y012136D03*
X008731Y011824D03*
X008731Y011818D03*
X008731Y011782D03*
X008731Y011776D03*
X008731Y011722D03*
X008731Y011716D03*
X009008Y011824D03*
X010711Y011824D03*
X010711Y011818D03*
X010711Y011782D03*
X010711Y011776D03*
X010711Y011722D03*
X010711Y011716D03*
X010988Y011824D03*
X011251Y012226D03*
D36*
X011254Y012256D03*
X010990Y011818D03*
X010990Y011716D03*
X009010Y011716D03*
X009010Y011818D03*
D37*
X008594Y012058D03*
X008251Y012382D03*
X007124Y012358D03*
X007124Y012352D03*
X005504Y011758D03*
X009824Y011722D03*
X009824Y011716D03*
X011378Y011716D03*
X011378Y011722D03*
D38*
X011578Y011722D03*
X008614Y012022D03*
X008518Y011728D03*
X008230Y012418D03*
X007096Y011722D03*
D39*
X008455Y011722D03*
X008455Y011818D03*
X005479Y012166D03*
X005425Y013072D03*
X005425Y013078D03*
X005425Y013084D03*
X005035Y012964D03*
D40*
X009008Y011764D03*
X009008Y011722D03*
X010988Y011722D03*
X010988Y011764D03*
X011258Y012214D03*
X011258Y012262D03*
D41*
X011515Y012586D03*
X011515Y012592D03*
X010861Y012304D03*
X010855Y012316D03*
X010849Y012328D03*
X010843Y012346D03*
X010705Y012256D03*
X010699Y012244D03*
X010693Y012232D03*
X010681Y012208D03*
X010681Y012202D03*
X010675Y012196D03*
X010669Y012184D03*
X010621Y012088D03*
X010615Y012076D03*
X010603Y012058D03*
X010591Y012034D03*
X010585Y012022D03*
X010111Y012106D03*
X010111Y012112D03*
X010111Y012118D03*
X010111Y012124D03*
X010111Y012136D03*
X010111Y012142D03*
X010111Y012148D03*
X010111Y012154D03*
X010111Y012166D03*
X010111Y012172D03*
X010111Y012178D03*
X010111Y012184D03*
X010111Y012196D03*
X010111Y012274D03*
X010111Y012286D03*
X010111Y012292D03*
X010111Y012298D03*
X010111Y012304D03*
X010111Y012316D03*
X010111Y012322D03*
X010111Y012328D03*
X010111Y012334D03*
X010111Y012346D03*
X010111Y012352D03*
X009511Y011812D03*
X009229Y012346D03*
X008239Y012406D03*
X007735Y012406D03*
X007735Y012412D03*
X007735Y012418D03*
X007735Y012424D03*
X007735Y012394D03*
X007735Y012388D03*
X007735Y012382D03*
X007735Y012376D03*
X007735Y012364D03*
X007735Y012358D03*
X007735Y012352D03*
X007735Y012346D03*
X007735Y012334D03*
X007735Y012328D03*
X007735Y012322D03*
X007735Y012316D03*
X007735Y012304D03*
X007735Y012298D03*
X007735Y012292D03*
X007735Y012286D03*
X007735Y012274D03*
X007735Y012268D03*
X007735Y012262D03*
X007735Y012256D03*
X007735Y012244D03*
X007735Y012238D03*
X007735Y012232D03*
X007735Y012226D03*
X007735Y012214D03*
X007735Y012208D03*
X007735Y012202D03*
X007735Y012196D03*
X007735Y012184D03*
X007735Y012178D03*
X007735Y012172D03*
X007735Y012166D03*
X007735Y012154D03*
X007735Y012148D03*
X007735Y012142D03*
X007735Y012136D03*
X007735Y012124D03*
X007735Y012118D03*
X007735Y012112D03*
X007735Y012106D03*
X007393Y012106D03*
X007393Y012112D03*
X007393Y012118D03*
X007393Y012124D03*
X007393Y012136D03*
X007393Y012142D03*
X007393Y012148D03*
X007393Y012154D03*
X007393Y012166D03*
X007393Y012172D03*
X007393Y012178D03*
X007393Y012184D03*
X007393Y012196D03*
X007393Y012202D03*
X007393Y012208D03*
X007393Y012214D03*
X007393Y012226D03*
X007393Y012232D03*
X007393Y012238D03*
X007393Y012244D03*
X007393Y012256D03*
X007393Y012262D03*
X007393Y012268D03*
X007393Y012274D03*
X007393Y012286D03*
X007393Y012292D03*
X007393Y012298D03*
X007393Y012304D03*
X007393Y012316D03*
X007393Y012322D03*
X007393Y012328D03*
X007393Y012334D03*
X007393Y012346D03*
X007393Y012352D03*
X007393Y012358D03*
X007393Y012364D03*
X007393Y012376D03*
X007393Y012382D03*
X007393Y012388D03*
X007393Y012394D03*
X007393Y012406D03*
X007393Y012412D03*
X007393Y012418D03*
X007393Y012424D03*
X007705Y011728D03*
X006619Y011812D03*
X006205Y011728D03*
X006073Y012334D03*
X005533Y012226D03*
X005269Y012742D03*
X005059Y013018D03*
X005731Y013174D03*
X005731Y013186D03*
D42*
X005725Y013162D03*
X005539Y012238D03*
X007099Y011728D03*
X010405Y011812D03*
D43*
X010690Y012226D03*
X010714Y012268D03*
X010714Y012274D03*
X010720Y012286D03*
X010744Y012328D03*
X010744Y012334D03*
X010750Y012346D03*
X011050Y011728D03*
X009070Y011728D03*
X005770Y012202D03*
X005770Y012208D03*
X005824Y012892D03*
D44*
X005954Y013006D03*
X005474Y012916D03*
X006061Y012346D03*
X005774Y012214D03*
X006368Y011812D03*
X006511Y012784D03*
X007868Y011812D03*
X008234Y012412D03*
X008611Y012028D03*
X011581Y011728D03*
D45*
X011599Y011734D03*
X011611Y011752D03*
X011545Y011752D03*
X007129Y011752D03*
X007075Y011734D03*
X007063Y011752D03*
X005491Y012886D03*
X005701Y013462D03*
D46*
X005558Y012274D03*
X007118Y011734D03*
X011558Y011734D03*
X011618Y012544D03*
X011588Y012568D03*
D47*
X011605Y011740D03*
X011551Y011740D03*
X007123Y011740D03*
X007069Y011740D03*
X005089Y012280D03*
D48*
X005500Y011764D03*
X005446Y012964D03*
X005734Y013216D03*
X005998Y013036D03*
X008344Y012292D03*
X008350Y012286D03*
X008398Y012244D03*
X008584Y012076D03*
X010798Y012382D03*
X010798Y012388D03*
X011398Y012334D03*
X011428Y012358D03*
X011470Y012388D03*
X011476Y012394D03*
X011494Y012406D03*
X011500Y012412D03*
X011506Y012418D03*
X011518Y012424D03*
D49*
X005498Y011770D03*
D50*
X006040Y013060D03*
X008554Y012130D03*
X008728Y011770D03*
X010708Y011770D03*
D51*
X010990Y011770D03*
X011254Y012220D03*
X009010Y011770D03*
X006250Y013240D03*
D52*
X006374Y013054D03*
X005648Y012514D03*
X005504Y011776D03*
D53*
X005500Y011782D03*
X005434Y012124D03*
X004930Y012664D03*
X005026Y012898D03*
X006376Y012994D03*
X006376Y012442D03*
D54*
X006280Y012568D03*
X006370Y012976D03*
X004954Y012742D03*
X005500Y011788D03*
D55*
X005500Y011794D03*
X006364Y012958D03*
X009040Y012424D03*
X009040Y012022D03*
D56*
X005836Y012820D03*
X005494Y011800D03*
D57*
X005491Y011806D03*
X005401Y012106D03*
X005809Y012346D03*
X006193Y011974D03*
X004969Y012616D03*
X005695Y013414D03*
X010801Y012148D03*
D58*
X007564Y012046D03*
X006850Y012496D03*
X005494Y011812D03*
D59*
X005491Y011818D03*
X005114Y012364D03*
X005000Y012586D03*
X005834Y012784D03*
X006025Y012646D03*
X006338Y012898D03*
X006235Y013156D03*
X006230Y012016D03*
X006218Y012004D03*
X006860Y012046D03*
X010801Y012112D03*
D60*
X010799Y012364D03*
X011356Y011824D03*
X011356Y011818D03*
X009803Y011818D03*
X009803Y011824D03*
X008273Y012346D03*
X007079Y012418D03*
X006106Y012292D03*
X005915Y011824D03*
X005915Y011818D03*
X005500Y012184D03*
X005440Y012994D03*
X005735Y013228D03*
X005045Y012988D03*
D61*
X005834Y012778D03*
X006331Y012886D03*
X005491Y011824D03*
X009674Y012508D03*
D62*
X005830Y012760D03*
X005489Y011830D03*
D63*
X005735Y012100D03*
X005915Y011830D03*
X007079Y012130D03*
X008573Y012100D03*
X009803Y011830D03*
X011356Y011830D03*
D64*
X010504Y011830D03*
X007966Y011830D03*
X006466Y011830D03*
D65*
X006728Y011830D03*
X005785Y012280D03*
X005480Y012910D03*
X005725Y013150D03*
X005941Y013000D03*
X009620Y011830D03*
D66*
X009010Y011830D03*
X010990Y011830D03*
X005830Y012880D03*
D67*
X005819Y012382D03*
X006263Y012076D03*
X005489Y011836D03*
X005026Y012568D03*
X009689Y012238D03*
D68*
X009698Y012268D03*
X009698Y012274D03*
X009698Y012286D03*
X009698Y012292D03*
X009698Y012436D03*
X009698Y012442D03*
X009698Y012448D03*
X009698Y012454D03*
X006890Y012448D03*
X006890Y012094D03*
X006271Y012106D03*
X006271Y012112D03*
X005834Y012364D03*
X005828Y012736D03*
X005828Y012742D03*
X005594Y013264D03*
X005600Y013276D03*
X005605Y013282D03*
X005611Y013288D03*
X005618Y013294D03*
X005624Y013312D03*
X005648Y013342D03*
X005654Y013348D03*
X005660Y013354D03*
X005041Y012772D03*
X005041Y012766D03*
X005035Y012562D03*
X005485Y011842D03*
D69*
X005488Y011848D03*
X005836Y012358D03*
X005848Y012352D03*
X006118Y012616D03*
X006280Y012154D03*
X006280Y012148D03*
X006280Y012142D03*
X006268Y012124D03*
X006268Y012118D03*
X005620Y013306D03*
X005626Y013318D03*
X005644Y013336D03*
D70*
X006235Y013108D03*
X006895Y012436D03*
X006895Y012106D03*
X005485Y011854D03*
X005119Y012406D03*
D71*
X005485Y011860D03*
X006289Y012220D03*
D72*
X006139Y012598D03*
X005353Y012088D03*
X005485Y011866D03*
X005119Y012418D03*
D73*
X005483Y011872D03*
D74*
X005480Y011878D03*
X005815Y012664D03*
D75*
X005809Y012472D03*
X005479Y011884D03*
X005119Y012442D03*
D76*
X005479Y011890D03*
D77*
X005479Y011896D03*
X005119Y012454D03*
D78*
X005123Y012466D03*
X005476Y011902D03*
D79*
X005479Y011908D03*
D80*
X005476Y011914D03*
X005123Y012472D03*
D81*
X005014Y012292D03*
X005710Y013084D03*
X005650Y013462D03*
X006196Y011914D03*
D82*
X005476Y011920D03*
D83*
X006169Y011920D03*
X007393Y012100D03*
X007393Y012130D03*
X007393Y012160D03*
X007393Y012190D03*
X007393Y012220D03*
X007393Y012250D03*
X007393Y012280D03*
X007393Y012310D03*
X007393Y012340D03*
X007393Y012370D03*
X007393Y012400D03*
X007735Y012400D03*
X007735Y012370D03*
X007735Y012340D03*
X007735Y012310D03*
X007735Y012280D03*
X007735Y012250D03*
X007735Y012220D03*
X007735Y012190D03*
X007735Y012160D03*
X007735Y012130D03*
X007735Y012100D03*
X008605Y012040D03*
X009229Y012100D03*
X010111Y012100D03*
X010111Y012130D03*
X010111Y012160D03*
X010111Y012190D03*
X010111Y012280D03*
X010111Y012310D03*
X010111Y012340D03*
X010675Y012190D03*
X010843Y012340D03*
X005731Y013180D03*
D84*
X005125Y012484D03*
X005474Y011926D03*
D85*
X005474Y011932D03*
X005474Y011938D03*
D86*
X005575Y012304D03*
X005089Y012274D03*
X006025Y011932D03*
X011515Y012526D03*
X011515Y012532D03*
X011515Y012538D03*
X011515Y012544D03*
X011515Y012556D03*
X011515Y012562D03*
X011515Y012568D03*
X011515Y012574D03*
X011575Y012562D03*
X011575Y012556D03*
X011575Y012544D03*
X011575Y012538D03*
X011575Y012532D03*
X011575Y012526D03*
X011599Y012562D03*
X011635Y012562D03*
X011635Y012556D03*
X011659Y012556D03*
X011659Y012562D03*
X011659Y012544D03*
X011659Y012538D03*
X011659Y012532D03*
X011659Y012526D03*
D87*
X006166Y011932D03*
X005836Y012862D03*
D88*
X005834Y012844D03*
X006385Y012424D03*
X006385Y012418D03*
X006158Y011938D03*
X005108Y012322D03*
X004928Y012676D03*
D89*
X005470Y011944D03*
D90*
X006158Y011944D03*
X006248Y013204D03*
D91*
X005473Y011950D03*
D92*
X006160Y011950D03*
X006329Y012520D03*
D93*
X005470Y011962D03*
X005470Y011956D03*
D94*
X006175Y011956D03*
D95*
X006181Y011962D03*
X006830Y012028D03*
D96*
X005470Y011974D03*
X005470Y011968D03*
D97*
X005110Y012346D03*
X006190Y011968D03*
X007564Y012034D03*
D98*
X005468Y011980D03*
D99*
X006199Y011980D03*
D100*
X005468Y011986D03*
D101*
X006205Y011986D03*
X005833Y012796D03*
X006349Y012922D03*
X005029Y012832D03*
X010801Y012136D03*
D102*
X005468Y011992D03*
D103*
X005114Y012358D03*
X004994Y012592D03*
X006211Y011992D03*
X007568Y012052D03*
X009661Y012214D03*
X009661Y012514D03*
X010801Y012124D03*
D104*
X005464Y011998D03*
D105*
X006214Y011998D03*
X006358Y012844D03*
X006340Y012904D03*
X007564Y012064D03*
X007564Y012058D03*
X009040Y012034D03*
X009040Y012412D03*
X010798Y012118D03*
D106*
X005461Y012004D03*
D107*
X005461Y012010D03*
D108*
X006224Y012010D03*
X006860Y012490D03*
X006344Y012850D03*
X007568Y012070D03*
D109*
X005459Y012022D03*
X005459Y012016D03*
D110*
X006233Y012022D03*
X005033Y012808D03*
X005033Y012814D03*
D111*
X006805Y012022D03*
D112*
X006400Y012394D03*
X006388Y012412D03*
X007564Y012022D03*
X005026Y012904D03*
X004924Y012694D03*
X004924Y012688D03*
X004924Y012682D03*
D113*
X005468Y012922D03*
X005768Y012196D03*
X007988Y012196D03*
X007988Y012202D03*
X007988Y012208D03*
X007988Y012214D03*
X007988Y012226D03*
X007988Y012232D03*
X007988Y012238D03*
X007988Y012244D03*
X007988Y012256D03*
X007988Y012262D03*
X007988Y012268D03*
X007988Y012274D03*
X007988Y012286D03*
X007988Y012292D03*
X007988Y012298D03*
X007988Y012304D03*
X007988Y012316D03*
X007988Y012322D03*
X007988Y012328D03*
X007988Y012334D03*
X007988Y012346D03*
X007988Y012352D03*
X007988Y012358D03*
X007988Y012364D03*
X007988Y012376D03*
X007988Y012382D03*
X007988Y012388D03*
X007988Y012394D03*
X007988Y012406D03*
X007988Y012412D03*
X007988Y012418D03*
X007988Y012424D03*
X007988Y012184D03*
X007988Y012178D03*
X007988Y012172D03*
X007988Y012166D03*
X007988Y012154D03*
X007988Y012148D03*
X007988Y012142D03*
X007988Y012136D03*
X007988Y012124D03*
X007988Y012118D03*
X007988Y012112D03*
X007988Y012106D03*
X007988Y012094D03*
X007988Y012088D03*
X007988Y012082D03*
X007988Y012076D03*
X007988Y012064D03*
X007988Y012058D03*
X007988Y012052D03*
X007988Y012046D03*
X007988Y012034D03*
X007988Y012028D03*
X007988Y012022D03*
X010598Y012046D03*
X010688Y012214D03*
X011198Y012196D03*
X011198Y012184D03*
X011198Y012178D03*
X011198Y012172D03*
X011198Y012166D03*
X011198Y012154D03*
X011198Y012148D03*
X011198Y012142D03*
X011198Y012136D03*
X011198Y012124D03*
X011198Y012118D03*
X011198Y012112D03*
X011198Y012106D03*
X011198Y012094D03*
X011198Y012088D03*
X011198Y012082D03*
X011198Y012076D03*
X011198Y012064D03*
X011198Y012058D03*
X011198Y012052D03*
X011198Y012046D03*
X011198Y012034D03*
X011198Y012028D03*
X011198Y012022D03*
X011198Y012268D03*
X011198Y012274D03*
X011198Y012286D03*
X011198Y012292D03*
X011198Y012298D03*
X011198Y012304D03*
X011198Y012316D03*
X011198Y012322D03*
X011198Y012328D03*
X011198Y012334D03*
X011198Y012346D03*
X011198Y012352D03*
X011198Y012358D03*
X011198Y012364D03*
X011198Y012376D03*
X011198Y012382D03*
X011198Y012388D03*
X011198Y012394D03*
X011198Y012406D03*
X011198Y012412D03*
X011198Y012418D03*
X011198Y012424D03*
D114*
X010739Y012322D03*
X010739Y012316D03*
X010733Y012304D03*
X010726Y012298D03*
X010726Y012292D03*
X010709Y012262D03*
X010696Y012238D03*
X008609Y012238D03*
X008609Y012232D03*
X008609Y012226D03*
X008609Y012214D03*
X008609Y012208D03*
X008609Y012202D03*
X008609Y012196D03*
X008609Y012184D03*
X008609Y012178D03*
X008609Y012172D03*
X008609Y012166D03*
X008609Y012244D03*
X008609Y012256D03*
X008609Y012262D03*
X008609Y012268D03*
X008609Y012274D03*
X008609Y012286D03*
X008609Y012292D03*
X008609Y012298D03*
X008609Y012304D03*
X008609Y012316D03*
X008609Y012322D03*
X008609Y012328D03*
X008609Y012334D03*
X008609Y012346D03*
X008609Y012352D03*
X008609Y012358D03*
X008609Y012364D03*
X008609Y012376D03*
X008609Y012382D03*
X008609Y012388D03*
X008609Y012394D03*
X008609Y012406D03*
X008609Y012412D03*
X008609Y012418D03*
X008609Y012424D03*
X008236Y012292D03*
X008236Y012286D03*
X008236Y012274D03*
X008236Y012268D03*
X008236Y012262D03*
X008236Y012256D03*
X008236Y012244D03*
X008236Y012238D03*
X008236Y012232D03*
X008236Y012226D03*
X008236Y012214D03*
X008236Y012208D03*
X008236Y012202D03*
X008236Y012196D03*
X008236Y012184D03*
X008236Y012178D03*
X008236Y012172D03*
X008236Y012166D03*
X008236Y012154D03*
X008236Y012148D03*
X008236Y012142D03*
X008236Y012136D03*
X008236Y012124D03*
X008236Y012118D03*
X008236Y012112D03*
X008236Y012106D03*
X008236Y012094D03*
X008236Y012088D03*
X008236Y012082D03*
X008236Y012076D03*
X008236Y012064D03*
X008236Y012058D03*
X008236Y012052D03*
X008236Y012046D03*
X008236Y012034D03*
X008236Y012028D03*
X008236Y012022D03*
X008609Y012034D03*
X005729Y013168D03*
X005536Y012232D03*
D115*
X006083Y012322D03*
X007133Y012322D03*
X007133Y012328D03*
X007133Y012226D03*
X008249Y012388D03*
X009509Y012388D03*
X009509Y012394D03*
X009509Y012406D03*
X009509Y012412D03*
X009509Y012418D03*
X009509Y012424D03*
X009509Y012382D03*
X009509Y012376D03*
X009509Y012364D03*
X009509Y012358D03*
X009509Y012352D03*
X009509Y012346D03*
X009509Y012334D03*
X009509Y012328D03*
X009509Y012322D03*
X009509Y012316D03*
X009509Y012304D03*
X009509Y012298D03*
X009509Y012208D03*
X009509Y012202D03*
X009509Y012196D03*
X009509Y012184D03*
X009509Y012178D03*
X009509Y012172D03*
X009509Y012166D03*
X009509Y012154D03*
X009509Y012148D03*
X009509Y012142D03*
X009509Y012136D03*
X009509Y012124D03*
X009509Y012118D03*
X009509Y012112D03*
X009509Y012106D03*
X009509Y012094D03*
X009509Y012088D03*
X009509Y012082D03*
X009509Y012076D03*
X009509Y012064D03*
X009509Y012058D03*
X009509Y012052D03*
X009509Y012046D03*
X009509Y012034D03*
X009509Y012028D03*
X009509Y012022D03*
X010799Y012406D03*
X010799Y012412D03*
X010996Y012046D03*
X005056Y013006D03*
D116*
X005026Y012844D03*
X005026Y012838D03*
X004979Y012604D03*
X005110Y012352D03*
X005836Y012802D03*
X006239Y013168D03*
X006845Y012502D03*
X006845Y012034D03*
X009040Y012028D03*
X009040Y012418D03*
X010265Y012418D03*
X010265Y012424D03*
X010265Y012412D03*
X010265Y012406D03*
X010265Y012394D03*
X010265Y012388D03*
X010265Y012382D03*
X010265Y012376D03*
X010265Y012364D03*
X010265Y012358D03*
X010265Y012094D03*
X010265Y012088D03*
X010265Y012082D03*
X010265Y012076D03*
X010265Y012064D03*
X010265Y012058D03*
X010265Y012052D03*
X010265Y012046D03*
X010265Y012034D03*
X010265Y012028D03*
X010265Y012022D03*
X010799Y012142D03*
D117*
X010915Y012202D03*
X010909Y012214D03*
X010903Y012226D03*
X010969Y012094D03*
X010975Y012088D03*
X010975Y012082D03*
X010981Y012076D03*
X010993Y012052D03*
X011005Y012034D03*
X011005Y012028D03*
X011011Y012022D03*
X008599Y012052D03*
X008245Y012394D03*
X005971Y013018D03*
X005461Y012934D03*
X005059Y013012D03*
X005761Y012172D03*
X005761Y012166D03*
D118*
X005099Y012292D03*
X008266Y012358D03*
X008579Y012088D03*
X010799Y012376D03*
X011356Y012166D03*
X011386Y012142D03*
X011416Y012118D03*
X011446Y012094D03*
X011506Y012046D03*
X011536Y012022D03*
D119*
X005461Y012028D03*
X005461Y012034D03*
D120*
X006235Y012028D03*
X006865Y012052D03*
X006865Y012484D03*
D121*
X006358Y012946D03*
X006244Y013186D03*
X005806Y012334D03*
X005026Y012862D03*
X007564Y012028D03*
X010798Y012172D03*
D122*
X010895Y012238D03*
X010895Y012244D03*
X010900Y012232D03*
X010889Y012256D03*
X010883Y012262D03*
X010883Y012268D03*
X010876Y012274D03*
X010870Y012286D03*
X010870Y012292D03*
X010865Y012298D03*
X010853Y012322D03*
X010846Y012334D03*
X010799Y012418D03*
X010799Y012424D03*
X010913Y012208D03*
X010919Y012196D03*
X010925Y012184D03*
X010625Y012094D03*
X010619Y012082D03*
X010606Y012064D03*
X010600Y012052D03*
X010589Y012028D03*
X009233Y012106D03*
X009233Y012112D03*
X009233Y012118D03*
X009233Y012124D03*
X009233Y012136D03*
X009233Y012142D03*
X009233Y012148D03*
X009233Y012154D03*
X009233Y012166D03*
X009233Y012172D03*
X009233Y012178D03*
X009233Y012184D03*
X009233Y012196D03*
X009233Y012202D03*
X009233Y012208D03*
X009233Y012214D03*
X009233Y012226D03*
X009233Y012232D03*
X009233Y012238D03*
X009233Y012244D03*
X009233Y012256D03*
X009233Y012262D03*
X009233Y012268D03*
X009233Y012274D03*
X009233Y012286D03*
X009233Y012292D03*
X009233Y012298D03*
X009233Y012304D03*
X009233Y012316D03*
X009233Y012322D03*
X009233Y012328D03*
X009233Y012334D03*
X008849Y012334D03*
X008849Y012328D03*
X008849Y012322D03*
X008849Y012316D03*
X008849Y012304D03*
X008849Y012298D03*
X008849Y012292D03*
X008849Y012286D03*
X008849Y012274D03*
X008849Y012268D03*
X008849Y012262D03*
X008849Y012256D03*
X008849Y012244D03*
X008849Y012238D03*
X008849Y012232D03*
X008849Y012226D03*
X008849Y012214D03*
X008849Y012208D03*
X008849Y012202D03*
X008849Y012196D03*
X008849Y012184D03*
X008849Y012178D03*
X008849Y012172D03*
X008849Y012166D03*
X008849Y012154D03*
X008849Y012148D03*
X008849Y012142D03*
X008849Y012136D03*
X008849Y012124D03*
X008849Y012118D03*
X008849Y012112D03*
X008849Y012106D03*
X008849Y012346D03*
X008603Y012046D03*
X006076Y012328D03*
X005789Y012286D03*
X005765Y012184D03*
X005765Y012178D03*
X005465Y012928D03*
X005963Y013012D03*
X005680Y013456D03*
D123*
X005734Y013222D03*
X005440Y012988D03*
X005050Y012994D03*
X005740Y012112D03*
X006100Y012298D03*
X007084Y012412D03*
X011410Y012124D03*
X011470Y012076D03*
X011494Y012058D03*
X011500Y012052D03*
X011524Y012034D03*
X011530Y012028D03*
D124*
X006239Y012034D03*
X005033Y012796D03*
X005033Y012802D03*
X005699Y013408D03*
D125*
X005461Y012040D03*
D126*
X005011Y012580D03*
X006241Y012040D03*
D127*
X006854Y012040D03*
X006344Y012910D03*
X005834Y012790D03*
D128*
X007565Y012040D03*
X010265Y012040D03*
X010265Y012070D03*
X010265Y012370D03*
X010265Y012400D03*
D129*
X010688Y012220D03*
X010628Y012100D03*
X011198Y012100D03*
X011198Y012130D03*
X011198Y012160D03*
X011198Y012190D03*
X011198Y012280D03*
X011198Y012310D03*
X011198Y012340D03*
X011198Y012370D03*
X011198Y012400D03*
X011198Y012070D03*
X011198Y012040D03*
X007988Y012040D03*
X007988Y012070D03*
X007988Y012100D03*
X007988Y012130D03*
X007988Y012160D03*
X007988Y012190D03*
X007988Y012220D03*
X007988Y012250D03*
X007988Y012280D03*
X007988Y012310D03*
X007988Y012340D03*
X007988Y012370D03*
X007988Y012400D03*
X005768Y012190D03*
D130*
X008236Y012190D03*
X008236Y012220D03*
X008236Y012250D03*
X008236Y012280D03*
X008236Y012160D03*
X008236Y012130D03*
X008236Y012100D03*
X008236Y012070D03*
X008236Y012040D03*
X008609Y012160D03*
X008609Y012190D03*
X008609Y012220D03*
X008609Y012250D03*
X008609Y012280D03*
X008609Y012310D03*
X008609Y012340D03*
X008609Y012370D03*
X008609Y012400D03*
X010703Y012250D03*
X010733Y012310D03*
D131*
X009674Y012220D03*
X009038Y012040D03*
X005114Y012370D03*
D132*
X005459Y012940D03*
X005759Y012160D03*
X007133Y012220D03*
X009509Y012190D03*
X009509Y012160D03*
X009509Y012130D03*
X009509Y012100D03*
X009509Y012070D03*
X009509Y012040D03*
X009509Y012310D03*
X009509Y012340D03*
X009509Y012370D03*
X009509Y012400D03*
X009509Y012430D03*
X010966Y012100D03*
D133*
X010999Y012040D03*
X010921Y012190D03*
D134*
X011365Y012160D03*
X011515Y012040D03*
X008425Y012220D03*
X008389Y012250D03*
X008359Y012280D03*
D135*
X005461Y012046D03*
D136*
X006245Y012046D03*
X006245Y012052D03*
X006250Y012058D03*
X006875Y012064D03*
X006875Y012472D03*
X006239Y013138D03*
X009040Y012394D03*
X009040Y012388D03*
X009040Y012058D03*
X009040Y012052D03*
D137*
X009040Y012046D03*
X005830Y012772D03*
D138*
X005459Y012058D03*
X005459Y012052D03*
D139*
X005113Y012376D03*
X005833Y012766D03*
X006079Y012634D03*
X006325Y012874D03*
X006235Y013144D03*
X005701Y013402D03*
X006871Y012478D03*
X006871Y012058D03*
X009679Y012226D03*
X009679Y012502D03*
D140*
X010990Y012058D03*
X006700Y012118D03*
X006700Y012124D03*
X006700Y012136D03*
X006700Y012142D03*
X006700Y012148D03*
X006700Y012154D03*
X006700Y012166D03*
X006700Y012172D03*
X006700Y012178D03*
X006700Y012184D03*
X006700Y012196D03*
X006700Y012202D03*
X006700Y012208D03*
X006700Y012214D03*
X006700Y012226D03*
X006700Y012232D03*
X006700Y012238D03*
X006700Y012244D03*
X006700Y012256D03*
X006700Y012262D03*
X006700Y012268D03*
X006700Y012274D03*
X006700Y012286D03*
X006700Y012292D03*
X006700Y012298D03*
X006700Y012304D03*
X006700Y012316D03*
X006700Y012322D03*
X006700Y012328D03*
X006700Y012334D03*
X006700Y012346D03*
X006700Y012352D03*
X006700Y012358D03*
X006700Y012364D03*
X006700Y012376D03*
X006700Y012382D03*
X006700Y012388D03*
X006700Y012394D03*
X006700Y012406D03*
X006700Y012412D03*
X006700Y012418D03*
X006700Y012424D03*
X005980Y013024D03*
X005734Y013192D03*
X005734Y013198D03*
X005524Y012208D03*
D141*
X005455Y012082D03*
X005455Y012076D03*
X005455Y012064D03*
D142*
X005113Y012382D03*
X006091Y012628D03*
X006319Y012868D03*
X006235Y013132D03*
X006253Y012064D03*
X009685Y012232D03*
X009685Y012496D03*
D143*
X009886Y012424D03*
X009886Y012304D03*
X010798Y012394D03*
X008590Y012064D03*
X008254Y012376D03*
X007120Y012364D03*
X007114Y012376D03*
X007126Y012196D03*
X007120Y012184D03*
X007120Y012178D03*
X007114Y012172D03*
X006250Y013258D03*
X005734Y013204D03*
X005098Y012286D03*
D144*
X005830Y012754D03*
X006880Y012076D03*
X009040Y012076D03*
X009040Y012082D03*
X009040Y012088D03*
X009040Y012064D03*
X009040Y012358D03*
X009040Y012364D03*
X009040Y012376D03*
D145*
X010988Y012064D03*
X005528Y012214D03*
D146*
X005509Y012196D03*
X006499Y012802D03*
X007099Y012148D03*
X008365Y012274D03*
X008419Y012226D03*
X008455Y012196D03*
X008479Y012172D03*
X008485Y012166D03*
X011335Y012184D03*
X011395Y012136D03*
X011425Y012112D03*
X011455Y012088D03*
X011485Y012064D03*
D147*
X005455Y012070D03*
D148*
X006259Y012070D03*
X005035Y012790D03*
D149*
X006878Y012070D03*
D150*
X007111Y012160D03*
X006091Y012310D03*
X008258Y012370D03*
X008588Y012070D03*
X009878Y012430D03*
X011365Y012310D03*
X011408Y012340D03*
D151*
X009040Y012370D03*
X009040Y012070D03*
D152*
X010984Y012070D03*
X006700Y012130D03*
X006700Y012160D03*
X006700Y012190D03*
X006700Y012220D03*
X006700Y012250D03*
X006700Y012280D03*
X006700Y012310D03*
X006700Y012340D03*
X006700Y012370D03*
X006700Y012400D03*
D153*
X005506Y012190D03*
X011476Y012070D03*
D154*
X010798Y012106D03*
X009040Y012406D03*
X007564Y012094D03*
X007564Y012088D03*
X007564Y012082D03*
X007564Y012076D03*
X006334Y012892D03*
D155*
X005815Y012388D03*
X006265Y012094D03*
X006265Y012088D03*
X006265Y012082D03*
X005695Y013396D03*
D156*
X005684Y013384D03*
X005828Y012748D03*
X005821Y012376D03*
X006314Y012862D03*
X006884Y012082D03*
X005114Y012388D03*
X005041Y012784D03*
X009038Y012352D03*
X009038Y012094D03*
X009691Y012244D03*
X009691Y012484D03*
D157*
X008581Y012082D03*
X008474Y012178D03*
X008468Y012184D03*
X008444Y012202D03*
X008438Y012208D03*
X008431Y012214D03*
X008414Y012232D03*
X008408Y012238D03*
X008384Y012256D03*
X008378Y012262D03*
X008371Y012268D03*
X008264Y012364D03*
X007094Y012406D03*
X007094Y012142D03*
X006098Y012304D03*
X005744Y012124D03*
X005744Y012118D03*
X005444Y012976D03*
X005444Y012982D03*
X006008Y013042D03*
X011318Y012196D03*
X011341Y012178D03*
X011348Y012172D03*
X011371Y012154D03*
X011378Y012148D03*
X011431Y012106D03*
X011461Y012082D03*
D158*
X006025Y013048D03*
X005725Y012088D03*
D159*
X005116Y012394D03*
X005038Y012778D03*
X005590Y013258D03*
X005668Y013366D03*
X005674Y013372D03*
X005680Y013378D03*
X006310Y012856D03*
X006886Y012454D03*
X006886Y012088D03*
X009694Y012256D03*
X009694Y012262D03*
X009694Y012466D03*
X009694Y012472D03*
X009694Y012478D03*
D160*
X009038Y012382D03*
X006878Y012466D03*
X005378Y012094D03*
X005018Y012574D03*
D161*
X005729Y012094D03*
X008279Y012334D03*
X008566Y012106D03*
X010799Y012352D03*
X010799Y012358D03*
D162*
X008575Y012094D03*
X008269Y012352D03*
D163*
X005378Y012100D03*
D164*
X006268Y012100D03*
X009694Y012250D03*
D165*
X006893Y012100D03*
X006233Y013120D03*
D166*
X011440Y012100D03*
D167*
X007088Y012136D03*
X006248Y013252D03*
X005828Y012886D03*
X005738Y012106D03*
D168*
X005419Y012112D03*
X005833Y012826D03*
X006313Y012538D03*
X006319Y012532D03*
D169*
X006286Y012208D03*
X006286Y012202D03*
X006286Y012196D03*
X006286Y012184D03*
X006286Y012178D03*
X005813Y012412D03*
X006899Y012112D03*
D170*
X007064Y012424D03*
X008281Y012328D03*
X008564Y012112D03*
X005491Y012172D03*
X005431Y013018D03*
X005431Y013024D03*
X005041Y012982D03*
D171*
X005026Y012886D03*
X005423Y012118D03*
X005806Y012328D03*
X006299Y012556D03*
X006323Y012526D03*
X006329Y012514D03*
X006335Y012508D03*
X006340Y012502D03*
X006346Y012496D03*
X006353Y012484D03*
X006400Y012832D03*
D172*
X005806Y012292D03*
X005428Y013036D03*
X005038Y012976D03*
X007066Y012124D03*
X008560Y012118D03*
D173*
X006398Y012400D03*
X005438Y012130D03*
X004928Y012700D03*
X005024Y012910D03*
D174*
X005446Y012970D03*
X005746Y012130D03*
X007096Y012400D03*
X011326Y012190D03*
X011446Y012370D03*
D175*
X006274Y012130D03*
X005638Y013330D03*
X005044Y012760D03*
D176*
X006046Y012640D03*
X010799Y012130D03*
D177*
X011401Y012130D03*
X008491Y012160D03*
X008461Y012190D03*
D178*
X005965Y012508D03*
X005455Y012136D03*
X005029Y012934D03*
D179*
X005450Y012958D03*
X005515Y012202D03*
X005750Y012136D03*
X007111Y012166D03*
X007111Y012382D03*
X007105Y012388D03*
X009878Y012298D03*
X011311Y012268D03*
X011318Y012274D03*
X011335Y012286D03*
X011341Y012292D03*
X011348Y012298D03*
X011360Y012304D03*
X011371Y012316D03*
X011384Y012322D03*
X011390Y012328D03*
X011414Y012346D03*
X011438Y012364D03*
X011461Y012382D03*
D180*
X006284Y012172D03*
X006284Y012166D03*
X006278Y012136D03*
X005828Y012724D03*
D181*
X005971Y012514D03*
X005804Y012304D03*
X005635Y012526D03*
X005455Y012142D03*
X005461Y013246D03*
X005468Y013252D03*
X006248Y013228D03*
D182*
X005453Y012952D03*
X005753Y012142D03*
D183*
X005461Y012148D03*
X005641Y012622D03*
X005648Y012628D03*
X006248Y013234D03*
D184*
X005419Y013126D03*
X005419Y013114D03*
X005419Y013108D03*
X005419Y013102D03*
X005419Y013096D03*
X005473Y012154D03*
X008299Y012298D03*
X008545Y012148D03*
D185*
X007103Y012154D03*
X007103Y012394D03*
X006503Y012796D03*
X011423Y012352D03*
X011453Y012376D03*
D186*
X011263Y012208D03*
X008539Y012154D03*
X005995Y012568D03*
X005989Y012556D03*
X005983Y012532D03*
X005635Y012598D03*
X005425Y013144D03*
X005425Y013156D03*
X005425Y013162D03*
X005425Y013168D03*
X005431Y013174D03*
D187*
X005836Y012808D03*
X006353Y012928D03*
X006239Y013174D03*
X010799Y012154D03*
D188*
X005476Y012160D03*
X005423Y013090D03*
D189*
X006284Y012160D03*
D190*
X005806Y012340D03*
X006244Y013180D03*
X010798Y012160D03*
D191*
X010798Y012166D03*
X005836Y012814D03*
D192*
X005498Y012178D03*
D193*
X005108Y012334D03*
X004951Y012628D03*
X004951Y012634D03*
X005024Y012868D03*
X006248Y013192D03*
X006361Y012952D03*
X010801Y012178D03*
D194*
X006286Y012190D03*
D195*
X007124Y012190D03*
D196*
X006415Y012286D03*
X006415Y012292D03*
X006415Y012334D03*
X005833Y012856D03*
X005653Y012508D03*
X005029Y012928D03*
X006379Y013036D03*
X006379Y013042D03*
X010201Y012268D03*
X010201Y012262D03*
X010201Y012256D03*
X010201Y012244D03*
X010201Y012238D03*
X010201Y012232D03*
X010201Y012226D03*
X010201Y012214D03*
X010201Y012208D03*
X010201Y012202D03*
D197*
X011266Y012202D03*
X005836Y012868D03*
X005639Y012616D03*
X005639Y012604D03*
X005633Y012592D03*
X005626Y012586D03*
X005626Y012574D03*
X005626Y012568D03*
X005446Y013216D03*
X005446Y013222D03*
X005033Y012952D03*
D198*
X005119Y012412D03*
X005809Y012418D03*
X006133Y012604D03*
X006289Y012214D03*
X006235Y013102D03*
D199*
X006415Y012340D03*
X005803Y012310D03*
X010201Y012250D03*
X010201Y012220D03*
D200*
X008228Y012424D03*
X005780Y012238D03*
X005780Y012232D03*
X005780Y012226D03*
X005725Y013156D03*
D201*
X005825Y012706D03*
X005806Y012424D03*
X006293Y012268D03*
X006293Y012262D03*
X006293Y012256D03*
X006293Y012244D03*
X006293Y012238D03*
X006293Y012232D03*
X006293Y012226D03*
X006233Y013096D03*
X005050Y012748D03*
D202*
X005063Y013024D03*
X005543Y012244D03*
D203*
X005783Y012244D03*
X005483Y012904D03*
X005723Y013138D03*
X005723Y013144D03*
D204*
X006293Y012250D03*
D205*
X007129Y012340D03*
X007135Y012310D03*
X007135Y012280D03*
X007135Y012250D03*
X009889Y012310D03*
X009889Y012340D03*
X009889Y012370D03*
X009889Y012400D03*
D206*
X011251Y012250D03*
X008294Y012310D03*
X005684Y013450D03*
D207*
X004934Y012724D03*
X004928Y012706D03*
X006391Y012406D03*
X006404Y012388D03*
X006404Y012382D03*
X006404Y012274D03*
D208*
X005560Y012280D03*
X005495Y012880D03*
X005716Y013120D03*
X011585Y012580D03*
D209*
X006121Y012280D03*
D210*
X006413Y012280D03*
X006383Y013030D03*
D211*
X005828Y012730D03*
X005810Y012400D03*
X005120Y012400D03*
X005594Y013270D03*
X005618Y013300D03*
X005665Y013360D03*
X009698Y012460D03*
X009698Y012280D03*
D212*
X010720Y012280D03*
X010750Y012340D03*
X006064Y012340D03*
D213*
X005734Y013210D03*
X005056Y013000D03*
X007120Y012370D03*
X010798Y012400D03*
X011326Y012280D03*
D214*
X011515Y012514D03*
X011581Y012586D03*
X011581Y012592D03*
X011653Y012592D03*
X011653Y012586D03*
X005563Y012286D03*
X005305Y012736D03*
D215*
X006113Y012286D03*
D216*
X005573Y012298D03*
X005566Y012292D03*
X005243Y012736D03*
X005716Y013108D03*
X011579Y012514D03*
X011603Y012556D03*
X011656Y012514D03*
D217*
X005993Y012562D03*
X005986Y012544D03*
X005986Y012538D03*
X005423Y013132D03*
X005423Y013138D03*
X005033Y012958D03*
X005105Y012298D03*
D218*
X006419Y012298D03*
X006419Y012304D03*
X006419Y012316D03*
X006419Y012322D03*
X006419Y012328D03*
X006376Y013048D03*
D219*
X006076Y013072D03*
X005650Y012634D03*
X005104Y012304D03*
D220*
X005108Y012310D03*
D221*
X005575Y012310D03*
X005899Y012970D03*
X011515Y012580D03*
X011515Y012550D03*
X011515Y012520D03*
X011575Y012520D03*
X011575Y012550D03*
X011605Y012550D03*
X011629Y012550D03*
X011659Y012550D03*
X011659Y012520D03*
D222*
X006419Y012310D03*
D223*
X006413Y012346D03*
X006413Y012352D03*
X006413Y012358D03*
X006245Y013222D03*
X005026Y012922D03*
X005110Y012316D03*
D224*
X005581Y012316D03*
X005581Y012322D03*
X005504Y012868D03*
X005714Y013102D03*
X005078Y013036D03*
X011618Y012526D03*
D225*
X006406Y012376D03*
X005806Y012316D03*
X006383Y013018D03*
X005026Y012916D03*
D226*
X005728Y013252D03*
X006046Y013066D03*
X006250Y013246D03*
X008290Y012316D03*
D227*
X006374Y012448D03*
X006368Y012454D03*
X005804Y012322D03*
X005834Y012838D03*
X006374Y012982D03*
X006374Y012988D03*
X005108Y012328D03*
X004934Y012658D03*
D228*
X005108Y012340D03*
X005695Y013420D03*
D229*
X006361Y013072D03*
X006379Y013024D03*
X006409Y012364D03*
X005671Y012646D03*
D230*
X005828Y012370D03*
X006884Y012460D03*
D231*
X006406Y012370D03*
X005836Y012850D03*
D232*
X010801Y012370D03*
D233*
X006233Y013126D03*
X005813Y012394D03*
D234*
X009040Y012400D03*
D235*
X011483Y012400D03*
X005993Y013030D03*
D236*
X006233Y013114D03*
X006113Y012622D03*
X005813Y012406D03*
X005633Y013324D03*
X006893Y012442D03*
D237*
X006229Y013078D03*
X005059Y012544D03*
X005119Y012424D03*
D238*
X005123Y012430D03*
D239*
X005809Y012430D03*
X005821Y012700D03*
D240*
X006383Y012430D03*
D241*
X006895Y012430D03*
D242*
X005123Y012436D03*
D243*
X005806Y012436D03*
X006149Y012592D03*
X006233Y013084D03*
D244*
X005693Y013432D03*
X006383Y012436D03*
D245*
X006154Y012586D03*
X005818Y012676D03*
X005806Y012454D03*
X005806Y012448D03*
X005806Y012442D03*
X005068Y012538D03*
D246*
X005123Y012448D03*
X005806Y012478D03*
X005806Y012484D03*
X005806Y012496D03*
X005806Y012502D03*
X005819Y012652D03*
D247*
X005123Y012460D03*
D248*
X005804Y012460D03*
X006158Y012580D03*
D249*
X006364Y012460D03*
D250*
X006160Y012574D03*
X005818Y012658D03*
X005806Y012466D03*
X005074Y012532D03*
D251*
X004939Y012646D03*
X005833Y012832D03*
X006289Y012562D03*
X006355Y012478D03*
X006361Y012472D03*
X006361Y012466D03*
X006811Y012514D03*
X005689Y013426D03*
D252*
X005125Y012478D03*
D253*
X005125Y012490D03*
D254*
X005806Y012490D03*
D255*
X006349Y012490D03*
D256*
X009689Y012490D03*
D257*
X005125Y012496D03*
X005125Y012502D03*
X005119Y012508D03*
D258*
X006353Y012934D03*
X006833Y012508D03*
D259*
X005108Y012514D03*
D260*
X005095Y012520D03*
D261*
X005638Y012520D03*
X005656Y012640D03*
D262*
X005980Y012520D03*
X005458Y013240D03*
D263*
X011614Y012520D03*
D264*
X005078Y012526D03*
D265*
X005980Y012526D03*
X005680Y013444D03*
D266*
X005033Y012946D03*
X005633Y012544D03*
X005633Y012538D03*
X005633Y012532D03*
D267*
X011618Y012532D03*
X011618Y012538D03*
D268*
X006398Y012838D03*
X006368Y012964D03*
X006248Y013198D03*
X006308Y012544D03*
D269*
X005048Y012550D03*
D270*
X005629Y012550D03*
D271*
X005989Y012550D03*
X005425Y013150D03*
D272*
X004945Y012640D03*
X006301Y012550D03*
D273*
X005824Y012712D03*
X005824Y012718D03*
X005050Y012754D03*
X005044Y012556D03*
D274*
X005629Y012556D03*
X005629Y012562D03*
X005449Y013228D03*
X005455Y013234D03*
D275*
X005716Y013114D03*
X005909Y012976D03*
X006533Y012778D03*
X011585Y012574D03*
X011650Y012574D03*
X011650Y012568D03*
D276*
X005639Y012610D03*
X005626Y012580D03*
D277*
X006085Y012850D03*
X011653Y012580D03*
D278*
X004988Y012598D03*
D279*
X004975Y012610D03*
D280*
X006124Y012610D03*
D281*
X004964Y012622D03*
D282*
X004936Y012652D03*
X004949Y012736D03*
X005026Y012892D03*
D283*
X004930Y012670D03*
D284*
X005818Y012670D03*
D285*
X005821Y012682D03*
X005821Y012688D03*
D286*
X005824Y012694D03*
D287*
X006244Y013216D03*
X004930Y012718D03*
X004930Y012712D03*
D288*
X004940Y012730D03*
X006248Y013210D03*
D289*
X005318Y012730D03*
D290*
X005423Y013054D03*
X005423Y013066D03*
X006473Y012808D03*
D291*
X006458Y012814D03*
X005438Y013186D03*
X005438Y013192D03*
X005438Y013198D03*
X005438Y013204D03*
D292*
X005033Y012820D03*
D293*
X005708Y013090D03*
X006301Y012820D03*
D294*
X006445Y012820D03*
X005030Y012940D03*
D295*
X005029Y012826D03*
X006235Y013162D03*
D296*
X006428Y012826D03*
D297*
X005026Y012850D03*
D298*
X005029Y012856D03*
D299*
X005026Y012874D03*
D300*
X005500Y012874D03*
X005710Y013096D03*
D301*
X005026Y012880D03*
D302*
X006329Y012880D03*
D303*
X006346Y012916D03*
D304*
X006353Y012940D03*
D305*
X005428Y013030D03*
X005038Y012970D03*
D306*
X006368Y012970D03*
D307*
X005438Y013000D03*
D308*
X006376Y013000D03*
D309*
X005434Y013006D03*
X005434Y013012D03*
D310*
X006379Y013012D03*
X006379Y013006D03*
D311*
X005423Y013060D03*
D312*
X006370Y013060D03*
D313*
X006368Y013066D03*
D314*
X006233Y013090D03*
D315*
X005419Y013120D03*
D316*
X006235Y013150D03*
D317*
X005438Y013180D03*
D318*
X005440Y013210D03*
D319*
X005731Y013234D03*
D320*
X005731Y013240D03*
D321*
X005689Y013390D03*
D322*
X005680Y013438D03*
D323*
X007363Y009750D03*
M02*
