G75*
G70*
%OFA0B0*%
%FSLAX24Y24*%
%IPPOS*%
%LPD*%
%AMOC8*
5,1,8,0,0,1.08239X$1,22.5*
%
%ADD10C,0.0030*%
%ADD11C,0.0050*%
%ADD12C,0.0060*%
%ADD13C,0.0079*%
%ADD14C,0.0080*%
%ADD15C,0.0400*%
%ADD16C,0.0100*%
%ADD17R,0.0010X0.0005*%
%ADD18R,0.0120X0.0005*%
%ADD19R,0.0055X0.0005*%
%ADD20R,0.0045X0.0005*%
%ADD21R,0.0050X0.0005*%
%ADD22R,0.0080X0.0005*%
%ADD23R,0.0165X0.0005*%
%ADD24R,0.0140X0.0005*%
%ADD25R,0.0125X0.0005*%
%ADD26R,0.0175X0.0005*%
%ADD27R,0.0155X0.0005*%
%ADD28R,0.0060X0.0005*%
%ADD29R,0.0160X0.0005*%
%ADD30R,0.0170X0.0005*%
%ADD31R,0.0065X0.0005*%
%ADD32R,0.0185X0.0005*%
%ADD33R,0.0180X0.0005*%
%ADD34R,0.0070X0.0005*%
%ADD35R,0.0190X0.0005*%
%ADD36R,0.0195X0.0005*%
%ADD37R,0.0075X0.0005*%
%ADD38R,0.0200X0.0005*%
%ADD39R,0.0090X0.0005*%
%ADD40R,0.0100X0.0005*%
%ADD41R,0.0085X0.0005*%
%ADD42R,0.0095X0.0005*%
%ADD43R,0.0150X0.0005*%
%ADD44R,0.0145X0.0005*%
%ADD45R,0.0030X0.0005*%
%ADD46R,0.0105X0.0005*%
%ADD47R,0.0130X0.0005*%
%ADD48R,0.1370X0.0005*%
%ADD49R,0.1400X0.0005*%
%ADD50R,0.1415X0.0005*%
%ADD51R,0.1435X0.0005*%
%ADD52R,0.1445X0.0005*%
%ADD53R,0.1455X0.0005*%
%ADD54R,0.1460X0.0005*%
%ADD55R,0.0005X0.0005*%
%ADD56R,0.0040X0.0005*%
%ADD57R,0.0035X0.0005*%
%ADD58R,0.0015X0.0005*%
%ADD59R,0.0020X0.0005*%
%ADD60R,0.0025X0.0005*%
%ADD61R,0.0110X0.0005*%
%ADD62R,0.0115X0.0005*%
%ADD63R,0.0235X0.0005*%
%ADD64R,0.0230X0.0005*%
%ADD65R,0.0225X0.0005*%
%ADD66R,0.0220X0.0005*%
%ADD67R,0.0300X0.0005*%
%ADD68R,0.0290X0.0005*%
%ADD69R,0.0280X0.0005*%
%ADD70R,0.0270X0.0005*%
%ADD71R,0.0135X0.0005*%
%ADD72R,0.0260X0.0005*%
%ADD73R,0.0390X0.0005*%
%ADD74R,0.0370X0.0005*%
%ADD75R,0.0355X0.0005*%
%ADD76R,0.0350X0.0005*%
%ADD77R,0.0335X0.0005*%
%ADD78R,0.0325X0.0005*%
D10*
X005257Y000341D02*
X005257Y000631D01*
X005451Y000631D02*
X005257Y000341D01*
X005451Y000341D02*
X005451Y000631D01*
X005552Y000631D02*
X005552Y000341D01*
X005648Y000437D01*
X005745Y000341D01*
X005745Y000631D01*
X005846Y000582D02*
X005895Y000631D01*
X005991Y000631D01*
X006040Y000582D01*
X006040Y000389D01*
X005991Y000341D01*
X005895Y000341D01*
X005846Y000389D01*
X005846Y000582D01*
X006141Y000582D02*
X006141Y000389D01*
X006189Y000341D01*
X006335Y000341D01*
X006335Y000631D01*
X006189Y000631D01*
X006141Y000582D01*
X007596Y000582D02*
X007596Y000486D01*
X007645Y000437D01*
X007790Y000437D01*
X007790Y000341D02*
X007790Y000631D01*
X007645Y000631D01*
X007596Y000582D01*
X007891Y000631D02*
X007891Y000389D01*
X007939Y000341D01*
X008036Y000341D01*
X008085Y000389D01*
X008085Y000631D01*
X010082Y000582D02*
X010082Y000486D01*
X010130Y000437D01*
X010275Y000437D01*
X010275Y000341D02*
X010275Y000631D01*
X010130Y000631D01*
X010082Y000582D01*
X010178Y000437D02*
X010082Y000341D01*
X010376Y000341D02*
X010473Y000437D01*
X010570Y000341D01*
X010570Y000631D01*
X010671Y000582D02*
X010719Y000631D01*
X010865Y000631D01*
X010865Y000341D01*
X010865Y000437D02*
X010719Y000437D01*
X010671Y000486D01*
X010671Y000582D01*
X010376Y000631D02*
X010376Y000341D01*
X011768Y000341D02*
X011961Y000341D01*
X011961Y000631D01*
X011768Y000631D01*
X011865Y000486D02*
X011961Y000486D01*
X012062Y000437D02*
X012062Y000389D01*
X012111Y000341D01*
X012208Y000341D01*
X012256Y000389D01*
X012357Y000389D02*
X012357Y000631D01*
X012256Y000582D02*
X012256Y000534D01*
X012208Y000486D01*
X012111Y000486D01*
X012062Y000437D01*
X012062Y000582D02*
X012111Y000631D01*
X012208Y000631D01*
X012256Y000582D01*
X012357Y000389D02*
X012405Y000341D01*
X012502Y000341D01*
X012551Y000389D01*
X012551Y000631D01*
X012652Y000631D02*
X012845Y000631D01*
X012845Y000341D01*
X012946Y000292D02*
X013140Y000292D01*
X013241Y000341D02*
X013435Y000341D01*
X013435Y000631D01*
X012845Y000486D02*
X012748Y000486D01*
X018551Y000391D02*
X018745Y000391D01*
X018745Y000681D01*
X020701Y000681D02*
X020701Y000391D01*
X020895Y000681D01*
X020895Y000391D01*
X020990Y006581D02*
X020893Y006581D01*
X020941Y006581D02*
X020941Y006871D01*
X020893Y006871D02*
X020990Y006871D01*
X021091Y006871D02*
X021091Y006581D01*
X021091Y006726D02*
X021285Y006726D01*
X021285Y006581D02*
X021285Y006871D01*
X020793Y006822D02*
X020793Y006629D01*
X020745Y006581D01*
X020648Y006581D01*
X020600Y006629D01*
X020600Y006726D01*
X020697Y006726D01*
X020793Y006822D02*
X020745Y006871D01*
X020648Y006871D01*
X020600Y006822D01*
X020499Y006871D02*
X020499Y006581D01*
X020499Y006726D02*
X020305Y006726D01*
X020305Y006871D02*
X020305Y006581D01*
X019909Y006677D02*
X019813Y006581D01*
X019716Y006677D01*
X019716Y006871D01*
X019615Y006822D02*
X019615Y006629D01*
X019566Y006581D01*
X019470Y006581D01*
X019421Y006629D01*
X019421Y006822D01*
X019470Y006871D01*
X019566Y006871D01*
X019615Y006822D01*
X019320Y006871D02*
X019320Y006581D01*
X019127Y006581D01*
X018929Y006581D02*
X018929Y006871D01*
X019026Y006871D02*
X018832Y006871D01*
X018731Y006774D02*
X018634Y006871D01*
X018537Y006774D01*
X018537Y006581D01*
X018436Y006629D02*
X018388Y006581D01*
X018291Y006581D01*
X018243Y006629D01*
X018243Y006726D01*
X018339Y006726D01*
X018243Y006822D02*
X018291Y006871D01*
X018388Y006871D01*
X018436Y006822D01*
X018436Y006629D01*
X018537Y006726D02*
X018731Y006726D01*
X018731Y006774D02*
X018731Y006581D01*
X018142Y006581D02*
X017948Y006581D01*
X018045Y006726D02*
X018142Y006726D01*
X018142Y006871D02*
X018142Y006581D01*
X018142Y006871D02*
X017948Y006871D01*
X017552Y006822D02*
X017552Y006774D01*
X017504Y006726D01*
X017407Y006726D01*
X017359Y006677D01*
X017359Y006629D01*
X017407Y006581D01*
X017504Y006581D01*
X017552Y006629D01*
X017552Y006822D02*
X017504Y006871D01*
X017407Y006871D01*
X017359Y006822D01*
X017258Y006871D02*
X017161Y006871D01*
X017209Y006871D02*
X017209Y006581D01*
X017161Y006581D02*
X017258Y006581D01*
X017061Y006581D02*
X016916Y006581D01*
X016868Y006629D01*
X016868Y006822D01*
X016916Y006871D01*
X017061Y006871D01*
X017061Y006581D01*
X016767Y006581D02*
X016573Y006581D01*
X016472Y006581D02*
X016423Y006581D01*
X016423Y006629D01*
X016472Y006629D01*
X016472Y006581D01*
X016670Y006726D02*
X016767Y006726D01*
X016767Y006871D02*
X016573Y006871D01*
X016767Y006871D02*
X016767Y006581D01*
X016030Y006581D02*
X015885Y006581D01*
X015836Y006629D01*
X015836Y006677D01*
X015885Y006726D01*
X016030Y006726D01*
X016030Y006871D02*
X015885Y006871D01*
X015836Y006822D01*
X015836Y006774D01*
X015885Y006726D01*
X015735Y006726D02*
X015687Y006774D01*
X015590Y006774D01*
X015542Y006726D01*
X015542Y006677D01*
X015735Y006677D01*
X015735Y006629D02*
X015735Y006726D01*
X015735Y006629D02*
X015687Y006581D01*
X015590Y006581D01*
X016030Y006581D02*
X016030Y006871D01*
X015146Y006726D02*
X015146Y006629D01*
X015098Y006581D01*
X014952Y006581D01*
X014851Y006629D02*
X014803Y006677D01*
X014658Y006677D01*
X014658Y006726D02*
X014658Y006581D01*
X014803Y006581D01*
X014851Y006629D01*
X014803Y006774D02*
X014706Y006774D01*
X014658Y006726D01*
X014557Y006774D02*
X014557Y006581D01*
X014557Y006677D02*
X014460Y006774D01*
X014412Y006774D01*
X014311Y006726D02*
X014263Y006774D01*
X014166Y006774D01*
X014118Y006726D01*
X014118Y006677D01*
X014311Y006677D01*
X014311Y006629D02*
X014311Y006726D01*
X014311Y006629D02*
X014263Y006581D01*
X014166Y006581D01*
X013968Y006581D02*
X013968Y006822D01*
X013920Y006871D01*
X013820Y006774D02*
X013820Y006629D01*
X013772Y006581D01*
X013627Y006581D01*
X013627Y006774D01*
X013525Y006871D02*
X013477Y006871D01*
X013477Y006581D01*
X013525Y006581D02*
X013429Y006581D01*
X013329Y006581D02*
X013281Y006581D01*
X013281Y006629D01*
X013329Y006629D01*
X013329Y006581D01*
X012887Y006581D02*
X012887Y006871D01*
X012742Y006871D01*
X012693Y006822D01*
X012693Y006726D01*
X012742Y006677D01*
X012887Y006677D01*
X012790Y006677D02*
X012693Y006581D01*
X012592Y006581D02*
X012496Y006581D01*
X012544Y006581D02*
X012544Y006774D01*
X012592Y006774D01*
X012544Y006871D02*
X012544Y006919D01*
X012396Y006726D02*
X012347Y006774D01*
X012202Y006774D01*
X012251Y006677D02*
X012347Y006677D01*
X012396Y006726D01*
X012396Y006581D02*
X012251Y006581D01*
X012202Y006629D01*
X012251Y006677D01*
X012101Y006677D02*
X011956Y006774D01*
X012101Y006677D02*
X011956Y006581D01*
X012101Y006581D02*
X012101Y006871D01*
X011561Y006726D02*
X011561Y006629D01*
X011513Y006581D01*
X011416Y006581D01*
X011368Y006629D01*
X011368Y006726D01*
X011416Y006774D01*
X011513Y006774D01*
X011561Y006726D01*
X011266Y006726D02*
X011170Y006726D01*
X011218Y006822D02*
X011170Y006871D01*
X011218Y006822D02*
X011218Y006581D01*
X010775Y006629D02*
X010775Y006726D01*
X010727Y006774D01*
X010582Y006774D01*
X010582Y006871D02*
X010582Y006581D01*
X010727Y006581D01*
X010775Y006629D01*
X010481Y006629D02*
X010481Y006726D01*
X010432Y006774D01*
X010335Y006774D01*
X010287Y006726D01*
X010287Y006677D01*
X010481Y006677D01*
X010481Y006629D02*
X010432Y006581D01*
X010335Y006581D01*
X010186Y006629D02*
X010138Y006677D01*
X009992Y006677D01*
X009992Y006726D02*
X009992Y006581D01*
X010138Y006581D01*
X010186Y006629D01*
X010138Y006774D02*
X010041Y006774D01*
X009992Y006726D01*
X009891Y006774D02*
X009795Y006774D01*
X009843Y006822D02*
X009843Y006629D01*
X009795Y006581D01*
X009695Y006581D02*
X009695Y006871D01*
X009647Y006774D02*
X009550Y006774D01*
X009501Y006726D01*
X009501Y006581D01*
X009400Y006581D02*
X009400Y006629D01*
X009400Y006726D02*
X009400Y006919D01*
X009647Y006774D02*
X009695Y006726D01*
X008987Y006891D02*
X008673Y007204D01*
X008673Y007047D02*
X008987Y007047D01*
X008987Y007204D02*
X008673Y006891D01*
X008830Y006891D02*
X008830Y007204D01*
X013920Y006726D02*
X014016Y006726D01*
X014952Y006774D02*
X015098Y006774D01*
X015146Y006726D01*
X019909Y006677D02*
X019909Y006871D01*
D11*
X019910Y007676D02*
X019910Y008376D01*
X018610Y008376D01*
X018610Y007676D01*
X019910Y007676D01*
X019903Y008482D02*
X018603Y008482D01*
X018603Y009182D01*
X019903Y009182D01*
X019903Y008482D01*
X020305Y008686D02*
X020305Y009036D01*
X019910Y009276D02*
X019910Y009976D01*
X018610Y009976D01*
X018610Y009276D01*
X019910Y009276D01*
X020305Y008686D02*
X020605Y008686D01*
X020805Y009186D02*
X020955Y009186D01*
X021455Y009036D02*
X021455Y008686D01*
X021155Y008686D01*
X015310Y013276D02*
X015312Y013296D01*
X015318Y013314D01*
X015327Y013332D01*
X015339Y013347D01*
X015354Y013359D01*
X015372Y013368D01*
X015390Y013374D01*
X015410Y013376D01*
X015430Y013374D01*
X015448Y013368D01*
X015466Y013359D01*
X015481Y013347D01*
X015493Y013332D01*
X015502Y013314D01*
X015508Y013296D01*
X015510Y013276D01*
X015508Y013256D01*
X015502Y013238D01*
X015493Y013220D01*
X015481Y013205D01*
X015466Y013193D01*
X015448Y013184D01*
X015430Y013178D01*
X015410Y013176D01*
X015390Y013178D01*
X015372Y013184D01*
X015354Y013193D01*
X015339Y013205D01*
X015327Y013220D01*
X015318Y013238D01*
X015312Y013256D01*
X015310Y013276D01*
X018360Y014776D02*
X018360Y016076D01*
X019060Y016076D01*
X019060Y014776D01*
X018360Y014776D01*
X014560Y005226D02*
X014060Y005226D01*
X014560Y004726D02*
X015060Y004726D01*
X005741Y009491D02*
X005741Y009901D01*
X004718Y009901D01*
X004718Y009491D01*
X005741Y009491D01*
X004757Y009853D02*
X004759Y009862D01*
X004764Y009871D01*
X004771Y009876D01*
X004781Y009879D01*
X004790Y009878D01*
X004799Y009874D01*
X004805Y009867D01*
X004809Y009858D01*
X004809Y009848D01*
X004805Y009839D01*
X004799Y009832D01*
X004790Y009828D01*
X004781Y009827D01*
X004771Y009830D01*
X004764Y009835D01*
X004759Y009844D01*
X004757Y009853D01*
D12*
X006700Y008676D02*
X006700Y007676D01*
X008620Y007676D02*
X008620Y008056D01*
X008620Y008296D01*
X008620Y008676D01*
X008620Y008296D02*
X008599Y008294D01*
X008579Y008289D01*
X008560Y008280D01*
X008543Y008268D01*
X008528Y008253D01*
X008516Y008236D01*
X008507Y008217D01*
X008502Y008197D01*
X008500Y008176D01*
X008502Y008155D01*
X008507Y008135D01*
X008516Y008116D01*
X008528Y008099D01*
X008543Y008084D01*
X008560Y008072D01*
X008579Y008063D01*
X008599Y008058D01*
X008620Y008056D01*
X011240Y009436D02*
X011240Y009716D01*
X011670Y009266D02*
X011950Y009266D01*
X012380Y009436D02*
X012380Y009716D01*
X016450Y016866D02*
X016450Y017185D01*
X016669Y017185D01*
X017350Y017185D02*
X017569Y017185D01*
X017569Y016866D01*
D13*
X017863Y016977D02*
X018256Y016977D01*
X018256Y017134D02*
X017863Y017134D01*
X018060Y017174D02*
X018060Y017192D01*
X018060Y016937D02*
X018060Y016919D01*
X018853Y016987D02*
X019246Y016987D01*
X019246Y017144D02*
X018853Y017144D01*
X019050Y017184D02*
X019050Y017202D01*
X019050Y016947D02*
X019050Y016929D01*
X019813Y016947D02*
X020206Y016947D01*
X020206Y017104D02*
X019813Y017104D01*
X020010Y017144D02*
X020010Y017162D01*
X020010Y016907D02*
X020010Y016889D01*
X019860Y015362D02*
X019860Y015344D01*
X020056Y015304D02*
X019663Y015304D01*
X019663Y015147D02*
X020056Y015147D01*
X019860Y015107D02*
X019860Y015089D01*
X018056Y015247D02*
X017663Y015247D01*
X017663Y015404D02*
X018056Y015404D01*
X017860Y015444D02*
X017860Y015462D01*
X017860Y015207D02*
X017860Y015189D01*
X017018Y014896D02*
X016781Y014777D01*
X016939Y014699D01*
X016939Y014620D01*
X017018Y014896D02*
X016781Y014974D01*
X016939Y015092D01*
X016939Y015171D01*
X016948Y015489D02*
X016948Y015882D01*
X016791Y015882D02*
X016791Y015489D01*
X016751Y015686D02*
X016733Y015686D01*
X016988Y015686D02*
X017006Y015686D01*
X016026Y015617D02*
X015633Y015617D01*
X015633Y015774D02*
X016026Y015774D01*
X015830Y015814D02*
X015830Y015832D01*
X015830Y015577D02*
X015830Y015559D01*
X014818Y015477D02*
X014581Y015556D01*
X014818Y015674D01*
X014660Y015752D01*
X014660Y015831D01*
X014818Y015477D02*
X014660Y015359D01*
X014660Y015280D01*
X013478Y015497D02*
X013320Y015379D01*
X013320Y015300D01*
X013478Y015497D02*
X013241Y015576D01*
X013478Y015694D01*
X013320Y015772D01*
X013320Y015851D01*
X013040Y016859D02*
X013040Y016877D01*
X013236Y016917D02*
X012843Y016917D01*
X012843Y017074D02*
X013236Y017074D01*
X013040Y017114D02*
X013040Y017132D01*
X015673Y016806D02*
X015691Y016806D01*
X015731Y017002D02*
X015731Y016609D01*
X015888Y016609D02*
X015888Y017002D01*
X015928Y016806D02*
X015946Y016806D01*
X020810Y013221D02*
X020810Y013142D01*
X020968Y013064D01*
X020731Y012946D01*
X020968Y012867D01*
X020810Y012749D01*
X020810Y012670D01*
X020933Y012022D02*
X021406Y012022D01*
X021140Y011738D01*
X020933Y011738D01*
X021140Y011738D02*
X021426Y011738D01*
X021180Y011757D02*
X020933Y012022D01*
X021022Y012023D02*
X021061Y012023D01*
X021180Y011954D01*
X021180Y011876D01*
X021180Y011836D02*
X021298Y011994D01*
X021298Y012023D02*
X021180Y011954D01*
X021180Y011836D02*
X021022Y012023D01*
X021061Y012023D02*
X021298Y012023D01*
X020938Y011122D02*
X020938Y010729D01*
X020781Y010729D02*
X020781Y011122D01*
X020741Y010926D02*
X020723Y010926D01*
X020978Y010926D02*
X020996Y010926D01*
X020820Y010301D02*
X020820Y010222D01*
X020978Y010144D01*
X020741Y010026D01*
X020978Y009947D01*
X020820Y009829D01*
X020820Y009750D01*
X020738Y008122D02*
X020738Y007729D01*
X020581Y007729D02*
X020581Y008122D01*
X020541Y007926D02*
X020523Y007926D01*
X020778Y007926D02*
X020796Y007926D01*
X018256Y008004D02*
X017863Y008004D01*
X017863Y007847D02*
X018256Y007847D01*
X018060Y007807D02*
X018060Y007789D01*
X018060Y008044D02*
X018060Y008062D01*
X018060Y008977D02*
X018060Y008996D01*
X018256Y009035D02*
X017863Y009035D01*
X017863Y009193D02*
X018256Y009193D01*
X018060Y009232D02*
X018060Y009251D01*
X017585Y009185D02*
X017506Y009185D01*
X017428Y009027D01*
X017310Y009264D01*
X017231Y009027D01*
X017113Y009185D01*
X017034Y009185D01*
X016456Y008184D02*
X016063Y008184D01*
X016063Y008027D02*
X016456Y008027D01*
X016260Y007987D02*
X016260Y007969D01*
X016260Y008224D02*
X016260Y008242D01*
X015485Y008886D02*
X015406Y008886D01*
X015288Y009044D01*
X015210Y008807D01*
X015091Y009044D01*
X015013Y008886D01*
X014934Y008886D01*
X014258Y009246D02*
X014021Y009127D01*
X014179Y009049D01*
X014179Y008970D01*
X014258Y009246D02*
X014021Y009324D01*
X014179Y009442D01*
X014179Y009521D01*
X014120Y009800D02*
X014120Y009879D01*
X014278Y009997D01*
X014041Y010076D01*
X014278Y010194D01*
X014120Y010272D01*
X014120Y010351D01*
X014499Y011150D02*
X014499Y011229D01*
X014341Y011307D01*
X014578Y011426D01*
X014341Y011504D01*
X014499Y011622D01*
X014499Y011701D01*
X013135Y009815D02*
X013056Y009815D01*
X012978Y009657D01*
X012860Y009894D01*
X012781Y009657D01*
X012663Y009815D01*
X012584Y009815D01*
X010866Y009644D02*
X010473Y009644D01*
X010473Y009487D02*
X010866Y009487D01*
X010670Y009447D02*
X010670Y009429D01*
X010670Y009684D02*
X010670Y009702D01*
X010095Y009536D02*
X010016Y009536D01*
X009898Y009694D01*
X009820Y009457D01*
X009701Y009694D01*
X009623Y009536D01*
X009544Y009536D01*
X009488Y008922D02*
X009488Y008529D01*
X009331Y008529D02*
X009331Y008922D01*
X009291Y008726D02*
X009273Y008726D01*
X009528Y008726D02*
X009546Y008726D01*
X008370Y009630D02*
X008370Y009709D01*
X008528Y009827D01*
X008291Y009906D01*
X008528Y010024D01*
X008370Y010102D01*
X008370Y010181D01*
X007456Y010197D02*
X007063Y010197D01*
X007063Y010354D02*
X007456Y010354D01*
X007260Y010394D02*
X007260Y010412D01*
X007260Y010157D02*
X007260Y010139D01*
X013414Y008165D02*
X013493Y008165D01*
X013611Y008007D01*
X013690Y008244D01*
X013808Y008007D01*
X013886Y008165D01*
X013965Y008165D01*
X014323Y008184D02*
X014716Y008184D01*
X014716Y008027D02*
X014323Y008027D01*
X014520Y007987D02*
X014520Y007969D01*
X014520Y008224D02*
X014520Y008242D01*
D14*
X013115Y008171D02*
X013115Y008329D01*
X012604Y008329D01*
X012604Y008880D01*
X013115Y008880D02*
X013115Y008329D01*
X012604Y008329D02*
X012604Y008171D01*
X020595Y013678D02*
X021107Y013678D01*
X021107Y015095D02*
X020595Y015095D01*
D15*
X016454Y013711D02*
X016456Y013719D01*
X016461Y013726D01*
X016468Y013730D01*
X016476Y013731D01*
X016484Y013728D01*
X016490Y013723D01*
X016494Y013715D01*
X016494Y013707D01*
X016490Y013699D01*
X016484Y013694D01*
X016476Y013691D01*
X016468Y013692D01*
X016461Y013696D01*
X016456Y013703D01*
X016454Y013711D01*
D16*
X015060Y005226D02*
X014060Y005226D01*
X014060Y004726D02*
X015060Y004726D01*
D17*
X020202Y004216D03*
X020212Y004231D03*
X020217Y004236D03*
X020222Y004246D03*
X020227Y004251D03*
X020302Y004341D03*
X020307Y004346D03*
X020307Y004351D03*
X020312Y004356D03*
X020317Y004366D03*
X020322Y004376D03*
X020567Y004481D03*
X020567Y004486D03*
X020572Y004496D03*
X020572Y004501D03*
X020602Y004521D03*
X020617Y004726D03*
X020677Y004791D03*
X020677Y004796D03*
X020677Y004801D03*
X020677Y004806D03*
X020817Y004486D03*
X020917Y004151D03*
X020967Y004091D03*
X020972Y004086D03*
X020987Y004076D03*
X020992Y004071D03*
X020997Y004066D03*
X020497Y004106D03*
X020497Y004111D03*
X020497Y004116D03*
X020497Y004121D03*
X020497Y004126D03*
X020502Y004156D03*
X020462Y004036D03*
X020297Y003841D03*
X020327Y003606D03*
X021297Y003371D03*
X006297Y004771D03*
X005997Y005466D03*
X005992Y005471D03*
X005987Y005476D03*
X005972Y005486D03*
X005967Y005491D03*
X005917Y005551D03*
X005817Y005886D03*
X005602Y005921D03*
X005572Y005901D03*
X005572Y005896D03*
X005567Y005886D03*
X005567Y005881D03*
X005617Y006126D03*
X005677Y006191D03*
X005677Y006196D03*
X005677Y006201D03*
X005677Y006206D03*
X005322Y005776D03*
X005317Y005766D03*
X005312Y005756D03*
X005307Y005751D03*
X005307Y005746D03*
X005302Y005741D03*
X005227Y005651D03*
X005222Y005646D03*
X005217Y005636D03*
X005212Y005631D03*
X005202Y005616D03*
X005502Y005556D03*
X005497Y005526D03*
X005497Y005521D03*
X005497Y005516D03*
X005497Y005511D03*
X005497Y005506D03*
X005462Y005436D03*
X005297Y005241D03*
X005327Y005006D03*
D18*
X005782Y005581D03*
X005832Y005771D03*
X005637Y005876D03*
X005437Y005971D03*
X005437Y006076D03*
X005597Y006486D03*
X006307Y004776D03*
X020437Y004676D03*
X020437Y004571D03*
X020637Y004476D03*
X020832Y004371D03*
X020782Y004181D03*
X020597Y005086D03*
X021307Y003376D03*
D19*
X021170Y003461D03*
X021165Y003471D03*
X021165Y003476D03*
X021160Y003486D03*
X021160Y003491D03*
X021160Y003496D03*
X021160Y003501D03*
X021160Y003506D03*
X021160Y003511D03*
X021160Y003516D03*
X021160Y003521D03*
X021160Y003526D03*
X021160Y003531D03*
X021160Y003536D03*
X021160Y003541D03*
X021160Y003546D03*
X021160Y003551D03*
X021165Y003561D03*
X021165Y003566D03*
X021170Y003576D03*
X021055Y003441D03*
X021060Y003426D03*
X021060Y003421D03*
X021065Y003411D03*
X021065Y003406D03*
X021070Y003396D03*
X021070Y003391D03*
X021075Y003381D03*
X021075Y003376D03*
X020905Y003431D03*
X020905Y003436D03*
X020905Y003441D03*
X020910Y003451D03*
X020900Y003426D03*
X020900Y003421D03*
X020900Y003416D03*
X020895Y003411D03*
X020895Y003406D03*
X020895Y003401D03*
X020890Y003396D03*
X020890Y003391D03*
X020890Y003386D03*
X020885Y003381D03*
X020885Y003376D03*
X020925Y003506D03*
X020930Y003521D03*
X020935Y003536D03*
X020940Y003551D03*
X020735Y003581D03*
X020730Y003571D03*
X020725Y003561D03*
X020720Y003551D03*
X020715Y003546D03*
X020715Y003541D03*
X020710Y003536D03*
X020705Y003526D03*
X020700Y003516D03*
X020695Y003511D03*
X020695Y003506D03*
X020690Y003501D03*
X020690Y003496D03*
X020685Y003491D03*
X020680Y003481D03*
X020675Y003471D03*
X020670Y003461D03*
X020620Y003381D03*
X020510Y003476D03*
X020510Y003481D03*
X020510Y003486D03*
X020515Y003496D03*
X020515Y003501D03*
X020515Y003506D03*
X020515Y003511D03*
X020515Y003516D03*
X020515Y003521D03*
X020515Y003526D03*
X020515Y003531D03*
X020510Y003541D03*
X020510Y003546D03*
X020510Y003551D03*
X020505Y003561D03*
X020505Y003566D03*
X020385Y003656D03*
X020220Y003576D03*
X020220Y003571D03*
X020220Y003566D03*
X020220Y003486D03*
X020220Y003481D03*
X020220Y003476D03*
X020220Y003471D03*
X020220Y003461D03*
X020220Y003446D03*
X020220Y003441D03*
X020220Y003436D03*
X020220Y003431D03*
X020220Y003426D03*
X020000Y003426D03*
X020000Y003431D03*
X020000Y003436D03*
X020000Y003441D03*
X020000Y003446D03*
X020000Y003451D03*
X020000Y003456D03*
X020000Y003461D03*
X020000Y003466D03*
X020000Y003471D03*
X020000Y003476D03*
X020000Y003481D03*
X020000Y003486D03*
X020000Y003531D03*
X020000Y003536D03*
X020000Y003541D03*
X020000Y003546D03*
X020000Y003551D03*
X020000Y003556D03*
X020000Y003561D03*
X020000Y003576D03*
X020000Y003581D03*
X020000Y003586D03*
X020000Y003591D03*
X020000Y003596D03*
X020000Y003601D03*
X020000Y003606D03*
X019950Y003656D03*
X019865Y003596D03*
X019865Y003591D03*
X019865Y003556D03*
X019870Y003546D03*
X019875Y003541D03*
X019885Y003476D03*
X019880Y003471D03*
X019880Y003466D03*
X019875Y003461D03*
X019875Y003456D03*
X019875Y003451D03*
X019870Y003441D03*
X019870Y003436D03*
X019870Y003431D03*
X019870Y003426D03*
X019865Y003421D03*
X019865Y003416D03*
X019865Y003411D03*
X019865Y003406D03*
X019860Y003401D03*
X019860Y003396D03*
X019860Y003391D03*
X019855Y003386D03*
X019855Y003381D03*
X020000Y003381D03*
X020000Y003386D03*
X020000Y003391D03*
X020000Y003396D03*
X020000Y003401D03*
X020000Y003406D03*
X020000Y003411D03*
X020000Y003416D03*
X020000Y003421D03*
X019970Y003841D03*
X020860Y004341D03*
X021305Y003841D03*
X006305Y005241D03*
X006170Y004976D03*
X006165Y004966D03*
X006165Y004961D03*
X006160Y004951D03*
X006160Y004946D03*
X006160Y004941D03*
X006160Y004936D03*
X006160Y004931D03*
X006160Y004926D03*
X006160Y004921D03*
X006160Y004916D03*
X006160Y004911D03*
X006160Y004906D03*
X006160Y004901D03*
X006160Y004896D03*
X006160Y004891D03*
X006160Y004886D03*
X006165Y004876D03*
X006165Y004871D03*
X006170Y004861D03*
X006060Y004826D03*
X006060Y004821D03*
X006065Y004811D03*
X006065Y004806D03*
X006070Y004796D03*
X006070Y004791D03*
X006075Y004781D03*
X006075Y004776D03*
X006055Y004841D03*
X005925Y004906D03*
X005930Y004921D03*
X005935Y004936D03*
X005940Y004951D03*
X005910Y004851D03*
X005905Y004841D03*
X005905Y004836D03*
X005905Y004831D03*
X005900Y004826D03*
X005900Y004821D03*
X005900Y004816D03*
X005895Y004811D03*
X005895Y004806D03*
X005895Y004801D03*
X005890Y004796D03*
X005890Y004791D03*
X005890Y004786D03*
X005885Y004781D03*
X005885Y004776D03*
X005690Y004896D03*
X005690Y004901D03*
X005695Y004906D03*
X005695Y004911D03*
X005700Y004916D03*
X005705Y004926D03*
X005710Y004936D03*
X005715Y004941D03*
X005715Y004946D03*
X005720Y004951D03*
X005725Y004961D03*
X005730Y004971D03*
X005735Y004981D03*
X005685Y004891D03*
X005680Y004881D03*
X005675Y004871D03*
X005670Y004861D03*
X005620Y004781D03*
X005510Y004876D03*
X005510Y004881D03*
X005510Y004886D03*
X005515Y004896D03*
X005515Y004901D03*
X005515Y004906D03*
X005515Y004911D03*
X005515Y004916D03*
X005515Y004921D03*
X005515Y004926D03*
X005515Y004931D03*
X005510Y004941D03*
X005510Y004946D03*
X005510Y004951D03*
X005505Y004961D03*
X005505Y004966D03*
X005385Y005056D03*
X005220Y004976D03*
X005220Y004971D03*
X005220Y004966D03*
X005220Y004886D03*
X005220Y004881D03*
X005220Y004876D03*
X005220Y004871D03*
X005220Y004861D03*
X005220Y004846D03*
X005220Y004841D03*
X005220Y004836D03*
X005220Y004831D03*
X005220Y004826D03*
X005000Y004826D03*
X005000Y004831D03*
X005000Y004836D03*
X005000Y004841D03*
X005000Y004846D03*
X005000Y004851D03*
X005000Y004856D03*
X005000Y004861D03*
X005000Y004866D03*
X005000Y004871D03*
X005000Y004876D03*
X005000Y004881D03*
X005000Y004886D03*
X005000Y004931D03*
X005000Y004936D03*
X005000Y004941D03*
X005000Y004946D03*
X005000Y004951D03*
X005000Y004956D03*
X005000Y004961D03*
X005000Y004976D03*
X005000Y004981D03*
X005000Y004986D03*
X005000Y004991D03*
X005000Y004996D03*
X005000Y005001D03*
X005000Y005006D03*
X004950Y005056D03*
X004865Y004996D03*
X004865Y004991D03*
X004865Y004956D03*
X004870Y004946D03*
X004875Y004941D03*
X004885Y004876D03*
X004880Y004871D03*
X004880Y004866D03*
X004875Y004861D03*
X004875Y004856D03*
X004875Y004851D03*
X004870Y004841D03*
X004870Y004836D03*
X004870Y004831D03*
X004870Y004826D03*
X004865Y004821D03*
X004865Y004816D03*
X004865Y004811D03*
X004865Y004806D03*
X004860Y004801D03*
X004860Y004796D03*
X004860Y004791D03*
X004855Y004786D03*
X004855Y004781D03*
X005000Y004781D03*
X005000Y004786D03*
X005000Y004791D03*
X005000Y004796D03*
X005000Y004801D03*
X005000Y004806D03*
X005000Y004811D03*
X005000Y004816D03*
X005000Y004821D03*
X004970Y005241D03*
X005860Y005741D03*
D20*
X006025Y005821D03*
X006040Y005796D03*
X006045Y005786D03*
X006060Y005761D03*
X006075Y005736D03*
X006080Y005726D03*
X006115Y005666D03*
X006120Y005656D03*
X006135Y005631D03*
X006155Y005596D03*
X006170Y005571D03*
X006175Y005561D03*
X006190Y005536D03*
X006195Y005526D03*
X006210Y005501D03*
X006225Y005476D03*
X006230Y005466D03*
X006245Y005441D03*
X006250Y005431D03*
X006265Y005406D03*
X006270Y005396D03*
X006280Y005381D03*
X006285Y005371D03*
X006300Y005346D03*
X006305Y005336D03*
X006310Y005326D03*
X006320Y005256D03*
X006315Y005251D03*
X006010Y005001D03*
X006010Y004996D03*
X006010Y004991D03*
X006010Y004986D03*
X006015Y004981D03*
X006015Y004976D03*
X006015Y004971D03*
X006020Y004961D03*
X006020Y004956D03*
X006025Y004941D03*
X006030Y004926D03*
X006035Y004911D03*
X006040Y004896D03*
X006005Y005006D03*
X005955Y005006D03*
X005790Y004986D03*
X005790Y004981D03*
X005790Y004976D03*
X005790Y004971D03*
X005790Y004966D03*
X005790Y004961D03*
X005790Y004956D03*
X005790Y004951D03*
X005790Y004946D03*
X005790Y004941D03*
X005790Y004926D03*
X005790Y004791D03*
X005790Y004776D03*
X005615Y004856D03*
X005615Y004861D03*
X005615Y004866D03*
X005615Y004871D03*
X005615Y004876D03*
X005615Y004881D03*
X005615Y004886D03*
X005615Y004891D03*
X005615Y004896D03*
X005615Y004901D03*
X005615Y004906D03*
X005615Y004911D03*
X005615Y004916D03*
X005615Y004921D03*
X005615Y004926D03*
X005615Y004931D03*
X005615Y004936D03*
X005615Y004941D03*
X005615Y004946D03*
X005615Y004951D03*
X005615Y004956D03*
X005615Y004961D03*
X005615Y004966D03*
X005615Y004971D03*
X005615Y004976D03*
X005615Y004981D03*
X005615Y004986D03*
X005615Y004991D03*
X005615Y004996D03*
X005615Y005001D03*
X005615Y005006D03*
X005615Y005011D03*
X005615Y005016D03*
X005615Y005021D03*
X005615Y005026D03*
X005615Y005031D03*
X005615Y005036D03*
X005615Y005041D03*
X005615Y005046D03*
X005615Y005051D03*
X004945Y005431D03*
X004950Y005441D03*
X004955Y005451D03*
X004965Y005466D03*
X004970Y005476D03*
X004975Y005486D03*
X004980Y005491D03*
X004985Y005501D03*
X004990Y005511D03*
X005000Y005526D03*
X005005Y005536D03*
X005010Y005546D03*
X005020Y005561D03*
X005025Y005571D03*
X005030Y005581D03*
X005040Y005596D03*
X005045Y005606D03*
X005050Y005616D03*
X005055Y005621D03*
X005060Y005631D03*
X005065Y005641D03*
X005075Y005656D03*
X005080Y005666D03*
X005085Y005676D03*
X005095Y005691D03*
X005100Y005701D03*
X005110Y005716D03*
X005115Y005726D03*
X005120Y005736D03*
X005130Y005751D03*
X005135Y005761D03*
X005140Y005771D03*
X005150Y005786D03*
X005155Y005796D03*
X005165Y005811D03*
X005170Y005821D03*
X005175Y005831D03*
X005185Y005846D03*
X005190Y005856D03*
X005195Y005866D03*
X005200Y005871D03*
X005205Y005881D03*
X005210Y005891D03*
X005215Y005901D03*
X005220Y005906D03*
X005225Y005916D03*
X005230Y005926D03*
X005235Y005931D03*
X005240Y005941D03*
X005245Y005951D03*
X005250Y005961D03*
X005255Y005966D03*
X005260Y005976D03*
X005265Y005986D03*
X005275Y006001D03*
X005280Y006011D03*
X005285Y006021D03*
X005290Y006026D03*
X005295Y006036D03*
X005300Y006046D03*
X005305Y006051D03*
X005310Y006061D03*
X005315Y006071D03*
X005320Y006081D03*
X005330Y006096D03*
X005335Y006106D03*
X005345Y006121D03*
X005350Y006131D03*
X005355Y006141D03*
X005365Y006156D03*
X005370Y006166D03*
X005375Y006176D03*
X005385Y006191D03*
X005390Y006201D03*
X005395Y006211D03*
X005400Y006216D03*
X005405Y006226D03*
X005410Y006236D03*
X005420Y006251D03*
X005425Y006261D03*
X005430Y006271D03*
X005440Y006286D03*
X005445Y006296D03*
X005455Y006311D03*
X005460Y006321D03*
X005465Y006331D03*
X005475Y006346D03*
X005480Y006356D03*
X005485Y006366D03*
X005495Y006381D03*
X005500Y006391D03*
X005510Y006406D03*
X005515Y006416D03*
X005520Y006426D03*
X005525Y006436D03*
X005530Y006441D03*
X005535Y006451D03*
X005545Y006466D03*
X005550Y006471D03*
X005650Y006466D03*
X005650Y006461D03*
X005655Y006456D03*
X005665Y006441D03*
X005670Y006431D03*
X005675Y006421D03*
X005680Y006416D03*
X005685Y006406D03*
X005690Y006396D03*
X005700Y006381D03*
X005705Y006371D03*
X005710Y006361D03*
X005715Y006356D03*
X005720Y006346D03*
X005735Y006321D03*
X005740Y006311D03*
X005750Y006296D03*
X005755Y006286D03*
X005760Y006276D03*
X005765Y006271D03*
X005770Y006261D03*
X005775Y006251D03*
X005785Y006236D03*
X005790Y006226D03*
X005805Y006201D03*
X005810Y006191D03*
X005825Y006166D03*
X005840Y006141D03*
X005845Y006131D03*
X005860Y006106D03*
X005865Y006096D03*
X005875Y006081D03*
X005880Y006071D03*
X005895Y006046D03*
X005900Y006036D03*
X005915Y006011D03*
X005920Y006001D03*
X005930Y005986D03*
X005935Y005976D03*
X005950Y005951D03*
X005955Y005941D03*
X005965Y005926D03*
X005970Y005916D03*
X005985Y005891D03*
X005990Y005881D03*
X006005Y005856D03*
X005615Y006031D03*
X005270Y005696D03*
X005265Y005691D03*
X005265Y005686D03*
X005260Y005681D03*
X005260Y005676D03*
X004935Y005416D03*
X004930Y005406D03*
X004920Y005391D03*
X004915Y005381D03*
X004900Y005356D03*
X004895Y005346D03*
X004885Y005331D03*
X004880Y005321D03*
X004875Y005311D03*
X004880Y005251D03*
X019875Y003911D03*
X019880Y003921D03*
X019885Y003931D03*
X019895Y003946D03*
X019900Y003956D03*
X019915Y003981D03*
X019920Y003991D03*
X019930Y004006D03*
X019935Y004016D03*
X019945Y004031D03*
X019950Y004041D03*
X019955Y004051D03*
X019965Y004066D03*
X019970Y004076D03*
X019975Y004086D03*
X019980Y004091D03*
X019985Y004101D03*
X019990Y004111D03*
X020000Y004126D03*
X020005Y004136D03*
X020010Y004146D03*
X020020Y004161D03*
X020025Y004171D03*
X020030Y004181D03*
X020040Y004196D03*
X020045Y004206D03*
X020050Y004216D03*
X020055Y004221D03*
X020060Y004231D03*
X020065Y004241D03*
X020075Y004256D03*
X020080Y004266D03*
X020085Y004276D03*
X020095Y004291D03*
X020100Y004301D03*
X020110Y004316D03*
X020115Y004326D03*
X020120Y004336D03*
X020130Y004351D03*
X020135Y004361D03*
X020140Y004371D03*
X020150Y004386D03*
X020155Y004396D03*
X020165Y004411D03*
X020170Y004421D03*
X020175Y004431D03*
X020185Y004446D03*
X020190Y004456D03*
X020195Y004466D03*
X020200Y004471D03*
X020205Y004481D03*
X020210Y004491D03*
X020215Y004501D03*
X020220Y004506D03*
X020225Y004516D03*
X020230Y004526D03*
X020235Y004531D03*
X020240Y004541D03*
X020245Y004551D03*
X020250Y004561D03*
X020255Y004566D03*
X020260Y004576D03*
X020265Y004586D03*
X020275Y004601D03*
X020280Y004611D03*
X020285Y004621D03*
X020290Y004626D03*
X020295Y004636D03*
X020300Y004646D03*
X020305Y004651D03*
X020310Y004661D03*
X020315Y004671D03*
X020320Y004681D03*
X020330Y004696D03*
X020335Y004706D03*
X020345Y004721D03*
X020350Y004731D03*
X020355Y004741D03*
X020365Y004756D03*
X020370Y004766D03*
X020375Y004776D03*
X020385Y004791D03*
X020390Y004801D03*
X020395Y004811D03*
X020400Y004816D03*
X020405Y004826D03*
X020410Y004836D03*
X020420Y004851D03*
X020425Y004861D03*
X020430Y004871D03*
X020440Y004886D03*
X020445Y004896D03*
X020455Y004911D03*
X020460Y004921D03*
X020465Y004931D03*
X020475Y004946D03*
X020480Y004956D03*
X020485Y004966D03*
X020495Y004981D03*
X020500Y004991D03*
X020510Y005006D03*
X020515Y005016D03*
X020520Y005026D03*
X020525Y005036D03*
X020530Y005041D03*
X020535Y005051D03*
X020545Y005066D03*
X020550Y005071D03*
X020650Y005066D03*
X020650Y005061D03*
X020655Y005056D03*
X020665Y005041D03*
X020670Y005031D03*
X020675Y005021D03*
X020680Y005016D03*
X020685Y005006D03*
X020690Y004996D03*
X020700Y004981D03*
X020705Y004971D03*
X020710Y004961D03*
X020715Y004956D03*
X020720Y004946D03*
X020735Y004921D03*
X020740Y004911D03*
X020750Y004896D03*
X020755Y004886D03*
X020760Y004876D03*
X020765Y004871D03*
X020770Y004861D03*
X020775Y004851D03*
X020785Y004836D03*
X020790Y004826D03*
X020805Y004801D03*
X020810Y004791D03*
X020825Y004766D03*
X020840Y004741D03*
X020845Y004731D03*
X020860Y004706D03*
X020865Y004696D03*
X020875Y004681D03*
X020880Y004671D03*
X020895Y004646D03*
X020900Y004636D03*
X020915Y004611D03*
X020920Y004601D03*
X020930Y004586D03*
X020935Y004576D03*
X020950Y004551D03*
X020955Y004541D03*
X020965Y004526D03*
X020970Y004516D03*
X020985Y004491D03*
X020990Y004481D03*
X021005Y004456D03*
X021025Y004421D03*
X021040Y004396D03*
X021045Y004386D03*
X021060Y004361D03*
X021075Y004336D03*
X021080Y004326D03*
X021115Y004266D03*
X021120Y004256D03*
X021135Y004231D03*
X021155Y004196D03*
X021170Y004171D03*
X021175Y004161D03*
X021190Y004136D03*
X021195Y004126D03*
X021210Y004101D03*
X021225Y004076D03*
X021230Y004066D03*
X021245Y004041D03*
X021250Y004031D03*
X021265Y004006D03*
X021270Y003996D03*
X021280Y003981D03*
X021285Y003971D03*
X021300Y003946D03*
X021305Y003936D03*
X021310Y003926D03*
X021320Y003856D03*
X021315Y003851D03*
X021010Y003601D03*
X021010Y003596D03*
X021010Y003591D03*
X021010Y003586D03*
X021015Y003581D03*
X021015Y003576D03*
X021015Y003571D03*
X021020Y003561D03*
X021020Y003556D03*
X021025Y003541D03*
X021030Y003526D03*
X021035Y003511D03*
X021040Y003496D03*
X021005Y003606D03*
X020955Y003606D03*
X020790Y003586D03*
X020790Y003581D03*
X020790Y003576D03*
X020790Y003571D03*
X020790Y003566D03*
X020790Y003561D03*
X020790Y003556D03*
X020790Y003551D03*
X020790Y003546D03*
X020790Y003541D03*
X020790Y003526D03*
X020790Y003391D03*
X020790Y003376D03*
X020615Y003456D03*
X020615Y003461D03*
X020615Y003466D03*
X020615Y003471D03*
X020615Y003476D03*
X020615Y003481D03*
X020615Y003486D03*
X020615Y003491D03*
X020615Y003496D03*
X020615Y003501D03*
X020615Y003506D03*
X020615Y003511D03*
X020615Y003516D03*
X020615Y003521D03*
X020615Y003526D03*
X020615Y003531D03*
X020615Y003536D03*
X020615Y003541D03*
X020615Y003546D03*
X020615Y003551D03*
X020615Y003556D03*
X020615Y003561D03*
X020615Y003566D03*
X020615Y003571D03*
X020615Y003576D03*
X020615Y003581D03*
X020615Y003586D03*
X020615Y003591D03*
X020615Y003596D03*
X020615Y003601D03*
X020615Y003606D03*
X020615Y003611D03*
X020615Y003616D03*
X020615Y003621D03*
X020615Y003626D03*
X020615Y003631D03*
X020615Y003636D03*
X020615Y003641D03*
X020615Y003646D03*
X020615Y003651D03*
X020260Y004276D03*
X020260Y004281D03*
X020265Y004286D03*
X020265Y004291D03*
X020270Y004296D03*
X020615Y004631D03*
X019880Y003851D03*
D21*
X019887Y003846D03*
X019997Y003611D03*
X019997Y003571D03*
X019997Y003566D03*
X019867Y003551D03*
X019862Y003561D03*
X019862Y003566D03*
X019862Y003571D03*
X019862Y003576D03*
X019862Y003581D03*
X019862Y003586D03*
X019872Y003446D03*
X019852Y003376D03*
X019997Y003376D03*
X020217Y003421D03*
X020217Y003451D03*
X020217Y003456D03*
X020217Y003466D03*
X020217Y003491D03*
X020217Y003496D03*
X020217Y003546D03*
X020217Y003551D03*
X020217Y003556D03*
X020217Y003561D03*
X020217Y003581D03*
X020217Y003586D03*
X020217Y003591D03*
X020217Y003596D03*
X020217Y003601D03*
X020217Y003606D03*
X020217Y003611D03*
X020327Y003486D03*
X020327Y003481D03*
X020327Y003476D03*
X020327Y003471D03*
X020327Y003466D03*
X020327Y003461D03*
X020327Y003456D03*
X020327Y003451D03*
X020327Y003446D03*
X020327Y003441D03*
X020327Y003436D03*
X020327Y003431D03*
X020327Y003426D03*
X020327Y003421D03*
X020512Y003491D03*
X020512Y003536D03*
X020667Y003456D03*
X020672Y003466D03*
X020677Y003476D03*
X020682Y003486D03*
X020722Y003556D03*
X020727Y003566D03*
X020732Y003576D03*
X020737Y003586D03*
X020787Y003536D03*
X020787Y003531D03*
X020787Y003521D03*
X020787Y003516D03*
X020787Y003511D03*
X020787Y003506D03*
X020787Y003501D03*
X020787Y003496D03*
X020787Y003491D03*
X020787Y003486D03*
X020787Y003481D03*
X020787Y003476D03*
X020787Y003471D03*
X020787Y003466D03*
X020787Y003461D03*
X020787Y003456D03*
X020787Y003451D03*
X020787Y003446D03*
X020787Y003441D03*
X020787Y003436D03*
X020787Y003431D03*
X020787Y003426D03*
X020787Y003421D03*
X020787Y003416D03*
X020787Y003411D03*
X020787Y003406D03*
X020787Y003401D03*
X020787Y003396D03*
X020787Y003386D03*
X020787Y003381D03*
X020617Y003376D03*
X020922Y003496D03*
X020922Y003501D03*
X020927Y003511D03*
X020927Y003516D03*
X020932Y003526D03*
X020932Y003531D03*
X020937Y003541D03*
X020937Y003546D03*
X020942Y003556D03*
X020942Y003561D03*
X020942Y003566D03*
X020947Y003571D03*
X020947Y003576D03*
X020947Y003581D03*
X020952Y003586D03*
X020952Y003591D03*
X020952Y003596D03*
X020952Y003601D03*
X021017Y003566D03*
X021022Y003551D03*
X021022Y003546D03*
X021027Y003536D03*
X021027Y003531D03*
X021032Y003521D03*
X021032Y003516D03*
X021037Y003506D03*
X021037Y003501D03*
X021052Y003451D03*
X021052Y003446D03*
X021057Y003436D03*
X021057Y003431D03*
X021062Y003416D03*
X021067Y003401D03*
X021072Y003386D03*
X021342Y003416D03*
X021342Y003421D03*
X021342Y003426D03*
X021342Y003431D03*
X021342Y003436D03*
X021342Y003441D03*
X021342Y003446D03*
X021342Y003451D03*
X021342Y003456D03*
X021342Y003461D03*
X021342Y003466D03*
X021342Y003471D03*
X021342Y003476D03*
X021342Y003481D03*
X021342Y003486D03*
X021342Y003491D03*
X021342Y003496D03*
X021342Y003501D03*
X021342Y003506D03*
X021342Y003511D03*
X021342Y003516D03*
X021342Y003521D03*
X021342Y003526D03*
X021342Y003531D03*
X021342Y003536D03*
X021342Y003541D03*
X021342Y003546D03*
X021342Y003551D03*
X021342Y003556D03*
X021342Y003561D03*
X021342Y003566D03*
X021342Y003571D03*
X021342Y003576D03*
X021342Y003581D03*
X021342Y003586D03*
X021342Y003591D03*
X021342Y003596D03*
X021342Y003601D03*
X021342Y003606D03*
X021342Y003611D03*
X021312Y003846D03*
X020742Y003886D03*
X020602Y003876D03*
X020382Y004166D03*
X020382Y004171D03*
X020532Y004546D03*
X020612Y004506D03*
X020642Y005071D03*
X006342Y005011D03*
X006342Y005006D03*
X006342Y005001D03*
X006342Y004996D03*
X006342Y004991D03*
X006342Y004986D03*
X006342Y004981D03*
X006342Y004976D03*
X006342Y004971D03*
X006342Y004966D03*
X006342Y004961D03*
X006342Y004956D03*
X006342Y004951D03*
X006342Y004946D03*
X006342Y004941D03*
X006342Y004936D03*
X006342Y004931D03*
X006342Y004926D03*
X006342Y004921D03*
X006342Y004916D03*
X006342Y004911D03*
X006342Y004906D03*
X006342Y004901D03*
X006342Y004896D03*
X006342Y004891D03*
X006342Y004886D03*
X006342Y004881D03*
X006342Y004876D03*
X006342Y004871D03*
X006342Y004866D03*
X006342Y004861D03*
X006342Y004856D03*
X006342Y004851D03*
X006342Y004846D03*
X006342Y004841D03*
X006342Y004836D03*
X006342Y004831D03*
X006342Y004826D03*
X006342Y004821D03*
X006342Y004816D03*
X006072Y004786D03*
X006067Y004801D03*
X006062Y004816D03*
X006057Y004831D03*
X006057Y004836D03*
X006052Y004846D03*
X006052Y004851D03*
X006037Y004901D03*
X006037Y004906D03*
X006032Y004916D03*
X006032Y004921D03*
X006027Y004931D03*
X006027Y004936D03*
X006022Y004946D03*
X006022Y004951D03*
X006017Y004966D03*
X005952Y004986D03*
X005952Y004991D03*
X005952Y004996D03*
X005952Y005001D03*
X005947Y004981D03*
X005947Y004976D03*
X005947Y004971D03*
X005942Y004966D03*
X005942Y004961D03*
X005942Y004956D03*
X005937Y004946D03*
X005937Y004941D03*
X005932Y004931D03*
X005932Y004926D03*
X005927Y004916D03*
X005927Y004911D03*
X005922Y004901D03*
X005922Y004896D03*
X005787Y004896D03*
X005787Y004901D03*
X005787Y004906D03*
X005787Y004911D03*
X005787Y004916D03*
X005787Y004921D03*
X005787Y004931D03*
X005787Y004936D03*
X005787Y004891D03*
X005787Y004886D03*
X005787Y004881D03*
X005787Y004876D03*
X005787Y004871D03*
X005787Y004866D03*
X005787Y004861D03*
X005787Y004856D03*
X005787Y004851D03*
X005787Y004846D03*
X005787Y004841D03*
X005787Y004836D03*
X005787Y004831D03*
X005787Y004826D03*
X005787Y004821D03*
X005787Y004816D03*
X005787Y004811D03*
X005787Y004806D03*
X005787Y004801D03*
X005787Y004796D03*
X005787Y004786D03*
X005787Y004781D03*
X005667Y004856D03*
X005672Y004866D03*
X005677Y004876D03*
X005682Y004886D03*
X005722Y004956D03*
X005727Y004966D03*
X005732Y004976D03*
X005737Y004986D03*
X005512Y004936D03*
X005512Y004891D03*
X005617Y004776D03*
X005327Y004821D03*
X005327Y004826D03*
X005327Y004831D03*
X005327Y004836D03*
X005327Y004841D03*
X005327Y004846D03*
X005327Y004851D03*
X005327Y004856D03*
X005327Y004861D03*
X005327Y004866D03*
X005327Y004871D03*
X005327Y004876D03*
X005327Y004881D03*
X005327Y004886D03*
X005217Y004891D03*
X005217Y004896D03*
X005217Y004866D03*
X005217Y004856D03*
X005217Y004851D03*
X005217Y004821D03*
X005217Y004946D03*
X005217Y004951D03*
X005217Y004956D03*
X005217Y004961D03*
X005217Y004981D03*
X005217Y004986D03*
X005217Y004991D03*
X005217Y004996D03*
X005217Y005001D03*
X005217Y005006D03*
X005217Y005011D03*
X004997Y005011D03*
X004997Y004971D03*
X004997Y004966D03*
X004867Y004951D03*
X004862Y004961D03*
X004862Y004966D03*
X004862Y004971D03*
X004862Y004976D03*
X004862Y004981D03*
X004862Y004986D03*
X004872Y004846D03*
X004852Y004776D03*
X004997Y004776D03*
X004887Y005246D03*
X005382Y005566D03*
X005382Y005571D03*
X005602Y005276D03*
X005742Y005286D03*
X006312Y005246D03*
X005612Y005906D03*
X005532Y005946D03*
X005642Y006471D03*
D22*
X005597Y006501D03*
X005642Y006091D03*
X005642Y006086D03*
X005642Y006081D03*
X005642Y006076D03*
X005642Y006071D03*
X005522Y005906D03*
X005517Y005896D03*
X005437Y005956D03*
X005437Y006091D03*
X005892Y005871D03*
X005852Y005751D03*
X005817Y005511D03*
X005817Y005506D03*
X005817Y005501D03*
X005812Y005486D03*
X005807Y005476D03*
X005802Y005461D03*
X005792Y005436D03*
X005787Y005421D03*
X005782Y005411D03*
X005777Y005396D03*
X005772Y005386D03*
X005767Y005371D03*
X005762Y005356D03*
X005752Y005331D03*
X005747Y005321D03*
X005632Y005361D03*
X005632Y005366D03*
X005637Y005376D03*
X005642Y005386D03*
X005647Y005396D03*
X005652Y005406D03*
X005652Y005411D03*
X005657Y005416D03*
X005657Y005421D03*
X005662Y005426D03*
X005662Y005431D03*
X005667Y005436D03*
X005667Y005441D03*
X005672Y005446D03*
X005672Y005451D03*
X005677Y005461D03*
X005682Y005471D03*
X005687Y005481D03*
X005687Y005486D03*
X005687Y005511D03*
X005687Y005516D03*
X005627Y005351D03*
X005622Y005341D03*
X005617Y005331D03*
X005612Y005321D03*
X005607Y005311D03*
X005607Y005306D03*
X005472Y005006D03*
X005477Y004826D03*
X005392Y004776D03*
X005632Y004821D03*
X005632Y004826D03*
X005772Y005016D03*
X005772Y005021D03*
X006197Y005006D03*
X006202Y004821D03*
X005407Y005706D03*
X005407Y005711D03*
X005412Y005721D03*
X005417Y005726D03*
X005422Y005736D03*
X005427Y005746D03*
X005437Y005761D03*
X005442Y005771D03*
X005447Y005776D03*
X020437Y004691D03*
X020437Y004556D03*
X020522Y004506D03*
X020517Y004496D03*
X020447Y004376D03*
X020442Y004371D03*
X020437Y004361D03*
X020427Y004346D03*
X020422Y004336D03*
X020417Y004326D03*
X020412Y004321D03*
X020407Y004311D03*
X020407Y004306D03*
X020687Y004116D03*
X020687Y004111D03*
X020687Y004086D03*
X020687Y004081D03*
X020682Y004071D03*
X020677Y004061D03*
X020672Y004051D03*
X020672Y004046D03*
X020667Y004041D03*
X020667Y004036D03*
X020662Y004031D03*
X020662Y004026D03*
X020657Y004021D03*
X020657Y004016D03*
X020652Y004011D03*
X020652Y004006D03*
X020647Y003996D03*
X020642Y003986D03*
X020637Y003976D03*
X020632Y003966D03*
X020632Y003961D03*
X020627Y003951D03*
X020622Y003941D03*
X020617Y003931D03*
X020612Y003921D03*
X020607Y003911D03*
X020607Y003906D03*
X020747Y003921D03*
X020752Y003931D03*
X020762Y003956D03*
X020767Y003971D03*
X020772Y003986D03*
X020777Y003996D03*
X020782Y004011D03*
X020787Y004021D03*
X020792Y004036D03*
X020802Y004061D03*
X020807Y004076D03*
X020812Y004086D03*
X020817Y004101D03*
X020817Y004106D03*
X020817Y004111D03*
X020852Y004351D03*
X020892Y004471D03*
X020642Y004671D03*
X020642Y004676D03*
X020642Y004681D03*
X020642Y004686D03*
X020642Y004691D03*
X020597Y005101D03*
X020772Y003621D03*
X020772Y003616D03*
X020632Y003426D03*
X020632Y003421D03*
X020477Y003426D03*
X020392Y003376D03*
X020472Y003606D03*
X021197Y003606D03*
X021202Y003421D03*
D23*
X021285Y003391D03*
X021285Y003641D03*
X020160Y003416D03*
X020160Y003406D03*
X020160Y003376D03*
X019945Y003491D03*
X019945Y003521D03*
X019940Y003631D03*
X019945Y003636D03*
X006285Y004791D03*
X006285Y005041D03*
X005160Y004816D03*
X005160Y004806D03*
X005160Y004776D03*
X004945Y004891D03*
X004945Y004921D03*
X004940Y005031D03*
X004945Y005036D03*
D24*
X005382Y005046D03*
X005437Y005986D03*
X005437Y005991D03*
X005437Y006056D03*
X005437Y006061D03*
X006297Y004781D03*
X020382Y003646D03*
X021297Y003381D03*
X020437Y004586D03*
X020437Y004591D03*
X020437Y004656D03*
X020437Y004661D03*
D25*
X020435Y004671D03*
X020825Y004376D03*
X021295Y003651D03*
X020390Y003381D03*
X006295Y005051D03*
X005825Y005776D03*
X005435Y006071D03*
X005390Y004781D03*
D26*
X005390Y004791D03*
X005405Y005021D03*
X005160Y004801D03*
X005160Y004781D03*
X004940Y005026D03*
X005980Y004891D03*
X005980Y004886D03*
X005980Y004881D03*
X006280Y004796D03*
X006280Y005036D03*
X019940Y003626D03*
X020160Y003401D03*
X020160Y003381D03*
X020390Y003391D03*
X020405Y003621D03*
X020980Y003491D03*
X020980Y003486D03*
X020980Y003481D03*
X021280Y003396D03*
X021280Y003636D03*
D27*
X021290Y003386D03*
X020165Y003501D03*
X020165Y003506D03*
X020165Y003511D03*
X020165Y003516D03*
X020165Y003531D03*
X020165Y003536D03*
X020165Y003541D03*
X020435Y004641D03*
X006290Y004786D03*
X005165Y004901D03*
X005165Y004906D03*
X005165Y004911D03*
X005165Y004916D03*
X005165Y004931D03*
X005165Y004936D03*
X005165Y004941D03*
X005435Y006041D03*
D28*
X005437Y006096D03*
X005437Y005951D03*
X005617Y005901D03*
X005867Y005876D03*
X005897Y005866D03*
X005977Y005506D03*
X005742Y005291D03*
X005602Y005281D03*
X005782Y005051D03*
X005707Y004931D03*
X005702Y004921D03*
X005622Y004791D03*
X005622Y004786D03*
X005502Y004856D03*
X005502Y004861D03*
X005507Y004866D03*
X005507Y004871D03*
X005497Y004851D03*
X005507Y004956D03*
X005502Y004971D03*
X005497Y004976D03*
X005497Y004981D03*
X005492Y004986D03*
X005907Y004846D03*
X006162Y004881D03*
X006167Y004866D03*
X006172Y004856D03*
X006172Y004851D03*
X006177Y004846D03*
X006162Y004956D03*
X006167Y004971D03*
X006172Y004981D03*
X005382Y005576D03*
X005382Y005581D03*
X005382Y005586D03*
X005382Y005591D03*
X005382Y005596D03*
X005387Y005601D03*
X005387Y005606D03*
X005387Y005611D03*
X005387Y005616D03*
X005387Y005621D03*
X005387Y005626D03*
X005387Y005631D03*
X005392Y005641D03*
X005392Y005646D03*
X005392Y005651D03*
X005392Y005656D03*
X005392Y005661D03*
X005392Y005666D03*
X004997Y005016D03*
X004872Y005006D03*
X004867Y005001D03*
X004877Y004936D03*
X004887Y004881D03*
X005597Y006506D03*
X019867Y003601D03*
X019872Y003606D03*
X019877Y003536D03*
X019887Y003481D03*
X019997Y003616D03*
X020492Y003586D03*
X020497Y003581D03*
X020497Y003576D03*
X020502Y003571D03*
X020507Y003556D03*
X020507Y003471D03*
X020507Y003466D03*
X020502Y003461D03*
X020502Y003456D03*
X020497Y003451D03*
X020622Y003391D03*
X020622Y003386D03*
X020702Y003521D03*
X020707Y003531D03*
X020782Y003651D03*
X020907Y003446D03*
X021162Y003481D03*
X021167Y003466D03*
X021172Y003456D03*
X021172Y003451D03*
X021177Y003446D03*
X021162Y003556D03*
X021167Y003571D03*
X021172Y003581D03*
X020742Y003891D03*
X020602Y003881D03*
X020382Y004176D03*
X020382Y004181D03*
X020382Y004186D03*
X020382Y004191D03*
X020382Y004196D03*
X020387Y004201D03*
X020387Y004206D03*
X020387Y004211D03*
X020387Y004216D03*
X020387Y004221D03*
X020387Y004226D03*
X020387Y004231D03*
X020392Y004241D03*
X020392Y004246D03*
X020392Y004251D03*
X020392Y004256D03*
X020392Y004261D03*
X020392Y004266D03*
X020437Y004551D03*
X020437Y004696D03*
X020617Y004501D03*
X020867Y004476D03*
X020897Y004466D03*
X020977Y004106D03*
X020597Y005106D03*
D29*
X020437Y004636D03*
X020437Y004631D03*
X020437Y004626D03*
X020437Y004621D03*
X020437Y004616D03*
X020437Y004611D03*
X020647Y004461D03*
X020392Y003636D03*
X020162Y003636D03*
X020162Y003641D03*
X020162Y003646D03*
X020162Y003651D03*
X020162Y003631D03*
X020162Y003626D03*
X020162Y003621D03*
X020162Y003616D03*
X020167Y003526D03*
X020167Y003521D03*
X019947Y003516D03*
X019947Y003496D03*
X019947Y003641D03*
X020387Y003386D03*
X005647Y005861D03*
X005437Y006011D03*
X005437Y006016D03*
X005437Y006021D03*
X005437Y006026D03*
X005437Y006031D03*
X005437Y006036D03*
X005392Y005036D03*
X005162Y005036D03*
X005162Y005041D03*
X005162Y005046D03*
X005162Y005051D03*
X005162Y005031D03*
X005162Y005026D03*
X005162Y005021D03*
X005162Y005016D03*
X005167Y004926D03*
X005167Y004921D03*
X004947Y004916D03*
X004947Y004896D03*
X004947Y005041D03*
X005387Y004786D03*
D30*
X005162Y004786D03*
X005162Y004791D03*
X005162Y004796D03*
X005157Y004811D03*
X004942Y004926D03*
X005397Y005031D03*
X005402Y005026D03*
X005652Y005856D03*
X019942Y003526D03*
X020157Y003411D03*
X020162Y003396D03*
X020162Y003391D03*
X020162Y003386D03*
X020402Y003626D03*
X020397Y003631D03*
X020652Y004456D03*
D31*
X020535Y004536D03*
X020535Y004541D03*
X020400Y004286D03*
X020400Y004281D03*
X020395Y004276D03*
X020395Y004271D03*
X020390Y004236D03*
X020605Y003886D03*
X020780Y003646D03*
X020780Y003641D03*
X020980Y003651D03*
X021175Y003586D03*
X021180Y003591D03*
X021180Y003441D03*
X021185Y003436D03*
X021190Y003431D03*
X020625Y003396D03*
X020495Y003441D03*
X020495Y003446D03*
X020490Y003591D03*
X020485Y003596D03*
X019895Y003486D03*
X019875Y003611D03*
X006190Y004831D03*
X006185Y004836D03*
X006180Y004841D03*
X006175Y004986D03*
X006180Y004991D03*
X005980Y005051D03*
X005780Y005046D03*
X005780Y005041D03*
X005625Y004796D03*
X005495Y004841D03*
X005495Y004846D03*
X005490Y004991D03*
X005485Y004996D03*
X005605Y005286D03*
X005390Y005636D03*
X005395Y005671D03*
X005395Y005676D03*
X005400Y005681D03*
X005400Y005686D03*
X005535Y005936D03*
X005535Y005941D03*
X004875Y005011D03*
X004895Y004886D03*
D32*
X005395Y004796D03*
X005410Y005016D03*
X005980Y004871D03*
X005980Y004866D03*
X006275Y005031D03*
X005655Y005851D03*
X020410Y003616D03*
X020395Y003396D03*
X020980Y003466D03*
X020980Y003471D03*
X021275Y003631D03*
X020655Y004451D03*
D33*
X019937Y003621D03*
X020977Y003476D03*
X021277Y003401D03*
X006277Y004801D03*
X005977Y004876D03*
X004937Y005021D03*
D34*
X004887Y004931D03*
X005337Y004816D03*
X005482Y004831D03*
X005487Y004836D03*
X005627Y004806D03*
X005627Y004801D03*
X005477Y005001D03*
X005777Y005036D03*
X005982Y005046D03*
X006182Y004996D03*
X005742Y005296D03*
X005742Y005301D03*
X005602Y005291D03*
X005402Y005691D03*
X005527Y005921D03*
X005527Y005926D03*
X005532Y005931D03*
X005622Y005896D03*
X005857Y005746D03*
X019887Y003531D03*
X020337Y003416D03*
X020482Y003431D03*
X020487Y003436D03*
X020627Y003406D03*
X020627Y003401D03*
X020477Y003601D03*
X020777Y003636D03*
X020982Y003646D03*
X021182Y003596D03*
X020742Y003896D03*
X020742Y003901D03*
X020602Y003891D03*
X020402Y004291D03*
X020527Y004521D03*
X020527Y004526D03*
X020532Y004531D03*
X020622Y004496D03*
X020857Y004346D03*
D35*
X021272Y003626D03*
X021272Y003406D03*
X020977Y003461D03*
X020397Y003401D03*
X006272Y004806D03*
X006272Y005026D03*
X005977Y004861D03*
X005397Y004801D03*
D36*
X005400Y004806D03*
X005980Y004856D03*
X006270Y004811D03*
X006270Y005021D03*
X005660Y005846D03*
X020400Y003406D03*
X020980Y003456D03*
X021270Y003411D03*
X021270Y003621D03*
X020660Y004446D03*
D37*
X020525Y004511D03*
X020525Y004516D03*
X020645Y004696D03*
X020645Y004701D03*
X020645Y004706D03*
X020645Y004711D03*
X020405Y004301D03*
X020405Y004296D03*
X020690Y004106D03*
X020690Y004101D03*
X020690Y004096D03*
X020690Y004091D03*
X020685Y004076D03*
X020680Y004066D03*
X020675Y004056D03*
X020650Y004001D03*
X020645Y003991D03*
X020640Y003981D03*
X020635Y003971D03*
X020630Y003956D03*
X020625Y003946D03*
X020620Y003936D03*
X020615Y003926D03*
X020610Y003916D03*
X020605Y003901D03*
X020605Y003896D03*
X020745Y003906D03*
X020745Y003911D03*
X020745Y003916D03*
X020750Y003926D03*
X020755Y003936D03*
X020755Y003941D03*
X020760Y003946D03*
X020760Y003951D03*
X020765Y003961D03*
X020765Y003966D03*
X020770Y003976D03*
X020770Y003981D03*
X020775Y003991D03*
X020780Y004001D03*
X020780Y004006D03*
X020785Y004016D03*
X020790Y004026D03*
X020790Y004031D03*
X020795Y004041D03*
X020795Y004046D03*
X020800Y004051D03*
X020800Y004056D03*
X020805Y004066D03*
X020805Y004071D03*
X020810Y004081D03*
X020815Y004091D03*
X020815Y004096D03*
X020775Y003631D03*
X020775Y003626D03*
X020980Y003636D03*
X020980Y003641D03*
X021190Y003601D03*
X021195Y003426D03*
X020630Y003416D03*
X020630Y003411D03*
X019900Y003841D03*
X006195Y004826D03*
X006190Y005001D03*
X005980Y005036D03*
X005980Y005041D03*
X005775Y005031D03*
X005775Y005026D03*
X005630Y004816D03*
X005630Y004811D03*
X005605Y005296D03*
X005605Y005301D03*
X005610Y005316D03*
X005615Y005326D03*
X005620Y005336D03*
X005625Y005346D03*
X005630Y005356D03*
X005635Y005371D03*
X005640Y005381D03*
X005645Y005391D03*
X005650Y005401D03*
X005675Y005456D03*
X005680Y005466D03*
X005685Y005476D03*
X005690Y005491D03*
X005690Y005496D03*
X005690Y005501D03*
X005690Y005506D03*
X005805Y005471D03*
X005805Y005466D03*
X005800Y005456D03*
X005800Y005451D03*
X005795Y005446D03*
X005795Y005441D03*
X005790Y005431D03*
X005790Y005426D03*
X005785Y005416D03*
X005780Y005406D03*
X005780Y005401D03*
X005775Y005391D03*
X005770Y005381D03*
X005770Y005376D03*
X005765Y005366D03*
X005765Y005361D03*
X005760Y005351D03*
X005760Y005346D03*
X005755Y005341D03*
X005755Y005336D03*
X005750Y005326D03*
X005745Y005316D03*
X005745Y005311D03*
X005745Y005306D03*
X005810Y005481D03*
X005815Y005491D03*
X005815Y005496D03*
X005405Y005696D03*
X005405Y005701D03*
X005525Y005911D03*
X005525Y005916D03*
X005645Y006096D03*
X005645Y006101D03*
X005645Y006106D03*
X005645Y006111D03*
X004900Y005241D03*
D38*
X005402Y004811D03*
X006267Y005016D03*
X020402Y003411D03*
X021267Y003616D03*
D39*
X021207Y003611D03*
X021212Y003416D03*
X020982Y003616D03*
X020767Y003606D03*
X020767Y003601D03*
X020637Y003441D03*
X020637Y003436D03*
X020677Y004136D03*
X020677Y004141D03*
X020817Y004121D03*
X020847Y004356D03*
X020512Y004481D03*
X020507Y004471D03*
X020637Y004636D03*
X020637Y004641D03*
X006212Y004816D03*
X006207Y005011D03*
X005982Y005016D03*
X005767Y005006D03*
X005767Y005001D03*
X005637Y004841D03*
X005637Y004836D03*
X005677Y005536D03*
X005677Y005541D03*
X005817Y005521D03*
X005847Y005756D03*
X005512Y005881D03*
X005507Y005871D03*
X005637Y006036D03*
X005637Y006041D03*
D40*
X005437Y005961D03*
X005502Y005856D03*
X005842Y005761D03*
X005817Y005531D03*
X005672Y005551D03*
X005672Y005556D03*
X005667Y005561D03*
X005667Y005566D03*
X005352Y004926D03*
X005352Y004921D03*
X005352Y004916D03*
X005352Y004911D03*
X005352Y004906D03*
X005352Y004901D03*
X005352Y004896D03*
X005352Y004891D03*
X005457Y004816D03*
X005597Y006496D03*
X020352Y003526D03*
X020352Y003521D03*
X020352Y003516D03*
X020352Y003511D03*
X020352Y003506D03*
X020352Y003501D03*
X020352Y003496D03*
X020352Y003491D03*
X020457Y003416D03*
X020672Y004151D03*
X020672Y004156D03*
X020667Y004161D03*
X020667Y004166D03*
X020817Y004131D03*
X020842Y004361D03*
X020502Y004456D03*
X020437Y004561D03*
X020597Y005096D03*
D41*
X020640Y004666D03*
X020640Y004661D03*
X020640Y004656D03*
X020640Y004651D03*
X020640Y004646D03*
X020625Y004491D03*
X020520Y004501D03*
X020515Y004491D03*
X020515Y004486D03*
X020440Y004366D03*
X020435Y004356D03*
X020430Y004351D03*
X020425Y004341D03*
X020420Y004331D03*
X020410Y004316D03*
X020680Y004131D03*
X020680Y004126D03*
X020685Y004121D03*
X020820Y004116D03*
X020770Y003611D03*
X020980Y003621D03*
X020980Y003626D03*
X020980Y003631D03*
X020635Y003431D03*
X020470Y003421D03*
X019885Y003616D03*
X005980Y005021D03*
X005980Y005026D03*
X005980Y005031D03*
X005770Y005011D03*
X005635Y004831D03*
X005470Y004821D03*
X004885Y005016D03*
X005410Y005716D03*
X005420Y005731D03*
X005425Y005741D03*
X005430Y005751D03*
X005435Y005756D03*
X005440Y005766D03*
X005515Y005886D03*
X005515Y005891D03*
X005520Y005901D03*
X005625Y005891D03*
X005640Y006046D03*
X005640Y006051D03*
X005640Y006056D03*
X005640Y006061D03*
X005640Y006066D03*
X005680Y005531D03*
X005680Y005526D03*
X005685Y005521D03*
X005820Y005516D03*
D42*
X005815Y005526D03*
X005675Y005546D03*
X005630Y005886D03*
X005510Y005876D03*
X005505Y005866D03*
X005505Y005861D03*
X005435Y006086D03*
X005460Y005011D03*
X005640Y004851D03*
X005640Y004846D03*
X005765Y004991D03*
X005765Y004996D03*
X005980Y005011D03*
X020435Y004686D03*
X020510Y004476D03*
X020505Y004466D03*
X020505Y004461D03*
X020630Y004486D03*
X020675Y004146D03*
X020815Y004126D03*
X020765Y003596D03*
X020765Y003591D03*
X020640Y003451D03*
X020640Y003446D03*
X020460Y003611D03*
X020980Y003611D03*
D43*
X021292Y003646D03*
X020387Y003641D03*
X019952Y003646D03*
X019952Y003511D03*
X019952Y003501D03*
X020437Y004596D03*
X020437Y004601D03*
X020437Y004606D03*
X020437Y004646D03*
X020437Y004651D03*
X006292Y005046D03*
X005387Y005041D03*
X004952Y005046D03*
X004952Y004911D03*
X004952Y004901D03*
X005437Y005996D03*
X005437Y006001D03*
X005437Y006006D03*
X005437Y006046D03*
X005437Y006051D03*
D44*
X005645Y005866D03*
X004955Y004906D03*
X019955Y003506D03*
X020645Y004466D03*
D45*
X020592Y004566D03*
X020597Y004576D03*
X020597Y004581D03*
X020622Y004716D03*
X020667Y004716D03*
X020667Y004721D03*
X020667Y004726D03*
X020667Y004731D03*
X020437Y004701D03*
X020437Y004546D03*
X020382Y004161D03*
X020482Y004076D03*
X020742Y003876D03*
X020337Y003611D03*
X005742Y005276D03*
X005482Y005476D03*
X005382Y005561D03*
X005437Y005946D03*
X005437Y006101D03*
X005622Y006116D03*
X005667Y006116D03*
X005667Y006121D03*
X005667Y006126D03*
X005667Y006131D03*
X005597Y005981D03*
X005597Y005976D03*
X005592Y005966D03*
X005337Y005011D03*
D46*
X005385Y005051D03*
X005665Y005571D03*
X005815Y005536D03*
X005500Y005846D03*
X005500Y005851D03*
X020385Y003651D03*
X020815Y004136D03*
X020665Y004171D03*
X020500Y004446D03*
X020500Y004451D03*
D47*
X020437Y004576D03*
X020437Y004581D03*
X020437Y004666D03*
X020757Y004411D03*
X020777Y004401D03*
X020787Y004396D03*
X020797Y004391D03*
X020807Y004386D03*
X020817Y004381D03*
X020597Y005081D03*
X020072Y003841D03*
X019957Y003651D03*
X005817Y005781D03*
X005807Y005786D03*
X005797Y005791D03*
X005787Y005796D03*
X005777Y005801D03*
X005757Y005811D03*
X005437Y005976D03*
X005437Y005981D03*
X005437Y006066D03*
X005597Y006481D03*
X005072Y005241D03*
X004957Y005051D03*
D48*
X005602Y005206D03*
X020602Y003806D03*
D49*
X020602Y003811D03*
X005602Y005211D03*
D50*
X005600Y005216D03*
X020600Y003816D03*
D51*
X020600Y003821D03*
X005600Y005221D03*
D52*
X005600Y005226D03*
X020600Y003826D03*
D53*
X020600Y003831D03*
X005600Y005231D03*
D54*
X005597Y005236D03*
X020597Y003836D03*
D55*
X020425Y003841D03*
X020465Y003991D03*
X020465Y003996D03*
X020465Y004001D03*
X020465Y004006D03*
X020465Y004011D03*
X020465Y004016D03*
X020465Y004021D03*
X020465Y004026D03*
X020465Y004031D03*
X020500Y004131D03*
X020500Y004136D03*
X020500Y004141D03*
X020500Y004146D03*
X020500Y004151D03*
X020315Y004361D03*
X020320Y004371D03*
X020325Y004381D03*
X020330Y004386D03*
X020330Y004391D03*
X020210Y004226D03*
X020205Y004221D03*
X020565Y004471D03*
X020565Y004476D03*
X020680Y004811D03*
X020680Y004816D03*
X020680Y004821D03*
X020680Y004826D03*
X020970Y004416D03*
X020910Y004156D03*
X020980Y004081D03*
X021000Y004061D03*
X006000Y005461D03*
X005980Y005481D03*
X005910Y005556D03*
X005970Y005816D03*
X005565Y005871D03*
X005565Y005876D03*
X005330Y005791D03*
X005330Y005786D03*
X005325Y005781D03*
X005320Y005771D03*
X005315Y005761D03*
X005210Y005626D03*
X005205Y005621D03*
X005500Y005551D03*
X005500Y005546D03*
X005500Y005541D03*
X005500Y005536D03*
X005500Y005531D03*
X005465Y005431D03*
X005465Y005426D03*
X005465Y005421D03*
X005465Y005416D03*
X005465Y005411D03*
X005465Y005406D03*
X005465Y005401D03*
X005465Y005396D03*
X005465Y005391D03*
X005425Y005241D03*
X005680Y006211D03*
X005680Y006216D03*
X005680Y006221D03*
X005680Y006226D03*
D56*
X005757Y006281D03*
X005752Y006291D03*
X005747Y006301D03*
X005742Y006306D03*
X005737Y006316D03*
X005732Y006326D03*
X005727Y006331D03*
X005727Y006336D03*
X005722Y006341D03*
X005717Y006351D03*
X005707Y006366D03*
X005702Y006376D03*
X005697Y006386D03*
X005692Y006391D03*
X005687Y006401D03*
X005682Y006411D03*
X005672Y006426D03*
X005667Y006436D03*
X005662Y006446D03*
X005657Y006451D03*
X005542Y006461D03*
X005537Y006456D03*
X005532Y006446D03*
X005522Y006431D03*
X005517Y006421D03*
X005512Y006411D03*
X005507Y006401D03*
X005502Y006396D03*
X005497Y006386D03*
X005492Y006376D03*
X005487Y006371D03*
X005482Y006361D03*
X005477Y006351D03*
X005472Y006341D03*
X005467Y006336D03*
X005462Y006326D03*
X005457Y006316D03*
X005452Y006306D03*
X005447Y006301D03*
X005442Y006291D03*
X005437Y006281D03*
X005432Y006276D03*
X005427Y006266D03*
X005422Y006256D03*
X005417Y006246D03*
X005412Y006241D03*
X005407Y006231D03*
X005402Y006221D03*
X005392Y006206D03*
X005387Y006196D03*
X005382Y006186D03*
X005377Y006181D03*
X005372Y006171D03*
X005367Y006161D03*
X005362Y006151D03*
X005357Y006146D03*
X005352Y006136D03*
X005347Y006126D03*
X005342Y006116D03*
X005337Y006111D03*
X005332Y006101D03*
X005327Y006091D03*
X005322Y006086D03*
X005317Y006076D03*
X005312Y006066D03*
X005307Y006056D03*
X005297Y006041D03*
X005292Y006031D03*
X005282Y006016D03*
X005277Y006006D03*
X005272Y005996D03*
X005267Y005991D03*
X005262Y005981D03*
X005257Y005971D03*
X005247Y005956D03*
X005242Y005946D03*
X005237Y005936D03*
X005227Y005921D03*
X005222Y005911D03*
X005212Y005896D03*
X005207Y005886D03*
X005202Y005876D03*
X005192Y005861D03*
X005187Y005851D03*
X005182Y005841D03*
X005177Y005836D03*
X005172Y005826D03*
X005167Y005816D03*
X005162Y005806D03*
X005157Y005801D03*
X005152Y005791D03*
X005147Y005781D03*
X005142Y005776D03*
X005137Y005766D03*
X005132Y005756D03*
X005127Y005746D03*
X005122Y005741D03*
X005117Y005731D03*
X005112Y005721D03*
X005107Y005711D03*
X005102Y005706D03*
X005097Y005696D03*
X005092Y005686D03*
X005087Y005681D03*
X005082Y005671D03*
X005077Y005661D03*
X005072Y005651D03*
X005067Y005646D03*
X005062Y005636D03*
X005057Y005626D03*
X005047Y005611D03*
X005042Y005601D03*
X005037Y005591D03*
X005032Y005586D03*
X005027Y005576D03*
X005022Y005566D03*
X005017Y005556D03*
X005012Y005551D03*
X005007Y005541D03*
X005002Y005531D03*
X004997Y005521D03*
X004992Y005516D03*
X004987Y005506D03*
X004982Y005496D03*
X004972Y005481D03*
X004967Y005471D03*
X004962Y005461D03*
X004957Y005456D03*
X004952Y005446D03*
X004947Y005436D03*
X004942Y005426D03*
X004937Y005421D03*
X004932Y005411D03*
X004927Y005401D03*
X004922Y005396D03*
X004917Y005386D03*
X004912Y005376D03*
X004907Y005371D03*
X004907Y005366D03*
X004902Y005361D03*
X004897Y005351D03*
X004892Y005341D03*
X004887Y005336D03*
X004882Y005326D03*
X004877Y005316D03*
X004872Y005306D03*
X004872Y005301D03*
X004872Y005266D03*
X004877Y005261D03*
X004877Y005256D03*
X005607Y006011D03*
X005607Y006016D03*
X005612Y006021D03*
X005612Y006026D03*
X005832Y006151D03*
X005832Y006156D03*
X005827Y006161D03*
X005822Y006171D03*
X005817Y006176D03*
X005817Y006181D03*
X005812Y006186D03*
X005807Y006196D03*
X005802Y006206D03*
X005797Y006211D03*
X005797Y006216D03*
X005792Y006221D03*
X005787Y006231D03*
X005782Y006241D03*
X005777Y006246D03*
X005772Y006256D03*
X005767Y006266D03*
X005837Y006146D03*
X005842Y006136D03*
X005847Y006126D03*
X005852Y006121D03*
X005852Y006116D03*
X005857Y006111D03*
X005862Y006101D03*
X005867Y006091D03*
X005872Y006086D03*
X005877Y006076D03*
X005882Y006066D03*
X005887Y006061D03*
X005887Y006056D03*
X005892Y006051D03*
X005897Y006041D03*
X005902Y006031D03*
X005907Y006026D03*
X005907Y006021D03*
X005912Y006016D03*
X005917Y006006D03*
X005922Y005996D03*
X005927Y005991D03*
X005932Y005981D03*
X005937Y005971D03*
X005942Y005966D03*
X005942Y005961D03*
X005947Y005956D03*
X005952Y005946D03*
X005957Y005936D03*
X005962Y005931D03*
X005967Y005921D03*
X005972Y005911D03*
X005977Y005906D03*
X005977Y005901D03*
X005982Y005896D03*
X005987Y005886D03*
X005992Y005876D03*
X005997Y005871D03*
X005997Y005866D03*
X006002Y005861D03*
X006007Y005851D03*
X006012Y005846D03*
X006012Y005841D03*
X006017Y005836D03*
X006017Y005831D03*
X006022Y005826D03*
X006027Y005816D03*
X006032Y005811D03*
X006032Y005806D03*
X006037Y005801D03*
X006042Y005791D03*
X006047Y005781D03*
X006052Y005776D03*
X006052Y005771D03*
X006057Y005766D03*
X006062Y005756D03*
X006067Y005751D03*
X006067Y005746D03*
X006072Y005741D03*
X006077Y005731D03*
X006082Y005721D03*
X006087Y005716D03*
X006087Y005711D03*
X006092Y005706D03*
X006092Y005701D03*
X006097Y005696D03*
X006102Y005691D03*
X006102Y005686D03*
X006107Y005681D03*
X006107Y005676D03*
X006112Y005671D03*
X006117Y005661D03*
X006122Y005651D03*
X006127Y005646D03*
X006127Y005641D03*
X006132Y005636D03*
X006137Y005626D03*
X006142Y005621D03*
X006142Y005616D03*
X006147Y005611D03*
X006147Y005606D03*
X006152Y005601D03*
X006157Y005591D03*
X006162Y005586D03*
X006162Y005581D03*
X006167Y005576D03*
X006172Y005566D03*
X006177Y005556D03*
X006182Y005551D03*
X006182Y005546D03*
X006187Y005541D03*
X006192Y005531D03*
X006197Y005521D03*
X006202Y005516D03*
X006202Y005511D03*
X006207Y005506D03*
X006212Y005496D03*
X006217Y005491D03*
X006217Y005486D03*
X006222Y005481D03*
X006227Y005471D03*
X006232Y005461D03*
X006237Y005456D03*
X006237Y005451D03*
X006242Y005446D03*
X006247Y005436D03*
X006252Y005426D03*
X006257Y005421D03*
X006257Y005416D03*
X006262Y005411D03*
X006267Y005401D03*
X006272Y005391D03*
X006277Y005386D03*
X006282Y005376D03*
X006287Y005366D03*
X006292Y005361D03*
X006292Y005356D03*
X006297Y005351D03*
X006302Y005341D03*
X006307Y005331D03*
X006312Y005321D03*
X006317Y005316D03*
X006317Y005311D03*
X006322Y005306D03*
X006322Y005301D03*
X006322Y005266D03*
X006322Y005261D03*
X005972Y005501D03*
X005862Y005736D03*
X005742Y005281D03*
X019872Y003906D03*
X019872Y003901D03*
X019877Y003916D03*
X019882Y003926D03*
X019887Y003936D03*
X019892Y003941D03*
X019897Y003951D03*
X019902Y003961D03*
X019907Y003966D03*
X019907Y003971D03*
X019912Y003976D03*
X019917Y003986D03*
X019922Y003996D03*
X019927Y004001D03*
X019932Y004011D03*
X019937Y004021D03*
X019942Y004026D03*
X019947Y004036D03*
X019952Y004046D03*
X019957Y004056D03*
X019962Y004061D03*
X019967Y004071D03*
X019972Y004081D03*
X019982Y004096D03*
X019987Y004106D03*
X019992Y004116D03*
X019997Y004121D03*
X020002Y004131D03*
X020007Y004141D03*
X020012Y004151D03*
X020017Y004156D03*
X020022Y004166D03*
X020027Y004176D03*
X020032Y004186D03*
X020037Y004191D03*
X020042Y004201D03*
X020047Y004211D03*
X020057Y004226D03*
X020062Y004236D03*
X020067Y004246D03*
X020072Y004251D03*
X020077Y004261D03*
X020082Y004271D03*
X020087Y004281D03*
X020092Y004286D03*
X020097Y004296D03*
X020102Y004306D03*
X020107Y004311D03*
X020112Y004321D03*
X020117Y004331D03*
X020122Y004341D03*
X020127Y004346D03*
X020132Y004356D03*
X020137Y004366D03*
X020142Y004376D03*
X020147Y004381D03*
X020152Y004391D03*
X020157Y004401D03*
X020162Y004406D03*
X020167Y004416D03*
X020172Y004426D03*
X020177Y004436D03*
X020182Y004441D03*
X020187Y004451D03*
X020192Y004461D03*
X020202Y004476D03*
X020207Y004486D03*
X020212Y004496D03*
X020222Y004511D03*
X020227Y004521D03*
X020237Y004536D03*
X020242Y004546D03*
X020247Y004556D03*
X020257Y004571D03*
X020262Y004581D03*
X020267Y004591D03*
X020272Y004596D03*
X020277Y004606D03*
X020282Y004616D03*
X020292Y004631D03*
X020297Y004641D03*
X020307Y004656D03*
X020312Y004666D03*
X020317Y004676D03*
X020322Y004686D03*
X020327Y004691D03*
X020332Y004701D03*
X020337Y004711D03*
X020342Y004716D03*
X020347Y004726D03*
X020352Y004736D03*
X020357Y004746D03*
X020362Y004751D03*
X020367Y004761D03*
X020372Y004771D03*
X020377Y004781D03*
X020382Y004786D03*
X020387Y004796D03*
X020392Y004806D03*
X020402Y004821D03*
X020407Y004831D03*
X020412Y004841D03*
X020417Y004846D03*
X020422Y004856D03*
X020427Y004866D03*
X020432Y004876D03*
X020437Y004881D03*
X020442Y004891D03*
X020447Y004901D03*
X020452Y004906D03*
X020457Y004916D03*
X020462Y004926D03*
X020467Y004936D03*
X020472Y004941D03*
X020477Y004951D03*
X020482Y004961D03*
X020487Y004971D03*
X020492Y004976D03*
X020497Y004986D03*
X020502Y004996D03*
X020507Y005001D03*
X020512Y005011D03*
X020517Y005021D03*
X020522Y005031D03*
X020532Y005046D03*
X020537Y005056D03*
X020542Y005061D03*
X020657Y005051D03*
X020662Y005046D03*
X020667Y005036D03*
X020672Y005026D03*
X020682Y005011D03*
X020687Y005001D03*
X020692Y004991D03*
X020697Y004986D03*
X020702Y004976D03*
X020707Y004966D03*
X020717Y004951D03*
X020722Y004941D03*
X020727Y004936D03*
X020727Y004931D03*
X020732Y004926D03*
X020737Y004916D03*
X020742Y004906D03*
X020747Y004901D03*
X020752Y004891D03*
X020757Y004881D03*
X020767Y004866D03*
X020772Y004856D03*
X020777Y004846D03*
X020782Y004841D03*
X020787Y004831D03*
X020792Y004821D03*
X020797Y004816D03*
X020797Y004811D03*
X020802Y004806D03*
X020807Y004796D03*
X020812Y004786D03*
X020817Y004781D03*
X020817Y004776D03*
X020822Y004771D03*
X020827Y004761D03*
X020832Y004756D03*
X020832Y004751D03*
X020837Y004746D03*
X020842Y004736D03*
X020847Y004726D03*
X020852Y004721D03*
X020852Y004716D03*
X020857Y004711D03*
X020862Y004701D03*
X020867Y004691D03*
X020872Y004686D03*
X020877Y004676D03*
X020882Y004666D03*
X020887Y004661D03*
X020887Y004656D03*
X020892Y004651D03*
X020897Y004641D03*
X020902Y004631D03*
X020907Y004626D03*
X020907Y004621D03*
X020912Y004616D03*
X020917Y004606D03*
X020922Y004596D03*
X020927Y004591D03*
X020932Y004581D03*
X020937Y004571D03*
X020942Y004566D03*
X020942Y004561D03*
X020947Y004556D03*
X020952Y004546D03*
X020957Y004536D03*
X020962Y004531D03*
X020967Y004521D03*
X020972Y004511D03*
X020977Y004506D03*
X020977Y004501D03*
X020982Y004496D03*
X020987Y004486D03*
X020992Y004476D03*
X020997Y004471D03*
X020997Y004466D03*
X021002Y004461D03*
X021007Y004451D03*
X021012Y004446D03*
X021012Y004441D03*
X021017Y004436D03*
X021017Y004431D03*
X021022Y004426D03*
X021027Y004416D03*
X021032Y004411D03*
X021032Y004406D03*
X021037Y004401D03*
X021042Y004391D03*
X021047Y004381D03*
X021052Y004376D03*
X021052Y004371D03*
X021057Y004366D03*
X021062Y004356D03*
X021067Y004351D03*
X021067Y004346D03*
X021072Y004341D03*
X021077Y004331D03*
X021082Y004321D03*
X021087Y004316D03*
X021087Y004311D03*
X021092Y004306D03*
X021092Y004301D03*
X021097Y004296D03*
X021102Y004291D03*
X021102Y004286D03*
X021107Y004281D03*
X021107Y004276D03*
X021112Y004271D03*
X021117Y004261D03*
X021122Y004251D03*
X021127Y004246D03*
X021127Y004241D03*
X021132Y004236D03*
X021137Y004226D03*
X021142Y004221D03*
X021142Y004216D03*
X021147Y004211D03*
X021147Y004206D03*
X021152Y004201D03*
X021157Y004191D03*
X021162Y004186D03*
X021162Y004181D03*
X021167Y004176D03*
X021172Y004166D03*
X021177Y004156D03*
X021182Y004151D03*
X021182Y004146D03*
X021187Y004141D03*
X021192Y004131D03*
X021197Y004121D03*
X021202Y004116D03*
X021202Y004111D03*
X021207Y004106D03*
X021212Y004096D03*
X021217Y004091D03*
X021217Y004086D03*
X021222Y004081D03*
X021227Y004071D03*
X021232Y004061D03*
X021237Y004056D03*
X021237Y004051D03*
X021242Y004046D03*
X021247Y004036D03*
X021252Y004026D03*
X021257Y004021D03*
X021257Y004016D03*
X021262Y004011D03*
X021267Y004001D03*
X021272Y003991D03*
X021277Y003986D03*
X021282Y003976D03*
X021287Y003966D03*
X021292Y003961D03*
X021292Y003956D03*
X021297Y003951D03*
X021302Y003941D03*
X021307Y003931D03*
X021312Y003921D03*
X021317Y003916D03*
X021317Y003911D03*
X021322Y003906D03*
X021322Y003901D03*
X021322Y003866D03*
X021322Y003861D03*
X020972Y004101D03*
X020862Y004336D03*
X020607Y004611D03*
X020607Y004616D03*
X020612Y004621D03*
X020612Y004626D03*
X020742Y003881D03*
X019877Y003861D03*
X019877Y003856D03*
X019872Y003866D03*
D57*
X019870Y003871D03*
X019870Y003876D03*
X019870Y003881D03*
X019870Y003886D03*
X019870Y003891D03*
X019870Y003896D03*
X020475Y004071D03*
X020605Y003871D03*
X020980Y004111D03*
X021325Y003896D03*
X021325Y003891D03*
X021325Y003886D03*
X021325Y003881D03*
X021325Y003876D03*
X021325Y003871D03*
X020905Y004461D03*
X020840Y004481D03*
X020665Y004631D03*
X020605Y004606D03*
X020605Y004601D03*
X020605Y004596D03*
X020600Y004591D03*
X020600Y004586D03*
X020610Y004511D03*
X020530Y004551D03*
X006325Y005271D03*
X006325Y005276D03*
X006325Y005281D03*
X006325Y005286D03*
X006325Y005291D03*
X006325Y005296D03*
X005980Y005511D03*
X005905Y005861D03*
X005840Y005881D03*
X005665Y006031D03*
X005605Y006006D03*
X005605Y006001D03*
X005605Y005996D03*
X005600Y005991D03*
X005600Y005986D03*
X005610Y005911D03*
X005530Y005951D03*
X005475Y005471D03*
X005605Y005271D03*
X004870Y005271D03*
X004870Y005276D03*
X004870Y005281D03*
X004870Y005286D03*
X004870Y005291D03*
X004870Y005296D03*
D58*
X005220Y005641D03*
X005230Y005656D03*
X005235Y005661D03*
X005290Y005716D03*
X005295Y005726D03*
X005300Y005731D03*
X005300Y005736D03*
X005380Y005556D03*
X005495Y005501D03*
X005495Y005496D03*
X005495Y005491D03*
X005495Y005486D03*
X005465Y005456D03*
X005465Y005451D03*
X005465Y005446D03*
X005465Y005441D03*
X005570Y005891D03*
X005575Y005906D03*
X005575Y005911D03*
X005580Y005921D03*
X005530Y005956D03*
X005675Y006021D03*
X005620Y006121D03*
X005675Y006171D03*
X005675Y006176D03*
X005675Y006181D03*
X005675Y006186D03*
X005945Y005826D03*
X005955Y005821D03*
X005925Y005546D03*
X005935Y005541D03*
X005950Y005531D03*
X005965Y005496D03*
X020220Y004241D03*
X020230Y004256D03*
X020235Y004261D03*
X020290Y004316D03*
X020295Y004326D03*
X020300Y004331D03*
X020300Y004336D03*
X020380Y004156D03*
X020495Y004101D03*
X020495Y004096D03*
X020495Y004091D03*
X020495Y004086D03*
X020465Y004056D03*
X020465Y004051D03*
X020465Y004046D03*
X020465Y004041D03*
X020570Y004491D03*
X020575Y004506D03*
X020575Y004511D03*
X020580Y004521D03*
X020530Y004556D03*
X020675Y004621D03*
X020620Y004721D03*
X020675Y004771D03*
X020675Y004776D03*
X020675Y004781D03*
X020675Y004786D03*
X020945Y004426D03*
X020955Y004421D03*
X020925Y004146D03*
X020935Y004141D03*
X020950Y004131D03*
X020965Y004096D03*
D59*
X020957Y004126D03*
X020942Y004136D03*
X020932Y004431D03*
X020917Y004436D03*
X020907Y004441D03*
X020672Y004751D03*
X020672Y004756D03*
X020672Y004761D03*
X020672Y004766D03*
X020587Y004546D03*
X020582Y004536D03*
X020582Y004531D03*
X020582Y004526D03*
X020577Y004516D03*
X020292Y004321D03*
X020287Y004311D03*
X020282Y004306D03*
X020282Y004301D03*
X020242Y004271D03*
X020237Y004266D03*
X020467Y004061D03*
X020492Y004081D03*
X005957Y005526D03*
X005942Y005536D03*
X005932Y005831D03*
X005917Y005836D03*
X005907Y005841D03*
X005672Y006151D03*
X005672Y006156D03*
X005672Y006161D03*
X005672Y006166D03*
X005587Y005946D03*
X005582Y005936D03*
X005582Y005931D03*
X005582Y005926D03*
X005577Y005916D03*
X005292Y005721D03*
X005287Y005711D03*
X005282Y005706D03*
X005282Y005701D03*
X005242Y005671D03*
X005237Y005666D03*
X005467Y005461D03*
X005492Y005481D03*
D60*
X005470Y005466D03*
X005865Y005731D03*
X005895Y005846D03*
X005895Y005851D03*
X005900Y005856D03*
X005670Y006026D03*
X005595Y005971D03*
X005590Y005961D03*
X005590Y005956D03*
X005590Y005951D03*
X005585Y005941D03*
X005605Y005916D03*
X005670Y006136D03*
X005670Y006141D03*
X005670Y006146D03*
X005595Y006511D03*
X005965Y005521D03*
X005975Y005516D03*
X020470Y004066D03*
X020865Y004331D03*
X020895Y004446D03*
X020895Y004451D03*
X020900Y004456D03*
X020670Y004626D03*
X020595Y004571D03*
X020590Y004561D03*
X020590Y004556D03*
X020590Y004551D03*
X020585Y004541D03*
X020605Y004516D03*
X020670Y004736D03*
X020670Y004741D03*
X020670Y004746D03*
X020595Y005111D03*
X020965Y004121D03*
X020975Y004116D03*
D61*
X020812Y004141D03*
X020807Y004146D03*
X020662Y004176D03*
X020662Y004181D03*
X020837Y004366D03*
X020632Y004481D03*
X020437Y004566D03*
X020437Y004681D03*
X020597Y005091D03*
X005837Y005766D03*
X005807Y005546D03*
X005812Y005541D03*
X005662Y005576D03*
X005662Y005581D03*
X005632Y005881D03*
X005437Y005966D03*
X005437Y006081D03*
X005597Y006491D03*
D62*
X005785Y005576D03*
X005790Y005571D03*
X005795Y005566D03*
X005795Y005561D03*
X005800Y005556D03*
X005805Y005551D03*
X020785Y004176D03*
X020790Y004171D03*
X020795Y004166D03*
X020795Y004161D03*
X020800Y004156D03*
X020805Y004151D03*
D63*
X020720Y004186D03*
X020715Y004196D03*
X020705Y004211D03*
X005720Y005586D03*
X005715Y005596D03*
X005705Y005611D03*
D64*
X005702Y005616D03*
X005697Y005621D03*
X005697Y005626D03*
X005692Y005631D03*
X005687Y005636D03*
X005687Y005641D03*
X005682Y005646D03*
X005677Y005656D03*
X005672Y005661D03*
X005667Y005671D03*
X005707Y005606D03*
X005712Y005601D03*
X005717Y005591D03*
X020667Y004271D03*
X020672Y004261D03*
X020677Y004256D03*
X020682Y004246D03*
X020687Y004241D03*
X020687Y004236D03*
X020692Y004231D03*
X020697Y004226D03*
X020697Y004221D03*
X020702Y004216D03*
X020707Y004206D03*
X020712Y004201D03*
X020717Y004191D03*
D65*
X020680Y004251D03*
X020670Y004266D03*
X020665Y004276D03*
X020660Y004281D03*
X020660Y004286D03*
X020655Y004291D03*
X020650Y004296D03*
X020650Y004301D03*
X020645Y004306D03*
X020640Y004311D03*
X020640Y004316D03*
X020635Y004321D03*
X020635Y004326D03*
X020630Y004331D03*
X020625Y004336D03*
X020620Y004346D03*
X020615Y004351D03*
X020610Y004361D03*
X005680Y005651D03*
X005670Y005666D03*
X005665Y005676D03*
X005660Y005681D03*
X005660Y005686D03*
X005655Y005691D03*
X005650Y005696D03*
X005650Y005701D03*
X005645Y005706D03*
X005640Y005711D03*
X005640Y005716D03*
X005635Y005721D03*
X005635Y005726D03*
X005630Y005731D03*
X005625Y005736D03*
X005620Y005746D03*
X005615Y005751D03*
X005610Y005761D03*
D66*
X005607Y005766D03*
X005602Y005771D03*
X005602Y005776D03*
X005612Y005756D03*
X005622Y005741D03*
X020602Y004376D03*
X020602Y004371D03*
X020607Y004366D03*
X020612Y004356D03*
X020622Y004341D03*
D67*
X020557Y004381D03*
X005557Y005781D03*
D68*
X005557Y005786D03*
X005557Y005791D03*
X020557Y004391D03*
X020557Y004386D03*
D69*
X020557Y004396D03*
X005557Y005796D03*
D70*
X005557Y005801D03*
X005557Y005806D03*
X020557Y004406D03*
X020557Y004401D03*
D71*
X020640Y004471D03*
X020770Y004406D03*
X020595Y005076D03*
X005770Y005806D03*
X005640Y005871D03*
X005595Y006476D03*
D72*
X005557Y005811D03*
X020557Y004411D03*
D73*
X020622Y004416D03*
X005622Y005816D03*
D74*
X005617Y005821D03*
X020617Y004421D03*
D75*
X020615Y004426D03*
X005615Y005826D03*
D76*
X005612Y005831D03*
X020612Y004431D03*
D77*
X020610Y004436D03*
X005610Y005836D03*
D78*
X005605Y005841D03*
X020605Y004441D03*
M02*
