G75*
G70*
%OFA0B0*%
%FSLAX24Y24*%
%IPPOS*%
%LPD*%
%AMOC8*
5,1,8,0,0,1.08239X$1,22.5*
%
%ADD10C,0.0080*%
%ADD11C,0.0050*%
%ADD12C,0.0040*%
%ADD13C,0.0030*%
%ADD14R,0.0056X0.0007*%
%ADD15R,0.0056X0.0007*%
%ADD16R,0.0049X0.0007*%
%ADD17R,0.0049X0.0007*%
%ADD18R,0.0056X0.0007*%
%ADD19R,0.0049X0.0007*%
%ADD20R,0.0056X0.0007*%
%ADD21R,0.0105X0.0007*%
%ADD22R,0.0077X0.0007*%
%ADD23R,0.0189X0.0007*%
%ADD24R,0.0063X0.0007*%
%ADD25R,0.0182X0.0007*%
%ADD26R,0.0084X0.0007*%
%ADD27R,0.0189X0.0007*%
%ADD28R,0.0126X0.0007*%
%ADD29R,0.0231X0.0007*%
%ADD30R,0.0049X0.0007*%
%ADD31R,0.0063X0.0007*%
%ADD32R,0.0210X0.0007*%
%ADD33R,0.0224X0.0007*%
%ADD34R,0.0231X0.0007*%
%ADD35R,0.0126X0.0007*%
%ADD36R,0.0126X0.0007*%
%ADD37R,0.0231X0.0007*%
%ADD38R,0.0077X0.0007*%
%ADD39R,0.0224X0.0007*%
%ADD40R,0.0238X0.0007*%
%ADD41R,0.0231X0.0007*%
%ADD42R,0.0126X0.0007*%
%ADD43R,0.0098X0.0007*%
%ADD44R,0.0091X0.0007*%
%ADD45R,0.0042X0.0007*%
%ADD46R,0.0042X0.0007*%
%ADD47R,0.0042X0.0007*%
%ADD48R,0.0133X0.0007*%
%ADD49R,0.0203X0.0007*%
%ADD50R,0.0021X0.0007*%
%ADD51R,0.0238X0.0007*%
%ADD52R,0.0266X0.0007*%
%ADD53R,0.0217X0.0007*%
%ADD54R,0.0301X0.0007*%
%ADD55R,0.0364X0.0007*%
%ADD56R,0.0385X0.0007*%
%ADD57R,0.0399X0.0007*%
%ADD58R,0.0420X0.0007*%
%ADD59R,0.0448X0.0007*%
%ADD60R,0.0476X0.0007*%
%ADD61R,0.0084X0.0007*%
%ADD62R,0.0098X0.0007*%
%ADD63R,0.0490X0.0007*%
%ADD64R,0.0175X0.0007*%
%ADD65R,0.0210X0.0007*%
%ADD66R,0.0504X0.0007*%
%ADD67R,0.0175X0.0007*%
%ADD68R,0.0224X0.0007*%
%ADD69R,0.0525X0.0007*%
%ADD70R,0.0063X0.0007*%
%ADD71R,0.0070X0.0007*%
%ADD72R,0.0546X0.0007*%
%ADD73R,0.0560X0.0007*%
%ADD74R,0.0574X0.0007*%
%ADD75R,0.0588X0.0007*%
%ADD76R,0.0595X0.0007*%
%ADD77R,0.0609X0.0007*%
%ADD78R,0.0623X0.0007*%
%ADD79R,0.0630X0.0007*%
%ADD80R,0.0644X0.0007*%
%ADD81R,0.0651X0.0007*%
%ADD82R,0.0665X0.0007*%
%ADD83R,0.0665X0.0007*%
%ADD84R,0.0672X0.0007*%
%ADD85R,0.0679X0.0007*%
%ADD86R,0.0007X0.0007*%
%ADD87R,0.0693X0.0007*%
%ADD88R,0.0700X0.0007*%
%ADD89R,0.0714X0.0007*%
%ADD90R,0.0329X0.0007*%
%ADD91R,0.0721X0.0007*%
%ADD92R,0.0357X0.0007*%
%ADD93R,0.0728X0.0007*%
%ADD94R,0.0378X0.0007*%
%ADD95R,0.0728X0.0007*%
%ADD96R,0.0735X0.0007*%
%ADD97R,0.0406X0.0007*%
%ADD98R,0.0735X0.0007*%
%ADD99R,0.0427X0.0007*%
%ADD100R,0.0749X0.0007*%
%ADD101R,0.0441X0.0007*%
%ADD102R,0.0749X0.0007*%
%ADD103R,0.0455X0.0007*%
%ADD104R,0.0756X0.0007*%
%ADD105R,0.0462X0.0007*%
%ADD106R,0.0763X0.0007*%
%ADD107R,0.0462X0.0007*%
%ADD108R,0.0770X0.0007*%
%ADD109R,0.0777X0.0007*%
%ADD110R,0.0483X0.0007*%
%ADD111R,0.0784X0.0007*%
%ADD112R,0.0497X0.0007*%
%ADD113R,0.0784X0.0007*%
%ADD114R,0.0791X0.0007*%
%ADD115R,0.0497X0.0007*%
%ADD116R,0.0791X0.0007*%
%ADD117R,0.0504X0.0007*%
%ADD118R,0.0343X0.0007*%
%ADD119R,0.0399X0.0007*%
%ADD120R,0.0119X0.0007*%
%ADD121R,0.0455X0.0007*%
%ADD122R,0.0112X0.0007*%
%ADD123R,0.0161X0.0007*%
%ADD124R,0.0798X0.0007*%
%ADD125R,0.0413X0.0007*%
%ADD126R,0.0112X0.0007*%
%ADD127R,0.0805X0.0007*%
%ADD128R,0.0511X0.0007*%
%ADD129R,0.0441X0.0007*%
%ADD130R,0.0098X0.0007*%
%ADD131R,0.0091X0.0007*%
%ADD132R,0.0483X0.0007*%
%ADD133R,0.0119X0.0007*%
%ADD134R,0.0098X0.0007*%
%ADD135R,0.0112X0.0007*%
%ADD136R,0.0161X0.0007*%
%ADD137R,0.0812X0.0007*%
%ADD138R,0.0518X0.0007*%
%ADD139R,0.0504X0.0007*%
%ADD140R,0.0154X0.0007*%
%ADD141R,0.0812X0.0007*%
%ADD142R,0.0525X0.0007*%
%ADD143R,0.0490X0.0007*%
%ADD144R,0.0469X0.0007*%
%ADD145R,0.0105X0.0007*%
%ADD146R,0.0819X0.0007*%
%ADD147R,0.0532X0.0007*%
%ADD148R,0.0476X0.0007*%
%ADD149R,0.0826X0.0007*%
%ADD150R,0.0532X0.0007*%
%ADD151R,0.0133X0.0007*%
%ADD152R,0.0539X0.0007*%
%ADD153R,0.0154X0.0007*%
%ADD154R,0.0826X0.0007*%
%ADD155R,0.0539X0.0007*%
%ADD156R,0.0140X0.0007*%
%ADD157R,0.0147X0.0007*%
%ADD158R,0.0112X0.0007*%
%ADD159R,0.0833X0.0007*%
%ADD160R,0.0553X0.0007*%
%ADD161R,0.0546X0.0007*%
%ADD162R,0.0497X0.0007*%
%ADD163R,0.0602X0.0007*%
%ADD164R,0.0196X0.0007*%
%ADD165R,0.0553X0.0007*%
%ADD166R,0.0007X0.0007*%
%ADD167R,0.0189X0.0007*%
%ADD168R,0.0560X0.0007*%
%ADD169R,0.0168X0.0007*%
%ADD170R,0.0546X0.0007*%
%ADD171R,0.0518X0.0007*%
%ADD172R,0.0567X0.0007*%
%ADD173R,0.0567X0.0007*%
%ADD174R,0.0574X0.0007*%
%ADD175R,0.0406X0.0007*%
%ADD176R,0.0567X0.0007*%
%ADD177R,0.0581X0.0007*%
%ADD178R,0.0203X0.0007*%
%ADD179R,0.0483X0.0007*%
%ADD180R,0.0357X0.0007*%
%ADD181R,0.0203X0.0007*%
%ADD182R,0.0476X0.0007*%
%ADD183R,0.0336X0.0007*%
%ADD184R,0.0147X0.0007*%
%ADD185R,0.0217X0.0007*%
%ADD186R,0.0469X0.0007*%
%ADD187R,0.0301X0.0007*%
%ADD188R,0.0140X0.0007*%
%ADD189R,0.0574X0.0007*%
%ADD190R,0.0462X0.0007*%
%ADD191R,0.0287X0.0007*%
%ADD192R,0.0266X0.0007*%
%ADD193R,0.0448X0.0007*%
%ADD194R,0.0154X0.0007*%
%ADD195R,0.0238X0.0007*%
%ADD196R,0.0567X0.0007*%
%ADD197R,0.0252X0.0007*%
%ADD198R,0.0427X0.0007*%
%ADD199R,0.0427X0.0007*%
%ADD200R,0.0203X0.0007*%
%ADD201R,0.0413X0.0007*%
%ADD202R,0.0182X0.0007*%
%ADD203R,0.0581X0.0007*%
%ADD204R,0.0154X0.0007*%
%ADD205R,0.0588X0.0007*%
%ADD206R,0.0133X0.0007*%
%ADD207R,0.0308X0.0007*%
%ADD208R,0.0259X0.0007*%
%ADD209R,0.0252X0.0007*%
%ADD210R,0.0084X0.0007*%
%ADD211R,0.0308X0.0007*%
%ADD212R,0.0119X0.0007*%
%ADD213R,0.0077X0.0007*%
%ADD214R,0.0595X0.0007*%
%ADD215R,0.0119X0.0007*%
%ADD216R,0.0518X0.0007*%
%ADD217R,0.0077X0.0007*%
%ADD218R,0.0063X0.0007*%
%ADD219R,0.0147X0.0007*%
%ADD220R,0.0091X0.0007*%
%ADD221R,0.0553X0.0007*%
%ADD222R,0.0322X0.0007*%
%ADD223R,0.0133X0.0007*%
%ADD224R,0.0035X0.0007*%
%ADD225R,0.0308X0.0007*%
%ADD226R,0.0028X0.0007*%
%ADD227R,0.0308X0.0007*%
%ADD228R,0.0147X0.0007*%
%ADD229R,0.0245X0.0007*%
%ADD230R,0.0021X0.0007*%
%ADD231R,0.0168X0.0007*%
%ADD232R,0.0280X0.0007*%
%ADD233R,0.0014X0.0007*%
%ADD234R,0.0091X0.0007*%
%ADD235R,0.0301X0.0007*%
%ADD236R,0.0021X0.0007*%
%ADD237R,0.0315X0.0007*%
%ADD238R,0.0329X0.0007*%
%ADD239R,0.0343X0.0007*%
%ADD240R,0.0217X0.0007*%
%ADD241R,0.0350X0.0007*%
%ADD242R,0.0014X0.0007*%
%ADD243R,0.0371X0.0007*%
%ADD244R,0.0378X0.0007*%
%ADD245R,0.0392X0.0007*%
%ADD246R,0.0406X0.0007*%
%ADD247R,0.0413X0.0007*%
%ADD248R,0.0315X0.0007*%
%ADD249R,0.0462X0.0007*%
%ADD250R,0.0546X0.0007*%
%ADD251R,0.0322X0.0007*%
%ADD252R,0.0168X0.0007*%
%ADD253R,0.0518X0.0007*%
%ADD254R,0.0532X0.0007*%
%ADD255R,0.0336X0.0007*%
%ADD256R,0.0343X0.0007*%
%ADD257R,0.0511X0.0007*%
%ADD258R,0.0581X0.0007*%
%ADD259R,0.0343X0.0007*%
%ADD260R,0.0602X0.0007*%
%ADD261R,0.0616X0.0007*%
%ADD262R,0.0196X0.0007*%
%ADD263R,0.0070X0.0007*%
%ADD264R,0.0609X0.0007*%
%ADD265R,0.0637X0.0007*%
%ADD266R,0.0609X0.0007*%
%ADD267R,0.0364X0.0007*%
%ADD268R,0.0651X0.0007*%
%ADD269R,0.0623X0.0007*%
%ADD270R,0.0630X0.0007*%
%ADD271R,0.0364X0.0007*%
%ADD272R,0.0553X0.0007*%
%ADD273R,0.0672X0.0007*%
%ADD274R,0.0637X0.0007*%
%ADD275R,0.0378X0.0007*%
%ADD276R,0.0532X0.0007*%
%ADD277R,0.0679X0.0007*%
%ADD278R,0.0378X0.0007*%
%ADD279R,0.0693X0.0007*%
%ADD280R,0.0651X0.0007*%
%ADD281R,0.0385X0.0007*%
%ADD282R,0.0707X0.0007*%
%ADD283R,0.0714X0.0007*%
%ADD284R,0.0658X0.0007*%
%ADD285R,0.0392X0.0007*%
%ADD286R,0.0721X0.0007*%
%ADD287R,0.0301X0.0007*%
%ADD288R,0.0693X0.0007*%
%ADD289R,0.0294X0.0007*%
%ADD290R,0.0028X0.0007*%
%ADD291R,0.0273X0.0007*%
%ADD292R,0.0007X0.0007*%
%ADD293R,0.0259X0.0007*%
%ADD294R,0.0014X0.0007*%
%ADD295R,0.0637X0.0007*%
%ADD296R,0.0280X0.0007*%
%ADD297R,0.0392X0.0007*%
%ADD298R,0.0273X0.0007*%
%ADD299R,0.0392X0.0007*%
%ADD300R,0.0252X0.0007*%
%ADD301R,0.0266X0.0007*%
%ADD302R,0.0021X0.0007*%
%ADD303R,0.0035X0.0007*%
%ADD304R,0.0028X0.0007*%
%ADD305R,0.0623X0.0007*%
%ADD306R,0.0028X0.0007*%
%ADD307R,0.0259X0.0007*%
%ADD308R,0.0616X0.0007*%
%ADD309R,0.0609X0.0007*%
%ADD310R,0.0448X0.0007*%
%ADD311R,0.0448X0.0007*%
%ADD312R,0.0819X0.0007*%
%ADD313R,0.0658X0.0007*%
%ADD314R,0.0350X0.0007*%
%ADD315R,0.0623X0.0007*%
%ADD316R,0.0336X0.0007*%
%ADD317R,0.0336X0.0007*%
%ADD318R,0.0371X0.0007*%
%ADD319R,0.0574X0.0007*%
%ADD320R,0.0007X0.0007*%
%ADD321R,0.0511X0.0007*%
%ADD322R,0.0434X0.0007*%
%ADD323R,0.0196X0.0007*%
%ADD324R,0.0357X0.0007*%
%ADD325R,0.0441X0.0007*%
%ADD326R,0.0294X0.0007*%
%ADD327R,0.0182X0.0007*%
%ADD328R,0.0357X0.0007*%
%ADD329R,0.0329X0.0007*%
%ADD330R,0.0329X0.0007*%
%ADD331R,0.0273X0.0007*%
%ADD332R,0.0322X0.0007*%
%ADD333R,0.0014X0.0007*%
%ADD334R,0.0602X0.0007*%
%ADD335R,0.0245X0.0007*%
%ADD336R,0.0252X0.0007*%
%ADD337R,0.0434X0.0007*%
%ADD338R,0.0420X0.0007*%
%ADD339R,0.0287X0.0007*%
%ADD340R,0.0182X0.0007*%
%ADD341R,0.0469X0.0007*%
%ADD342R,0.0287X0.0007*%
D10*
X006546Y010015D02*
X006740Y010015D01*
X006836Y010112D01*
X006836Y010305D01*
X006740Y010402D01*
X006546Y010402D01*
X006449Y010305D01*
X006449Y010208D01*
X006836Y010208D01*
X007057Y010208D02*
X007444Y010208D01*
X007444Y010112D02*
X007444Y010305D01*
X007347Y010402D01*
X007154Y010402D01*
X007057Y010305D01*
X007057Y010208D01*
X007154Y010015D02*
X007347Y010015D01*
X007444Y010112D01*
X007665Y010112D02*
X007762Y010015D01*
X008052Y010015D01*
X008052Y010595D01*
X007762Y010595D01*
X007665Y010499D01*
X007665Y010402D01*
X007762Y010305D01*
X008052Y010305D01*
X007762Y010305D02*
X007665Y010208D01*
X007665Y010112D01*
X008273Y010595D02*
X008660Y010595D01*
X008466Y010595D02*
X008466Y010015D01*
X008880Y010112D02*
X008880Y010499D01*
X008977Y010595D01*
X009171Y010595D01*
X009267Y010499D01*
X009267Y010112D01*
X009171Y010015D01*
X008977Y010015D01*
X008880Y010112D01*
X009479Y010015D02*
X009673Y010015D01*
X009576Y010015D02*
X009576Y010595D01*
X009673Y010595D02*
X009479Y010595D01*
D11*
X008763Y009584D02*
X008646Y009350D01*
X008529Y009584D01*
X008394Y009584D02*
X008277Y009700D01*
X008277Y009350D01*
X008161Y009350D02*
X008394Y009350D01*
X008026Y009350D02*
X007967Y009350D01*
X007967Y009408D01*
X008026Y009408D01*
X008026Y009350D01*
X007842Y009350D02*
X007608Y009584D01*
X007608Y009642D01*
X007667Y009700D01*
X007783Y009700D01*
X007842Y009642D01*
X007842Y009350D02*
X007608Y009350D01*
X007605Y008796D02*
X007547Y008738D01*
X007547Y008563D01*
X007412Y008563D02*
X007237Y008563D01*
X007179Y008621D01*
X007237Y008679D01*
X007354Y008679D01*
X007412Y008738D01*
X007354Y008796D01*
X007179Y008796D01*
X007044Y008738D02*
X007044Y008621D01*
X006985Y008563D01*
X006869Y008563D01*
X006810Y008621D01*
X006810Y008738D01*
X006869Y008796D01*
X006985Y008796D01*
X007044Y008738D01*
X006676Y008796D02*
X006676Y008563D01*
X006676Y008679D02*
X006559Y008796D01*
X006500Y008796D01*
X006000Y008913D02*
X006000Y008563D01*
X005767Y008563D02*
X005767Y008913D01*
X005632Y008738D02*
X005632Y008621D01*
X005574Y008563D01*
X005457Y008563D01*
X005398Y008621D01*
X005398Y008738D01*
X005457Y008796D01*
X005574Y008796D01*
X005632Y008738D01*
X005767Y008563D02*
X006000Y008913D01*
X005264Y008738D02*
X005264Y008621D01*
X005205Y008563D01*
X005030Y008563D01*
X005030Y008913D01*
X005030Y008796D02*
X005205Y008796D01*
X005264Y008738D01*
X004895Y008738D02*
X004895Y008621D01*
X004837Y008563D01*
X004720Y008563D01*
X004662Y008679D02*
X004895Y008679D01*
X004895Y008738D02*
X004837Y008796D01*
X004720Y008796D01*
X004662Y008738D01*
X004662Y008679D01*
X005705Y007713D02*
X005939Y007713D01*
X005822Y007713D02*
X005822Y007363D01*
X006074Y007421D02*
X006074Y007654D01*
X006132Y007713D01*
X006249Y007713D01*
X006307Y007654D01*
X006307Y007421D01*
X006249Y007363D01*
X006132Y007363D01*
X006074Y007421D01*
X006249Y007171D02*
X006249Y007113D01*
X006249Y006996D02*
X006249Y006763D01*
X006307Y006763D02*
X006190Y006763D01*
X006062Y006763D02*
X005887Y006763D01*
X005828Y006821D01*
X005828Y006938D01*
X005887Y006996D01*
X006062Y006996D01*
X006062Y007113D02*
X006062Y006763D01*
X006249Y006996D02*
X006307Y006996D01*
X006436Y006996D02*
X006553Y006996D01*
X006494Y007054D02*
X006494Y006821D01*
X006436Y006763D01*
X006688Y006763D02*
X006688Y006938D01*
X006746Y006996D01*
X006863Y006996D01*
X006863Y006879D02*
X006688Y006879D01*
X006688Y006763D02*
X006863Y006763D01*
X006921Y006821D01*
X006863Y006879D01*
X007056Y006821D02*
X007114Y006763D01*
X007289Y006763D01*
X007289Y006646D02*
X007289Y006996D01*
X007114Y006996D01*
X007056Y006938D01*
X007056Y006821D01*
X007424Y006763D02*
X007424Y006938D01*
X007483Y006996D01*
X007541Y006938D01*
X007541Y006763D01*
X007658Y006763D02*
X007658Y006996D01*
X007599Y006996D01*
X007541Y006938D01*
X007792Y006938D02*
X007792Y006821D01*
X007851Y006763D01*
X007968Y006763D01*
X008026Y006821D01*
X008026Y006938D01*
X007968Y006996D01*
X007851Y006996D01*
X007792Y006938D01*
X008161Y007054D02*
X008219Y007113D01*
X008336Y007113D01*
X008394Y007054D01*
X008394Y006821D01*
X008336Y006763D01*
X008219Y006763D01*
X008161Y006821D01*
X008161Y007363D02*
X008161Y007538D01*
X008219Y007596D01*
X008278Y007538D01*
X008278Y007363D01*
X008394Y007363D02*
X008394Y007596D01*
X008336Y007596D01*
X008278Y007538D01*
X008529Y007538D02*
X008529Y007421D01*
X008587Y007363D01*
X008704Y007363D01*
X008763Y007421D01*
X008763Y007538D01*
X008704Y007596D01*
X008587Y007596D01*
X008529Y007538D01*
X008897Y007538D02*
X009131Y007538D01*
X009260Y007596D02*
X009376Y007596D01*
X009318Y007654D02*
X009318Y007421D01*
X009260Y007363D01*
X009131Y007363D02*
X009131Y007713D01*
X008897Y007713D02*
X008897Y007363D01*
X008956Y006996D02*
X009073Y006996D01*
X009131Y006938D01*
X009131Y006821D01*
X009073Y006763D01*
X008956Y006763D01*
X008897Y006821D01*
X008897Y006938D01*
X008956Y006996D01*
X009266Y006938D02*
X009266Y006763D01*
X009266Y006938D02*
X009324Y006996D01*
X009499Y006996D01*
X009499Y006763D01*
X009628Y006763D02*
X009745Y006763D01*
X009686Y006763D02*
X009686Y006996D01*
X009745Y006996D01*
X009686Y007113D02*
X009686Y007171D01*
X009880Y006996D02*
X009880Y006763D01*
X010055Y006763D01*
X010113Y006821D01*
X010113Y006996D01*
X010248Y006996D02*
X010423Y006996D01*
X010481Y006938D01*
X010481Y006821D01*
X010423Y006763D01*
X010248Y006763D01*
X010248Y007113D01*
X010303Y007363D02*
X010303Y007538D01*
X010245Y007596D01*
X010187Y007538D01*
X010187Y007363D01*
X010052Y007421D02*
X009993Y007479D01*
X009818Y007479D01*
X009818Y007538D02*
X009818Y007363D01*
X009993Y007363D01*
X010052Y007421D01*
X009993Y007596D02*
X009877Y007596D01*
X009818Y007538D01*
X009683Y007596D02*
X009683Y007363D01*
X009683Y007479D02*
X009567Y007596D01*
X009508Y007596D01*
X010303Y007538D02*
X010362Y007596D01*
X010420Y007596D01*
X010420Y007363D01*
X010555Y007421D02*
X010613Y007363D01*
X010730Y007363D01*
X010788Y007421D01*
X010730Y007538D02*
X010613Y007538D01*
X010555Y007479D01*
X010555Y007421D01*
X010730Y007538D02*
X010788Y007596D01*
X010788Y007654D01*
X010730Y007713D01*
X010613Y007713D01*
X010555Y007654D01*
X011040Y007113D02*
X010923Y006996D01*
X010923Y006763D01*
X010788Y006763D02*
X010788Y006996D01*
X010672Y006996D02*
X010788Y006879D01*
X010923Y006938D02*
X011157Y006938D01*
X011157Y006996D02*
X011040Y007113D01*
X011157Y006996D02*
X011157Y006763D01*
X010672Y006996D02*
X010613Y006996D01*
X010000Y006088D02*
X010000Y005738D01*
X009825Y005738D01*
X009766Y005796D01*
X009766Y005913D01*
X009825Y005971D01*
X010000Y005971D01*
X009632Y005971D02*
X009632Y005796D01*
X009573Y005738D01*
X009398Y005738D01*
X009398Y005679D02*
X009457Y005621D01*
X009515Y005621D01*
X009398Y005679D02*
X009398Y005971D01*
X008895Y006088D02*
X008895Y005738D01*
X008720Y005738D01*
X008662Y005796D01*
X008662Y006029D01*
X008720Y006088D01*
X008895Y006088D01*
X008527Y005971D02*
X008527Y005796D01*
X008468Y005738D01*
X008293Y005738D01*
X008293Y005971D01*
X008158Y005971D02*
X008100Y005971D01*
X008100Y005738D01*
X008158Y005738D02*
X008042Y005738D01*
X007913Y005738D02*
X007913Y005971D01*
X007738Y005971D01*
X007679Y005913D01*
X007679Y005738D01*
X007545Y005796D02*
X007486Y005738D01*
X007369Y005738D01*
X007311Y005796D01*
X007311Y005913D01*
X007369Y005971D01*
X007486Y005971D01*
X007545Y005913D01*
X007545Y005796D01*
X007176Y005854D02*
X007001Y005854D01*
X006943Y005913D01*
X006943Y006029D01*
X007001Y006088D01*
X007176Y006088D01*
X007176Y005738D01*
X006808Y005796D02*
X006750Y005738D01*
X006633Y005738D01*
X006574Y005854D02*
X006808Y005854D01*
X006808Y005796D02*
X006808Y005913D01*
X006750Y005971D01*
X006633Y005971D01*
X006574Y005913D01*
X006574Y005854D01*
X006440Y005796D02*
X006381Y005738D01*
X006206Y005738D01*
X006206Y005913D01*
X006264Y005971D01*
X006381Y005971D01*
X006381Y005854D02*
X006206Y005854D01*
X006071Y005854D02*
X005896Y005971D01*
X006071Y005854D02*
X005896Y005738D01*
X006071Y005738D02*
X006071Y006088D01*
X006381Y005854D02*
X006440Y005796D01*
X005693Y006763D02*
X005577Y006763D01*
X005635Y006763D02*
X005635Y007113D01*
X005693Y007113D01*
X005448Y006938D02*
X005389Y006996D01*
X005273Y006996D01*
X005214Y006938D01*
X005214Y006879D01*
X005448Y006879D01*
X005448Y006821D02*
X005448Y006938D01*
X005448Y006821D02*
X005389Y006763D01*
X005273Y006763D01*
X006436Y007363D02*
X006553Y007363D01*
X006494Y007363D02*
X006494Y007713D01*
X006436Y007713D02*
X006553Y007713D01*
X007056Y007479D02*
X007173Y007363D01*
X007231Y007363D01*
X007289Y007421D01*
X007289Y007479D01*
X007173Y007596D01*
X007173Y007654D01*
X007231Y007713D01*
X007289Y007654D01*
X007289Y007596D01*
X007056Y007363D01*
X007792Y007479D02*
X008026Y007479D01*
X008026Y007421D02*
X008026Y007538D01*
X007968Y007596D01*
X007851Y007596D01*
X007792Y007538D01*
X007792Y007479D01*
X007851Y007363D02*
X007968Y007363D01*
X008026Y007421D01*
X007965Y007963D02*
X007965Y008196D01*
X007965Y008079D02*
X007848Y008196D01*
X007789Y008196D01*
X008099Y008138D02*
X008099Y008021D01*
X008158Y007963D01*
X008275Y007963D01*
X008333Y008021D01*
X008333Y008138D01*
X008275Y008196D01*
X008158Y008196D01*
X008099Y008138D01*
X008462Y008138D02*
X008578Y008138D01*
X008520Y008254D02*
X008520Y007963D01*
X008520Y008254D02*
X008462Y008313D01*
X008459Y008563D02*
X008342Y008563D01*
X008284Y008621D01*
X008284Y008679D01*
X008342Y008738D01*
X008459Y008738D01*
X008517Y008796D01*
X008517Y008854D01*
X008459Y008913D01*
X008342Y008913D01*
X008284Y008854D01*
X008149Y008738D02*
X008090Y008796D01*
X007974Y008796D01*
X007915Y008738D01*
X007915Y008679D01*
X008149Y008679D01*
X008149Y008621D02*
X008149Y008738D01*
X008149Y008621D02*
X008090Y008563D01*
X007974Y008563D01*
X007780Y008563D02*
X007780Y008796D01*
X007605Y008796D01*
X008459Y008563D02*
X008517Y008621D01*
X009020Y008621D02*
X009079Y008679D01*
X009195Y008679D01*
X009254Y008738D01*
X009195Y008796D01*
X009020Y008796D01*
X009020Y008621D02*
X009079Y008563D01*
X009254Y008563D01*
X009389Y008621D02*
X009447Y008679D01*
X009564Y008679D01*
X009622Y008738D01*
X009564Y008796D01*
X009389Y008796D01*
X009389Y008621D02*
X009447Y008563D01*
X009622Y008563D01*
X009757Y008679D02*
X009990Y008679D01*
X009990Y008621D02*
X009990Y008738D01*
X009932Y008796D01*
X009815Y008796D01*
X009757Y008738D01*
X009757Y008679D01*
X009815Y008563D02*
X009932Y008563D01*
X009990Y008621D01*
X010119Y008563D02*
X010236Y008563D01*
X010178Y008563D02*
X010178Y008913D01*
X010236Y008913D01*
X010371Y008738D02*
X010371Y008679D01*
X010604Y008679D01*
X010604Y008621D02*
X010604Y008738D01*
X010546Y008796D01*
X010429Y008796D01*
X010371Y008738D01*
X010429Y008563D02*
X010546Y008563D01*
X010604Y008621D01*
X010736Y008796D02*
X010794Y008796D01*
X010911Y008679D01*
X010911Y008563D02*
X010911Y008796D01*
X011098Y008796D02*
X011098Y008563D01*
X011040Y008563D02*
X011157Y008563D01*
X011291Y008563D02*
X011291Y008913D01*
X011157Y008796D02*
X011098Y008796D01*
X011098Y008913D02*
X011098Y008971D01*
X011408Y008679D02*
X011291Y008563D01*
X011408Y008679D02*
X011525Y008563D01*
X011525Y008913D01*
X008100Y006146D02*
X008100Y006088D01*
D12*
X008149Y004213D02*
X008009Y004213D01*
X007962Y004166D01*
X007962Y004073D01*
X008009Y004026D01*
X008149Y004026D01*
X008149Y003933D02*
X008149Y004213D01*
X008257Y004166D02*
X008303Y004213D01*
X008397Y004213D01*
X008443Y004166D01*
X008443Y003979D01*
X008397Y003933D01*
X008303Y003933D01*
X008257Y003979D01*
X008257Y004166D01*
X008551Y004213D02*
X008551Y003933D01*
X008738Y004213D01*
X008738Y003933D01*
X008841Y003933D02*
X008934Y003933D01*
X008888Y003933D02*
X008888Y004213D01*
X008934Y004213D02*
X008841Y004213D01*
X009042Y004213D02*
X009042Y003979D01*
X009089Y003933D01*
X009182Y003933D01*
X009229Y003979D01*
X009229Y004213D01*
X009337Y004166D02*
X009384Y004213D01*
X009524Y004213D01*
X009524Y003933D01*
X009384Y003933D01*
X009337Y003979D01*
X009337Y004166D01*
X009624Y003979D02*
X009624Y003933D01*
X009671Y003933D01*
X009671Y003979D01*
X009624Y003979D01*
X009779Y003933D02*
X009779Y004213D01*
X009966Y004213D02*
X009966Y003933D01*
X009872Y004026D01*
X009779Y003933D01*
X010074Y003933D02*
X010074Y004213D01*
X010260Y004213D02*
X010260Y003933D01*
X010167Y004026D01*
X010074Y003933D01*
X010368Y003933D02*
X010368Y004213D01*
X010555Y004213D02*
X010555Y003933D01*
X010462Y004026D01*
X010368Y003933D01*
X007854Y003933D02*
X007667Y003933D01*
X007559Y003933D02*
X007559Y004119D01*
X007466Y004213D01*
X007373Y004119D01*
X007373Y003933D01*
X007265Y003933D02*
X007265Y004213D01*
X007218Y004073D02*
X007078Y003933D01*
X006970Y003933D02*
X006923Y003933D01*
X006923Y003979D01*
X006970Y003979D01*
X006970Y003933D01*
X006823Y003979D02*
X006823Y004166D01*
X006776Y004213D01*
X006683Y004213D01*
X006636Y004166D01*
X006528Y004166D02*
X006528Y003979D01*
X006481Y003933D01*
X006388Y003933D01*
X006341Y003979D01*
X006341Y004166D01*
X006388Y004213D01*
X006481Y004213D01*
X006528Y004166D01*
X006636Y003979D02*
X006683Y003933D01*
X006776Y003933D01*
X006823Y003979D01*
X007078Y004213D02*
X007265Y004026D01*
X007373Y004073D02*
X007559Y004073D01*
X007667Y004213D02*
X007854Y004213D01*
X007854Y003933D01*
X007854Y004073D02*
X007761Y004073D01*
X006233Y003933D02*
X006233Y004213D01*
X006140Y004119D01*
X006047Y004213D01*
X006047Y003933D01*
D13*
X003110Y004058D02*
X003061Y004106D01*
X003061Y004154D01*
X003110Y004203D01*
X003158Y004203D01*
X003110Y004203D02*
X003061Y004251D01*
X003061Y004299D01*
X003110Y004348D01*
X003206Y004348D01*
X003255Y004299D01*
X003356Y004251D02*
X003356Y004058D01*
X003255Y004106D02*
X003206Y004058D01*
X003110Y004058D01*
X003356Y004203D02*
X003549Y004203D01*
X003549Y004251D02*
X003453Y004348D01*
X003356Y004251D01*
X003549Y004251D02*
X003549Y004058D01*
X003549Y004820D02*
X003549Y005013D01*
X003453Y005110D01*
X003356Y005013D01*
X003356Y004820D01*
X003255Y004820D02*
X003061Y005013D01*
X003061Y005062D01*
X003110Y005110D01*
X003206Y005110D01*
X003255Y005062D01*
X003356Y004965D02*
X003549Y004965D01*
X003255Y004820D02*
X003061Y004820D01*
X003061Y005620D02*
X003255Y005620D01*
X003158Y005620D02*
X003158Y005910D01*
X003255Y005813D01*
X003356Y005813D02*
X003356Y005620D01*
X003356Y005765D02*
X003549Y005765D01*
X003549Y005813D02*
X003453Y005910D01*
X003356Y005813D01*
X003549Y005813D02*
X003549Y005620D01*
X003549Y006408D02*
X003356Y006408D01*
X003255Y006408D02*
X003255Y006698D01*
X003061Y006698D01*
X003158Y006553D02*
X003255Y006553D01*
X003356Y006698D02*
X003549Y006698D01*
X003549Y006408D01*
X003650Y006408D02*
X003747Y006504D01*
X003699Y006504D02*
X003844Y006504D01*
X003844Y006408D02*
X003844Y006698D01*
X003699Y006698D01*
X003650Y006649D01*
X003650Y006553D01*
X003699Y006504D01*
X003549Y006553D02*
X003453Y006553D01*
X003945Y006504D02*
X003945Y006698D01*
X004139Y006698D02*
X004139Y006504D01*
X004042Y006408D01*
X003945Y006504D01*
X003549Y007195D02*
X003549Y007388D01*
X003453Y007485D01*
X003356Y007388D01*
X003356Y007195D01*
X003255Y007243D02*
X003061Y007437D01*
X003061Y007243D01*
X003110Y007195D01*
X003206Y007195D01*
X003255Y007243D01*
X003255Y007437D01*
X003206Y007485D01*
X003110Y007485D01*
X003061Y007437D01*
X003356Y007340D02*
X003549Y007340D01*
X003549Y007970D02*
X003549Y008163D01*
X003453Y008260D01*
X003356Y008163D01*
X003356Y007970D01*
X003255Y007970D02*
X003255Y008018D01*
X003061Y008212D01*
X003061Y008260D01*
X003255Y008260D01*
X003356Y008115D02*
X003549Y008115D01*
X003549Y008770D02*
X003404Y008770D01*
X003356Y008818D01*
X003356Y009012D01*
X003404Y009060D01*
X003549Y009060D01*
X003549Y008770D01*
X003255Y008818D02*
X003206Y008770D01*
X003110Y008770D01*
X003061Y008818D01*
X003061Y008915D01*
X003110Y008963D01*
X003158Y008963D01*
X003255Y008915D01*
X003255Y009060D01*
X003061Y009060D01*
X003110Y009570D02*
X003061Y009618D01*
X003061Y009667D01*
X003110Y009715D01*
X003255Y009715D01*
X003255Y009618D01*
X003206Y009570D01*
X003110Y009570D01*
X003255Y009715D02*
X003158Y009812D01*
X003061Y009860D01*
X003356Y009812D02*
X003356Y009618D01*
X003404Y009570D01*
X003549Y009570D01*
X003549Y009860D01*
X003404Y009860D01*
X003356Y009812D01*
X003404Y010345D02*
X003356Y010393D01*
X003404Y010345D02*
X003501Y010345D01*
X003549Y010393D01*
X003549Y010587D01*
X003501Y010635D01*
X003404Y010635D01*
X003356Y010587D01*
X003255Y010635D02*
X003255Y010345D01*
X003061Y010345D01*
X003650Y010393D02*
X003699Y010345D01*
X003796Y010345D01*
X003844Y010393D01*
X003796Y010490D02*
X003699Y010490D01*
X003650Y010442D01*
X003650Y010393D01*
X003796Y010490D02*
X003844Y010538D01*
X003844Y010587D01*
X003796Y010635D01*
X003699Y010635D01*
X003650Y010587D01*
X003699Y011145D02*
X003796Y011145D01*
X003844Y011193D01*
X003796Y011290D02*
X003699Y011290D01*
X003650Y011242D01*
X003650Y011193D01*
X003699Y011145D01*
X003549Y011145D02*
X003404Y011145D01*
X003356Y011193D01*
X003356Y011387D01*
X003404Y011435D01*
X003549Y011435D01*
X003549Y011145D01*
X003650Y011387D02*
X003699Y011435D01*
X003796Y011435D01*
X003844Y011387D01*
X003844Y011338D01*
X003796Y011290D01*
X003255Y011290D02*
X003061Y011290D01*
X003061Y011338D02*
X003061Y011145D01*
X003061Y011338D02*
X003158Y011435D01*
X003255Y011338D01*
X003255Y011145D01*
X012702Y011201D02*
X012751Y011153D01*
X012847Y011153D01*
X012896Y011201D01*
X012997Y011249D02*
X012997Y011443D01*
X012896Y011394D02*
X012847Y011443D01*
X012751Y011443D01*
X012702Y011394D01*
X012702Y011346D01*
X012751Y011298D01*
X012702Y011249D01*
X012702Y011201D01*
X012751Y011298D02*
X012799Y011298D01*
X012997Y011249D02*
X013094Y011153D01*
X013190Y011249D01*
X013190Y011443D01*
X013292Y011394D02*
X013292Y011346D01*
X013340Y011298D01*
X013292Y011249D01*
X013292Y011201D01*
X013340Y011153D01*
X013437Y011153D01*
X013485Y011201D01*
X013388Y011298D02*
X013340Y011298D01*
X013292Y011394D02*
X013340Y011443D01*
X013437Y011443D01*
X013485Y011394D01*
X013485Y010643D02*
X013292Y010643D01*
X013388Y010643D02*
X013388Y010353D01*
X013190Y010353D02*
X012997Y010643D01*
X013190Y010643D02*
X012997Y010353D01*
X012997Y009868D02*
X013190Y009578D01*
X013292Y009578D02*
X013388Y009674D01*
X013340Y009674D02*
X013485Y009674D01*
X013485Y009578D02*
X013485Y009868D01*
X013340Y009868D01*
X013292Y009819D01*
X013292Y009723D01*
X013340Y009674D01*
X013190Y009868D02*
X012997Y009578D01*
X013045Y009068D02*
X013190Y008923D01*
X012997Y008923D01*
X013045Y008778D02*
X013045Y009068D01*
X013292Y009019D02*
X013292Y008826D01*
X013340Y008778D01*
X013485Y008778D01*
X013485Y009068D01*
X013340Y009068D01*
X013292Y009019D01*
X013500Y008328D02*
X012616Y008328D01*
X012702Y008268D02*
X012896Y008268D01*
X012799Y008268D02*
X012799Y007978D01*
X012997Y008026D02*
X012997Y008074D01*
X013045Y008123D01*
X013142Y008123D01*
X013190Y008171D01*
X013190Y008219D01*
X013142Y008268D01*
X013045Y008268D01*
X012997Y008219D01*
X012997Y008026D02*
X013045Y007978D01*
X013142Y007978D01*
X013190Y008026D01*
X013292Y007978D02*
X013388Y008074D01*
X013340Y008074D02*
X013485Y008074D01*
X013485Y007978D02*
X013485Y008268D01*
X013340Y008268D01*
X013292Y008219D01*
X013292Y008123D01*
X013340Y008074D01*
X013340Y007493D02*
X013485Y007493D01*
X013485Y007203D01*
X013340Y007203D01*
X013292Y007251D01*
X013292Y007444D01*
X013340Y007493D01*
X013190Y007444D02*
X013142Y007493D01*
X013045Y007493D01*
X012997Y007444D01*
X012997Y007396D01*
X013045Y007348D01*
X012997Y007299D01*
X012997Y007251D01*
X013045Y007203D01*
X013142Y007203D01*
X013190Y007251D01*
X013094Y007348D02*
X013045Y007348D01*
X013045Y006705D02*
X012997Y006657D01*
X012997Y006608D01*
X013045Y006560D01*
X013142Y006560D01*
X013190Y006608D01*
X013190Y006657D01*
X013142Y006705D01*
X013045Y006705D01*
X013045Y006560D02*
X012997Y006512D01*
X012997Y006463D01*
X013045Y006415D01*
X013142Y006415D01*
X013190Y006463D01*
X013190Y006512D01*
X013142Y006560D01*
X013292Y006463D02*
X013292Y006657D01*
X013340Y006705D01*
X013485Y006705D01*
X013485Y006415D01*
X013340Y006415D01*
X013292Y006463D01*
X013340Y005905D02*
X013485Y005905D01*
X013485Y005615D01*
X013340Y005615D01*
X013292Y005663D01*
X013292Y005857D01*
X013340Y005905D01*
X013190Y005905D02*
X012997Y005905D01*
X012997Y005857D01*
X013190Y005663D01*
X013190Y005615D01*
X013190Y005118D02*
X012997Y005118D01*
X013094Y005118D02*
X013094Y004828D01*
X013292Y004876D02*
X013292Y005069D01*
X013340Y005118D01*
X013485Y005118D01*
X013485Y004828D01*
X013340Y004828D01*
X013292Y004876D01*
X012896Y004924D02*
X012751Y004924D01*
X012702Y004973D01*
X012702Y005069D01*
X012751Y005118D01*
X012896Y005118D01*
X012896Y004828D01*
X012799Y004924D02*
X012702Y004828D01*
X012751Y004355D02*
X012896Y004355D01*
X012896Y004065D01*
X012751Y004065D01*
X012702Y004113D01*
X012702Y004307D01*
X012751Y004355D01*
X012997Y004355D02*
X012997Y004065D01*
X013190Y004355D01*
X013190Y004065D01*
X013292Y004113D02*
X013292Y004210D01*
X013388Y004210D01*
X013292Y004113D02*
X013340Y004065D01*
X013437Y004065D01*
X013485Y004113D01*
X013485Y004307D01*
X013437Y004355D01*
X013340Y004355D01*
X013292Y004307D01*
D14*
X011517Y005019D03*
X011069Y005880D03*
X009809Y004515D03*
X009739Y004340D03*
X009753Y004319D03*
X009634Y004494D03*
X008374Y004494D03*
X008374Y004480D03*
X008374Y004459D03*
X008374Y004445D03*
X008374Y004424D03*
X008374Y004410D03*
X008374Y004389D03*
X008374Y004515D03*
X008374Y004564D03*
X008374Y004585D03*
X008227Y004480D03*
X008227Y004459D03*
X008227Y004445D03*
X008227Y004424D03*
X007576Y004424D03*
X007576Y004410D03*
X007569Y004494D03*
X007394Y004494D03*
X007394Y004480D03*
X007394Y004424D03*
X007394Y004410D03*
X007072Y004410D03*
X007072Y004424D03*
X007072Y004445D03*
X007072Y004459D03*
X007072Y004480D03*
X007072Y004494D03*
X007072Y004515D03*
X007072Y004564D03*
X007072Y004585D03*
X007072Y004389D03*
X005266Y004410D03*
X005266Y004424D03*
X005259Y004494D03*
X005084Y004494D03*
X005084Y004480D03*
X005084Y004424D03*
X005084Y004410D03*
X004524Y004319D03*
X004391Y004515D03*
D15*
X004398Y004509D03*
X004419Y004474D03*
X004482Y004383D03*
X004496Y004361D03*
X004517Y004326D03*
X004559Y004488D03*
X004573Y004509D03*
X005084Y004501D03*
X005084Y004488D03*
X005084Y004474D03*
X005084Y004466D03*
X005084Y004439D03*
X005084Y004431D03*
X005084Y004418D03*
X005084Y004383D03*
X005266Y004404D03*
X005266Y004418D03*
X005266Y004431D03*
X005266Y004439D03*
X005259Y004488D03*
X005259Y004501D03*
X007072Y004501D03*
X007072Y004509D03*
X007072Y004523D03*
X007072Y004488D03*
X007072Y004474D03*
X007072Y004466D03*
X007072Y004453D03*
X007072Y004439D03*
X007072Y004431D03*
X007072Y004418D03*
X007072Y004404D03*
X007072Y004396D03*
X007072Y004383D03*
X007072Y004571D03*
X007072Y004579D03*
X007394Y004501D03*
X007394Y004488D03*
X007394Y004474D03*
X007394Y004466D03*
X007394Y004439D03*
X007394Y004431D03*
X007394Y004418D03*
X007394Y004383D03*
X007576Y004404D03*
X007576Y004418D03*
X007576Y004431D03*
X007576Y004439D03*
X007569Y004488D03*
X007569Y004501D03*
X008227Y004488D03*
X008227Y004474D03*
X008227Y004466D03*
X008227Y004453D03*
X008227Y004439D03*
X008227Y004431D03*
X008227Y004418D03*
X008374Y004418D03*
X008374Y004431D03*
X008374Y004439D03*
X008374Y004453D03*
X008374Y004466D03*
X008374Y004474D03*
X008374Y004488D03*
X008374Y004501D03*
X008374Y004509D03*
X008374Y004523D03*
X008374Y004571D03*
X008374Y004579D03*
X008374Y004404D03*
X008374Y004396D03*
X008374Y004383D03*
X009627Y004509D03*
X009648Y004474D03*
X009711Y004383D03*
X009746Y004326D03*
X009788Y004488D03*
X009802Y004509D03*
X009809Y004523D03*
X011244Y005026D03*
X011244Y005034D03*
X011594Y005761D03*
X011594Y005769D03*
X011321Y006041D03*
X011076Y005874D03*
D16*
X011108Y004571D03*
X011108Y004558D03*
X011108Y004544D03*
X011108Y004536D03*
X011108Y004501D03*
X011108Y004488D03*
X011108Y004474D03*
X011108Y004466D03*
X011108Y004453D03*
X011108Y004439D03*
X011108Y004431D03*
X011108Y004418D03*
X011108Y004404D03*
X010583Y004404D03*
X010583Y004396D03*
X010583Y004383D03*
X010583Y004418D03*
X010583Y004431D03*
X010583Y004439D03*
X010583Y004453D03*
X010583Y004466D03*
X010583Y004474D03*
X010583Y004488D03*
X010583Y004523D03*
X009778Y004474D03*
X009778Y004466D03*
X009673Y004439D03*
X009638Y004488D03*
X009743Y004334D03*
X008833Y004383D03*
X008833Y004396D03*
X008833Y004404D03*
X008833Y004418D03*
X008833Y004431D03*
X008833Y004439D03*
X008833Y004453D03*
X008833Y004466D03*
X008833Y004474D03*
X008833Y004488D03*
X008833Y004523D03*
X004528Y004439D03*
X004493Y004369D03*
X004423Y004466D03*
X004388Y004523D03*
D17*
X004402Y004501D03*
X004409Y004488D03*
X004430Y004453D03*
X004444Y004439D03*
X004535Y004453D03*
X004549Y004466D03*
X004549Y004474D03*
X004570Y004501D03*
X004507Y004348D03*
X004514Y004334D03*
X004759Y004404D03*
X004759Y004418D03*
X004759Y004431D03*
X004759Y004439D03*
X004759Y004453D03*
X004759Y004466D03*
X004759Y004474D03*
X004759Y004488D03*
X004759Y004501D03*
X004759Y004536D03*
X004759Y004544D03*
X004759Y004558D03*
X004759Y004571D03*
X005410Y004501D03*
X005410Y004488D03*
X005410Y004474D03*
X005410Y004418D03*
X005410Y004404D03*
X005585Y004404D03*
X005585Y004418D03*
X005585Y004431D03*
X005585Y004439D03*
X005585Y004474D03*
X005585Y004488D03*
X005585Y004501D03*
X005711Y004501D03*
X005711Y004488D03*
X005872Y004488D03*
X005872Y004474D03*
X005872Y004466D03*
X005872Y004453D03*
X005872Y004439D03*
X005872Y004431D03*
X005872Y004418D03*
X005872Y004404D03*
X005872Y004396D03*
X005872Y004383D03*
X005872Y004523D03*
X006187Y004501D03*
X006187Y004488D03*
X006187Y004474D03*
X006187Y004466D03*
X006187Y004453D03*
X006187Y004439D03*
X006187Y004431D03*
X006187Y004418D03*
X006187Y004404D03*
X006369Y004404D03*
X006369Y004418D03*
X006369Y004431D03*
X006369Y004439D03*
X006369Y004453D03*
X006369Y004466D03*
X006369Y004474D03*
X006369Y004488D03*
X006369Y004501D03*
X006572Y004501D03*
X006572Y004488D03*
X006572Y004474D03*
X006572Y004466D03*
X006572Y004453D03*
X006572Y004439D03*
X006572Y004431D03*
X006572Y004418D03*
X006572Y004404D03*
X006572Y004536D03*
X006572Y004544D03*
X006572Y004558D03*
X006572Y004571D03*
X006740Y004501D03*
X006740Y004488D03*
X006740Y004474D03*
X006740Y004466D03*
X006740Y004453D03*
X006740Y004439D03*
X006740Y004431D03*
X006740Y004418D03*
X006740Y004404D03*
X006740Y004396D03*
X006740Y004383D03*
X006922Y004383D03*
X006922Y004396D03*
X006922Y004404D03*
X006922Y004418D03*
X006922Y004431D03*
X006922Y004439D03*
X006922Y004453D03*
X006922Y004466D03*
X006922Y004474D03*
X006922Y004488D03*
X006922Y004523D03*
X007720Y004501D03*
X007720Y004488D03*
X007720Y004474D03*
X007720Y004418D03*
X007720Y004404D03*
X007895Y004404D03*
X007895Y004418D03*
X007895Y004431D03*
X007895Y004439D03*
X007895Y004474D03*
X007895Y004488D03*
X007895Y004501D03*
X008672Y004501D03*
X008672Y004488D03*
X008980Y004488D03*
X008980Y004501D03*
X008980Y004509D03*
X008980Y004523D03*
X008980Y004474D03*
X008980Y004466D03*
X008980Y004453D03*
X008980Y004439D03*
X008980Y004431D03*
X008980Y004418D03*
X008980Y004383D03*
X009162Y004404D03*
X009162Y004418D03*
X009162Y004431D03*
X009162Y004439D03*
X009162Y004453D03*
X009162Y004466D03*
X009162Y004474D03*
X009162Y004488D03*
X009162Y004501D03*
X009162Y004509D03*
X009162Y004523D03*
X009309Y004501D03*
X009309Y004488D03*
X009309Y004474D03*
X009309Y004466D03*
X009309Y004453D03*
X009309Y004439D03*
X009309Y004431D03*
X009309Y004418D03*
X009309Y004404D03*
X009491Y004404D03*
X009491Y004418D03*
X009491Y004431D03*
X009491Y004439D03*
X009491Y004453D03*
X009491Y004466D03*
X009491Y004474D03*
X009491Y004488D03*
X009491Y004501D03*
X009617Y004523D03*
X009631Y004501D03*
X009652Y004466D03*
X009659Y004453D03*
X009757Y004439D03*
X009764Y004453D03*
X009799Y004501D03*
X009722Y004369D03*
X009736Y004348D03*
X010114Y004383D03*
X010114Y004396D03*
X010114Y004404D03*
X010114Y004418D03*
X010114Y004431D03*
X010114Y004439D03*
X010114Y004453D03*
X010114Y004466D03*
X010114Y004474D03*
X010114Y004488D03*
X010114Y004501D03*
X010296Y004488D03*
X010296Y004474D03*
X010296Y004466D03*
X010296Y004453D03*
X010296Y004439D03*
X010296Y004431D03*
X010296Y004418D03*
X010296Y004404D03*
X010296Y004396D03*
X010296Y004383D03*
X010296Y004523D03*
X010422Y004501D03*
X010422Y004488D03*
X010730Y004488D03*
X010730Y004501D03*
X010730Y004509D03*
X010730Y004523D03*
X010730Y004474D03*
X010730Y004466D03*
X010730Y004453D03*
X010730Y004439D03*
X010730Y004431D03*
X010730Y004418D03*
X010730Y004383D03*
X010912Y004404D03*
X010912Y004418D03*
X010912Y004431D03*
X010912Y004439D03*
X010912Y004453D03*
X010912Y004466D03*
X010912Y004474D03*
X010912Y004488D03*
X010912Y004501D03*
X010912Y004509D03*
X010912Y004523D03*
X011514Y005026D03*
X011514Y005034D03*
X011087Y005866D03*
X012074Y005923D03*
D18*
X009620Y004515D03*
X008045Y004529D03*
X008045Y004550D03*
X008045Y004564D03*
X008045Y004585D03*
X008045Y004599D03*
X008045Y004494D03*
X008045Y004480D03*
X008045Y004459D03*
X008045Y004445D03*
X008045Y004424D03*
X008045Y004410D03*
X004930Y004410D03*
X004930Y004424D03*
X004930Y004445D03*
X004930Y004459D03*
X004930Y004480D03*
X004930Y004494D03*
X004930Y004515D03*
X004930Y004529D03*
X004930Y004550D03*
X004930Y004564D03*
X004930Y004585D03*
X004930Y004599D03*
X004930Y004389D03*
X004580Y004515D03*
X004405Y004494D03*
X004510Y004340D03*
D19*
X004500Y004354D03*
X004486Y004375D03*
X004521Y004424D03*
X004535Y004445D03*
X004542Y004459D03*
X004556Y004480D03*
X004451Y004424D03*
X004437Y004445D03*
X004430Y004459D03*
X004416Y004480D03*
X004759Y004480D03*
X004759Y004494D03*
X004759Y004459D03*
X004759Y004445D03*
X004759Y004424D03*
X004759Y004410D03*
X004759Y004529D03*
X004759Y004550D03*
X004759Y004564D03*
X005410Y004494D03*
X005410Y004480D03*
X005410Y004424D03*
X005410Y004410D03*
X005585Y004410D03*
X005585Y004424D03*
X005585Y004445D03*
X005585Y004480D03*
X005585Y004494D03*
X005711Y004494D03*
X005711Y004480D03*
X005872Y004480D03*
X005872Y004494D03*
X005872Y004459D03*
X005872Y004445D03*
X005872Y004424D03*
X005872Y004410D03*
X005872Y004389D03*
X006187Y004410D03*
X006187Y004424D03*
X006187Y004445D03*
X006187Y004459D03*
X006187Y004480D03*
X006187Y004494D03*
X006369Y004494D03*
X006369Y004480D03*
X006369Y004459D03*
X006369Y004445D03*
X006369Y004424D03*
X006369Y004410D03*
X006572Y004410D03*
X006572Y004424D03*
X006572Y004445D03*
X006572Y004459D03*
X006572Y004480D03*
X006572Y004494D03*
X006572Y004529D03*
X006572Y004550D03*
X006572Y004564D03*
X006740Y004494D03*
X006740Y004480D03*
X006740Y004459D03*
X006740Y004445D03*
X006740Y004424D03*
X006740Y004410D03*
X006740Y004389D03*
X006922Y004389D03*
X006922Y004410D03*
X006922Y004424D03*
X006922Y004445D03*
X006922Y004459D03*
X006922Y004480D03*
X006922Y004494D03*
X007720Y004494D03*
X007720Y004480D03*
X007720Y004424D03*
X007720Y004410D03*
X007895Y004410D03*
X007895Y004424D03*
X007895Y004445D03*
X007895Y004480D03*
X007895Y004494D03*
X008224Y004494D03*
X008224Y004410D03*
X008672Y004480D03*
X008672Y004494D03*
X008980Y004494D03*
X008980Y004480D03*
X008980Y004459D03*
X008980Y004445D03*
X008980Y004424D03*
X008980Y004410D03*
X008980Y004515D03*
X009162Y004515D03*
X009162Y004494D03*
X009162Y004480D03*
X009162Y004459D03*
X009162Y004445D03*
X009162Y004424D03*
X009162Y004410D03*
X009309Y004410D03*
X009309Y004424D03*
X009309Y004445D03*
X009309Y004459D03*
X009309Y004480D03*
X009309Y004494D03*
X009491Y004494D03*
X009491Y004480D03*
X009491Y004459D03*
X009491Y004445D03*
X009491Y004424D03*
X009491Y004410D03*
X009645Y004480D03*
X009659Y004459D03*
X009666Y004445D03*
X009680Y004424D03*
X009715Y004375D03*
X009729Y004354D03*
X009750Y004424D03*
X009764Y004445D03*
X009771Y004459D03*
X009785Y004480D03*
X009792Y004494D03*
X010114Y004494D03*
X010114Y004480D03*
X010114Y004459D03*
X010114Y004445D03*
X010114Y004424D03*
X010114Y004410D03*
X010114Y004389D03*
X010296Y004389D03*
X010296Y004410D03*
X010296Y004424D03*
X010296Y004445D03*
X010296Y004459D03*
X010296Y004480D03*
X010296Y004494D03*
X010422Y004494D03*
X010422Y004480D03*
X010730Y004480D03*
X010730Y004494D03*
X010730Y004515D03*
X010730Y004459D03*
X010730Y004445D03*
X010730Y004424D03*
X010730Y004410D03*
X010912Y004410D03*
X010912Y004424D03*
X010912Y004445D03*
X010912Y004459D03*
X010912Y004480D03*
X010912Y004494D03*
X010912Y004515D03*
X011591Y005754D03*
X011325Y006034D03*
D20*
X009725Y004361D03*
X008045Y004383D03*
X008045Y004418D03*
X008045Y004431D03*
X008045Y004439D03*
X008045Y004453D03*
X008045Y004466D03*
X008045Y004474D03*
X008045Y004488D03*
X008045Y004501D03*
X008045Y004536D03*
X008045Y004544D03*
X008045Y004558D03*
X008045Y004571D03*
X008045Y004579D03*
X008045Y004593D03*
X008045Y004606D03*
X008045Y004614D03*
X004930Y004614D03*
X004930Y004606D03*
X004930Y004593D03*
X004930Y004579D03*
X004930Y004571D03*
X004930Y004558D03*
X004930Y004544D03*
X004930Y004536D03*
X004930Y004523D03*
X004930Y004509D03*
X004930Y004501D03*
X004930Y004488D03*
X004930Y004474D03*
X004930Y004466D03*
X004930Y004453D03*
X004930Y004439D03*
X004930Y004431D03*
X004930Y004418D03*
X004930Y004404D03*
X004930Y004396D03*
X004930Y004383D03*
X004580Y004523D03*
D21*
X004710Y004383D03*
X005263Y004964D03*
X005270Y004978D03*
X005276Y004991D03*
X005284Y004999D03*
X005290Y005013D03*
X005298Y005026D03*
X005298Y005034D03*
X005305Y005048D03*
X005311Y005061D03*
X005319Y005069D03*
X005325Y005083D03*
X005333Y005096D03*
X005395Y005209D03*
X005605Y004816D03*
X005613Y004803D03*
X005626Y004781D03*
X005634Y004768D03*
X005640Y004754D03*
X006523Y004383D03*
X007223Y004851D03*
X007223Y004859D03*
X007223Y004873D03*
X007223Y004886D03*
X007223Y004894D03*
X007223Y004908D03*
X007223Y004921D03*
X007223Y004929D03*
X007223Y004943D03*
X007223Y004956D03*
X007223Y004964D03*
X007223Y004978D03*
X007223Y004991D03*
X007223Y004999D03*
X007223Y005013D03*
X007223Y005026D03*
X007223Y005034D03*
X007223Y005048D03*
X007223Y005061D03*
X007223Y005069D03*
X007223Y005083D03*
X007223Y005096D03*
X007223Y005104D03*
X007223Y005118D03*
X007670Y005118D03*
X007670Y005104D03*
X007670Y005096D03*
X007670Y005083D03*
X007670Y005069D03*
X007670Y005061D03*
X007670Y005048D03*
X007670Y005034D03*
X007670Y005026D03*
X007670Y005013D03*
X007670Y004999D03*
X007670Y004991D03*
X007670Y004978D03*
X007670Y004964D03*
X007670Y004956D03*
X007670Y004943D03*
X007670Y004929D03*
X007670Y004921D03*
X007670Y004908D03*
X007670Y004894D03*
X007670Y004886D03*
X007670Y004873D03*
X007670Y004859D03*
X007670Y004851D03*
X007670Y004838D03*
X008378Y005188D03*
X010400Y005643D03*
X011038Y005901D03*
X011619Y005804D03*
X011850Y005586D03*
X011541Y004978D03*
X011269Y004929D03*
X011059Y004383D03*
D22*
X010876Y004383D03*
X011059Y005888D03*
X009126Y004383D03*
X008391Y005209D03*
X007944Y004746D03*
D23*
X007482Y004523D03*
X009400Y004523D03*
X009400Y004383D03*
X011654Y005888D03*
X011654Y005901D03*
X005396Y005139D03*
X005396Y005131D03*
X005172Y004523D03*
D24*
X005739Y004523D03*
X008168Y004383D03*
X008216Y004404D03*
X008216Y004501D03*
X011248Y005013D03*
X011318Y006049D03*
D25*
X010873Y005061D03*
X008108Y004523D03*
X007807Y004523D03*
X007807Y004383D03*
X005497Y004383D03*
X005497Y004523D03*
D26*
X005231Y004383D03*
X005854Y004501D03*
X004482Y004404D03*
X007541Y004383D03*
X007947Y004754D03*
X008388Y005201D03*
X009711Y004404D03*
X011531Y004999D03*
X011314Y006076D03*
D27*
X006278Y004523D03*
X006278Y004383D03*
D28*
X006533Y004389D03*
X006456Y005089D03*
X006456Y005110D03*
X006456Y005124D03*
X006456Y005145D03*
X006456Y005159D03*
X006456Y005180D03*
X006456Y005194D03*
X009669Y005089D03*
X009669Y005075D03*
X009669Y005054D03*
X009669Y005040D03*
X009669Y005019D03*
X009669Y005005D03*
X009676Y004970D03*
X009676Y005110D03*
X009676Y005124D03*
X011069Y004389D03*
X011279Y004900D03*
X011629Y005824D03*
D29*
X010800Y004634D03*
X010821Y004389D03*
X010205Y004515D03*
X009400Y004515D03*
X009400Y004389D03*
X009071Y004389D03*
X008315Y005075D03*
X007482Y004389D03*
X006831Y004515D03*
X005172Y004389D03*
X004864Y005019D03*
D30*
X004563Y004494D03*
X008833Y004494D03*
X008833Y004480D03*
X008833Y004459D03*
X008833Y004445D03*
X008833Y004424D03*
X008833Y004410D03*
X008833Y004389D03*
X010583Y004389D03*
X010583Y004410D03*
X010583Y004424D03*
X010583Y004445D03*
X010583Y004459D03*
X010583Y004480D03*
X010583Y004494D03*
X011108Y004494D03*
X011108Y004480D03*
X011108Y004459D03*
X011108Y004445D03*
X011108Y004424D03*
X011108Y004410D03*
X011108Y004529D03*
X011108Y004550D03*
X011108Y004564D03*
D31*
X009715Y004389D03*
X004486Y004389D03*
D32*
X004874Y005005D03*
X005161Y004459D03*
X005791Y004515D03*
X007471Y004459D03*
X008010Y004865D03*
X008122Y004515D03*
X008122Y004389D03*
X008752Y004515D03*
X010502Y004515D03*
X010859Y005054D03*
X010957Y005950D03*
X011307Y006174D03*
D33*
X010936Y005964D03*
X012119Y005845D03*
X011601Y004914D03*
X008017Y004879D03*
X007807Y004515D03*
X007807Y004459D03*
X007807Y004389D03*
X005497Y004389D03*
X005497Y004459D03*
X005497Y004515D03*
X004867Y004984D03*
D34*
X006278Y004515D03*
X006278Y004389D03*
X011668Y005985D03*
D35*
X004720Y004389D03*
D36*
X006456Y005083D03*
X006456Y005096D03*
X006456Y005104D03*
X006456Y005118D03*
X006456Y005131D03*
X006456Y005139D03*
X006456Y005153D03*
X006456Y005166D03*
X006456Y005174D03*
X006456Y005188D03*
X006456Y005201D03*
X006456Y005209D03*
X006533Y004396D03*
X007968Y004789D03*
X008367Y005166D03*
X009669Y005083D03*
X009669Y005069D03*
X009669Y005061D03*
X009669Y005048D03*
X009669Y005034D03*
X009669Y005026D03*
X009669Y005013D03*
X009669Y004999D03*
X009669Y004991D03*
X009676Y004964D03*
X009676Y004956D03*
X009683Y004943D03*
X009676Y005104D03*
X009676Y005118D03*
X009683Y005131D03*
X009683Y005139D03*
X010901Y005096D03*
X011552Y004964D03*
X011069Y004396D03*
X011307Y006119D03*
D37*
X011367Y006413D03*
X011220Y005069D03*
X011605Y004908D03*
X010821Y004396D03*
X010205Y004509D03*
X009771Y004859D03*
X009400Y004509D03*
X009400Y004396D03*
X009071Y004396D03*
X008021Y004886D03*
X007482Y004509D03*
X007482Y004453D03*
X006831Y004509D03*
X005172Y004509D03*
X005172Y004453D03*
X004864Y004978D03*
D38*
X004486Y004396D03*
X008056Y004404D03*
X009715Y004396D03*
X011255Y004978D03*
X011241Y005048D03*
X011605Y005783D03*
D39*
X011664Y005971D03*
X011664Y005979D03*
X012042Y005061D03*
X008318Y005083D03*
X008129Y004509D03*
X008129Y004396D03*
X007807Y004396D03*
X007807Y004466D03*
X007807Y004509D03*
X005497Y004509D03*
X005497Y004466D03*
X005497Y004396D03*
X004867Y005013D03*
D40*
X004860Y005026D03*
X005175Y004396D03*
X007485Y004396D03*
X008024Y004894D03*
X008311Y005069D03*
X011671Y006006D03*
X011671Y006014D03*
D41*
X011668Y005993D03*
X006278Y004509D03*
X006278Y004396D03*
D42*
X004720Y004396D03*
D43*
X004930Y004746D03*
X004930Y004754D03*
X004930Y004768D03*
X004930Y004781D03*
X004930Y004789D03*
X004930Y004803D03*
X004930Y004816D03*
X004930Y004824D03*
X004930Y004838D03*
X004930Y004851D03*
X004930Y004859D03*
X004930Y004873D03*
X004930Y004886D03*
X004930Y004894D03*
X004930Y004908D03*
X004930Y004921D03*
X004930Y004929D03*
X004930Y004943D03*
X004930Y005034D03*
X004930Y005048D03*
X004930Y005061D03*
X004930Y005069D03*
X004930Y005083D03*
X004930Y005096D03*
X004930Y005104D03*
X004930Y005118D03*
X004930Y005131D03*
X004930Y005139D03*
X004930Y005153D03*
X004930Y005166D03*
X004930Y005174D03*
X004930Y005188D03*
X004930Y005201D03*
X004930Y005209D03*
X004559Y005411D03*
X005336Y005104D03*
X005525Y004978D03*
X005539Y004943D03*
X005595Y004838D03*
X005644Y004746D03*
X007226Y004838D03*
X007954Y004768D03*
X008675Y004768D03*
X008675Y004781D03*
X008675Y004789D03*
X008675Y004803D03*
X008675Y004816D03*
X008675Y004824D03*
X008675Y004838D03*
X008675Y004851D03*
X008675Y004859D03*
X008675Y004873D03*
X008675Y004886D03*
X008675Y004894D03*
X008675Y004908D03*
X008675Y004921D03*
X008675Y004929D03*
X008675Y004943D03*
X008675Y004956D03*
X008675Y004964D03*
X008675Y004978D03*
X008675Y004991D03*
X008675Y004999D03*
X008675Y005013D03*
X008675Y005026D03*
X008675Y005034D03*
X008675Y005048D03*
X008675Y005061D03*
X008675Y005069D03*
X008675Y005083D03*
X008675Y005096D03*
X008675Y005104D03*
X008675Y005118D03*
X008675Y005131D03*
X008675Y005139D03*
X008675Y005153D03*
X008675Y005166D03*
X008675Y005174D03*
X008675Y005188D03*
X008675Y005201D03*
X008675Y005209D03*
X008969Y005209D03*
X008969Y005201D03*
X008969Y005188D03*
X008969Y005174D03*
X008969Y005166D03*
X008969Y005153D03*
X008969Y005139D03*
X008969Y005131D03*
X008969Y005118D03*
X008969Y005104D03*
X008969Y005096D03*
X008969Y005083D03*
X008969Y005069D03*
X008969Y005061D03*
X008969Y005048D03*
X008969Y005034D03*
X008969Y005026D03*
X008969Y005013D03*
X008969Y004999D03*
X008969Y004991D03*
X008969Y004978D03*
X008969Y004964D03*
X008969Y004956D03*
X008969Y004943D03*
X008969Y004929D03*
X008969Y004921D03*
X008969Y004908D03*
X008969Y004894D03*
X008969Y004886D03*
X008969Y004873D03*
X008969Y004859D03*
X008969Y004851D03*
X008969Y004838D03*
X008675Y004754D03*
X008675Y004746D03*
X009004Y004404D03*
X010271Y004501D03*
X010754Y004404D03*
X010796Y004628D03*
X010915Y005118D03*
X011265Y004943D03*
X011615Y005796D03*
X012091Y005909D03*
D44*
X011311Y006084D03*
X011199Y005761D03*
X011262Y004964D03*
X011262Y004956D03*
X011535Y004991D03*
X008385Y004991D03*
X008385Y004999D03*
X008385Y005013D03*
X008385Y005026D03*
X008385Y005034D03*
X008385Y005048D03*
X008385Y005061D03*
X008385Y004978D03*
X008385Y004964D03*
X008385Y004956D03*
X008385Y004943D03*
X008385Y004929D03*
X008385Y004921D03*
X008385Y004908D03*
X008385Y004894D03*
X008385Y004886D03*
X008385Y004873D03*
X008385Y004859D03*
X008385Y004851D03*
X008385Y004838D03*
X008385Y004824D03*
X008385Y004816D03*
X008385Y004803D03*
X008385Y004789D03*
X008385Y004781D03*
X008385Y004768D03*
X008385Y004754D03*
X008385Y004746D03*
X007951Y004908D03*
X007951Y004921D03*
X007951Y004929D03*
X007951Y004943D03*
X007951Y004956D03*
X007951Y004964D03*
X007951Y004978D03*
X007951Y004991D03*
X007951Y004999D03*
X007951Y005013D03*
X007951Y005026D03*
X007951Y005034D03*
X007951Y005048D03*
X007951Y005061D03*
X007951Y005069D03*
X007951Y005083D03*
X007951Y005096D03*
X007951Y005104D03*
X007951Y005118D03*
X007951Y005131D03*
X007951Y005139D03*
X007951Y005153D03*
X007951Y005166D03*
X007951Y005174D03*
X007951Y005188D03*
X007951Y005201D03*
X007951Y005209D03*
X007412Y004404D03*
X005515Y004999D03*
X005501Y005026D03*
X005494Y005034D03*
X005487Y005048D03*
X005480Y005061D03*
X005480Y005069D03*
X005466Y005096D03*
X005459Y005104D03*
X005452Y005118D03*
X005102Y004404D03*
D45*
X004510Y004410D03*
X004461Y004410D03*
X004440Y005355D03*
X009690Y004410D03*
X009739Y004410D03*
X011510Y005040D03*
D46*
X012056Y005048D03*
X011321Y006028D03*
X009746Y004418D03*
X009676Y004431D03*
X004524Y004431D03*
X004454Y004418D03*
X004475Y005384D03*
D47*
X004447Y004431D03*
X004517Y004418D03*
X009683Y004418D03*
X009753Y004431D03*
X011503Y005048D03*
X011342Y006426D03*
D48*
X011304Y006133D03*
X011633Y005831D03*
X011283Y004894D03*
X011283Y004886D03*
X011576Y004439D03*
X009694Y004921D03*
X009686Y004929D03*
X009686Y005153D03*
D49*
X011598Y004445D03*
D50*
X011479Y004445D03*
X011486Y005089D03*
X012060Y005040D03*
X012074Y005929D03*
X011332Y005999D03*
X004486Y005320D03*
X004395Y005320D03*
D51*
X004860Y004970D03*
X005175Y004445D03*
X007485Y004445D03*
X011671Y005999D03*
D52*
X011580Y004453D03*
D53*
X012116Y005853D03*
X011311Y006181D03*
X007811Y004453D03*
X005501Y004453D03*
D54*
X010506Y005075D03*
X011577Y004459D03*
D55*
X011573Y004466D03*
X012238Y005489D03*
X011356Y006391D03*
X011188Y005699D03*
X010558Y005866D03*
X010558Y005874D03*
X010558Y005244D03*
X010551Y005236D03*
X010054Y004746D03*
D56*
X010590Y005293D03*
X010596Y005306D03*
X010604Y005314D03*
X010610Y005328D03*
X010653Y005376D03*
X010526Y005691D03*
X011185Y005691D03*
X011668Y004859D03*
X011576Y004474D03*
X010806Y004663D03*
D57*
X011577Y004480D03*
X011185Y005684D03*
X012130Y005740D03*
X007447Y005215D03*
D58*
X010026Y004754D03*
X011188Y005678D03*
X012035Y005118D03*
X012126Y005726D03*
X011580Y004488D03*
D59*
X011587Y004494D03*
X011692Y004844D03*
X010712Y006090D03*
D60*
X010719Y006076D03*
X010593Y005783D03*
X010936Y005468D03*
X011188Y005643D03*
X012028Y005139D03*
X011587Y004501D03*
X010747Y004711D03*
X009998Y004768D03*
D61*
X010565Y004501D03*
X008815Y004501D03*
D62*
X009368Y004838D03*
X009368Y004851D03*
X009368Y004859D03*
X009368Y004873D03*
X009368Y004886D03*
X009368Y004894D03*
X009368Y004908D03*
X009368Y004921D03*
X009368Y004929D03*
X009368Y004943D03*
X009368Y004956D03*
X009368Y004964D03*
X009368Y004978D03*
X009368Y004991D03*
X009368Y004999D03*
X009368Y005013D03*
X009368Y005026D03*
X009368Y005034D03*
X009368Y005048D03*
X009368Y005061D03*
X009368Y005069D03*
X009368Y005083D03*
X009368Y005096D03*
X009368Y005104D03*
X009368Y005118D03*
X009368Y005131D03*
X009368Y005139D03*
X009368Y005153D03*
X009368Y005166D03*
X009368Y005174D03*
X009368Y005188D03*
X009368Y005201D03*
X009368Y005209D03*
X011307Y006098D03*
X006897Y004501D03*
X006197Y004838D03*
X006197Y004851D03*
X006197Y004859D03*
X006197Y004873D03*
X006197Y004886D03*
X006197Y004894D03*
X006197Y004908D03*
X006197Y004921D03*
X006197Y004929D03*
X006197Y004943D03*
X006197Y005048D03*
X006197Y005061D03*
X006197Y005069D03*
X006197Y005083D03*
X006197Y005096D03*
X006197Y005104D03*
X006197Y005118D03*
X006197Y005131D03*
X005623Y004789D03*
X005602Y004824D03*
X005532Y004956D03*
X005532Y004964D03*
X005518Y004991D03*
X005343Y005118D03*
D63*
X005392Y004851D03*
X009165Y004803D03*
X009991Y005293D03*
X010600Y005769D03*
X010733Y004733D03*
X011587Y004509D03*
D64*
X011304Y004838D03*
X011094Y004523D03*
X011094Y004509D03*
X009735Y004873D03*
X009735Y005209D03*
X010709Y006181D03*
X011304Y006154D03*
X012109Y005874D03*
X007993Y004838D03*
X006558Y004523D03*
X006558Y004509D03*
X004745Y004509D03*
X004745Y004523D03*
D65*
X004874Y004991D03*
X004874Y004999D03*
X005791Y004509D03*
X008325Y005096D03*
X008752Y004509D03*
X010502Y004509D03*
X010852Y005048D03*
X011664Y005936D03*
X011664Y005944D03*
D66*
X010607Y005754D03*
X009984Y005285D03*
X011587Y004515D03*
D67*
X011576Y004935D03*
X011094Y004515D03*
X011191Y005754D03*
X008343Y005124D03*
X006558Y004515D03*
X005395Y005145D03*
X004745Y004515D03*
D68*
X005175Y004515D03*
X007485Y004515D03*
X011195Y005740D03*
D69*
X011191Y005608D03*
X010715Y006049D03*
X011345Y006356D03*
X009974Y005271D03*
X011590Y004523D03*
X007446Y004781D03*
X007446Y004789D03*
X007446Y005174D03*
D70*
X008700Y004523D03*
X010450Y004523D03*
X011521Y005013D03*
D71*
X011251Y004999D03*
X011251Y004991D03*
X010145Y004523D03*
X011314Y006063D03*
X006771Y004523D03*
D72*
X006687Y005005D03*
X006687Y005285D03*
X010691Y004809D03*
X011202Y005159D03*
X011594Y004529D03*
X011363Y006335D03*
X011349Y006349D03*
D73*
X011384Y006308D03*
X011398Y006294D03*
X011405Y006286D03*
X011433Y006251D03*
X011440Y006238D03*
X011447Y006224D03*
X011454Y006216D03*
X011468Y006203D03*
X011475Y006189D03*
X011195Y005586D03*
X010628Y005713D03*
X009956Y005244D03*
X010684Y004838D03*
X011594Y004536D03*
X012021Y005188D03*
X012112Y005621D03*
X012112Y005629D03*
X006680Y005258D03*
X006680Y005244D03*
X006680Y005236D03*
X006680Y005061D03*
X006680Y005048D03*
X006680Y005034D03*
D74*
X009949Y005223D03*
X010663Y004908D03*
X011174Y005131D03*
X011181Y005139D03*
X011594Y004544D03*
D75*
X011594Y004550D03*
X010656Y004970D03*
D76*
X010653Y004991D03*
X010653Y004999D03*
X010653Y005013D03*
X010653Y005026D03*
X010653Y005034D03*
X011199Y005551D03*
X010723Y006006D03*
X012101Y005594D03*
X011598Y004558D03*
D77*
X011598Y004564D03*
D78*
X011598Y004571D03*
X010723Y005979D03*
D79*
X010810Y005398D03*
X011223Y005258D03*
X011601Y004579D03*
X012021Y005223D03*
X012084Y005349D03*
D80*
X011601Y004585D03*
D81*
X011605Y004593D03*
X011220Y005271D03*
X011220Y005279D03*
X011220Y005293D03*
X011206Y005489D03*
D82*
X012018Y005250D03*
X011605Y004599D03*
D83*
X011605Y004606D03*
X012018Y005258D03*
X011220Y005306D03*
D84*
X011601Y004614D03*
X012049Y005328D03*
D85*
X011605Y004620D03*
D86*
X012011Y004830D03*
X010765Y004620D03*
D87*
X011605Y004628D03*
D88*
X011608Y004634D03*
X012014Y005285D03*
D89*
X011608Y004641D03*
D90*
X010814Y004641D03*
X010520Y005153D03*
X012242Y005551D03*
X012242Y005559D03*
D91*
X011605Y004649D03*
D92*
X010814Y004649D03*
X010548Y005223D03*
X012241Y005503D03*
D93*
X011608Y004655D03*
D94*
X010810Y004655D03*
X012231Y005474D03*
X010705Y006125D03*
D95*
X011608Y004663D03*
D96*
X011611Y004669D03*
D97*
X010789Y004669D03*
X012217Y005460D03*
D98*
X011611Y004676D03*
D99*
X010779Y004676D03*
X010023Y005314D03*
X010583Y005818D03*
D100*
X011612Y004684D03*
D101*
X010772Y004684D03*
X012200Y005446D03*
D102*
X011612Y004690D03*
D103*
X011220Y005124D03*
X010765Y004690D03*
X010009Y004760D03*
X012130Y005705D03*
X006019Y005215D03*
X006019Y005194D03*
X006019Y005180D03*
X006019Y005159D03*
X006019Y005145D03*
X006019Y004830D03*
X006019Y004809D03*
X006019Y004795D03*
X006019Y004774D03*
X006019Y004760D03*
D104*
X011615Y004698D03*
D105*
X010761Y004698D03*
X010586Y005796D03*
X010719Y006084D03*
X012126Y005699D03*
X012175Y005419D03*
D106*
X011611Y004704D03*
D107*
X010754Y004704D03*
D108*
X011615Y004711D03*
D109*
X011619Y004719D03*
D110*
X010744Y004719D03*
X012123Y005678D03*
X009169Y004789D03*
X007446Y005201D03*
D111*
X011622Y004725D03*
D112*
X012158Y005404D03*
X012123Y005670D03*
X010736Y004725D03*
X009169Y004809D03*
X009169Y004830D03*
X007446Y005194D03*
D113*
X011622Y004733D03*
D114*
X011626Y004739D03*
D115*
X010730Y004739D03*
X005396Y004844D03*
D116*
X011626Y004746D03*
D117*
X012028Y005153D03*
X011188Y005629D03*
X010719Y006063D03*
X010719Y004754D03*
X010719Y004746D03*
X009984Y004781D03*
X006708Y004978D03*
X006708Y005314D03*
D118*
X009169Y004746D03*
X010534Y005188D03*
X012249Y005524D03*
D119*
X012130Y005748D03*
X010709Y006119D03*
X010569Y005839D03*
X010534Y005699D03*
X007447Y004746D03*
D120*
X006901Y004746D03*
X006901Y004754D03*
X006901Y004768D03*
X006901Y004781D03*
X006901Y004789D03*
X006901Y004803D03*
X006901Y004816D03*
X006901Y004824D03*
X006901Y004838D03*
X006901Y004851D03*
X006901Y004859D03*
X006901Y004873D03*
X006901Y004886D03*
X006901Y004894D03*
X006901Y004908D03*
X006901Y004921D03*
X006901Y004929D03*
X006901Y004943D03*
X006901Y004956D03*
X006901Y004964D03*
X006901Y005069D03*
X006901Y005083D03*
X006901Y005096D03*
X006901Y005104D03*
X006901Y005118D03*
X006901Y005131D03*
X006901Y005139D03*
X006901Y005153D03*
X006901Y005166D03*
X006901Y005174D03*
X006901Y005188D03*
X006901Y005201D03*
X006901Y005209D03*
X006901Y005223D03*
X008371Y005174D03*
X010177Y005174D03*
X010177Y005166D03*
X010177Y005153D03*
X010177Y005139D03*
X010177Y005131D03*
X010177Y005118D03*
X010177Y005104D03*
X010177Y005096D03*
X010177Y005083D03*
X010177Y005069D03*
X010177Y005061D03*
X010177Y005048D03*
X010177Y005034D03*
X010177Y005026D03*
X010177Y005013D03*
X010177Y004999D03*
X010177Y004991D03*
X010177Y004978D03*
X010177Y004964D03*
X010177Y004956D03*
X010177Y004943D03*
X010177Y004929D03*
X010177Y004921D03*
X010177Y004908D03*
X010177Y004894D03*
X010177Y004886D03*
X010177Y004873D03*
X010177Y004859D03*
X010177Y005188D03*
X010177Y005201D03*
X010177Y005209D03*
X011276Y004908D03*
X011626Y005818D03*
X011304Y006111D03*
X012095Y005901D03*
X005396Y005201D03*
X005200Y004838D03*
X005179Y004803D03*
X005172Y004789D03*
D121*
X005395Y004886D03*
X006019Y004824D03*
X006019Y004816D03*
X006019Y004803D03*
X006019Y004789D03*
X006019Y004781D03*
X006019Y004768D03*
X006019Y004754D03*
X006019Y004746D03*
X006019Y005139D03*
X006019Y005153D03*
X006019Y005166D03*
X006019Y005174D03*
X006019Y005188D03*
X006019Y005201D03*
X006019Y005209D03*
X007446Y005209D03*
X007446Y004754D03*
X009169Y004768D03*
X010009Y005306D03*
D122*
X011027Y005909D03*
X011272Y004921D03*
X005252Y004943D03*
X005168Y004781D03*
X005147Y004746D03*
D123*
X004710Y004886D03*
X004675Y004859D03*
X004647Y004838D03*
X004605Y004803D03*
X004584Y004789D03*
X004577Y004781D03*
X004542Y004754D03*
X004535Y004746D03*
X007986Y004824D03*
X008350Y005139D03*
X009729Y005201D03*
X011297Y004859D03*
X011297Y004851D03*
X011570Y004943D03*
X011647Y005866D03*
X011304Y006146D03*
D124*
X011622Y004754D03*
D125*
X012214Y005454D03*
X010709Y006111D03*
X010569Y005831D03*
X009169Y004754D03*
D126*
X007961Y004781D03*
X005259Y004956D03*
X005189Y004824D03*
X005189Y004816D03*
X005161Y004768D03*
X005154Y004754D03*
X010901Y005104D03*
D127*
X011625Y004760D03*
D128*
X010716Y004760D03*
X007447Y004774D03*
D129*
X009169Y004760D03*
X012032Y005124D03*
X005396Y004900D03*
D130*
X005525Y004970D03*
X005539Y004949D03*
X005546Y004935D03*
X005511Y005005D03*
X005504Y005019D03*
X005329Y005089D03*
X005609Y004809D03*
X005630Y004774D03*
X004930Y004774D03*
X004930Y004760D03*
X004930Y004795D03*
X004930Y004809D03*
X004930Y004830D03*
X004930Y004844D03*
X004930Y004865D03*
X004930Y004879D03*
X004930Y004900D03*
X004930Y004914D03*
X004930Y004935D03*
X004930Y004949D03*
X004930Y005040D03*
X004930Y005054D03*
X004930Y005075D03*
X004930Y005089D03*
X004930Y005110D03*
X004930Y005124D03*
X004930Y005145D03*
X004930Y005159D03*
X004930Y005180D03*
X004930Y005194D03*
X004930Y005215D03*
X004559Y005404D03*
X007226Y005124D03*
X008381Y005194D03*
X008675Y005194D03*
X008675Y005180D03*
X008675Y005159D03*
X008675Y005145D03*
X008675Y005124D03*
X008675Y005110D03*
X008675Y005089D03*
X008675Y005075D03*
X008675Y005054D03*
X008675Y005040D03*
X008675Y005019D03*
X008675Y005005D03*
X008675Y004984D03*
X008675Y004970D03*
X008675Y004949D03*
X008675Y004935D03*
X008675Y004914D03*
X008675Y004900D03*
X008675Y004879D03*
X008675Y004865D03*
X008675Y004844D03*
X008675Y004830D03*
X008675Y004809D03*
X008675Y004795D03*
X008675Y004774D03*
X008675Y004760D03*
X008969Y004844D03*
X008969Y004865D03*
X008969Y004879D03*
X008969Y004900D03*
X008969Y004914D03*
X008969Y004935D03*
X008969Y004949D03*
X008969Y004970D03*
X008969Y004984D03*
X008969Y005005D03*
X008969Y005019D03*
X008969Y005040D03*
X008969Y005054D03*
X008969Y005075D03*
X008969Y005089D03*
X008969Y005110D03*
X008969Y005124D03*
X008969Y005145D03*
X008969Y005159D03*
X008969Y005180D03*
X008969Y005194D03*
X008969Y005215D03*
X008675Y005215D03*
X011265Y004949D03*
D131*
X010926Y005124D03*
X011612Y005789D03*
X008385Y005054D03*
X008385Y005040D03*
X008385Y005019D03*
X008385Y005005D03*
X008385Y004984D03*
X008385Y004970D03*
X008385Y004949D03*
X008385Y004935D03*
X008385Y004914D03*
X008385Y004900D03*
X008385Y004879D03*
X008385Y004865D03*
X008385Y004844D03*
X008385Y004830D03*
X008385Y004809D03*
X008385Y004795D03*
X008385Y004774D03*
X008385Y004760D03*
X007951Y004760D03*
X007951Y004914D03*
X007951Y004935D03*
X007951Y004949D03*
X007951Y004970D03*
X007951Y004984D03*
X007951Y005005D03*
X007951Y005019D03*
X007951Y005040D03*
X007951Y005054D03*
X007951Y005075D03*
X007951Y005089D03*
X007951Y005110D03*
X007951Y005124D03*
X007951Y005145D03*
X007951Y005159D03*
X007951Y005180D03*
X007951Y005194D03*
X007951Y005215D03*
X005522Y004984D03*
X005494Y005040D03*
X005487Y005054D03*
X005466Y005089D03*
X005459Y005110D03*
X005452Y005124D03*
D132*
X007446Y004760D03*
X009169Y004795D03*
X010596Y005775D03*
D133*
X011017Y005915D03*
X010177Y005215D03*
X010177Y005194D03*
X010177Y005180D03*
X010177Y005159D03*
X010177Y005145D03*
X010177Y005124D03*
X010177Y005110D03*
X010177Y005089D03*
X010177Y005075D03*
X010177Y005054D03*
X010177Y005040D03*
X010177Y005019D03*
X010177Y005005D03*
X010177Y004984D03*
X010177Y004970D03*
X010177Y004949D03*
X010177Y004935D03*
X010177Y004914D03*
X010177Y004900D03*
X010177Y004879D03*
X010177Y004865D03*
X006901Y004865D03*
X006901Y004879D03*
X006901Y004900D03*
X006901Y004914D03*
X006901Y004935D03*
X006901Y004949D03*
X006901Y004844D03*
X006901Y004830D03*
X006901Y004809D03*
X006901Y004795D03*
X006901Y004774D03*
X006901Y004760D03*
X006901Y005075D03*
X006901Y005089D03*
X006901Y005110D03*
X006901Y005124D03*
X006901Y005145D03*
X006901Y005159D03*
X006901Y005180D03*
X006901Y005194D03*
X006901Y005215D03*
X005396Y005194D03*
X005165Y004774D03*
D134*
X005322Y005075D03*
X005343Y005124D03*
X005637Y004760D03*
X006197Y004844D03*
X006197Y004865D03*
X006197Y004879D03*
X006197Y004900D03*
X006197Y004914D03*
X006197Y004935D03*
X006197Y004949D03*
X006197Y005040D03*
X006197Y005054D03*
X006197Y005075D03*
X006197Y005089D03*
X006197Y005110D03*
X006197Y005124D03*
X009368Y005124D03*
X009368Y005110D03*
X009368Y005089D03*
X009368Y005075D03*
X009368Y005054D03*
X009368Y005040D03*
X009368Y005019D03*
X009368Y005005D03*
X009368Y004984D03*
X009368Y004970D03*
X009368Y004949D03*
X009368Y004935D03*
X009368Y004914D03*
X009368Y004900D03*
X009368Y004879D03*
X009368Y004865D03*
X009368Y004844D03*
X009368Y005145D03*
X009368Y005159D03*
X009368Y005180D03*
X009368Y005194D03*
X009368Y005215D03*
X011307Y006090D03*
X011538Y004984D03*
D135*
X011545Y004970D03*
X008374Y005180D03*
X005266Y004970D03*
X005196Y004830D03*
X005175Y004795D03*
X005154Y004760D03*
D136*
X005396Y005159D03*
X004745Y004914D03*
X004682Y004865D03*
X004640Y004830D03*
X004612Y004809D03*
X004570Y004774D03*
X004549Y004760D03*
X010884Y005075D03*
D137*
X011622Y004768D03*
D138*
X012147Y005398D03*
X010712Y004768D03*
X009977Y004789D03*
X009977Y005279D03*
D139*
X007450Y004768D03*
D140*
X007982Y004816D03*
X008087Y004908D03*
X008101Y004921D03*
X008108Y004929D03*
X008122Y004943D03*
X008143Y004956D03*
X008164Y004978D03*
X008178Y004991D03*
X008206Y005013D03*
X008227Y005034D03*
X008241Y005048D03*
X009711Y004894D03*
X009718Y004886D03*
X010411Y005656D03*
X010887Y005083D03*
X004783Y004943D03*
X004762Y004929D03*
X004734Y004908D03*
X004692Y004873D03*
X004664Y004851D03*
X004629Y004824D03*
X004622Y004816D03*
X004559Y004768D03*
D141*
X011622Y004774D03*
D142*
X011191Y005614D03*
X010709Y004774D03*
X009974Y004795D03*
X012123Y005649D03*
X007446Y005180D03*
D143*
X009991Y004774D03*
X010579Y005705D03*
X010719Y006069D03*
X011188Y005635D03*
X012028Y005145D03*
D144*
X011192Y005649D03*
X010590Y005789D03*
X009169Y004774D03*
D145*
X007958Y004774D03*
X007670Y004844D03*
X007670Y004865D03*
X007670Y004879D03*
X007670Y004900D03*
X007670Y004914D03*
X007670Y004935D03*
X007670Y004949D03*
X007670Y004970D03*
X007670Y004984D03*
X007670Y005005D03*
X007670Y005019D03*
X007670Y005040D03*
X007670Y005054D03*
X007670Y005075D03*
X007670Y005089D03*
X007670Y005110D03*
X007670Y005124D03*
X007223Y005110D03*
X007223Y005089D03*
X007223Y005075D03*
X007223Y005054D03*
X007223Y005040D03*
X007223Y005019D03*
X007223Y005005D03*
X007223Y004984D03*
X007223Y004970D03*
X007223Y004949D03*
X007223Y004935D03*
X007223Y004914D03*
X007223Y004900D03*
X007223Y004879D03*
X007223Y004865D03*
X007223Y004844D03*
X005620Y004795D03*
X005599Y004830D03*
X005305Y005040D03*
X005311Y005054D03*
X005290Y005019D03*
X005284Y005005D03*
X005255Y004949D03*
X005249Y004935D03*
X005340Y005110D03*
X005395Y005215D03*
X010911Y005110D03*
X011240Y005054D03*
X011269Y004935D03*
X011835Y005579D03*
D146*
X011626Y004789D03*
X011626Y004781D03*
D147*
X010705Y004781D03*
X010705Y004789D03*
X009970Y004803D03*
X010621Y005734D03*
X010719Y006041D03*
X007450Y005166D03*
X006694Y004991D03*
D148*
X009165Y004781D03*
D149*
X011629Y004795D03*
X011629Y004809D03*
D150*
X010698Y004795D03*
D151*
X010898Y005089D03*
X011304Y006125D03*
X009694Y005159D03*
X009686Y005145D03*
X009686Y004935D03*
X008364Y005159D03*
X007971Y004795D03*
D152*
X007447Y004795D03*
X007447Y004809D03*
X007447Y005145D03*
X007447Y005159D03*
X009967Y004809D03*
X011192Y005600D03*
X011724Y004830D03*
D153*
X011566Y004949D03*
X011293Y004865D03*
X011643Y005859D03*
X010992Y005929D03*
X009718Y005194D03*
X008353Y005145D03*
X008234Y005040D03*
X008213Y005019D03*
X008171Y004984D03*
X008157Y004970D03*
X008129Y004949D03*
X008094Y004914D03*
X004769Y004935D03*
X004727Y004900D03*
X004699Y004879D03*
X004657Y004844D03*
X004594Y004795D03*
D154*
X011629Y004803D03*
D155*
X012130Y005384D03*
X012116Y005643D03*
X010884Y005454D03*
X010695Y004803D03*
X007447Y004803D03*
X007447Y004816D03*
X007447Y004824D03*
X007447Y005139D03*
X007447Y005153D03*
X006691Y005293D03*
X006691Y004999D03*
D156*
X006470Y005069D03*
X006470Y005223D03*
X007975Y004803D03*
X008360Y005153D03*
X009697Y005166D03*
X009704Y005174D03*
X009697Y004908D03*
X010698Y006189D03*
X011636Y005839D03*
X012098Y005888D03*
X011559Y004956D03*
X004797Y005034D03*
X004762Y005061D03*
X004755Y005069D03*
X004734Y005083D03*
X004713Y005096D03*
X004706Y005104D03*
X004685Y005118D03*
X004622Y005166D03*
D157*
X004633Y005159D03*
X004584Y005194D03*
X007979Y004809D03*
X008251Y005054D03*
X009708Y005180D03*
X009708Y004900D03*
X010408Y005649D03*
X011304Y006139D03*
D158*
X011307Y006104D03*
X011363Y006419D03*
X011622Y005810D03*
X011272Y004914D03*
X005273Y004984D03*
X005182Y004809D03*
D159*
X011633Y004816D03*
D160*
X011199Y005153D03*
X010688Y004824D03*
X010688Y004816D03*
X011374Y006321D03*
X011366Y006329D03*
X011353Y006343D03*
X006684Y005279D03*
X006684Y005271D03*
X006684Y005026D03*
X006684Y005013D03*
D161*
X009963Y004816D03*
X009963Y005258D03*
X010628Y005726D03*
X011209Y005174D03*
X011209Y005166D03*
D162*
X010604Y005761D03*
X009169Y004824D03*
X009169Y004816D03*
D163*
X011748Y004824D03*
D164*
X011314Y004824D03*
X012112Y005866D03*
X011657Y005909D03*
X011307Y006168D03*
X010964Y005944D03*
X008332Y005104D03*
X008003Y004851D03*
D165*
X009960Y004824D03*
X012025Y005174D03*
D166*
X012039Y004830D03*
D167*
X011311Y004830D03*
X011654Y005894D03*
X008336Y005110D03*
X008000Y004844D03*
D168*
X006680Y005040D03*
X006680Y005054D03*
X006680Y005229D03*
X006680Y005250D03*
X009956Y004830D03*
X010684Y004830D03*
X011188Y005145D03*
X011195Y005579D03*
X011468Y006195D03*
X011461Y006209D03*
X011391Y006300D03*
X011377Y006314D03*
X012021Y005180D03*
D169*
X012105Y005880D03*
X011300Y004844D03*
X009725Y004879D03*
X007989Y004830D03*
D170*
X007450Y004830D03*
D171*
X006701Y005306D03*
X011720Y004838D03*
D172*
X011213Y005188D03*
X011191Y005573D03*
X010863Y005446D03*
X010666Y004894D03*
X010666Y004886D03*
X010674Y004873D03*
X009953Y004838D03*
X009953Y005236D03*
X010723Y006028D03*
D173*
X010856Y005439D03*
X010681Y004865D03*
X010681Y004844D03*
D174*
X010663Y004914D03*
X009949Y004844D03*
X009949Y005229D03*
X010719Y006020D03*
X012021Y005194D03*
D175*
X011671Y004851D03*
X005392Y004929D03*
D176*
X010681Y004859D03*
X010681Y004851D03*
X012116Y005376D03*
X011430Y006259D03*
X011416Y006273D03*
D177*
X011199Y005559D03*
X010660Y004964D03*
X010660Y004956D03*
X010660Y004929D03*
X010660Y004921D03*
X009946Y004851D03*
D178*
X008006Y004859D03*
D179*
X005396Y004859D03*
X012165Y005411D03*
D180*
X012241Y005495D03*
X011654Y004865D03*
X010548Y005215D03*
D181*
X009750Y004865D03*
X011661Y005915D03*
X011661Y005929D03*
X012116Y005859D03*
D182*
X012126Y005684D03*
X009998Y005299D03*
X006722Y005320D03*
X006722Y004970D03*
X005392Y004865D03*
D183*
X011650Y004873D03*
X012245Y005538D03*
D184*
X011640Y005853D03*
X011290Y004873D03*
X009715Y005188D03*
X005396Y005174D03*
X005396Y005166D03*
X004661Y005139D03*
X004640Y005153D03*
X004570Y005209D03*
D185*
X008014Y004873D03*
X010443Y005664D03*
X010946Y005958D03*
X011668Y005958D03*
D186*
X012130Y005691D03*
X005396Y004873D03*
D187*
X011633Y004879D03*
D188*
X011286Y004879D03*
X012042Y005054D03*
X009697Y004914D03*
X004790Y005040D03*
X004769Y005054D03*
X004741Y005075D03*
X004727Y005089D03*
X004678Y005124D03*
X004650Y005145D03*
D189*
X010670Y004879D03*
X011195Y005565D03*
D190*
X012182Y005425D03*
X005392Y004879D03*
D191*
X011185Y005726D03*
X011395Y005468D03*
X011416Y005328D03*
X011626Y004886D03*
D192*
X011622Y004894D03*
X011426Y005363D03*
X011426Y005376D03*
X011426Y005384D03*
X011426Y005398D03*
X011412Y005446D03*
X011636Y006154D03*
D193*
X011188Y005664D03*
X005392Y004894D03*
D194*
X004755Y004921D03*
X004720Y004894D03*
X008150Y004964D03*
X008185Y004999D03*
X008220Y005026D03*
D195*
X011608Y004900D03*
D196*
X011213Y005194D03*
X010666Y004900D03*
X011444Y006230D03*
X011436Y006244D03*
X011423Y006265D03*
X011409Y006279D03*
X012109Y005614D03*
D197*
X011664Y006055D03*
X011664Y006069D03*
X011650Y006104D03*
X011006Y005369D03*
X011006Y005355D03*
X010460Y005670D03*
X008031Y004900D03*
D198*
X005396Y004908D03*
X011220Y005118D03*
D199*
X005396Y004914D03*
D200*
X011220Y005061D03*
X011591Y004921D03*
X011661Y005923D03*
D201*
X012130Y005734D03*
X005396Y004921D03*
D202*
X008339Y005118D03*
X011580Y004929D03*
D203*
X012109Y005369D03*
X012102Y005600D03*
X010660Y004949D03*
X010660Y004935D03*
D204*
X008115Y004935D03*
X004790Y004949D03*
D205*
X010656Y004943D03*
X010656Y004978D03*
X010845Y005433D03*
X011216Y005209D03*
X012021Y005201D03*
X012105Y005363D03*
D206*
X012095Y005894D03*
X009680Y004949D03*
X006460Y005075D03*
X006460Y005215D03*
X005396Y005180D03*
D207*
X006092Y005034D03*
X006092Y005026D03*
X006092Y005013D03*
X006092Y004999D03*
X006092Y004991D03*
X006092Y004978D03*
X006092Y004964D03*
X006092Y004956D03*
X011363Y006399D03*
D208*
X011640Y006146D03*
X011647Y006133D03*
X011654Y006098D03*
X011185Y005734D03*
X011416Y005433D03*
X004850Y004956D03*
D209*
X004853Y004964D03*
X011013Y005341D03*
X011013Y005349D03*
D210*
X011258Y004970D03*
X011048Y005894D03*
X010397Y005635D03*
D211*
X010558Y005950D03*
X011188Y005719D03*
X006092Y005019D03*
X006092Y005005D03*
X006092Y004984D03*
X006092Y004970D03*
D212*
X009673Y004978D03*
X009673Y005096D03*
D213*
X011255Y004984D03*
D214*
X011220Y005215D03*
X011199Y005544D03*
X010835Y005425D03*
X010653Y005040D03*
X010653Y005019D03*
X010653Y005005D03*
X010653Y004984D03*
D215*
X009673Y004984D03*
D216*
X010614Y005740D03*
X010901Y005460D03*
X010719Y006055D03*
X006701Y004984D03*
D217*
X011318Y006069D03*
X012088Y005915D03*
X011528Y005005D03*
D218*
X011248Y005005D03*
X011248Y005019D03*
X011248Y005040D03*
X011598Y005775D03*
X011318Y006055D03*
D219*
X011640Y005845D03*
X008196Y005005D03*
X004696Y005110D03*
X004605Y005180D03*
X004556Y005215D03*
D220*
X005473Y005083D03*
X005508Y005013D03*
D221*
X006684Y005019D03*
X006684Y005264D03*
X010631Y005719D03*
X010723Y006034D03*
X011213Y005180D03*
D222*
X010516Y005139D03*
X010516Y005048D03*
X010551Y005923D03*
D223*
X005396Y005188D03*
X004780Y005048D03*
D224*
X004479Y005390D03*
X004401Y005390D03*
X011100Y005859D03*
X011325Y006020D03*
X011500Y005054D03*
D225*
X010509Y005054D03*
X010509Y005089D03*
X010509Y005110D03*
X010551Y005929D03*
X010565Y005964D03*
D226*
X011104Y005853D03*
X011790Y005573D03*
X011496Y005061D03*
X004440Y005341D03*
X004440Y005349D03*
D227*
X010509Y005118D03*
X010509Y005083D03*
X010509Y005069D03*
X010509Y005061D03*
X010551Y005936D03*
X012126Y005804D03*
D228*
X011003Y005923D03*
X008259Y005061D03*
X004668Y005131D03*
X004611Y005174D03*
X004598Y005188D03*
X004576Y005201D03*
D229*
X010701Y006168D03*
X011003Y005376D03*
X011668Y006028D03*
X011668Y006041D03*
X011668Y006049D03*
X012123Y005839D03*
X012039Y005069D03*
D230*
X011493Y005069D03*
D231*
X010880Y005069D03*
X011650Y005874D03*
X010985Y005936D03*
X008346Y005131D03*
D232*
X011027Y005320D03*
X011223Y005075D03*
X011419Y005334D03*
X011398Y005460D03*
X012042Y005075D03*
X011622Y006174D03*
D233*
X011489Y005075D03*
X004559Y005334D03*
X004559Y005355D03*
X004559Y005369D03*
X004559Y005390D03*
X004489Y005369D03*
X004489Y005355D03*
X004489Y005334D03*
X004419Y005369D03*
X004391Y005369D03*
X004391Y005355D03*
X004391Y005334D03*
D234*
X005473Y005075D03*
D235*
X010506Y005096D03*
X010506Y005104D03*
X010555Y005944D03*
X010562Y005958D03*
X012039Y005083D03*
D236*
X011486Y005083D03*
X011332Y006006D03*
D237*
X010709Y006146D03*
X010491Y005678D03*
X010513Y005131D03*
X011220Y005083D03*
X011395Y005314D03*
X012130Y005796D03*
D238*
X012130Y005789D03*
X012032Y005089D03*
X010709Y006139D03*
X010520Y005159D03*
D239*
X011220Y005089D03*
X012130Y005775D03*
D240*
X011668Y005950D03*
X011668Y005964D03*
X010701Y006174D03*
X008321Y005089D03*
D241*
X010544Y005209D03*
X010551Y005888D03*
X010705Y006133D03*
X012035Y005096D03*
X012245Y005516D03*
X012231Y005573D03*
D242*
X011573Y005734D03*
X011482Y005096D03*
X004559Y005328D03*
X004559Y005341D03*
X004559Y005349D03*
X004559Y005363D03*
X004559Y005376D03*
X004559Y005384D03*
X004559Y005398D03*
X004489Y005376D03*
X004489Y005363D03*
X004489Y005349D03*
X004489Y005341D03*
X004489Y005328D03*
X004454Y005363D03*
X004461Y005376D03*
X004426Y005363D03*
X004419Y005376D03*
X004391Y005376D03*
X004391Y005363D03*
X004391Y005349D03*
X004391Y005341D03*
X004391Y005328D03*
D243*
X010569Y005258D03*
X010667Y005384D03*
X011220Y005096D03*
X012235Y005481D03*
X012130Y005761D03*
D244*
X012035Y005104D03*
X010579Y005279D03*
X010565Y005853D03*
D245*
X010621Y005341D03*
X011216Y005104D03*
X012224Y005468D03*
D246*
X012035Y005110D03*
D247*
X011220Y005110D03*
X010576Y005824D03*
D248*
X010513Y005124D03*
D249*
X011188Y005656D03*
X012028Y005131D03*
D250*
X011195Y005594D03*
X007450Y005131D03*
D251*
X010516Y005145D03*
X010495Y005684D03*
D252*
X005392Y005153D03*
D253*
X012028Y005159D03*
D254*
X012028Y005166D03*
D255*
X011188Y005713D03*
X010551Y005901D03*
X010523Y005174D03*
X010523Y005166D03*
D256*
X010526Y005180D03*
X010534Y005194D03*
X012249Y005530D03*
D257*
X011192Y005621D03*
X010611Y005748D03*
X011346Y006364D03*
X007447Y005188D03*
D258*
X010723Y006014D03*
X011213Y005201D03*
D259*
X010541Y005201D03*
X012130Y005783D03*
D260*
X012021Y005209D03*
D261*
X012021Y005215D03*
X012091Y005355D03*
X010726Y005985D03*
D262*
X009753Y005215D03*
D263*
X008395Y005215D03*
D264*
X011199Y005538D03*
X011220Y005223D03*
D265*
X010806Y005390D03*
X012018Y005229D03*
D266*
X011220Y005229D03*
X011199Y005530D03*
D267*
X011188Y005705D03*
X010551Y005229D03*
D268*
X012018Y005236D03*
X012018Y005244D03*
D269*
X011220Y005244D03*
X011220Y005236D03*
X011206Y005503D03*
D270*
X011223Y005250D03*
D271*
X010565Y005250D03*
D272*
X009960Y005250D03*
X012116Y005635D03*
D273*
X012021Y005264D03*
D274*
X011220Y005264D03*
X011206Y005495D03*
D275*
X010572Y005264D03*
X010047Y005320D03*
D276*
X009970Y005264D03*
X012140Y005390D03*
X006694Y005299D03*
D277*
X012018Y005271D03*
D278*
X012217Y005586D03*
X010572Y005271D03*
D279*
X012018Y005279D03*
D280*
X011220Y005285D03*
D281*
X010645Y005369D03*
X010618Y005334D03*
X010583Y005285D03*
X012130Y005754D03*
D282*
X012011Y005293D03*
D283*
X012014Y005299D03*
D284*
X012063Y005334D03*
X011223Y005299D03*
D285*
X010607Y005320D03*
X010593Y005299D03*
D286*
X012018Y005306D03*
X012018Y005314D03*
D287*
X011038Y005314D03*
D288*
X012039Y005320D03*
D289*
X011405Y005320D03*
D290*
X011580Y005740D03*
X004559Y005320D03*
D291*
X011016Y005328D03*
X011423Y005349D03*
X011409Y005454D03*
D292*
X010674Y005468D03*
X011401Y006426D03*
X004444Y005328D03*
D293*
X011017Y005334D03*
X011647Y006125D03*
X011640Y006139D03*
D294*
X011335Y005985D03*
X004440Y005334D03*
D295*
X012074Y005341D03*
D296*
X012126Y005818D03*
X011615Y006181D03*
X011419Y005341D03*
D297*
X010642Y005363D03*
X010628Y005349D03*
D298*
X011423Y005355D03*
X011633Y006160D03*
X012123Y005824D03*
X010709Y006160D03*
D299*
X010565Y005845D03*
X010635Y005355D03*
X011356Y006384D03*
D300*
X011650Y006119D03*
X011650Y006111D03*
X011664Y006084D03*
X011664Y006076D03*
X011664Y006063D03*
X010999Y005384D03*
X011006Y005363D03*
D301*
X011412Y005439D03*
X011419Y005425D03*
X011426Y005404D03*
X011426Y005390D03*
X011426Y005369D03*
D302*
X004458Y005369D03*
D303*
X004479Y005398D03*
X004401Y005384D03*
X010373Y005629D03*
X011584Y005748D03*
D304*
X011328Y006014D03*
X004482Y005411D03*
X004398Y005411D03*
X004398Y005398D03*
D305*
X010814Y005404D03*
D306*
X004482Y005404D03*
X004398Y005404D03*
D307*
X011423Y005411D03*
X011423Y005419D03*
X012123Y005831D03*
D308*
X011202Y005524D03*
X011202Y005516D03*
X010817Y005411D03*
D309*
X010828Y005419D03*
X010723Y005993D03*
D310*
X012126Y005713D03*
X012189Y005433D03*
D311*
X012196Y005439D03*
D312*
X011129Y005474D03*
D313*
X011202Y005481D03*
D314*
X012245Y005509D03*
D315*
X011206Y005509D03*
D316*
X012245Y005544D03*
D317*
X012238Y005565D03*
X010551Y005894D03*
D318*
X010562Y005859D03*
X012221Y005579D03*
D319*
X012105Y005608D03*
D320*
X010366Y005621D03*
D321*
X012123Y005656D03*
X012123Y005664D03*
D322*
X012126Y005719D03*
X011188Y005670D03*
X010579Y005810D03*
D323*
X011195Y005748D03*
D324*
X012130Y005769D03*
D325*
X010583Y005804D03*
D326*
X012126Y005810D03*
D327*
X011650Y005880D03*
D328*
X010555Y005880D03*
D329*
X010548Y005909D03*
D330*
X010548Y005915D03*
D331*
X010905Y005971D03*
X011626Y006168D03*
D332*
X010572Y005971D03*
D333*
X011335Y005979D03*
X011335Y005993D03*
D334*
X010726Y005999D03*
D335*
X011668Y006020D03*
X011668Y006034D03*
D336*
X011657Y006090D03*
D337*
X011349Y006378D03*
X010712Y006098D03*
D338*
X010712Y006104D03*
D339*
X010709Y006154D03*
D340*
X011307Y006160D03*
D341*
X011353Y006370D03*
D342*
X011366Y006405D03*
M02*
