G75*
G70*
%OFA0B0*%
%FSLAX24Y24*%
%IPPOS*%
%LPD*%
%AMOC8*
5,1,8,0,0,1.08239X$1,22.5*
%
%ADD10C,0.0079*%
%ADD11C,0.0129*%
%ADD12C,0.0170*%
%ADD13OC8,0.0560*%
%ADD14C,0.0560*%
%ADD15R,0.0490X0.0640*%
%ADD16C,0.0270*%
%ADD17R,0.0394X0.0316*%
%ADD18R,0.0316X0.0394*%
%ADD19R,0.1030X0.1030*%
%ADD20C,0.0156*%
%ADD21C,0.0195*%
%ADD22R,0.1024X0.0512*%
D10*
X007231Y003039D02*
X007469Y003039D01*
X007469Y002959D01*
X007231Y002959D01*
X007231Y003039D01*
X007231Y003037D02*
X007469Y003037D01*
X007469Y003235D02*
X007231Y003235D01*
X007469Y003235D02*
X007469Y003155D01*
X007231Y003155D01*
X007231Y003235D01*
X007231Y003233D02*
X007469Y003233D01*
X007469Y003432D02*
X007231Y003432D01*
X007469Y003432D02*
X007469Y003352D01*
X007231Y003352D01*
X007231Y003432D01*
X007231Y003430D02*
X007469Y003430D01*
X007469Y003629D02*
X007231Y003629D01*
X007469Y003629D02*
X007469Y003549D01*
X007231Y003549D01*
X007231Y003629D01*
X007231Y003627D02*
X007469Y003627D01*
X007469Y003826D02*
X007231Y003826D01*
X007469Y003826D02*
X007469Y003746D01*
X007231Y003746D01*
X007231Y003826D01*
X007231Y003824D02*
X007469Y003824D01*
X007469Y004023D02*
X007231Y004023D01*
X007469Y004023D02*
X007469Y003943D01*
X007231Y003943D01*
X007231Y004023D01*
X007231Y004021D02*
X007469Y004021D01*
X007469Y004220D02*
X007231Y004220D01*
X007469Y004220D02*
X007469Y004140D01*
X007231Y004140D01*
X007231Y004220D01*
X007231Y004218D02*
X007469Y004218D01*
X007469Y004416D02*
X007231Y004416D01*
X007469Y004416D02*
X007469Y004336D01*
X007231Y004336D01*
X007231Y004416D01*
X007231Y004414D02*
X007469Y004414D01*
X007546Y004732D02*
X007626Y004732D01*
X007626Y004494D01*
X007546Y004494D01*
X007546Y004732D01*
X007546Y004572D02*
X007626Y004572D01*
X007626Y004650D02*
X007546Y004650D01*
X007546Y004728D02*
X007626Y004728D01*
X007743Y004732D02*
X007823Y004732D01*
X007823Y004494D01*
X007743Y004494D01*
X007743Y004732D01*
X007743Y004572D02*
X007823Y004572D01*
X007823Y004650D02*
X007743Y004650D01*
X007743Y004728D02*
X007823Y004728D01*
X007940Y004732D02*
X008020Y004732D01*
X008020Y004494D01*
X007940Y004494D01*
X007940Y004732D01*
X007940Y004572D02*
X008020Y004572D01*
X008020Y004650D02*
X007940Y004650D01*
X007940Y004728D02*
X008020Y004728D01*
X008137Y004732D02*
X008217Y004732D01*
X008217Y004494D01*
X008137Y004494D01*
X008137Y004732D01*
X008137Y004572D02*
X008217Y004572D01*
X008217Y004650D02*
X008137Y004650D01*
X008137Y004728D02*
X008217Y004728D01*
X008333Y004732D02*
X008413Y004732D01*
X008413Y004494D01*
X008333Y004494D01*
X008333Y004732D01*
X008333Y004572D02*
X008413Y004572D01*
X008413Y004650D02*
X008333Y004650D01*
X008333Y004728D02*
X008413Y004728D01*
X008530Y004732D02*
X008610Y004732D01*
X008610Y004494D01*
X008530Y004494D01*
X008530Y004732D01*
X008530Y004572D02*
X008610Y004572D01*
X008610Y004650D02*
X008530Y004650D01*
X008530Y004728D02*
X008610Y004728D01*
X008727Y004732D02*
X008807Y004732D01*
X008807Y004494D01*
X008727Y004494D01*
X008727Y004732D01*
X008727Y004572D02*
X008807Y004572D01*
X008807Y004650D02*
X008727Y004650D01*
X008727Y004728D02*
X008807Y004728D01*
X008924Y004732D02*
X009004Y004732D01*
X009004Y004494D01*
X008924Y004494D01*
X008924Y004732D01*
X008924Y004572D02*
X009004Y004572D01*
X009004Y004650D02*
X008924Y004650D01*
X008924Y004728D02*
X009004Y004728D01*
X009081Y004416D02*
X009319Y004416D01*
X009319Y004336D01*
X009081Y004336D01*
X009081Y004416D01*
X009081Y004414D02*
X009319Y004414D01*
X009319Y004220D02*
X009081Y004220D01*
X009319Y004220D02*
X009319Y004140D01*
X009081Y004140D01*
X009081Y004220D01*
X009081Y004218D02*
X009319Y004218D01*
X009319Y004023D02*
X009081Y004023D01*
X009319Y004023D02*
X009319Y003943D01*
X009081Y003943D01*
X009081Y004023D01*
X009081Y004021D02*
X009319Y004021D01*
X009319Y003826D02*
X009081Y003826D01*
X009319Y003826D02*
X009319Y003746D01*
X009081Y003746D01*
X009081Y003826D01*
X009081Y003824D02*
X009319Y003824D01*
X009319Y003629D02*
X009081Y003629D01*
X009319Y003629D02*
X009319Y003549D01*
X009081Y003549D01*
X009081Y003629D01*
X009081Y003627D02*
X009319Y003627D01*
X009319Y003432D02*
X009081Y003432D01*
X009319Y003432D02*
X009319Y003352D01*
X009081Y003352D01*
X009081Y003432D01*
X009081Y003430D02*
X009319Y003430D01*
X009319Y003235D02*
X009081Y003235D01*
X009319Y003235D02*
X009319Y003155D01*
X009081Y003155D01*
X009081Y003235D01*
X009081Y003233D02*
X009319Y003233D01*
X009319Y003039D02*
X009081Y003039D01*
X009319Y003039D02*
X009319Y002959D01*
X009081Y002959D01*
X009081Y003039D01*
X009081Y003037D02*
X009319Y003037D01*
X009004Y002881D02*
X008924Y002881D01*
X009004Y002881D02*
X009004Y002643D01*
X008924Y002643D01*
X008924Y002881D01*
X008924Y002721D02*
X009004Y002721D01*
X009004Y002799D02*
X008924Y002799D01*
X008924Y002877D02*
X009004Y002877D01*
X008807Y002881D02*
X008727Y002881D01*
X008807Y002881D02*
X008807Y002643D01*
X008727Y002643D01*
X008727Y002881D01*
X008727Y002721D02*
X008807Y002721D01*
X008807Y002799D02*
X008727Y002799D01*
X008727Y002877D02*
X008807Y002877D01*
X008610Y002881D02*
X008530Y002881D01*
X008610Y002881D02*
X008610Y002643D01*
X008530Y002643D01*
X008530Y002881D01*
X008530Y002721D02*
X008610Y002721D01*
X008610Y002799D02*
X008530Y002799D01*
X008530Y002877D02*
X008610Y002877D01*
X008413Y002881D02*
X008333Y002881D01*
X008413Y002881D02*
X008413Y002643D01*
X008333Y002643D01*
X008333Y002881D01*
X008333Y002721D02*
X008413Y002721D01*
X008413Y002799D02*
X008333Y002799D01*
X008333Y002877D02*
X008413Y002877D01*
X008217Y002881D02*
X008137Y002881D01*
X008217Y002881D02*
X008217Y002643D01*
X008137Y002643D01*
X008137Y002881D01*
X008137Y002721D02*
X008217Y002721D01*
X008217Y002799D02*
X008137Y002799D01*
X008137Y002877D02*
X008217Y002877D01*
X008020Y002881D02*
X007940Y002881D01*
X008020Y002881D02*
X008020Y002643D01*
X007940Y002643D01*
X007940Y002881D01*
X007940Y002721D02*
X008020Y002721D01*
X008020Y002799D02*
X007940Y002799D01*
X007940Y002877D02*
X008020Y002877D01*
X007823Y002881D02*
X007743Y002881D01*
X007823Y002881D02*
X007823Y002643D01*
X007743Y002643D01*
X007743Y002881D01*
X007743Y002721D02*
X007823Y002721D01*
X007823Y002799D02*
X007743Y002799D01*
X007743Y002877D02*
X007823Y002877D01*
X007626Y002881D02*
X007546Y002881D01*
X007626Y002881D02*
X007626Y002643D01*
X007546Y002643D01*
X007546Y002881D01*
X007546Y002721D02*
X007626Y002721D01*
X007626Y002799D02*
X007546Y002799D01*
X007546Y002877D02*
X007626Y002877D01*
D11*
X007694Y004269D02*
X008856Y004269D01*
X008856Y003107D01*
X007694Y003107D01*
X007694Y004269D01*
X007694Y003235D02*
X008856Y003235D01*
X008856Y003363D02*
X007694Y003363D01*
X007694Y003491D02*
X008856Y003491D01*
X008856Y003619D02*
X007694Y003619D01*
X007694Y003747D02*
X008856Y003747D01*
X008856Y003875D02*
X007694Y003875D01*
X007694Y004003D02*
X008856Y004003D01*
X008856Y004131D02*
X007694Y004131D01*
X007694Y004259D02*
X008856Y004259D01*
D12*
X010460Y004253D02*
X010460Y004423D01*
X010460Y004253D02*
X009890Y004253D01*
X009890Y004423D01*
X010460Y004423D01*
X010460Y004422D02*
X009890Y004422D01*
X010460Y004753D02*
X010460Y004923D01*
X010460Y004753D02*
X009890Y004753D01*
X009890Y004923D01*
X010460Y004923D01*
X010460Y004922D02*
X009890Y004922D01*
X010460Y003923D02*
X010460Y003753D01*
X009890Y003753D01*
X009890Y003923D01*
X010460Y003923D01*
X010460Y003922D02*
X009890Y003922D01*
X011490Y003098D02*
X011660Y003098D01*
X011660Y002878D01*
X011490Y002878D01*
X011490Y003098D01*
X011490Y003047D02*
X011660Y003047D01*
X012090Y003098D02*
X012260Y003098D01*
X012260Y002878D01*
X012090Y002878D01*
X012090Y003098D01*
X012090Y003047D02*
X012260Y003047D01*
X012260Y002598D02*
X012090Y002598D01*
X012260Y002598D02*
X012260Y002378D01*
X012090Y002378D01*
X012090Y002598D01*
X012090Y002547D02*
X012260Y002547D01*
X011660Y002598D02*
X011490Y002598D01*
X011660Y002598D02*
X011660Y002378D01*
X011490Y002378D01*
X011490Y002598D01*
X011490Y002547D02*
X011660Y002547D01*
D13*
X005433Y003388D03*
D14*
X003833Y002588D03*
X004633Y002588D03*
X005433Y002588D03*
X004633Y003388D03*
X003833Y003388D03*
D15*
X010250Y010125D03*
X011050Y010125D03*
D16*
X011813Y009839D02*
X012369Y009839D01*
X012369Y009569D01*
X011813Y009569D01*
X011813Y009839D01*
X011813Y009838D02*
X012369Y009838D01*
X012837Y010626D02*
X013393Y010626D01*
X013393Y010356D01*
X012837Y010356D01*
X012837Y010626D01*
X012837Y010625D02*
X013393Y010625D01*
X012369Y011413D02*
X011813Y011413D01*
X012369Y011413D02*
X012369Y011143D01*
X011813Y011143D01*
X011813Y011413D01*
X011813Y011412D02*
X012369Y011412D01*
X012837Y009051D02*
X013393Y009051D01*
X013393Y008781D01*
X012837Y008781D01*
X012837Y009051D01*
X012837Y009050D02*
X013393Y009050D01*
X012369Y008264D02*
X011813Y008264D01*
X012369Y008264D02*
X012369Y007994D01*
X011813Y007994D01*
X011813Y008264D01*
X011813Y008263D02*
X012369Y008263D01*
X012837Y007476D02*
X013393Y007476D01*
X013393Y007206D01*
X012837Y007206D01*
X012837Y007476D01*
X012837Y007475D02*
X013393Y007475D01*
X012369Y006689D02*
X011813Y006689D01*
X012369Y006689D02*
X012369Y006419D01*
X011813Y006419D01*
X011813Y006689D01*
X011813Y006688D02*
X012369Y006688D01*
X012837Y005901D02*
X013393Y005901D01*
X013393Y005631D01*
X012837Y005631D01*
X012837Y005901D01*
X012837Y005900D02*
X013393Y005900D01*
X012369Y005114D02*
X011813Y005114D01*
X012369Y005114D02*
X012369Y004844D01*
X011813Y004844D01*
X011813Y005114D01*
X011813Y005113D02*
X012369Y005113D01*
X012837Y004327D02*
X013393Y004327D01*
X013393Y004057D01*
X012837Y004057D01*
X012837Y004327D01*
X012837Y004326D02*
X013393Y004326D01*
X004732Y004327D02*
X004176Y004327D01*
X004732Y004327D02*
X004732Y004057D01*
X004176Y004057D01*
X004176Y004327D01*
X004176Y004326D02*
X004732Y004326D01*
X003708Y005114D02*
X003152Y005114D01*
X003708Y005114D02*
X003708Y004844D01*
X003152Y004844D01*
X003152Y005114D01*
X003152Y005113D02*
X003708Y005113D01*
X004176Y005901D02*
X004732Y005901D01*
X004732Y005631D01*
X004176Y005631D01*
X004176Y005901D01*
X004176Y005900D02*
X004732Y005900D01*
X003708Y006689D02*
X003152Y006689D01*
X003708Y006689D02*
X003708Y006419D01*
X003152Y006419D01*
X003152Y006689D01*
X003152Y006688D02*
X003708Y006688D01*
X004176Y007476D02*
X004732Y007476D01*
X004732Y007206D01*
X004176Y007206D01*
X004176Y007476D01*
X004176Y007475D02*
X004732Y007475D01*
X003708Y008264D02*
X003152Y008264D01*
X003708Y008264D02*
X003708Y007994D01*
X003152Y007994D01*
X003152Y008264D01*
X003152Y008263D02*
X003708Y008263D01*
X004176Y009051D02*
X004732Y009051D01*
X004732Y008781D01*
X004176Y008781D01*
X004176Y009051D01*
X004176Y009050D02*
X004732Y009050D01*
X003708Y009839D02*
X003152Y009839D01*
X003708Y009839D02*
X003708Y009569D01*
X003152Y009569D01*
X003152Y009839D01*
X003152Y009838D02*
X003708Y009838D01*
X004176Y010626D02*
X004732Y010626D01*
X004732Y010356D01*
X004176Y010356D01*
X004176Y010626D01*
X004176Y010625D02*
X004732Y010625D01*
X003708Y011413D02*
X003152Y011413D01*
X003708Y011413D02*
X003708Y011143D01*
X003152Y011143D01*
X003152Y011413D01*
X003152Y011412D02*
X003708Y011412D01*
D17*
X007138Y009256D03*
X007625Y009256D03*
X008113Y009393D03*
X008113Y009882D03*
X008113Y010393D03*
X008113Y008882D03*
X007625Y008744D03*
X007138Y008744D03*
X006900Y007868D03*
X006400Y007868D03*
X006400Y007357D03*
X006900Y007357D03*
X006900Y006781D03*
X006400Y006781D03*
X006400Y006269D03*
X006900Y006269D03*
X009650Y006982D03*
X009650Y007493D03*
D18*
X010394Y008363D03*
X010181Y008900D03*
X009669Y008900D03*
X009181Y008900D03*
X008669Y008900D03*
X008643Y008288D03*
X008132Y008288D03*
X007618Y009750D03*
X007107Y009750D03*
X007132Y010375D03*
X007643Y010375D03*
X009669Y009400D03*
X010181Y009400D03*
X010906Y008363D03*
X010906Y006113D03*
X010394Y006113D03*
D19*
X008275Y006988D03*
D20*
X008275Y007669D02*
X008275Y007823D01*
X008469Y007823D02*
X008469Y007669D01*
X008663Y007669D02*
X008663Y007823D01*
X008956Y007376D02*
X009110Y007376D01*
X009110Y007182D02*
X008956Y007182D01*
X008956Y006988D02*
X009110Y006988D01*
X009110Y006793D02*
X008956Y006793D01*
X008956Y006599D02*
X009110Y006599D01*
X008663Y006306D02*
X008663Y006152D01*
X008469Y006152D02*
X008469Y006306D01*
X008275Y006306D02*
X008275Y006152D01*
X008081Y006152D02*
X008081Y006306D01*
X007887Y006306D02*
X007887Y006152D01*
X007594Y006599D02*
X007440Y006599D01*
X007440Y006793D02*
X007594Y006793D01*
X007594Y006988D02*
X007440Y006988D01*
X007440Y007182D02*
X007594Y007182D01*
X007594Y007376D02*
X007440Y007376D01*
X007887Y007669D02*
X007887Y007823D01*
X008081Y007823D02*
X008081Y007669D01*
D21*
X010348Y007590D02*
X010348Y007886D01*
X010348Y007590D02*
X010152Y007590D01*
X010152Y007886D01*
X010348Y007886D01*
X010348Y007784D02*
X010152Y007784D01*
X011148Y007886D02*
X011148Y007590D01*
X010952Y007590D01*
X010952Y007886D01*
X011148Y007886D01*
X011148Y007784D02*
X010952Y007784D01*
X011148Y006886D02*
X011148Y006590D01*
X010952Y006590D01*
X010952Y006886D01*
X011148Y006886D01*
X011148Y006784D02*
X010952Y006784D01*
X010348Y006886D02*
X010348Y006590D01*
X010152Y006590D01*
X010152Y006886D01*
X010348Y006886D01*
X010348Y006784D02*
X010152Y006784D01*
D22*
X005925Y008700D03*
X005925Y010000D03*
M02*
