%
M48
M72
T01C0.0120
T02C0.0320
%
T01
X3425Y4250
X4188Y4938
X4550Y4888
X5325Y5538
X5713Y5400
X6063Y5538
X6675Y5550
X6713Y5013
X6938Y4363
X6913Y4013
X7925Y4088
X8625Y4088
X9225Y4888
X9575Y4888
X9738Y5613
X9325Y5888
X9063Y5663
X8675Y5038
X8350Y5038
X8025Y5188
X7675Y5175
X7325Y6025
X7638Y6263
X8425Y6738
X8425Y7238
X7925Y7238
X7725Y7963
X6675Y8550
X6675Y8863
X6713Y9450
X6213Y9438
X5638Y9438
X5050Y9575
X4825Y8888
X5488Y7913
X5938Y8238
X5150Y6725
X5363Y6113
X5975Y6163
X4263Y5688
X3625Y5575
X5025Y3925
X6175Y2338
X7925Y3288
X8625Y3288
X9575Y3689
X9975Y3288
X10950Y2175
X11750Y3350
X12738Y3425
X13225Y3425
X13088Y2575
X13088Y2213
X12475Y2488
X11888Y4425
X12738Y5213
X13263Y4938
X11850Y5838
X11475Y5675
X11850Y6563
X11863Y7325
X11475Y7938
X11075Y7238
X9825Y6513
X9438Y6488
X9450Y7938
X9800Y8375
X9125Y9325
X9113Y9700
X9100Y10125
X8688Y10138
X8688Y9713
X8700Y9338
X9750Y10275
X9425Y10838
X9750Y11088
X9538Y11438
X10188Y11413
X10188Y11775
X10463Y11088
X10263Y10688
X10913Y10850
X10925Y11425
X11388Y11425
X12963Y9950
X12200Y9313
X12475Y8750
X12588Y8113
X11075Y8988
X10725Y9313
X8975Y10775
X8550Y10800
X8100Y10875
X7600Y10913
X7038Y10900
X6550Y10888
X6088Y10850
X6063Y11438
X6913Y11438
X7750Y11450
X8663Y11450
X5138Y11425
X5125Y10813
X4125Y11450
X3350Y10813
X3763Y10450
X3375Y8938
X3688Y8050
X4275Y7225
X10863Y4875
X10838Y4350
T02
X3833Y2588
X4633Y2588
X5433Y2588
X5433Y3388
X4633Y3388
X3833Y3388
M30
