G75*
G70*
%OFA0B0*%
%FSLAX24Y24*%
%IPPOS*%
%LPD*%
%AMOC8*
5,1,8,0,0,1.08239X$1,22.5*
%
%ADD10R,0.0394X0.0433*%
%ADD11R,0.0433X0.0394*%
%ADD12R,0.0098X0.0630*%
%ADD13R,0.0630X0.0098*%
%ADD14R,0.0551X0.0630*%
%ADD15R,0.0315X0.0315*%
%ADD16R,0.0480X0.0880*%
%ADD17R,0.1417X0.0866*%
%ADD18R,0.0315X0.0551*%
%ADD19C,0.0600*%
%ADD20R,0.0394X0.0394*%
%ADD21R,0.0630X0.0551*%
%ADD22R,0.0354X0.0315*%
%ADD23R,0.0220X0.0500*%
%ADD24R,0.0500X0.0220*%
%ADD25R,0.2126X0.2441*%
%ADD26R,0.0394X0.0630*%
%ADD27R,0.0551X0.1181*%
%ADD28R,0.1181X0.0551*%
%ADD29R,0.0945X0.0945*%
%ADD30R,0.0394X0.0276*%
%ADD31R,0.0236X0.0276*%
%ADD32R,0.0460X0.0630*%
%ADD33R,0.0748X0.1339*%
%ADD34R,0.0236X0.0118*%
%ADD35C,0.0040*%
%ADD36R,0.0500X0.0500*%
%ADD37R,0.0236X0.0866*%
%ADD38R,0.0551X0.0394*%
%ADD39R,0.0197X0.0256*%
%ADD40R,0.0256X0.0197*%
%ADD41R,0.0630X0.0460*%
%ADD42R,0.0531X0.0157*%
%ADD43R,0.0787X0.0591*%
%ADD44R,0.0256X0.0315*%
%ADD45R,0.0300X0.0300*%
%ADD46R,0.0450X0.0400*%
%ADD47R,0.0380X0.0400*%
%ADD48R,0.0866X0.0236*%
D10*
X016640Y005915D03*
X017390Y005915D03*
X017390Y006585D03*
X016640Y006585D03*
X010790Y009315D03*
X010790Y009985D03*
X012490Y011165D03*
X012490Y011835D03*
X018440Y013715D03*
X018440Y014385D03*
X019590Y014335D03*
X019590Y013665D03*
X020390Y012985D03*
X020390Y012315D03*
X013440Y015215D03*
X012840Y015215D03*
X012840Y015885D03*
X013440Y015885D03*
X010090Y015715D03*
X010090Y016385D03*
X010090Y017115D03*
X010090Y017785D03*
X010090Y018515D03*
X010090Y019185D03*
X007340Y019185D03*
X007340Y018515D03*
X007340Y017785D03*
X007340Y017115D03*
X007340Y016385D03*
X007340Y015715D03*
X006140Y015985D03*
X005440Y015985D03*
X005440Y015315D03*
X006140Y015315D03*
X006140Y016715D03*
X005440Y016715D03*
X005440Y017385D03*
X006140Y017385D03*
X016840Y017285D03*
X016840Y016615D03*
X030065Y010785D03*
X030065Y010115D03*
D11*
X026375Y014950D03*
X025705Y014950D03*
X023775Y015900D03*
X023105Y015900D03*
X022325Y015900D03*
X021655Y015900D03*
X021655Y016600D03*
X022325Y016600D03*
X023105Y016600D03*
X023775Y016600D03*
X016225Y015950D03*
X015555Y015950D03*
X014875Y015950D03*
X014205Y015950D03*
X012175Y015200D03*
X011505Y015200D03*
X010025Y011550D03*
X009355Y011550D03*
X009355Y009450D03*
X010025Y009450D03*
X019005Y012800D03*
X019675Y012800D03*
X002675Y018300D03*
X002005Y018300D03*
D12*
X014444Y013755D03*
X014601Y013755D03*
X014759Y013755D03*
X014916Y013755D03*
X015074Y013755D03*
X015231Y013755D03*
X015389Y013755D03*
X015546Y013755D03*
X015704Y013755D03*
X015861Y013755D03*
X016019Y013755D03*
X016176Y013755D03*
X016334Y013755D03*
X016491Y013755D03*
X016649Y013755D03*
X016806Y013755D03*
X016964Y013755D03*
X017121Y013755D03*
X017279Y013755D03*
X017436Y013755D03*
X017436Y009345D03*
X017279Y009345D03*
X017121Y009345D03*
X016964Y009345D03*
X016806Y009345D03*
X016649Y009345D03*
X016491Y009345D03*
X016334Y009345D03*
X016176Y009345D03*
X016019Y009345D03*
X015861Y009345D03*
X015704Y009345D03*
X015546Y009345D03*
X015389Y009345D03*
X015231Y009345D03*
X015074Y009345D03*
X014916Y009345D03*
X014759Y009345D03*
X014601Y009345D03*
X014444Y009345D03*
D13*
X013735Y010054D03*
X013735Y010211D03*
X013735Y010369D03*
X013735Y010526D03*
X013735Y010684D03*
X013735Y010841D03*
X013735Y010999D03*
X013735Y011156D03*
X013735Y011314D03*
X013735Y011471D03*
X013735Y011629D03*
X013735Y011786D03*
X013735Y011944D03*
X013735Y012101D03*
X013735Y012259D03*
X013735Y012416D03*
X013735Y012574D03*
X013735Y012731D03*
X013735Y012889D03*
X013735Y013046D03*
X018145Y013046D03*
X018145Y012889D03*
X018145Y012731D03*
X018145Y012574D03*
X018145Y012416D03*
X018145Y012259D03*
X018145Y012101D03*
X018145Y011944D03*
X018145Y011786D03*
X018145Y011629D03*
X018145Y011471D03*
X018145Y011314D03*
X018145Y011156D03*
X018145Y010999D03*
X018145Y010841D03*
X018145Y010684D03*
X018145Y010526D03*
X018145Y010369D03*
X018145Y010211D03*
X018145Y010054D03*
D14*
X015711Y014880D03*
X014609Y014880D03*
X021489Y003800D03*
X022591Y003800D03*
D15*
X020635Y007150D03*
X020045Y007150D03*
X020045Y007750D03*
X020635Y007750D03*
X020635Y008350D03*
X020045Y008350D03*
X020045Y008950D03*
X020635Y008950D03*
X020635Y009550D03*
X020045Y009550D03*
X020045Y010150D03*
X020635Y010150D03*
X026195Y015600D03*
X026785Y015600D03*
X026785Y016350D03*
X026195Y016350D03*
X002718Y018958D03*
X002127Y018958D03*
X002127Y020491D03*
X002718Y020491D03*
D16*
X031168Y010583D03*
X032078Y010583D03*
X032988Y010583D03*
X020550Y006220D03*
X019640Y006220D03*
X018730Y006220D03*
D17*
X019640Y003780D03*
X032078Y008142D03*
D18*
X032078Y009905D03*
X031478Y009875D03*
X032678Y009875D03*
X020240Y005500D03*
X019640Y005530D03*
X019040Y005500D03*
D19*
X019540Y004798D02*
X019740Y004798D01*
X019740Y003962D01*
X019540Y003962D01*
X019540Y004798D01*
X019540Y004561D02*
X019740Y004561D01*
X031978Y009173D02*
X032178Y009173D01*
X032178Y008337D01*
X031978Y008337D01*
X031978Y009173D01*
X031978Y008936D02*
X032178Y008936D01*
D20*
X020290Y013656D03*
X020290Y014444D03*
X012540Y010044D03*
X012540Y009256D03*
D21*
X011640Y009449D03*
X011640Y010551D03*
X020790Y015249D03*
X020790Y016351D03*
X030090Y009326D03*
X030090Y008224D03*
D22*
X025896Y013476D03*
X026723Y013850D03*
X025896Y014224D03*
X013534Y014524D03*
X012707Y014150D03*
X013534Y013776D03*
D23*
X022488Y015046D03*
X022803Y015046D03*
X023118Y015046D03*
X023433Y015046D03*
X023747Y015046D03*
X024062Y015046D03*
X024377Y015046D03*
X024692Y015046D03*
X024692Y011666D03*
X024377Y011666D03*
X024062Y011666D03*
X023747Y011666D03*
X023433Y011666D03*
X023118Y011666D03*
X022803Y011666D03*
X022488Y011666D03*
D24*
X021900Y012254D03*
X021900Y012569D03*
X021900Y012884D03*
X021900Y013199D03*
X021900Y013514D03*
X021900Y013829D03*
X021900Y014144D03*
X021900Y014459D03*
X025280Y014459D03*
X025280Y014144D03*
X025280Y013829D03*
X025280Y013514D03*
X025280Y013199D03*
X025280Y012884D03*
X025280Y012569D03*
X025280Y012254D03*
D25*
X014790Y004566D03*
D26*
X013892Y007440D03*
X015688Y007440D03*
D27*
X008090Y003805D03*
X008090Y005695D03*
D28*
X009295Y002050D03*
X011185Y002050D03*
D29*
X010140Y003834D03*
X010140Y005566D03*
D30*
X017935Y008094D03*
D31*
X017266Y008094D03*
X017266Y007306D03*
X018014Y007306D03*
D32*
X016040Y017050D03*
X015440Y017050D03*
D33*
X006508Y014100D03*
X004972Y014100D03*
D34*
X004946Y019158D03*
X004946Y019355D03*
X004946Y019552D03*
X004946Y019748D03*
X004946Y019945D03*
X004946Y020142D03*
X005340Y020142D03*
X005340Y019945D03*
X005340Y019748D03*
X005340Y019552D03*
X005340Y019355D03*
X005340Y019158D03*
X005734Y019158D03*
X005734Y019355D03*
X005734Y019552D03*
X005734Y019748D03*
X005734Y019945D03*
X005734Y020142D03*
D35*
X005803Y020467D02*
X005803Y020644D01*
X005862Y020644D01*
X005862Y020467D01*
X005803Y020467D01*
X005803Y020493D02*
X005862Y020493D01*
X005862Y020532D02*
X005803Y020532D01*
X005803Y020570D02*
X005862Y020570D01*
X005862Y020609D02*
X005803Y020609D01*
X005665Y020609D02*
X005606Y020609D01*
X005606Y020644D02*
X005665Y020644D01*
X005665Y020467D01*
X005606Y020467D01*
X005606Y020644D01*
X005606Y020570D02*
X005665Y020570D01*
X005665Y020532D02*
X005606Y020532D01*
X005606Y020493D02*
X005665Y020493D01*
X005468Y020493D02*
X005409Y020493D01*
X005409Y020467D02*
X005409Y020644D01*
X005468Y020644D01*
X005468Y020467D01*
X005409Y020467D01*
X005409Y020532D02*
X005468Y020532D01*
X005468Y020570D02*
X005409Y020570D01*
X005409Y020609D02*
X005468Y020609D01*
X005271Y020609D02*
X005212Y020609D01*
X005212Y020644D02*
X005271Y020644D01*
X005271Y020467D01*
X005212Y020467D01*
X005212Y020644D01*
X005212Y020570D02*
X005271Y020570D01*
X005271Y020532D02*
X005212Y020532D01*
X005212Y020493D02*
X005271Y020493D01*
X005074Y020493D02*
X005015Y020493D01*
X005015Y020467D02*
X005015Y020644D01*
X005074Y020644D01*
X005074Y020467D01*
X005015Y020467D01*
X005015Y020532D02*
X005074Y020532D01*
X005074Y020570D02*
X005015Y020570D01*
X005015Y020609D02*
X005074Y020609D01*
X004877Y020609D02*
X004818Y020609D01*
X004818Y020644D02*
X004877Y020644D01*
X004877Y020467D01*
X004818Y020467D01*
X004818Y020644D01*
X004818Y020570D02*
X004877Y020570D01*
X004877Y020532D02*
X004818Y020532D01*
X004818Y020493D02*
X004877Y020493D01*
X004681Y020493D02*
X004621Y020493D01*
X004621Y020487D02*
X004641Y020467D01*
X004681Y020467D01*
X004681Y020644D01*
X004621Y020644D01*
X004621Y020487D01*
X004621Y020532D02*
X004681Y020532D01*
X004681Y020570D02*
X004621Y020570D01*
X004621Y020609D02*
X004681Y020609D01*
X004503Y020369D02*
X004523Y020349D01*
X004523Y020309D01*
X004346Y020309D01*
X004346Y020369D01*
X004503Y020369D01*
X004523Y020339D02*
X004346Y020339D01*
X004346Y020172D02*
X004346Y020113D01*
X004523Y020113D01*
X004523Y020172D01*
X004346Y020172D01*
X004346Y020147D02*
X004523Y020147D01*
X004523Y019975D02*
X004346Y019975D01*
X004346Y019916D01*
X004523Y019916D01*
X004523Y019975D01*
X004523Y019954D02*
X004346Y019954D01*
X004346Y019778D02*
X004346Y019719D01*
X004523Y019719D01*
X004523Y019778D01*
X004346Y019778D01*
X004346Y019762D02*
X004523Y019762D01*
X004523Y019723D02*
X004346Y019723D01*
X004346Y019581D02*
X004346Y019522D01*
X004523Y019522D01*
X004523Y019581D01*
X004346Y019581D01*
X004346Y019569D02*
X004523Y019569D01*
X004523Y019531D02*
X004346Y019531D01*
X004346Y019384D02*
X004346Y019325D01*
X004523Y019325D01*
X004523Y019384D01*
X004346Y019384D01*
X004346Y019377D02*
X004523Y019377D01*
X004523Y019338D02*
X004346Y019338D01*
X004346Y019187D02*
X004346Y019128D01*
X004523Y019128D01*
X004523Y019187D01*
X004346Y019187D01*
X004346Y019184D02*
X004523Y019184D01*
X004523Y019146D02*
X004346Y019146D01*
X004346Y018991D02*
X004346Y018931D01*
X004503Y018931D01*
X004523Y018951D01*
X004523Y018991D01*
X004346Y018991D01*
X004346Y018953D02*
X004523Y018953D01*
X004641Y018833D02*
X004681Y018833D01*
X004681Y018656D01*
X004621Y018656D01*
X004621Y018813D01*
X004641Y018833D01*
X004621Y018799D02*
X004681Y018799D01*
X004681Y018761D02*
X004621Y018761D01*
X004621Y018722D02*
X004681Y018722D01*
X004681Y018684D02*
X004621Y018684D01*
X004818Y018684D02*
X004877Y018684D01*
X004877Y018656D02*
X004818Y018656D01*
X004818Y018833D01*
X004877Y018833D01*
X004877Y018656D01*
X004877Y018722D02*
X004818Y018722D01*
X004818Y018761D02*
X004877Y018761D01*
X004877Y018799D02*
X004818Y018799D01*
X005015Y018799D02*
X005074Y018799D01*
X005074Y018833D02*
X005074Y018656D01*
X005015Y018656D01*
X005015Y018833D01*
X005074Y018833D01*
X005074Y018761D02*
X005015Y018761D01*
X005015Y018722D02*
X005074Y018722D01*
X005074Y018684D02*
X005015Y018684D01*
X005212Y018684D02*
X005271Y018684D01*
X005271Y018656D02*
X005212Y018656D01*
X005212Y018833D01*
X005271Y018833D01*
X005271Y018656D01*
X005271Y018722D02*
X005212Y018722D01*
X005212Y018761D02*
X005271Y018761D01*
X005271Y018799D02*
X005212Y018799D01*
X005409Y018799D02*
X005468Y018799D01*
X005468Y018833D02*
X005468Y018656D01*
X005409Y018656D01*
X005409Y018833D01*
X005468Y018833D01*
X005468Y018761D02*
X005409Y018761D01*
X005409Y018722D02*
X005468Y018722D01*
X005468Y018684D02*
X005409Y018684D01*
X005606Y018684D02*
X005665Y018684D01*
X005665Y018656D02*
X005606Y018656D01*
X005606Y018833D01*
X005665Y018833D01*
X005665Y018656D01*
X005665Y018722D02*
X005606Y018722D01*
X005606Y018761D02*
X005665Y018761D01*
X005665Y018799D02*
X005606Y018799D01*
X005803Y018799D02*
X005862Y018799D01*
X005862Y018833D02*
X005862Y018656D01*
X005803Y018656D01*
X005803Y018833D01*
X005862Y018833D01*
X005862Y018761D02*
X005803Y018761D01*
X005803Y018722D02*
X005862Y018722D01*
X005862Y018684D02*
X005803Y018684D01*
X005999Y018684D02*
X006059Y018684D01*
X006059Y018656D02*
X005999Y018656D01*
X005999Y018833D01*
X006039Y018833D01*
X006059Y018813D01*
X006059Y018656D01*
X006059Y018722D02*
X005999Y018722D01*
X005999Y018761D02*
X006059Y018761D01*
X006059Y018799D02*
X005999Y018799D01*
X006157Y018951D02*
X006157Y018991D01*
X006334Y018991D01*
X006334Y018931D01*
X006177Y018931D01*
X006157Y018951D01*
X006157Y018953D02*
X006334Y018953D01*
X006334Y019128D02*
X006157Y019128D01*
X006157Y019187D01*
X006334Y019187D01*
X006334Y019128D01*
X006334Y019146D02*
X006157Y019146D01*
X006157Y019184D02*
X006334Y019184D01*
X006334Y019325D02*
X006157Y019325D01*
X006157Y019384D01*
X006334Y019384D01*
X006334Y019325D01*
X006334Y019338D02*
X006157Y019338D01*
X006157Y019377D02*
X006334Y019377D01*
X006334Y019522D02*
X006157Y019522D01*
X006157Y019581D01*
X006334Y019581D01*
X006334Y019522D01*
X006334Y019531D02*
X006157Y019531D01*
X006157Y019569D02*
X006334Y019569D01*
X006334Y019719D02*
X006157Y019719D01*
X006157Y019778D01*
X006334Y019778D01*
X006334Y019719D01*
X006334Y019723D02*
X006157Y019723D01*
X006157Y019762D02*
X006334Y019762D01*
X006334Y019916D02*
X006157Y019916D01*
X006157Y019975D01*
X006334Y019975D01*
X006334Y019916D01*
X006334Y019954D02*
X006157Y019954D01*
X006157Y020113D02*
X006157Y020172D01*
X006334Y020172D01*
X006334Y020113D01*
X006157Y020113D01*
X006157Y020147D02*
X006334Y020147D01*
X006334Y020309D02*
X006334Y020369D01*
X006177Y020369D01*
X006157Y020349D01*
X006157Y020309D01*
X006334Y020309D01*
X006334Y020339D02*
X006157Y020339D01*
X006039Y020467D02*
X005999Y020467D01*
X005999Y020644D01*
X006059Y020644D01*
X006059Y020487D01*
X006039Y020467D01*
X006059Y020493D02*
X005999Y020493D01*
X005999Y020532D02*
X006059Y020532D01*
X006059Y020570D02*
X005999Y020570D01*
X005999Y020609D02*
X006059Y020609D01*
D36*
X004140Y018150D03*
X003340Y018150D03*
D37*
X010740Y018324D03*
X011240Y018324D03*
X011740Y018324D03*
X012240Y018324D03*
X012240Y016276D03*
X011740Y016276D03*
X011240Y016276D03*
X010740Y016276D03*
D38*
X011207Y014374D03*
X012073Y014000D03*
X011207Y013626D03*
D39*
X013568Y016784D03*
X013883Y016784D03*
X014197Y016784D03*
X014512Y016784D03*
X014512Y017316D03*
X014197Y017316D03*
X013883Y017316D03*
X013568Y017316D03*
X021918Y010766D03*
X022233Y010766D03*
X022547Y010766D03*
X022862Y010766D03*
X022862Y010234D03*
X022547Y010234D03*
X022233Y010234D03*
X021918Y010234D03*
D40*
X019406Y009672D03*
X019406Y009357D03*
X018874Y009357D03*
X018874Y009672D03*
X018874Y009043D03*
X018874Y008728D03*
X019406Y008728D03*
X019406Y009043D03*
X019406Y008222D03*
X018874Y008222D03*
X018874Y007907D03*
X018874Y007593D03*
X019406Y007593D03*
X019406Y007907D03*
X019406Y007278D03*
X018874Y007278D03*
X013806Y008028D03*
X013806Y008343D03*
X013274Y008343D03*
X013274Y008028D03*
X013274Y008657D03*
X013274Y008972D03*
X013806Y008972D03*
X013806Y008657D03*
X009756Y010028D03*
X009756Y010343D03*
X009224Y010343D03*
X009224Y010028D03*
X009224Y010657D03*
X009224Y010972D03*
X009756Y010972D03*
X009756Y010657D03*
X003784Y019628D03*
X003253Y019628D03*
X003253Y019943D03*
X003253Y020257D03*
X003784Y020257D03*
X003784Y019943D03*
X003784Y020572D03*
X003253Y020572D03*
D41*
X016565Y008025D03*
X016565Y007425D03*
D42*
X003054Y015038D03*
X003054Y015294D03*
X003054Y015550D03*
X003054Y015806D03*
X003054Y016062D03*
D43*
X002040Y016062D03*
X002040Y015038D03*
D44*
X016266Y017778D03*
X016640Y017778D03*
X017014Y017778D03*
X017014Y018722D03*
X016640Y018722D03*
X016266Y018722D03*
D45*
X015640Y018550D03*
X015640Y017950D03*
X017640Y017950D03*
X017640Y018550D03*
D46*
X024990Y005088D03*
X024190Y004738D03*
X024990Y004388D03*
D47*
X025690Y004478D03*
X025690Y005147D03*
X026253Y006290D03*
X026253Y006960D03*
X026265Y007615D03*
X026265Y008285D03*
X029340Y014903D03*
X029340Y015572D03*
D48*
X025214Y007913D03*
X025214Y007413D03*
X025214Y006913D03*
X025214Y006413D03*
X023166Y006413D03*
X023166Y006913D03*
X023166Y007413D03*
X023166Y007913D03*
M02*
