%
M48
M72
T01C0.0150
T02C0.0157
T03C0.0197
T04C0.0276
T05C0.0320
T06C0.0354
T07C0.0400
T08C0.0512
T09C0.0590
T10C0.0642
T11C0.1180
T12C0.1260
T13C0.1280
%
T01
X25490Y3663
X33940Y4613
X28153Y8463
X28428Y17988
X24490Y18938
T02
X24815Y18400
X25028Y17763
X23878Y17463
X22603Y17475
X24778Y16513
X24190Y16250
X24590Y15950
X24390Y15600
X23740Y15450
X25040Y15100
X24790Y14450
X24440Y14250
X24390Y13850
X24190Y13530
X24690Y13550
X23660Y13300
X23640Y12850
X23240Y12850
X22690Y13350
X22440Y13050
X22840Y13750
X22490Y13950
X23040Y14100
X22890Y14450
X23790Y14300
X21440Y14850
X21240Y14350
X19990Y15000
X17990Y14700
X17690Y14700
X17940Y14050
X17740Y13850
X18740Y13250
X17340Y12800
X17340Y12250
X17140Y11750
X16500Y12010
X15090Y12650
X14490Y12450
X14840Y12350
X14310Y12870
X13640Y13350
X12840Y13000
X12490Y12300
X14380Y11340
X15040Y10800
X14490Y10500
X15390Y9950
X15780Y9920
X16040Y10200
X16690Y10100
X16330Y9920
X17090Y10150
X17440Y10050
X17440Y10400
X17440Y10750
X17090Y10500
X16440Y11250
X18290Y9750
X18490Y9400
X18230Y9130
X18490Y8850
X18490Y8450
X18490Y8050
X18490Y7600
X17653Y7613
X18490Y7200
X18990Y6900
X19290Y6900
X19240Y6500
X17840Y6100
X18440Y5500
X18690Y5500
X20540Y5600
X20540Y5300
X21628Y5025
X21628Y5688
X22840Y5550
X23190Y5550
X23190Y4900
X22840Y4900
X21740Y6750
X23278Y8375
X22890Y8700
X21890Y9250
X21590Y9250
X23690Y9400
X24290Y9400
X23740Y9800
X21540Y10550
X20910Y10550
X20640Y10950
X20190Y10850
X19740Y10850
X19890Y11250
X19490Y11250
X19990Y11600
X20340Y11750
X21440Y12000
X21840Y11900
X21840Y11500
X22440Y11150
X22990Y11150
X24240Y11150
X24890Y11200
X23690Y12250
X23290Y12250
X22890Y12250
X22490Y12200
X24190Y12970
X24490Y12750
X24490Y12390
X24790Y12950
X25990Y12950
X27190Y13350
X27990Y13350
X30265Y11875
X28365Y11438
X28340Y10275
X26540Y9850
X27628Y9188
X29403Y8200
X30940Y7550
X29140Y6900
X27653Y6575
X27665Y5850
X26740Y5350
X29140Y5900
X29003Y3775
X25390Y3200
X23928Y2325
X21540Y2513
X20440Y2600
X20440Y2950
X20440Y1550
X20440Y1200
X16090Y3500
X16390Y3650
X16390Y3950
X16090Y4100
X16090Y3800
X16390Y4250
X16390Y4550
X16390Y4850
X16090Y5000
X16090Y4700
X16090Y4400
X16390Y5150
X16390Y5450
X16090Y5300
X16090Y5600
X13490Y5600
X13190Y5450
X13190Y5150
X13490Y5300
X13490Y5000
X13490Y4700
X13190Y4850
X13190Y4550
X13190Y4250
X13490Y4400
X13490Y4100
X13490Y3800
X13190Y3950
X13190Y3650
X13490Y3500
X14190Y2850
X14490Y2850
X14790Y2850
X15090Y2850
X15390Y2850
X15690Y2850
X11640Y1450
X10440Y1400
X10040Y1400
X8440Y1250
X8140Y1250
X4890Y5550
X7740Y6500
X8140Y6500
X8540Y6500
X8940Y6500
X5840Y8200
X6340Y8750
X5240Y9200
X5890Y9650
X5890Y10100
X5890Y10450
X5890Y10800
X6690Y10800
X5290Y11100
X3490Y10700
X3540Y12750
X2340Y12750
X2040Y12750
X2020Y13450
X3140Y13550
X3440Y13550
X3740Y14450
X4040Y14450
X4440Y15050
X4040Y16150
X3740Y16150
X6540Y16000
X7140Y15100
X7340Y14650
X8840Y15850
X9240Y15850
X9840Y15050
X10740Y15550
X12440Y15600
X13890Y14900
X12540Y14750
X12590Y13750
X15140Y13170
X16190Y14320
X16240Y14700
X16690Y14700
X13840Y16400
X12640Y16450
X10590Y17100
X9090Y17800
X8290Y17400
X6540Y18550
X5440Y17850
X4740Y18050
X3690Y18900
X2940Y19400
X2890Y19800
X2190Y19950
X1840Y19450
X4100Y19650
X4100Y20040
X4040Y20900
X4440Y20900
X4840Y20900
X5240Y20900
X6190Y20850
X6490Y21100
X8640Y19950
X8190Y19750
X7790Y19400
X6940Y19250
X6640Y19750
X8753Y18950
X9590Y19300
X11440Y19750
X12340Y19950
X13440Y19200
X13740Y18950
X13640Y18550
X13640Y17850
X14990Y17350
X15240Y18050
X15140Y18450
X15340Y19050
X16140Y19850
X16640Y19850
X18140Y18900
X18040Y18050
X19440Y16950
X21428Y18888
X21040Y19650
X21540Y19875
X21990Y19650
X23353Y18888
X25090Y19700
X27015Y19350
X27315Y19963
X27040Y20550
X29653Y20125
X32865Y20288
X33553Y19588
X30590Y18538
X28703Y18438
X27090Y18525
X26740Y17450
X27978Y17013
X29378Y17113
X30928Y17088
X32103Y17100
X33640Y15338
X33540Y13275
X33940Y11438
X33940Y10975
X30878Y9475
X31315Y8888
X32865Y8850
X33065Y8263
X33978Y8400
X33978Y8788
X27290Y8050
X21190Y11000
X19490Y10300
X15870Y8370
X15240Y7450
X14940Y7450
X13390Y7650
X11190Y9000
X10240Y8950
X9890Y8950
X9540Y8950
X9190Y8950
X7340Y9800
X10790Y10450
X10940Y11250
X11290Y11250
X11640Y11250
X10590Y11250
X13040Y10850
X12990Y9350
X13910Y9360
X14140Y9200
X7390Y11700
X2170Y17950
X2440Y20950
X21040Y13450
X27390Y15900
X27815Y15975
X33340Y2950
X27203Y1725
T03
X2040Y15350
X2040Y15750
T04
X3083Y16505
X2119Y16977
X1961Y16977
X3083Y14595
X2119Y14123
X1961Y14123
T05
X8740Y16450
X8740Y18350
X19190Y17700
X21440Y17900
X23340Y17900
X19190Y15800
X30428Y16275
X30428Y15275
X30428Y14275
T06
X7940Y11800
X6940Y11300
X7940Y10800
X6940Y10300
X7940Y9800
X6940Y9300
X7940Y8800
X6940Y8300
X7940Y7800
X6940Y7300
T07
X2834Y6942
X2834Y7942
X2834Y11158
X2834Y12158
X8240Y13550
X9240Y13550
X10240Y13550
X10240Y14550
X9240Y14550
X8240Y14550
X17640Y17050
X17840Y20550
X16840Y20550
X15840Y20550
X14840Y20550
X13840Y20550
X12840Y20550
X11840Y20550
X10840Y20550
X9840Y20550
X8840Y20550
X19440Y20550
X20440Y20550
X21440Y20550
X22440Y20550
X23440Y20550
X24440Y20550
X25440Y20550
X26440Y20550
X33480Y18253
X33480Y16473
X33530Y14240
X33530Y12460
X27495Y12530
X26495Y12530
X26495Y11530
X27495Y11530
X27495Y10530
X26495Y10530
X24715Y10475
X17640Y5050
X11440Y5050
X11440Y6050
X11440Y7050
X11440Y8050
X12440Y1550
X13440Y1550
X14440Y1550
X15440Y1550
X16440Y1550
X17440Y1550
X18440Y1550
X19440Y1550
X21440Y1550
X22440Y1550
X23440Y1550
X24440Y1550
X25440Y1550
X26440Y1550
T08
X29890Y5850
X30895Y5848
X31900Y5850
X32910Y5848
X32908Y6838
X31898Y6840
X30893Y6838
X29888Y6840
X29100Y20898
X33668Y20895
T09
X32500Y18743
X32500Y15983
X32550Y14730
X32550Y11970
T10
X5641Y12599
X5641Y6501
T11
X4903Y1850
X6084Y3700
X3721Y3700
T12
X6940Y1550
X27440Y3550
X27440Y14550
X7440Y20550
T13
X4440Y11800
X4440Y7300
M30
